<svg id="Art" xmlns="http://www.w3.org/2000/svg" viewBox="0 0 629.53516 1013.641"><defs><style>.cls-1{fill:#a0a0a5;}</style></defs><path class="cls-1" d="M508.40967,1002.57544c2.05108-.59436,1.31482,6.213,1.62329,7.43414C506.60132,1008.50262,508.496,1000.81189,508.40967,1002.57544Z" transform="translate(-197.23242 -5.07414)"/><polygon class="cls-1" points="277.323 982.06 277.922 984.838 272.931 978.031 277.323 982.06"/><path class="cls-1" d="M442.89685,987.26062c2.99292-11.5929,11.47131,1.87073,17.11169-2.24744l.92957-2.65667,2.54462,9.34057C456.62762,990.21771,447.72418,984.021,442.89685,987.26062Z" transform="translate(-197.23242 -5.07414)"/><path class="cls-1" d="M426.01685,1012.32031c1.042-4.49975-3.651-3.86969,3.93621-1.403a9.40224,9.40224,0,0,0-.71295,1.1416A11.25311,11.25311,0,0,0,426.01685,1012.32031Z" transform="translate(-197.23242 -5.07414)"/><path class="cls-1" d="M429.24011,1012.0589c3.33435.32477-2.18127,3.782,0,0Z" transform="translate(-197.23242 -5.07414)"/><path class="cls-1" d="M413.84357,1009.47858l4.39135,4.02722c-.91723,2.65991-4.826,3.26233-3.37408,5.20935a9.67862,9.67862,0,0,1-1.4422-.85236,5.92281,5.92281,0,0,1-.54407-.44629l-.23022-.229-.10492-.116-.1825-.11719a2.47962,2.47962,0,0,1-1.347-2.04565,4.34277,4.34277,0,0,1,1.08111-2.4516,6.05952,6.05952,0,0,0,.50934-.69049q.17029-.33664.36682-.72534C413.22882,1010.54565,413.52344,1010.02557,413.84357,1009.47858Z" transform="translate(-197.23242 -5.07414)"/><path class="cls-1" d="M407.94678,1001.02136l3.63946,1.70185C410.93945,1003.84045,409.86993,1004.23669,407.94678,1001.02136Z" transform="translate(-197.23242 -5.07414)"/><path class="cls-1" d="M416.78168,1006.31848l-2.413-1.79761-1.20648-.89886-.60327-.4494-.97266-.4494a11.80025,11.80025,0,0,0,.661-1.5575,6.79548,6.79548,0,0,1,.28943-.677,1.21806,1.21806,0,0,1,.1983-.4126c.28534-.30835.68018.48163,1.43628,3.94293C413.77637,1000.58942,414.73059,1003.8924,416.78168,1006.31848Z" transform="translate(-197.23242 -5.07414)"/><path class="cls-1" d="M419.5141,1004.55817c2.46374-2.52509,5.64587-4.11164,1.238-8.11939C429.15375,998.0318,427.91571,1006.1756,419.5141,1004.55817Z" transform="translate(-197.23242 -5.07414)"/><path class="cls-1" d="M441.2804,975.27155l3.29321-3.40528,2.849,3.89728C445.99945,973.836,441.07611,978.89929,441.2804,975.27155Z" transform="translate(-197.23242 -5.07414)"/><path class="cls-1" d="M364.87305,1015.154c.56012-2.464,5.29657-6.47571,7.01165-9.615q2.14993,1.4674,4.44263,2.94214C372.94031,1010.107,366.81659,1011.53577,364.87305,1015.154Z" transform="translate(-197.23242 -5.07414)"/><path class="cls-1" d="M371.8847,1005.53894q-3.2199-2.18719-6.1217-4.35809C372.86133,1000.823,373.35834,1002.84814,371.8847,1005.53894Z" transform="translate(-197.23242 -5.07414)"/><path class="cls-1" d="M407.4375,988.15216q1.33127,1.11155,2.73328,2.22308l1.41967,1.11152a7.37369,7.37369,0,0,1,1.29273,1.11157l3.9862,4.44616-2.37731-2.25476-1.18873-1.12738a6.56336,6.56336,0,0,0-1.3883-1.12738q-3.481-2.25476-6.61981-4.50952Z" transform="translate(-197.23242 -5.07414)"/><path class="cls-1" d="M338.21094,1002.26349q-.532,4.64749-.93476,9.50232.24307-7.94651.83649-15.33374Q338.13583,999.30646,338.21094,1002.26349Z" transform="translate(-197.23242 -5.07414)"/><path class="cls-1" d="M327.42767,982.32288c-.80536,3.28857-2.91485,3.664-4.91046,3.7904-1.98163.14252-3.81653.03864-3.8371,2.91754a29.64558,29.64558,0,0,1-2.12292-10.12408,67.35681,67.35681,0,0,1,.4469-10.05243C317.80133,974.46649,321.09509,979.16162,327.42767,982.32288Z" transform="translate(-197.23242 -5.07414)"/><path class="cls-1" d="M317.7323,959.24567a29.24745,29.24745,0,0,1-.214,4.3164c-.13092,1.6399-.33356,3.41364-.51416,5.29224a24.23943,24.23943,0,0,1-.24243-4.65643A20.839,20.839,0,0,1,317.7323,959.24567Z" transform="translate(-197.23242 -5.07414)"/><path class="cls-1" d="M352.58844,1000.83539c-1.18317.93024-4.0578,3.70917-7.50159,1.18841q2.97427-1.78491,5.83985-3.74566C351.43335,999.0578,352.00671,999.94019,352.58844,1000.83539Z" transform="translate(-197.23242 -5.07414)"/><path class="cls-1" d="M351.11261,998.16522l-.18591.11292c-1.82746-2.72669-3.12549-4.58942-3.69007-5.37622C347.71606,993.58429,348.89313,995.17743,351.11261,998.16522Z" transform="translate(-197.23242 -5.07414)"/><path class="cls-1" d="M353.00861,1001.47729c-.1579-.22985-.27387-.39984-.42017-.6419C353.14355,1000.41962,353.3598,1000.35681,353.00861,1001.47729Z" transform="translate(-197.23242 -5.07414)"/><path class="cls-1" d="M387.97687,994.42841c-1.656-1.92231-4.21039-3.99073-4.99927-6.272-.8241-2.28265.17078-4.78619,4.76477-7.70349.5777,2.38916-.3977,4.41522-1.09973,6.57874C385.97211,989.19379,385.53687,991.51471,387.97687,994.42841Z" transform="translate(-197.23242 -5.07414)"/><path class="cls-1" d="M361.18378,993.63116l8.36615-1.44574c-.97254,1.8144-3.68323,4.43915-2.38764,6.38447Q363.96518,996.0899,361.18378,993.63116Z" transform="translate(-197.23242 -5.07414)"/><path class="cls-1" d="M359.169,990.62958l.16119,1.32257.60706.55914,1.24652,1.11987c-1.04444.16877-2.11243.3686-3.15369.51093Z" transform="translate(-197.23242 -5.07414)"/><path class="cls-1" d="M330.37915,968.51215a17.97771,17.97771,0,0,0-.595-6.80866,53.3195,53.3195,0,0,0-2.30084-6.01318,50.19806,50.19806,0,0,1,8.62286,11.05957C334.73743,968.73975,332.82507,973.26782,330.37915,968.51215Z" transform="translate(-197.23242 -5.07414)"/><path class="cls-1" d="M340.93658,982.7193c-.01593-.34369-.131-.67578-.13787-1.0044C341.46509,981.66968,341.78882,981.8631,340.93658,982.7193Z" transform="translate(-197.23242 -5.07414)"/><path class="cls-1" d="M312.86169,928.60889c.40613-.03705.90021-.14417,1.32483-.188-.34045.21759-.60675.38775-1.01617.64947Z" transform="translate(-197.23242 -5.07414)"/><path class="cls-1" d="M337.4884,966.55084c2.72467,2.07361,2.46338,4.973,1.94782,8.28937a42.81574,42.81574,0,0,0-3.33-8.09033C336.72675,965.83667,337.202,965.35889,337.4884,966.55084Z" transform="translate(-197.23242 -5.07414)"/><path class="cls-1" d="M315.498,948.401a22.329,22.329,0,0,1,2.69268.7052q.65359.21378,1.29023.45862l.31762.12353a3.14918,3.14918,0,0,1,.37061.22333q.37739.24682.75976.497c-.34564-.05987-.72271-.13684-1.116-.22955-.19446-.04254-.40216-.1051-.59534-.142-.17493-.01239-.35425-.02515-.53662-.03815a14.91574,14.91574,0,0,1-2.01038-.28827C315.49658,949.44244,314.80524,949.01642,315.498,948.401Z" transform="translate(-197.23242 -5.07414)"/><path class="cls-1" d="M338.82739,982.17133a5.98535,5.98535,0,0,0,.06464.71337C337.23767,982.99762,337.81781,982.56647,338.82739,982.17133Z" transform="translate(-197.23242 -5.07414)"/><path class="cls-1" d="M338.82739,982.17133a27.73859,27.73859,0,0,1,.60883-7.33112,33.51093,33.51093,0,0,1,1.36249,6.87469A6.29393,6.29393,0,0,0,338.82739,982.17133Z" transform="translate(-197.23242 -5.07414)"/><path class="cls-1" d="M348.57721,900.72272c-5.54089,3.26947-8.14777,11.23431.31866,12.48333-1.96423,6.62348-22.1513,13.686-34.70935,15.21485,2.41278-1.43665,4.69525-2.64618,5.678-9.01953,3.9422.02752,12.611,6.39276,15.73517-.17676-.23681-7.56885-4.59875-3.89887-9.15332-5.29529,8.3869-1.17547,6.4007-13.04785,17.59-17.06775l-.99976,7.153C344.71777,903.27087,346.3338,900.03485,348.57721,900.72272Z" transform="translate(-197.23242 -5.07414)"/><path class="cls-1" d="M319.42847,936.9444l.31183,2.279c-2.13837-1.647-5.25391-1.9812-11.22162-2.51666,1.10461-4.66443,2.87091-6.42432,4.65167-7.63636l5.75848,8.97663Z" transform="translate(-197.23242 -5.07414)"/><path class="cls-1" d="M324.41376,947.9436c.30871-.34619.595-.70074.86285-1.06054.264-.36658.56732-.63715.826-.96338.53186-.62671,1.00873-1.25873,1.4563-1.88367.89508-1.24988,1.67309-2.47143,2.53955-3.56708a10.48059,10.48059,0,0,1,7.89685-4.29876,6.2483,6.2483,0,0,1,.60345,3.56677,6.50019,6.50019,0,0,1-1.02441,2.95306c-1.05389,1.77954-2.57129,3.377-2.63043,6.42188-2.56226-6.47107-2.93768-5.13111-3.69013-2.99671-.76226,2.1167-1.77722,5.25214-6.07946,1.54a29.33567,29.33567,0,0,0,2.309,8.0351,51.22487,51.22487,0,0,0-6.55445-5.28162c.21.04486.36084.07318.551.09876l.02508.06921c.03113-.01752.03809-.03857.07209-.05762,1.08728.15076,1.65606.07306.86279-.3316.04486-.08356-.02075-.26013-.02924-.34979a11.36507,11.36507,0,0,0,1.96906-1.87525,6.29431,6.29431,0,0,0-.55951-.48236c-.14075-.08764-.2688-.15985-.38532-.21808a1.694,1.694,0,0,0-.56945-.19079.45754.45754,0,0,0-.52661.37738,3.52969,3.52969,0,0,0-.07471.96917,8.52788,8.52788,0,0,1,.14654,1.41993,10.25367,10.25367,0,0,1-.83355.68139.4463.4463,0,0,1-.09717-.01159l-.25635-.96338-.12744-.48041-.05145-.34674-.18946-1.35809-.3775-2.71381-.73736-5.42163a8.891,8.891,0,0,1,2.398,3.08667,25.79582,25.79582,0,0,1,1.05932,2.38116q.25735.68391.54444,1.44635.13732.38553.28228.79279l.14453.41449Z" transform="translate(-197.23242 -5.07414)"/><path class="cls-1" d="M386.89447,965.41205a5.0658,5.0658,0,0,0-.97211,1.61127C385.57928,966.1701,385.57574,965.59082,386.89447,965.41205Z" transform="translate(-197.23242 -5.07414)"/><path class="cls-1" d="M380.73218,969.59088c.34186.966-.17963,3.74475,2.83709,3.05542,3.13727-2.07306,1.2884-3.33349,2.35309-5.623a10.33937,10.33937,0,0,1,1.30493,3.62841c.03968,1.44629-.72845,3.08551-4.03125,4.76056l-.457-.95807c-2.81842,1.17774-6.81854,3.91474-10.29418,6.46582-3.4524,2.55225-6.29657,4.92279-6.06983,5.40516,2.4657-3.10254,4.57349-5.75849,6.82849-8.40149C375.45178,975.2804,377.85278,972.65033,380.73218,969.59088Z" transform="translate(-197.23242 -5.07414)"/><path class="cls-1" d="M354.04266,965.3858c-1.03167-4.02917-1.98669-7.93255-2.82483-11.74408a70.76426,70.76426,0,0,0,7.1026.24012l-2.80493,2.4107C359.41449,960.19141,355.62305,962.54822,354.04266,965.3858Z" transform="translate(-197.23242 -5.07414)"/><polygon class="cls-1" points="112.09 924.281 106.064 928.711 113.051 919.5 112.09 924.281"/><polygon class="cls-1" points="107.783 914.014 102.259 917.301 104.371 912.925 107.783 914.014"/><path class="cls-1" d="M368.96057,367.23959l3.14105-1.14691A7.994,7.994,0,0,1,368.96057,367.23959Z" transform="translate(-197.23242 -5.07414)"/><path class="cls-1" d="M356.4715,383.05219l-2.69953-1.72584C355.68549,381.78763,356.9093,382.34659,356.4715,383.05219Z" transform="translate(-197.23242 -5.07414)"/><path class="cls-1" d="M209.47308,662.09967c-6.70056-2.37775-16.62512-4.76239-9.45849-5.74786l7.12707-.26874C206.40961,658.93536,207.622,660.74976,209.47308,662.09967Z" transform="translate(-197.23242 -5.07414)"/><path class="cls-1" d="M248.12537,474.73477c.574.50293,1.17163,1.02667,1.76446,1.54617l-7.08691.58307C244.44946,476.21545,246.192,475.46445,248.12537,474.73477Z" transform="translate(-197.23242 -5.07414)"/><path class="cls-1" d="M276.83545,480.45087q-1.60832-2.56293-3.19574-5.21854A16.811,16.811,0,0,1,276.83545,480.45087Z" transform="translate(-197.23242 -5.07414)"/><path class="cls-1" d="M423.75537,265.68823c2.56287-.73266,5.18-1.49338,7.71161-2.3088C430.40918,269.04538,427.28986,265.876,423.75537,265.68823Z" transform="translate(-197.23242 -5.07414)"/><path class="cls-1" d="M259.93036,814.77686c-3.73425-1.8935-5.75311-3.80646-6.89838-5.73719C258.21692,811.09015,264.98077,811.63452,259.93036,814.77686Z" transform="translate(-197.23242 -5.07414)"/><path class="cls-1" d="M305.99237,326.31119a5.70561,5.70561,0,0,1,4.47754,1.27908A4.54024,4.54024,0,0,1,305.99237,326.31119Z" transform="translate(-197.23242 -5.07414)"/><path class="cls-1" d="M249.6897,800.5a21.06719,21.06719,0,0,1,2.1532.95874c-.25232,2.58881-.29541,5.12408,1.18908,7.58093C249.17938,807.54517,246.27039,805.17822,249.6897,800.5Z" transform="translate(-197.23242 -5.07414)"/><path class="cls-1" d="M419.17383,88.4961a6.77647,6.77647,0,0,0,.78973-.84442C420.04034,88.6114,419.68939,88.65849,419.17383,88.4961Z" transform="translate(-197.23242 -5.07414)"/><path class="cls-1" d="M520.82816,17.41563a13.89489,13.89489,0,0,0-4.17337-.54725C517.40472,16.38122,518.66333,16.42831,520.82816,17.41563Z" transform="translate(-197.23242 -5.07414)"/><path class="cls-1" d="M282.55292,880.34259c.59765,2.3266-.53845.66754,0,0Z" transform="translate(-197.23242 -5.07414)"/><path class="cls-1" d="M312.59692,878.6048a6.54063,6.54063,0,0,1,2.68415-2.31421A8.42921,8.42921,0,0,0,312.59692,878.6048Z" transform="translate(-197.23242 -5.07414)"/><path class="cls-1" d="M282.49786,763.30774c-.023-.063-.06726-.1037-.09356-.17578C283.933,763.29376,283.64294,763.27594,282.49786,763.30774Z" transform="translate(-197.23242 -5.07414)"/><path class="cls-1" d="M286.97186,882.174a10.68442,10.68442,0,0,1-3.18268-1.82568A11.27039,11.27039,0,0,1,286.97186,882.174Z" transform="translate(-197.23242 -5.07414)"/><path class="cls-1" d="M283.75769,883.17047c.63544.59876,1.06818,1.10028,1.50134,1.56854C284.3313,885.51044,283.54742,885.59027,283.75769,883.17047Z" transform="translate(-197.23242 -5.07414)"/><path class="cls-1" d="M281.51086,877.20172a7.819,7.819,0,0,0,2.27832,3.14661c-.63641-.21155-1.07092-.22144-1.23626-.00574C282.355,879.67151,282.07623,878.72351,281.51086,877.20172Z" transform="translate(-197.23242 -5.07414)"/><path class="cls-1" d="M369.4129,105.58992c-.31219-.11335-.54345-.231-.95764-.36567,1.3559-.45232,1.99835-.50726,2.09039-.4085C370.6391,104.92141,370.18951,105.20329,369.4129,105.58992Z" transform="translate(-197.23242 -5.07414)"/><path class="cls-1" d="M271.98389,591.52936c-.06037.10663-.24042.17846-.30176.2763-.08978-.09069-.20178-.20483-.29376-.28515Z" transform="translate(-197.23242 -5.07414)"/><path class="cls-1" d="M276.45593,583.48193c-8.50152,3.97449-7.16327,5.79657-5.06756,8.03858q-10.23276-.188-20.47779-.49011Q263.60482,587.10406,276.45593,583.48193Z" transform="translate(-197.23242 -5.07414)"/><path class="cls-1" d="M397.20081,326.59793q1.22781,4.48343,2.36016,9.11484c6.5644-1.29236,9.90125-3.87125,12.0412-4.86545,2.146-.99081,3.33564-.33847,5.74927,4.81552-5.0509-2.24017-8.51636-1.8627-11.17529-.228a13.88534,13.88534,0,0,0-3.49945,3.26163c-1.037,1.30078-2.05,2.69892-3.02716,4.12863-3.87146,5.75583-8.13752,11.14469-17.60126,5.54044.49469,2.077,1.01507,4.21838,1.43548,6.29132.55646-1.16791,1.74079-.63339,2.25641-1.8316,1.98969,6.60345-2.34533,5.732-7.43866,4.4952-5.13775-1.22616-11.05426-2.83709-13.01764,2.3151-.87457,3.97812.03492,8.075,3.6767,7.60406-1.564.59226-3.15173,1.13556-4.75067,1.64713l-4.75183,1.53152c-1.18787,2.14734,2.13086,4.13553,3.34375,1.96924-1.58429,1.46332-3.12732,2.971-4.74017,4.3793l-4.83625,4.20286.54657.35671a59.61846,59.61846,0,0,0-6.99585-1.08544c-2.51477-.29221-4.93316-.51752-6.423-.58582.19623,4.42773,2.78265.45065,4.25427,2.886q-4.30545.69369-8.53961,1.30227a6.89893,6.89893,0,0,0,6.21838,4.5936,7.45575,7.45575,0,0,0,6.61-3.00433c5.86737,9.8407,3.763,10.0592.28137,10.06946-3.49829.09262-8.42078-.263-8.936,9.33242l6.708-2.73431c2.90326,5.9332,2.55689,9.08957,1.496,12.11905-1.07507,3.02691-2.91137,5.7905-3.12677,11.33679-.69165-2.13623-1.18145-8.39239-2.79846-13.84811a20.66689,20.66689,0,0,0-3.35046-7.088,5.98548,5.98548,0,0,0-5.58539-2.49746c-.38226,2.62921-1.92206,5.1448-7.86047,4.60766a9.84746,9.84746,0,0,1,2.32415,3.61112,3.19363,3.19363,0,0,1,.1131,1.35342,2.77668,2.77668,0,0,1-.15588.596q-.103.239-.21747.50433c-.51581,1.12024-2.041,1.7714-3.46185,2.8223l7.36767,7.33624a11.95015,11.95015,0,0,1-6.46429-1.92972c-1.11438-.63473-2.074-1.18136-3.20886-1.82775a20.23962,20.23962,0,0,0-3.44043-1.528c-2.16815,3.89276,3.22992,9.881,7.70923,15.016-.75184,1.35993-1.458,1.401-2.35993.6402a22.22316,22.22316,0,0,1-2.9732-3.8324,16.90913,16.90913,0,0,0-3.53821-4.1221,4.01182,4.01182,0,0,0-2.12122-.82293,3.5536,3.5536,0,0,0-2.32867.85491,7.515,7.515,0,0,1-1.30731,4.05314,8.5333,8.5333,0,0,1-3.07526,2.363,23.86132,23.86132,0,0,1-4.64972,1.58188c-.93964.22641-1.91418.46127-2.93524.70731q-.788.18451-1.61328.37774-.7977.22636-1.63581.46418a4.02021,4.02021,0,0,0,3.38459,3.82885c1.53637.39481,3.15631.50528,4.031,1.91391q-4.38454-.796-8.88782-1.4274c-.30542.86441,2.01935,1.94153,3.1897,2.494-2.17334.42859-4.44366-.84128-6.78363-1.904a12.91213,12.91213,0,0,0-3.58575-1.16177,5.31542,5.31542,0,0,0-3.64295.829c-5.30865-2.21939-3.00781,2.28439-1.01965,6.91473,1.03833,2.35669,2.06818,4.804,1.89337,6.61807-.15442,1.83249-1.53613,3.02762-5.13055,3.166,2.12555,2.60825,6.10809,1.87717,9.608,3.946-5.44733,2.07779-7.61066,3.22855-10.018,4.02845-.604.2045-1.22729.39187-1.92578.5802-.67676.2-1.42926.40036-2.31579.621-1.8628.4455-4.15894.99466-7.40906,1.772,1.45087,2.74662,2.86633,5.39283,4.50061,8.06412-3.07886-3.34-7.19653-4.41354-11.68909-4.13113-4.48864.26968-9.35815,1.90356-13.82525,3.63357a74.20712,74.20712,0,0,1-7.02857-6.67978c-2.67779,2.49082-5.418,5.04865-7.929,7.727,1.3728,1.55567,5.07531,1.46179,9.63507,1.082-.98078.39786-1.94629.77423-2.82422,1.03919,2.925,4.19351,9.18219,3.85171,15.33508,3.12988-1.72424-1.54742-3.59778-3.15689-5.424-4.75214,6.73047-.49472,13.99262-.39306,19.71131,1.72776a6.04154,6.04154,0,0,0-3.48011,1.83478,9.21185,9.21185,0,0,1,4.30817.54782c.98724.5672-1.52.7304-4.39642,1.38256q5.36965,2.41728,10.76416,4.73627l-4.55982-.71222,2.26215,5.9534.56909,1.46.63226,1.47544,1.27014,2.91964c-3.21374,1.23487-6.77233,2.41477-10.4201,3.70465-3.5849,1.31107-7.21539,2.741-10.69251,4.42392-7.025,3.34363-12.99072,7.84894-16.11682,14.37543a24.7087,24.7087,0,0,1,11.48853-.5213c3.62152.56982,7.39722,1.51282,12.415,1.90656-5.10657-2.199-3.69684-4.57459-1.205-7.0962,2.43823-2.56042,6.19141-5.15063,5.6015-8.43945.60169,3.44949,5.46942,3.40637,7.22815,2.85767l-2.81982,2.37176q-1.432,1.19316-2.77216,2.4466-2.71554,2.4937-5.45032,5.09039c4.10852.31091,5.57355,1.07288,6.39356,2.15149a11.43306,11.43306,0,0,1,.99939,1.84857,8.8978,8.8978,0,0,0,1.61181,2.25568c-8.01879-1.82782-10.8742.05139-12.40271,3.01886a32.13976,32.13976,0,0,0-1.74121,4.85327,9.23877,9.23877,0,0,1-2.46264,4.3742c5.46258.51465,11.01208-.396,10.01751-6.12518,5.88166,3.477,1.11878,5.18421-3.991,7.04669-2.54175.92328-5.14234,1.86982-6.47406,3.011-1.34821,1.13623-1.3783,2.47784,1.22412,4.12152.14233-1.43585-.70691-2.2392,2.10821-2.73321a5.38332,5.38332,0,0,0-1.79156,6.76391c.933,2.24249,3.07,3.78211,5.45,2.81714l.12292-1.41272c.24415,1.1767.379,2.49634.52723,3.92835a44.37824,44.37824,0,0,1-1.01056,14.21386,21.76724,21.76724,0,0,1-4.03845,8.45868,12.96814,12.96814,0,0,1-7.881,4.71326c1.79737-.05744,16.49555-2.58356,19.23377-3.34369q-11.23453,5.05737-22.43854,10.5835-11.08685,5.52026-22.12945,11.47662c5.80517-1.48425,15.89086-1.47315,25.23913-2.29578,9.34924-.81109,17.96887-2.40149,20.88843-6.64673,1.9508,2.07239,4.10333,4.5459.61291,9.7959-1.87506-1.2854-17.537-1.763-18.33056.53272,6.9469,2.15136,8.82995,2.907,10.49768,3.89416a59.70042,59.70042,0,0,0,9.19275,4.90216c-2.8689-1.94287-20.88043,3.31232-19.69049,7.046,2.65448-1.00854,18.18-2.52313,19.88806-4.149-5.52289,3.93487-11.12354,7.98553-16.53809,12.12634,2.82331-2.881,15.18884-2.98236,20.64252-1.87793-1.84918-.16058-1.41968,1.77759-.69861,4.09143.70709,2.31476,1.74115,4.99542,1.11347,6.36853-1.64179-1.00537-3.29859-2.019-4.90522-3.04443,2.32477,4.86175-3.42706,8.61633-9.434,12.53344-6.0202,3.905-12.14416,7.94831-10.51318,13.13611,3.38824-2.1239,21.99731-8.0664,25.36627-3.4151-4.31708,2.21332-14.65973,7.34467-24.47375,13.469a116.80513,116.80513,0,0,0-13.53949,9.63171c-3.83655,3.26367-6.68286,6.47162-7.8144,9.32428l5.65009.4967c-1.33838,2.95057-2.67773,5.92353-3.95062,8.89209,6.137-4.11737,15.598-11.26141,24.71289-18.36663,9.07428-7.11939,18.02167-14.23645,22.82812-18.81086,5.03052,2.82984,6.399-.39868,7.27106,5.378,5.3429.78406,6.64954-4.87219,6.54694-6.57531l3.126,6.11584,3.23883,6.08148c-5.36212,1.07642-7.36975,4.25641-9.14459,7.4289-1.73327,3.16357-3.23034,6.31286-7.68616,7.26294,2.27778-5.80231,4.74408-11.5528,7.1695-17.21674-5.36169,1.03906-12.34192,4.98926-17.41638,9.91889-5.1073,4.92279-8.19239,10.82049-5.93579,15.38794,4.86145,1.25842,18.22235-7.03107,21.79669-7.77607-1.643,1.10492-2.76013,3.81214-3.11365,6.27222-.31811,2.45331.12549,4.65076,1.53046,4.70941l4.454-5.5791c2.72949,2.02588-.13184,5.13379-2.18457,8.1958-2.06537,3.05469-3.30017,6.06622,2.66,7.67145,1.343,1.97662,15.39337,2.23566,9.34528,4.52881-12.94928.28137-50.0116,10.85241-58.17511,16.14587.5205.27844,4.29211,2.39966,8.80548,4.47424,4.50043,2.08509,9.68756,4.13471,13.02154,4.44172,5.26221.29394,10.29993-2.91687,15.21259-6.10566,4.90253-3.19372,9.63458-6.3529,14.11023-6.14318-2.79187,1.05523-5.66132,4.18109-6.50336,5.37829,3.18787,1.46979,8.4552-3.846,8.83606,1.491-10.20056,4.35162,4.27142,9.73321-8.07648,5.3277-1.36218,5.88141,3.91755,4.411,5.43866,10.23278-3.68811.28656-8.98016,3.57227-13.491,7.58057-4.52661,4.00861-8.2074,8.72577-8.79364,11.74609,2.53778-1.25439,6.39166-1.40545,8.15667-1.44842,4.62458,9.70795,11.377,13.2486,15.07953,22.437,2.81519-.12048,7.59888,3.09851,11.27448-.54767-1.29633,2.03583-4.29468,4.64014-3.39752,7.56677,11.06366,1.86213-1.15381-6.83148,11.20044-6.97619-5.82648,2.74127-5.33716,10.58508-7.35492,16.12341-4.84369,1.28516-6.26215-.86218-6.18427-4.02008.09076-3.16437,1.66357-7.31811,2.71851-10.07269-12.723,5.02783-23.24494,17.50177-24.986,29.76526.11994,9.10186,9.57526-.07459,8.34864,2.03033,4.16693,6.77509.00842,12.21167-3.38739,17.01825-3.41,4.7995-6.07788,8.98346,1.14624,12.99939,10.08923,1.20117,15.92706-6.89123,22.15246-8.411.24848-7.51575-9.29712-7.261-10.8175-11.64545L304.342,833.114c1.79938-3.15252,2.00916-8.15356-1.2854-9.41046,4.47626.41657,7.38361,6.30628,10.75415,13.04773,3.32837,6.75513,7.0943,14.38562,12.91144,18.26837-1.752,3.15979-2.93213,7.79328-6.84845,7.71118l-.51-3.96807c-7.86286-.21216-5.77069,10.66259-10.79529,7.66522-2.28467,6.75519-6.80206,15.40112-.01434,20.243l9.54565-3.12872c-2.68066,1.14129-7.40027-1.689-5.56433-4.84473-1.32977,2.32355,2.92267,3.37042,6.2099,4.89581,3.29132,1.52826,5.64569,3.52527.53265,7.90583l-8.44812-1.53125c-1.09411,3.435-3.295,7.77765-4.49914,11.83081-1.18714,4.04187-1.38544,7.79895,1.48926,10.00451-10.11914,1.77552.33349-1.83892-12.041-.8413,14.58411-2.78113-8.003-14.76679,8.36029-15.61335-14.0921,1.6037-8.68353-4.907-21.67267-5.6159,3.04834-1.24317,6.6286-.714,2.79242-4.99372a15.87536,15.87536,0,0,0,2.094-2.33453,2.25035,2.25035,0,0,0-.38117-.23047c.16468.04382.329.05658.48108.108.34491-.428.43262-.4931.166.04633a11.63065,11.63065,0,0,0,5.714.38006c2.81756-2.854,3.24139-6.2102,3.25067-9.3919.02594-3.19019-.36762-6.20594.78522-8.35413-2.78608-2.27057-2.85126,2.81531-6.77326,2.68872l3.46015-6.4295c-6.79133,2.66925-14.6142-2.8266-15.30231,5.95471l-3.17859-6.17841c-5.40479-2.03686-9.202-6.5495-7.80212-10.96624-2.75922-2.38776,4.08752-10.82447-.00806-5.92585q-.12342-5.891-.15582-11.78729l-1.70984.61847c-2.54938-4.75519-1.8656-11.04474-2.67261-16.87579-.76056-5.8678-3.03125-11.26032-11.38348-14.60242.39129-4.0589,1.11523-8.33221-2.94574-13.28162l-6.32447,1.12134c.36951-5.10809-10.81537-11.05188-5.33893-15.18976-8.86376.51184-11.63238-4.64508-12.90545-10.71142-1.19147-6.12219-.899-13.109-3.58191-16.62927l7.73541-2.853a22.119,22.119,0,0,1-1.51965-8.54816,80.40959,80.40959,0,0,1,.98376-10.386l7.08649-1.70642c1.95117-3.74433-.36652-7.074-3.445-10.68665-3.10528-3.593-6.88605-7.51849-7.7951-12.26856-2.51178,1.36323-1.16016,3.53968.92541,4.75226-4.7268-1.66943-6.7832-4.206-7.4209-7.13849-.61688-2.94451.22242-6.30139,1.19288-9.62512.965-3.324,2.10064-6.633,2.15466-9.5805.03717-2.94263-1.05951-5.5033-4.58728-7.37952,1.99518-3.14453.72619-4.78876-1.45349-6.19049a.99924.99924,0,0,1-.23889.71979,3.7755,3.7755,0,0,1-.32532-1.03192c-1.47168-.86145-3.15039-1.7201-4.56629-2.74561a15.47273,15.47273,0,0,1,4.46881,2.1745,18.86453,18.86453,0,0,1,1.1081-8.51135l-7.90833.32025a6.46691,6.46691,0,0,1,.07508-.73334c-3.412-2.36053,3.16131-3.07117,9.23974-2.70312a17.31088,17.31088,0,0,1,3.84326-4.79743c-6.42126.05493-5.77691-2.0899-5.22381-4.3034.57464-2.22937,1.03418-4.5113-5.88007-4.94464,3.06629-1.58863,3.56348-5.51166,5.09943-9.53931,1.53607-4.03009,3.98761-8.09937,10.70343-9.8913-1.8028.16944-2.7854-.56585-2.65631,1.02918-2.09107-3.00745-4.05963-6.113-.59143-9.56653l-10.04377-.10181c4.10932-3.00415,8.165-5.93591,12.35907-8.835-6.48614-3.62622-10.199-5.18768-17.32025.10248,5.2804-6.01819,6.13611-8.22437,7.04511-10.29492.92822-2.05066,1.85412-3.94593,7.30316-8.85425l-6.3714.92737c.00775-1.62769,1.99384-3.871,3.43359-5.90033,1.41376-2.02814,2.14466-3.82386-.562-4.65064-6.32861-3.25677-7.181-12.343-7.46429-22.91455-.06116-2.64654-.11316-5.38446-.24335-8.15454-.05377-2.78143-.16772-5.598-.45715-8.39447-.14356-1.3985-.32874-2.79242-.56659-4.176-.20337-1.38775-.44153-2.76757-.75415-4.13067a37.71115,37.71115,0,0,0-2.72589-7.954c9.30615,2.71509,7.28943.322,5.00213-2.73633-2.32336-3.0553-5.09051-6.87707,2.23236-6.35757-4.31286-1.64481-6.50451-4.74015-10.72424-2.03086a13.77233,13.77233,0,0,0,1.84558-6.62353c.04358-2.04505-.30829-3.94751-.42578-5.72144-.2923-3.53009.60925-6.61426,7.34784-8.85373-4.17792-2.04638-6.85815.88663-9.27161-.65719,1.11835-.64914,4.46527-2.47251,2.05493-4.086-2.39477-1.60156-3.97039.7269-6.21185,2.00067a9.54781,9.54781,0,0,1,4.01386-5.73724,15.40457,15.40457,0,0,1,7.0838-2.11847c5.42462-.45359,12.02063.72134,18.39123,1.917-2.36633-3.17706-3.19348-5.40048-2.25567-6.94528.98578-1.53888,3.68554-2.42051,8.27514-2.94608-3.57818-2.83746-6.93829-7.08224-10.213-1.39963.1048-.90219.17389-2.77563.38416-5.052.11224-1.13666.22925-2.379.45758-3.6373a37.30678,37.30678,0,0,1,.94641-3.76217,14.48371,14.48371,0,0,1,3.31787-6.11728,5.43307,5.43307,0,0,1,5.91675-1.08786c-2.03119-2,1.1889-4.91721,2.64831-5.29984.63337-1.89706,1.00757-3.40948,1.44031-4.66034.41858-1.25583.75446-2.299,1.13538-3.31759a33.50161,33.50161,0,0,1,3.87982-7.29624c.13342.89249.3548,1.81635.53491,2.71643,6.22565,1.41181,7.61853.4119,7.96344-1.6452.34442-2.03918-.29785-5.13992,1.85571-7.483l-1.18573-.48566c-.13433-4.22272.38288-6.54309,1.0058-7.91083a4.15574,4.15574,0,0,1,2.27753-2.154,3.63861,3.63861,0,0,0,2.0766-2.2185c.57147-1.3877.90393-3.75208.93909-8.22873l5.8543,5.212c3.58649,2.18555,5.3078,2.31772,6.03888,1.22769a4.48438,4.48438,0,0,0,.475-2.46234,32.92285,32.92285,0,0,0-.19971-3.61444,36.41556,36.41556,0,0,1-.17059-8.38623,7.26569,7.26569,0,0,1,1.24042-3.362,4.61041,4.61041,0,0,1,2.93481-1.71655q.64407,2.58961,1.33453,5.13c3.64386.26755,1.41474-5.7268-1.2022-12.72955-1.32184-3.49521-2.75812-7.22766-3.6363-10.332-.90435-3.12805-1.34515-5.72348-.80651-6.96689-.2223-1.81027-2.86451-.48392-4.73218-.16672.65356-4.0686,1.56146-5.76434,2.6054-6.031,1.04963-.27118,2.25745.86767,3.65125,2.35849a29.12726,29.12726,0,0,0,4.74048,4.49908,6.63676,6.63676,0,0,0,2.77045,1.129,4.55268,4.55268,0,0,0,1.47644-.04407,4.90467,4.90467,0,0,0,.75982-.21481,3.76148,3.76148,0,0,0,.65161-.235c-2.73693-4.97693-10.61084-9.24918-7.86364-13.21244-.32642-1.21588.88348-1.57644,2.86883-1.64383,1.99249-.06216,4.75781.16046,7.43134.07169,2.69494-.07184,5.38421-.40289,7.22265-1.46793,1.83387-1.06512,2.70441-2.93,1.89722-5.90213,2.13086,3.92865,4.1593,7.94931,8.811,7.64939,1.16895-.69422,1.6355-2.36512,1.83844-4.3783.15894-2.04367.06379-4.41852.21845-6.51266.14007-2.10483.5993-3.892,1.73071-4.90729,1.14813-1.00739,3.10144-1.17526,6.43073.02951a6.9905,6.9905,0,0,0-2.02344-2.79645,19.34693,19.34693,0,0,0,4.19379-1.30756c1.47564-.61746,3.056-1.33319,4.71557-1.95339,3.36072-1.21442,6.86042-2.15964,10.5318-1.08988-5.00293-4.61413-5.96454-7.611-5.00458-9.84091.9054-2.25333,3.91413-3.709,6.86-5.17868,2.88538-1.48309,5.87213-2.90827,6.69623-4.72632.78344-1.8392-.52552-3.9722-6.0268-6.83984,2.23981-3.148,4.204-6.42057,6.23352-9.69757l-2.42749-.76148a8.40566,8.40566,0,0,1,1.86292-4.1954,8.66034,8.66034,0,0,1,3.29-2.23017c2.54089-1.0083,5.7912-1.1896,9.06665-1.4328-.96832-2.20749-3.615-1.78079-4.87885-2.09384a40.64494,40.64494,0,0,1-.35632-6.93259,7.00776,7.00776,0,0,1,1.46643-4.21255c1.92657-2.27161,5.69269-3.75265,12.81165-7.02979l-7.702-2.59957c2.51416-.72182.24853-5.2163-1.64917-10.27057-.42712-1.2621-.92224-2.57938-1.24768-3.89888a16.00815,16.00815,0,0,1-.505-3.965,10.51024,10.51024,0,0,1,3.25476-7.71845,8.009,8.009,0,0,0-3.6477.97762,7.516,7.516,0,0,0,1.95612-4.39382,11.59516,11.59516,0,0,0-.8844-4.70363,26.80635,26.80635,0,0,0-2.48371-4.63124c-.47967-.75113-.946-1.4879-1.43756-2.21077-.5014-.72334-.98645-1.43112-1.43011-2.12266-3.49958-5.54823-4.835-9.9332,9.30444-14.44933,1.01807-1.49984,1.925-3.01982,2.87384-4.56892.92468-1.54678,1.911-3.12778,2.77576-4.72134,2.13873,5.03216,5.16674,4.14978,8.40289,2.29028,3.22711-1.8347,6.59174-4.711,9.40985-2.80382.468-2.4467-2.40228-4.92506-5.28027-5.97192-2.90082-1.05519-5.91339-.71657-6.0838,2.07525l1.61132.51412c-7.28649,2.55435-9.23407-.46247-10.85406-3.69058-1.52289-3.25794-2.76019-6.801-7.69086-5.22162-.28277-1.25266-.65564-2.48523-1.06085-3.70572-.40607-1.22025-.81689-2.43367-1.29431-3.62723a71.94037,71.94037,0,0,0-3.2699-6.99037c-1.18445-2.28-2.5318-4.48984-3.90729-6.66055-.66833-1.09043-1.42462-2.14994-2.14221-3.212l-1.09192-1.5833-.27325-.394c-.0968-.1417-.16266-.22655-.31183-.46412l-.78815-1.22793q-1.59063-2.47553-3.17474-4.94087c-.49378-.79622-1.17419-1.75069-1.765-2.63248l-1.83532-2.70555-1.8374-2.72466c-.62812-.90849-1.31037-1.81016-1.96241-2.72038q-1.98138-2.75029-3.95379-5.48829c-5.499-7.33843-11.37744-14.86114-17.51368-22.48709q8.91267,2.17071,17.35511,3.88812l-1.77-2.20546-.88849-1.10608-.96845-1.11936-3.92523-4.50453-.06988-.39807a15.804,15.804,0,0,0-6.14264-2.37144c-2.19794-.31464-4.21216-.0877-5.32282,1.5219a8.97384,8.97384,0,0,0,2.16761,3.24368c-2.79224-1.07153-4.5127-2.33264-5.41083-3.59446.48718-1.91794,3.31695-3.4912,6.21362-4.59864a27.0177,27.0177,0,0,1,4.16919-1.19265,10.78478,10.78478,0,0,1,2.88477-.21372c-1.84967-2.97988-3.649-4.47011-5.45917-5.01959a7.958,7.958,0,0,0-5.40418.57124c-1.75781.72266-3.44427,1.77177-4.71808,2.41991-1.30731.72693-2.15625.9964-2.11285-.0325.5567-1.66582,1.04706-3.22108,1.53925-4.82148L295.729,86.3402a26.77331,26.77331,0,0,1,4.334-1.53762,25.47606,25.47606,0,0,0,3.50787-1.062,3.87715,3.87715,0,0,0,2.12732-1.81616,4.93342,4.93342,0,0,0,.01392-3.425,10.67837,10.67837,0,0,0-5.01581-3.90044c-1.58881-.67163-2.9093-.99553-3.17548-1.78137-.84631-.24808-1.21563-.87-.478-2.29856l-.82019-4.10852c-.30231-1.28294-.55555-2.6444-.86493-3.86206,2.62268,1.89,5.35559,3.9214,8.29827,5.88374a2.04366,2.04366,0,0,0,.936-1.81344,13.469,13.469,0,0,1-.0542-1.583c.0777-.34506.36261-.42887,1.21643-.013a52.10175,52.10175,0,0,1,4.76843,2.99756,31.505,31.505,0,0,1-9.79919-10.46061c-2.18488-3.6254-3.75916-7.10965-5.3952-9.985-.527-.94238-1.04645-1.82615-1.558-2.62852-.25384-.40414-.50793-.784-.75781-1.14289.45349-.24486.945-.46958,1.36511-.69053,1.716-.87672,2.86634-1.60858,3.02851-2.18223a54.93171,54.93171,0,0,0,9.38977-1.11521,33.66274,33.66274,0,0,0,7.87457-2.95566c-.19293,1.65782,4.79517,7.02781,9.73871,5.57723-3.94464-3.09551-5.62012-5.05369-6.18946-6.66391a4.02,4.02,0,0,1,.89618-3.96665,10.76427,10.76427,0,0,0,2.35065-4.177c.36383-1.79991-.057-4.2396-2.3996-8.0734,1.354,2.66814,2.841,3.54575,4.556,3.78345a22.05446,22.05446,0,0,0,5.58-.52306,9.86946,9.86946,0,0,1,6.21118.76732c2.12946,1.08941,4.3819,3.4396,6.32074,7.47973a1.9197,1.9197,0,0,0,.04187-2.38856c-.439-1.37551-2.47742-3.241-4.38287-5.25755-1.89179-2.01656-3.65729-4.1842-3.15821-6.164a50.58789,50.58789,0,0,0,16.67933,2.746,70.68287,70.68287,0,0,0,14.14959-1.96733c4.75238-1.034,9.76337-2.24257,15.22431-3.01473a67.806,67.806,0,0,1,17.42077-.39623c.49366,1.43308.00879,3.23883.17847,5.21814a8.547,8.547,0,0,0,3.65009,6.25945,99.64882,99.64882,0,0,1,9.93707-14.2804c2.47137.69745,3.75238,4.81846,5.28992,7.52607a7.32389,7.32389,0,0,0,1.24041,1.69013,2.8382,2.8382,0,0,0,.71271.5046,1.58884,1.58884,0,0,0,.61591.202c.8059.0425,1.83221-.873,3.2207-3.351-.78424,2.40334-1.95508,6.01972.08362,6.93559,30.15149-13.91178,61.6123,11.40126,92.23263-14.74483-4.14731,5.5423-1.38333,6.08143,1.78373,6.28766-2.0593,1.32022.0466,7.04927-.35785,10.92709l12.819-10.75658c2.33624,10.74359,13.74447.72587,15.08261,11.00179l-4.0596-1.8561c5.39908,12.132-7.55432,26.94829-6.76462,42.50506-6.04483-13.78512-15.93948,20.40892-25.85745.682-2.18952,3.17955,1.86737,5.01454.69647,8.61792-2.51441-6.66439-5.54987-8.05119-11.17651-5.0665l.6361,1.65311c-15.80645-1.6255-22.58343,4.948-40.34088,9.32432l1.31482-7.6907c-3.81555,1.023-4.619,3.43776-6.40539,5.36855-4.379-11.66757,10.71722-.66255,6.7276-13.52367-5.06183,15.65258-26.90906.23384-30.32972,18.02344-5.87072.09906,1.72059-8.90536-4.14733-8.80143l-1.55616,4.81318-1.4834-6.20159a5.40323,5.40323,0,0,0-2.53051,1.59614,10.26115,10.26115,0,0,0-.91071,2.81939,30.30892,30.30892,0,0,0-.41144,6.70155c.1659-.242.43854.04262.69965.43175.131.19455.26.41525.37738.60933.12164.19408.16919.36154.497.44964-.40973.35431-.37183.65679-.52527.913a3.96734,3.96734,0,0,1-.34662.63527,1.24591,1.24591,0,0,1-.72736.57046c-.50335.11351-1.06506-.24739-1.65759-.72786-1.16046-.96093-2.51935-2.4001-2.6062-1.47854a23.81293,23.81293,0,0,1,1.56275-2.9652,12.87924,12.87924,0,0,0-5.47681-1.74c-1.86939-.2078-3.70581-.16527-5.58759-.23809a24.98912,24.98912,0,0,1-6.18286-.93014,47.366,47.366,0,0,1-8.94763-3.81615c-.75427-.38409-1.52716-.7995-2.34344-1.24884q-1.44728-1.81144-2.82654-3.62288c-3.3628-1.6791-5.33106-2.26937-6.3432-2.25887-1.0246.01051-1.12818.6218-1.07306,1.34584.05169.72405.25952,1.56085-.21466,2.02239-.48432.46154-1.62061.54781-4.50544-.22922l1.39509.86066c-6.15363-3.61151-11.05488-5.44325-12.75593-5.02753,4.13251,2.12728,6.09308,4.19082,8.48432,6.31181a44.04844,44.04844,0,0,0,9.60174,6.65649c-4.09387-1.80291-7.06549-3.05847-9.44494-4.13848-2.39087-1.08-4.21436-1.98446-6.29535-3.08515l-8.00342-4.26255c-3.59051-1.865-8.38293-4.29793-15.75714-7.67073q4.4751,3.01717,9.13824,6.03433c-5.73425-2.72973-10.03375-4.81317-13.83514-6.40843-1.90515-.79763-3.696-1.47321-5.52051-2.04652-.91235-.28665-1.83325-.54774-2.78174-.78572-.18914.06986-.10907.2882-.0343.554,3.29267,1.03246,8.23517,3.97527,13.32605,6.874,2.5567,1.46406,5.16992,2.94254,7.7724,4.30517,2.60565,1.36808,5.19983,2.61244,7.81079,3.7392,5.186,3.17705,7.882,4.95421,9.16858,5.97615,1.53241,1.21682,1.04932,1.376.04975,1.29416-1.0113-.08639-2.54969-.4198-3.34357-.3876-.79236.02157-.85333.41282.99969,1.61181A119.24265,119.24265,0,0,0,373.63544,91.524a133.081,133.081,0,0,1-13.25006-5.43213,28.74116,28.74116,0,0,1-6.00171-3.81721c-2.44062-2.11065-2.37726-3.13955-4.62946-3.68181-5.20477-2.87817-9.92206-4.75968-12.4704-5.1128-2.57751-.39228-3.01855.72451-.58166,2.67658,1.45276,1.54708,10.7315,6.21525,19.73645,10.65418,4.50128,2.23542,8.94311,4.41687,12.38263,6.24509,3.44,1.84325,5.87787,3.30376,6.54455,4.36346-.42926-.47572,1.34.066.92182-.38936,3.5755,1.75953,2.04864,1.79651,1.13745,2.23875-.936.38438-1.23505,1.20311,3.93164,3.20756-6.1944-.93079-5.47736-.05921-5.33759.49286.15839.579-.22076.94616-8.03778-.08358q.08039-2.47987.33716-4.50621c-1.00165.67667-4.31427.91306-6.99866,1.70111-2.68713.74822-4.75232,2.09752-3.69641,4.24458.52362,1.12032,1.96778,2.46017,4.53345,3.89266a27.0885,27.0885,0,0,0,7.2417-2.6191l.01434-.00869.03894.01445c2.69818,1.00075,2.35822,1.60371,2.09809,2.3045-.27637.68228-.48932,1.47494,2.17065,2.30045,7.70136-.15845,7.11279-1.67,6.36542-3.4548-.59955-1.46311-1.39954-3.24926,3.70038-3.08617,3.82177,1.234,1.47448,1.5868.451,2.21674-.52265.29119-.74408.59031.15661.8493a46.19685,46.19685,0,0,0,6.97559.74448,46.78115,46.78115,0,0,0-5.63519-.11344c-4.4585.30329-2.08851,1.635-.39319,2.75312.866.5797,1.59716,1.13676,1.3833,1.76659-.20832.63683-1.33173,1.32666-4.08057,2.388l8.11414-.93336a26.38367,26.38367,0,0,0-2.49988,1.28828c-.86823.54787-1.48755,1.1846-1.1416,1.64342a82.93854,82.93854,0,0,1,9.64557-2.87045c-2.014.69595-2.34351,1.31474-1.86737,1.7564a6.657,6.657,0,0,0,3.16784.85029c1.38349.14718,2.82666.181,3.68756.32636.43024.075.7143.18213.77655.36733a1.3782,1.3782,0,0,1-.4226,1.15335,3.43482,3.43482,0,0,0-.44184-.80879,1.49208,1.49208,0,0,0-.461-.32406,3.0688,3.0688,0,0,0-1.32055-.21978,15.23432,15.23432,0,0,0-3.8562.77282c-1.47815.44228-3.08942,1.02983-4.73127,1.48469a12.18042,12.18042,0,0,1-5,.51223c-1.67022,2.46993-1.07037,3.74893.692,4.401,1.74249.57522,4.55847.18178,7.52448-.38068,6.3573.01923,13.87243.22138,15.70684,10.10241.0564-1.45509-1.97192-3.34877-4.18084-4.21748-2.21936-.86961-4.64826-.69006-5.55609,1.85763a34.91723,34.91723,0,0,0,5.29913,4.26151,18.02044,18.02044,0,0,0,6.611,2.80969c1.42145,6.4662-.67645,6.61328-3.36835,6.02994-2.71026-.58983-6.05743-1.82944-7.42968,1.4879,5.12841.499,4.75183,2.32744,2.89917,4.7149-1.87128,2.41045-5.19477,5.37516-5.83991,8.37079l7.52045-2.20031c4.40881,6.28971.71972,8.322-2.92786,10.04478-3.64813,1.76207-7.17261,3.191-2.77484,8.59,3.16736-2.54262,6.21014-5.12538,9.28864-7.8044-.3584,2.44157-.7071,4.85214-1.16443,7.2771l8.39172-3.34816c-2.42468,4.47368-3.06152,7.07266-2.73132,9.522.33453,2.43985,1.89111,4.613,3.65143,8.14079a13.95838,13.95838,0,0,0-8.99787,2.03751c-2.70209,1.67506-4.51,4.14344-4.30987,7.26562,2.5542,1.84581,4.33612,1.05505,5.46588.89546,1.11236-.15288,1.65283.36283,1.53412,4.96657,2.36724-1.25471,4.98669-2.61969,6.07476-4.10109,1.09-1.47482.641-3.07962-3.16681-4.62854,2.49958-.736,4.58277-2.70219,7.02576-3.49148,3.03687,2.06634,3.63934,5.21519,3.61945,8.1873-.03974,2.98607-.928,5.85023-.81336,7.58807-.39312-1.32182-.94427-2.89058-2.10907-3.60974-1.62774,2.4686-3.21991,4.87634-4.90515,7.24452q-2.5566,3.55693-5.13678,6.95006c2.99793,2.02278,5.33283.32217,7.5777-1.4628a11.49167,11.49167,0,0,1-2.54382,3.957,10.26514,10.26514,0,0,0-2.46277,4.83351c6.35394-1.026,12.942-.68713,15.88977-6.841q-1.73282,3.48372-3.48786,6.86409c-1.14422,2.25148-2.4577,4.48031-3.68682,6.667,1.36761.49358,3.21533,2.298,5.00775,3.81606,1.75238,1.51326,3.46789,2.735,4.6958,1.8972.80182,1.99333.34338,4.15283-.73071,6.37659a46.44884,46.44884,0,0,1-4.61854,6.817,45.45719,45.45719,0,0,0-4.65081,7.03758,10.76293,10.76293,0,0,0-.87787,7.55338,6.44956,6.44956,0,0,0-3.96051,2.94782,52.71787,52.71787,0,0,0,.3905,7.06839,44.1035,44.1035,0,0,1,.42932,7.15963,17.20531,17.20531,0,0,1-1.719,6.98438,17.01016,17.01016,0,0,1-6.02527,6.24759c2.97632,3.19873,5.8139,6.44381,8.61774,9.78433-2.7887,3.72635-5.35932.35058-8.43872-2.279-3.07355-2.65882-6.64234-4.56543-11.07441,1.05749-3.55468,3.764-1.674,5.51682,1.29688,6.93918,2.96863,1.41544,7.05139,2.39447,7.80334,4.675-3.59845,1.22638-9.05481,2.46606-12.93548,4.83942a12.98556,12.98556,0,0,0-2.58624,2.02673,8.553,8.553,0,0,0-1.82013,2.54034c-.8725,1.91532-.992,4.30683-.00849,7.40952C395.55084,331.54871,395.15857,328.67334,397.20081,326.59793Zm-63.58252,75.29739c2.46142-.05654,8.665.88395,6.38287-3.35577C332.17139,393.65167,334.10791,397.83667,333.61829,401.89532Zm-73.82892,88.28284c2.76471-.57483,1.95709-2.52795-.44617-5.20172C258.37408,486.25256,258.22668,487.95193,259.78937,490.17816Zm17.78692,364.04938a2.10207,2.10207,0,0,1,.27637-.32489C273.503,851.65051,275.165,852.39691,277.57629,854.22754Zm6.3703,5.83453a3.43786,3.43786,0,0,1-2.81518,1.728c1.56994-1.32507.9588-3.00256-.39069-4.61994C282.84052,856.84161,284.55908,857.18378,283.94659,860.06207ZM300.22632,72.94163q1.059.97326,2.16528,1.94C304.08319,72.615,302.28021,72.813,300.22632,72.94163Z" transform="translate(-197.23242 -5.07414)"/><path class="cls-1" d="M273.5061,479.79648a18.68989,18.68989,0,0,0-3.905-1.78778A3.80169,3.80169,0,0,1,273.5061,479.79648Z" transform="translate(-197.23242 -5.07414)"/><path class="cls-1" d="M422.32965,266.09c-.04614-.12027-.00171-.22168-.032-.33884a5.82566,5.82566,0,0,1,1.4577-.063Z" transform="translate(-197.23242 -5.07414)"/><path class="cls-1" d="M301.68933,724.55457a8.68438,8.68438,0,0,0-4.75842-1.55481C298.72467,722.32489,300.47473,722.48669,301.68933,724.55457Z" transform="translate(-197.23242 -5.07414)"/><path class="cls-1" d="M289.98767,903.88782l-.43085-5.49073c.73688,2.39441,2.67267,2.42878,4.34235,2.99561C292.20624,902.10138,289.39691,902.39349,289.98767,903.88782Z" transform="translate(-197.23242 -5.07414)"/><path class="cls-1" d="M353.06079,920.62073c-.50934,1.09131.6264,1.40228.106,2.49017l-3.3,1.54541C348.61755,921.81714,350.199,918.53992,353.06079,920.62073Z" transform="translate(-197.23242 -5.07414)"/><path class="cls-1" d="M315.39386,896.54846c6.07776-2.57617,5.48206,1.22138,5.96692,4.9126a1.25821,1.25821,0,0,0-.27875-.5553C313.32831,905.97577,314.34406,901.24188,315.39386,896.54846Z" transform="translate(-197.23242 -5.07414)"/><path class="cls-1" d="M321.52472,902.29071a5.801,5.801,0,0,0,1.32117,2.97156C319.74377,907.29938,321.55109,904.439,321.52472,902.29071Z" transform="translate(-197.23242 -5.07414)"/><path class="cls-1" d="M284.17889,871.03918c2.24854.81818-7.18933,4.51685-4.35717,4.25818C273.01355,880.53558,284.25726,860.78174,284.17889,871.03918Z" transform="translate(-197.23242 -5.07414)"/><polygon class="cls-1" points="138.857 884.315 131.019 886.836 136.023 882.168 138.857 884.315"/><path class="cls-1" d="M318.70679,867.358l4.43,4.04279a2.963,2.963,0,0,0-1.84845,2.54022C319.54706,870.97693,316.48633,868.26678,318.70679,867.358Z" transform="translate(-197.23242 -5.07414)"/><path class="cls-1" d="M321.28833,873.941c.91492,1.54126,1.49451,3.14636.73022,4.62244A9.79577,9.79577,0,0,1,321.28833,873.941Z" transform="translate(-197.23242 -5.07414)"/><polygon class="cls-1" points="137.684 876.455 135.438 875.738 133.187 872.489 137.684 876.455"/><path class="cls-1" d="M292.88556,813.36737l-.17981-6.50323c2.34027-1.63135,4.55048-.76032,4.39117,1.74371C295.85333,810.69257,295.72137,813.19043,292.88556,813.36737Z" transform="translate(-197.23242 -5.07414)"/><path class="cls-1" d="M320.5332,821.36957c-2.19421-.80591-3.90594-.18115-6.72693.04541l9.17707-4.17529Z" transform="translate(-197.23242 -5.07414)"/><path class="cls-1" d="M315.85168,804.45734c2.35016-1.64179,4.117-11.03644,6.40741-3.86365C319.9187,802.21344,320.09094,808.60968,315.85168,804.45734Z" transform="translate(-197.23242 -5.07414)"/><polygon class="cls-1" points="75.334 719.332 75.68 720.828 59.87 725.68 75.334 719.332"/><path class="cls-1" d="M290.83191,639.327c5.23144,5.70324-9.67029,3.67-3.5376,8.57788-3.47906,2.39776-5.02673-4.02417-7.97876-1.72425C282.45746,641.3006,279.83929,639.70251,290.83191,639.327Z" transform="translate(-197.23242 -5.07414)"/><path class="cls-1" d="M279.31555,646.1806a18.15338,18.15338,0,0,1-1.993,2.58478A7.94457,7.94457,0,0,1,279.31555,646.1806Z" transform="translate(-197.23242 -5.07414)"/><polygon class="cls-1" points="340.463 3.449 345.069 0 342.096 5.559 340.463 3.449"/><path class="cls-1" d="M546.53479,20.7933,547.61926,10.256l2.76535,9.53379C549.344,19.32207,547.32587,18.41432,546.53479,20.7933Z" transform="translate(-197.23242 -5.07414)"/><path class="cls-1" d="M338.26617,426.62552l-1.90087-1.69074a4.75259,4.75259,0,0,1-1.00464-2.58612,2.43238,2.43238,0,0,1,.22314-.91494,2.686,2.686,0,0,1,.36786-.57731l.53442-.71081C336.6167,422.699,337.56335,424.56464,338.26617,426.62552Z" transform="translate(-197.23242 -5.07414)"/><path class="cls-1" d="M381.29736,367.99091l-.5946,1.15737q-3.1105-3.79576-6.26727-7.531Z" transform="translate(-197.23242 -5.07414)"/><path class="cls-1" d="M424.15668,316.84171c-.72864,2.74975-3.95862,4.94891-4.716,7.66433,2.0199-2.43542.52723-5.72693-.13555-7.65695C418.63892,314.90933,418.81,314.24179,424.15668,316.84171Z" transform="translate(-197.23242 -5.07414)"/><path class="cls-1" d="M515.59033,1002.57544c-2.05108-.59436-1.31482,6.213-1.62329,7.43414C517.39868,1008.50262,515.504,1000.81189,515.59033,1002.57544Z" transform="translate(-197.23242 -5.07414)"/><polygon class="cls-1" points="352.213 982.06 351.613 984.838 356.604 978.031 352.213 982.06"/><path class="cls-1" d="M581.10315,987.26062c-2.99292-11.5929-11.47131,1.87073-17.11169-2.24744l-.92957-2.65667-2.54462,9.34057C567.37238,990.21771,576.27582,984.021,581.10315,987.26062Z" transform="translate(-197.23242 -5.07414)"/><path class="cls-1" d="M597.98315,1012.32031c-1.042-4.49975,3.651-3.86969-3.93621-1.403a9.40224,9.40224,0,0,1,.713,1.1416A11.25311,11.25311,0,0,1,597.98315,1012.32031Z" transform="translate(-197.23242 -5.07414)"/><path class="cls-1" d="M594.75989,1012.0589c-3.33435.32477,2.18127,3.782,0,0Z" transform="translate(-197.23242 -5.07414)"/><path class="cls-1" d="M610.15643,1009.47858l-4.39135,4.02722c.91723,2.65991,4.826,3.26233,3.37408,5.20935a9.67862,9.67862,0,0,0,1.4422-.85236,5.92281,5.92281,0,0,0,.54407-.44629l.23022-.229.10492-.116.1825-.11719a2.47962,2.47962,0,0,0,1.347-2.04565,4.34277,4.34277,0,0,0-1.08111-2.4516,6.05952,6.05952,0,0,1-.50934-.69049q-.1703-.33664-.36682-.72534C610.77118,1010.54565,610.47656,1010.02557,610.15643,1009.47858Z" transform="translate(-197.23242 -5.07414)"/><path class="cls-1" d="M616.05322,1001.02136l-3.63946,1.70185C613.06055,1003.84045,614.13007,1004.23669,616.05322,1001.02136Z" transform="translate(-197.23242 -5.07414)"/><path class="cls-1" d="M607.21832,1006.31848l2.413-1.79761,1.20648-.89886.60327-.4494.97266-.4494a11.80025,11.80025,0,0,1-.661-1.5575,6.79548,6.79548,0,0,0-.28943-.677,1.21806,1.21806,0,0,0-.1983-.4126c-.28534-.30835-.68018.48163-1.43628,3.94293C610.22363,1000.58942,609.26941,1003.8924,607.21832,1006.31848Z" transform="translate(-197.23242 -5.07414)"/><path class="cls-1" d="M604.4859,1004.55817c-2.46374-2.52509-5.64587-4.11164-1.238-8.11939C594.84625,998.0318,596.08429,1006.1756,604.4859,1004.55817Z" transform="translate(-197.23242 -5.07414)"/><path class="cls-1" d="M582.7196,975.27155l-3.29321-3.40528-2.849,3.89728C578.00055,973.836,582.92389,978.89929,582.7196,975.27155Z" transform="translate(-197.23242 -5.07414)"/><path class="cls-1" d="M659.127,1015.154c-.56012-2.464-5.29657-6.47571-7.01165-9.615q-2.14994,1.4674-4.44263,2.94214C651.05969,1010.107,657.18341,1011.53577,659.127,1015.154Z" transform="translate(-197.23242 -5.07414)"/><path class="cls-1" d="M652.1153,1005.53894q3.2199-2.18719,6.1217-4.35809C651.13867,1000.823,650.64166,1002.84814,652.1153,1005.53894Z" transform="translate(-197.23242 -5.07414)"/><path class="cls-1" d="M616.5625,988.15216q-1.33127,1.11155-2.73328,2.22308l-1.41967,1.11152a7.37369,7.37369,0,0,0-1.29273,1.11157l-3.9862,4.44616,2.37731-2.25476,1.18873-1.12738a6.56336,6.56336,0,0,1,1.3883-1.12738q3.481-2.25476,6.61981-4.50952Z" transform="translate(-197.23242 -5.07414)"/><path class="cls-1" d="M685.78906,1002.26349q.532,4.64749.93476,9.50232-.24307-7.94651-.83649-15.33374Q685.86417,999.30646,685.78906,1002.26349Z" transform="translate(-197.23242 -5.07414)"/><path class="cls-1" d="M696.57233,982.32288c.80536,3.28857,2.91485,3.664,4.91046,3.7904,1.98163.14252,3.81653.03864,3.8371,2.91754a29.64558,29.64558,0,0,0,2.12292-10.12408,67.35681,67.35681,0,0,0-.4469-10.05243C706.19867,974.46649,702.90491,979.16162,696.57233,982.32288Z" transform="translate(-197.23242 -5.07414)"/><path class="cls-1" d="M706.2677,959.24567a29.24745,29.24745,0,0,0,.21405,4.3164c.13092,1.6399.33356,3.41364.51416,5.29224a24.23943,24.23943,0,0,0,.24243-4.65643A20.839,20.839,0,0,0,706.2677,959.24567Z" transform="translate(-197.23242 -5.07414)"/><path class="cls-1" d="M671.41156,1000.83539c1.18317.93024,4.0578,3.70917,7.50159,1.18841q-2.97427-1.78491-5.83985-3.74566C672.56665,999.0578,671.99329,999.94019,671.41156,1000.83539Z" transform="translate(-197.23242 -5.07414)"/><path class="cls-1" d="M672.88739,998.16522l.18591.11292c1.82746-2.72669,3.12549-4.58942,3.69007-5.37622C676.28394,993.58429,675.10687,995.17743,672.88739,998.16522Z" transform="translate(-197.23242 -5.07414)"/><path class="cls-1" d="M670.99139,1001.47729c.1579-.22985.27387-.39984.42017-.6419C670.85645,1000.41962,670.6402,1000.35681,670.99139,1001.47729Z" transform="translate(-197.23242 -5.07414)"/><path class="cls-1" d="M636.02313,994.42841c1.65595-1.92231,4.21039-3.99073,4.99927-6.272.8241-2.28265-.17078-4.78619-4.76477-7.70349-.5777,2.38916.3977,4.41522,1.09973,6.57874C638.02789,989.19379,638.46313,991.51471,636.02313,994.42841Z" transform="translate(-197.23242 -5.07414)"/><path class="cls-1" d="M662.81622,993.63116l-8.36615-1.44574c.97254,1.8144,3.68323,4.43915,2.38764,6.38447Q660.03482,996.0899,662.81622,993.63116Z" transform="translate(-197.23242 -5.07414)"/><path class="cls-1" d="M664.831,990.62958l-.16119,1.32257-.60706.55914-1.24652,1.11987c1.04444.16877,2.11243.3686,3.15369.51093Z" transform="translate(-197.23242 -5.07414)"/><path class="cls-1" d="M693.62085,968.51215a17.97771,17.97771,0,0,1,.595-6.80866,53.3195,53.3195,0,0,1,2.30084-6.01318,50.19806,50.19806,0,0,0-8.62286,11.05957C689.26257,968.73975,691.17493,973.26782,693.62085,968.51215Z" transform="translate(-197.23242 -5.07414)"/><path class="cls-1" d="M683.06342,982.7193c.01593-.34369.131-.67578.13787-1.0044C682.53491,981.66968,682.21118,981.8631,683.06342,982.7193Z" transform="translate(-197.23242 -5.07414)"/><path class="cls-1" d="M711.13831,928.60889c-.40613-.03705-.90021-.14417-1.32483-.188.34045.21759.60675.38775,1.01617.64947Z" transform="translate(-197.23242 -5.07414)"/><path class="cls-1" d="M686.5116,966.55084c-2.72467,2.07361-2.46338,4.973-1.94782,8.28937a42.81574,42.81574,0,0,1,3.33-8.09033C687.27325,965.83667,686.798,965.35889,686.5116,966.55084Z" transform="translate(-197.23242 -5.07414)"/><path class="cls-1" d="M708.502,948.401a22.329,22.329,0,0,0-2.69268.7052q-.65359.21378-1.29023.45862l-.31762.12353a3.14918,3.14918,0,0,0-.37061.22333q-.37739.24682-.75976.497c.34564-.05987.72271-.13684,1.116-.22955.19446-.04254.40216-.1051.59534-.142.17493-.01239.35425-.02515.53662-.03815a14.91574,14.91574,0,0,0,2.01038-.28827C708.50342,949.44244,709.19476,949.01642,708.502,948.401Z" transform="translate(-197.23242 -5.07414)"/><path class="cls-1" d="M685.17261,982.17133a5.98535,5.98535,0,0,1-.06464.71337C686.76233,982.99762,686.18219,982.56647,685.17261,982.17133Z" transform="translate(-197.23242 -5.07414)"/><path class="cls-1" d="M685.17261,982.17133a27.73859,27.73859,0,0,0-.60883-7.33112,33.51093,33.51093,0,0,0-1.36249,6.87469A6.29393,6.29393,0,0,1,685.17261,982.17133Z" transform="translate(-197.23242 -5.07414)"/><path class="cls-1" d="M675.42279,900.72272c5.54089,3.26947,8.14777,11.23431-.31866,12.48333,1.96423,6.62348,22.1513,13.686,34.70935,15.21485-2.41278-1.43665-4.69525-2.64618-5.678-9.01953-3.9422.02752-12.611,6.39276-15.73517-.17676.23681-7.56885,4.59875-3.89887,9.15332-5.29529-8.3869-1.17547-6.4007-13.04785-17.59-17.06775l.99976,7.153C679.28223,903.27087,677.6662,900.03485,675.42279,900.72272Z" transform="translate(-197.23242 -5.07414)"/><path class="cls-1" d="M704.57153,936.9444l-.31183,2.279c2.13837-1.647,5.25391-1.9812,11.22162-2.51666-1.10461-4.66443-2.87091-6.42432-4.65167-7.63636l-5.75848,8.97663Z" transform="translate(-197.23242 -5.07414)"/><path class="cls-1" d="M699.58624,947.9436c-.30871-.34619-.595-.70074-.86285-1.06054-.264-.36658-.56732-.63715-.826-.96338-.53186-.62671-1.00873-1.25873-1.4563-1.88367-.89508-1.24988-1.67309-2.47143-2.53955-3.56708a10.48059,10.48059,0,0,0-7.89685-4.29876,6.2483,6.2483,0,0,0-.60345,3.56677,6.50019,6.50019,0,0,0,1.02441,2.95306c1.05389,1.77954,2.57129,3.377,2.63043,6.42188,2.56226-6.47107,2.93768-5.13111,3.69013-2.99671.76226,2.1167,1.77722,5.25214,6.07946,1.54a29.33532,29.33532,0,0,1-2.309,8.0351,51.22487,51.22487,0,0,1,6.55445-5.28162c-.21.04486-.36084.07318-.551.09876l-.02508.06921c-.03113-.01752-.03809-.03857-.07209-.05762-1.08728.15076-1.65606.07306-.86279-.3316-.04486-.08356.02075-.26013.02924-.34979a11.36507,11.36507,0,0,1-1.96906-1.87525,6.29431,6.29431,0,0,1,.55951-.48236c.14075-.08764.2688-.15985.38532-.21808a1.694,1.694,0,0,1,.56945-.19079.45754.45754,0,0,1,.52661.37738,3.52969,3.52969,0,0,1,.07471.96917,8.52788,8.52788,0,0,0-.14654,1.41993,10.25367,10.25367,0,0,0,.83355.68139.4463.4463,0,0,0,.09717-.01159l.25635-.96338.12744-.48041.05145-.34674.18946-1.35809.3775-2.71381.73736-5.42163a8.891,8.891,0,0,0-2.398,3.08667,25.79582,25.79582,0,0,0-1.05932,2.38116q-.25735.68391-.54444,1.44635-.13732.38553-.28228.79279l-.14453.41449Z" transform="translate(-197.23242 -5.07414)"/><path class="cls-1" d="M637.10553,965.41205a5.0658,5.0658,0,0,1,.97211,1.61127C638.42072,966.1701,638.42426,965.59082,637.10553,965.41205Z" transform="translate(-197.23242 -5.07414)"/><path class="cls-1" d="M643.26782,969.59088c-.34186.966.17963,3.74475-2.83709,3.05542-3.13727-2.07306-1.2884-3.33349-2.35309-5.623a10.33937,10.33937,0,0,0-1.30493,3.62841c-.03968,1.44629.72845,3.08551,4.03125,4.76056l.457-.95807c2.81842,1.17774,6.81854,3.91474,10.29418,6.46582,3.4524,2.55225,6.29657,4.92279,6.06983,5.40516-2.4657-3.10254-4.57349-5.75849-6.82849-8.40149C648.54822,975.2804,646.14722,972.65033,643.26782,969.59088Z" transform="translate(-197.23242 -5.07414)"/><path class="cls-1" d="M669.95734,965.3858c1.03167-4.02917,1.98669-7.93255,2.82483-11.74408a70.76426,70.76426,0,0,1-7.1026.24012l2.80493,2.4107C664.58551,960.19141,668.377,962.54822,669.95734,965.3858Z" transform="translate(-197.23242 -5.07414)"/><polygon class="cls-1" points="517.445 924.281 523.471 928.711 516.484 919.5 517.445 924.281"/><polygon class="cls-1" points="521.752 914.014 527.276 917.301 525.164 912.925 521.752 914.014"/><path class="cls-1" d="M655.03943,367.23959l-3.14105-1.14691A7.994,7.994,0,0,0,655.03943,367.23959Z" transform="translate(-197.23242 -5.07414)"/><path class="cls-1" d="M667.5285,383.05219l2.69953-1.72584C668.31451,381.78763,667.0907,382.34659,667.5285,383.05219Z" transform="translate(-197.23242 -5.07414)"/><path class="cls-1" d="M814.52692,662.09967c6.70056-2.37775,16.62512-4.76239,9.45849-5.74786l-7.12707-.26874C817.59039,658.93536,816.378,660.74976,814.52692,662.09967Z" transform="translate(-197.23242 -5.07414)"/><path class="cls-1" d="M775.87463,474.73477c-.574.50293-1.17163,1.02667-1.76446,1.54617l7.08691.58307C779.55054,476.21545,777.808,475.46445,775.87463,474.73477Z" transform="translate(-197.23242 -5.07414)"/><path class="cls-1" d="M747.16455,480.45087q1.60832-2.56293,3.19574-5.21854A16.811,16.811,0,0,0,747.16455,480.45087Z" transform="translate(-197.23242 -5.07414)"/><path class="cls-1" d="M600.24463,265.68823c-2.56287-.73266-5.18-1.49338-7.71161-2.3088C593.59082,269.04538,596.71014,265.876,600.24463,265.68823Z" transform="translate(-197.23242 -5.07414)"/><path class="cls-1" d="M764.06964,814.77686c3.73425-1.8935,5.75311-3.80646,6.89838-5.73719C765.78308,811.09015,759.01923,811.63452,764.06964,814.77686Z" transform="translate(-197.23242 -5.07414)"/><path class="cls-1" d="M718.00763,326.31119a5.70561,5.70561,0,0,0-4.47754,1.27908A4.54024,4.54024,0,0,0,718.00763,326.31119Z" transform="translate(-197.23242 -5.07414)"/><path class="cls-1" d="M774.3103,800.5a21.06719,21.06719,0,0,0-2.1532.95874c.25232,2.58881.29541,5.12408-1.18908,7.58093C774.82062,807.54517,777.72961,805.17822,774.3103,800.5Z" transform="translate(-197.23242 -5.07414)"/><path class="cls-1" d="M604.82617,88.4961a6.77647,6.77647,0,0,1-.78973-.84442C603.95966,88.6114,604.31061,88.65849,604.82617,88.4961Z" transform="translate(-197.23242 -5.07414)"/><path class="cls-1" d="M503.17184,17.41563a13.89489,13.89489,0,0,1,4.17337-.54725C506.59528,16.38122,505.33667,16.42831,503.17184,17.41563Z" transform="translate(-197.23242 -5.07414)"/><path class="cls-1" d="M741.44708,880.34259c-.59765,2.3266.53845.66754,0,0Z" transform="translate(-197.23242 -5.07414)"/><path class="cls-1" d="M711.40308,878.6048a6.54063,6.54063,0,0,0-2.68415-2.31421A8.42921,8.42921,0,0,1,711.40308,878.6048Z" transform="translate(-197.23242 -5.07414)"/><path class="cls-1" d="M741.50214,763.30774c.023-.063.06726-.1037.09356-.17578C740.067,763.29376,740.35706,763.27594,741.50214,763.30774Z" transform="translate(-197.23242 -5.07414)"/><path class="cls-1" d="M737.02814,882.174a10.68442,10.68442,0,0,0,3.18268-1.82568A11.27039,11.27039,0,0,0,737.02814,882.174Z" transform="translate(-197.23242 -5.07414)"/><path class="cls-1" d="M740.24231,883.17047c-.63544.59876-1.06818,1.10028-1.50134,1.56854C739.6687,885.51044,740.45258,885.59027,740.24231,883.17047Z" transform="translate(-197.23242 -5.07414)"/><path class="cls-1" d="M742.48914,877.20172a7.819,7.819,0,0,1-2.27832,3.14661c.63641-.21155,1.07092-.22144,1.23626-.00574C741.645,879.67151,741.92377,878.72351,742.48914,877.20172Z" transform="translate(-197.23242 -5.07414)"/><path class="cls-1" d="M654.5871,105.58992c.31219-.11335.54345-.231.95764-.36567-1.3559-.45232-1.99835-.50726-2.09039-.4085C653.3609,104.92141,653.81049,105.20329,654.5871,105.58992Z" transform="translate(-197.23242 -5.07414)"/><path class="cls-1" d="M752.01611,591.52936c.06037.10663.24042.17846.30176.2763.08978-.09069.20178-.20483.29376-.28515Z" transform="translate(-197.23242 -5.07414)"/><path class="cls-1" d="M747.54407,583.48193c8.50152,3.97449,7.16327,5.79657,5.06756,8.03858q10.23276-.188,20.47779-.49011Q760.39517,587.10406,747.54407,583.48193Z" transform="translate(-197.23242 -5.07414)"/><path class="cls-1" d="M626.79919,326.59793q-1.22781,4.48343-2.36016,9.11484c-6.5644-1.29236-9.90125-3.87125-12.0412-4.86545-2.146-.99081-3.33564-.33847-5.74927,4.81552,5.0509-2.24017,8.51636-1.8627,11.17529-.228a13.88534,13.88534,0,0,1,3.49945,3.26163c1.03705,1.30078,2.05,2.69892,3.02716,4.12863,3.87146,5.75583,8.13752,11.14469,17.60126,5.54044-.49469,2.077-1.01507,4.21838-1.43548,6.29132-.55646-1.16791-1.74079-.63339-2.25641-1.8316-1.98969,6.60345,2.34533,5.732,7.43866,4.4952,5.13775-1.22616,11.05426-2.83709,13.01764,2.3151.87457,3.97812-.03492,8.075-3.6767,7.60406,1.564.59226,3.15173,1.13556,4.75067,1.64713l4.75183,1.53152c1.18787,2.14734-2.13086,4.13553-3.34375,1.96924,1.58429,1.46332,3.12732,2.971,4.74017,4.3793l4.83625,4.20286-.54657.35671a59.61846,59.61846,0,0,1,6.99585-1.08544c2.51477-.29221,4.93316-.51752,6.423-.58582-.19623,4.42773-2.78265.45065-4.25427,2.886q4.30545.69369,8.53961,1.30227a6.89893,6.89893,0,0,1-6.21838,4.5936,7.45575,7.45575,0,0,1-6.61-3.00433c-5.86737,9.8407-3.763,10.0592-.28137,10.06946,3.49829.09262,8.42078-.263,8.936,9.33242l-6.708-2.73431c-2.90326,5.9332-2.55689,9.08957-1.496,12.11905,1.07507,3.02691,2.91137,5.7905,3.12677,11.33679.69165-2.13623,1.18145-8.39239,2.79846-13.84811a20.66689,20.66689,0,0,1,3.35046-7.088,5.98548,5.98548,0,0,1,5.58539-2.49746c.38226,2.62921,1.92206,5.1448,7.86047,4.60766a9.84746,9.84746,0,0,0-2.32415,3.61112,3.19363,3.19363,0,0,0-.1131,1.35342,2.77668,2.77668,0,0,0,.15588.596q.103.239.21747.50433c.51581,1.12024,2.04095,1.7714,3.46185,2.8223l-7.36767,7.33624a11.95015,11.95015,0,0,0,6.46429-1.92972c1.11438-.63473,2.074-1.18136,3.20886-1.82775a20.23962,20.23962,0,0,1,3.44043-1.528c2.16815,3.89276-3.22992,9.881-7.70923,15.016.75184,1.35993,1.458,1.401,2.35993.6402a22.22316,22.22316,0,0,0,2.9732-3.8324,16.90913,16.90913,0,0,1,3.53821-4.1221,4.01182,4.01182,0,0,1,2.12122-.82293,3.55358,3.55358,0,0,1,2.32867.85491,7.515,7.515,0,0,0,1.30731,4.05314,8.5333,8.5333,0,0,0,3.07526,2.363,23.86132,23.86132,0,0,0,4.64972,1.58188c.93964.22641,1.91418.46127,2.93524.70731q.788.18451,1.61328.37774.7977.22636,1.63581.46418a4.02021,4.02021,0,0,1-3.38459,3.82885c-1.53637.39481-3.15631.50528-4.031,1.91391q4.38455-.796,8.88782-1.4274c.30542.86441-2.01935,1.94153-3.1897,2.494,2.17334.42859,4.44366-.84128,6.78363-1.904a12.91213,12.91213,0,0,1,3.58575-1.16177,5.31542,5.31542,0,0,1,3.64295.829c5.30865-2.21939,3.00781,2.28439,1.01965,6.91473-1.03833,2.35669-2.06818,4.804-1.89337,6.61807.15442,1.83249,1.53613,3.02762,5.13055,3.166-2.12555,2.60825-6.10809,1.87717-9.608,3.946,5.44733,2.07779,7.61066,3.22855,10.018,4.02845.604.2045,1.22729.39187,1.92578.5802.67676.2,1.42926.40036,2.31579.621,1.8628.4455,4.15894.99466,7.40906,1.772-1.45087,2.74662-2.86633,5.39283-4.50061,8.06412,3.07886-3.34,7.19653-4.41354,11.68909-4.13113,4.48864.26968,9.35815,1.90356,13.82525,3.63357a74.20712,74.20712,0,0,0,7.02857-6.67978c2.67779,2.49082,5.418,5.04865,7.92895,7.727-1.3728,1.55567-5.07531,1.46179-9.63507,1.082.98078.39786,1.94629.77423,2.82422,1.03919-2.925,4.19351-9.18219,3.85171-15.33508,3.12988,1.72424-1.54742,3.59778-3.15689,5.42395-4.75214-6.73047-.49472-13.99262-.39306-19.71131,1.72776a6.04154,6.04154,0,0,1,3.48011,1.83478,9.21185,9.21185,0,0,0-4.30817.54782c-.98724.5672,1.52.7304,4.39642,1.38256q-5.36966,2.41728-10.76416,4.73627l4.55982-.71222-2.26215,5.9534-.56909,1.46-.63226,1.47544-1.27014,2.91964c3.21374,1.23487,6.77233,2.41477,10.4201,3.70465,3.5849,1.31107,7.21539,2.741,10.69251,4.42392,7.025,3.34363,12.99072,7.84894,16.11682,14.37543a24.7087,24.7087,0,0,0-11.48853-.5213c-3.62152.56982-7.39722,1.51282-12.415,1.90656,5.10657-2.199,3.69684-4.57459,1.205-7.0962-2.43823-2.56042-6.19141-5.15063-5.6015-8.43945-.60169,3.44949-5.46942,3.40637-7.22815,2.85767l2.81982,2.37176q1.432,1.19316,2.77216,2.4466,2.71554,2.4937,5.45032,5.09039c-4.10852.31091-5.57355,1.07288-6.39356,2.15149a11.43306,11.43306,0,0,0-.99939,1.84857,8.8978,8.8978,0,0,1-1.61181,2.25568c8.01879-1.82782,10.8742.05139,12.40271,3.01886a32.13976,32.13976,0,0,1,1.74121,4.85327,9.23877,9.23877,0,0,0,2.46264,4.3742c-5.46258.51465-11.01208-.396-10.01751-6.12518-5.88166,3.477-1.11878,5.18421,3.991,7.04669,2.54175.92328,5.14234,1.86982,6.47406,3.011,1.34821,1.13623,1.3783,2.47784-1.22412,4.12152-.14233-1.43585.70691-2.2392-2.10821-2.73321a5.38332,5.38332,0,0,1,1.79156,6.76391c-.933,2.24249-3.06995,3.78211-5.44995,2.81714l-.12292-1.41272c-.24415,1.1767-.379,2.49634-.52723,3.92835a44.37824,44.37824,0,0,0,1.01056,14.21386,21.76724,21.76724,0,0,0,4.03845,8.45868,12.96814,12.96814,0,0,0,7.881,4.71326c-1.79737-.05744-16.49555-2.58356-19.23377-3.34369q11.23454,5.05737,22.43854,10.5835,11.08685,5.52026,22.12945,11.47662c-5.80517-1.48425-15.89086-1.47315-25.23913-2.29578-9.34924-.81109-17.96887-2.40149-20.88843-6.64673-1.9508,2.07239-4.10333,4.5459-.61291,9.7959,1.87506-1.2854,17.537-1.763,18.33056.53272-6.9469,2.15136-8.83,2.907-10.49768,3.89416a59.70042,59.70042,0,0,1-9.19275,4.90216c2.8689-1.94287,20.88043,3.31232,19.69049,7.046-2.65448-1.00854-18.18-2.52313-19.88806-4.149,5.52289,3.93487,11.12354,7.98553,16.53809,12.12634-2.82331-2.881-15.18884-2.98236-20.64252-1.87793,1.84918-.16058,1.41968,1.77759.69861,4.09143-.70709,2.31476-1.74115,4.99542-1.11347,6.36853,1.64179-1.00537,3.29859-2.019,4.90522-3.04443-2.32477,4.86175,3.42706,8.61633,9.434,12.53344,6.0202,3.905,12.14416,7.94831,10.51318,13.13611-3.38824-2.1239-21.99731-8.0664-25.36627-3.4151,4.31708,2.21332,14.65973,7.34467,24.47375,13.469a116.80513,116.80513,0,0,1,13.53949,9.63171c3.83655,3.26367,6.68286,6.47162,7.8144,9.32428l-5.65009.4967c1.33838,2.95057,2.67773,5.92353,3.95062,8.89209-6.137-4.11737-15.598-11.26141-24.71289-18.36663-9.07428-7.11939-18.02167-14.23645-22.82812-18.81086-5.03052,2.82984-6.399-.39868-7.27106,5.378-5.3429.78406-6.64954-4.87219-6.54694-6.57531l-3.126,6.11584-3.23883,6.08148c5.36212,1.07642,7.36975,4.25641,9.14459,7.4289,1.73327,3.16357,3.23034,6.31286,7.68616,7.26294-2.27778-5.80231-4.74408-11.5528-7.1695-17.21674,5.36169,1.03906,12.34192,4.98926,17.41638,9.91889,5.1073,4.92279,8.19239,10.82049,5.93579,15.38794-4.86145,1.25842-18.22235-7.03107-21.79669-7.77607,1.64295,1.10492,2.76013,3.81214,3.11365,6.27222.31811,2.45331-.12549,4.65076-1.53046,4.70941l-4.454-5.5791c-2.72949,2.02588.13184,5.13379,2.18457,8.1958,2.06537,3.05469,3.30017,6.06622-2.66,7.67145-1.343,1.97662-15.39337,2.23566-9.34528,4.52881,12.94928.28137,50.0116,10.85241,58.17511,16.14587-.5205.27844-4.29211,2.39966-8.80548,4.47424-4.50043,2.08509-9.68756,4.13471-13.02154,4.44172-5.26221.29394-10.29993-2.91687-15.21259-6.10566-4.90253-3.19372-9.63458-6.3529-14.11023-6.14318,2.79187,1.05523,5.66132,4.18109,6.50336,5.37829-3.18787,1.46979-8.4552-3.846-8.83606,1.491,10.20056,4.35162-4.27142,9.73321,8.07648,5.3277,1.36218,5.88141-3.91755,4.411-5.43866,10.23278,3.68811.28656,8.98016,3.57227,13.491,7.58057,4.52661,4.00861,8.2074,8.72577,8.79364,11.74609-2.53778-1.25439-6.39166-1.40545-8.15667-1.44842-4.62458,9.70795-11.377,13.2486-15.07953,22.437-2.81519-.12048-7.59888,3.09851-11.27448-.54767,1.29633,2.03583,4.29468,4.64014,3.39752,7.56677-11.06366,1.86213,1.15381-6.83148-11.20044-6.97619,5.82648,2.74127,5.33716,10.58508,7.35492,16.12341,4.84369,1.28516,6.26215-.86218,6.18427-4.02008-.09076-3.16437-1.66357-7.31811-2.71851-10.07269,12.723,5.02783,23.24494,17.50177,24.986,29.76526-.11994,9.10186-9.57526-.07459-8.34864,2.03033-4.16693,6.77509-.00842,12.21167,3.38739,17.01825,3.41,4.7995,6.07788,8.98346-1.14624,12.99939-10.08923,1.20117-15.92706-6.89123-22.15246-8.411-.24848-7.51575,9.29712-7.261,10.8175-11.64545L719.658,833.114c-1.79938-3.15252-2.00916-8.15356,1.2854-9.41046-4.47626.41657-7.38361,6.30628-10.75415,13.04773-3.32837,6.75513-7.0943,14.38562-12.91144,18.26837,1.752,3.15979,2.93213,7.79328,6.84845,7.71118l.51-3.96807c7.86286-.21216,5.77069,10.66259,10.79529,7.66522,2.28467,6.75519,6.80206,15.40112.01434,20.243l-9.54565-3.12872c2.68066,1.14129,7.40027-1.689,5.56433-4.84473,1.32977,2.32355-2.92267,3.37042-6.2099,4.89581-3.29132,1.52826-5.64569,3.52527-.53265,7.90583l8.44812-1.53125c1.09411,3.435,3.295,7.77765,4.49914,11.83081,1.18714,4.04187,1.38544,7.79895-1.48926,10.00451,10.11914,1.77552-.33349-1.83892,12.041-.8413-14.58411-2.78113,8.003-14.76679-8.36029-15.61335,14.0921,1.6037,8.68353-4.907,21.67267-5.6159-3.04834-1.24317-6.6286-.714-2.79242-4.99372a15.87536,15.87536,0,0,1-2.094-2.33453,2.25035,2.25035,0,0,1,.38117-.23047c-.16468.04382-.329.05658-.48108.108-.34491-.428-.43262-.4931-.166.04633a11.63065,11.63065,0,0,1-5.714.38006c-2.81756-2.854-3.24139-6.2102-3.25067-9.3919-.02594-3.19019.36762-6.20594-.78522-8.35413,2.78608-2.27057,2.85126,2.81531,6.77326,2.68872l-3.46015-6.4295c6.79133,2.66925,14.6142-2.8266,15.30231,5.95471l3.17859-6.17841c5.40479-2.03686,9.202-6.5495,7.80212-10.96624,2.75922-2.38776-4.08752-10.82447.00806-5.92585q.12342-5.891.15582-11.78729l1.70984.61847c2.54938-4.75519,1.8656-11.04474,2.67261-16.87579.76056-5.8678,3.03125-11.26032,11.38348-14.60242-.39129-4.0589-1.11523-8.33221,2.94574-13.28162l6.32447,1.12134c-.36951-5.10809,10.81537-11.05188,5.33893-15.18976,8.86376.51184,11.63238-4.64508,12.90545-10.71142,1.19147-6.12219.899-13.109,3.58191-16.62927l-7.73541-2.853a22.119,22.119,0,0,0,1.51965-8.54816,80.40959,80.40959,0,0,0-.98376-10.386l-7.08649-1.70642c-1.95117-3.74433.36652-7.074,3.445-10.68665,3.10528-3.593,6.886-7.51849,7.7951-12.26856,2.51178,1.36323,1.16016,3.53968-.92541,4.75226,4.7268-1.66943,6.7832-4.206,7.4209-7.13849.61688-2.94451-.22242-6.30139-1.19288-9.62512-.965-3.324-2.10064-6.633-2.15466-9.5805-.03717-2.94263,1.05951-5.5033,4.58728-7.37952-1.99518-3.14453-.72619-4.78876,1.45349-6.19049a.99924.99924,0,0,0,.23889.71979,3.7755,3.7755,0,0,0,.32532-1.03192c1.47168-.86145,3.15039-1.7201,4.56629-2.74561a15.47273,15.47273,0,0,0-4.46881,2.1745,18.86453,18.86453,0,0,0-1.1081-8.51135l7.90833.32025a6.46691,6.46691,0,0,0-.07508-.73334c3.412-2.36053-3.16131-3.07117-9.23974-2.70312a17.31088,17.31088,0,0,0-3.84326-4.79743c6.42126.05493,5.77691-2.0899,5.22381-4.3034-.57464-2.22937-1.03418-4.5113,5.88007-4.94464-3.06629-1.58863-3.56348-5.51166-5.09943-9.53931-1.53607-4.03009-3.98761-8.09937-10.70343-9.8913,1.8028.16944,2.7854-.56585,2.65631,1.02918,2.09107-3.00745,4.05963-6.113.59143-9.56653l10.04377-.10181c-4.10932-3.00415-8.165-5.93591-12.35907-8.835,6.48614-3.62622,10.199-5.18768,17.32025.10248-5.2804-6.01819-6.13611-8.22437-7.04511-10.29492-.92822-2.05066-1.85412-3.94593-7.30316-8.85425l6.3714.92737c-.00775-1.62769-1.99384-3.871-3.43359-5.90033-1.41376-2.02814-2.14466-3.82386.562-4.65064,6.32861-3.25677,7.181-12.343,7.46429-22.91455.06116-2.64654.11316-5.38446.24335-8.15454.05377-2.78143.16772-5.598.45715-8.39447.14356-1.3985.32874-2.79242.56659-4.176.20337-1.38775.44153-2.76757.75415-4.13067a37.71115,37.71115,0,0,1,2.72589-7.954c-9.30615,2.71509-7.28943.322-5.00213-2.73633,2.32336-3.0553,5.09051-6.87707-2.23236-6.35757,4.31286-1.64481,6.50451-4.74015,10.72424-2.03086a13.77233,13.77233,0,0,1-1.84558-6.62353c-.04358-2.04505.30829-3.94751.42578-5.72144.2923-3.53009-.60925-6.61426-7.34784-8.85373,4.17792-2.04638,6.85815.88663,9.27161-.65719-1.11835-.64914-4.46527-2.47251-2.05493-4.086,2.39477-1.60156,3.97039.7269,6.21185,2.00067a9.54781,9.54781,0,0,0-4.01386-5.73724,15.40457,15.40457,0,0,0-7.0838-2.11847c-5.42462-.45359-12.02063.72134-18.39123,1.917,2.36633-3.17706,3.19348-5.40048,2.25567-6.94528-.98578-1.53888-3.68554-2.42051-8.27514-2.94608,3.57818-2.83746,6.93829-7.08224,10.21295-1.39963-.1048-.90219-.17389-2.77563-.38416-5.052-.11224-1.13666-.22925-2.379-.45758-3.6373a37.30678,37.30678,0,0,0-.94641-3.76217,14.48371,14.48371,0,0,0-3.31787-6.11728,5.43307,5.43307,0,0,0-5.91675-1.08786c2.03119-2-1.1889-4.91721-2.64831-5.29984-.63337-1.89706-1.00757-3.40948-1.44031-4.66034-.41858-1.25583-.75446-2.299-1.13538-3.31759a33.50161,33.50161,0,0,0-3.87982-7.29624c-.13342.89249-.3548,1.81635-.53491,2.71643-6.22565,1.41181-7.61853.4119-7.96344-1.6452-.34442-2.03918.29785-5.13992-1.85571-7.483l1.18573-.48566c.13433-4.22272-.38288-6.54309-1.0058-7.91083a4.15574,4.15574,0,0,0-2.27753-2.154,3.63861,3.63861,0,0,1-2.0766-2.2185c-.57147-1.3877-.90393-3.75208-.93909-8.22873l-5.8543,5.212c-3.58649,2.18555-5.3078,2.31772-6.03888,1.22769a4.48438,4.48438,0,0,1-.475-2.46234,32.92285,32.92285,0,0,1,.19971-3.61444,36.41556,36.41556,0,0,0,.17059-8.38623,7.26569,7.26569,0,0,0-1.24042-3.362,4.61041,4.61041,0,0,0-2.93481-1.71655q-.64407,2.58961-1.33453,5.13c-3.64386.26755-1.41474-5.7268,1.2022-12.72955,1.32184-3.49521,2.75812-7.22766,3.6363-10.332.90435-3.12805,1.34515-5.72348.80652-6.96689.22229-1.81027,2.8645-.48392,4.73217-.16672-.65356-4.0686-1.56146-5.76434-2.6054-6.031-1.04963-.27118-2.25745.86767-3.65125,2.35849a29.12726,29.12726,0,0,1-4.74048,4.49908,6.63676,6.63676,0,0,1-2.77045,1.129,4.55268,4.55268,0,0,1-1.47644-.04407,4.90467,4.90467,0,0,1-.75982-.21481,3.76148,3.76148,0,0,1-.65161-.235c2.73693-4.97693,10.61084-9.24918,7.86364-13.21244.32642-1.21588-.88348-1.57644-2.86883-1.64383-1.99249-.06216-4.75781.16046-7.43134.07169-2.69494-.07184-5.38421-.40289-7.22265-1.46793-1.83387-1.06512-2.70441-2.93-1.89722-5.90213-2.13086,3.92865-4.1593,7.94931-8.811,7.64939-1.16895-.69422-1.6355-2.36512-1.83844-4.3783-.15894-2.04367-.06379-4.41852-.21845-6.51266-.14007-2.10483-.5993-3.892-1.73071-4.90729-1.14813-1.00739-3.10144-1.17526-6.43073.02951a6.9905,6.9905,0,0,1,2.02344-2.79645,19.34693,19.34693,0,0,1-4.19379-1.30756c-1.47564-.61746-3.056-1.33319-4.71557-1.95339-3.36072-1.21442-6.86042-2.15964-10.5318-1.08988,5.00293-4.61413,5.96454-7.611,5.00458-9.84091-.9054-2.25333-3.91413-3.709-6.86-5.17868-2.88538-1.48309-5.87213-2.90827-6.69623-4.72632-.78344-1.8392.52552-3.9722,6.0268-6.83984-2.23981-3.148-4.204-6.42057-6.23352-9.69757l2.42749-.76148a8.40566,8.40566,0,0,0-1.86292-4.1954,8.66034,8.66034,0,0,0-3.29-2.23017c-2.54089-1.0083-5.7912-1.1896-9.06665-1.4328.96832-2.20749,3.615-1.78079,4.87885-2.09384a40.64494,40.64494,0,0,0,.35632-6.93259,7.00776,7.00776,0,0,0-1.46643-4.21255c-1.92657-2.27161-5.69269-3.75265-12.81165-7.02979l7.702-2.59957c-2.51416-.72182-.24853-5.2163,1.64917-10.27057.42712-1.2621.92224-2.57938,1.24768-3.89888a16.00815,16.00815,0,0,0,.505-3.965,10.51024,10.51024,0,0,0-3.25476-7.71845,8.009,8.009,0,0,1,3.6477.97762,7.516,7.516,0,0,1-1.95612-4.39382,11.59516,11.59516,0,0,1,.8844-4.70363,26.80635,26.80635,0,0,1,2.48371-4.63124c.47967-.75113.946-1.4879,1.43756-2.21077.5014-.72334.98645-1.43112,1.43011-2.12266,3.49958-5.54823,4.835-9.9332-9.30444-14.44933-1.01807-1.49984-1.925-3.01982-2.87384-4.56892-.92468-1.54678-1.91095-3.12778-2.77576-4.72134-2.13873,5.03216-5.16674,4.14978-8.40289,2.29028-3.22711-1.8347-6.59174-4.711-9.40985-2.80382-.468-2.4467,2.40228-4.92506,5.28027-5.97192,2.90082-1.05519,5.91339-.71657,6.0838,2.07525l-1.61132.51412c7.28649,2.55435,9.23407-.46247,10.85406-3.69058,1.52289-3.25794,2.76019-6.801,7.69086-5.22162.28277-1.25266.65564-2.48523,1.06085-3.70572.40607-1.22025.81689-2.43367,1.29431-3.62723a71.94037,71.94037,0,0,1,3.2699-6.99037c1.18445-2.28,2.5318-4.48984,3.90729-6.66055.66833-1.09043,1.42462-2.14994,2.14221-3.212l1.09192-1.5833.27325-.394c.0968-.1417.16266-.22655.31183-.46412l.78815-1.22793q1.59063-2.47553,3.17474-4.94087c.49378-.79622,1.17419-1.75069,1.765-2.63248l1.83532-2.70555,1.8374-2.72466c.62812-.90849,1.31037-1.81016,1.96241-2.72038q1.98138-2.75029,3.95379-5.48829c5.499-7.33843,11.37744-14.86114,17.51368-22.48709q-8.91267,2.17071-17.35511,3.88812l1.77-2.20546.88849-1.10608.96845-1.11936,3.92523-4.50453.06988-.39807a15.804,15.804,0,0,1,6.14264-2.37144c2.19794-.31464,4.21216-.0877,5.32282,1.5219a8.97384,8.97384,0,0,1-2.16761,3.24368c2.79224-1.07153,4.5127-2.33264,5.41083-3.59446-.48718-1.91794-3.317-3.4912-6.21362-4.59864a27.0177,27.0177,0,0,0-4.16919-1.19265,10.78478,10.78478,0,0,0-2.88477-.21372c1.84967-2.97988,3.649-4.47011,5.45917-5.01959a7.958,7.958,0,0,1,5.40418.57124c1.75781.72266,3.44427,1.77177,4.71808,2.41991,1.30731.72693,2.15625.9964,2.11285-.0325-.5567-1.66582-1.04706-3.22108-1.53925-4.82148L728.271,86.3402a26.77331,26.77331,0,0,0-4.334-1.53762,25.47606,25.47606,0,0,1-3.50787-1.062,3.87715,3.87715,0,0,1-2.12732-1.81616,4.93342,4.93342,0,0,1-.01392-3.425,10.67837,10.67837,0,0,1,5.01581-3.90044c1.58881-.67163,2.9093-.99553,3.17548-1.78137.84631-.24808,1.21563-.87.478-2.29856l.82019-4.10852c.30231-1.28294.55555-2.6444.86493-3.86206-2.62268,1.89-5.35559,3.9214-8.29827,5.88374a2.04366,2.04366,0,0,1-.936-1.81344,13.469,13.469,0,0,0,.0542-1.583c-.0777-.34506-.36261-.42887-1.21643-.013a52.10175,52.10175,0,0,0-4.76843,2.99756,31.505,31.505,0,0,0,9.79919-10.46061c2.18488-3.6254,3.75916-7.10965,5.3952-9.985.527-.94238,1.04645-1.82615,1.558-2.62852.25384-.40414.50793-.784.75781-1.14289-.45349-.24486-.945-.46958-1.36511-.69053-1.716-.87672-2.86634-1.60858-3.02851-2.18223a54.93171,54.93171,0,0,1-9.38977-1.11521,33.66274,33.66274,0,0,1-7.87457-2.95566c.19293,1.65782-4.79517,7.02781-9.73871,5.57723,3.94464-3.09551,5.62012-5.05369,6.18946-6.66391a4.02,4.02,0,0,0-.89618-3.96665,10.76427,10.76427,0,0,1-2.35065-4.177c-.36383-1.79991.057-4.2396,2.3996-8.0734-1.354,2.66814-2.841,3.54575-4.556,3.78345a22.05446,22.05446,0,0,1-5.58-.52306,9.86946,9.86946,0,0,0-6.21118.76732c-2.12946,1.08941-4.3819,3.4396-6.32074,7.47973a1.9197,1.9197,0,0,1-.04187-2.38856c.439-1.37551,2.47742-3.241,4.38287-5.25755,1.89179-2.01656,3.65729-4.1842,3.15821-6.164a50.58789,50.58789,0,0,1-16.67933,2.746,70.683,70.683,0,0,1-14.14959-1.96733c-4.75238-1.034-9.76337-2.24257-15.22431-3.01473a67.806,67.806,0,0,0-17.42077-.39623c-.49366,1.43308-.00879,3.23883-.17847,5.21814a8.547,8.547,0,0,1-3.65009,6.25945,99.64882,99.64882,0,0,0-9.93707-14.2804c-2.47137.69745-3.75238,4.81846-5.28992,7.52607a7.32389,7.32389,0,0,1-1.24041,1.69013,2.8382,2.8382,0,0,1-.71271.5046,1.58884,1.58884,0,0,1-.61591.202c-.8059.0425-1.83221-.873-3.2207-3.351.78424,2.40334,1.95508,6.01972-.08362,6.93559-30.15149-13.91178-61.6123,11.40126-92.23263-14.74483,4.14731,5.5423,1.38333,6.08143-1.78373,6.28766,2.0593,1.32022-.0466,7.04927.35785,10.92709L494.884,17.03889c-2.33624,10.74359-13.74447.72587-15.08261,11.00179l4.0596-1.8561c-5.39908,12.132,7.55432,26.94829,6.76462,42.50506,6.04483-13.78512,15.93948,20.40892,25.85745.682,2.18952,3.17955-1.86737,5.01454-.69647,8.61792,2.51441-6.66439,5.54987-8.05119,11.17651-5.0665l-.6361,1.65311c15.80645-1.6255,22.58343,4.948,40.34088,9.32432l-1.31482-7.6907c3.81555,1.023,4.619,3.43776,6.40539,5.36855,4.379-11.66757-10.71722-.66255-6.7276-13.52367,5.06183,15.65258,26.90906.23384,30.32972,18.02344,5.87072.09906-1.72059-8.90536,4.14733-8.80143l1.55616,4.81318,1.4834-6.20159a5.40323,5.40323,0,0,1,2.53051,1.59614,10.26115,10.26115,0,0,1,.91071,2.81939,30.30892,30.30892,0,0,1,.41144,6.70155c-.1659-.242-.43854.04262-.69965.43175-.131.19455-.26.41525-.37738.60933-.12164.19408-.16919.36154-.49695.44964.40973.35431.37183.65679.52527.913a3.96734,3.96734,0,0,0,.34662.63527,1.24591,1.24591,0,0,0,.72736.57046c.50335.11351,1.06506-.24739,1.65759-.72786,1.16046-.96093,2.51935-2.4001,2.6062-1.47854a23.81293,23.81293,0,0,0-1.56275-2.9652,12.87924,12.87924,0,0,1,5.47681-1.74c1.86939-.2078,3.70581-.16527,5.58759-.23809a24.98912,24.98912,0,0,0,6.18286-.93014,47.36568,47.36568,0,0,0,8.94763-3.81615c.75427-.38409,1.52716-.7995,2.34344-1.24884q1.44727-1.81144,2.82654-3.62288c3.3628-1.6791,5.33106-2.26937,6.3432-2.25887,1.0246.01051,1.12818.6218,1.07306,1.34584-.05169.72405-.25952,1.56085.21466,2.02239.48432.46154,1.62061.54781,4.50544-.22922l-1.39509.86066c6.15363-3.61151,11.05488-5.44325,12.75593-5.02753-4.13251,2.12728-6.09308,4.19082-8.48432,6.31181a44.04844,44.04844,0,0,1-9.60174,6.65649c4.09387-1.80291,7.06549-3.05847,9.44494-4.13848,2.39087-1.08,4.21436-1.98446,6.29535-3.08515l8.00342-4.26255c3.59051-1.865,8.38293-4.29793,15.75714-7.67073q-4.4751,3.01717-9.13824,6.03433c5.73425-2.72973,10.03375-4.81317,13.83514-6.40843,1.90515-.79763,3.696-1.47321,5.52051-2.04652.91235-.28665,1.83325-.54774,2.78174-.78572.18914.06986.10907.2882.0343.554-3.29267,1.03246-8.23517,3.97527-13.32605,6.874-2.5567,1.46406-5.16992,2.94254-7.7724,4.30517-2.60565,1.36808-5.19983,2.61244-7.81079,3.7392-5.186,3.17705-7.882,4.95421-9.16858,5.97615-1.53241,1.21682-1.04932,1.376-.04975,1.29416,1.0113-.08639,2.54969-.4198,3.34357-.3876.79236.02157.85333.41282-.99969,1.61181A119.24265,119.24265,0,0,1,650.36456,91.524a133.081,133.081,0,0,0,13.25006-5.43213,28.74116,28.74116,0,0,0,6.00171-3.81721c2.44062-2.11065,2.37726-3.13955,4.62946-3.68181,5.20477-2.87817,9.92206-4.75968,12.4704-5.1128,2.57751-.39228,3.01855.72451.58166,2.67658-1.45276,1.54708-10.7315,6.21525-19.73645,10.65418-4.50128,2.23542-8.94311,4.41687-12.38263,6.24509-3.44,1.84325-5.87787,3.30376-6.54455,4.36346.42926-.47572-1.34.066-.92182-.38936-3.5755,1.75953-2.04864,1.79651-1.13745,2.23875.936.38438,1.23505,1.20311-3.93164,3.20756,6.1944-.93079,5.47736-.05921,5.33759.49286-.15839.579.22076.94616,8.03778-.08358q-.08038-2.47987-.33716-4.50621c1.00165.67667,4.31427.91306,6.99866,1.70111,2.68713.74822,4.75232,2.09752,3.69641,4.24458-.52362,1.12032-1.96778,2.46017-4.53345,3.89266a27.0885,27.0885,0,0,1-7.2417-2.6191l-.01434-.00869-.03894.01445c-2.69818,1.00075-2.35822,1.60371-2.09809,2.3045.27637.68228.48932,1.47494-2.17065,2.30045-7.70136-.15845-7.11279-1.67-6.36542-3.4548.59955-1.46311,1.39954-3.24926-3.70038-3.08617-3.82177,1.234-1.47448,1.5868-.451,2.21674.52265.29119.74408.59031-.15661.8493a46.19685,46.19685,0,0,1-6.97559.74448,46.78129,46.78129,0,0,1,5.6352-.11344c4.45849.30329,2.0885,1.635.39318,2.75312-.866.5797-1.59716,1.13676-1.3833,1.76659.20832.63683,1.33173,1.32666,4.08057,2.388l-8.11414-.93336a26.38367,26.38367,0,0,1,2.49988,1.28828c.86823.54787,1.48755,1.1846,1.1416,1.64342a82.93854,82.93854,0,0,0-9.64557-2.87045c2.014.69595,2.34351,1.31474,1.86737,1.7564a6.657,6.657,0,0,1-3.16784.85029c-1.38349.14718-2.82666.181-3.68756.32636-.43024.075-.7143.18213-.77655.36733a1.3782,1.3782,0,0,0,.4226,1.15335,3.43482,3.43482,0,0,1,.44184-.80879,1.49208,1.49208,0,0,1,.461-.32406,3.0688,3.0688,0,0,1,1.32055-.21978,15.23432,15.23432,0,0,1,3.8562.77282c1.47815.44228,3.08942,1.02983,4.73127,1.48469a12.18042,12.18042,0,0,0,5,.51223c1.67022,2.46993,1.07037,3.74893-.692,4.401-1.74249.57522-4.55847.18178-7.52448-.38068-6.3573.01923-13.87243.22138-15.70684,10.10241-.0564-1.45509,1.97192-3.34877,4.18084-4.21748,2.21936-.86961,4.64826-.69006,5.55609,1.85763a34.91723,34.91723,0,0,1-5.29913,4.26151,18.02044,18.02044,0,0,1-6.611,2.80969c-1.42145,6.4662.67645,6.61328,3.36835,6.02994,2.71026-.58983,6.05743-1.82944,7.42968,1.4879-5.12841.499-4.75183,2.32744-2.89917,4.7149,1.87128,2.41045,5.19477,5.37516,5.83991,8.37079l-7.52045-2.20031c-4.40881,6.28971-.71972,8.322,2.92786,10.04478,3.64813,1.76207,7.17261,3.191,2.77484,8.59-3.16736-2.54262-6.21014-5.12538-9.28864-7.8044.3584,2.44157.7071,4.85214,1.16443,7.2771l-8.39172-3.34816c2.42468,4.47368,3.06152,7.07266,2.73132,9.522-.33453,2.43985-1.89111,4.613-3.65143,8.14079a13.95838,13.95838,0,0,1,8.99787,2.03751c2.70209,1.67506,4.51,4.14344,4.30987,7.26562-2.5542,1.84581-4.33612,1.05505-5.46588.89546-1.11236-.15288-1.65283.36283-1.53412,4.96657-2.36724-1.25471-4.98669-2.61969-6.07476-4.10109-1.09-1.47482-.641-3.07962,3.16681-4.62854-2.49958-.736-4.58277-2.70219-7.02576-3.49148-3.03687,2.06634-3.63934,5.21519-3.61945,8.1873.03974,2.98607.928,5.85023.81336,7.58807.39312-1.32182.94427-2.89058,2.10907-3.60974,1.62774,2.4686,3.21991,4.87634,4.90515,7.24452q2.5566,3.55693,5.13678,6.95006c-2.99793,2.02278-5.33283.32217-7.5777-1.4628a11.49167,11.49167,0,0,0,2.54382,3.957,10.26514,10.26514,0,0,1,2.46277,4.83351c-6.35394-1.026-12.942-.68713-15.88977-6.841q1.73281,3.48372,3.48786,6.86409c1.14422,2.25148,2.4577,4.48031,3.68682,6.667-1.36761.49358-3.21533,2.298-5.00775,3.81606-1.75238,1.51326-3.46789,2.735-4.6958,1.8972-.80182,1.99333-.34338,4.15283.73071,6.37659a46.44884,46.44884,0,0,0,4.61854,6.817,45.45719,45.45719,0,0,1,4.65081,7.03758,10.76293,10.76293,0,0,1,.87787,7.55338,6.44956,6.44956,0,0,1,3.96051,2.94782,52.71787,52.71787,0,0,1-.3905,7.06839,44.1035,44.1035,0,0,0-.42932,7.15963,17.20531,17.20531,0,0,0,1.719,6.98438,17.01016,17.01016,0,0,0,6.02527,6.24759c-2.97632,3.19873-5.8139,6.44381-8.61774,9.78433,2.7887,3.72635,5.35932.35058,8.43872-2.279,3.07355-2.65882,6.64234-4.56543,11.07441,1.05749,3.55468,3.764,1.674,5.51682-1.29688,6.93918-2.96863,1.41544-7.05139,2.39447-7.80334,4.675,3.59845,1.22638,9.05481,2.46606,12.93548,4.83942a12.98556,12.98556,0,0,1,2.58624,2.02673,8.553,8.553,0,0,1,1.82013,2.54034c.8725,1.91532.992,4.30683.00849,7.40952C628.44916,331.54871,628.84143,328.67334,626.79919,326.59793Zm63.58252,75.29739c-2.46142-.05654-8.665.88395-6.38287-3.35577C691.82861,393.65167,689.89209,397.83667,690.38171,401.89532Zm73.82892,88.28284c-2.76471-.57483-1.95709-2.52795.44617-5.20172C765.62592,486.25256,765.77332,487.95193,764.21063,490.17816ZM746.42371,854.22754a2.10207,2.10207,0,0,0-.27637-.32489C750.497,851.65051,748.835,852.39691,746.42371,854.22754Zm-6.3703,5.83453a3.43786,3.43786,0,0,0,2.81518,1.728c-1.56994-1.32507-.9588-3.00256.39069-4.61994C741.15948,856.84161,739.44092,857.18378,740.05341,860.06207ZM723.77368,72.94163q-1.059.97326-2.16528,1.94C719.91681,72.615,721.71979,72.813,723.77368,72.94163Z" transform="translate(-197.23242 -5.07414)"/><path class="cls-1" d="M750.4939,479.79648a18.68989,18.68989,0,0,1,3.905-1.78778A3.80169,3.80169,0,0,0,750.4939,479.79648Z" transform="translate(-197.23242 -5.07414)"/><path class="cls-1" d="M601.67035,266.09c.04614-.12027.00171-.22168.032-.33884a5.82566,5.82566,0,0,0-1.4577-.063Z" transform="translate(-197.23242 -5.07414)"/><path class="cls-1" d="M722.31067,724.55457a8.68438,8.68438,0,0,1,4.75842-1.55481C725.27533,722.32489,723.52527,722.48669,722.31067,724.55457Z" transform="translate(-197.23242 -5.07414)"/><path class="cls-1" d="M734.01233,903.88782l.43085-5.49073c-.73688,2.39441-2.67267,2.42878-4.34235,2.99561C731.79376,902.10138,734.60309,902.39349,734.01233,903.88782Z" transform="translate(-197.23242 -5.07414)"/><path class="cls-1" d="M670.93921,920.62073c.50934,1.09131-.6264,1.40228-.106,2.49017l3.30005,1.54541C675.38245,921.81714,673.801,918.53992,670.93921,920.62073Z" transform="translate(-197.23242 -5.07414)"/><path class="cls-1" d="M708.60614,896.54846c-6.07776-2.57617-5.48206,1.22138-5.96692,4.9126a1.25821,1.25821,0,0,1,.27875-.5553C710.67169,905.97577,709.65594,901.24188,708.60614,896.54846Z" transform="translate(-197.23242 -5.07414)"/><path class="cls-1" d="M702.47528,902.29071a5.801,5.801,0,0,1-1.32117,2.97156C704.25623,907.29938,702.44891,904.439,702.47528,902.29071Z" transform="translate(-197.23242 -5.07414)"/><path class="cls-1" d="M739.82111,871.03918c-2.24854.81818,7.18933,4.51685,4.35717,4.25818C750.98645,880.53558,739.74274,860.78174,739.82111,871.03918Z" transform="translate(-197.23242 -5.07414)"/><polygon class="cls-1" points="490.679 884.315 498.516 886.836 493.512 882.168 490.679 884.315"/><path class="cls-1" d="M705.29321,867.358l-4.43,4.04279a2.963,2.963,0,0,1,1.84845,2.54022C704.45294,870.97693,707.51367,868.26678,705.29321,867.358Z" transform="translate(-197.23242 -5.07414)"/><path class="cls-1" d="M702.71167,873.941c-.91492,1.54126-1.49451,3.14636-.73022,4.62244A9.79577,9.79577,0,0,0,702.71167,873.941Z" transform="translate(-197.23242 -5.07414)"/><polygon class="cls-1" points="491.851 876.455 494.097 875.738 496.348 872.489 491.851 876.455"/><path class="cls-1" d="M731.11444,813.36737l.17981-6.50323c-2.34027-1.63135-4.55048-.76032-4.39117,1.74371C728.14667,810.69257,728.27863,813.19043,731.11444,813.36737Z" transform="translate(-197.23242 -5.07414)"/><path class="cls-1" d="M703.4668,821.36957c2.19421-.80591,3.90594-.18115,6.72693.04541l-9.17707-4.17529Z" transform="translate(-197.23242 -5.07414)"/><path class="cls-1" d="M708.14832,804.45734c-2.35016-1.64179-4.117-11.03644-6.40741-3.86365C704.0813,802.21344,703.90906,808.60968,708.14832,804.45734Z" transform="translate(-197.23242 -5.07414)"/><polygon class="cls-1" points="554.201 719.332 553.855 720.828 569.666 725.68 554.201 719.332"/><path class="cls-1" d="M733.16809,639.327c-5.23144,5.70324,9.67029,3.67,3.5376,8.57788,3.47906,2.39776,5.02673-4.02417,7.97876-1.72425C741.54254,641.3006,744.16071,639.70251,733.16809,639.327Z" transform="translate(-197.23242 -5.07414)"/><path class="cls-1" d="M744.68445,646.1806a18.15338,18.15338,0,0,0,1.993,2.58478A7.94457,7.94457,0,0,0,744.68445,646.1806Z" transform="translate(-197.23242 -5.07414)"/><polygon class="cls-1" points="289.072 3.449 284.466 0 287.439 5.559 289.072 3.449"/><path class="cls-1" d="M477.46521,20.7933,476.38074,10.256l-2.76535,9.53379C474.656,19.32207,476.67413,18.41432,477.46521,20.7933Z" transform="translate(-197.23242 -5.07414)"/><path class="cls-1" d="M685.73383,426.62552l1.90087-1.69074a4.75259,4.75259,0,0,0,1.00464-2.58612,2.43238,2.43238,0,0,0-.22314-.91494,2.686,2.686,0,0,0-.36786-.57731l-.53442-.71081C687.3833,422.699,686.43665,424.56464,685.73383,426.62552Z" transform="translate(-197.23242 -5.07414)"/><path class="cls-1" d="M642.70264,367.99091l.5946,1.15737q3.1105-3.79576,6.26727-7.531Z" transform="translate(-197.23242 -5.07414)"/><path class="cls-1" d="M599.84332,316.84171c.72864,2.74975,3.95862,4.94891,4.716,7.66433-2.0199-2.43542-.52723-5.72693.13555-7.65695C605.36108,314.90933,605.19,314.24179,599.84332,316.84171Z" transform="translate(-197.23242 -5.07414)"/></svg>