<svg id="Code" xmlns="http://www.w3.org/2000/svg" viewBox="0 0 1005.10146 822.34657"><defs><style>.cls-1{fill:#a0a0a5;}</style></defs><path class="cls-1" d="M699.63018,849.09973c-1.42523.46582,4.40833,5.62055,5.25165,6.74835C705.24761,853.0498,698.16705,847.71625,699.63018,849.09973Z" transform="translate(-15.83048 -114.33569)"/><polygon class="cls-1" points="686.944 706.694 688.91 709.213 685.717 701.418 686.944 706.694"/><path class="cls-1" d="M717.47106,806.538c-10.7362-7.97674-3.77844,6.7981-9.70233,6.07453l-2.57269-1.71564,6.3656,8.71173C713.52782,815.25452,712.631,806.14874,717.47106,806.538Z" transform="translate(-15.83048 -114.33569)"/><path class="cls-1" d="M745.47814,818.98175c-4.11206-3.15137-1.44006-4.80627-2.947.68225a13.7363,13.7363,0,0,1,1.25006.59271A4.29989,4.29989,0,0,1,745.47814,818.98175Z" transform="translate(-15.83048 -114.33569)"/><path class="cls-1" d="M743.78124,820.25671c-1.275,1.7992,4.058,2.04682,0,0Z" transform="translate(-15.83048 -114.33569)"/><path class="cls-1" d="M748.79644,811.07635l1.226,5.27472c2.56958,1.72394,4.85779.40827,5.75989,2.649C756.07409,815.13812,753.50921,813.4278,748.79644,811.07635Z" transform="translate(-15.83048 -114.33569)"/><path class="cls-1" d="M743.89025,802.33112l.32434,2.42273C745.30022,805.47162,745.89751,805.514,743.89025,802.33112Z" transform="translate(-15.83048 -114.33569)"/><path class="cls-1" d="M744.89153,809.88031l-.67694-5.12646c-1.79785-1.21131-4.86548-4.21705.02454,2.06726C741.65313,803.871,743.879,806.97675,744.89153,809.88031Z" transform="translate(-15.83048 -114.33569)"/><path class="cls-1" d="M742.21117,809.7193c-3.17376-.90228-5.9212-.71576-7.12378-5.98236C732.49993,808.89575,739.64343,814.89777,742.21117,809.7193Z" transform="translate(-15.83048 -114.33569)"/><path class="cls-1" d="M708.54,796.11658l-4.26654-1.23023,1.83215,4.45886C705.20593,797.13342,711.56207,798.95032,708.54,796.11658Z" transform="translate(-15.83048 -114.33569)"/><path class="cls-1" d="M766.25219,803.30865c-1.86707-2.11981-5.98608-4.62463-8.69025-7.02667l.7956,3.78638C760.48913,800.66284,763.20287,800.46283,766.25219,803.30865Z" transform="translate(-15.83048 -114.33569)"/><path class="cls-1" d="M757.56194,796.282l-1.17669-5.65155C753.98962,792.23181,755.24682,794.21967,757.56194,796.282Z" transform="translate(-15.83048 -114.33569)"/><polygon class="cls-1" points="718.034 677.248 721.536 688.1 718.64 676.437 718.034 677.248"/><polygon class="cls-1" points="759.216 680.677 762.553 686.551 757.849 677.328 759.216 680.677"/><path class="cls-1" d="M779.90844,788.53839c2.87927,4.75641,7.74426,5.17059,9.10059,8.51148.85809-2.22113-1.10382-6.81232-2.87018-10.94635C786.52593,789.0061,784.766,789.92725,779.90844,788.53839Z" transform="translate(-15.83048 -114.33569)"/><path class="cls-1" d="M783.83825,779.82745a37.70724,37.70724,0,0,0,2.3006,6.27607A19.17632,19.17632,0,0,0,783.83825,779.82745Z" transform="translate(-15.83048 -114.33569)"/><path class="cls-1" d="M761.182,787.80481c1.379,1.03259,4.85748,3.845,7.44366,3.922l-6.48-4.72052C761.85186,787.24976,761.51934,787.52527,761.182,787.80481Z" transform="translate(-15.83048 -114.33569)"/><path class="cls-1" d="M761.939,786.86163l.2066.14466c1.08344-.82654,1.87036-1.36444,2.21833-1.584C764.07153,785.6178,763.33666,786.0459,761.939,786.86163Z" transform="translate(-15.83048 -114.33569)"/><path class="cls-1" d="M760.93786,788.00439a1.821,1.821,0,0,0,.24414-.19958C760.54028,787.33246,760.31347,787.20807,760.93786,788.00439Z" transform="translate(-15.83048 -114.33569)"/><path class="cls-1" d="M744.79534,790.78381c-1.81769-4.447-2.431-10.54138-9.86291-12.66919C737.82562,782.8938,742.06066,784.09259,744.79534,790.78381Z" transform="translate(-15.83048 -114.33569)"/><path class="cls-1" d="M752.84374,782.09583l-3.65692,1.096c1.52515,1.43164,4.11359,3.163,5.01434,5.36579Z" transform="translate(-15.83048 -114.33569)"/><polygon class="cls-1" points="736.394 664.814 737.013 667.76 738.365 667.35 736.394 664.814"/><path class="cls-1" d="M774.52355,778.6546c-1.41528-3.46808-.494-4.793.38135-6.45471a9.17026,9.17026,0,0,0-5.77631,2.42371C770.69646,776.56818,773.26849,780.31329,774.52355,778.6546Z" transform="translate(-15.83048 -114.33569)"/><path class="cls-1" d="M767.91595,782.15082c-.06031-.20185-.02692-.35053-.09162-.548C767.20434,781.26349,766.94762,781.23181,767.91595,782.15082Z" transform="translate(-15.83048 -114.33569)"/><path class="cls-1" d="M787.43072,759.75006c-.41864-.28082-.79041-.53021-1.21741-.81671.30774.33893.56854.62622.9231,1.01666Z" transform="translate(-15.83048 -114.33569)"/><path class="cls-1" d="M767.85326,773.80463c-2.10589-.06189-1.34423,1.92083-.21075,4.21856a6.428,6.428,0,0,1,1.48608-3.39959C768.41247,773.73816,767.90405,773.19812,767.85326,773.80463Z" transform="translate(-15.83048 -114.33569)"/><path class="cls-1" d="M784.70214,773.72369a26.63074,26.63074,0,0,0-4.84833-1.3089C782.1433,773.66394,785.9699,775.36816,784.70214,773.72369Z" transform="translate(-15.83048 -114.33569)"/><path class="cls-1" d="M769.72057,782.81018a2.63639,2.63639,0,0,1,.09735.40326C771.343,784.06848,770.72192,783.53094,769.72057,782.81018Z" transform="translate(-15.83048 -114.33569)"/><path class="cls-1" d="M769.72057,782.81018a24.60929,24.60929,0,0,0-2.07806-4.787,8.92073,8.92073,0,0,0,.18182,3.57965A17.73349,17.73349,0,0,1,769.72057,782.81018Z" transform="translate(-15.83048 -114.33569)"/><path class="cls-1" d="M755.26257,720.0152c5.01257,5.37274,7.12524,12.859-.76123,9.61047,1.60894,6.17352,20.17456,21.7547,31.712,29.30768-2.19134-2.33289-4.28436-4.426-5.00391-9.84271-3.65057-2.006-11.84155-1.41931-14.55731-8.098.44245-5.7793,4.3891-.70893,8.64075.51782-7.74561-5.1745-5.44977-13.36542-15.63715-22.19776l.61945,6.0752C758.74291,723.95819,757.373,720.60992,755.26257,720.0152Z" transform="translate(-15.83048 -114.33569)"/><path class="cls-1" d="M781.21032,762.88l-.32288,1.60993c2.00336-.19995,4.86945,1.08862,10.38807,3.70367a17.182,17.182,0,0,0-4.1391-8.24359l-5.48206,4.03516Z" transform="translate(-15.83048 -114.33569)"/><path class="cls-1" d="M776.57079,768.85114c-4.89282-6.4021-4.97827-11.12922-12.5111-15.81916-2.44275,3.22913,2.73242,6.70667,3.48876,10.852,3.17157-5.98157,1.83082,4.46015,8.33686,4.35254a7.11718,7.11718,0,0,1-.98041,3.96338,19.29335,19.29335,0,0,1,4.94891.2149l-.45617-.24633-.01233.0307-.069-.07782c-.90753-.51319-1.40515-.88062-.779-.6994-.04908-.07941-.01575-.15729-.0199-.21076-.74359-.80554-1.347-1.57831-1.91522-2.32855,2.49054-.16028,1.66467,1.2475,1.91522,2.32855.27313.30347.49927.60163.79889.91016l.0813.04712,1.4898-7.67853C779.12957,764.67242,778.0747,766.04712,776.57079,768.85114Z" transform="translate(-15.83048 -114.33569)"/><path class="cls-1" d="M725.23492,763.52643a6.7738,6.7738,0,0,1,1.45465,1.16138C726.29528,763.70068,725.93731,763.11768,725.23492,763.52643Z" transform="translate(-15.83048 -114.33569)"/><path class="cls-1" d="M730.52856,765.048c.45,1.1175,2.4281,3.65052.76947,4.15845-2.63318-.75348-2.6994-2.70819-4.60846-4.51867.84778,2.15356,1.76568,6.33654,6.56573,7.041l-.44769-1.09613c3.78528.09412,13.20251,4.76862,13.65741,5.8681A130.62818,130.62818,0,0,0,730.52856,765.048Z" transform="translate(-15.83048 -114.33569)"/><path class="cls-1" d="M752.23974,765.37616l1.0495-6.58557-6.83014-2.94184,3.03308,2.83588C746.16912,759.70367,750.25011,762.84674,752.23974,765.37616Z" transform="translate(-15.83048 -114.33569)"/><polygon class="cls-1" points="774.847 647.788 780.308 654.261 774.082 643.625 774.847 647.788"/><polygon class="cls-1" points="779.097 642.116 784.091 647.477 782.277 643.044 779.097 642.116"/><path class="cls-1" d="M903.99267,474.398l-2.59107.34735A6.12038,6.12038,0,0,0,903.99267,474.398Z" transform="translate(-15.83048 -114.33569)"/><path class="cls-1" d="M908.38433,479.49475l2.9165-2.19751A11.08453,11.08453,0,0,0,908.38433,479.49475Z" transform="translate(-15.83048 -114.33569)"/><path class="cls-1" d="M916.18,634.02307c6.47784,3.21021,15.81561,8.89734,9.78228,3.25836l-6.18469-5.181C919.65447,634.26025,918.14867,634.50519,916.18,634.02307Z" transform="translate(-15.83048 -114.33569)"/><path class="cls-1" d="M964.91821,517.38446c-1.0282-.09076-2.09992-.18536-3.16254-.27911,2.67114,1.2135,5.0965,2.38971,7.35846,3.50647C967.81353,519.58484,966.43121,518.49005,964.91821,517.38446Z" transform="translate(-15.83048 -114.33569)"/><path class="cls-1" d="M928.4085,506.84045q3.48294.18668,7.12232.21708C933.14892,506.88113,930.76324,506.80807,928.4085,506.84045Z" transform="translate(-15.83048 -114.33569)"/><path class="cls-1" d="M853.608,436.07617l-7.09405,4.47611C848.58666,442.57516,850.60412,438.75516,853.608,436.07617Z" transform="translate(-15.83048 -114.33569)"/><path class="cls-1" d="M843.63848,703.5423c3.63422.814,5.69055.62658,6.95178-.08411C845.62786,701.89362,839.35857,698.36481,843.63848,703.5423Z" transform="translate(-15.83048 -114.33569)"/><path class="cls-1" d="M967.81738,417.54114a7.53673,7.53673,0,0,0-1.49518.09762,4.15279,4.15279,0,0,0-1.17694.50846,9.204,9.204,0,0,0-2.03174,1.60226,9.46358,9.46358,0,0,0,1.22546-.27954,5.90878,5.90878,0,0,0,1.32489-.30475A4.51305,4.51305,0,0,0,967.81738,417.54114Z" transform="translate(-15.83048 -114.33569)"/><path class="cls-1" d="M854.64281,699.36627c-.82116-.32434-1.34948-.36481-2.082-.59167-.078,1.9837-.34979,3.78625-1.97052,4.68359C854.26684,704.62561,857.21069,704.69617,854.64281,699.36627Z" transform="translate(-15.83048 -114.33569)"/><path class="cls-1" d="M697.464,270.50632a7.67179,7.67179,0,0,1,.31745-1.0456C696.97155,270.19992,697.09533,270.39972,697.464,270.50632Z" transform="translate(-15.83048 -114.33569)"/><path class="cls-1" d="M707.96984,166.27554a5.52215,5.52215,0,0,1,2.3656,1.48226C710.38293,167.01889,709.7647,166.47668,707.96984,166.27554Z" transform="translate(-15.83048 -114.33569)"/><path class="cls-1" d="M817.36864,738.9707c-.68145,1.42328.457.79071,0,0Z" transform="translate(-15.83048 -114.33569)"/><path class="cls-1" d="M789.76019,721.59619a12.1239,12.1239,0,0,0-2.34382-3.18439A15.71362,15.71362,0,0,1,789.76019,721.59619Z" transform="translate(-15.83048 -114.33569)"/><path class="cls-1" d="M829.73138,653.494c.031-.031.07788-.03333.11328-.06873C828.41778,652.624,828.68646,652.78528,829.73138,653.494Z" transform="translate(-15.83048 -114.33569)"/><path class="cls-1" d="M813.19952,737.96814a8.53756,8.53756,0,0,0,3.03241.34113A9.12823,9.12823,0,0,0,813.19952,737.96814Z" transform="translate(-15.83048 -114.33569)"/><path class="cls-1" d="M816.10064,740.44318a13.11018,13.11018,0,0,0-1.47009.3692C815.44146,741.88873,816.158,742.37012,816.10064,740.44318Z" transform="translate(-15.83048 -114.33569)"/><path class="cls-1" d="M818.52374,737.1944a3.185,3.185,0,0,1-2.29181,1.11487,1.97488,1.97488,0,0,1,1.13671.66143A15.27269,15.27269,0,0,1,818.52374,737.1944Z" transform="translate(-15.83048 -114.33569)"/><path class="cls-1" d="M798.87341,341.47272a8.08444,8.08444,0,0,1,.30517-.75644C795.75958,342.01288,796.59893,342.10516,798.87341,341.47272Z" transform="translate(-15.83048 -114.33569)"/><path class="cls-1" d="M884.51843,547.5929c.00836.10693.13317.28356.146.3861.11353.015.25537.033.36646.05555Z" transform="translate(-15.83048 -114.33569)"/><path class="cls-1" d="M884.06805,539.58453c5.46551,8.6839,3.68005,8.72882.96283,8.45l17.63946,15.1391Z" transform="translate(-15.83048 -114.33569)"/><path class="cls-1" d="M882.90911,456.591l-2.46271,7.77057c-11.61206,5.20575-11.0307-.011-15.71612,9.65741,18.17883-17.428,12.12939,8.50162,30.29272-8.92352l-1.99493,5.49393c-.33081-.6716-1.45435.29138-1.78082-.3732-5.11805,11.92257,15.39386-10.33881,17.25341-3.43073.16462,2.89066-1.34845,6.53619-4.508,7.61255l3.90326-.49908,1.95166-.24955a1.97366,1.97366,0,0,0,.82361-.277l.754-.34659c.11585.81311-3.19818,3.67993-3.23785,2.95614q1.78207.36137,3.71.86859l-.59656.44672a70.49868,70.49868,0,0,1,6.1941-3.45627c2.21338-1.1015,4.3703-2.02261,5.699-2.53009-2.25061,2.86865-2.60431,1.17029-4.98639,3.21021q3.2699-1.03679,6.78473-1.82868a28.95582,28.95582,0,0,1-7.79681,4.59607c-2.30847.91532-3.89911,1.227-3.94837.51593-4.8753,4.01-7.0578,5.71134-7.6054,6.31589-.55567.59653.5017.07434,1.91082-.558a12.32574,12.32574,0,0,1,3.92517-1.31516c.74213.04666.51349.93042-2.43847,3.16849q-1.93341.31956-3.74585.76c-6.17511,3.91663-8.165,5.14362-9.51795,6.05835a33.61292,33.61292,0,0,1-6.45227,3.42886,144.71119,144.71119,0,0,0,13.024-6.40847c5.32709-2.88916,10.58276-6.13681,14.24237-6.91227-1.40015,1.28131-1.95123,2.00418,3.88049.67472-8.96661,3.69918-6.2127,3.33639-4.87994,3.94571l-12.57141,4.20712c2.04-.382,4.72211-1.04529,7.66229-1.7879,2.94519-.73764,6.13819-1.565,9.34632-2.12882-.20966,1.44174-10.52442,4.10993-19.35022,6.22775-.79175.53983,3.45459-.41958,8.17425-1.6347,4.73712-1.19766,9.88117-2.71747,12.15418-2.029-4.08295,2.33645,2.2276,1.79245,13.55035,3.08111a21.7863,21.7863,0,0,1-7.01526.89139,51.70145,51.70145,0,0,0-6.82257.335q6.60424-.08637,13.47949.09815c-.06665.261-4.07593.354-6.08911.41415,2.84772.25272,6.92481.13782,10.97431.07688,4.05828-.05216,8.10168-.03757,11.19317.78527,5.62573.04407,5.81976.49195,3.87036,1.03711-3.51819.63718-10.062,1.31107-13.95373,1.882-3.92243.60159-5.20569,1.11313.92114,2.30167a50.75411,50.75411,0,0,1-7.25183-.487c-2.49231-.29306-5.17963-.60709-8.25275-.78165,2.72632.71668,4.47125,1.3187,5.85456,1.80869l3.529,1.292,4.24969,1.46289c1.83527.63238,4.24817,1.458,7.54987,2.788q-5.806.30273-11.26135.2548a61.995,61.995,0,0,1,16.5885,3.39843,50.412,50.412,0,0,1,12.79889,6.9285c5.61.47125,10.67053.7345,13.26129.68366a53.97005,53.97005,0,0,1,2.19775,6.801c-2.726-.02637-6.57623-1.94281-11.26312-4.25726.76776.61627,1.52582,1.2265,2.26874,1.7575-6.37238.1706-12.69281-3.184-19.01709-6.228,2.97369.33429,6.16381.66974,9.38989.964a120.18443,120.18443,0,0,0-23.3869-7.908,5.67862,5.67862,0,0,1,2.70031,1.837,33.83623,33.83623,0,0,0-5.25451-1.66287c-1.48035-.2785,1.20215.74277,4.07281,2.15521q-7.59686-1.75044-15.01605-3.67859l5.57739,1.84592a99.31384,99.31384,0,0,1-11.40442-.28629c5.82575,3.578,12.70874,8.326,17.78217,13.49573,5.1001,5.143,8.3175,10.78083,7.44049,15.50971a48.15649,48.15649,0,0,0-9.98-8.38275c-3.54083-2.37232-7.35809-4.785-12.04028-8.22345,5.51086,3.08679,5.37115,1.40277,4.06579-.8299-1.26019-2.27777-3.77411-5.01617-1.74731-5.30249-2.15.33875-6.9082-2.6593-8.47846-3.75745a49.60138,49.60138,0,0,1,6.756,8.87177c-7.83857-5.45374-6.57508-3.38306-10.399-5.05579a56.02252,56.02252,0,0,1,7.777,6.15845,6.18478,6.18478,0,0,1,2.06128,3.59961c.16772,1.92792-1.18561,3.1004.02777,5.9093a48.7103,48.7103,0,0,1-5.69391-6.25073c-1.27844-1.80835-1.73163-3.07343-.39575-3.33722-6.09925-3.788-2.30255.1217.90857,4.989,3.0191,5.05915,6.2315,10.29694.47082,7.6579.60187-.80633,1.65344-.51318-.31488-3.03772,2.27875,5.56665-4.85046,6.47565-7.73456,1.7005l.61176-.7926c-6.231,3.11432-14.32233,14.12573-3.86872,25.97357-1.49633-1.40277-12.82659-14.05151-14.79705-16.587l29.16735,45.84179c-8.83959-10.30847-34.45336-30.2832-35.999-39.57892-2.47546-.25067-5.44574-.46777-4.40588,5.26307,2.12207.60394,15.73437,11.951,15.57666,13.86761-13.50464-7.81122-7.68152-3.72876-20.27448-9.30353,3.18225.90686,16.93781,17.19062,14.65668,18.50452-1.96185-2.52307-14.96106-14.6615-15.86859-16.88367l10.263,19.21271c-1.53583-3.76953-12.29425-12.68866-17.471-15.86316,3.35706,2.428-4.13086,3.60657-3.86481,6.25793l5.32007,1.52662c-7.28576,2.81921,15.73163,25.7127,9.945,29.95019-2.43256-3.64606-17.23932-20.23645-21.63757-19.53668,6.37719,8.7132,31.13146,41.47662,32.511,51.72491l-5.16662-3.46514,1.51519,8.3197c-9.24054-13.47766-27.19665-43.32495-33.24872-55.87061-5.30719-1.5263-5.62347-4.57049-8.05523-1.33917-5.04706-3.0473-4.59027-7.67712-3.99707-8.75l-9.20288,3.98138c9.10846,8.522,3.79632,13.8786,11.38867,20.96784l-1.97662-16.296c9.08959,8.50934,20.86669,29.14642,14.65075,32.272-4.702-2.32556-14.79681-16.57416-17.8352-19.41785,2.42407,3.6363,1.36242,10.2287-1.21741,8.50714l-2.73157-6.69445c-5.91211-.71167,7.43543,15.92242-4.09826,10.6383-1.64447.51209-14.56366-8.12317-9.54041-2.727,11.81531,8.29743,43.25745,39.05188,49.6394,47.77869-1.05944-.30359-15.27508-3.949-21.47485-7.68634-9.66333-6.11127-16.123-21.4549-24.40552-26.71375a29.63988,29.63988,0,0,1,4.88056,7.79047c-3.19031-.925-6.98975-7.92767-8.3631-4.37872,8.51318,9.33484-5.75806,4.25348,6.38818,8.71539.14563,4.96051-4.40777.70917-6.83252,3.93866,6.66938,4.86932,17.0987,22.17523,17.24646,27.14673a41.46053,41.46053,0,0,0-7.24627-5.92279c-5.741,4.1289-12.44751,2.72009-17.12671,7.24469-2.58661-1.73847-7.42426-2.13538-10.32538-6.92761.92279,2.24627,3.34491,5.88446,2.13635,7.515-10.46765-4.974,1.968-4.36121-9.41821-11.55951,5.01117,5.3689,3.50348,10.84522,4.71942,16.1037,8.64423,7.40033,6.21338-3.12817,4.99664-8.39374,11.06452,11.04553,19.12348,26.153,19.4303,36.07947-1.07416,6.57092-8.80267-5.48828-7.8988-3.25714-9.10919,5.25073,13.19372,25.42749-.75122,23.40655-9.405-4.67364-14.11206-13.89843-19.72449-18.46167.44568-5.78247,9.25391-.30761,11.07983-2.70239l-5.93249-.7359c-1.35822-3.339-1.04877-7.18713,2.11529-6.28827-8.30511-4.33972-13.33587,10.92432-24.72229,10.61743,1.3711,3.3393,2.127,7.493,5.76184,9.52l.77094-2.73431c7.29,4.06787,4.55988,11.1571,9.431,11.59131,1.6449,6.34729,5.28711,15.26074-1.23517,15.35839l-8.656-7.41217c2.41943,2.27784,6.94329,2.61634,5.42932-.7583,2.18774,4.94721-15.95465-5.80414-6.94226,6.23194l7.88769,3.24725c1.67737,6.39868,7.29267,17.85022,1.822,18.24615,9.27063,6.601-.232-1.58453,11.13819,5.6167-13.36139-9.74737,7.99041-7.01794-7.04621-16.24865,12.90949,8.63183,8.26148.85778,20.25421,7.25824-2.73925-2.5661-6.069-4.08826-2.29467-5.23871a27.52194,27.52194,0,0,1-1.79511-2.87592,1.71967,1.71967,0,0,1,.36408.03168c-.15412-.05554-.30609-.13422-.4491-.17737-.29291-.50653-.36993-.60254-.1554-.05426a18.18458,18.18458,0,0,1-5.28735-2.7782c-4.86285-7.30755-.758-11.03491-2.58594-15.511,2.72473-.19788,2.4347,3.657,6.058,5.68505L808.045,718.4411c6.07666,5.68482,13.66314,5.89911,13.67059,12.79077l3.36035-2.83612c5.12293,1.47473,8.94794.28144,8.01813-3.74286,2.73126-.19128-2.8266-10.2088.51123-4.32513l1.21167-8.50659,1.51013,1.42041c5.53973-4.04828.11957-19.619,16.23364-14.467.12934-3.09912-.02057-6.5849,4.34662-7.61786l5.62085,4.56787c.30249-3.84113,11.32-1.126,6.90521-7.322,15.94062,11.4696,13.04975-7.06549,19.12262-8.28125l-6.51092-6.78656c2.87945-2.13764,3.39374-6.43439,3.846-12.21033l-6.063-5.68c-2.13684-7.50665,11.08075-2.72425,14.7232-7.57508,1.95752,2.53522.29468,3.02637-1.83056,2.42554,18.35516,8.20844,1.05676-20.35162,15.32769-15.28314-.99762-3.29065.56549-3.38855,2.83863-2.72327a.68469.68469,0,0,0,.02887.59766,1.31771,1.31771,0,0,0,.54815-.39356c1.51679.50422,3.21253,1.15711,4.716,1.53046a19.61505,19.61505,0,0,0-4.48542-1.80554c.76233-1.0061,1.37744-3.07343,1.21375-5.86639l6.86926,5.74932c.02423-.18939.12592-.25964.12842-.47967,3.61633,1.03638-1.951-4.02539-7.39166-8.08936a21.94757,21.94757,0,0,0-2.062-5.53955c11.23536,9.13953.0152-6.88281,12.30921,2.55054-4.4101-6.18231,2.62494-10.59345-7.832-22.45105,1.5036,1.41382,2.58307,1.71838,1.96893,2.52386,2.73309-.1983,5.46747-.39276,3.63666-4.8529l8.64679,7.403L921.59557,589.179c6.83405,2.94573,10.48389,4.98394,14.72669,13.08715-4.846-14.16845.2041-7.3601-5.24195-20.73443l4.99268,5.37951c1.21912-1.61493-3.475-10.83953,1.67047-7.40307,6.51862,3.34894,10.7804-.23133,15.57666-4.51868,1.199-1.0719,2.43152-2.18793,3.741-3.251.65472-.53149,1.32874-1.04974,2.02747-1.5426q.524-.3696,1.06726-.71869c.47937-.34918.99133-.71624,1.49841-1.06146a38.57121,38.57121,0,0,1,14.45355-6.19208c-4.98535-2.65551-6.59472-4.0119-6.49682-4.63043.10522-.62579,1.96283-.55884,4.083-.53924,4.21106.06842,9.59961-.17994,2.52869-4.94776,5.0882,2.13068,9.48114,1.82684,11.282,6.29071a8.37055,8.37055,0,0,1,3.47119-4.9751c1.58673-1.15423,3.44641-1.98181,4.99366-2.9,3.06683-1.80865,4.9837-4.07941.11444-9.197a12.62738,12.62738,0,0,1,5.71521,2.83459c1.24261,1.03333,2.18878,1.994,4.05468,2.2815-.52771-1.03974-2.31555-3.9754,1.5022-3.46552,3.81012.48871,3.35541,2.697,4.43634,4.76422,3.27918-3.88733.98529-7.465-4.18719-10.62378-5.15967-3.17157-13.08533-6.03686-20.79547-8.77368,10.31561-.42828,11.10992-2.604,2.00195-7.2182,6.39941.442,14.085-.09546,12.34143,4.10681,1.42883-.92681,6.70117-3.694,9.99231-6.6997,3.28632-3.00092,4.39178-6.04084-3.00031-7.02622,4.42188-.165,3.9455-2.70306,2.67139-3.36865,5.36462-4.35284,7.26343-4.74179,10.11542-9.18753l-3.87207,1.14606c-10.77619-1.32486-9.14533-2.18552-5.7262-3.55857.48181-.8901,1.3078-2.00964-.97284-3.314l2.09668.04169c1.629-2.02042,1.69947-3.339,1.16083-4.16874a5.2787,5.2787,0,0,0-2.84644-1.58767c-1.11383-.37107-2.15179-.73041-2.441-1.56754-.29914-.847.18188-2.14044,1.86157-4.6239l-10.79328,1.7886c-12.44671,1.075-10.24084-.70605-7.05053-3.59048,1.6026-1.43475,3.44488-3.15176,4.0227-4.72763.58582-1.56784-.088-2.98972-3.29773-3.61426q-2.08932,1.50439-4.26733,2.92008c-4.92536-.29886,1.03509-3.533,7.62658-7.71579,3.314-2.07315,6.81659-4.35254,9.42408-6.39185,2.61145-2.03528,4.33331-3.82486,4.19543-4.80878,1.08295-1.27356,3.88336.1193,6.17114.67966.94269-3.05072.4762-4.48563-.74786-4.85608-1.2337-.38006-3.26379.2655-5.68445,1.13934-4.82709,1.76209-11.30908,4.34495-15.404,2.16614,2.67609-1.76819,7.04108-3.05392,10.43781-4.40326,3.39044-1.35565,5.75927-2.82821,4.19336-5.21981,1.44219-2.14756-6.77649-3.15394-14.03534-4.43311-3.65107-.66122-7.09357-1.422-9.28052-2.73984-2.19251-1.32327-3.14191-3.216-1.96-6.29419-2.85443,3.99222-6.034,7.641-11.543,7.27744-1.29389-.68115-1.60376-2.3013-1.67053-4.34082-.06256-2.03528.11309-4.49478-.09363-6.73856-.38361-4.45764-2.38666-8.14218-9.53058-4.49057a11.39975,11.39975,0,0,1,2.20862-3.17279c-4.79743.77008-11.168-1.92029-18.23279,2.71875,19.84967-23.57107-23.08105-1.95654-3.00861-21.93918l-7.266-5.12188,2.20636-1.88279c-2.638-5.28018-8.83746-1.88067-15.03522,1.53363.44782-2.27822,2.9914-3.48565,4.11048-4.45306-1.74439-9.82568-3.17407-9.54633-18.00733-4.4136L913.878,379.185c-5.09051,2.46124,1.82758-18.55512-11.42682-16.64832a12.03882,12.03882,0,0,1,3.54255-2.29492c-14.00873,1.24158,2.72522-33.29056-23.26667-11.977l-10.04217,1.61707c3.61651,7.28363-11.08283,9.45977-12.76105,15.62167-3.53119-.75531,1.59131-12.67346,5.44391-11.25864l-.77142,1.59558c13.29663-11.36132-2.40137-11.14318,6.145-19.3963-11.34571-10.10318-14.96082-27.39331-24.4809-37.96451L837.83056,309.224l-2.95624-4.05185c1.30713-3.14633,6.26892-8.73764,8.37152-5.84082,4.1192-6.74844-8.752.36734-10.89673,2.36929-1.01641-8.77261,13.08881-9.265,11.81446-10.99283l-2.74866-1.328-.6637,1.5827c-5.5683,2.26395-9.87085,6.27329-12.40509,2.79807.02417-3.82648,4.94092-6.89136,4.55695-8.004.699-.69021.75946-1.25625-.8634-1.43219l-3.59827-5.23129-5.80225,9.33276c-5.69073,1.77716-3.75409-4.54834-10.29236,6.06409,10.23389-16.21429-11.71942-21.21613-9.45721-27.15048-8.2569,2.77585-10.8598-.0315-13.545-4.04834-.74756,2.4136-8.75348,11.41687-10.60712,7.48987,18.61639-16.50287,2.32855-12.91391,12.63214-27.88952-6.29248,10.4677-10.2879-6.14636-18.91113,9.02858-.98462-3.83911,6.42871-6.722,8.73266-12.68542-12.5462,1.06586-8.22827-17.07227-17.621-21.87-2.42383,2.20262-4.75195,6.90724-9.70776,8.81911l7.77948-15.27166c-2.527-.2754-14.59406,12.01409-9.15442,1.45369-1.57819,2.30124-3.95715,5.75974-5.63623,5.55909-2.67169-25.12783-37.605-19.20133-30.61872-54.4195-2.56121,6.38506-4.2705,5.546-5.897,4.25243-.11621,2.01484-5.71087,5.66789-8.65417,8.9841l2.772-14.59108c-9.74805,7.594-6.92206-5.75034-15.83246,1.92637l3.36951.37343c-12.28058,7.30265-18.26715,25.2322-31.18695,37.42385,13.91247-8.33916-9.12372,23.8199,11.36981,12.4707-1.55682,3.57555-4.908,3.18634-7.27649,6.63437,6.5379-4.21962,9.05652-3.93955,9.24146,1.06325l-1.62745,1.04093c8.5987,5.97484,6.41748,14.40439,11.07154,26.12266l5.601-6.81321c.93329,2.58466-.64526,4.90392-1.38,7.28579,11.43549-7.398-4.40594-5.47538,7.81336-14.01623-10.2995,14.96651,12.21631,12.59374-.56458,28.52849,2.62647,2.78632,6.39423-7.98065,9.01545-5.19165l-3.1673,4.60205,5.68915-4.32138c.94842,2.59983-3.0177,8.35587-6.23706,11.70795-.03986-.821-2.14234-.3049-2.88813-.48187-2.27478,6.876,8.04554,4.92889,7.348,7.20651l-.207-4.99341c11.01971,3.751,14.93341,17.87186,29.97283,17.10263l2.38233-3.46564c10.86951.02808,1.14532,7.58307,9.63611,11.0568l-.91205.4772c4.11188-1.71771,7.18933-1.597,8.49078.37546-4.94439,1.92325-3.81958,9.50415-9.60571,11.32742,11.7287.08786,7.49524-1.65021,22.28607-8.63659l-3.97021,5.77026c5.73608-3.07648,8.16711-5.285,12.409-3.55164-6.61944,1.71866-5.4942,9.30793-13.75549,12.07935-4.36383,16.90222,20.038-1.4194,7.37311,16.99829,16.33111-10.57324,2.03985-12.89069,6.53552-14.16171,3.04315-5.74323,12.43286-7.6799,13.05042-4.36243,1.69494,2.31091-13.816,20.62692-8.51593,25.40277-.437-.56543-1.49476.424-1.92786-.14276-1.5445,5.31525,8.34039-.95187,5.07635,6.93744,9.43921-6.84656,2.54151,3.46414,13.28595-6.53323l-7.02514-2.21778c5.33673-.0971,19.93365-9.78061,18.35864.42679a31.19988,31.19988,0,0,1-8.8764,3.87067c-1.80072,4.32507,4.45245.4079,2.61792,4.85907-10.75556,10.00979-7.87183-3.36072-18.59485,1.7485-3.02954,5.7385,12.82617-2.2066.17425,7.62384,16.31854-12.2634,3.15015,6.7779,17.48853-.737l-6.44129,5.99128c1.51227-.43274,5.56806-2.2511,6.40564-1.1016l-9.863,6.26544c9.63879-4.11477-.7,11.34983,5.69915,10.24967-5.73608-5.35867,6.249-8.73923,8.44745-15.62863,15.16419-1.48059-12.33953,20.20837-1.691,24.88046-1.91662-.15775-.162-7.62467,4.34571-8.88886a20.65519,20.65519,0,0,1-2.66474,11.22257c6.37806,3.77249,5.627-7.18561,11.61432-8.8523-5.8526,9.3086,5.576-.59176,10.22412-.79031l-6.30792,6.33954c1.72675,9.83951,14.71283-11.64624,15.01135-1.53125l-10.96484,6.56332,4.98065.44855-7.75268,6.63269c8.28582-2.38,7.83319-.0882,8.7044,4.82755,3.77179-5.11676,11.84583-11.08991,14.60932-8.73011-2.00666,5.50055-6.98755,5.0308-2.45478,7.76014-4.7713,3.13174-10.63531,7.19955-6.40155-.19443-2.2221,1.89847-4.76641,3.14969-6.97784,5.02737-2.43164,6.19483,3.74927,5.70731,5.12811,6.95774a3.39947,3.39947,0,0,1,.04383-2.88672l14.03424-3.507c-1.54621,3.20343-4.11048,4.45306-6.63959,5.68017,1.76086.37162,5.40668-1.799,7.51147-.769-5.54071,4.72922-10.74878,10.13193-15.38989,10.33487l10.72034-.68988c-1.89832,2.56827-3.57312,8.72043-6.10877,9.9541-.24066,5.8013,16.79407-3.15347,16.49323,4.51947a6.7596,6.7596,0,0,1,4.04108-1.322c2.3056,4.62277-.93189,13.99863,10.21374,11.06568l-6.87866,11.53808c5.30755,1.12406,8.45422-14.762,17.2807-12.87921,6.73462.84732-6.44074,9.271-7.67316,13.16306,6.525-2.75422,19.25751-8.93125,15.23676,2.05456C884.20843,459.2533,884.66766,456.98645,882.90911,456.591Zm33.8031,25.64319c-1.06006.26236-3.10364.92911-4.25976,1.21927-1.16089.28537-1.44965.17877.84539-1.26013,4.85016-2.39359,6.29938-2.83365,6.21875-2.46964C919.44128,480.093,917.83965,481.26987,916.71221,482.23416Zm24.751,34.28812c-2.61914-1.54083-.546-1.55371,3.82739-1.14069C945.52758,516.18268,944.51818,516.73077,941.46325,516.52228ZM823.756,722.29242a3.51769,3.51769,0,0,0-.22845-.39276C827.70556,722.64954,826.11852,722.2785,823.756,722.29242Zm-6.308.81128a6.6621,6.6621,0,0,0,2.46405,2.82818c-1.3479-1.84472-.6637-2.75958.69727-3.21887C818.70251,721.31183,817.09692,720.62646,817.448,723.1037Zm12.74024-435.42236-.96131,2.34671C825.83825,290.28815,827.92767,289.07477,830.18823,287.68134Z" transform="translate(-15.83048 -114.33569)"/><path class="cls-1" d="M932.68151,508.01956c1.82825.30808,3.748.737,5.68726,1.1778A17.61608,17.61608,0,0,0,932.68151,508.01956Z" transform="translate(-15.83048 -114.33569)"/><path class="cls-1" d="M854.91814,435.25009c.01459-.09549-.04486-.11566-.04339-.19806a13.46117,13.46117,0,0,0-1.26679,1.02414Z" transform="translate(-15.83048 -114.33569)"/><path class="cls-1" d="M818.98138,614.35406a11.23407,11.23407,0,0,1,4.67669,1.85016C822.15527,614.62183,820.51025,613.643,818.98138,614.35406Z" transform="translate(-15.83048 -114.33569)"/><path class="cls-1" d="M809.33251,752.71588l.63556-3.92523c-.78967,1.41614-2.5661.42725-4.1308-.0238C807.3662,750.19464,809.93926,751.89679,809.33251,752.71588Z" transform="translate(-15.83048 -114.33569)"/><path class="cls-1" d="M750.41113,733.37781c.44409,1.11023-.62012.79309-.165,1.90552l3.02807,2.84606A3.17861,3.17861,0,0,0,750.41113,733.37781Z" transform="translate(-15.83048 -114.33569)"/><path class="cls-1" d="M786.21233,733.81775c-5.50317-5.14166-5.12481-1.90271-5.73639.68.07642-.11572.12287-.25128.28254-.28247C787.71746,742.116,786.96868,737.96307,786.21233,733.81775Z" transform="translate(-15.83048 -114.33569)"/><path class="cls-1" d="M780.28771,735.05029a2.24269,2.24269,0,0,1-1.34533,1.60755C781.73431,739.82391,780.16473,736.68311,780.28771,735.05029Z" transform="translate(-15.83048 -114.33569)"/><path class="cls-1" d="M816.46215,731.1485c-2.1228-.60852,6.32422,7.27478,3.73578,5.54339C826.11639,744.30164,817.05657,723.45056,816.46215,731.1485Z" transform="translate(-15.83048 -114.33569)"/><polygon class="cls-1" points="751.566 603.252 758.705 609.246 754.305 603.056 751.566 603.252"/><path class="cls-1" d="M784.83361,709.80194l-4.37915.72516a4.39035,4.39035,0,0,1,1.54944,2.91717C783.80706,712.10242,786.82946,711.67767,784.83361,709.80194Z" transform="translate(-15.83048 -114.33569)"/><path class="cls-1" d="M782.0039,713.44427a2.39983,2.39983,0,0,0-.95715,3.15113A4.62662,4.62662,0,0,0,782.0039,713.44427Z" transform="translate(-15.83048 -114.33569)"/><polygon class="cls-1" points="753.083 597.792 755.208 598.407 757.487 597.082 753.083 597.792"/><path class="cls-1" d="M813.52337,683.62067l.90991-4.66089c-1.96521-2.53278-4.10309-3.15247-4.24768-1.22278C811.0902,679.97522,810.92706,681.87885,813.52337,683.62067Z" transform="translate(-15.83048 -114.33569)"/><path class="cls-1" d="M787.12054,674.06543c2.11645.60968,3.63488,2.027,6.21954,3.76215l-8.05164-8.221Z" transform="translate(-15.83048 -114.33569)"/><path class="cls-1" d="M793.34576,664.04474c-1.98206-2.537-2.4372-10.52222-5.45923-6.48316C789.84124,660.08136,788.9295,664.74927,793.34576,664.04474Z" transform="translate(-15.83048 -114.33569)"/><polygon class="cls-1" points="829.781 518.035 829.179 518.85 842.627 532.094 829.781 518.035"/><path class="cls-1" d="M850.66338,563.44006c-6.49707.10389,7.45874,9.02619.48011,8.0127,2.38366,3.93347,5.70117.82568,7.63281,4.34619C857.43426,570.4726,860.35577,571.30206,850.66338,563.44006Z" transform="translate(-15.83048 -114.33569)"/><path class="cls-1" d="M858.7763,575.799a21.35211,21.35211,0,0,0,1.00268,3.03662A9.77937,9.77937,0,0,0,858.7763,575.799Z" transform="translate(-15.83048 -114.33569)"/><polygon class="cls-1" points="691.54 36.987 692.201 32.08 689.085 37.937 691.54 36.987"/><path class="cls-1" d="M693.39306,157.15091l8.00464-9.00453-8.96942,6.41981C693.28539,154.66846,694.94842,154.86618,693.39306,157.15091Z" transform="translate(-15.83048 -114.33569)"/><path class="cls-1" d="M894.19836,493.98508l3.0188-1.07819c3.19915-1.22812,3.33526-1.41443,3.65411-1.79806Q897.61318,492.62526,894.19836,493.98508Z" transform="translate(-15.83048 -114.33569)"/><polygon class="cls-1" points="877.162 365.714 877.482 366.386 884.248 357.768 877.162 365.714"/><path class="cls-1" d="M859.02258,465.70047c.6596,1.31235,3.537.75327,4.19451,2.07657C859.68218,467.01282,868.339,455.85052,859.02258,465.70047Z" transform="translate(-15.83048 -114.33569)"/><path class="cls-1" d="M337.13237,160.65849c1.4252-.46583-4.40829-5.62054-5.25168-6.74833C331.51494,156.7084,338.59551,162.042,337.13237,160.65849Z" transform="translate(-15.83048 -114.33569)"/><polygon class="cls-1" points="318.158 74.392 316.191 71.874 319.385 79.668 318.158 74.392"/><path class="cls-1" d="M319.29146,203.22023c10.7362,7.97675,3.77844-6.7981,9.70236-6.07457l2.57269,1.71564-6.3656-8.71173C323.2347,194.50374,324.13155,203.6095,319.29146,203.22023Z" transform="translate(-15.83048 -114.33569)"/><path class="cls-1" d="M291.28438,190.77644c4.11206,3.15137,1.44006,4.80632,2.947-.6822a13.7514,13.7514,0,0,1-1.25-.59271A4.30017,4.30017,0,0,1,291.28438,190.77644Z" transform="translate(-15.83048 -114.33569)"/><path class="cls-1" d="M292.98131,189.50153c1.275-1.79924-4.058-2.04685,0,0Z" transform="translate(-15.83048 -114.33569)"/><path class="cls-1" d="M287.96608,198.68188l-1.22589-5.27473c-2.56964-1.724-4.85782-.40826-5.75992-2.649C280.68846,194.62007,283.25331,196.33043,287.96608,198.68188Z" transform="translate(-15.83048 -114.33569)"/><path class="cls-1" d="M292.87227,207.42708l-.32434-2.42272C291.4623,204.28659,290.865,204.24426,292.87227,207.42708Z" transform="translate(-15.83048 -114.33569)"/><path class="cls-1" d="M291.871,199.87788l.67694,5.12648c1.79785,1.21134,4.86551,4.21706-.02451-2.06724C295.10942,205.88718,292.88353,202.78148,291.871,199.87788Z" transform="translate(-15.83048 -114.33569)"/><path class="cls-1" d="M294.55135,200.039c3.17379.90222,5.92123.71574,7.12381,5.98234C304.26259,200.86246,297.11913,194.86044,294.55135,200.039Z" transform="translate(-15.83048 -114.33569)"/><path class="cls-1" d="M328.22255,213.64168l4.26651,1.23021L330.657,210.413C331.55663,212.62479,325.20046,210.80794,328.22255,213.64168Z" transform="translate(-15.83048 -114.33569)"/><path class="cls-1" d="M270.51036,206.44954c1.867,2.11986,5.98609,4.62466,8.69022,7.02669l-.79557-3.78636C276.27342,209.09538,273.55968,209.29535,270.51036,206.44954Z" transform="translate(-15.83048 -114.33569)"/><path class="cls-1" d="M279.20058,213.47623l1.17672,5.65158C282.77293,217.52641,281.5157,215.53856,279.20058,213.47623Z" transform="translate(-15.83048 -114.33569)"/><polygon class="cls-1" points="287.068 103.839 283.566 92.987 286.461 104.65 287.068 103.839"/><polygon class="cls-1" points="245.886 100.41 242.549 94.536 247.252 103.759 245.886 100.41"/><path class="cls-1" d="M256.85408,221.21982c-2.87924-4.7564-7.74423-5.17058-9.10055-8.51151-.85813,2.22118,1.10379,6.81235,2.87017,10.94635C250.23662,220.75209,251.99657,219.83093,256.85408,221.21982Z" transform="translate(-15.83048 -114.33569)"/><path class="cls-1" d="M252.92427,229.93077a37.7057,37.7057,0,0,0-2.30057-6.27611A19.17623,19.17623,0,0,0,252.92427,229.93077Z" transform="translate(-15.83048 -114.33569)"/><path class="cls-1" d="M275.58052,221.95341c-1.37894-1.03259-4.85748-3.845-7.44366-3.922l6.48,4.72046Z" transform="translate(-15.83048 -114.33569)"/><path class="cls-1" d="M274.8235,222.89655l-.2066-.14466c-1.08344.82659-1.87033,1.36444-2.21836,1.584C272.691,224.14043,273.42583,223.7123,274.8235,222.89655Z" transform="translate(-15.83048 -114.33569)"/><path class="cls-1" d="M275.82466,221.75385a1.8193,1.8193,0,0,0-.24414.19956C276.22224,222.42572,276.44905,222.55016,275.82466,221.75385Z" transform="translate(-15.83048 -114.33569)"/><path class="cls-1" d="M291.96715,218.9744c1.81775,4.447,2.43109,10.54139,9.86294,12.66917C298.93691,226.8644,294.70186,225.66565,291.96715,218.9744Z" transform="translate(-15.83048 -114.33569)"/><path class="cls-1" d="M283.91875,227.66237l3.65695-1.096c-1.52515-1.43161-4.11356-3.163-5.01434-5.36576Z" transform="translate(-15.83048 -114.33569)"/><polygon class="cls-1" points="268.707 116.273 268.088 113.327 266.737 113.737 268.707 116.273"/><path class="cls-1" d="M262.239,231.10358c1.41525,3.46811.494,4.79307-.38138,6.45477a9.17071,9.17071,0,0,0,5.77631-2.42375C266.06606,233.19,263.494,229.4449,262.239,231.10358Z" transform="translate(-15.83048 -114.33569)"/><path class="cls-1" d="M268.84657,227.60741c.06028.20184.02695.35052.09165.548C269.55821,228.49474,269.81487,228.5264,268.84657,227.60741Z" transform="translate(-15.83048 -114.33569)"/><path class="cls-1" d="M249.3318,250.00815l1.21741.81668c-.30774-.3389-.56857-.62618-.9231-1.01663Z" transform="translate(-15.83048 -114.33569)"/><path class="cls-1" d="M268.90929,235.95361c2.10589.06188,1.3442-1.9209.21072-4.21859a6.42753,6.42753,0,0,1-1.48608,3.39958C268.35,236.02007,268.85848,236.56012,268.90929,235.95361Z" transform="translate(-15.83048 -114.33569)"/><path class="cls-1" d="M252.06038,236.03448a26.62409,26.62409,0,0,0,4.84836,1.30893C254.61925,236.09425,250.79265,234.39,252.06038,236.03448Z" transform="translate(-15.83048 -114.33569)"/><path class="cls-1" d="M267.042,226.94806a2.63487,2.63487,0,0,1-.09738-.40329C265.41957,225.68971,266.04057,226.22729,267.042,226.94806Z" transform="translate(-15.83048 -114.33569)"/><path class="cls-1" d="M267.042,226.94806a24.60855,24.60855,0,0,0,2.078,4.787,8.92127,8.92127,0,0,0-.18179-3.57966A17.73769,17.73769,0,0,1,267.042,226.94806Z" transform="translate(-15.83048 -114.33569)"/><path class="cls-1" d="M281.49992,289.743c-5.01254-5.3728-7.12521-12.85907.76123-9.6105-1.60891-6.17353-20.17456-21.75467-31.71194-29.30771,2.19131,2.3329,4.28436,4.426,5.00388,9.84277,3.6506,2.006,11.84155,1.41925,14.55737,8.09793-.44248,5.77933-4.38913.70893-8.64078-.51782,7.74561,5.17447,5.44977,13.36545,15.63715,22.19772l-.61945-6.07519C278.01958,285.80005,279.38954,289.14832,281.49992,289.743Z" transform="translate(-15.83048 -114.33569)"/><path class="cls-1" d="M255.5522,246.87817l.32288-1.60989c-2.00333.19994-4.86945-1.08861-10.3881-3.70366a17.18213,17.18213,0,0,0,4.13913,8.24358l5.48209-4.03516Z" transform="translate(-15.83048 -114.33569)"/><path class="cls-1" d="M260.19176,240.90706c4.89279,6.4021,4.97821,11.12923,12.51108,15.81917,2.44278-3.22913-2.7324-6.70665-3.48874-10.852-3.17163,5.98156-1.83084-4.46012-8.33689-4.35251a7.117,7.117,0,0,1,.98041-3.96338,19.29494,19.29494,0,0,1-4.94888-.21494l.45614.24633.01233-.03066.069.07781c.90757.51316,1.40515.88057.779.69937.04908.07939.01572.15729.0199.21077.74362.80555,1.347,1.57832,1.91522,2.32857-2.4905.16024-1.66467-1.24752-1.91522-2.32857-.27316-.3035-.49927-.60166-.79889-.91014l-.0813-.04715-1.4898,7.67854C257.633,245.08578,258.68782,243.71111,260.19176,240.90706Z" transform="translate(-15.83048 -114.33569)"/><path class="cls-1" d="M311.52757,246.2318a6.77418,6.77418,0,0,1-1.45462-1.16138C310.46721,246.05754,310.82524,246.64056,311.52757,246.2318Z" transform="translate(-15.83048 -114.33569)"/><path class="cls-1" d="M306.234,244.71019c-.45-1.11746-2.42813-3.6505-.76944-4.15846,2.63315.75348,2.69938,2.70823,4.60843,4.51869-.84774-2.15355-1.76565-6.33656-6.56576-7.04105l.44772,1.09619c-3.78525-.09416-13.20254-4.76863-13.65741-5.86816A130.62055,130.62055,0,0,0,306.234,244.71019Z" transform="translate(-15.83048 -114.33569)"/><path class="cls-1" d="M284.52275,244.38208l-1.04947,6.58553,6.83011,2.94183-3.03305-2.83588C290.5934,250.05455,286.51238,246.91147,284.52275,244.38208Z" transform="translate(-15.83048 -114.33569)"/><polygon class="cls-1" points="230.255 133.299 224.794 126.826 231.02 137.462 230.255 133.299"/><polygon class="cls-1" points="226.004 138.97 221.01 133.61 222.824 138.043 226.004 138.97"/><path class="cls-1" d="M132.76975,535.36017l2.59108-.34735A6.12043,6.12043,0,0,0,132.76975,535.36017Z" transform="translate(-15.83048 -114.33569)"/><path class="cls-1" d="M128.37811,530.26343l-2.91653,2.19751A11.08509,11.08509,0,0,0,128.37811,530.26343Z" transform="translate(-15.83048 -114.33569)"/><path class="cls-1" d="M120.58249,375.73511c-6.47786-3.21024-15.81563-8.89737-9.78227-3.25839l6.18467,5.181C117.108,375.49792,118.61379,375.253,120.58249,375.73511Z" transform="translate(-15.83048 -114.33569)"/><path class="cls-1" d="M71.84424,492.37369c1.02818.09076,2.09991.18536,3.16254.27914-2.67115-1.21353-5.0965-2.38974-7.35849-3.50653C68.94894,490.17331,70.33124,491.2681,71.84424,492.37369Z" transform="translate(-15.83048 -114.33569)"/><path class="cls-1" d="M108.354,502.91772q-3.483-.18672-7.12236-.2171C103.61351,502.877,105.99918,502.9501,108.354,502.91772Z" transform="translate(-15.83048 -114.33569)"/><path class="cls-1" d="M183.15448,573.682l7.094-4.47608C188.17578,567.183,186.15833,571.00305,183.15448,573.682Z" transform="translate(-15.83048 -114.33569)"/><path class="cls-1" d="M193.124,306.21591c-3.6342-.814-5.69054-.62665-6.95175.08411C191.13461,307.86453,197.404,311.39337,193.124,306.21591Z" transform="translate(-15.83048 -114.33569)"/><path class="cls-1" d="M68.94505,592.217a7.53351,7.53351,0,0,0,1.49514-.0976,4.15344,4.15344,0,0,0,1.177-.50842,9.20781,9.20781,0,0,0,2.03174-1.60229,9.4665,9.4665,0,0,0-1.22551.27954,5.90908,5.90908,0,0,0-1.32487.30475A4.51287,4.51287,0,0,0,68.94505,592.217Z" transform="translate(-15.83048 -114.33569)"/><path class="cls-1" d="M182.11969,310.39191c.82114.32434,1.3495.36477,2.082.59164.078-1.98367.34982-3.78622,1.97057-4.68353C182.49565,305.1326,179.55182,305.062,182.11969,310.39191Z" transform="translate(-15.83048 -114.33569)"/><path class="cls-1" d="M339.29833,739.252a7.67321,7.67321,0,0,1-.31748,1.04554C339.79082,739.55829,339.667,739.35852,339.29833,739.252Z" transform="translate(-15.83048 -114.33569)"/><path class="cls-1" d="M328.79247,843.48267a5.52225,5.52225,0,0,1-2.3656-1.48224C326.37941,842.73932,326.99764,843.28156,328.79247,843.48267Z" transform="translate(-15.83048 -114.33569)"/><path class="cls-1" d="M219.39388,270.78748c.68142-1.42325-.457-.79071,0,0Z" transform="translate(-15.83048 -114.33569)"/><path class="cls-1" d="M247.00234,288.162a12.12216,12.12216,0,0,0,2.34378,3.18438A15.70978,15.70978,0,0,1,247.00234,288.162Z" transform="translate(-15.83048 -114.33569)"/><path class="cls-1" d="M207.03111,356.26425c-.031.031-.07791.03333-.11331.06873C208.34468,357.13416,208.076,356.97293,207.03111,356.26425Z" transform="translate(-15.83048 -114.33569)"/><path class="cls-1" d="M223.563,271.79007a8.53671,8.53671,0,0,0-3.03238-.34116A9.12889,9.12889,0,0,0,223.563,271.79007Z" transform="translate(-15.83048 -114.33569)"/><path class="cls-1" d="M220.66191,269.315a13.12009,13.12009,0,0,0,1.47006-.36917C221.32106,267.86948,220.60454,267.38806,220.66191,269.315Z" transform="translate(-15.83048 -114.33569)"/><path class="cls-1" d="M218.23879,272.56378a3.18507,3.18507,0,0,1,2.2918-1.11487,1.975,1.975,0,0,1-1.13671-.66143A15.27925,15.27925,0,0,1,218.23879,272.56378Z" transform="translate(-15.83048 -114.33569)"/><path class="cls-1" d="M237.889,668.28552a8.08643,8.08643,0,0,1-.30514.75641C241.00279,667.7453,240.16347,667.653,237.889,668.28552Z" transform="translate(-15.83048 -114.33569)"/><path class="cls-1" d="M152.244,462.16531c-.00838-.107-.13318-.2836-.146-.38614-.11352-.01492-.25541-.03292-.3665-.05554Z" transform="translate(-15.83048 -114.33569)"/><path class="cls-1" d="M152.69441,470.17361c-5.46553-8.68386-3.6801-8.72882-.96286-8.45l-17.63942-15.1391Z" transform="translate(-15.83048 -114.33569)"/><path class="cls-1" d="M153.8533,553.16718l2.46273-7.77057c11.61207-5.20575,11.03068.011,15.71612-9.65741-18.17885,17.428-12.12939-8.50159-30.29274,8.92352l1.995-5.4939c.33083.67157,1.45435-.29138,1.78079.37317,5.11806-11.92254-15.39384,10.33881-17.2534,3.43073-.1646-2.89063,1.34845-6.5362,4.508-7.61255l-3.90326.49908-1.95163.24958a1.97284,1.97284,0,0,0-.82363.277l-.754.34656c-.11586-.81311,3.19818-3.67993,3.23782-2.95611q-1.782-.36136-3.71-.8686l.59653-.44671a70.48414,70.48414,0,0,1-6.19411,3.45624c-2.21338,1.1015-4.37027,2.02258-5.699,2.53009,2.25063-2.86866,2.6043-1.17029,4.98642-3.21021q-3.26994,1.03683-6.78471,1.82867a28.95726,28.95726,0,0,1,7.7968-4.59606c2.30844-.91535,3.89912-1.227,3.94835-.51593,4.87533-4.01,7.05783-5.71131,7.60543-6.31586.55562-.59656-.50172-.07434-1.91087.55792a12.32544,12.32544,0,0,1-3.92514,1.31519c-.74216-.0467-.51353-.93042,2.43843-3.16852q1.93341-.31952,3.74588-.76c6.17513-3.91663,8.165-5.14362,9.518-6.05835a33.6106,33.6106,0,0,1,6.45222-3.42883,144.68784,144.68784,0,0,0-13.02405,6.40844c-5.32708,2.88916-10.58271,6.13678-14.24238,6.91223,1.4002-1.28131,1.95125-2.00415-3.8805-.67468,8.96662-3.69922,6.21276-3.33642,4.88-3.94574l12.57138-4.20709c-2.04.382-4.72207,1.04529-7.66227,1.7879-2.94522.73761-6.13819,1.56494-9.3463,2.12879.20964-1.44171,10.52443-4.10993,19.35023-6.22773.79175-.53985-3.45459.41956-8.17425,1.63471-4.73717,1.19763-9.88118,2.71747-12.15422,2.02893,4.08294-2.33643-2.22757-1.79242-13.55033-3.08112a21.78643,21.78643,0,0,1,7.01523-.89135,51.69527,51.69527,0,0,0,6.82262-.335q-6.60429.08643-13.47954-.09814c.06664-.261,4.07593-.35394,6.08913-.41412-2.84773-.25275-6.92482-.13782-10.97432-.07691-4.05826.05219-8.10167.0376-11.19319-.78528-5.62567-.04406-5.81972-.49194-3.87035-1.03711,3.5182-.63714,10.062-1.31106,13.95375-1.882,3.92244-.60163,5.20567-1.11316-.92113-2.3017a50.7587,50.7587,0,0,1,7.25184.487c2.49232.29306,5.17959.60712,8.25273.78168-2.72629-.71671-4.47126-1.31873-5.85456-1.80872l-3.529-1.292-4.24968-1.46289c-1.83525-.63239-4.24819-1.458-7.54988-2.788q5.806-.30271,11.26135-.25479a61.99509,61.99509,0,0,1-16.58846-3.39843,50.4127,50.4127,0,0,1-12.7989-6.9285c-5.61-.47122-10.67051-.73447-13.26127-.68369a53.96525,53.96525,0,0,1-2.19775-6.80093c2.726.02634,6.57618,1.94281,11.26307,4.25723-.76777-.61624-1.52581-1.22647-2.26871-1.75751,6.37239-.17053,12.69281,3.184,19.0171,6.228-2.97369-.33429-6.16383-.66971-9.3899-.964a120.18466,120.18466,0,0,0,23.38691,7.908,5.67826,5.67826,0,0,1-2.70035-1.837,33.83686,33.83686,0,0,0,5.25455,1.66287c1.48033.27853-1.20219-.74277-4.07284-2.15518q7.59686,1.75044,15.016,3.67859l-5.57739-1.846a99.31589,99.31589,0,0,1,11.40442.28628c-5.82574-3.57794-12.70874-8.326-17.78214-13.49572-5.10012-5.143-8.31748-10.7808-7.44049-15.50971a48.15676,48.15676,0,0,0,9.98,8.38275c3.54088,2.37232,7.35814,4.78507,12.04033,8.22345-5.51086-3.08676-5.37117-1.40274-4.06579.8299,1.26019,2.2778,3.77408,5.0162,1.74728,5.30249,2.15-.33875,6.90823,2.6593,8.47847,3.75747a49.60313,49.60313,0,0,1-6.756-8.87176c7.83854,5.45373,6.575,3.383,10.399,5.05579a56.0234,56.0234,0,0,1-7.777-6.15845,6.18477,6.18477,0,0,1-2.06127-3.59961c-.16777-1.92792,1.18561-3.10043-.02777-5.90933a48.70682,48.70682,0,0,1,5.69387,6.25076c1.27848,1.80835,1.73162,3.07342.39575,3.33719,6.09927,3.788,2.30261-.12174-.90851-4.98892-3.01912-5.05918-6.23154-10.297-.47086-7.6579-.60186.8063-1.65342.51318.31487,3.03769-2.27873-5.56662,4.85048-6.47565,7.73457-1.7005l-.61175.79263c6.231-3.11435,14.32231-14.12573,3.86874-25.9736,1.49631,1.40277,12.8266,14.05151,14.797,16.587L116.099,422.20023c8.83961,10.30847,34.45337,30.2832,35.999,39.57894,2.47542.25065,5.44571.46778,4.40589-5.263-2.12212-.604-15.73442-11.95105-15.57666-13.86764,13.50462,7.81122,7.68149,3.72873,20.27444,9.30353-3.18222-.90689-16.9378-17.19065-14.65668-18.50452,1.96184,2.52307,14.96106,14.66147,15.86863,16.88367l-10.263-19.21271c1.53587,3.7695,12.29428,12.68869,17.471,15.86316-3.35707-2.428,4.13083-3.6066,3.86478-6.258l-5.32008-1.52658c7.28581-2.81921-15.73157-25.71274-9.94493-29.95022,2.43257,3.64608,17.23931,20.23645,21.6376,19.53674-6.37721-8.71323-31.13145-41.47668-32.511-51.725l5.16658,3.46515-1.51516-8.3197c9.24051,13.47772,27.19662,43.325,33.24865,55.87061,5.30721,1.52636,5.62348,4.57049,8.05527,1.33923,5.04706,3.0473,4.59024,7.67712,3.99707,8.75l9.20291-3.98141c-9.10849-8.522-3.79635-13.87864-11.38867-20.96784l1.97656,16.29605c-9.08957-8.5094-20.86668-29.14642-14.65069-32.272,4.702,2.32553,14.79678,16.5741,17.83514,19.41778-2.424-3.63626-1.36242-10.22863,1.21747-8.50708l2.73154,6.69443c5.91211.7117-7.4354-15.92242,4.09829-10.6383,1.64444-.51206,14.56363,8.12317,9.54038,2.727-11.81531-8.2974-43.25743-39.05185-49.63939-47.77869,1.05948.30356,15.27512,3.949,21.47487,7.68634,9.66333,6.11127,16.123,21.45493,24.40552,26.71375a29.63955,29.63955,0,0,1-4.88056-7.79047c3.19028.925,6.98975,7.92767,8.3631,4.37872-8.51315-9.33481,5.758-4.25345-6.38818-8.71536-.14566-4.96051,4.40774-.7092,6.83252-3.93869-6.66938-4.86929-17.0987-22.17523-17.24646-27.1467a41.46237,41.46237,0,0,0,7.24627,5.92279c5.741-4.12894,12.44751-2.72012,17.12671-7.24469,2.58661,1.73844,7.42426,2.13538,10.32538,6.92758-.92279-2.24627-3.34491-5.88446-2.13635-7.515,10.46768,4.974-1.968,4.3612,9.41818,11.55954-5.01117-5.36893-3.50342-10.84522-4.71939-16.10367-8.6442-7.40036-6.21335,3.12814-4.99661,8.39374-11.06455-11.04559-19.12351-26.15305-19.43033-36.0795,1.07419-6.571,8.80267,5.48825,7.8988,3.25714,9.10919-5.25073-13.19372-25.42749.75125-23.40655,9.405,4.67361,14.11206,13.89843,19.72446,18.46167-.44565,5.78247-9.25388.30758-11.07986,2.70236l5.93252.7359c1.35822,3.339,1.04877,7.18713-2.11529,6.2883,8.30511,4.33972,13.33584-10.92432,24.72232-10.61746-1.3711-3.33927-2.127-7.493-5.76184-9.51993l-.771,2.73428c-7.29-4.06784-4.55981-11.15707-9.431-11.59131-1.6449-6.34723-5.28714-15.26068,1.23517-15.35836l8.656,7.41217c-2.4194-2.27784-6.94329-2.61637-5.42935.7583-2.18774-4.94724,15.95468,5.80417,6.94229-6.23194l-7.88772-3.24728c-1.67734-6.39865-7.29263-17.85022-1.822-18.24616-9.27063-6.6009.232,1.58457-11.13819-5.6167,13.36136,9.74741-7.99044,7.018,7.04621,16.24869-12.90949-8.63183-8.26151-.85779-20.25421-7.25827,2.73925,2.5661,6.069,4.08826,2.29467,5.23874a27.52658,27.52658,0,0,1,1.79514,2.87592,1.722,1.722,0,0,1-.36414-.03168c.15415.05554.30616.13422.44913.17734.29291.50656.36993.60254.1554.05429a18.18464,18.18464,0,0,1,5.28738,2.77817c4.86282,7.30755.758,11.03494,2.58588,15.5111-2.7247.19782-2.4347-3.65707-6.058-5.68512l2.73471,6.69126c-6.07666-5.68482-13.66311-5.89917-13.67056-12.79077l-3.36038,2.83612c-5.12286-1.47476-8.94794-.28144-8.0181,3.74286-2.73126.19128,2.8266,10.2088-.51123,4.32513l-1.21167,8.50656-1.51013-1.42041c-5.53976,4.04828-.11963,19.619-16.23369,14.46695-.12929,3.09915.02059,6.58493-4.34659,7.61789l-5.62085-4.56787c-.30249,3.84116-11.32,1.12607-6.90521,7.322-15.94063-11.46957-13.04976,7.06549-19.12266,8.28125l6.511,6.78656c-2.87946,2.13763-3.39379,6.43439-3.846,12.2103l6.06306,5.68008c2.13686,7.50665-11.08073,2.72421-14.7232,7.57507-1.95755-2.53521-.29471-3.02636,1.83056-2.42556-18.35514-8.20844-1.05676,20.35165-15.32772,15.28314.99765,3.29068-.56548,3.38855-2.83863,2.7233a.68475.68475,0,0,0-.02882-.59766,1.31771,1.31771,0,0,0-.5482.39355c-1.51674-.50421-3.2125-1.1571-4.71593-1.53045a19.6173,19.6173,0,0,0,4.4854,1.80554c-.76233,1.0061-1.37744,3.07339-1.2137,5.86639l-6.8693-5.74933c-.02424.1894-.12593.25962-.12838.47965-3.61634-1.03635,1.951,4.02539,7.3916,8.08939a21.94928,21.94928,0,0,0,2.06206,5.53952c-11.23534-9.1395-.01523,6.88284-12.30922-2.55054,4.41008,6.18231-2.625,10.59347,7.832,22.45105-1.50358-1.41382-2.583-1.71839-1.96893-2.52387-2.73306.19834-5.46748.3928-3.63664,4.85291l-8.64682-7.403,7.58635,13.98639c-6.83406-2.94577-10.48394-4.98394-14.7267-13.08719,4.84593,14.16849-.20414,7.36008,5.24194,20.73447l-4.99271-5.37952c-1.21911,1.61493,3.475,10.83954-1.67045,7.40308-6.51865-3.349-10.78041.23126-15.57666,4.51868-1.19907,1.07184-2.43154,2.18789-3.741,3.25091-.65474.53153-1.32874,1.04978-2.02744,1.54264q-.524.3696-1.06727.71869c-.47939.34918-.99138.71627-1.49841,1.06146a38.57122,38.57122,0,0,1-14.45358,6.192c4.98537,2.65552,6.59473,4.01194,6.49683,4.63044-.10521.62579-1.96283.55887-4.083.5393-4.21106-.06845-9.59964.1799-2.52869,4.94776-5.08818-2.13071-9.48113-1.82688-11.282-6.29077a8.37061,8.37061,0,0,1-3.4712,4.97512c-1.58675,1.15424-3.44641,1.98179-4.99368,2.9-3.0668,1.80862-4.9837,4.07937-.11442,9.197a12.62726,12.62726,0,0,1-5.71522-2.8346c-1.24259-1.03329-2.18879-1.994-4.0547-2.28146.52775,1.03973,2.31558,3.97537-1.5022,3.46548-3.81011-.4887-3.35537-2.697-4.4363-4.76422-3.27919,3.88733-.98534,7.465,4.18718,10.62378,5.15965,3.1716,13.0853,6.0369,20.79545,8.77368-10.31558.42829-11.10994,2.604-2.00194,7.21821-6.3994-.442-14.085.09548-12.34142-4.10682-1.42883.92685-6.70121,3.694-9.99236,6.69974-3.2863,3.00092-4.39176,6.04083,3.00035,7.02622-4.42188.165-3.94553,2.703-2.67141,3.36865-5.36463,4.35281-7.26341,4.74176-10.11543,9.1875l3.87212-1.146c10.77615,1.32486,9.14529,2.18549,5.72618,3.55856-.48182.89008-1.30782,2.00965.97285,3.31391l-2.09673-.04163c-1.629,2.02039-1.69943,3.339-1.1608,4.1687a5.27859,5.27859,0,0,0,2.84645,1.58771c1.11384.371,2.15175.73041,2.441,1.56751.29913.847-.18187,2.14044-1.86158,4.6239l10.79331-1.78858c12.44668-1.075,10.24079.70606,7.0505,3.59046-1.6026,1.43475-3.4449,3.15179-4.02269,4.72766-.58583,1.56781.088,2.98968,3.29774,3.61426q2.08932-1.5044,4.26734-2.92011c4.92533.29889-1.03513,3.533-7.62661,7.71582-3.314,2.07312-6.81661,4.35254-9.42406,6.39185-2.61147,2.03528-4.33335,3.82483-4.19543,4.80877-1.08294,1.27356-3.88338-.11932-6.17116-.67968-.94271,3.05072-.4762,4.48559.74789,4.85608,1.23367.38006,3.26373-.26551,5.68444-1.13935,4.827-1.76208,11.30906-4.34491,15.404-2.16613-2.67609,1.76824-7.0411,3.05395-10.43782,4.40325-3.39042,1.35566-5.75926,2.82825-4.19336,5.21985-1.44223,2.14752,6.77646,3.15393,14.03534,4.43311,3.65105.66119,7.09355,1.422,9.28054,2.73981,2.19246,1.3233,3.14189,3.21606,1.9599,6.29418,2.85445-3.99218,6.034-7.64093,11.543-7.2774,1.29387.68115,1.60375,2.30133,1.67053,4.34082.06255,2.03528-.1131,4.49481.09363,6.73853.38361,4.4577,2.38661,8.14221,9.53055,4.4906a11.4001,11.4001,0,0,1-2.20859,3.17279c4.79743-.77008,11.168,1.92029,18.23276-2.71875-19.84964,23.5711,23.081,1.95654,3.00864,21.93921l7.26605,5.12188L99.95,616.23376c2.638,5.28016,8.83742,1.88068,15.0352-1.53363-.44785,2.27826-2.99141,3.48566-4.1105,4.45307,1.74441,9.82568,3.17408,9.54632,18.00732,4.41363l-5.9976,7.00635c5.09051-2.46124-1.82761,18.55512,11.4268,16.64832a12.03961,12.03961,0,0,1-3.54256,2.29492c14.00875-1.24158-2.72519,33.29053,23.26668,11.977l10.04216-1.61713c-3.61652-7.28357,11.08284-9.45971,12.76105-15.62164,3.53119.75531-1.5913,12.67346-5.44388,11.25861l.77141-1.59552c-13.29663,11.36126,2.40138,11.14318-6.145,19.39624,11.34566,10.10321,14.96082,27.39337,24.48087,37.96453l8.4299-10.74444L201.888,704.586c-1.30713,3.14636-6.26889,8.73767-8.37149,5.84082-4.11919,6.74847,8.752-.36731,10.89675-2.36932,1.01639,8.77264-13.08885,9.265-11.81449,10.99285l2.74867,1.328.66369-1.58271c5.56827-2.264,9.87088-6.27331,12.40506-2.79809-.0241,3.82648-4.94088,6.89136-4.55688,8.004-.69907.69024-.75949,1.25628.86337,1.43219l3.59827,5.23132,5.80221-9.33276c5.69074-1.77716,3.75412,4.54834,10.29242-6.06409-10.23394,16.21429,11.7194,21.21613,9.45716,27.15045,8.25689-2.77582,10.8598.0315,13.54507,4.0484.74759-2.41363,8.75348-11.41693,10.60709-7.48993-18.6164,16.50287-2.32852,12.91394-12.63211,27.88953,6.29245-10.46771,10.2879,6.14636,18.91113-9.02857.98459,3.83912-6.42874,6.722-8.73267,12.68543,12.54621-1.06586,8.22825,17.07227,17.621,21.87,2.42382-2.20263,4.752-6.90722,9.70776-8.81909l-7.77948,15.27167c2.527.27539,14.59406-12.0141,9.15445-1.45367,1.57819-2.30127,3.95715-5.75977,5.6362-5.55909,2.67172,25.12781,37.605,19.2013,30.61868,54.4195,2.56122-6.38507,4.27054-5.546,5.897-4.25244.11621-2.01483,5.71087-5.66791,8.65417-8.98407l-2.77194,14.59106c9.748-7.59405,6.922,5.75031,15.83246-1.92639l-3.36951-.37341c12.28061-7.30268,18.26715-25.23218,31.18692-37.42383-13.91248,8.33917,9.12375-23.81989-11.36978-12.4707,1.55682-3.57557,4.908-3.18634,7.27652-6.6344-6.53794,4.2196-9.05652,3.93957-9.24149-1.06324l1.62747-1.041c-8.59869-5.97485-6.41748-14.40436-11.07153-26.12262l-5.601,6.81317c-.93329-2.58465.64523-4.90393,1.38-7.28577-11.43548,7.398,4.40592,5.47535-7.81338,14.01624,10.29953-14.96655-12.21628-12.59375.56457-28.5285-2.62643-2.78632-6.39419,7.98065-9.01544,5.19165l3.1673-4.60205-5.68912,4.32135c-.94842-2.5998,3.01767-8.35584,6.237-11.70789.03986.821,2.14237.30487,2.88816.48187,2.27474-6.876-8.04557-4.92895-7.34806-7.20654l.207,4.99341c-11.01968-3.751-14.93344-17.87189-29.97284-17.10266l-2.38232,3.46563c-10.86951-.02807-1.14536-7.58306-9.63611-11.05682l.91205-.47717c-4.11191,1.71771-7.18933,1.597-8.49078-.37549,4.94436-1.92322,3.81958-9.50409,9.60574-11.32739-11.72873-.08783-7.4953,1.6502-22.2861,8.63659l3.97024-5.77026c-5.73611,3.07648-8.16714,5.285-12.409,3.55164,6.61948-1.71863,5.49418-9.30793,13.7555-12.07935,4.36386-16.90222-20.038,1.41943-7.37311-16.99829-16.33108,10.57324-2.03986,12.89069-6.53552,14.16174-3.04315,5.74317-12.43283,7.67987-13.05042,4.36237-1.69494-2.31092,13.81607-20.62689,8.516-25.40271.437.56537,1.49472-.42407,1.92783.1427,1.54449-5.31525-8.34039.9519-5.07636-6.93744-9.43917,6.84656-2.54147-3.46411-13.28591,6.53326l7.02511,2.21778c-5.3367.0971-19.93365,9.78064-18.35864-.42682a31.19888,31.19888,0,0,1,8.8764-3.87061c1.80072-4.32513-4.45245-.408-2.61792-4.85913,10.75562-10.00976,7.87186,3.36072,18.59485-1.74847,3.02957-5.73847-12.82611,2.2066-.17425-7.62384-16.31855,12.26336-3.15015-6.7779-17.4885.73694l6.44125-5.99122c-1.51223.43268-5.568,2.2511-6.4056,1.10157l9.863-6.26544c-9.63879,4.1148.7-11.34986-5.69919-10.2497,5.73615,5.3587-6.249,8.73926-8.44738,15.62866-15.16425,1.48059,12.33947-20.20837,1.691-24.88049,1.9166.15778.162,7.62469-4.34576,8.88885a20.65547,20.65547,0,0,1,2.66476-11.22253c-6.378-3.77252-5.627,7.18561-11.61431,8.8523,5.85263-9.3086-5.576.59173-10.22409.79028l6.30792-6.33954c-1.72681-9.83948-14.71289,11.64624-15.01135,1.53125l10.96484-6.56329-4.98065-.44855,7.75262-6.63269c-8.28577,2.38-7.83316.08819-8.70434-4.82758-3.77182,5.11676-11.84586,11.08991-14.60935,8.73011,2.00665-5.50055,6.98758-5.03077,2.4548-7.76014,4.77128-3.13177,10.63532-7.19952,6.40152.19446,2.22208-1.8985,4.76642-3.14972,6.97785-5.0274,2.43167-6.19483-3.74924-5.70734-5.12808-6.95771a3.39978,3.39978,0,0,1-.04383,2.88672l-14.03427,3.507c1.54624-3.20343,4.11051-4.45306,6.63962-5.68017-1.76086-.37165-5.40672,1.799-7.51152.76892,5.54076-4.72919,10.74879-10.1319,15.38991-10.33484l-10.72034.68988c1.89832-2.5683,3.57312-8.72046,6.1088-9.9541.24063-5.80133-16.79412,3.15344-16.49326-4.51953a6.7593,6.7593,0,0,1-4.04105,1.322c-2.30561-4.62281.9319-13.99866-10.21377-11.06568l6.87871-11.53808c-5.30756-1.12409-8.45427,14.762-17.28072,12.87921-6.7346-.84735,6.4407-9.271,7.67316-13.163-6.525,2.75422-19.2575,8.93122-15.23674-2.05456C152.554,550.50488,152.09479,552.77173,153.8533,553.16718ZM120.05023,527.524c1.06006-.26233,3.10366-.92908,4.25977-1.21924,1.16089-.2854,1.44964-.17877-.84538,1.26013-4.85019,2.39356-6.29938,2.83362-6.21877,2.4696C117.32117,529.66522,118.92278,528.48828,120.05023,527.524Zm-24.751-34.28809c2.61909,1.54077.54589,1.55368-3.82744,1.14066C91.23488,493.57544,92.24428,493.0274,95.29923,493.2359ZM213.00655,287.46576a3.5105,3.5105,0,0,0,.22845.39279C209.057,287.10867,210.644,287.47968,213.00655,287.46576Zm6.308-.81128a6.66208,6.66208,0,0,0-2.46408-2.82816c1.34793,1.84473.66373,2.75959-.69727,3.21888C218.06,288.44638,219.6656,289.13171,219.31453,286.65448ZM206.57414,722.07684l.96128-2.34674C210.92409,719.47,208.8347,720.68341,206.57414,722.07684Z" transform="translate(-15.83048 -114.33569)"/><path class="cls-1" d="M104.08092,501.73859c-1.82825-.308-3.748-.73694-5.68723-1.1778A17.61577,17.61577,0,0,0,104.08092,501.73859Z" transform="translate(-15.83048 -114.33569)"/><path class="cls-1" d="M181.84425,574.50812c-.0146.09546.04488.11566.0434.198a13.4649,13.4649,0,0,0,1.26683-1.02411Z" transform="translate(-15.83048 -114.33569)"/><path class="cls-1" d="M217.78108,395.40414a11.2337,11.2337,0,0,1-4.67666-1.85018C214.60719,395.13635,216.25221,396.1152,217.78108,395.40414Z" transform="translate(-15.83048 -114.33569)"/><path class="cls-1" d="M227.43,257.0423l-.63559,3.92523c.78967-1.41614,2.56613-.42722,4.13083.02383C229.39632,259.56354,226.82323,257.86142,227.43,257.0423Z" transform="translate(-15.83048 -114.33569)"/><path class="cls-1" d="M286.3514,276.38043c-.44413-1.11029.62011-.79312.165-1.90552l-3.0281-2.84606A3.17862,3.17862,0,0,0,286.3514,276.38043Z" transform="translate(-15.83048 -114.33569)"/><path class="cls-1" d="M250.55019,275.94049c5.50317,5.14163,5.12481,1.90268,5.73639-.68-.07642.11572-.12287.25131-.28251.28253C249.04506,267.64221,249.79384,271.79514,250.55019,275.94049Z" transform="translate(-15.83048 -114.33569)"/><path class="cls-1" d="M256.47478,274.70789a2.24263,2.24263,0,0,1,1.3454-1.60752C255.02821,269.93427,256.59776,273.07507,256.47478,274.70789Z" transform="translate(-15.83048 -114.33569)"/><path class="cls-1" d="M220.30034,278.60971c2.12283.60849-6.32419-7.27478-3.73578-5.5434C210.64616,265.45654,219.706,286.30765,220.30034,278.60971Z" transform="translate(-15.83048 -114.33569)"/><polygon class="cls-1" points="253.536 177.835 246.397 171.841 250.797 178.031 253.536 177.835"/><path class="cls-1" d="M251.92888,299.95627l4.37918-.72516a4.39022,4.39022,0,0,1-1.54944-2.91718C252.95546,297.65579,249.93306,298.08054,251.92888,299.95627Z" transform="translate(-15.83048 -114.33569)"/><path class="cls-1" d="M254.75862,296.31393a2.39988,2.39988,0,0,0,.95716-3.15109A4.6264,4.6264,0,0,0,254.75862,296.31393Z" transform="translate(-15.83048 -114.33569)"/><polygon class="cls-1" points="252.018 183.295 249.894 182.68 247.615 184.005 252.018 183.295"/><path class="cls-1" d="M223.23909,326.13751l-.90988,4.66089c1.96521,2.53281,4.10306,3.1525,4.24771,1.22278C225.67229,329.783,225.83543,327.87933,223.23909,326.13751Z" transform="translate(-15.83048 -114.33569)"/><path class="cls-1" d="M249.64192,335.69275c-2.11642-.60965-3.63489-2.027-6.21948-3.76215l8.05161,8.221Z" transform="translate(-15.83048 -114.33569)"/><path class="cls-1" d="M243.41673,345.71347c1.98206,2.537,2.43717,10.52222,5.45923,6.48312C246.92125,349.67685,247.833,345.00891,243.41673,345.71347Z" transform="translate(-15.83048 -114.33569)"/><polygon class="cls-1" points="175.32 263.051 175.923 262.237 162.475 248.993 175.32 263.051"/><path class="cls-1" d="M186.09906,446.31815c6.4971-.10392-7.45872-9.02622-.48007-8.01273-2.38371-3.93347-5.7012-.82565-7.63281-4.34622C179.32819,439.28558,176.40668,438.45612,186.09906,446.31815Z" transform="translate(-15.83048 -114.33569)"/><path class="cls-1" d="M177.98618,433.9592a21.35649,21.35649,0,0,0-1.00272-3.03659A9.77856,9.77856,0,0,0,177.98618,433.9592Z" transform="translate(-15.83048 -114.33569)"/><polygon class="cls-1" points="313.561 744.1 312.9 749.007 316.016 743.15 313.561 744.1"/><path class="cls-1" d="M343.36928,852.6073l-8.00464,9.00452,8.96942-6.4198C343.47691,855.08978,341.81392,854.892,343.36928,852.6073Z" transform="translate(-15.83048 -114.33569)"/><path class="cls-1" d="M142.56406,515.77307l-3.0188,1.07819c-3.19914,1.22815-3.33524,1.41443-3.6541,1.79809Q139.1493,517.13288,142.56406,515.77307Z" transform="translate(-15.83048 -114.33569)"/><polygon class="cls-1" points="127.94 415.372 127.62 414.701 120.854 423.319 127.94 415.372"/><path class="cls-1" d="M177.73987,544.05768c-.65964-1.31232-3.537-.75324-4.19452-2.07654C177.08023,542.74536,168.42336,553.90765,177.73987,544.05768Z" transform="translate(-15.83048 -114.33569)"/><path class="cls-1" d="M402.58023,933.79755c-.869,1.04858,4.86322,2.38629,5.80979,2.8847C407.78784,934.27753,401.11456,933.38977,402.58023,933.79755Z" transform="translate(-15.83048 -114.33569)"/><polygon class="cls-1" points="380.337 795.589 382.509 796.663 377.84 791.966 380.337 795.589"/><path class="cls-1" d="M402.14386,891.388c-10.08462-1.258-.59018,7.21509-5.02164,9.45313l-2.35623-.14533,7.206,3.92066C402.02756,900.21088,398.58539,893.37744,402.14386,891.388Z" transform="translate(-15.83048 -114.33569)"/><path class="cls-1" d="M425.87439,888.00079c-3.89215-.55847-2.50366-3.14752-1.88348,1.94422a9.10536,9.10536,0,0,1,1.07065-.12146A5.00185,5.00185,0,0,1,425.87439,888.00079Z" transform="translate(-15.83048 -114.33569)"/><path class="cls-1" d="M425.06156,889.82355c-.35154,2.04028,3.51348-.29633,0,0Z" transform="translate(-15.83048 -114.33569)"/><path class="cls-1" d="M425.79654,880.12152l2.49582,3.62274c2.3566.15345,3.5769-1.98279,4.90805-.625C432.21808,879.90173,429.869,879.75684,425.79654,880.12152Z" transform="translate(-15.83048 -114.33569)"/><path class="cls-1" d="M419.61707,875.48065l.97671,1.77741C421.58618,877.31445,422.02353,877.06439,419.61707,875.48065Z" transform="translate(-15.83048 -114.33569)"/><path class="cls-1" d="M422.65393,881.02344l-2.06015-3.76538c-1.65039-.11145-4.75567-1.05011.65424,1.63647C418.50208,877.77136,421.04013,879.1897,422.65393,881.02344Z" transform="translate(-15.83048 -114.33569)"/><path class="cls-1" d="M420.70007,882.16864c-2.53268.78876-4.42712,2.24292-6.90387-1.3844C413.54721,886.12653,420.4711,887.51733,420.70007,882.16864Z" transform="translate(-15.83048 -114.33569)"/><path class="cls-1" d="M392.58856,887.32324l-3.41006,1.04651,2.67514,2.68427C390.53317,889.7182,395.60849,888.14642,392.58856,887.32324Z" transform="translate(-15.83048 -114.33569)"/><path class="cls-1" d="M435.80487,865.63446c-1.97943-.80292-5.67734-.84265-8.33841-1.47278l1.73157,2.64069C430.89554,866.26343,432.76187,864.81458,435.80487,865.63446Z" transform="translate(-15.83048 -114.33569)"/><path class="cls-1" d="M427.46646,864.16168l-2.577-3.94653C423.68088,862.63019,425.1864,863.61761,427.46646,864.16168Z" transform="translate(-15.83048 -114.33569)"/><polygon class="cls-1" points="393.353 757.34 399.184 764.328 393.534 756.406 393.353 757.34"/><polygon class="cls-1" points="423.666 740.506 427.847 743.603 421.664 738.486 423.666 740.506"/><path class="cls-1" d="M440.95676,847.36993c3.51074,2.42389,7.09457.44245,9.08734,2.46149-.07459-2.17853-2.88272-4.90662-5.4111-7.36316C445.80213,844.59845,444.83557,846.16907,440.95676,847.36993Z" transform="translate(-15.83048 -114.33569)"/><path class="cls-1" d="M441.06525,838.55786a26.34233,26.34233,0,0,0,3.56775,3.9104A13.46929,13.46929,0,0,0,441.06525,838.55786Z" transform="translate(-15.83048 -114.33569)"/><path class="cls-1" d="M427.42685,855.68317c1.29776.168,4.63541.75732,6.49643-.41016l-6.0578-.68433C427.72537,854.92035,427.583,855.30084,427.42685,855.68317Z" transform="translate(-15.83048 -114.33569)"/><path class="cls-1" d="M427.67417,854.57153l.19131.01715c.51511-1.17376.90845-1.9765,1.088-2.31689C428.806,852.56659,428.4158,853.25708,427.67417,854.57153Z" transform="translate(-15.83048 -114.33569)"/><path class="cls-1" d="M427.31491,855.95831a2.1312,2.1312,0,0,0,.11194-.27514C426.82547,855.61157,426.626,855.62012,427.31491,855.95831Z" transform="translate(-15.83048 -114.33569)"/><path class="cls-1" d="M416.70291,865.84454c-2.66128-2.68164-4.97439-7.249-10.90973-5.414C409.32083,862.866,412.69885,861.80939,416.70291,865.84454Z" transform="translate(-15.83048 -114.33569)"/><path class="cls-1" d="M419.74445,855.09375,417.484,857.7052c1.52454.41663,3.89679.567,5.2153,1.8952Z" transform="translate(-15.83048 -114.33569)"/><polygon class="cls-1" points="402.567 738.703 403.914 740.758 404.748 739.789 402.567 738.703"/><path class="cls-1" d="M434.08643,842.04883c-2.07379-2.09247-1.82743-3.58655-1.71744-5.32727a9.92871,9.92871,0,0,0-3.35706,4.67706C430.72482,842.20392,433.70578,843.96753,434.08643,842.04883Z" transform="translate(-15.83048 -114.33569)"/><path class="cls-1" d="M430.46918,847.97583c-.105-.13226-.12711-.26666-.23389-.39331C429.69028,847.60657,429.49817,847.70325,430.46918,847.97583Z" transform="translate(-15.83048 -114.33569)"/><path class="cls-1" d="M437.43259,820.84424c-.33765-.00952-.76227-.05976-1.11646-.07269.31934.1231.64072.2398.969.37188Z" transform="translate(-15.83048 -114.33569)"/><path class="cls-1" d="M427.85358,841.35162c-1.51517.95136-.36325,2.17017,1.14984,3.46344a7.00091,7.00091,0,0,1,.00851-3.41644C428.23041,841.0329,427.70285,840.84393,427.85358,841.35162Z" transform="translate(-15.83048 -114.33569)"/><path class="cls-1" d="M439.79871,833.28119a19.60105,19.60105,0,0,0-3.84766,1.26019C437.9624,834.4494,441.20593,833.98981,439.79871,833.28119Z" transform="translate(-15.83048 -114.33569)"/><path class="cls-1" d="M431.95435,847.644a1.97438,1.97438,0,0,1,.19342.27521C433.4946,847.87634,432.88779,847.7428,431.95435,847.644Z" transform="translate(-15.83048 -114.33569)"/><path class="cls-1" d="M431.95435,847.644a16.63282,16.63282,0,0,0-2.95093-2.829,7.57083,7.57083,0,0,0,1.23187,2.76746A11.15613,11.15613,0,0,1,431.95435,847.644Z" transform="translate(-15.83048 -114.33569)"/><path class="cls-1" d="M402.33887,804.45081c5.21619,1.90167,9.02325,6.86621,2.41974,8.02362,3.04477,4.15734,21.03424,7.75763,31.55752,8.29712a10.01943,10.01943,0,0,1-6.587-5.46943c-3.21146.13532-8.84986,4.49518-12.83664.46106-1.466-4.81781,2.89981-2.65069,6.29822-3.69293-7.09675-.44494-7.98893-8.066-17.94721-10.26691l2.31156,4.54914C406.02606,805.94061,404.02136,803.92218,402.33887,804.45081Z" transform="translate(-15.83048 -114.33569)"/><path class="cls-1" d="M433.9776,826.29529l.26654,1.43689c1.36167-1.11133,3.79477-1.44593,8.521-1.98334a11.28025,11.28025,0,0,0-5.48-4.60541l-2.65161,5.8219Z" transform="translate(-15.83048 -114.33569)"/><path class="cls-1" d="M432.52091,833.26025c-5.44819-2.77917-6.96509-6.50726-13.76142-6.667-.74069,3.73517,4.00717,4.04852,5.82151,6.994.41058-6.27582,2.67462,2.68585,7.26358-.49133a7.21986,7.21986,0,0,1,.52441,3.62561,16.44261,16.44261,0,0,1,3.58206-2.18018c-.15027.01087-.2594.01709-.39993.02039l.00067.03027c-.02936-.00928-.04092-.0191-.073-.02923-.80282.02209-1.26953-.03437-.76886-.18744-.05929-.04-.05963-.11792-.07907-.15857a18.399,18.399,0,0,1-2.07794-.94641c1.72-1.31116,1.56692.20361,2.07794.94641.28757.11218.54.24243.84793.346a.53551.53551,0,0,0,.0723-.001l-1.307-6.82959C433.05152,828.713,432.72556,830.31012,432.52091,833.26025Z" transform="translate(-15.83048 -114.33569)"/><path class="cls-1" d="M394.40985,853.408a4.14719,4.14719,0,0,1,1.39118.23474C395.21683,853.04309,394.7829,852.74841,394.40985,853.408Z" transform="translate(-15.83048 -114.33569)"/><path class="cls-1" d="M398.63934,852.10583c.66395.677,2.84958,1.7566,1.82767,2.94965-2.10281.65051-2.752-.87646-4.666-1.41272,1.26568,1.31409,3.20636,4.21283,6.83355,2.49365l-.65576-.66119c2.71817-1.72357,10.84851-2.47162,11.51038-1.81116A80.7714,80.7714,0,0,0,398.63934,852.10583Z" transform="translate(-15.83048 -114.33569)"/><path class="cls-1" d="M414.16483,842.051l-1.28308-5.749-5.75861.9,3.02841.8197C408.10462,840.41321,411.97214,840.97986,414.16483,842.051Z" transform="translate(-15.83048 -114.33569)"/><polygon class="cls-1" points="424.64 706.858 430.514 709.424 422.814 703.903 424.64 706.858"/><polygon class="cls-1" points="425.912 700.317 431.111 702.217 428.457 699.545 425.912 700.317"/><path class="cls-1" d="M488.84509,437.71075l-1.04492-1.90069A4.89509,4.89509,0,0,0,488.84509,437.71075Z" transform="translate(-15.83048 -114.33569)"/><path class="cls-1" d="M485.21823,447.93051l2.52417,1.07691C486.46011,448.07553,485.46231,447.54413,485.21823,447.93051Z" transform="translate(-15.83048 -114.33569)"/><path class="cls-1" d="M490.17035,659.43182c5.591-.51867,13.97684-.42163,7.9534-2.05041l-5.98981-1.19183C492.71182,657.97,491.7175,658.8808,490.17035,659.43182Z" transform="translate(-15.83048 -114.33569)"/><path class="cls-1" d="M489.169,542.32257c-.6192.02179-1.29032.036-1.94492.05371,1.81854,1.13068,3.50229,2.186,5.0889,3.15387C491.31885,544.55054,490.27463,543.46484,489.169,542.32257Z" transform="translate(-15.83048 -114.33569)"/><path class="cls-1" d="M465.67108,533.27808l4.60431-1.55884A13.10606,13.10606,0,0,0,465.67108,533.27808Z" transform="translate(-15.83048 -114.33569)"/><path class="cls-1" d="M500.54923,379.33255l-5.3653-3.52881C494.38529,378.41742,497.72067,378.21069,500.54923,379.33255Z" transform="translate(-15.83048 -114.33569)"/><path class="cls-1" d="M460.04975,749.32483c2.83264-1.07782,4.2358-2.20435,4.91284-3.37024C460.95523,747.06519,455.41422,747.23083,460.04975,749.32483Z" transform="translate(-15.83048 -114.33569)"/><path class="cls-1" d="M549.01547,461.21164a5.4075,5.4075,0,0,0-3.134-2.334A4.38152,4.38152,0,0,0,549.01547,461.21164Z" transform="translate(-15.83048 -114.33569)"/><path class="cls-1" d="M466.58118,740.76672a16.37127,16.37127,0,0,0-1.66138.51758c.55563,1.61859.91782,3.18482.04279,4.67029C467.93424,745.13831,470.04736,743.79578,466.58118,740.76672Z" transform="translate(-15.83048 -114.33569)"/><path class="cls-1" d="M570.07572,176.17461a5.5338,5.5338,0,0,1,.84057-.24372C570.14163,175.63637,570.03781,175.83,570.07572,176.17461Z" transform="translate(-15.83048 -114.33569)"/><path class="cls-1" d="M647.36118,135.02374a6.29164,6.29164,0,0,1-.32428,2.59027C647.57645,137.30075,647.77121,136.55025,647.36118,135.02374Z" transform="translate(-15.83048 -114.33569)"/><path class="cls-1" d="M452.30048,790.05255c-.04569,1.45844.56823.41321,0,0Z" transform="translate(-15.83048 -114.33569)"/><path class="cls-1" d="M427.33423,789.31927a7.5123,7.5123,0,0,0-2.64606-1.425A9.72281,9.72281,0,0,1,427.33423,789.31927Z" transform="translate(-15.83048 -114.33569)"/><path class="cls-1" d="M434.75223,716.0321c.01248-.03936.04507-.06359.05933-.10864C433.55106,715.96277,433.79157,715.96362,434.75223,716.0321Z" transform="translate(-15.83048 -114.33569)"/><path class="cls-1" d="M449.02976,791.23425a6.95482,6.95482,0,0,0,2.25936-1.16888A7.37012,7.37012,0,0,0,449.02976,791.23425Z" transform="translate(-15.83048 -114.33569)"/><path class="cls-1" d="M451.85321,791.829a13.32541,13.32541,0,0,0-.93066.99286C451.83023,793.29468,452.48755,793.338,451.85321,791.829Z" transform="translate(-15.83048 -114.33569)"/><path class="cls-1" d="M452.57388,788.08752a3.50074,3.50074,0,0,1-1.28476,1.97785,1.266,1.266,0,0,1,1.01136-.01282A17.56626,17.56626,0,0,1,452.57388,788.08752Z" transform="translate(-15.83048 -114.33569)"/><path class="cls-1" d="M550.89786,290.74353a5.53345,5.53345,0,0,1,.63141-.11612C549.5549,288.51773,549.7479,289.23074,550.89786,290.74353Z" transform="translate(-15.83048 -114.33569)"/><path class="cls-1" d="M441.052,605.57c.03891.0813.182.16284.22266.23852.08524-.04205.19159-.09515.27747-.12988Z" transform="translate(-15.83048 -114.33569)"/><path class="cls-1" d="M438.26508,599.39941c6.558,4.32618,5.30337,5.21039,3.287,6.27924l17.19528,3.688Z" transform="translate(-15.83048 -114.33569)"/><path class="cls-1" d="M495.00107,412.4407l-6.27918,1.72889c-7.27542-6.78412-3.39016-8.79941-11.7023-7.94077,17.98148,6.21188-2.30337,13.70975,15.67127,19.91065l-4.51761,1.02c.37521-.58286-.655-1.021-.28345-1.59708-10.04684,1.58484,12.08716,7.36008,7.75226,12.12509-2.00293,1.50476-5.059,2.03073-6.797.02322l3.114,5.74942c-.7536,1.14789-3.80377-.15548-3.05863-1.29989l-.64227,7.06421-.51578-.21707a71.14889,71.14889,0,0,1,7.80158,7.00091c-3.13773.854-1.65589-1.44986-4.04358-1.73254l3.22937,5.04547c-5.18057.00091-8.77094-4.46958-7.29776-6.78324-19.17951-2.30734,3.59335,4.475-9.31024,8.50474l-1.2023-4.17972c-10.98252-1.02353-8.10944,2.85034-15.75568,4.72812,3.64075.13226,18.62411-2.71079,21.88565,2.68808-1.71933.68682-2.83447,1.9566.135,5.25146-6.4563-2.01962-5.53043.57324-5.98956,3.30667l-8.48789-2.88058c1.57209,3.60931,5.99039,4.76059,9.30561,7.64019-1.83814,2.8874-8.65638,1.45041-14.46412.4303-2.95309,4.62076,11.70676-.13366,11.43045,6.35358-4.5971,3.1658-2.03909,7.21872,1.48194,13.85855-3.8822,2.00565-5.06473-2.167-7.84226-1.88556l5.99039,4.76062c-.36853.585-2.39246-.28152-3.41525-.72,1.94867,3.03131,8.48178,2.88129,9.70083,7.06366,9.11371,3.90564-15.98037,2.741-6.65527,10.38913-2.761.28485-5.07318-2.16345-8.48267-2.88782,5.15976,8.079,3.50745,6.63642,11.42026,14.43244l-6.90155,2.32733c7.35993-.98633,13.72867,5.26159,18.89359,10.60333,3.43484-.08948,6.43457-.1449,7.92181-.34869l2.8811,6.82934c-1.607.20661-4.37231-1.26416-7.65893-3.27307.58881.5896,1.17548,1.1582,1.73852,1.6344-3.7666.92487-8.37814-1.63043-12.713-4.51752,1.89185-.12268,3.893-.20556,5.88556-.27075-4.7684-2.96936-10.12039-6.02954-15.21084-7.335a4.86508,4.86508,0,0,1,1.75286,2.49438,9.89744,9.89744,0,0,0-3.39346-1.52258c-.9534-.10065.75522,1.05713,2.65811,2.62671l-9.90692-1.78741,3.68643,1.49218-8.17923,5.15583c7.98493,8.06469,20.71427,16.90887,22.10968,26.14251-6.35275-4.19049-11.26477-4.03119-19.5014-6.75445,9.44632.58813-1.75708-7.3656,1.32559-10.94751-1.606,1.87-5.40549.14563-6.59039-.83417l5.62189,9.905c-6.71637-2.30707-5.56726-.03461-8.97681,1.01025,13.83246,2.76966,7.16446,8.32373,10.31045,12.62537-4.54275-1.23138-8.90673-3.404-6.65487-6.72675-11.34979.86225,14.04416,10.19318,4.23306,11.45978.1792-.92883,1.01654-1.19482-1.15945-2.27215,3.33368,3.35516-1.45115,7.4674-4.97107,5.03088l.19043-.92261c-3.46735,5.44361-5.82364,18.06714,5.25268,22.54566-1.49515-.40741-13.441-5.10779-15.622-6.19294l34.84311,22.688c-9.4555-4.01812-33.80563-7.77221-37.7673-14.44873-1.83585.97638-4.01294,2.21466-1.50882,6.28943,1.6937-.52685,14.8598,2.05152,15.33813,3.65448-12.00039.18939-6.60583.67725-17.26962,2.21643,2.54013-.78906,17.3288,5.657,16.113,7.78839-2.171-1.07934-15.14536-4.57989-16.47464-5.92028l13.20968,10.44067c-2.25232-2.27545-12.643-4.27423-17.2987-4.34528,3.13293.34058-1.82367,4.83814-.8179,6.82556l4.24984-1.31085c-4.30761,5.70954,19.09708,13.02436,16.29142,19.15222-2.85135-1.75091-18.48127-7.942-21.39042-5.29419,7.21473,3.91639,34.8938,18.27466,39.03083,25.78956l-4.738-.30762,3.63931,5.9129c-10.71661-6.35431-32.66772-21.61786-40.832-28.74408-4.2406,1.30487-5.403-.9718-6.13528,2.75983a5.27578,5.27578,0,0,1-5.5351-5.0766l-5.31158,7.547c9.09616,2.46612,6.97238,9.2608,14.55005,11.30511l-6.42423-12.05279c9.07886,2.465,23.803,13.32177,20.34977,18.76721-4.05683.38025-15.61783-6.18274-18.65238-7.00617,2.84226,1.74726,4.11887,7.50745,1.75571,7.36078l-4.00281-4.03918c-4.41943,2.24182,10.18729,9.16107.36554,10.42871-1.01053,1.18963-12.84885.44391-7.61786,2.35913,10.95,1.00085,42.76157,10.57965,49.98383,14.50464-.84619.26141-12.06848,4.1098-17.6243,4.07611-8.74771-.28052-18.06357-9.44379-25.56772-9.70081a18.78569,18.78569,0,0,1,5.86719,3.89185c-2.55145.77844-7.4079-2.999-7.29032.48291,8.92365,3.397-2.78042,6.12707,7.22318,3.91284,1.63156,3.88556-2.913,2.65985-3.64075,6.38666,6.23813.713,18.97861,9.5545,20.615,13.44775a25.34046,25.34046,0,0,0-6.97253-1.27875c-2.80667,6.01972-8.00522,8.08326-9.9357,13.91382-2.37314-.15692-5.93225,1.82532-9.46954-.61676,1.34753,1.35236,4.18905,3.102,3.83273,4.9762-8.96884,1.00836.05469-4.41211-10.25192-4.7406,5.214,1.89917,5.82983,6.98157,8.31356,10.59607,8.42084,1.79254,3.45057-5.44623.96409-9.066,11.26321,3.54858,21.64245,11.76361,24.9183,19.53167,1.261,5.74909-7.9444-.19281-6.615,1.1565-4.854,8.51446,17.20624,14.00281,6.6767,19.0177-8.12137.74292-14.30713-4.37494-19.70008-5.34613-1.46469-4.82184,6.47953-4.64234,7.039-7.41919l-4.44135,2.23218c-1.99353-2.0166-2.95911-5.23157-.43436-6.01837-7.23709.48645-6.109,15.046-14.29287,20.21185,2.00274,2.01074,3.81927,4.96307,7.026,4.85193l-.29456-2.54627c6.43213-.22082,6.67642,6.72827,10.27082,4.75989,3.12384,4.27875,8.45721,9.6543,3.85363,12.8313l-8.43283-1.79633c2.4205.66639,5.73871-1.21325,3.6236-3.18432,3.07825,2.9046-13.12274,2.95367-3.0123,8.26709l6.604-1.15906c3.16275,4.30426,10.67972,10.76581,6.91517,13.68091,8.61959.85748-.65293-1.153,9.64318-.81452-12.49508-1.42224,3.51481-9.39184-10.01129-9.60614,11.83039.74762,6.13349-3.2417,16.62522-3.83746-2.73658-.7442-5.571-.37555-3.244-3.08618a17.37933,17.37933,0,0,1-2.16126-1.43982,1.42017,1.42017,0,0,1,.26847-.14777c-.12665.02893-.25885.03846-.37372.072-.36414-.26471-.44843-.30462-.12714.03052a11.86026,11.86026,0,0,1-4.61215.29749c-5.70581-3.51526-3.93781-8.43738-6.6153-11.13745,1.87479-1.4524,2.85624,1.75872,6.05512,1.65393l-4.00406-4.03516c6.06827,1.64478,11.524-1.78912,13.65225,3.70166l1.51364-3.85785c4.09378-1.25842,6.44364-4.02734,4.54337-6.79388,1.88144-1.45032-5.153-6.79584-.96918-3.6911l-1.75961-7.35761,1.51041.41486c2.68856-5.85974-5.95868-15.698,7.07641-19.24738-.86285-2.53222-2.04312-5.24.74127-8.13867l5.40039.97089c-.96838-3.20606,7.69526-6.27662,2.65015-9.11853,14.858,1.5697,7.09448-11.83368,11.03436-15.68854l-6.71621-2.31677c1.38717-3.07245.42895-6.74244-1.02909-11.56214l-6.05716-1.64746c-3.8305-4.9693,7.033-7.43707,8.12638-13.03516,2.17169,1.09107,1.14166,2.27277-.55329,2.80359,15.56876-2.17755-5.51858-16.72741,6.18137-19.46759-1.72247-2.14947-.64212-2.97021,1.17773-3.52a.58884.58884,0,0,0,.20459.46277,1.52039,1.52039,0,0,0,.26822-.57422c1.23288-.31872,2.63874-.60394,3.82184-1.02069a13.49705,13.49705,0,0,0-3.7428.69184,9.29987,9.29987,0,0,0-.94488-5.25366l6.65127,1.31958c-.0411-.16248.00949-.26679-.05655-.44336,2.88846-.89216-2.62609-2.28217-7.74319-2.93708a15.292,15.292,0,0,0-3.17139-3.43652c10.7974,1.94781-2.10946-5.49457,9.53058-3.81549-5.03754-2.83331-1.39847-9.69287-12.48019-14.17755,1.50372.41272,2.36441.14264,2.17627,1.0766,1.88055-1.45679,3.7633-2.91108,1.08865-5.597l8.42349,1.7934-9.69812-7.5459c5.76261-.89874,8.98346-1.00812,14.49387,3.43616-7.80731-8.99317-2.12222-5.96479-10.1113-14.03968l5.20416,1.91645c.36863-1.86682-5.80792-6.9906-1.09378-6.69587,11.32544-.85491,7.69922-19.51751,20.31971-26.91436-16.19935-2.91388,8.48577-2.61017-3.4422-6.83338,3.86694.55939,6.40551-.22485,9.06555,2.46082-1.93317-6.4234,8.357-6.08948-.66089-12.954,3.88745.56409,5.02984,2.83441,7.39313,2.99-.66419-.67627-2.67286-2.69153-.29505-2.54468,2.35925.1543,2.83747,1.74835,4.17615,3.09174,1.0874-5.593-10.08075-9.72541-20.59668-13.48267,5.9-1.14288,5.62811-2.73-.73517-6.915,3.785.14954,7.92743-.2876,8.119,3.46192,1.10785-1.725,8.7478-9.91138.27625-12.80182,2.35473.09442,1.46661-2.437.636-3.24628,1.854-4.07043,2.7406-4.19965,3.24359-8.61328l-1.75268.71344c-9.77521-4.89685-1.20441-4.18219-1.38342-7.92511l1.01629.4267c9.86377-5.33344-2.5003-4.43982,8.3775-9.33936l-6.53772-1.61368c-13.548-5.062,10.24524-4.14853,6.37073-10.21368l-4.16247.43085c-3.952-3.8931,20.85333-.79389,23.33984-2.66236,1.36633-.14645,1.65411,1.43692,2.30157,2.44934,10.13251-3.74542-8.11993-3.46838-8.58264-8.79339,4.80109.56289,11.15656,4.75869,12.99958,1.856,4.15533-.42246-11.78467-13.83728-1.73963-15.41645-3.788-.14963-7.56433-.30349-9.4931-3.31881-.188-3.74665,16.038-4.89628,6.00012-11.4004a7.31572,7.31572,0,0,1,2.93164.26185c-2.0249-3.45881-2.07605-9.81608-7.54809-13.24418,22.86041,4.625-5.7201-19.33093,14.65954-12.8233l1.40051-8.22656,2.01722.86438c2.9386-4.61206-1.3863-7.93924-5.72113-11.25806,1.75653-.72546,3.39782.72864,4.42987,1.16117,6.44311-6.05954,5.80426-7.06659-2.41156-16.45347l6.82507,1.45243c-3.31671-2.88892,13.74518-7.35968,8.30749-17.02066a7.5657,7.5657,0,0,1,2.72168,1.73382c-5.19744-10.57849,24.4903-13.64578,1.34162-24.24032l-4.24231-7.2377c-4.06049,6.34414-10.13464-4.34086-15.02924-2.75089-.55121-3.1741,9.4939-4.7533,9.67554-1.00958l-1.37122.14319c12.16755,5.20221,7.17676-7.20935,15.67279-4.31736,3.68262-13.84594,14.85248-24.94375,19.43-37.55664l-10.23-1.61535,1.96789-4.28208c2.63794-.45294,8.13867.846,6.7284,3.89881,6.06323.07739-2.957-6.80292-5.04-7.56162,5.91925-4.97873,10.61419,6.03266,11.44915,4.19568l.09668-2.82236-1.32885.22287c-3.32373-3.36352-7.4975-4.88867-5.80921-8.56033,2.72583-1.799,6.41785.66458,7.09009-.17026.70569.22937,1.12647.00858.75153-1.36883l2.608-5.35443-8.41773-.19123c-3.01556-3.69247,2.07483-5.15414-7.47869-5.32415,14.67175.45455,11.46252-19.42438,16.37536-20.44062-4.51562-5.26379-3.323-8.6729-1.29645-12.72239-1.94506.55087-10.80749-1.55381-8.58862-4.89756,17.459,7.00032,9.89179-4.2798,23.705-3.18115-9.375-.04279,1.19739-11.12253-12.23981-10.7868,2.42413-2.60917,6.75592,1.93124,11.70227.93444-4.62207-9.49595,9.59406-14.672,10.10907-24.4401-2.31146-.88579-6.371-.50644-9.25586-3.549l13.246-1.05437c-.58282-2.14554-13.03094-5.92642-3.85278-6.6076-2.121-.16475-5.31091-.418-5.68561-1.852,17.02869-14.06985,2.05707-39.10423,29.22943-50.26881-5.32513.992-5.25561-.76941-4.83764-2.68076-1.46723.86473-5.78595-1.8598-9.04853-2.6306l11.21991-4.7232c-8.39795-4.16318,1.95288-8.25092-6.24578-11.70706l.7727,2.86377c-8.97113-6.32071-23.553-2.574-36.1944-7.08123,10.21021,7.12921-19.733,4.04444-5.35711,14.99013-3.01978.4578-3.77564-2.39886-6.95484-2.64877,5.01178,3.20733,5.58863,5.34836,2.09149,7.873l-1.2409-.80287c-1.59589,9.6943-8.25647,11.96074-15.14783,21.23925l6.56568,1.228c-1.54871,1.97218-3.68268,1.81574-5.60114,2.36173,8.7785,5.60163,2.53265-6.11431,12.3645-.43079-13.80548-1.09975-5.18377,15.72348-20.44153,13.10556-1.17047,3.41789,7.63947,1.30568,6.46552,4.72069l-4.24512-.33841,4.82257,2.48227c-1.55481,1.99147-6.8659,1.56456-10.23907.59073.571-.42188-.4433-1.85286-.5473-2.53154-5.5857,1.45367-1.02326,8.75633-2.85621,9.28248l3.48371-2.53772c.72973,10.56778-8.09656,20.39771-2.91718,32.02231l3.196.25255c3.32843,8.679-5.03443,4.51634-4.88672,12.93616l-.62-.50039c2.487,2.462,3.34931,4.97281,2.34888,6.94767-2.88947-3.02805-7.92871,1.47085-11.00647-2.27579,3.55066,9.39244,3.48132,5.19148,13.001,13.66373l-5.32239-.42343c3.95264,3.11126,6.27051,4,6.34582,8.20545-3.26013-4.46072-8.30517.04255-12.819-5.22688-13.35217,4.55225,7.18116,15.30078-9.80487,13.95514,12.54242,7.99591,9.78638-4.4989,12.07428-1.51868,5.01758-.30282,9.28595,6.26282,7.11939,8.33155-1.11963,2.44934-18.91016-1.21369-20.67035,5.28113.26709-.61707-.76172-.99018-.49249-1.60477-4.2519,1.29425,3.24554,6.197-3.36481,7.3435,7.77179,4.27213-1.67816,3.67221,8.73419,7.48783l-.5885-6.65457c1.71295,4.20852,13.08905,11.24466,5.35217,14.83917a21.0824,21.0824,0,0,1-5.48425-5.23752c-3.62738.61951,1.08179,3.74356-2.64557,4.396-10.42462-3.81858-.03741-7.87271-6.9704-13.99387-5.01007.3114,5.5188,9.17709-5.36255,3.76151,13.73926,7.1828-3.84485,5.73205,5.91089,13.59246l-6.2406-2.28845c.77326,1,3.31445,3.36945,2.75586,4.58344l-7.4895-4.88614c5.89252,5.72931-8.27893,4.835-5.52606,9.41394,2.04-7.11936,8.1336.82944,13.70532-.6915,5.7232,11.38611-18.1579-.23535-18.19684,10.47415-.47833-1.60293,5.36688-3.75213,7.65363-.759a15.64342,15.64342,0,0,1-8.79377,3.20807c-.71533,6.87741,6.83832,1.07178,9.86676,5.05319-8.416-.24289,2.13813,4.16428,3.711,7.7756l-6.447-2.01666c-6.45837,6.05206,12.80622,6.196,5.7121,11.24018l-8.04053-5.623,1.21564,4.184-7.10028-3.02918c4.24328,5.47492,2.47565,6.2031-.74829,9.23343,4.79706.57575,11.52777,4.17453,10.70257,7.499-4.52594,1.01385-5.72656-3.18039-6.26928,1.73022-3.69471-2.31576-8.39106-5.058-1.83387-5.196-2.03326-.86945-3.70593-2.30341-5.72113-3.17423-5.15008,1.00492-2.89972,5.701-3.36334,7.39441a2.96832,2.96832,0,0,1,2.06433-1.33673l6.81482,9.52237c-2.7522.28943-4.42987-1.16116-6.08075-2.59442.27844,1.58044,2.94367,3.45566,2.86023,5.62317-5.06665-2.1702-10.50928-3.75513-12.08313-7.3588l3.79248,8.21893c-2.40936-.29306-7.296,1.295-8.95355-.14038-4.19556,2.56473,7.41376,11.89066,1.87,15.2967a4.83392,4.83392,0,0,1,2.184,2.59353c-2.574,4.03473-10.23218,5.90869-4.71509,13.40091l-10.316-.00155c.83642,4.76556,13.0918-.27424,14.47314,7.65728,1.47266,5.77176-8.57049-.72961-11.71518.13718,3.96671,3.89331,12.27732,11.10919,3.234,13.12372C493.50986,414.74161,495.26181,414.03058,495.00107,412.4407Zm-11.80365,51.77918c-1.0376-1.40384-4.59518-4.67325-.56613-4.18555C489.65674,463.48126,485.855,463.22647,483.19742,464.21988Zm-8.7612,81.61594c-1.88849-1.397-.48377-2.18946,2.355-2.68769C477.0286,544.23608,476.46381,545.2049,474.43622,545.83582Zm-22.73572,227.885a2.24316,2.24316,0,0,0-.28329-.20459C454.61643,772.12878,453.37464,772.5871,451.7005,773.72083Zm-4.2315,3.6441a4.08823,4.08823,0,0,0,2.62179,1.08386c-1.52591-.8302-1.32165-1.88464-.49625-2.89752C447.80826,775.34027,446.45645,775.55676,447.469,777.36493ZM598.75968,290.14954l-1.96332.34869C595.56772,287.9202,597.0734,289.0094,598.75968,290.14954Z" transform="translate(-15.83048 -114.33569)"/><path class="cls-1" d="M468.385,534.35394a19.32124,19.32124,0,0,1,3.62821.68732A3.90732,3.90732,0,0,0,468.385,534.35394Z" transform="translate(-15.83048 -114.33569)"/><path class="cls-1" d="M501.5397,379.98459c.07239-.03372.06836-.09073.12739-.12869a8.21588,8.21588,0,0,0-1.11786-.52335Z" transform="translate(-15.83048 -114.33569)"/><path class="cls-1" d="M415.058,689.936a7.74685,7.74685,0,0,1,3.89243-.74713C417.39533,688.6413,415.92511,688.64258,415.058,689.936Z" transform="translate(-15.83048 -114.33569)"/><path class="cls-1" d="M450.82553,804.82928l-.75763-3.43133c-.12478,1.50421-1.69146,1.55994-2.942,1.94379C448.65192,803.7536,451.00427,803.88794,450.82553,804.82928Z" transform="translate(-15.83048 -114.33569)"/><path class="cls-1" d="M403.00858,817.4093c.65753.6742-.19623.927.46975,1.5976l3.028.8302C406.88535,817.97,404.86987,815.94379,403.00858,817.4093Z" transform="translate(-15.83048 -114.33569)"/><path class="cls-1" d="M428.57855,800.74866c-5.49353-1.48426-4.227.91821-3.86587,3.26788a.54577.54577,0,0,1,.11371-.3595C432.20413,806.64923,430.39285,803.69415,428.57855,800.74866Z" transform="translate(-15.83048 -114.33569)"/><path class="cls-1" d="M424.74921,804.54651a2.57918,2.57918,0,0,1-.46063,1.92084C427.24741,807.66492,425.16483,805.90668,424.74921,804.54651Z" transform="translate(-15.83048 -114.33569)"/><path class="cls-1" d="M449.24683,784.247c-1.69559.52356,6.73391,2.7948,4.36166,2.64435C460.15735,790.146,447.29776,777.82739,449.24683,784.247Z" transform="translate(-15.83048 -114.33569)"/><polygon class="cls-1" points="394.381 682.415 401.299 683.801 396.266 680.957 394.381 682.415"/><path class="cls-1" d="M420.201,782.25726l-2.88773,2.65894a2.91172,2.91172,0,0,1,1.99939,1.58948C420.18036,784.5791,422.19672,782.80432,420.201,782.25726Z" transform="translate(-15.83048 -114.33569)"/><path class="cls-1" d="M419.31265,786.50568a2.42462,2.42462,0,0,0,.29071,2.967A4.81751,4.81751,0,0,0,419.31265,786.50568Z" transform="translate(-15.83048 -114.33569)"/><polygon class="cls-1" points="393.777 677.34 395.476 676.821 396.687 674.682 393.777 677.34"/><path class="cls-1" d="M432.51807,747.752l-.78937-4.14825c-2.17639-1.08545-3.88611-.56366-3.39441,1.04352C429.66644,746.00183,430.137,747.59705,432.51807,747.752Z" transform="translate(-15.83048 -114.33569)"/><path class="cls-1" d="M410.81708,752.67975c1.69137-.51959,3.20676-.11115,5.57748.04413l-8.25262-2.72834Z" transform="translate(-15.83048 -114.33569)"/><path class="cls-1" d="M412.15277,741.73279c-2.18963-1.08081-4.97281-7.23071-5.87555-2.57459C408.44211,740.23822,409.23236,744.39294,412.15277,741.73279Z" transform="translate(-15.83048 -114.33569)"/><polygon class="cls-1" points="423.697 577.31 423.52 578.246 437.154 582.415 423.697 577.31"/><path class="cls-1" d="M421.88193,634.29077c-4.58377,3.17005,8.07947,3.652,2.80939,6.16,2.90518,2.00329,4.30468-2.05079,6.76147-.16187C428.85858,636.68018,431.18964,635.95331,421.88193,634.29077Z" transform="translate(-15.83048 -114.33569)"/><path class="cls-1" d="M431.45279,640.28894a15.19568,15.19568,0,0,0,1.6478,1.94452A6.9262,6.9262,0,0,0,431.45279,640.28894Z" transform="translate(-15.83048 -114.33569)"/><polygon class="cls-1" points="641.969 13.105 645.659 11.301 640.538 11.599 641.969 13.105"/><path class="cls-1" d="M649.3533,119.06673l8.86292,2.10307-7.32385-4.10041C651.08377,117.80135,651.45554,119.22112,649.3533,119.06673Z" transform="translate(-15.83048 -114.33569)"/><path class="cls-1" d="M463.37576,466.20432l2.02124.86566c2.38681.2948,2.75089-.2854,3.50919-1.43891Z" transform="translate(-15.83048 -114.33569)"/><polygon class="cls-1" points="465.61 317.291 465.232 317.865 473.439 319.164 465.61 317.291"/><path class="cls-1" d="M481.17105,397.72571c-.72912,1.14947.55445,3.17779-.18313,4.33078C480.44193,398.87518,491.03876,400.47293,481.17105,397.72571Z" transform="translate(-15.83048 -114.33569)"/></svg>