<svg id="Email" xmlns="http://www.w3.org/2000/svg" viewBox="0 0 983.27785 696.73587"><defs><style>.cls-1{fill:#a0a0a5;}</style></defs><path class="cls-1" d="M906.72284,227.551c-2.92169-.5101-1.88477,4.53616-2.30524,5.42891a3.4688,3.4688,0,0,0,2.842-3.581C907.2887,228.00388,906.68835,226.89928,906.72284,227.551Z" transform="translate(-17.87502 -164.73739)"/><path class="cls-1" d="M957.0166,240.73782l-2.2243.57276c1.56189.46122,3.02905,1.06587,4.588,1.66232,1.50983.63292,3.03851,1.31883,4.55322,2.07379-1.11761-.808-2.30279-1.53831-3.41705-2.2845C959.33252,242.06712,958.18536,241.37631,957.0166,240.73782Z" transform="translate(-17.87502 -164.73739)"/><path class="cls-1" d="M972.765,292.09375a9.148,9.148,0,0,0,3.44568-6.69733c.03784-.33392.074-.73153.085-1.03259q.01667-.4526.00666-.92145c-.01264-.62466-.05811-1.269-.1283-1.92718a30.79733,30.79733,0,0,0-.85858-4.059c-.42682-1.37244-.88855-2.763-1.38892-4.1344-.55786-1.36142-.99481-2.73578-1.53479-4.0546-.24969-.66391-.47552-1.32489-.66986-1.98373-.21856-.65253-.43438-1.29517-.59466-1.94129a19.37684,19.37684,0,0,1-.59064-3.83651c.44177-.72.90851-1.46527,1.30365-2.2006a74.29174,74.29174,0,0,0-8.02661-1.35165,82.73559,82.73559,0,0,1,7.87768,16.53326,42.11171,42.11171,0,0,1,1.12848,4.47016c.13575.73743.28369,1.46466.3794,2.1835q.10959,1.0811.18048,2.122.0293.51988.05774,1.02667c.019.30942.00909.80478.00769,1.18885q-.01374,1.22661-.08881,2.377A26.60485,26.60485,0,0,1,972.765,292.09375Z" transform="translate(-17.87502 -164.73739)"/><path class="cls-1" d="M954.24652,328.061c3.3252-2.22018,2.85962,7.77948,1.03681-8.38708a12.72215,12.72215,0,0,1-.84357,1.51907A68.38389,68.38389,0,0,1,954.24652,328.061Z" transform="translate(-17.87502 -164.73739)"/><path class="cls-1" d="M954.43976,321.193c-.24-7.10461-2.7948,4.64783,0,0Z" transform="translate(-17.87502 -164.73739)"/><path class="cls-1" d="M956.34656,353.99933l-2.976-9.357c-1.96557,1.95435-2.41082,10.283-3.8496,7.18937C951.15533,361.43115,953.11255,359.45633,956.34656,353.99933Z" transform="translate(-17.87502 -164.73739)"/><path class="cls-1" d="M962.59613,362.87137l-1.25757-4.8494C960.51294,358.87207,960.22015,360.15454,962.59613,362.87137Z" transform="translate(-17.87502 -164.73739)"/><path class="cls-1" d="M958.68176,347.739l2.6568,10.283c1.37757-1.3555,4.158-1.49862-.95764-4.72082C962.91534,354.14249,960.47455,352.10922,958.68176,347.739Z" transform="translate(-17.87502 -164.73739)"/><path class="cls-1" d="M959.98254,341.91678c1.866-5.2496,3.0384-12.03,6-2.63794C964.80536,321.377,958.78735,324.015,959.98254,341.91678Z" transform="translate(-17.87502 -164.73739)"/><path class="cls-1" d="M981.62451,295.538l2.51642-7.017c-.96381-1.99735-1.90082-4.14814-2.92963-5.84833.77741,1.21387.181,4.68814-.23968,7.62192C980.54932,293.24185,980.28412,295.75565,981.62451,295.538Z" transform="translate(-17.87502 -164.73739)"/><path class="cls-1" d="M951.91132,412.29123c1.82519.58426,4.8576-3.14627,7.19525-3.84445l-2.09766-6.91184C955.76093,405.08728,954.61017,411.82089,951.91132,412.29123Z" transform="translate(-17.87502 -164.73739)"/><path class="cls-1" d="M959.10657,408.44678l3.126,10.34146C962.59613,409.551,961.11053,407.86252,959.10657,408.44678Z" transform="translate(-17.87502 -164.73739)"/><polygon class="cls-1" points="954.231 199.802 947.66 182.815 954.325 203.077 954.231 199.802"/><polygon class="cls-1" points="933.808 287.05 929.592 281.187 935.967 291.631 933.808 287.05"/><path class="cls-1" d="M952.42133,477.98575c-3.49561-4.33817-5.91242,5.94778-8.06281,1.36133.624,7.1163,3.624,13.19265,6.3252,18.66427C949.17773,492.19794,949.56177,486.00183,952.42133,477.98575Z" transform="translate(-17.87502 -164.73739)"/><path class="cls-1" d="M954.61017,507.19888a60.29039,60.29039,0,0,0-3.92645-9.18753A31.2136,31.2136,0,0,0,954.61017,507.19888Z" transform="translate(-17.87502 -164.73739)"/><path class="cls-1" d="M961.33014,436.40375c-1.104.80044-3.984,2.34-5.20319,8.13879l5.12757-4.06647C961.27759,439.2345,961.30365,437.82935,961.33014,436.40375Z" transform="translate(-17.87502 -164.73739)"/><path class="cls-1" d="M961.41534,440.33292l-.16082.14315c-.11756,4.4141-.23157,7.47562-.29041,8.7873C961.02112,448.13574,961.15692,445.44815,961.41534,440.33292Z" transform="translate(-17.87502 -164.73739)"/><path class="cls-1" d="M961.35052,435.37836l-.02038,1.02539C961.84015,436.0123,962.00092,435.77567,961.35052,435.37836Z" transform="translate(-17.87502 -164.73739)"/><path class="cls-1" d="M967.46814,391.64923c2.868,6.07633,5.93878,18.74313,10.31519,6.48532C974.27094,393.77594,971.78333,400.79294,967.46814,391.64923Z" transform="translate(-17.87502 -164.73739)"/><path class="cls-1" d="M967.76093,430.32742l1.17242-10.98413c-1.35364.21616-3.33124,2.19681-4.752-.81213Z" transform="translate(-17.87502 -164.73739)"/><polygon class="cls-1" points="951.518 270.968 949.886 265.59 949.455 269.662 951.518 270.968"/><path class="cls-1" d="M959.41132,488.38269c2.23559,4.7442,2.42041,9.93539,2.78039,15.79846a118.37427,118.37427,0,0,0,1.53485-18.95056C962.11853,484.36005,959.22656,481.64905,959.41132,488.38269Z" transform="translate(-17.87502 -164.73739)"/><path class="cls-1" d="M960.83575,465.03262c.12.32718.17279.74787.29279,1.0546C961.56775,465.43869,961.69977,464.9187,960.83575,465.03262Z" transform="translate(-17.87502 -164.73739)"/><path class="cls-1" d="M962.15692,561.90045c.27844-.32129.63843-.59881.93121-.926-.29278-.07306-.58557-.12268-.888-.21619Z" transform="translate(-17.87502 -164.73739)"/><path class="cls-1" d="M964.68536,484.176a12.90694,12.90694,0,0,0-1.83484-10.23626,84.62657,84.62657,0,0,1,.876,11.29086C964.45972,485.622,964.93976,485.69507,964.68536,484.176Z" transform="translate(-17.87502 -164.73739)"/><path class="cls-1" d="M957.00891,523.30115a64.29544,64.29544,0,0,0,2.81885-8.17969C958.20776,517.5257,955.67572,522.4306,957.00891,523.30115Z" transform="translate(-17.87502 -164.73739)"/><path class="cls-1" d="M959.70776,467.67935a7.15088,7.15088,0,0,1-.22924-.707C958.38892,468.52069,958.91931,468.32788,959.70776,467.67935Z" transform="translate(-17.87502 -164.73739)"/><path class="cls-1" d="M959.70776,467.67935a28.28009,28.28009,0,0,0,3.14276,6.26038,47.22794,47.22794,0,0,0-1.722-7.85251A7.23332,7.23332,0,0,1,959.70776,467.67935Z" transform="translate(-17.87502 -164.73739)"/><path class="cls-1" d="M995.07416,579.38745c-4.7544-.83258-9.14881-13.2511-4.05121-23.96936-3.56281-10.54889-19.19519-3.65167-27.93482,5.55634,2.07123.32721,3.98761.32721,6.79682,11.1828,2.5896-3.80066,6.0708-24.08625,10.37158-14.92792,2.44324,14.37872-1.68481,11.78162-4.19281,18.77234,5.9148-5.942,8.61365,18.29327,17.3208,15.16162l-3.06476-12.6084C991.67572,578.31824,993.83575,582.89014,995.07416,579.38745Z" transform="translate(-17.87502 -164.73739)"/><path class="cls-1" d="M963.57172,540.2915l-.58918-4.46667c-.82562,5.09186-2.7276,8.73767-6.45123,15.44794,2.32684,7.43182,4.08722,8.97424,5.66882,9.48547l.66242-21.99457Z" transform="translate(-17.87502 -164.73739)"/><path class="cls-1" d="M962.96216,515.77c5.17077,3.488,7.374,14.21509,12.9696,7.64508-.36-13.10794-4.32123-9.18463-6.56524-17.01666,1.28643,21.15326-2.88-6.07633-5.80921,9.208a74.87508,74.87508,0,0,1-1.3656-11.4253,105.01392,105.01392,0,0,1-2.36395,10.94031c.12-.19281.20758-.32715.32159-.48492l-.00842-.09931c.02643,0,.03839.02045.0672.02045.65039-.91144,1.04639-1.21234.67682-.18408a1.6487,1.6487,0,0,1,.10559.44116,5.33968,5.33968,0,0,1,1.94281.95526c-1.06683,6.126-1.33319.964-1.94281-.95526a4.38333,4.38333,0,0,0-.78241-.25708.45081.45081,0,0,0-.05878.07886l2.83319,21.18829C963.70374,531.34064,963.55731,525.72583,962.96216,515.77Z" transform="translate(-17.87502 -164.73739)"/><path class="cls-1" d="M988.90137,409.4371a1.338,1.338,0,0,1-1.19763.67774C988.33612,411.485,988.767,412.00494,988.90137,409.4371Z" transform="translate(-17.87502 -164.73739)"/><path class="cls-1" d="M985.78131,418.1543c-.71759-1.54245-2.78277-2.82489-2.256-7.832,1.55041-4.344,2.47559.02044,4.17841-.20743-1.374-3.0177-3.70917-10.56348-6.22919-1.09842l.70679,1.49866c-1.776,8.53024-8.22718,19.491-8.93879,18.00112A35.29285,35.29285,0,0,0,985.78131,418.1543Z" transform="translate(-17.87502 -164.73739)"/><path class="cls-1" d="M975.69171,467.57126l2.53443,17.64471,4.47363-8.986-2.68683.45575C981.06775,466.651,977.76056,468.81866,975.69171,467.57126Z" transform="translate(-17.87502 -164.73739)"/><polygon class="cls-1" points="941.709 399.182 936.246 396.842 943.965 407.034 941.709 399.182"/><polygon class="cls-1" points="942.36 422.111 937.62 421.264 940.479 427.317 942.36 422.111"/><path class="cls-1" d="M35.67582,623.11359l-1.3452-5.18537A23.98615,23.98615,0,0,0,35.67582,623.11359Z" transform="translate(-17.87502 -164.73739)"/><path class="cls-1" d="M35.353,660.64954l2.34121.92022C36.40543,659.8316,35.45263,659.11877,35.353,660.64954Z" transform="translate(-17.87502 -164.73739)"/><path class="cls-1" d="M629.37286,795.83929c-7.55163-4.43524-15.98834-11.31359-15.0769-5.97l2.31952,5.20319A25.35235,25.35235,0,0,1,629.37286,795.83929Z" transform="translate(-17.87502 -164.73739)"/><path class="cls-1" d="M243.69221,826.92407c.71859.51264,1.4665,1.04621,2.20852,1.57562,1.83459-1.77844,3.56108-3.42724,5.10061-4.974C248.80452,824.59125,246.30971,825.72528,243.69221,826.92407Z" transform="translate(-17.87502 -164.73739)"/><path class="cls-1" d="M238.36374,848.46527l-9.95584-3.36A43.43246,43.43246,0,0,0,238.36374,848.46527Z" transform="translate(-17.87502 -164.73739)"/><path class="cls-1" d="M30.15342,418.11038l-5.2968-6.05C24.87943,421.52539,27.55182,417.35959,30.15342,418.11038Z" transform="translate(-17.87502 -164.73739)"/><path class="cls-1" d="M937.82043,786.558a66.70884,66.70884,0,0,0-10.7116,2.57807c1.4591.21209,2.87347.33752,4.27154.52893a24.37041,24.37041,0,0,0,3.72974.10992,4.23817,4.23817,0,0,0,2.42651-.86224A2.21413,2.21413,0,0,0,937.82043,786.558Z" transform="translate(-17.87502 -164.73739)"/><path class="cls-1" d="M90.92382,637.88373c-.9432-3.17255-2.004-4.528-3.1644-4.43451C88.64742,636.71521,89.64342,638.56146,90.92382,637.88373Z" transform="translate(-17.87502 -164.73739)"/><path class="cls-1" d="M915.876,792.88483c.81469.34277,1.57654.4356,2.42077.70117a46.51363,46.51363,0,0,1,8.812-4.45c-.53278-.06482-1.05976-.11426-1.57734-.14032-.51983-.03137-1.05041-.08936-1.55767-.08924a11.32918,11.32918,0,0,0-1.49317.079,7.93356,7.93356,0,0,0-1.449.21009A8.69542,8.69542,0,0,0,915.876,792.88483Z" transform="translate(-17.87502 -164.73739)"/><path class="cls-1" d="M624.83905,168.56752a16.08709,16.08709,0,0,1,1.68268.624C626.68536,168.48233,625.9375,168.44753,624.83905,168.56752Z" transform="translate(-17.87502 -164.73739)"/><path class="cls-1" d="M841.43988,221.09392a82.90974,82.90974,0,0,1-8.89246.4044C834.14539,221.85832,836.82715,221.82353,841.43988,221.09392Z" transform="translate(-17.87502 -164.73739)"/><path class="cls-1" d="M957.96411,679.10944c-.3396-4.864-.57117-.77124,0,0Z" transform="translate(-17.87502 -164.73739)"/><path class="cls-1" d="M978.55731,655.4585a3.28643,3.28643,0,0,0,2.53082,1.94262A4.21059,4.21059,0,0,1,978.55731,655.4585Z" transform="translate(-17.87502 -164.73739)"/><path class="cls-1" d="M874.15558,826.50165l-.42066-.02039C875.181,827.50128,874.93268,827.3045,874.15558,826.50165Z" transform="translate(-17.87502 -164.73739)"/><path class="cls-1" d="M960.33173,671.79156a37.1762,37.1762,0,0,0-1.54438,6.21949A38.04858,38.04858,0,0,0,960.33173,671.79156Z" transform="translate(-17.87502 -164.73739)"/><path class="cls-1" d="M957.87054,672.776c.234-1.67682.36359-2.99432.504-4.25049C957.51056,667.91205,956.96216,668.45538,957.87054,672.776Z" transform="translate(-17.87502 -164.73739)"/><path class="cls-1" d="M958.24854,685.884a42.96254,42.96254,0,0,1,.53881-7.87292c-.3576.95526-.64441,1.35547-.82324,1.09839C958.04333,680.535,958.15137,682.54785,958.24854,685.884Z" transform="translate(-17.87502 -164.73739)"/><path class="cls-1" d="M226.47409,182.50432a10.77089,10.77089,0,0,1,1.04292.486C232.42189,180.83153,230.26889,181.17352,226.47409,182.50432Z" transform="translate(-17.87502 -164.73739)"/><path class="cls-1" d="M502.80109,849.90167c.22784-.05279.34762-.19079.555-.24359-.22787-.06128-.51416-.13824-.71866-.19318Z" transform="translate(-17.87502 -164.73739)"/><path class="cls-1" d="M485.33453,853.77405c7.43769-6.4776,11.66773-5.68079,17.303-4.30915l-5.77835-15.006Z" transform="translate(-17.87502 -164.73739)"/><path class="cls-1" d="M34.17582,533.23645l-4.6848,12.2666c-7.6992-14.80524-5.0448-25.5177-11.616-14.00189,16.3008,1.73529,1.6608,47.67877,17.9532,49.38483l-3.42839,8.08618c.156-2.31659-.79921-2.68756-.64441-4.97791-7.8012,15.72547,11.7804,11.68231,9.4692,31.94458-1.248,7.06079-3.6096,11.98908-5.5488,7.17475l4.0308,15.73419c-.3192,4.5777-3.1488,3.45886-2.83559-1.09839l1.3008,23.9986-.4776-.17823c2.54879,3.42377,6.504,11.1828,8.1852,14.97174-2.34361,6.09681-1.728-3.05865-3.7524-1.49865l3.94319,13.28906c-4.2336,5.41321-8.3232-5.60016-7.7172-14.77893-16.2708,12.40973,4.0932,11.025-5.4108,37.80768L30.87943,698.8136c-9.24,8.08911-5.89081,17.88135-11.65441,32.06726,3.0096-3.36536,14.52-28.401,18.5808-13.97852-1.2276,4.0636-1.81079,9.42127,1.46761,17.20075-2.8992.0365-3.99211,1.95361-4.31881,5.0498l-.02841.29377-.01732.38836-.01905.82825q-.01023.84576.01208,1.75812c.04369,1.21515.06157,2.51233.22023,3.87646l.49118,4.27582c.18525,1.4809.47041,3.00818.70378,4.5769q-3.861.08946-7.72868.12159c2.0619,7.11615,4.41382,10.01117,6.61548,12.08209,1.09379,1.03705,2.217,1.85443,3.42575,2.82959a31.05035,31.05035,0,0,1,3.85877,3.7572c1.92926,7.28491,2.39739,12.05359,1.72848,15.94879-.57733,3.84528-2.16962,6.70715-3.44325,9.62952,2.99,5.96063,4.67552,7.48651,5.37456,7.045.73928-.46057.6372-2.90716.83216-5.25391.19753-2.36145.60473-4.56188,1.9358-4.636,1.35815-.09241,3.44583,2.01037,7.78513,7.7204a55.15376,55.15376,0,0,0,18.09906,20.96032q1.41012.98027,2.868,1.92841c.98629.61591,2.01144,1.19659,3.04275,1.78436,2.04394,1.2005,4.273,2.22516,6.54312,3.29352a105.14746,105.14746,0,0,0,15.38931,5.3515c5.57934,4.04083,4.69276,4.86829,2.64052,5.19354-2.017.32245-5.14005.05988-3.26145,2.12342l3.51013-.10071c1.16508-.05774,2.334-.15924,3.48265-.24988,1.15291-.10132,2.28428-.18506,3.42092-.32385l3.38357-.46637c2.75576,1.08057,1.30977,2.5733.54345,3.32159,5.36741.34821,6.02826-1.4931,7.3947-3.07672a5.98946,5.98946,0,0,1,3.13962-2.03955,15.66706,15.66706,0,0,1,3.07682-.49914,36.63829,36.63829,0,0,1,4.70642-.09369,3.542,3.542,0,0,1,2.74381-1.57575,12.85343,12.85343,0,0,1,4.17056.58039c1.62163.421,3.4688,1.14263,5.52911,1.79766,1.03957.35273,2.12238.72022,3.24089,1.09974q1.41473.5331,2.91341,1.09777c7.95218,2.94538,17.42163,5.74829,25.18063.94947,3.824,2.1828-1.84626,4.7052-.67775,7.67883,21.29055-6.30481,18.25239-4.5816,35.73353-13.06323l14.89285,5.03882c-10.94324-5.76,3.03816-12.57959,15.28431-18.18122a102.22921,102.22921,0,0,0-9.42416-6.384l19.5436-4.11963c2.36041,1.26.39146,3.9-2.81031,7.10523,1.33213-.63361,2.597-1.26,3.58153-1.8432,6.98778,2.83917,3.36537,7.26837-1.64177,11.55719-2.38087-1.51441-4.74422-3.12842-7.04037-4.74-4.826,4.66437-9.34237,9.82917-8.33744,14.32679a17.11232,17.11232,0,0,1,6.40645-2.07721c-1.262,1.26843-2.0683,2.3988-1.484,3.16681.66313.80517,2.70221-.89038,5.89813-2.8512l4.44331,8.55841,1.078-3.39844,25.56733,5.35205c18.29328-8.61,34.20566-21.29882,63.2406-24.82562-7.204,6.27478-1.54831,10.248-1.93975,17.68317-7.92261-7.87195-22.48829,3.3396-37.536,1.746,7.85247.82922,6.126,4.38,4.1278,5.60162l26.83811-7.15441c-.60471,6.0852,5.69949,4.55877,12.71063,7.07519-5.29926-12.02038,20.00516-8.00641,30.92505-11.68921.67773,4.03082-1.93976,8.15882-15.26389,7.17719,14.70008,9.05279,18.99439-14.112,33.42276-6.42121-3.25433.09363-5.00714-.522-6.29251,1.53485,7.59836-3.59161,26.175-.744,21.80469,2.76239l-3.24558.08277c21.59729,1.42682,65.74418.09,68.96637-10.11957.21619,1.32721-2.83075,12.30481-4.13656,14.36762l38.53506-34.33924c-3.39459,8.766,9.63742,29.63642-8.27316,34.59961,5.14151,1.248,11.50415,2.70722,22.34509-.39239-3.50848-1.248-8.74347-12.67444-3.94958-13.47962,13.15759,9.75842,9.135,5.22363,25.35406,13.54083-5.25836-1.872.58429-15.624,8.89252-15.18121-1.29712,2.05316.69232,13.56116-2.34583,14.994l20.68287-13.494c-5.16193,2.42877-.91144,11.4372,3.71594,15.26038-2.14716-2.64838,17.88135.24,23.39386-1.09558l-8.76685-3.1344c23.353,2.0448,23.06671-18.97321,46.23273-18.264-2.8045,2.78284-6.92645,17.15643,4.85522,18.84961,5.39856-6.90839,23.908-33.24,44.40393-38.56317l3.93213,3.9516,15.72541-4.50238c-9.79224,10.40039-37.273,32.28479-52.27985,40.79876,8.73767,3.12842,2.43347,4.66681,15.521,4.30078,4.62152,3.70563-7.13385,5.616-10.9842,5.83564l30.46937,2.39038c-1.35553-8.07117,23.30035-8.09162,22.13769-14.81281L679.599,855.0257c-1.34088-8.05683,19.13458-22.896,40.72314-21.48121,5.49207,3.21717-4.10742,14.36158-3.65753,17.05439,2.80158-2.77442,20.49011-5.3064,22.4737-3.33722L729.98,851.5769c12.01831,3.03235,19.61371-10.69323,34.0567-2.994,4.98377.51837,14.8841,10.386,15.74585,5.616-8.13-9.20758-9.71918-37.68115-4.30017-44.598,1.747.624,26.175,8.80078,31.86572,13.35,8.20887,7.22162-12.32214,17.20318-5.33435,23.4024.30091-2.20556,4.83478-4.9248,6.72486-5.80078,5.235,1.884-2.16761,6.82916,9.208,5.83319,1.89887-8.17078,23.13678.68878,5.37812-6.91443,11.12732-2.33758,11.8255,1.69324,24.89251,1.32483-4.15991-5.28241,11.732-17.97961,22.87976-20.32318-.65728,2.07959,1.84626,4.79279,3.0586,6.02875,11.40484.369,20.168,1.4823,28.73877,2.5122l1.60864.18989,1.67127.14752c1.11651.086,2.24127.21289,3.37341.25244q1.70352.03773,3.43274.07605c1.15912.0293,2.32251-.06549,3.51123-.10864a63.49014,63.49014,0,0,0,15.17383-2.67127c1.26526.59058,4.75952.66986,7.53637.89008,2.78571.30383,4.95569.94555,3.32618,3.55291,2.69262-2.766,4.4364-6.42163,10.533-10.2323,3.90082-.31536,5.08863-.00793,4.79639.8722-.29462.85278-2.03,2.23925-3.95074,3.55957-1.87952,1.39184-3.93885,2.70947-4.64521,3.91308-.69757,1.1922-.10724,2.26764,3.47675,2.82129-.32727-1.17352.467-2.67047,1.82873-4.50274.681-.9162,1.54883-1.84406,2.46967-2.89844.92041-1.055,1.95428-2.14069,3.02606-3.27686,4.2843-4.56543,8.99573-10.1463,11.56995-14.84942-3.77881-1.49268-7.92682,2.22607-12.73132,6.8609-2.40046,2.31653-4.90894,4.96734-7.44355,7.38336q-.94721.92661-1.86047,1.82-.9452.86352-1.8396,1.68072-.90253.82838-1.738,1.59516c-.57617.48761-1.12555.95251-1.64251,1.39-1.06647-2.31757-1.07-5.0531-.46112-8.16577a33.51406,33.51406,0,0,1,1.384-4.84454c.57147-1.7262,1.30389-3.44526,2.09088-5.26294,1.58374-3.62732,3.4646-7.49189,5.46417-11.4784,1.99518-4.00036,4.04987-8.18725,6.113-12.45221a36.82056,36.82056,0,0,1,2.41443-3.77075,8.03855,8.03855,0,0,1,1.88257-1.987,2.37,2.37,0,0,1,2.81958-.28125c1.53637.884,2.301,3.22608,2.432,1.68927,4.36737-5.96045,5.69153-11.29651,5.69965-15.52753a22.39263,22.39263,0,0,0-.21869-3.025,16.68768,16.68768,0,0,0-.562-2.70648c-.23834-.85736-.50092-1.66693-.772-2.44068-.29754-.78064-.62616-1.53118-.934-2.25409-.31915-.72558-.59515-1.41937-.91235-2.11535-.31854-.69617-.61426-1.38049-.87219-2.06568a19.74572,19.74572,0,0,1-1.15936-4.26428c-.455-3.20123-.17841-5.85821,1.60321-13.36126,6.44525-10.93445,12.82324-.49366,17.48162-2.9184a36.12651,36.12651,0,0,1,.38373,9.6651,35.3816,35.3816,0,0,1-.71209,4.00714c-.357,1.26263-.75623,2.45911-1.16724,3.60523-1.78406,4.59167-4.053,8.23809-5.05768,12.60308a76.83322,76.83322,0,0,0,5.12854-10.50091,16.982,16.982,0,0,1,.85608,4.25928c.07.817.11243,1.67694.125,2.55981-.01929.87622-.08911,1.77106-.18048,2.66943a23.11964,23.11964,0,0,1-1.13336,5.17749,14.20462,14.20462,0,0,1-2.17182,4.05207c2.0705-1.625,4.43213-5.801,6.071-11.76783a63.34669,63.34669,0,0,0,1.8576-10.07336c.08887-.923.20557-1.861.26715-2.816q.06437-1.43472.1305-2.90863c.099-1.97711.08087-3.92017.123-5.93951.22156-16.0716.38861-34.19837,3.06525-47.001-2.15643-4.54846-4.404-12.401-6.996-8.68506l.8988,8.10077c-5.19958,7.44647-7.19519-15.24628-9.624-4.99249-3.65882-10.86731-9.4068-23.0492-6.46564-38.34809l7.356-2.87457c-2.15039.32721-4.3764,9.99963-2.13843,14.2998-3.26636-6.37719,9.96124-23.45813.32526-30.44592l-5.09766,10.72418c-3.69714-10.91113-11.51037-24.39886-9.18719-37.95666-7.266,6.1698.8316,3.12579-7.67035,12.76031,10.57916-8.352-.44525,34.68476,10.66437,21.26715-9.86158,9.88575-4.17481,17.11011-12.59522,30.03406,2.42883-.40027,4.65-4.5777,3.44879,6.80371a11.94544,11.94544,0,0,1,2.13843,2.49774c-.06122.3476-.10559.47034-.18121.76831.096-.2279.2016-.39733.2868-.62811.366.49372.44519.53754.096-.2337,1.07281-2.711,2.34479-4.90778,3.69238-5.79883,5.5716,5.64984,5.39881,23.75031,8.28479,29.87048-1.1568,6.754-2.78876-2.82495-5.376.86176l4.31519,9.14374c-5.3844.90558-8.95557,17.94268-12.11395,2.0332l-.24,14.32031a56.63626,56.63626,0,0,0-2.96173,14.06977c-.09882,1.21179-.15632,2.41357-.16925,3.59051q-.00724.62732-.01435,1.24.00752.52241.057,1.03113c.08624.68054.16211,1.33429.28088,1.96283a10.51386,10.51386,0,0,0,.55615,1.81488c-.83551,1.97021.27942,4.75763.91913,6.68079.69379,1.92724,1.2533,2.808-.38714.4616a54.7029,54.7029,0,0,1-2.0893,14.80194l-1.24292-.51776c-1.88421,3.10462-3.53991,6.4101-5.4884,9.772a50.8434,50.8434,0,0,1-7.037,9.7398A27.7405,27.7405,0,0,1,931.4,793.03992a20.59476,20.59476,0,0,1-13.10315.54608,28.94168,28.94168,0,0,1-7.38592,3.1897,16.33688,16.33688,0,0,1-2.28241.42169q-.59922.0726-1.22333.14825-.631.0109-1.28931.02216l-1.34674-.01685-.86053-.03735q-.52029-.03232-1.05261-.06549c-1.41974-.0979-2.90515-.23883-4.46515-.42963l-2.43347-4.66443c-9.57605,1.62-28.76325-4.66675-32.8794.1908-10.33264-12.5484-46.48688-2.73956-63.33111-4.9632l-.63691,6.08765c-11.59466-.3396-22.71319,1.392-37.1065,3.82916l.88513,5.376c-12.40973,4.41479-31.90363-3.82562-51.53192-3.2724,1.335-2.05682,6.31293-1.52045,9.83606-.2724-23.4494-12.16083-49.4754,8.83319-70.74256-.02045a17.10644,17.10644,0,0,1-12.85376-.05279,3.63064,3.63064,0,0,0,1.31458-.28681,20.534,20.534,0,0,0-2.17639-.0708c-2.34-.92517-4.75006-2.00036-7.3617-2.85956a26.91561,26.91561,0,0,0,6.19318,2.88,92.40588,92.40588,0,0,0-16.3623,2.13l-2.58826-5.77685c-.49371.07562-.891.06122-1.40515.16083-5.96241-2.13-4.79389,2.736-1.61255,7.08722a33.76332,33.76332,0,0,0-8.03656,3.48c-4.84357-9.32758-15.94159,3.144-22.55255-6.8028-4.09571,4.84918-30.54816,3.648-33.785,13.86359-.20745-1.33557-1.99817-1.96918,1.28247-2.05677-6.77453-1.1604-13.54321-2.32324-19.61956.55677l-2.87458-7.3476-14.79065,9.876c-8.98593-4.47717-12.7106-7.08118-3.78891-12.73316-21.5447,8.70478-17.48114,3.276-35.80361,11.892l.89392-4.74841c-6.54959.18121-17.0196,6.55322-20.96921,2.62445-14.65039-9.03485-72.4924-1.248-110.09848-9.65045,7.29452,13.992-17.48114-6.26038-18.971,4.57922-2.191-3.30481-7.43182-5.17682-1.34088-8.0448-19.193,3.24-28.83627-5.256-42.08737,3.888-2.19684-3.32281,4.10736-4.8432,2.153-6.81482-1.53952.71765-6.09677,2.88-8.095.89881-1.95434-1.968,2.8103-2.77076,5.84848-4.212-19.60495.55683-21.5885,10.752-23.0141,20.3172-9.93541-4.52643-14.89287-3.894-22.06762,2.388-3.45884-3.132-9.22843-6.40442,2.95346-7.53-6.85341-.45959-41.86536-4.58758-42.56356,3.08283-2.14715-1.94879-9.579-.56879-11.38435.31921-15.37781-.46319-16.73036-1.15442-31.83064-.4248l4.18625,1.248a10.01881,10.01881,0,0,1-4.667,4.24426,7.9056,7.9056,0,0,1-2.5202.52454,12.28736,12.28736,0,0,1-2.47546-.20093c-3.47234-.66-7.33744-2.45843-12.5624-2.98614l.482-.853c-5.474-2.87213-8.46972-4.70727-10.64887-5.67322a16.10137,16.10137,0,0,0-4.68486-1.35962,8.22621,8.22621,0,0,1-1.97683-.48535,11.45048,11.45048,0,0,1-2.50954-1.32672,32.00049,32.00049,0,0,1-7.86238-8.74823q-1.29956,2.64222-2.52155,5.347a5.03512,5.03512,0,0,1-3.25295,1.5744,4.161,4.161,0,0,1-2.928-1.2226,12.4286,12.4286,0,0,1-2.57259-3.3551c-.39133-.702-.78959-1.43841-1.15526-2.23474-.35089-.81122-.6955-1.65582-1.03852-2.51758-1.32173-3.50378-2.46373-7.36377-3.68556-10.94848-1.24617-3.58619-2.76635-6.77179-5.28592-9.26355l-.34642,2.93365c-.11164.99677-.14133,1.9704-.20487,2.98309-1.89825-1.11676-2.54472-3.48748-2.31649-6.30407a26.39294,26.39294,0,0,1,2.91874-9.19312c.38915-.77637.79243-1.54,1.19974-2.28467.41212-.74621.8818-1.48993,1.31537-2.20019q.65217-1.0416,1.29068-2.0614.653-.97641,1.28581-1.92267c.40477-.61182.78053-1.19342,1.11624-1.74378.357-.55517.69373-1.08331.96722-1.57721a8.20471,8.20471,0,0,0,1.00269-2.6026c.4564-.70343.94882-.2572,1.43687.53833.55941.78479,1.10964,1.92371,1.65387,2.67389a43.53393,43.53393,0,0,0,1.07439-4.45532,5.509,5.509,0,0,0,.05726-1.342,2.20619,2.20619,0,0,0-.18833-.91394c-.46239-.96332-1.70024-1.01263-3.20454-.92169a12.74013,12.74013,0,0,1-4.85679-.20557,4.0831,4.0831,0,0,1-2.064-1.57184,6.54925,6.54925,0,0,1-.77138-1.49353,5.67593,5.67593,0,0,1-.28313-1.178q-.119-.69672-.20175-1.49707c4.0692-3.155,10.34759,4.06353,11.1036-7.44648,3.28679-5.73449-13.2072-33.38769-5.406-49.09265-3.1344,3.46173-6.2604,6.89722-8.616-1.04584-1.122-12.176,11.8416-32.91735,1.9572-43.9132.864-1.54828,1.68121-2.13251,2.4636-2.19678-2.5488-9.30731-4.23359-30.24732-9.5916-35.85333,19.878-8.60035-9.6708-57.86243,8.6664-57.655l-.9816-28.62888,1.872.74783c1.20961-18.2991-3.18479-24.7698-7.58519-31.20254,1.248-4.23,2.96519-1.14221,3.92039-.79166,3.6996-26.7388,2.91721-29.39718-6.2232-51.81537l5.95321-2.3312c-3.4572-6.07633,9.3312-38.65775,2.39039-64.88239a4.47462,4.47462,0,0,1,2.6724,2.88336c-3.4908-14.75265.63121-32.412,2.91886-47.73465,1.14382-7.66131,1.82906-14.73849.87481-20.57605a19.89383,19.89383,0,0,0-2.80858-7.74472,14.80664,14.80664,0,0,0-2.60328-3.02145l-.38955-.33157-.39673-.24094q-.40457-.23863-.8409-.46768-.87291-.45808-1.87663-.87622a67.79909,67.79909,0,0,1-3.16415-16.2186c-.38966,1.25626-.78,2.33667-1.144,3.26794a21.33861,21.33861,0,0,1-.93956,2.37888,5.92445,5.92445,0,0,1-1.71265,2.42926c-1.116.71823-2.24154-.21542-3.36605-1.65707-1.1091-1.4299-2.10263-3.35813-3.2025-4.41138-1.08948-1.0441-2.23614-1.18878-3.56942,1.17218a18.45363,18.45363,0,0,1,2.18418-7.55975A22.3579,22.3579,0,0,1,70.8867,259.056a20.26288,20.26288,0,0,1,2.268-2.45651c1.514-1.298,2.88519-1.87226,3.65519-1.47907a1.52418,1.52418,0,0,1,.69447,1.35471,5.84408,5.84408,0,0,1-.06163,1.28811,14.25958,14.25958,0,0,1-.29757,1.76639l-1.58234,1.29087c2.36682,1.79409,4.37165,1.08151,6.06343-.73545a20.56638,20.56638,0,0,0,2.52432-3.43667c.43132-.66069.87308-1.35291,1.29455-2.07441.4079-.728.856-1.45752,1.31979-2.18383,3.50283-5.93036,8.09951-11.555,10.94827-8.89774a57.33575,57.33575,0,0,1,22.11893-17.6275,60.62,60.62,0,0,1,26.79328-5.34126c1.12486.01658,2.2532.13507,3.36972.183l4.35539.27943,8.9731.57972,17.8295,1.06706c11.83323.64569,23.55865,1.1272,35.1665,1.2475l-5.34892-8.778,16.19575.5016c4.25052,2.0388,5.70534,6.87-5.84846,6.50639,6.07634,4.97521,19.37707-4.17479,19.70718-6.0732,22.62267,3.5508-8.837,10.2336-1.89885,10.44121l9.42124-.6504-2.1238-1.0284c7.63631-3.5856,8.31406-7.39081,22.202-6.96,8.78733,1.76281,4.5076,5.41681,7.96643,5.7504-.02044.636,1.14807.92281,5.30512.26041l20.40536.7476-8.15924-6.9288c9.04441-3.41881,19.1872.3636,9.77182-7.488,13.82071,12.108,76.11481,4.34761,84.60123,8.1,12.66684-5.0508,25.17-4.9572,40.65884-4.3476-3.85028-1.4472-6.15518-9.234,7.204-8.2848-4.88443,16.07759,24.46308,6.978,35.26026,18.55079-9.64911-7.6728,37.98-1.896,22.83883-12.7908,11.14774,1.30681.67774,6.0204,9.135,9.80521,26.53134-6.2316,58.47013,4.0488,91.26474,1.94519.51123-2.118-4.98083-5.3376,2.05371-8.4816l17.31464,10.55281c6.47656-1.03081,5.9624-12.18121,17.79663-4.8564-1.671-1.776-4.16577-4.44841.17822-5.12521,64.24555,10.28041,131.28089-8.42519,196.52552,10.896-8.837-4.09561-2.94758-4.494,3.80065-4.64641-4.38781-.9756.09931-5.2092-.76245-8.0748l27.31427,7.94881c4.97791-7.93921,29.2862-.53641,32.13739-8.13l-8.65,1.3716c11.50415-8.96519-16.09644-19.914-14.41376-31.41-12.88006,10.18681-33.96319-15.08159-55.096-.504-4.66534-2.34959,3.97882-3.7056,1.48407-6.36839-5.35772,4.9248-11.8255,5.9496-23.81457,3.744l1.35547-1.2216c-33.67981,1.2012-48.11988-3.6564-85.95673-6.8904l2.80151,5.6832c-8.13-.756-9.84185-2.54041-13.64837-3.96721-9.33063,8.622,22.83594.48961,14.3349,9.99361-10.78546-11.56681-57.33661-.17281-64.62531-13.31881-12.509-.07319,3.66626,6.5808-8.837,6.504l-3.31568-3.55679-3.16089,4.58279c-8.20013-.756-12.33667-5.2068-12.64343-8.21519,1.98944.35759,5.6557-.8412,7.78821-1.10161-10.63354-4.18919-29.98431,1.4268-33.636.0648l12.01831,2.19121c-34.13555,3.32759-75.814-1.3452-108.79266,5.892l2.50354,2.6772c-25.18463,4.9632-20.17166-2.9472-47.8219-.65041l1.005-.636c-5.533,2.66881-12.92389,4.0224-20.49012,3.7152,6.98194-3.144-13.13714-6.0996-3.97882-9.58319-27.30844,5.32919-13.50815,4.1868-31.54434,14.1564l-4.16-4.4592c-6.14643,4.03439-6.66059,6.15839-20.46964,7.30679,11.32593-3.81719-8.8136-6.77639,3.87366-11.82719-28.9765-9.73561-43.028,9.8232-56.32294-4.4064-13.30658,12.3168,25.07657,6.83519,17.6243,9.4752,6.23993,4.0224-10.98413,9.2076-20.07819,7.97159-9.25766-.282-15.74-15.768-39.02584-15.528,2.31662.05881,2.47436-.8784,4.78512-.8172-8.71429-3.1404-17.07507,4.254-27.76417-.852-5.99161,7.4556-13.87915-.42241-15.60566,9.0732l21.36065-2.20081c-12.10885,2.48761-23.464,13.60321-43.41364,8.2092,1.55414-1.9104,7.49025-4.4352,11.56839-5.8356-5.83386-2.8044-11.23245,1.85161-17.27957-1.026,1.72359-9.50641,25.9588-2.0652,38.93236-9.3132-6.26038-4.014-24.542,6.882-18.02159-3.4104-9.37157,13.08479-22.944-1.66081-38.71325,8.3436l1.04-5.69161c-2.49479.8904-7.66553,3.57961-12.25783,3.4368l8.31406-7.38359c-12.76614,6.2964-24.61208-5.5164-36.85821-2.08321,25.64036-.1728,5.755,6.86161,16.596,11.022-7.9058,1.905-12.99528,1.92622-16.7357.92924l-.68588-.19865c-.2177-.07065-.43491-.14469-.722-.21433-.533-.14361-1.04563-.30113-1.54181-.47094a26.24007,26.24007,0,0,1-2.80863-1.15255c-1.7796-.85223-3.41319-1.72725-5.13421-2.69592a37.96015,37.96015,0,0,0-5.65587-2.64981,27.82,27.82,0,0,0-7.5843-1.63135,38.61489,38.61489,0,0,0-10.77323.82917,58.6755,58.6755,0,0,0-14.66714,5.30278,23.11933,23.11933,0,0,1,6.18094-2.27785,34.11556,34.11556,0,0,1,7.22289-.90451c4.3181.093,6.50931,1.26446,2.09535,3.89256-2.22713.3544-4.62986.8156-7.10408,1.2534-2.44419.51882-4.993.95134-7.40878,1.50013l-3.58906.71319c-1.154.25162-2.27881.47795-3.35774.66992a51.95168,51.95168,0,0,1-5.73259.75341c-6.93985,4.39537-9.57638,7.19032-10.233,8.42666-.63595,1.2713.82646,1.20749,2.7584.90965.967-.14955,2.05348-.358,3.06459-.49881a9.94851,9.94851,0,0,1,2.66566-.04093c1.37566.25489,1.64264,1.17863-.55218,3.67617a11.41041,11.41041,0,0,0-7.0477,2.10978,11.13635,11.13635,0,0,0-2.1856,2.24841,17.1659,17.1659,0,0,0-1.60216,2.844c-.46956,1.02823-.91843,2.09734-1.33723,3.2498-.41321,1.15886-.83254,2.36188-1.30787,3.59182-.4894,1.21612-.97878,2.51478-1.58177,3.82324-.60252,1.30926-1.32892,2.61841-2.13949,4.0112L66.318,210.643a47.945,47.945,0,0,0-4.10178,4.17543,33.92273,33.92273,0,0,0-2.84926,3.61978A30.46292,30.46292,0,0,0,57.5372,221.47a14.9104,14.9104,0,0,0-.9809,2.49779,7.10673,7.10673,0,0,0,.71581,6.14192c.82274,1.52158,1.63982,2.8933,1.21436,5.352-.371,2.503-2.16377,5.92326-5.79014,12.33014-.49185-2.379-1.00755-4.85526-1.318-7.32918q-.25887-1.86674-.48392-3.78332c-.11585-1.26064-.21461-2.53514-.30377-3.82685a106.01441,106.01441,0,0,0-4.48525,15.71183c-1.719-1.76194-3.42712-3.59056-5.03721-5.45356l-1.1335,11.99486c-.19445,1.68418-.31419,3.27237-.5381,4.77893-.23157,1.50589-.41915,2.96121-.65794,4.40439-.93767,5.75284-2.5,11.43356-3.46718,20.28522a3.56741,3.56741,0,0,1,3.38137-1.0849,4.63658,4.63658,0,0,1,1.74221.86056,9.85217,9.85217,0,0,1,1.67547,1.41223c2.13945,2.30527,3.79335,6.4791,3.88575,12.39914-3.4368,8.07453-5.502-4.52218-4.6764,12.26075-3.618-3.78894-8.1648-7.94013-2.8416-15.24341-1.8864-.74787-3.624-3.73636-5.496-4.50757-3.9492,8.69675-.89639,21.85434-.83759,27.93066.2136-2.34.52679-5.13565,1.34159-6.57l8.0304,24.3287c-2.1744,3.82987-3.9204.79169-5.64-2.21728.636,4.92828,3.29881,8.33743,3.7908,15.5823-4.7016-1.87549-9.5592-1.4256-11.7768-11.68234l5.2236,23.18063c-2.0448,1.54831-5.628,11.8956-7.3536,8.88663-2.766,12.85086,9.132,31.5239,5.4816,48.561.91081.88517,1.78441,2.66132,2.4552,6.28376-1.0608,16.01172-6.8352,30.19763-.39,49.1774l-8.43121,10.768c1.9152,14.86365,10.6284-14.57736,13.8072,10.172,2.6952,17.522-7.1928,6.54083-9.5388,12.68728,4.248,8.71427,12.9048,23.86423,6.0348,39.96067C33.55182,542.39185,34.79982,538.21436,34.17582,533.23645Zm3.7356,183.31537c-1.2108-3.55231-4.9632-10.63361-1.5444-13.23065C42.99942,707.36719,39.82663,710.49591,37.91142,716.55182Zm232.7679,121.50464c-2.64087,1.90442-6.72488.96124-11.33472-1.23A23.46818,23.46818,0,0,1,270.67932,838.05646Zm691.996-105.64179a1.90133,1.90133,0,0,0,.28437.37976C960.70374,740.717,961.60016,737.90674,962.67535,732.41467Zm2.51636-16.45288c-.80279-1.65344-1.61395-1.53949-2.42279-.84131,1.46161,1.14807,1.5672,4.84351,1.15442,9.05024C965.43774,723.0022,966.48651,720.87549,965.19171,715.96179ZM278.418,221.46593l-3.20175-1.51441C282.44647,218.28113,280.422,219.79312,278.418,221.46593Z" transform="translate(-17.87502 -164.73739)"/><path class="cls-1" d="M239.08238,845.9693a5.61229,5.61229,0,0,1-1.51909-3.14282C236.16692,843.79608,236.1377,844.92407,239.08238,845.9693Z" transform="translate(-17.87502 -164.73739)"/><path class="cls-1" d="M31.13142,419.22925c.0504-.187.0324-.371.0708-.558a2.49928,2.49928,0,0,0-1.0488-.56088Z" transform="translate(-17.87502 -164.73739)"/><path class="cls-1" d="M808.54578,849.34125a14.94522,14.94522,0,0,1-6.53205-2.988C801.82971,847.76569,803.3692,848.96686,808.54578,849.34125Z" transform="translate(-17.87502 -164.73739)"/><path class="cls-1" d="M955.35052,628.77228l1.50605,10.5401c-.28681-5.09772.97918-6.91767,1.902-9.49134C957.405,630.05475,955.44775,632.0675,955.35052,628.77228Z" transform="translate(-17.87502 -164.73739)"/><path class="cls-1" d="M991.17773,537.29425c-.7116-1.53955-.07922-3.26605-.79681-4.78509l-2.68921.42065C987.86456,539.49109,990.03534,544.07751,991.17773,537.29425Z" transform="translate(-17.87502 -164.73739)"/><path class="cls-1" d="M974.58655,619.01508c4.87317-.83551,3.21716-7.44642,2.31482-14.82856a7.4236,7.4236,0,0,1,0,1.30579C970.09851,603.31592,972.34253,611.183,974.58655,619.01508Z" transform="translate(-17.87502 -164.73739)"/><path class="cls-1" d="M976.73456,602.47461a34.56338,34.56338,0,0,1-.12-6.82422C973.887,594.78571,976.04333,598.41693,976.73456,602.47461Z" transform="translate(-17.87502 -164.73739)"/><path class="cls-1" d="M961.96014,695.09192c1.25037-3.4997-6.22558-2.19678-4.248-4.17743C951.51892,687.00574,965.21216,714.25574,961.96014,695.09192Z" transform="translate(-17.87502 -164.73739)"/><polygon class="cls-1" points="972.756 448.301 966.744 450.947 971.592 455.084 972.756 448.301"/><path class="cls-1" d="M986.21216,671.33l1.67279-11.79627c-1.008.17822-1.59363-1.32043-2.0448-3.16083C985.629,663.641,984.43976,671.60748,986.21216,671.33Z" transform="translate(-17.87502 -164.73739)"/><path class="cls-1" d="M985.84015,656.37286c.11157-3.786-.02039-7.388-1.0044-9.49426A52.81359,52.81359,0,0,0,985.84015,656.37286Z" transform="translate(-17.87502 -164.73739)"/><polygon class="cls-1" points="974.56 464.426 973.306 467.914 972.87 476.243 974.56 464.426"/><path class="cls-1" d="M967.114,790.18793a84.78409,84.78409,0,0,1-7.079,10.03491c.2403,1.194,1.17353,1.45019,2.43152.90118a8.17077,8.17077,0,0,0,2.06153-1.38952,15.3571,15.3571,0,0,0,2.072-2.51886c.532-1.57691,1.31195-3.43122,1.684-4.78614C968.61212,791.03235,968.45435,790.07983,967.114,790.18793Z" transform="translate(-17.87502 -164.73739)"/><path class="cls-1" d="M998.99261,761.484a12.34139,12.34139,0,0,1-1.46356,2.04309,7.51551,7.51551,0,0,1-1.41394,1.1496c-.93469.58777-1.89789.93914-3.13373,1.66754l7.0044,2.59637C999.7074,766.3985,999.45789,763.93341,998.99261,761.484Z" transform="translate(-17.87502 -164.73739)"/><path class="cls-1" d="M982.24255,800.38953c.407,1.22284-1.89331,6.37188-3.11883,9.28454-.58649,1.46228-.80182,2.41406-.02966,2.08344.76611-.33216,2.57959-1.91144,5.67388-5.75635a8.4229,8.4229,0,0,1,.77436-3.357c.2586-.70435.534-1.45447.79577-2.16755.23651-.72607.44971-1.41632.59229-2.00384.2854-1.17578.28754-1.93817-.359-1.77307a4.48055,4.48055,0,0,0-1.50189,1.00055c-.34693.3023-.74506.678-1.20264,1.13263C983.38885,799.272,982.84955,799.7887,982.24255,800.38953Z" transform="translate(-17.87502 -164.73739)"/><polygon class="cls-1" points="770.765 664.164 774.04 664.067 773.569 651.848 770.765 664.164"/><path class="cls-1" d="M617.66425,858.14569c15.25506,2.92676,3.62237-7.54681,17.40808-3.888,3.58154-2.892-11.26752-2.988-7.5954-5.484C618.26892,851.82648,613.43414,850.10925,617.66425,858.14569Z" transform="translate(-17.87502 -164.73739)"/><path class="cls-1" d="M627.47693,848.77368a40.125,40.125,0,0,0,4.70038-1.84918A17.16112,17.16112,0,0,0,627.47693,848.77368Z" transform="translate(-17.87502 -164.73739)"/><polygon class="cls-1" points="859.506 62.928 869.319 65.477 862.985 61.369 859.506 62.928"/><path class="cls-1" d="M896.21454,218.59793l2.31073,7.78679,5.89233-7.0452C902.20032,219.68512,897.90015,220.35593,896.21454,218.59793Z" transform="translate(-17.87502 -164.73739)"/><path class="cls-1" d="M22.38522,745.87067l1.9425.99749a8.95052,8.95052,0,0,0,1.72144-4.49011c.07077-.48242.12822-.99811.17665-1.55176l.06645-.85931.02918-.452.03453-.33618c.09073-.886.16025-1.89221.24065-3.04248l-1.09289,1.91712-.54646.95855-.273.48279-.26049.69647Q23.38415,742.98331,22.38522,745.87067Z" transform="translate(-17.87502 -164.73739)"/><polygon class="cls-1" points="10.177 446.016 10.016 448.306 17.059 444.027 10.177 446.016"/><path class="cls-1" d="M19.07022,499.08627c-.2988,4.55725,1.2744,9.91495.9696,14.49265C18.77142,503.64352,27.84462,497.85349,19.07022,499.08627Z" transform="translate(-17.87502 -164.73739)"/><path class="cls-1" d="M52.43708,335.82028c-1.17522-1.06286-2.89209,3.697-3.49392,4.40729C51.72076,340.345,52.95146,334.62119,52.43708,335.82028Z" transform="translate(-17.87502 -164.73739)"/><polygon class="cls-1" points="62.15 171.86 60.85 173.51 66.386 170.616 62.15 171.86"/><path class="cls-1" d="M101.09938,346.99573c1.76391-8.67264-8.25777-2.49527-10.684-7.06732l.2417-2.06684-4.72674,5.373C90.98227,344.48566,98.93045,343.27188,101.09938,346.99573Z" transform="translate(-17.87502 -164.73739)"/><path class="cls-1" d="M104.2298,369.13458c.76452-3.32727,3.69025-1.37991-2.17025-2.214a6.94433,6.94433,0,0,1,.10523.99027A8.39085,8.39085,0,0,1,104.2298,369.13458Z" transform="translate(-17.87502 -164.73739)"/><path class="cls-1" d="M102.16478,367.91083c-2.32923-.87067.22817,3.22189,0,0Z" transform="translate(-17.87502 -164.73739)"/><path class="cls-1" d="M113.27073,371.21378l-4.23513,1.24328c-.251,2.065,2.16065,3.7385.56076,4.55826C113.31854,377.01456,113.55943,374.954,113.27073,371.21378Z" transform="translate(-17.87502 -164.73739)"/><path class="cls-1" d="M118.7909,366.9549l-2.06993.38848C116.62469,368.21521,116.89761,368.67438,118.7909,366.9549Z" transform="translate(-17.87502 -164.73739)"/><path class="cls-1" d="M112.33607,368.15829l4.3849-.81491c.18035-1.44506,1.35591-3.96521-1.898.13861C116.19869,365.3334,114.49094,367.21564,112.33607,368.15829Z" transform="translate(-17.87502 -164.73739)"/><path class="cls-1" d="M111.08455,366.09924c-.82421-2.47934-2.432-4.56952,1.80777-5.79452C106.772,358.62518,104.95635,364.43588,111.08455,366.09924Z" transform="translate(-17.87502 -164.73739)"/><path class="cls-1" d="M106.06611,339.56177l-1.092-3.334-3.16426,1.65955C103.38426,337.07111,105.02572,342.03708,106.06611,339.56177Z" transform="translate(-17.87502 -164.73739)"/><path class="cls-1" d="M129.57054,384.112c.984-1.55066,1.14724-4.84579,1.9547-7.053l-3.0842.82791C129.00521,379.55151,130.60787,381.61514,129.57054,384.112Z" transform="translate(-17.87502 -164.73739)"/><path class="cls-1" d="M131.52524,377.05908l4.60912-1.22754C133.40254,374.09244,132.22194,375.1691,131.52524,377.05908Z" transform="translate(-17.87502 -164.73739)"/><polygon class="cls-1" points="105.612 193.928 97.41 197.234 106.678 194.344 105.612 193.928"/><polygon class="cls-1" points="123.959 225.619 120.272 228.511 126.34 224.379 123.959 225.619"/><path class="cls-1" d="M150.358,393.69876c-2.89219,2.47757-.73327,6.22189-3.11278,7.45282,2.50144.52744,5.7202-1.23907,8.61852-2.82953C153.38307,398.78635,151.6121,397.4939,150.358,393.69876Z" transform="translate(-17.87502 -164.73739)"/><path class="cls-1" d="M160.463,396.19888a22.42109,22.42109,0,0,0-4.59923,2.12317A11.55591,11.55591,0,0,0,160.463,396.19888Z" transform="translate(-17.87502 -164.73739)"/><path class="cls-1" d="M141.25228,379.33588c-.234,1.11435-1.01618,3.93753.26384,5.91967l.9777-5.22906C142.1153,379.81592,141.68692,379.57764,141.25228,379.33588Z" transform="translate(-17.87502 -164.73739)"/><path class="cls-1" d="M142.51959,379.86011l-.02577.16638c1.33007.78058,2.23837,1.35113,2.62313,1.60455C144.78347,381.41873,144.00383,380.88162,142.51959,379.86011Z" transform="translate(-17.87502 -164.73739)"/><path class="cls-1" d="M140.94027,379.16077c.1127.06839.19589.11837.312.17511C141.3536,378.81778,141.35011,378.63712,140.94027,379.16077Z" transform="translate(-17.87502 -164.73739)"/><path class="cls-1" d="M129.93732,366.97754c3.16082-1.64789,8.4736-2.47028,6.55753-8.27686C133.58888,361.19022,134.69348,364.49832,129.93732,366.97754Z" transform="translate(-17.87502 -164.73739)"/><path class="cls-1" d="M142.17285,372.62851l-2.92366-2.73294c-.52645,1.2493-.77446,3.32907-2.33994,4.14563Z" transform="translate(-17.87502 -164.73739)"/><polygon class="cls-1" points="126.698 207.247 124.298 207.891 125.383 208.901 126.698 207.247"/><path class="cls-1" d="M156.68051,389.00778c2.46627-1.28332,4.17231-.65561,6.16558-.08261a15.54434,15.54434,0,0,0-5.25823-4.27667C156.60957,385.96021,154.49163,388.14423,156.68051,389.00778Z" transform="translate(-17.87502 -164.73739)"/><path class="cls-1" d="M149.99668,384.15759c.15508-.0578.30994-.04092.45862-.10183C150.44506,383.562,150.34024,383.36383,149.99668,384.15759Z" transform="translate(-17.87502 -164.73739)"/><path class="cls-1" d="M180.89808,397.782c.02161-.29928.09274-.66519.11885-.97833l-.45743.76486Z" transform="translate(-17.87502 -164.73739)"/><path class="cls-1" d="M157.67857,383.62573c-1.043-1.614-2.47785-.91656-4.00948.08344a11.03351,11.03351,0,0,1,3.91877.93933C158.03219,384.04953,158.26574,383.62943,157.67857,383.62573Z" transform="translate(-17.87502 -164.73739)"/><path class="cls-1" d="M166.55621,396.50562a18.403,18.403,0,0,0-1.32318-3.78348C165.27456,394.54535,165.69854,397.5704,166.55621,396.50562Z" transform="translate(-17.87502 -164.73739)"/><path class="cls-1" d="M150.33006,385.57584a1.91463,1.91463,0,0,1-.3219.09784C150.01457,386.88947,150.187,386.38339,150.33006,385.57584Z" transform="translate(-17.87502 -164.73739)"/><path class="cls-1" d="M150.33006,385.57584a13.22738,13.22738,0,0,0,3.339-1.86667,8.88917,8.88917,0,0,0-3.21379.34659A7.53929,7.53929,0,0,1,150.33006,385.57584Z" transform="translate(-17.87502 -164.73739)"/><path class="cls-1" d="M200.81973,370.87881c-2.3474,4.14466-8.16341,6.19431-9.281-.02493-4.86577,1.58832-9.56812,16.68909-10.52178,25.9498,1.01149-1.811,1.85263-3.53293,6.48364-4.39722-.05305-2.908-4.87487-9.13766-.12046-11.60171,5.57318.00329,2.94841,3.31531,4.03582,6.63772.73616-6.22314,9.50679-4.94244,12.34826-13.24493l-5.29186.82593C198.99343,373.76889,201.37257,372.52713,200.81973,370.87881Z" transform="translate(-17.87502 -164.73739)"/><path class="cls-1" d="M174.755,393.20667l-1.65677-.15357c1.23149,1.52039,1.53787,3.78684,2.004,8.15863,3.34758-.95434,4.60306-2.30026,5.45727-3.64319l-6.594-3.95828Z" transform="translate(-17.87502 -164.73739)"/><path class="cls-1" d="M166.81176,390.00494c3.36138-4.11276,7.68618-4.45218,8.08564-10.48458-4.26105-1.68079-4.77161,2.47836-8.20812,3.29708,7.186,2.07859-3.16609,1.65866.33252,6.62769a10.56319,10.56319,0,0,1-4.17571-.52,19.45,19.45,0,0,1,2.38694,3.797l-.01064-.36313-.03477-.00763.03589-.05725c.00016-.72379.07978-1.12561.23945-.63629.04775-.04209.13718-.02112.18442-.02744a11.45863,11.45863,0,0,1,1.15175-1.59958c1.44932,1.89524-.2834,1.34531-1.15175,1.59958-.13782.2265-.29527.41669-.42387.66373a.37146.37146,0,0,0-.00112.06488l7.87587.69409C172.01116,391.71942,170.18939,390.99243,166.81176,390.00494Z" transform="translate(-17.87502 -164.73739)"/><path class="cls-1" d="M144.91264,350.43906a2.61029,2.61029,0,0,1-.31349,1.17968C145.30558,351.26,145.65744,350.95245,144.91264,350.43906Z" transform="translate(-17.87502 -164.73739)"/><path class="cls-1" d="M146.27188,354.57535c-.79779.40893-2.10567,2.06848-3.44178.82953-.67926-2.05728,1.093-2.22126,1.76905-3.78614-1.54769.77317-4.9346,1.71762-3.07793,5.42917l.77933-.40591c1.89061,2.90008,2.49,10.37262,1.71132,10.78421A52.20351,52.20351,0,0,0,146.27188,354.57535Z" transform="translate(-17.87502 -164.73739)"/><path class="cls-1" d="M157.31185,371.19724l6.63553.42071-.84924-5.39365-1.03664,2.48386C159.38342,366.226,158.61033,369.52908,157.31185,371.19724Z" transform="translate(-17.87502 -164.73739)"/><polygon class="cls-1" points="162.526 235.665 159.395 240.216 165.974 234.839 162.526 235.665"/><polygon class="cls-1" points="169.988 238.587 167.643 242.716 170.793 241.072 169.988 238.587"/><path class="cls-1" d="M593.7404,471.21356l1.03265-2.00155A5.259,5.259,0,0,0,593.7404,471.21356Z" transform="translate(-17.87502 -164.73739)"/><path class="cls-1" d="M581.84922,476.663l.73957,2.24433C582.56718,477.48349,582.37211,476.51837,581.84922,476.663Z" transform="translate(-17.87502 -164.73739)"/><path class="cls-1" d="M364.37791,488.94861c.41711,5.13983.03894,12.61029,2.099,7.66955l1.55771-5.0299A3.57237,3.57237,0,0,1,364.37791,488.94861Z" transform="translate(-17.87502 -164.73739)"/><path class="cls-1" d="M498.747,519.99042c.00009-.57019.00018-1.16431.00024-1.75342-1.35907,1.32654-2.63708,2.574-3.77975,3.68933C496.12284,521.30481,497.4015,520.6673,498.747,519.99042Z" transform="translate(-17.87502 -164.73739)"/><path class="cls-1" d="M509.86967,501.44977l1.64163,4.54135A12.38648,12.38648,0,0,0,509.86967,501.44977Z" transform="translate(-17.87502 -164.73739)"/><path class="cls-1" d="M655.48649,434.90561l-.43109-5.68442C652.10264,430.68893,654.57963,432.45319,655.48649,434.90561Z" transform="translate(-17.87502 -164.73739)"/><path class="cls-1" d="M262.21905,437.50592c1.14629,2.82629,2.39386,4.38794,3.70975,5.31119C264.7823,438.93164,264.76863,433.9328,262.21905,437.50592Z" transform="translate(-17.87502 -164.73739)"/><path class="cls-1" d="M613.36625,523.11389a3.89368,3.89368,0,0,0-.00079-3.52136A3.195,3.195,0,0,0,613.36625,523.11389Z" transform="translate(-17.87502 -164.73739)"/><path class="cls-1" d="M271.82835,445.67892a15.12717,15.12717,0,0,0-.54086-1.62643,8.26371,8.26371,0,0,1-5.35869-1.23538C266.77061,445.69635,268.24339,447.95163,271.82835,445.67892Z" transform="translate(-17.87502 -164.73739)"/><path class="cls-1" d="M890.10691,325.1a5.018,5.018,0,0,1,.8006.3034C890.64744,324.74118,890.39805,324.82428,890.10691,325.1Z" transform="translate(-17.87502 -164.73739)"/><path class="cls-1" d="M980.96183,339.17722a10.35738,10.35738,0,0,1-2.606,1.72308C979.014,340.97943,979.83818,340.53812,980.96183,339.17722Z" transform="translate(-17.87502 -164.73739)"/><path class="cls-1" d="M215.74647,419.47113c-1.67158-.43857-.49213.39533,0,0Z" transform="translate(-17.87502 -164.73739)"/><path class="cls-1" d="M217.38194,397.35123a4.87912,4.87912,0,0,0,1.7189-1.977A6.29331,6.29331,0,0,1,217.38194,397.35123Z" transform="translate(-17.87502 -164.73739)"/><path class="cls-1" d="M301.21437,423.96918c.04483.02188.07153.05764.12274.08264C301.33216,422.91422,301.3235,423.129,301.21437,423.96918Z" transform="translate(-17.87502 -164.73739)"/><path class="cls-1" d="M214.495,416.22485a7.697,7.697,0,0,0,1.26895,2.33866A8.05419,8.05419,0,0,0,214.495,416.22485Z" transform="translate(-17.87502 -164.73739)"/><path class="cls-1" d="M213.7229,418.58682c-.42217-.46664-.7777-.78454-1.10927-1.10278C212.04237,418.16656,211.97175,418.7424,213.7229,418.58682Z" transform="translate(-17.87502 -164.73739)"/><path class="cls-1" d="M217.99185,420.25146a5.56141,5.56141,0,0,1-2.22789-1.688c.14206.46737.14145.78628-.01749.90762C216.22747,419.618,216.90492,419.82867,217.99185,420.25146Z" transform="translate(-17.87502 -164.73739)"/><path class="cls-1" d="M771.52806,398.53448a4.52784,4.52784,0,0,1,.53973.27723C772.65562,396.122,772.13182,396.75848,771.52806,398.53448Z" transform="translate(-17.87502 -164.73739)"/><path class="cls-1" d="M427.72615,459.72543c-.09452.01261-.19257.11829-.28067.134l.14016.28347Z" transform="translate(-17.87502 -164.73739)"/><path class="cls-1" d="M434.89317,458.91669c-5.17127,4.683-6.14563,3.32031-7.30753,1.22622L422.808,474.50977Z" transform="translate(-17.87502 -164.73739)"/><path class="cls-1" d="M621.21531,456.12314l-5.89593-2.3338c1.255-9.18174,5.77325-8.43466-.71558-12.57825,6.61151,14.912-14.19543,8.78259-7.57849,23.68262l-4.03589-1.84409c.79358-.214.49048-1.12906,1.27533-1.34015-8.34644-4.60513,1.51379,12.37131-5.84308,13.39279-2.75793-.04171-5.3371-1.41012-4.68127-3.8887l-3.156,6.02762c-1.573.41315-2.46472-2.30038-.90075-2.71582l-6.94111,4.83832-.1538-.45639a54.71438,54.71438,0,0,1-1.09388,9.64389c-2.937-1.17359.199-2.02033-1.17785-3.6008l-2.429,5.575c-3.55261-2.97632-1.90021-8.33493,1.23889-9.19388-11.026-12.72229-1.65448,5.36362-14.20941.91919l3.0221-3.772c-6.58765-7.06555-8.1828-2.5589-15.153-5.56857,2.37439,2.18963,15.26312,8.704,12.53095,14.558-1.81073-.48169-3.74378-.18649-4.74,3.94876-2.56788-5.19885-4.3191-2.75546-7.1493-1.00436l-3.16839-7.00095c-2.24365,3.564-.27393,6.95163-.651,10.97943-3.9173,1.07215-7.26947-3.90518-10.31244-7.99454-6.2768,1.70923,8.149,6.6287,1.9898,11.252a8.36468,8.36468,0,0,0-3.8728.62649,7.34965,7.34965,0,0,0-1.53161.9159,6.62671,6.62671,0,0,0-.67456.5871,4.12662,4.12662,0,0,0-.17023.44653c-.42334,1.31009-.63349,3.56393-1.46546,6.52652a4.15734,4.15734,0,0,1-1.42791-3.33093,8.75343,8.75343,0,0,0-.60981-3.34891,58.1733,58.1733,0,0,1,.092,6.77289c-.38336.02032-.58953-1.969-.71289-2.96518a21.42134,21.42134,0,0,0,.07929,5.51352c.14734,2.02227.19665,4.0509-.95416,5.76892.026,2.34045-.41138,2.87158-1.0373,2.4967a4,4,0,0,1-1.02844-1.13739c-.18115-.2663-.36426-.56158-.54632-.87115q-.26262-.717-.54081-1.47644a22.3862,22.3862,0,0,0-2.00171-4.73819c-.66217-.84546-1.35543-.62882-2.504,1.48053a9.23072,9.23072,0,0,1,.56933-3.66483,24.07567,24.07567,0,0,0,.973-4.12778,19.80113,19.80113,0,0,1-2.48281,2.69162l-1.785,1.58438c-.56546.51255-1.15167,1.0907-2.0166,1.92545a50.341,50.341,0,0,1-3.853,3.38507l-.12927-.76413-.30627-.85058-.61252-1.70118-1.22507-3.40234c.89728,6.84878-6.47241,10.83859-12.76431,13.9993-.00665,3.09509-.03851,5.792.14792,7.17718l-7.92569.71326c-.18582-1.493,1.58923-3.56409,3.99826-5.95453-.69507.36566-1.366.73505-1.93009,1.10858-.94116-3.61957,2.13678-7.04547,5.58655-10.13348.08057,1.72479.11191,3.53638.12329,5.33557,3.55793-3.45319,7.23853-7.40335,8.898-11.59824a4.72114,4.72114,0,0,1-2.917.88687,6.18038,6.18038,0,0,0,1.85449-2.61856c.14585-.82489-1.23666.38688-3.09768,1.66l2.3656-8.36936-1.829,2.88874-5.654-8.7183c-9.50521,4.93921-20.05542,13.90738-30.69189,12.63672,5.00909-4.53656,4.98267-8.97137,8.36862-15.59225-.97522,8.28461,8.50507.43783,12.51584,4.17059-2.094-1.94574.00488-4.87225,1.16653-5.66437l-11.541,2.32477c2.86017-5.37527.21686-4.96768-.87326-8.30078-3.61719,11.611-9.77615,4.1351-14.81073,5.77451,1.557-3.72544,4.18823-7.03434,7.9281-4.115-.628-10.3819-12.13959,9.77569-13.28034.65915,1.05976.41348,1.3382,1.23464,2.64332-.41691-3.95484,2.06531-8.51984-3.33377-5.61283-5.81613l1.05228.42185c-6.13413-4.58432-20.5397-10.13346-26.02948-1.45252.51486-1.22558,6.28686-10.62338,7.601-12.27719l-27.13424,24.96256c4.91009-7.35746,9.99118-28.10276,17.776-29.82373-1.06162-1.90754-2.41279-4.19153-7.16669-3.06409.55047,1.65784-2.82611,12.72522-4.68009,12.71573.16452-10.78006-.56671-6.09033-1.99307-16.04355.82434,2.486-7.0405,13.94925-9.44678,12.281,1.30719-1.64655,5.73551-12.291,7.3154-13.11387L399.07737,461.597c2.68183-1.39306,5.30527-10.13729,5.53488-14.28009-.49032,2.708-5.49188-2.94979-7.80362-2.59262l1.36847,4.15686c-6.41244-5.40811-15.548,13.52094-22.48809,9.34153,2.09927-2.07163,9.69833-14.35645,6.7536-17.6793-4.72208,5.38193-22.07325,26.21143-30.82529,27.86057l.5036-4.15189-6.89856,1.64106c7.63007-7.84778,25.8375-23.30957,34.27185-28.665-1.36194-4.147,1.28662-4.56534-2.97067-6.23761.17984-4.03626,4.698-3.95536,5.9996-3.56394l-8.48831-6.80673c-3.11829,7.45947-10.845,3.7078-13.43109,9.92474l14.03024-2.45632c-3.11654,7.44427-16.03891,17.64691-22.17557,13.0747-.307-3.7305,7.58924-12.27627,8.63031-14.76462-2.09466,2.06452-8.74285,1.63492-8.49942-.43774l4.76072-2.477c-2.431-4.56235-10.83286,6.6091-11.97449-2.51724-1.33249-1.22782-.10043-11.60794-2.46384-7.45374-1.49649,9.51639-13.49655,35.34372-18.22873,40.73007-.27292-.82778-4.33044-11.91-4.115-16.86776.60016-7.744,11.40784-13.57346,11.94144-20.21207a12.90094,12.90094,0,0,1-4.65106,4.1839c-.81174-2.49326,3.67593-5.80478-.322-6.64923-4.1807,7.05136-6.94-4.15662-4.71833,5.39044-4.50906.399-2.95843-3.32956-7.21035-4.99655-1.01639,5.38248-11.56388,14.3613-16.082,14.76257a15.87826,15.87826,0,0,0,1.68872-5.88473c-6.81592-4.15082-9.01764-9.36106-15.6445-12.677.25546-2.07883-1.9051-5.80124,1.00875-8.29764-1.59417.8359-3.69159,2.89908-5.8302,2.06943-.8713-8.29316,5.05942,1.2521,5.76422-7.87241-2.34451,4.14337-8.19415,3.30792-12.41943,4.54266-2.32413,7.0394,6.1377,4.57007,10.36914,3.33432-4.429,9.1016-14.18281,16.14032-23.19784,16.9505-6.63495-.44049.47393-7.04974-1.11615-6.22918-9.6126-6.66147-16.61022,11.56372-22.02788.78262-.59381-7.46313,5.47375-11.5975,6.75943-16.15393,5.57774.00552,5.11911,7.05871,8.28668,8.31619l-2.4193-4.57931c2.37676-1.23227,6.09536-1.21872,6.91762,1.253-.32776-6.60266-17.06512-9.5647-22.73048-18.28989-2.37024,1.2421-5.81473,2.06094-5.78925,4.95813l2.93021.431c.04869,5.81061-7.9305,4.13388-5.78688,7.88406-5.00759,1.62589-11.34363,4.928-14.84155-.05407l2.32887-7.04911c-.84143,1.98224,1.20921,5.46131,3.53753,4.10791-3.42987,1.95987-2.97071-12.53726-9.38742-4.9475l1.11945,6.22009c-5.03815,1.65368-12.68939,6.61175-15.91357,2.45123-1.25789,7.47211,1.34344-.26926.62756,8.84317,2.029-10.78277,10.66159,5.70349,11.33781-6.33041-1.234,10.37249,3.52341,6.3674,3.873,15.90948.94075-2.24353.608-4.87811,3.64344-2.05853a11.8259,11.8259,0,0,1,1.72041-1.53949,1.61423,1.61423,0,0,1,.161.2803c-.02919-.12112-.03589-.24191-.07073-.35373.31519-.25338.36366-.31784-.031-.122a8.7093,8.7093,0,0,1-.19449-4.20437c4.214-4.14237,9.80393-1.21945,12.98636-2.8768,1.60641,2.07214-2.10831,2.07385-2.08986,4.96225l4.75617-2.47922c-2.07982,4.9765,1.68566,10.79038-4.68059,11.19565l4.3772,2.4053c1.31333,4.003,4.41481,6.85892,7.64878,5.91452,1.60378,2.07755,7.95954-2.75342,4.26494.1402l8.49593.43335-.52393,1.23718c6.63625,4.00162,18.1969-1.046,21.85372,11.57532,2.93219-.08081,6.07589-.39755,9.31237,2.8822l-1.28555,4.56317c3.70853.00861,6.95511,8.59131,10.37561,4.856-2.27334,12.855,13.34885,9.56967,17.64548,14.14319l2.87128-5.3725c3.48031,2.078,7.72064,2.2222,13.29574,2.23313l2.08255-4.96585c5.82221-2.06931,8.30734,8.31564,14.69418,10.81982-1.32064,1.644-2.6434.40085-3.19842-1.25922,2.00253,14.51236,19.36377-.37185,22.13483,10.83521,2.52044-.95374,3.42758.236,4.0003,2.01285a.69551.69551,0,0,0-.53738.05667,2.53441,2.53441,0,0,0,.65017.39639c.32639,1.18912.60886,2.52374,1.04926,3.69507a11.13158,11.13158,0,0,0-.67453-3.53473,13.34369,13.34369,0,0,0,6.05661.588l-1.72534,5.58637a4.29528,4.29528,0,0,0,.5104.07037c.93146,2.82556,2.70145-1.72534,3.61545-6.12146a12.93072,12.93072,0,0,0,4.043-1.89807c-2.57791,9.1217,6.37-.38742,4.07352,9.56091,3.41043-3.73089,11.16333,1.39313,16.66031-7.291-.5213,1.23178-.23883,2.07489-1.3042,1.652,1.61124,2.07852,3.2196,4.15829,6.38568,2.49963l-2.32517,7.04156,8.96448-6.6123c.84766,5.39688.87061,8.30615-4.4028,12.02048,10.56458-4.52723,6.90982-.27063,16.42682-5.21076l-2.36395,4.12988c2.12967.83866,8.20373-3.28585,7.71563.84818.62034,10.35815,22.14377,12.20581,30.22724,25.50574,3.858-13.68756,2.72415,8.29809,7.94818-1.21381-.76471,3.30451.05414,5.7879-3.11127,7.43353,7.42987.02344,6.71939,9.13184,14.88068,2.94184-.77078,3.32159-3.41144,3.72375-3.66507,5.79413.79687-.40943,3.17248-1.65558,2.92837.43017-.252,2.06708-2.09582,2.05988-3.67938,2.89032,6.38111,2.49738,11.47684-6.36,16.1214-14.73663,1.12326,5.5863,2.95261,5.77606,7.95572,1.22857-.292,3.34308.07767,7.16559-4.22952,6.31434a45.50762,45.50762,0,0,0,6.73587,4.96789c4.34671,2.26874,8.711,3.415,9.99017-.22845.31311,2.32184,3.9325,2.55395,4.86154,2.01953,6.31534,3.6004,6.90445,4.65747,13.30866,6.97381l-1.70575-2.22216c.72125-2.2226,1.34579-3.34858,1.98834-3.75232a1.119,1.119,0,0,1,.48541-.17408c.16364-.04644.32956.09333.499-.09253a2.40447,2.40447,0,0,1,1.06829-.3695c1.48169-.1659,3.43946.56817,5.78064-1.19507l-.02441,1.059a13.18476,13.18476,0,0,0,6.12451-.27631,4.84407,4.84407,0,0,0,2.275-1.75268,3.87414,3.87414,0,0,1,2.25262-1.54535c1.23505-.32416,3.13739-.34937,6.80322-.01892q-1.43307-2.50526-2.80774-5.03894c-.90832-3.001-.67419-4.32978.29181-4.76813a3.52369,3.52369,0,0,1,1.96-.09387,21.61421,21.61421,0,0,1,2.5003.77777c3.65485,1.30975,8.25409,3.22186,9.71655-.12683l-3.25018-2.07434c.87305-5.14081,15.0274,11.398,18.4516,11.44952,1.07153.67719-.18829,2.00977-.67609,3.12817,10.3935,3.06159-2.37518-7.22283,2.20783-11.41406,2.77362,3.17389,3.26977,9.91895,7.20447,8.83832,3.23761,2.07642,4.65411-16.97223,12.99414-12.36395-2.45935-2.28705-4.90674-4.57056-3.45435-7.90167,3.31891-2.86988,15.50128,5.60681,14.60474-4.95588a4.79194,4.79194,0,0,1,1.769,1.87769c1.79468-3.71332,7.6098-8.429,7.01288-14.10046,11.41681,16.54589,13.86737-17.53693,21.851-1.02872l8.53052-5.25949.58758,1.79641c6.25891-1.71118,6.35559-6.64907,6.43775-11.58654,1.87182.47458,1.659,2.48965,1.9685,3.40155,9.99359-.76429,10.4823-1.87378,13.48779-13.51453l3.34266,4.99265c.38458-4.0355,16.19622,2.47342,21.35858-7.773a5.08914,5.08914,0,0,1,.27044,2.8421c6.17139-10.78467,29.34772,4.01413,23.22669-17.0979l3.75189-7.77313c-8.62195,2.34329-2.95361-9.02366-7.77246-10.66428,2.543-2.65656,10.88312,1.95169,7.5625,4.81577l-1.07184-.68241c3.55469,10.82681,11.55469-1.19031,14.71814,5.82373,15.26636-8.09039,33.1369-9.85248,47.88208-16.51968l-5.52716-7.0694,5.28973-2.02569c2.22541,1.182,4.80127,5.3005,1.02509,6.74044,4.08569,3.54126,4.233-6.714,3.50311-8.47027,8.63983-.26862,1.72553,10.54638,3.98847,9.67206l2.66351-2.025-1.11615-.5993c.81653-4.38938-.64148-7.91208,3.89478-9.64853,3.52435.24029,3.78851,4.17792,5.01757,3.94879.27277.57459.76441.65363,1.77491-.57721l6.71545-2.44833-5.59515-4.97812c1.3305-4.45484,6.16552-2.60712-.22785-8.22235,9.64051,8.76614,25.73365-7.73187,30.03705-5.65784,1.748-6.4751,5.70288-8.30279,10.81873-10.12335-1.8404-.71164-5.97962-7.35587-1.38135-8.54566,5.52783,15.193,10.72021,2.52942,19.17938,11.277-6.38806-5.41882,11.05634-7.51092,1.53491-14.985,4.063-.53033,2.85462,5.30588,7.16309,7.41349,5.5697-9.656,20.07935-5.3024,29.42145-12.207-.76966-1.98127-3.90186-4.0344-3.0799-7.935l10.05164,6.8345c1.57483-1.9165-3.48023-11.85684,3.43908-7.08481-1.30255-1.34027-3.2564-3.36-2.19372-4.63238,24.62231-.58621,37.39551-27.64374,66.29871-20.25931-4.56373-2.32879-2.89515-3.58728-.84968-4.756-1.80169-.20569-2.25531-4.6958-3.78283-7.13886l12.03876,2.96573c-1.92646-7.89474,8.9317-4.96,6.49121-12.219l-2.10559,2.555c-.33393-9.81451-13.77906-15.43207-18.29816-26.01883.43945,11.12256-17.25067-8.35812-17.46729,7.97159-2.49163-1.39786-.381-3.938-2.33069-5.94913.48456,5.2443-1.0902,7.15406-5.81109,7.00547l-.11188-1.3049c-10.0152,6.22909-16.6673,4.07235-29.93042,6.952l3.3714,4.67813c-2.87671.56384-4.19574-.77774-6.01349-1.47772.86365,9.1738,7.363-3.05182,8.87341,6.78766-8.45288-8.744-18.02331,8.61175-26.07476-2.08582-3.9477,1.84693,4.036,5.35245.08856,7.19522l-2.599-2.68887,1.022,4.60107c-2.89862.57456-6.147-2.79211-7.56341-5.44836.77966.01715,1.40112-1.6206,1.95434-2.18066-5.16723-2.13819-8.75946,5.86676-10.5003,5.20132l4.72375.1312c-9.22455,8.20944-24.32165,10.3836-31.46814,21.929l1.95874,2.02274c-5.70483,8.31042-7.60772.43619-15.25463,6.72778l.0354-.72513c-.56055,3.244-2.28,5.59037-4.78315,6.47126.80555-3.89255-6.78936-3.472-5.45166-8.00242-6.209,8.964-2.39068,5.82743-3.66052,17.54322l-3.2594-3.37064c-.15314,4.56482.61817,6.55191-3.20032,9.69525,1.86982-5.16165-5.73309-4.74115-3.97857-11.21936-13.34333-4.31707-9.15705,15.40561-19.56421,4.65277,1.24078,13.10163,10.84949,2.30729,9.67554,5.81888,3.71875,2.66013.60314,9.95282-2.786,10.23276-3.02154,1.16217-11.84771-11.76126-19.03131-7.98511.751-.30139.389-1.1676,1.13916-1.46594-4.10614-1.48929-3.47766,6.4332-9.06469,3.47971,1.39691,7.61523-4.52985,1.74267-.90247,10.53872l5.72034-5.24362c-2.69849,4.08667-1.374,15.81061-9.98621,14.01434-.352-1.95419.39795-5.13046,1.05982-7.01233-3.057-1.6278-2.70331,3.38123-5.8592,1.72025-3.633-8.80533,7.21918-5.82486,8.09888-14.32111-3.72143-2.64944-4.6615,9.93625-7.13794-.30877,2.80963,13.19-7.91089,2.016-8.45587,13.41641l-2.17261-5.2731c-.39013,1.18152-.82831,4.38849-2.32849,4.96234l-.6383-7.90561c-1.23249,7.6095-10.12531-1.19336-12.45166,3.764,7.95007-4.07581,4.813,5.28537,10.03259,7.366-6.55414,11.68213-12.23236-10.60781-22.11432-2.73565,1.14716-1.45652,7.13238.31814,5.94574,3.83862-2.62524-.02512-6.37061-.62753-8.98114-2.68845-6.81934,4.65863,3.702,4.71964,2.11444,9.39484-5.54645-5.01526-2.36627,4.29837-4.61121,7.86435l-2.56414-5.19131c-9.99714.75,3.07806,11.92636-6.42749,11.56814l-.338-8.7655-3.01684,3.78277-2.08032-6.31311c-2.12909,6.47425-4.01105,5.99524-9.01,6.37644,2.759,3.181,4.06177,9.70166.4367,11.67813-4.03595-1.85342-.99939-5.63516-5.89038-2.32715-.402-3.83023-1.09826-8.55038,3.52423-4.88406-.59387-1.80933-.42108-3.82758-1.00128-5.62754-4.45563-2.21868-7.23431,2.5362-9.11047,3.51813a3.58634,3.58634,0,0,1,2.64538.20087l-4.09069,10.93551c-2.1532-1.36816-1.96857-3.40155-1.78144-5.40673-1.26349,1.325-1.16186,4.23889-3.21374,5.78875-1.4765-4.51129-3.74939-8.80719-1.51221-12.36807l-4.96326,8.238c-1.38214-1.60059-6.19378-3.238-6.00927-5.24863-5.23664-.52035-5.85944,13.02551-12.79462,12.35059a4.26044,4.26044,0,0,1-.88928,3.16687c-5.4776,1.49511-12.45252-1.52427-15.56464,7.169l-7.07117-5.9292c-3.812,3.9936,9.228,7.321,2.87616,13.96152-4.30181,5.10089-5.20446-5.46283-8.15808-6.63095-.86328,5.14941-1.80584,15.24426-9.85974,11.53259C618.0756,456.96237,619.931,457.445,621.21531,456.12314Zm-55.74164,31.38632c.58051-1.6311,1.15009-6.08551,3.46357-3.41071C570.58183,490.67679,568.20988,488.30435,565.47367,487.50946Zm-70.288,18.35172c1.66251-1.30738,2.52689.16458,3.00809,2.83831C496.93821,508.615,495.84489,507.84589,495.18571,505.86118ZM234.49984,423.38861a1.572,1.572,0,0,0,.24372-.19748C236.23329,426.42963,235.74705,425.19446,234.49984,423.38861Zm-4.04556-4.77676a2.58969,2.58969,0,0,0-1.32677,2.04831c1.0009-1.13776,2.204-.66758,3.33959.34655C232.766,419.46732,232.56065,418.19974,230.45428,418.61185Zm574.43407,6.98828-1.66687-.87116C804.75151,422.12253,804.78141,423.79065,804.88835,425.60013Z" transform="translate(-17.87502 -164.73739)"/><path class="cls-1" d="M508.5492,503.58261a12.03637,12.03637,0,0,1-.90393,3.05615A2.5563,2.5563,0,0,0,508.5492,503.58261Z" transform="translate(-17.87502 -164.73739)"/><path class="cls-1" d="M655.56553,435.95544c.08063.0167.13031-.02761.20569-.02169a5.13616,5.13616,0,0,0-.28473-1.02814Z" transform="translate(-17.87502 -164.73739)"/><path class="cls-1" d="M331.77616,413.47919a6.395,6.395,0,0,1,.73319,3.68359A2.61435,2.61435,0,0,0,331.77616,413.47919Z" transform="translate(-17.87502 -164.73739)"/><path class="cls-1" d="M198.84281,414.12274l3.96026.25846c-1.72156-.52176-1.73557-1.9376-2.13616-3.16028C200.146,412.4729,199.91694,414.53928,198.84281,414.12274Z" transform="translate(-17.87502 -164.73739)"/><path class="cls-1" d="M185.93354,367.94357c-.79423.404-1.0571-.42822-1.84756-.01571l-1.04865,2.48065C185.167,371.2565,187.55543,370.00726,185.93354,367.94357Z" transform="translate(-17.87502 -164.73739)"/><path class="cls-1" d="M204.23161,395.34674c1.87739-4.50647-.91879-4.02933-3.62564-4.34726a.91248.91248,0,0,1,.40875.19965C197.34762,396.97885,200.7951,396.1655,204.23161,395.34674Z" transform="translate(-17.87502 -164.73739)"/><path class="cls-1" d="M199.99691,390.88757a4.283,4.283,0,0,1-2.18878-.9356C196.34028,392.27057,198.42338,390.88821,199.99691,390.88757Z" transform="translate(-17.87502 -164.73739)"/><path class="cls-1" d="M222.5032,418.32443c-.54666-1.65866-3.42015,5.258-3.17213,3.17819C215.38926,426.46973,229.92921,418.33264,222.5032,418.32443Z" transform="translate(-17.87502 -164.73739)"/><polygon class="cls-1" points="191.528 215.279 189.717 221.086 193.14 217.363 191.528 215.279"/><path class="cls-1" d="M225.70983,392.9l-2.95823-3.30676a2.19693,2.19693,0,0,1-1.8869,1.354C223.04708,392.24835,225.01878,394.535,225.70983,392.9Z" transform="translate(-17.87502 -164.73739)"/><path class="cls-1" d="M220.8647,390.94724c-1.13613-.67917-2.32155-1.11133-3.41275-.54923A7.24222,7.24222,0,0,0,220.8647,390.94724Z" transform="translate(-17.87502 -164.73739)"/><polygon class="cls-1" points="197.367 216.123 197.909 217.784 200.324 219.45 197.367 216.123"/><path class="cls-1" d="M264.89926,413.32144l4.7836.4256c1.31439-1.64969.77024-3.32047-1.089-3.31918C266.99761,411.24939,265.1528,411.235,264.89926,413.32144Z" transform="translate(-17.87502 -164.73739)"/><path class="cls-1" d="M259.937,392.57687c.54224,1.65381.02548,2.89716-.228,4.97425l3.39227-6.63382Z" transform="translate(-17.87502 -164.73739)"/><path class="cls-1" d="M272.45191,396.75635c1.30945-1.66278,8.45267-2.47382,3.14032-4.55063C274.2844,393.84659,269.49337,393.42,272.45191,396.75635Z" transform="translate(-17.87502 -164.73739)"/><polygon class="cls-1" points="311.161 270.151 310.093 269.738 304.877 280.789 311.161 270.151"/><path class="cls-1" d="M395.39018,434.75485c-3.49051-4.96237-4.44629,6.22714-7.15558.8317-2.39044,2.05093,2.21548,4.40765-.02951,6.08893C392.42729,440.34036,393.187,442.62259,395.39018,434.75485Z" transform="translate(-17.87502 -164.73739)"/><path class="cls-1" d="M388.20509,441.67548a13.41263,13.41263,0,0,0-2.283.94284A6.04016,6.04016,0,0,0,388.20509,441.67548Z" transform="translate(-17.87502 -164.73739)"/><polygon class="cls-1" points="977.221 174.849 981.411 175.638 977.626 172.916 977.221 174.849"/><path class="cls-1" d="M997.01182,328.5592l4.14105,6.64335-1.24786-7.23127C999.36265,328.62085,998.311,329.88107,997.01182,328.5592Z" transform="translate(-17.87502 -164.73739)"/><path class="cls-1" d="M550.058,477.58188l.58911,1.79965c1.36512,1.58884,2.14863,1.37039,3.73.95581Z" transform="translate(-17.87502 -164.73739)"/><polygon class="cls-1" points="576.388 297.736 575.601 297.942 580.032 303.616 576.388 297.736"/><path class="cls-1" d="M625.27488,437.32864c-1.55768.42832-2.54425,2.66111-4.1109,3.08719C623.7172,437.757,629.512,445.02417,625.27488,437.32864Z" transform="translate(-17.87502 -164.73739)"/></svg>