<svg id="Flourish-2" xmlns="http://www.w3.org/2000/svg" viewBox="0 0 939.00421 267.57183"><defs><style>.cls-1{fill:#a0a0a0;}</style></defs><path class="cls-1" d="M248.07423,189.02836c13.49636-3.26328,27.2-6.82132,41.11-7.69374a55.62559,55.62559,0,0,1,30.07788,7.00864c18.7527,10.65958,33.51883,31.83566,27.84261,54.09029-6.20891,24.34317-31.21532,36.64934-53.95261,40.8308a431.87539,431.87539,0,0,1-81.07934,6.85641c-45.30783-.45834-96.20367-19.70965-119.69288-61.56817-20.84509-37.14662-12.9133-92.60981,29.01421-111.17931a70.725,70.725,0,0,1,14.42707-4.643c1.82819-.37615,3.70126-.64427,5.78426-.91287,4.707-.607-2.34662.04459,2.41962-.22179q1.515-.10462,3.032-.17305-2.17224.04374.59292-.00643a116.84916,116.84916,0,0,1,12.56693.55626c5.743.582,11.47262,1.42983,17.14895,2.47262,26.69857,4.9048,53.08609,12.20752,79.30033,19.18879,55.20316,14.7015,109.90208,31.20368,164.867,46.75513,110.78864,31.34589,223.84926,58.58443,339.6383,59.19737,28.28767.14975,56.81289-.939,84.85428-4.85282,25.69328-3.58612,51.57958-9.64895,74.8832-21.34372,21.11178-10.59481,39.56025-25.25513,52.24667-45.38534,11.505-18.25566,18.59174-39.73221,17.13333-61.48093A76.93252,76.93252,0,0,0,981.651,75.9361c-2.06959-3.95842-11.26-3.43343-15-3.43343-1.03151,0-16.20789,1.12315-15,3.43343,22.3977,42.839-.58976,95.36422-37.20937,122.08823-21.13037,15.42036-46.24812,24.12293-71.78,28.895-26.08306,4.87511-51.61086,5.81229-77.81961,5.81-116.00149-.00993-231.8986-31.28223-343.594-63.32442-57.25579-16.425-114.34413-33.502-172.10692-48.08944-27.51006-6.9474-55.20425-14.07854-83.59342-16.18214-26.61946-1.97247-55.93122-.338-79.41063,13.63838C45.67322,142.85834,42.5656,199.273,66.81965,235.861c30.91289,46.63311,90.9975,60.028,143.34463,61.09218,31.29216.63613,63.234-2.32018,94.15279-7.09733,25.43132-3.9293,53.7435-11.79969,67.70378-35.46156,12.393-21.00539,4.34226-44.98964-13.18681-60.27118-23.18292-20.21045-56.77284-21.65746-85.91317-18.69363-15.57889,1.58452-30.8635,5.069-46.05985,8.74329-.66046.15969-4.39339.93382-4.39339,2.4278,0,1.49344,3.733,2.269,4.39339,2.42779a47.95844,47.95844,0,0,0,21.21321,0Z" transform="translate(-51.47404 -29.46711)"/><path class="cls-1" d="M523.40046,155.50123a267.95592,267.95592,0,0,0,88.186-1.38624c27.81156-5.10447,57.23809-13.8592,80.85642-29.89646,19.72195-13.39154,35.13757-40.0568,19.80668-62.5402-12.90806-18.93022-38.73-25.67508-60.07978-28.7393C531.25252,15.58437,414.68434,66.61852,305.81174,112.17965l-194.55585,81.418c-5.45734,2.2838-5.15639,7.00333,0,9.367,6.24241,2.86147,14.93057,2.62916,21.21321,0l161.51806-67.59227c51.91169-21.72406,103.56739-44.60164,156.85026-62.8213,49.59546-16.95878,102.17442-29.88237,153.94163-29.66689a278.55674,278.55674,0,0,1,38.49045,2.70171c1.18047.16295,2.35678.35627,3.53694.51948,4.2968.59423-2.59006-.61038,1.70179.293,2.22445.46824,4.43966.96759,6.63733,1.55116a59.96623,59.96623,0,0,1,12.30862,4.45721c7.61592,3.59646,14.52188,9.17428,18.34877,17.0676,4.85768,10.01944,2.79133,21.76161-2.64495,31.08435-6.77109,11.61183-18.38459,18.95679-30.27036,24.54437a213.80227,213.80227,0,0,1-38.86477,13.8301,201.063,201.063,0,0,1-21.01538,4.16195q-5.32057.75779-10.67186,1.27644c-3.1915.30809-6.30727.55566-8.51977.64532a210.634,210.634,0,0,1-42.44021-2.28932c-4.9534-.74946-15.63981-.65434-18.45178,4.62608-2.95589,5.55068,7.34314,7.67353,10.47659,8.14763Z" transform="translate(-51.47404 -29.46711)"/><path class="cls-1" d="M558.25693,262.85526a1739.75,1739.75,0,0,0,213.04826-55.76465q30.06717-9.94872,59.75188-21.00074c1.80131-.66954-1.65529-1.36837-1.51213-1.32762-2.67619-.76172-6.25128-.70339-8.96447-.7918-5.717-.18627-12.94315-.84416-18.45178,1.20337a1714.77094,1714.77094,0,0,1-208.77661,62.91207q-30.37906,7.06827-60.99927,13.03018c-5.87614,1.14737,4.55374,2.29958,5.38128,2.3573,6.67516.46558,13.909.6733,20.52284-.61811Z" transform="translate(-51.47404 -29.46711)"/></svg>