<svg id="Flourish-3" xmlns="http://www.w3.org/2000/svg" viewBox="0 0 970.51906 180.80411"><defs><style>.cls-1{fill:#a0a0a0;}</style></defs><path class="cls-1" d="M80.82721,209.63044C63.708,193.31013,51.2445,171.46554,47.82357,147.89306c-1.32294-9.11595-1.31119-19.67473,3.35127-27.90711a22.99926,22.99926,0,0,1,4.06239-5.426c.7509-.70547,5.46945-2.82571,5.66429-3.39213-.37476,1.08947-4.792-.54749-.81585.488-1.52453-.397,1.69311.48062,1.98357.56263,1.39818.3948,2.76494.9102,4.12856,1.42616,11.57709,4.38046,22.38456,10.90853,33.49558,16.329q17.701,8.63533,35.78449,16.44166a787.99474,787.99474,0,0,0,73.9202,27.4422A826.68833,826.68833,0,0,0,365.688,207.03607c26.54666,2.98387,53.27751,4.65236,79.98919,5.00833,27.67952.36887,55.63492-1.00836,82.75185-6.908,49.54021-10.77811,99.1088-40.36359,114.02824-91.671,1.67561-5.76236-27.36063-9.0767-30,0-12.446,42.80151-53.105,70.92779-94.758,80.91747-25.42165,6.09691-49.86127,6.79836-75.66388,6.31474a732.80215,732.80215,0,0,1-75.57642-5.39023A759.34658,759.34658,0,0,1,215.95692,161.096a786.19984,786.19984,0,0,1-74.19386-29.25774q-16.97652-7.71246-33.53858-16.2817c-12.36852-6.40346-24.646-12.47585-38.57836-14.53521-14.93276-2.20723-33.22068-.624-43.983,11.23685-7.517,8.28426-9.21042,20.74186-8.313,31.48656,2.16238,25.8907,15.9535,51.15921,34.54874,68.88665,4.59487,4.38043,12.47124,4.57853,18.45178,3.94217,1.62821-.17325,14.65851-2.95635,10.47659-6.94311Z" transform="translate(-17.13152 -36.03799)"/><path class="cls-1" d="M246.08965,174.30538c53.9537-26.03618,112.50813-31.82712,170.962-28.83856,13.34891.68249,30.36562,2.365,45.0618,4.16613,16.33739,2.00229,32.61589,4.45905,48.854,7.14431,32.51143,5.37633,64.86264,11.67131,97.36356,17.1096a1147.70978,1147.70978,0,0,0,200.22231,16.17839c33.90382-.31883,67.82332-2.17323,101.56055-5.54464,16.05247-1.60414,32.83182-2.61671,48.52553-6.521,13.02879-3.24132,27.38979-10.767,28.90882-25.6699,1.651-16.19759-17.04542-21.53034-29.53179-23.29549a252.02993,252.02993,0,0,0-46.61025-1.83566A286.83676,286.83676,0,0,0,818.51061,146.818c-7.09734,2.82354-14.0444,5.99041-20.86385,9.429-1.63667.82527-4.3934,2.16571-4.3934,4.46192,0,2.21939,2.74658,3.74174,4.3934,4.46191,5.82028,2.54526,15.39215,2.9352,21.2132,0a237.35893,237.35893,0,0,1,78.97771-24.13564,225.6164,225.6164,0,0,1,37.75271-1.20784c5.88548.34845,13.63247.43145,17.35085,2.06879,3.62948,1.59819,5.28531,7.17924,4.42124,11.76018-2.31268,12.26088-14.88817,13.93321-24.14787,15.13372q-23.26512,3.01631-46.64917,5.00361c-31.14371,2.65772-62.24684,3.84273-93.65214,3.68577-62.51769-.31245-124.42682-6.7606-186.16191-17.38467-62.41253-10.74066-124.53-23.758-187.921-27.154-65.73017-3.5213-134.05135,3.53387-193.9539,32.44076-1.64027.79154-4.3934,2.19036-4.3934,4.46191,0,2.2194,2.74658,3.74175,4.3934,4.46192,5.9105,2.58471,15.2919,2.85741,21.2132,0Z" transform="translate(-17.13152 -36.03799)"/><path class="cls-1" d="M507.86437,146.93336C541.047,132.6582,573.47729,110.858,596.29452,82.496c5.44059-6.76271,10.02671-15.74723,8.45213-24.68975-1.57349-8.9364-8.47245-15.01823-16.64735-18.19888-20.53367-7.98914-44.63746-1.5729-62.81135,9.42841a81.58361,81.58361,0,0,0-34.02154,40.841c-2.07018,5.57145,6.577,7.28271,10.47659,7.74444,3.94571.46718,16.496.86646,18.45178-4.39715A73.78855,73.78855,0,0,1,542.225,61.72825a66.5508,66.5508,0,0,1,15.723-9.76155,42.97717,42.97717,0,0,1,8.13593-2.79211c.02258-.00539,2.63307-.46072,1.67674-.39411-.757.05272-1.971-1.15786.46552.27872,14.397,8.4884,3.16676,25.87085-4.71007,34.53177a220.17412,220.17412,0,0,1-33.40649,29.71251,224.34,224.34,0,0,1-43.4584,24.72645c-5.30074,2.28037-5.25393,6.61094,0,8.90343a29.15663,29.15663,0,0,0,21.21321,0Z" transform="translate(-17.13152 -36.03799)"/></svg>