<svg id="Flourish-1" xmlns="http://www.w3.org/2000/svg" viewBox="0 0 881.13968 209.32405"><defs><style>.cls-1{fill:#a0a0a0;}</style></defs><path class="cls-1" d="M166.63252,221.13357c-25.314-7.95221-53.077-17.715-69.40834-40.01076-13.36419-18.245-17.80322-47.2743-1.69936-65.3224a35.20756,35.20756,0,0,1,14.51047-9.632,37.11483,37.11483,0,0,1,7.61082-1.84272c-1.60442.22729,1.88255-.13835,2.355-.1905.047-.00519,2.52084-.197,1.02461-.10241-1.331.08413,1.5409-.03965,1.80447-.044a108.11323,108.11323,0,0,1,18.13029,1.212c7.409.92082,14.79025,2.06591,22.15283,3.3,33.75165,5.65744,67.0888,13.49032,100.298,21.69469,66.4361,16.41313,132.913,34.20756,201.34591,39.92795,35.017,2.9271,70.50541,2.94274,105.346-1.99754,22.52209-3.19356,55.1516-9.57483,64.09489-34.04392,9.34981-25.58134-17.00375-44.70072-38.4726-50.888-30.723-8.85435-66.41391-4.12376-94.44741,10.93215a104.34984,104.34984,0,0,0-17.26532,11.70972c-4.80952,3.99248,1.56031,6.54872,5.38128,7.37825,5.35525,1.16263,15.81286,1.97521,20.52284-1.93464a95.57718,95.57718,0,0,1,34.261-18.64232,82.98,82.98,0,0,1,9.421-2.07549c-.864.1436,2.25775-.2969,2.78453-.35467.79878-.0876,5.90224-.43862,4.028-.37187,1.607-.05724,3.21381-.04066,4.82131-.03566-.05513-.00017,2.57375.08732,1.21861.02094-1.35545-.06638,1.27044.10384,1.21525.09858,1.60035.15272,3.20568.279,4.7978.50771-2.19736-.31559,1.74009.39751,2.41513.55421a55.31679,55.31679,0,0,1,13.81137,5.91248,41.32091,41.32091,0,0,1,12.19265,11.07163c6.33316,8.84,7.17771,20.59275,1.16406,29.86043-5.80272,8.94262-15.69185,13.776-25.569,16.8619-10.58937,3.30844-25.673,4.66815-38.13176,5.628-31.51644,2.42819-63.44323.40546-95.22479-3.81694-65.24222-8.66788-128.64174-27.3222-192.56265-42.39482-32.59893-7.68687-65.432-14.46648-98.64432-18.91545-27.21855-3.64607-61.56957-4.94582-83.00079,15.36764-17.62507,16.70583-16.208,44.557-5.94972,64.73371,12.251,24.096,38.612,37.75873,62.86549,46.83949,6.45792,2.41792,13.01179,4.56484,19.58934,6.63113,6.59921,2.0731,14.648,2.46943,21.2132,0,4.97872-1.87269,5.71821-5.83011,0-7.62645Z" transform="translate(-55.41331 -78.74557)"/><path class="cls-1" d="M489.74259,172.25105c37.45352,29.85939,88.22627,37.40568,134.76375,31.90383a201.045,201.045,0,0,0,63.62809-18.91455c19.2079-9.2079,37.25023-20.60312,55.38-31.72732,17.86485-10.96166,35.94065-21.88678,55.34153-29.95053a150.34838,150.34838,0,0,1,28.22423-8.84666c2.35948-.46839,4.98192-.92618,7.19871-1.2081,1.78113-.22651,4.19817-.40788,4.526-.425.63225-.033,3.84452-.12508,1.23945-.05512,4.75083-.12758-1.55367-.11817,1.26156.02388,2.80549.14156-3.15681-.36636,1.66653.11109,1.10849.10973,1.84186.18732,2.93749.345,19.78186,2.8469,39.982,13.76673,51.03647,30.76759,9.89717,15.221,12.496,35.49606,6.25456,52.60525a44.21293,44.21293,0,0,1-20.33048,23.90919,40.87274,40.87274,0,0,1-14.10761,4.76963c1.05765-.12874.559-.42891-.90179.05863a13.45237,13.45237,0,0,1,1.90937.00364q-2.42-.13411-1.26864-.0491c-1.244-.1217-4.66833-.5841-6.69935-.95968-10.93175-2.02153-23.60932-5.36731-32.87011-11.72966-4.55629-3.13026-8.3343-7.60607-8.26478-13.38956a14.89759,14.89759,0,0,1,1.65095-6.64971c3.84145-7.353,11.26247-2.06871-9.58769-3.30345a72.1244,72.1244,0,0,0,11.55839-.25779c.84025-.08749,6.09338-.39863,6.89339-1.52828,1.90265-2.68659-9.59711-3.09362-10.47659-3.14571-11.06991-.65555-28.62774-.99511-29.9762,13.72836-1.04232,11.38081,11.20879,17.7525,20.0906,21.29437C836.28378,229.7855,865.7276,233.913,892.80345,228.7c21.65051-4.1684,38.61609-18.26887,42.74983-40.47469a61.70314,61.70314,0,0,0-17.21669-54.52454c-17.49188-17.60024-42.75639-23.97621-66.80448-25.45637a178.30079,178.30079,0,0,0-76.00935,11.69276c-42.8455,16.8205-78.71046,46.75719-120.40546,65.86116-11.6467,5.33633-23.858,9.84095-36.44431,12.36818-3.06119.61467-6.14666,1.16759-9.24328,1.56887-2.30082.29816-5.65949.58315-6.60538.63945-1.30065.07741-2.6031.13993-3.90554.17754,2.36828-.06839-3.29366-.01-3.82932-.02183,2.8472.06286-2.27132-.12442-2.26-.12386-4.90258-.243,2.23408.29447-2.6478-.19841A137.15777,137.15777,0,0,1,518.671,170.89142c-1.46375-1.167-5.30881-1.36329-6.89339-1.52828a76.77561,76.77561,0,0,0-11.55839-.2578c-1.31917.06386-12.774,1.31416-10.47659,3.14571Z" transform="translate(-55.41331 -78.74557)"/><path class="cls-1" d="M568.58474,110.89923A205.98071,205.98071,0,0,1,611.568,114.338a240.65609,240.65609,0,0,1,44.15877,12.7051c28.72848,11.25746,57.21984,28.42736,78.74763,50.72868,10.41116,10.78527,19.129,24.21556,17.72577,39.83282-1.262,14.04592-10.38963,26.96445-21.81533,34.86152-13.00565,8.98908-28.45022,12.396-43.81261,14.83972-17.33145,2.757-34.79918,4.76848-52.26526,6.44544a990.00725,990.00725,0,0,1-211.643-2.481A992.36642,992.36642,0,0,1,317.88855,253.008q-12.80349-2.93205-25.52634-6.20682c-8.13295-2.11168-16.64557-3.89607-24.43665-7.10581-11.71017-4.82431-23.552-19.7769-13.30828-31.73826a16.5102,16.5102,0,0,1,5.61461-4.18389,18.81076,18.81076,0,0,1,5.68483-1.66749c2.49669-.48995-1.05594-.04742,1.50545-.16555.85688-.03952,1.71475-.13821,2.57227-.18462-.24368.01319-2.48315-.06995-.78132.07081,1.15759.09575,4.744.05434,1.66068-.069,2.299.09194,4.59816.29479,6.89289.46219,17.39222,1.26874,34.75222,3.1485,51.98932,5.79855a684.9682,684.9682,0,0,1,104.8393,24.6221q12.64316,4.04889,25.12493,8.57385a34.37683,34.37683,0,0,0,21.21321,0c5.27362-1.81544,5.3377-5.03841,0-6.96545a729.31385,729.31385,0,0,0-115.46791-31.262q-30.20961-5.56351-60.83142-8.62834c-18.15842-1.82161-37.02066-4.12447-55.10686-.52668-12.71528,2.52939-29.05,9.31978-28.6574,24.82405.471,18.5996,20.94789,27.06087,35.99478,31.28581A1005.34671,1005.34671,0,0,0,373.5203,275.11639a1082.71579,1082.71579,0,0,0,242.29644,10.328q29.33106-2.04907,58.512-5.78385c19.28935-2.4708,39.0068-4.6992,57.58244-10.72425,16.29957-5.2868,32.11112-14.193,41.854-28.706,9.10853-13.56815,10.94116-29.24786,4.33689-44.25137-6.875-15.61865-20.65456-27.33322-33.796-37.634a258.00264,258.00264,0,0,0-43.71447-27.78882A280.88962,280.88962,0,0,0,596.711,101.89148c-9.3524-.71718-18.74805-1.01558-28.12626-.8429-3.14273.05787-14.71591.04069-15,4.92533-.2684,4.6147,12.86563,4.96462,15,4.92532Z" transform="translate(-55.41331 -78.74557)"/></svg>