<svg id="Home" xmlns="http://www.w3.org/2000/svg" viewBox="0 0 1030.45119 919.04791"><defs><style>.cls-1{fill:#a0a0a5;}.cls-2{fill:none;stroke:#929298;stroke-miterlimit:10;stroke-width:16.80757px;}</style></defs><path class="cls-1" d="M787.86841,923.97644c-.61511,3.27844,6.4306,2.10162,7.69452,2.59473C794.00317,921.08588,786.04315,924.1145,787.86841,923.97644Z" transform="translate(3.1642 -52.2583)"/><polygon class="cls-1" points="775.05 817.604 777.926 818.562 770.88 810.585 775.05 817.604"/><path class="cls-1" d="M772.01721,819.259c-11.9989,4.784,1.93622,18.33606-2.32617,27.35181l-2.74969,1.48584,9.66772,4.06738C775.07788,841.2066,768.66412,826.97516,772.01721,819.259Z" transform="translate(3.1642 -52.2583)"/><path class="cls-1" d="M797.95465,792.27753c-4.65735,1.66552-4.00525-5.83588-1.45215,6.29174a10.27577,10.27577,0,0,1,1.18158-1.13958A27.57642,27.57642,0,0,1,797.95465,792.27753Z" transform="translate(3.1642 -52.2583)"/><path class="cls-1" d="M797.68408,797.42969c.33612,5.32965,3.91443-3.48664,0,0Z" transform="translate(3.1642 -52.2583)"/><path class="cls-1" d="M795.01331,772.8194l4.16827,7.01935c2.75311-1.46613,3.37665-7.714,5.39191-5.39325C802.2843,767.24432,799.543,768.72577,795.01331,772.8194Z" transform="translate(3.1642 -52.2583)"/><path class="cls-1" d="M786.26,766.16394l1.76141,3.63782C789.17773,769.16406,789.58783,768.202,786.26,766.16394Z" transform="translate(3.1642 -52.2583)"/><path class="cls-1" d="M791.74255,777.51575l-3.72119-7.714c-1.9295,1.01684-5.82379,1.1242,1.34125,3.54144C785.81287,772.712,789.23151,774.2373,791.74255,777.51575Z" transform="translate(3.1642 -52.2583)"/><path class="cls-1" d="M789.92065,781.88336c-2.61358,3.93811-4.25567,9.02448-8.4038,1.97888C783.16565,797.29163,791.59467,795.31274,789.92065,781.88336Z" transform="translate(3.1642 -52.2583)"/><path class="cls-1" d="M759.60822,816.67523l-3.5246,5.26392,4.03381,4.55389C758.12238,824.21832,763.363,816.34869,759.60822,816.67523Z" transform="translate(3.1642 -52.2583)"/><path class="cls-1" d="M801.2254,729.0907c-2.55639-.4383-6.80371,2.36023-10.07782,2.884l2.938,5.18506C795.83356,734.49487,797.44537,729.44354,801.2254,729.0907Z" transform="translate(3.1642 -52.2583)"/><path class="cls-1" d="M791.14758,731.97467l-4.37835-7.75781C786.26,731.1463,788.3407,732.413,791.14758,731.97467Z" transform="translate(3.1642 -52.2583)"/><polygon class="cls-1" points="776.104 712.654 785.308 725.398 775.973 710.198 776.104 712.654"/><polygon class="cls-1" points="804.709 647.204 810.615 651.602 801.685 643.767 804.709 647.204"/><path class="cls-1" d="M800.51111,679.80884c4.896,3.25433,8.28107-4.46186,11.293-1.02124-.874-5.33844-5.07587-9.89673-8.85926-14.00135C805.0542,669.14728,804.51636,673.79541,800.51111,679.80884Z" transform="translate(3.1642 -52.2583)"/><path class="cls-1" d="M797.44537,657.894a39.36449,39.36449,0,0,0,5.49945,6.89221A20.40532,20.40532,0,0,0,797.44537,657.894Z" transform="translate(3.1642 -52.2583)"/><path class="cls-1" d="M788.03314,711.00226c1.54633-.60047,5.58014-1.75537,7.28778-6.10541l-7.18188,3.05054C788.10675,708.87872,788.07019,709.93286,788.03314,711.00226Z" transform="translate(3.1642 -52.2583)"/><path class="cls-1" d="M787.91382,708.05475l.22522-.10736c.16473-3.31134.3244-5.608.40674-6.592C788.48358,702.20129,788.28693,704.21747,787.91382,708.05475Z" transform="translate(3.1642 -52.2583)"/><path class="cls-1" d="M788.00458,711.77148c.01678-.28271.02856-.4909.02856-.76922C787.31885,711.296,787.09363,711.47345,788.00458,711.77148Z" transform="translate(3.1642 -52.2583)"/><path class="cls-1" d="M779.4361,744.57568c-4.017-4.55828-8.31806-14.06048-14.44782-4.865C769.9079,742.98029,773.39209,737.71637,779.4361,744.57568Z" transform="translate(3.1642 -52.2583)"/><path class="cls-1" d="M779.026,715.56055l-1.64215,8.23993c1.89594-.16217,4.66583-1.648,6.65582.60925Z" transform="translate(3.1642 -52.2583)"/><polygon class="cls-1" points="779.904 659.268 782.19 663.302 782.794 660.247 779.904 659.268"/><path class="cls-1" d="M790.7207,672.00934c-3.13128-3.559-3.39013-7.45319-3.89435-11.8515A48.90238,48.90238,0,0,0,784.6767,674.374C786.92889,675.027,790.97949,677.06073,790.7207,672.00934Z" transform="translate(3.1642 -52.2583)"/><path class="cls-1" d="M788.72565,689.52582c-.16809-.24542-.24207-.561-.41016-.79114C787.70038,689.22119,787.5155,689.61127,788.72565,689.52582Z" transform="translate(3.1642 -52.2583)"/><path class="cls-1" d="M786.87512,616.8587c-.38995.241-.89416.44922-1.30426.69464.4101.05481.82019.092,1.24372.16218Z" transform="translate(3.1642 -52.2583)"/><path class="cls-1" d="M783.33374,675.1651c-1.38995,3.54358.36975,5.66058,2.56989,7.67889a34.86325,34.86325,0,0,1-1.22693-8.47C783.64972,674.08032,782.97742,674.02551,783.33374,675.1651Z" transform="translate(3.1642 -52.2583)"/><path class="cls-1" d="M794.08557,645.81464a36.79345,36.79345,0,0,0-3.94812,6.1361C792.40649,650.14722,795.95288,646.46771,794.08557,645.81464Z" transform="translate(3.1642 -52.2583)"/><path class="cls-1" d="M790.30554,687.54034a3.96572,3.96572,0,0,1,.32105.53034C792.15271,686.90918,791.40979,687.05383,790.30554,687.54034Z" transform="translate(3.1642 -52.2583)"/><path class="cls-1" d="M790.30554,687.54034a20.94457,20.94457,0,0,0-4.40191-4.69635,22.42064,22.42064,0,0,0,2.41186,5.89069A8.83859,8.83859,0,0,1,790.30554,687.54034Z" transform="translate(3.1642 -52.2583)"/><path class="cls-1" d="M740.77026,603.74048c6.65918.62457,12.81409,9.94055,5.67426,17.98108,4.99017,7.91339,26.88538,2.73932,39.12634-4.16822-2.901-.24542-5.5852-.24542-9.51983-8.38891-3.62708,2.85107-8.50293,18.06866-14.5268,11.19842-3.422-10.78643,2.3598-8.83825,5.87256-14.08245-8.28442,4.45745-12.06445-13.723-24.26-11.37372l4.29266,9.45837C745.53015,604.5426,742.50482,601.11292,740.77026,603.74048Z" transform="translate(3.1642 -52.2583)"/><path class="cls-1" d="M784.89349,633.069l.82526,3.35077c1.15637-3.81976,3.82037-6.55475,9.03577-11.58856-3.259-5.57508-5.72467-6.73218-7.93994-7.11572l-.92774,16.49963Z" transform="translate(3.1642 -52.2583)"/><path class="cls-1" d="M785.74731,651.46429c-7.24237-2.61663-10.32824-10.66375-18.16558-5.7351.50421,9.83313,6.05236,6.89,9.19537,12.76532-1.80176-15.86847,4.03381,4.55829,8.13654-6.90753a31.74107,31.74107,0,0,1,1.91271,8.57086,49.49051,49.49051,0,0,1,3.3111-8.2071c-.16809.14466-.29077.24549-.45044.36384l.01178.07452c-.037,0-.05377-.01538-.09411-.01538-.911.68378-1.46564.90948-.94794.13806-.0824-.05261-.111-.24542-.148-.33087a11.08461,11.08461,0,0,1-2.72113-.71662c1.4942-4.59558,1.86731-.7232,2.72113.71662a10.28393,10.28393,0,0,0,1.09589.19281.47012.47012,0,0,0,.08233-.05914l-3.96826-15.89478C784.70862,639.78369,784.91364,643.99573,785.74731,651.46429Z" transform="translate(3.1642 -52.2583)"/><path class="cls-1" d="M749.41608,731.23181a2.59036,2.59036,0,0,1,1.67743-.50842C750.2077,729.69556,749.60431,729.30548,749.41608,731.23181Z" transform="translate(3.1642 -52.2583)"/><path class="cls-1" d="M753.78607,724.69244c1.00507,1.15711,3.89765,2.11914,3.15979,5.87531-2.17151,3.25873-3.46741-.01532-5.85235.15564,1.92443,2.26379,5.19519,7.92438,8.72479.824l-.99-1.1242c2.48755-6.39911,11.52325-14.62152,12.52-13.50391C764.82361,718.78638,760.18805,720.43439,753.78607,724.69244Z" transform="translate(3.1642 -52.2583)"/><path class="cls-1" d="M767.91785,687.6214l-3.54975-13.23651-6.26587,6.741,3.76325-.34192C760.38806,688.31177,765.0202,686.68567,767.91785,687.6214Z" transform="translate(3.1642 -52.2583)"/><polygon class="cls-1" points="793.643 563.086 801.295 564.841 790.483 557.195 793.643 563.086"/><polygon class="cls-1" points="792.732 545.885 799.371 546.521 795.366 541.98 792.732 545.885"/><path class="cls-1" d="M231.77972,560.40405l1.88413,3.8899A12.16215,12.16215,0,0,0,231.77972,560.40405Z" transform="translate(3.1642 -52.2583)"/><path class="cls-1" d="M232.23184,532.24579l-3.27916-.69031C230.75783,532.85944,232.09235,533.3941,232.23184,532.24579Z" transform="translate(3.1642 -52.2583)"/><path class="cls-1" d="M551.15857,329.6199c-5.665-6.21209-11.994-15.84619-11.31018-8.36178l1.74,7.28778A10.762,10.762,0,0,1,551.15857,329.6199Z" transform="translate(3.1642 -52.2583)"/><path class="cls-1" d="M261.83337,373.1582l1.65677,2.20685c1.37625-2.49087,2.67139-4.80023,3.8263-6.96673C265.66846,369.89084,263.79694,371.47916,261.83337,373.1582Z" transform="translate(3.1642 -52.2583)"/><path class="cls-1" d="M257.83612,403.32947l-.93356-.58826a.908.908,0,0,1-.33484-.29413l-.24725-.29413q-.49874-.58827-1.03136-1.17654-1.06522-1.1765-2.26593-2.35306a23.73674,23.73674,0,0,0,1.91934,2.40979q.53316.589,1.11891,1.16345l.59851.57041A11.75961,11.75961,0,0,0,257.83612,403.32947Z" transform="translate(3.1642 -52.2583)"/><path class="cls-1" d="M239.51457,714.19086l7.41886,4.53857C246.90149,711.629,243.15845,714.75409,239.51457,714.19086Z" transform="translate(3.1642 -52.2583)"/><path class="cls-1" d="M786.87512,413.12808a83.46911,83.46911,0,0,0,4.40357-21.51c-2.09253,5.83252-4.70948,11.01721-6.04523,14.75971C783.89764,410.13123,783.843,412.53384,786.87512,413.12808Z" transform="translate(3.1642 -52.2583)"/><path class="cls-1" d="M154.39767,549.324c1.32108,2.38,2.80687,3.39679,4.43216,3.32666C157.58607,550.20056,156.19106,548.81555,154.39767,549.324Z" transform="translate(3.1642 -52.2583)"/><path class="cls-1" d="M791.25348,367.86346c-.7345,1.90842-1.09924,3.54032-1.71436,5.35578a59.7583,59.7583,0,0,1,1.73957,18.39883,48.12423,48.12423,0,0,0,3.05121-13.18252C794.56836,374.18646,793.78552,370.31027,791.25348,367.86346Z" transform="translate(3.1642 -52.2583)"/><path class="cls-1" d="M537.223,884.96234a9.5923,9.5923,0,0,1,1.26233.874C538.608,884.843,538.047,884.79425,537.223,884.96234Z" transform="translate(3.1642 -52.2583)"/><path class="cls-1" d="M699.71,958.53241a33.64969,33.64969,0,0,1-6.6709.56647C694.23785,959.60309,696.24957,959.55432,699.71,958.53241Z" transform="translate(3.1642 -52.2583)"/><path class="cls-1" d="M792.74768,528.93231c.47565,3.64881.80005.57855,0,0Z" transform="translate(3.1642 -52.2583)"/><path class="cls-1" d="M763.90424,546.6745a5.20885,5.20885,0,0,0-3.54474-1.45734A6.68109,6.68109,0,0,1,763.90424,546.6745Z" transform="translate(3.1642 -52.2583)"/><path class="cls-1" d="M733.90326,372.56659c-.10553,0-.16644-.02857-.28717-.02857C733.51569,373.96667,733.55444,373.691,733.90326,372.56659Z" transform="translate(3.1642 -52.2583)"/><path class="cls-1" d="M789.43152,534.42194a18.36788,18.36788,0,0,0,2.16315-4.66565A18.97827,18.97827,0,0,0,789.43152,534.42194Z" transform="translate(3.1642 -52.2583)"/><path class="cls-1" d="M792.87878,533.68341c-.32775,1.25787-.50927,2.24628-.70593,3.1886C793.383,537.33221,794.15112,536.92462,792.87878,533.68341Z" transform="translate(3.1642 -52.2583)"/><path class="cls-1" d="M792.3493,523.85028a17.65692,17.65692,0,0,1-.75463,5.906c.50085-.71662.90258-1.01685,1.153-.824C792.63672,527.86285,792.48547,526.35291,792.3493,523.85028Z" transform="translate(3.1642 -52.2583)"/><path class="cls-1" d="M244.62563,904.48267a4.94443,4.94443,0,0,1,.33168.68072c1.63063-1.51184,2.07225-2.148,1.89653-2.17322A8.92632,8.92632,0,0,0,244.62563,904.48267Z" transform="translate(3.1642 -52.2583)"/><path class="cls-1" d="M456.2085,405.34134c.17093-.07394.2608-.26724.41638-.34119-.17093-.08236-.38568-.18487-.5391-.2706Z" transform="translate(3.1642 -52.2583)"/><path class="cls-1" d="M443.10568,410.76514c5.5795-9.07273,8.75275-7.9567,12.9801-6.03559L451.751,383.7117Z" transform="translate(3.1642 -52.2583)"/><path class="cls-1" d="M233.88068,627.827l6.56166-9.202c10.78373,11.10638,7.0659,19.14252,16.26973,10.50372-22.83139-1.30169-2.32618-35.767-25.1458-37.04687l4.80192-6.066c-.2185,1.73779,1.11939,2.01611.90256,3.73425,10.92661-11.79669-16.5-8.76373-13.26285-23.9638,1.748-5.29676,5.05571-8.99378,7.77182-5.38227l-5.64566-11.80328c.44709-3.434,4.41031-2.59467,3.97162.824l-1.82193-18.003.66893.13367c-3.56991-2.56842-9.10969-8.389-11.46443-11.23132,3.28252-4.57361,2.42029,2.29449,5.25572,1.12427l-5.523-9.96906c5.9297-4.06079,11.65773,4.20105,10.80894,11.08667,22.78939-9.30939-5.73306-8.27063,7.57854-28.36206l2.88922,9.41238c12.94182-6.0682,8.25083-13.414,16.3235-24.05584-4.21533,2.52459-20.33716,21.30554-26.02482,10.48623,1.7194-3.04834,2.53625-7.06753-2.05558-12.90341,8.12142-.05481,6.123-5.75262,5.65911-12.8837l10.75853.48651c-3.106-7.70962-8.58026-7.10037-13.41748-11.63674,1.05887-8.59278,9.38366-10.37442,16.40081-12.39716a8.41166,8.41166,0,0,0-.0874-3.57422,1.54624,1.54624,0,0,0-.52406-.766,2.357,2.357,0,0,0-.7861-.07806c-.30086-.00129-.63813.01016-1.00452.0339a8.10363,8.10363,0,0,0-1.17928.485c-.83473.40484-1.75688.93951-2.70823,1.45443-1.90273,1.02988-3.9223,1.98078-5.59322,1.65625a3.28327,3.28327,0,0,1-2.18666-1.59286,7.3088,7.3088,0,0,1-.78808-1.79428.81546.81546,0,0,0-.15784-.3508q-.07473-.11829-.14081-.24841a3.59642,3.59642,0,0,1-.22775-.56913c2.05807-2.19052,1.98832-3.71344.59981-6.13269-1.38851-2.40307-4.09578-5.61395-7.31276-10.82486,1.85891-.9711,3.50438.32672,5.06979,1.64783,1.56541,1.36389,3.05078,2.7778,4.58952,3.12811a106.63981,106.63981,0,0,1-8.58026-8.35992c.21008-.70865,2.84047,1.42761,4.17,2.46152-1.66395-2.43149-4.35189-4.54538-6.98753-6.79755-2.63563-2.28253-5.219-4.74762-6.67366-8.96033-5.19373-5.06936-2.50764-5.75235,1.014-5.26611,4.24049,2.25534,8.63122,4.85339,11.43977,5.944,2.85275,1.09058,4.16539.67374,3.47751-3.10071a13.822,13.822,0,0,1,3.59775,4.96222,32.10824,32.10824,0,0,0,3.4612,5.79294,16.99974,16.99974,0,0,1,1.03649-4.91373c.49224-1.28244.84919-2.21237,1.18654-3.09128.36251-.9927.67942-2.08068,1.17-3.663a44.67409,44.67409,0,0,1,2.605-6.62875,76.9489,76.9489,0,0,1,8.40215,7.05749c-2.80837-4.03381-3.55841-8.43866-1.86971-12.81576a22.12148,22.12148,0,0,1,4.06371-6.495q.68692-.79679,1.44823-1.58218c.55078-.52335,1.12826-1.04236,1.701-1.55625,1.14994-1.02783,2.31864-2.03518,3.46695-3.01593-2.94485-3.89935-5.28933-7.31295-7.2879-8.94162l2.03656-.72125,1.84689-.72125,3.66526-1.44251,7.33047-2.885c1.77072,1.76477.29364,5.46247-2.10821,9.95176a35.60371,35.60371,0,0,0,2.68676-2.58164c5.242,3.97665,2.52457,10.18033-1.23162,16.18735-1.786-2.1211-3.55893-4.38172-5.28144-6.639-3.62033,6.53311-7.00836,13.76709-6.25448,20.06656a9.68489,9.68489,0,0,1,4.8059-2.90939c-.94671,1.77655-1.55157,3.35983-1.11328,4.43551.49747,1.12778,2.02713-1.24713,4.42459-3.99347l3.33326,11.98716.80865-4.75992,19.17978,7.49618c13.723-12.05941,25.66-29.83175,47.44107-34.77148-5.40417,8.78866-1.16147,14.35364-1.45514,24.76761-5.94327-11.02576-16.87,4.67755-28.15826,2.44552,5.89068,1.16138,4.59552,6.13474,3.09656,7.84577l20.13308-10.02069c-.45364,8.52313,4.27558,6.38522,9.5351,9.90976-3.97531-16.83615,15.00723-11.214,23.199-16.37226.50843,5.64566-1.45514,11.42746-11.45047,10.05262,11.02753,12.67962,14.249-19.76572,25.0727-8.99375-2.44132.1311-3.7562-.73111-4.72046,2.14969,5.7-5.03049,19.63562-1.04205,16.35717,3.86911l-2.43472.116c16.20157,1.99841,49.31915.12606,51.73636-14.17383.16217,1.85892-2.12354,17.2345-3.10312,20.12372l28.90775-48.09656c-2.54651,12.27795,7.22967,41.50967-6.20627,48.46127,3.857,1.748,8.63,3.79178,16.7626-.54959-2.632-1.748-6.55908-17.75217-2.96286-18.87994,9.87039,13.66791,6.85272,7.31631,19.01981,18.96563-3.94467-2.622.43829-21.88345,6.67083-21.26324-.973,2.87576.51938,18.99423-1.75973,21.00107L509.87115,385.374c-3.87231,3.40186-.68371,16.01929,2.7876,21.37418-1.61075-3.70944,13.414.33615,17.54932-1.53452l-6.5766-4.39013c17.51862,2.864,17.30389-26.57447,34.68225-25.58112-2.10382,3.89768-5.196,24.02976,3.64227,26.40131,4.04981-9.67612,17.935-46.557,33.31043-54.01279l2.94971,5.53473,11.79669-6.30621c-7.34583,14.56713-27.961,45.21908-39.21863,57.14407,6.55469,4.38171,1.8255,6.53644,11.64331,6.0238,3.46692,5.19019-5.35156,7.866-8.23993,8.17353l22.85706,3.34808c-1.01685-11.30478,17.47924-11.33334,16.607-20.74725l-24.825,11.71655c-1.00586-11.28461,14.35419-32.06885,30.54919-30.08725,4.11994,4.50613-3.08123,20.11529-2.74377,23.88693,2.10162-3.88592,15.371-7.43231,16.85907-4.67419l-6.8703,6.044c9.01575,4.24729,14.71356-14.97723,25.54822-4.19348,3.73864.72608,11.16558,14.54694,11.81207,7.86594-6.09888-12.89646-7.29108-52.77744-3.22589-62.46533.65527.437,5.56421,3.51867,10.84289,7.28756,5.2981,3.76889,10.85511,8.225,13.21552,11.41086,1.52795,2.52869,1.4577,5.299.83075,8.16776a85.45162,85.45162,0,0,1-2.82465,8.7583c-.25244.73062-.49591,1.4584-.72284,2.18118-.29583.74658-.58337,1.47205-.85241,2.151a31.75885,31.75885,0,0,0-1.30652,4.15765c-.61048,2.68973-.59021,5.19153.72027,7.36222a7.11456,7.11456,0,0,1,.68408-2.40021,12.98314,12.98314,0,0,1,.63746-1.20456c.23138-.39557.32641-.78305.51562-1.156a15.61115,15.61115,0,0,1,2.0517-3.364c1.25177,1.3194.75171,3.7107.713,5.59775-.03735,1.88708.21942,3.26993,2.65753,2.57239,1.2807-5.72214,4.14758-5.48093,5.61139-5.14038.74219.17028,1.175.36541,1.10681-.14762-.09222-.513-.59308-1.73419-2.31085-4.39651,3.33893-1.63706,4.89-1.04416,6.21948-.10651,1.37238.93765,2.55066,2.22006,5.95954,1.96207.82934-3.69934,5.28308-9.99506,12.00671-15.77622a74.4517,74.4517,0,0,1,11.05267-7.897,48.09856,48.09856,0,0,1,10.63507-4.79208c-2.769,2.91275-3.74945,6.71295-4.30511,8.44412a60.14229,60.14229,0,0,1,10.43707,1.526c-.95276,5.89194-2.13714,11.22913-3.09247,16.3158a83.81817,83.81817,0,0,0-1.718,15.13522c-1.3866,1.40366-2.919,4.16708-4.72144,6.37219-1.80237,2.23493-3.87476,3.86579-6.34131,3.7699,2.03205.70108,5.918.8309,6.1886,4.80093-2.47534,2.65491-3.809,3.29538-4.60309,3.17475-.79419-.13791-1.049-1.112-1.36676-2.09854-.31781-.98591-.69855-1.98328-1.74463-2.108-1.04608-.14291-2.7575.66385-5.73663,2.84848,3.32788-1.035,5.628.24744,7.615,2.65146,1.98712,2.38034,3.66113,5.797,5.73688,8.52249,5.14392-1.09448,5.63849-4.97277,4.32751-8.80142a19.16986,19.16986,0,0,0-2.96515-5.321,27.93687,27.93687,0,0,0-3.54065-3.75583c7.08863-2.97522,14.34656-3.44226,20.65253.415a27.3732,27.3732,0,0,1,8.60486,8.75433,46.67694,46.67694,0,0,1,3.50421,6.55927c1.06183,2.34152,2.0116,5.314,2.83179,7.12521,3.52453,13.25406-9.16345,5.74606-7.15326,8.04712-2.47412,24.89514,24.76422,21.20907,14.52673,41.88129-9.02734,8.20269-17.96057.37036-24.48523,2.18927-3.42205-10.7974,5.73639-16.57633,5.37171-23.89365l-4.27588,9.00915c-3.0119-3.434-5.28095-10.64181-2.67572-14.56893-8.108,6.87466-1.54633,42.0588-9.04419,61.26709,3.02032,3.4121,6.16839,9.30279,9.79883,6.51525l-1.25891-6.077c7.28271-5.58606,10.07782,11.43732,13.47967,3.74524,5.12463,8.15228,13.17548,17.29071,9.05591,28.76752l-10.303,2.15637c3.012-.24543,6.12976-7.50141,2.99512-10.72724,4.575,4.784-13.952,17.59754-.45545,22.83954l7.13983-8.04492c5.17841,8.18518,16.12183,18.30322,12.86786,28.47388,10.177-4.62842-1.16473-2.34491,10.74341-9.57239-14.81756,6.26544.62354-26.01941-14.93689-15.95392,13.81244-7.41595,5.84735-12.83551,17.64124-22.53058-3.40186.30023-6.51294,3.434-4.83051-5.10394a14.08824,14.08824,0,0,1-2.99512-1.87372,3.95337,3.95337,0,0,1,.25379-.57635c-.13446.171-.28235.298-.40167.47119-.51264-.37036-.6236-.40326-.13446.17529a11.97229,11.97229,0,0,1-5.1717,4.3501c-7.80377-4.23834-7.5617-17.81671-11.60394-22.40784,1.62024-5.06671,3.90607,2.11914,7.52979-.64648l-6.044-6.85935c7.54156-.67935,12.54352-13.46,16.96722-1.52527l.33619-10.74261c4.23046-6.32459,5.9179-15.02475,2.74133-20.3895,1.6286-5.06668-8.35846-12.79821-2.44556-8.38458l-4.67749-16.848,1.879-.15561a47.83416,47.83416,0,0,0-1.337-12.65634l-.35345-1.60977-.18323-.80729-.18622-1.26605q-.37683-2.57986-.75677-5.18063c-.50226-3.44327-.98651-6.86206-1.37171-10.28348A102.35034,102.35034,0,0,1,783.7439,398.56a105.386,105.386,0,0,1,5.79522-25.34076,104.11848,104.11848,0,0,1-2.56463-12.98178,81.07254,81.07254,0,0,1,.467-19.47834q3.26651-4.44626,6.53308-9.07641a28.518,28.518,0,0,1-.33209-6.8923c-6.14337-.29145-12.59168-1.7226-18.87024-2.37342-6.24964-.65085-12.17353-.52133-16.305,2.30853-.57587-8.78784-17.04444-9.74713-34.6471-8.89877-8.82721.4242-17.9306,1.30029-26.11645,1.87567-4.1.28772-7.98517.50025-11.566.54352q-1.343.0162-2.62836-.00076l-1.26959-.02692-.40363-.0206-.33777-.02551a16.25385,16.25385,0,0,1-2.5307-.39822l-.47778,8.52645c-8.69794-.47564-17.0387,1.94971-27.83612,5.36332l.664,7.52978c-9.30939,6.1835-23.93311-5.35824-38.65759-4.58343,1.00146-2.8808,4.73578-2.12952,7.37866-.38153-17.59094-17.03278-37.11481,12.37207-53.06873-.02857-3.97534,2.74973-6.855,1.81018-9.64251-.07394a1.74291,1.74291,0,0,0,.98614-.40171,8.29129,8.29129,0,0,0-1.63263-.09915c-1.75537-1.29587-3.56335-2.80185-5.52252-4.00525a18.62909,18.62909,0,0,0,4.64593,4.03382A39.52619,39.52619,0,0,0,543.53,336.63705l-1.94165-8.09115c-.37036.10586-.6684.08572-1.05408.22522-4.47278-2.98334-3.59619,3.83212-1.20972,9.92654a22.43279,22.43279,0,0,0-6.02874,4.87421c-3.63343-13.06455-11.95886,4.40356-16.91815-9.52823-3.07245,6.79193-22.91629,5.1095-25.34446,19.41779-.15557-1.87067-1.499-2.75812.96207-2.88083-5.082-1.62528-10.15967-3.25394-14.718.77987l-2.1564-10.29126-11.09543,13.83261c-6.741-6.2709-9.53512-9.91812-2.84234-17.8345-16.16214,12.19223-13.1138,4.58847-26.85874,16.65631l.6706-6.65075c-4.9133.25378-12.76755,9.17862-15.73041,3.67581-10.99027-12.65442-54.38147-1.748-82.59235-13.51663,5.47211,19.59759-13.1138-8.76853-14.23144,6.41375-1.64362-4.62881-5.57511-7.25079-1.00589-11.26779-14.398,4.538-21.632-7.36172-31.57257,5.44565-1.648-4.654,3.0812-6.78354,1.61511-9.545-1.15491,1.00509-4.57361,4.03381-6.0726,1.25888-1.4661-2.75644,2.10821-3.88086,4.38736-5.89945-14.707.77985-16.195,15.05957-17.26447,28.45688-3.72659-3.16989-6.51962-4.53342-9.0538-4.00461a7.4566,7.4566,0,0,0-3.69144,2.22321,19.45423,19.45423,0,0,0-1.85824,2.19617q-.47352.64041-.9599,1.37274c-.28251.48828-.78815,1.00729-1.17373,1.55719-1.62828-2.19339-4.01345-4.43592-4.49966-6.32721a2.15541,2.15541,0,0,1,1.14584-2.52338,8.75,8.75,0,0,1,2.389-.97024c.52238-.1424,1.11067-.2746,1.77032-.39585.53641-.12124,1.00672-.23153,1.59277-.33l-1.20007-.17562c-.19436-.03754-.58-.0788-.96634-.123q-.57758-.06675-1.22267-.14127c-1.73244-.19-3.806-.41736-6.08987-.66775-4.59206-.46472-10.12018-.91205-15.395-1.00357-5.26869-.09149-10.26239.17288-13.60621,1.13156-3.3566.95868-5.00705,2.61169-3.90663,5.29754-1.71888-1.36477-4.3-1.56393-6.54551-1.26644-2.25129.29751-4.133,1.09167-4.6584,1.71353-15.7838-.64878-18.16377-1.61688-32.48988-.595l5.83589,1.748c2.15195,4.60211,1.848,6.30094-.1031,6.64774.315,2.372-.48535,3.86474-1.2387,5.899a17.09352,17.09352,0,0,0-.95671,8.693l-1.31772-1.37613a31.29492,31.29492,0,0,0-3.41734,11.26028,16.82907,16.82907,0,0,0,.80713,6.25937,13.27636,13.27636,0,0,1,.56006,5.95856c-.35133,2.60861-1.48909,6.02985-4.15856,12.14575q4.03382.59949,8.06763,1.33881c8.67018,4.37649,6.11376,8.16241,2.2186,14.52295a53.94591,53.94591,0,0,0-5.61078,11.148,29.13165,29.13165,0,0,0-.84741,3.12423,12.03722,12.03722,0,0,0-.39354,2.41773,8.49775,8.49775,0,0,0,1.038,4.66495l4.60865-4.32816c5.93306,6.54813-23.58271,18.30319-25.75257,24.87982-1.511,1.43323-2.41356-2.26379-3.52118-4.26461-10.24254,17.21624,10.55011,2.23092,13.00737,15.05981-5.69944,2.36679-14.49316-3.04834-15.552,5.58609-4.6036,4.30185,18.49841,25.04636,7.57182,36.82773,4.39014-2.59686,8.76849-5.17407,12.06782.78454,1.57151,9.1341-16.5857,24.69355-2.74131,32.94226a5.21907,5.21907,0,0,1-3.4506,1.648c3.56994,6.98206,5.92972,22.69056,13.4343,26.896-27.84174,6.45166,13.54521,43.40656-12.13843,43.25092l1.37486,21.4765-2.622-.561c-1.69422,13.72742,4.46072,18.58155,10.62405,23.40717-1.748,3.17322-4.15315.85687-5.491.59387-5.18178,20.05859-4.08592,22.05286,8.7164,38.87024l-8.33822,1.74878c4.84225,4.55829-13.06957,28.99982-3.34807,48.67267a5.87221,5.87221,0,0,1-3.74306-2.163c9.77866,22.13385-23.0936,52.98987,7.239,61.10053l7.476,14.60614c2.35138-18.8971,13.1721,2.8139,18.19923-4.95929,1.77992,7.43127-9.14667,19.21265-10.70978,10.08081l1.51773-1.42883c-15.81088-3.35517-5.60533,23.48162-16.3773,22.9732q.04731,2.20835.05075,4.41223-.01634,3.10868-.03265,6.21076-.07215,6.248-.28914,12.51782c-.28349,8.36975-.73674,16.82062-1.2896,25.43207-1.10571,17.198-2.60988,35.1297-3.95135,53.51312,18.24336,1.55231,37.51934,2.88678,57.28372,3.13385a99.75053,99.75053,0,0,1-.5517-12.29474l16.37224.70252c1.78461,1.42779,2.76779,3.83337,1.6994,5.81836-1.05568,1.985-4.33595,3.54937-10.84811,3.29473,2.27562,3.4842,8.61366,2.02234,13.77656-.64288,5.2407-2.66528,9.28792-6.53393,9.59023-7.86346,5.72772,1.24334,8.16493,2.76086,8.50458,4.34228.34744,1.58148-1.42888,3.22681-3.90442,4.72583-4.8902,2.998-12.7347,5.41077-8.56421,5.55615l11.39747-.911-2.46658-1.44042a34.48244,34.48244,0,0,0,3.08208-1.8855c.45651-.31262.88872-.62335,1.30285-.93073l.60837-.45831.29547-.22693.19248-.22528a30.67829,30.67829,0,0,1,3.01492-3.257c2.14545-1.8847,4.87714-3.06628,10.08627-2.76459,6.59195,2.469,3.38144,7.58692,5.97614,8.05414-.01532.89081.86127,1.29254,3.97974.36475l15.30746,1.04712-6.12079-9.70472c6.78479-4.78845,14.39359.50928,7.33048-10.48791,10.36786,16.95886,57.0989,6.08942,63.46512,11.34509,9.50225-7.07428,18.88177-6.94317,30.501-6.08935-2.88836-2.027-4.61743-12.93341,5.40418-11.604-3.66416,22.5188,18.35141,9.77362,26.45111,25.98285-7.23844-10.74676,28.49136-2.65564,17.133-17.91522,8.36267,1.83032.50843,8.43237,6.85276,13.73346,19.903-8.72815,43.86236,5.6709,68.46386,2.72455.38355-2.96655-3.73645-7.476,1.54059-11.87964L529.27667,964.326c4.85852-1.44373,4.47284-17.06134,13.35047-6.802-1.25348-2.48755-3.125-6.23059.13372-7.17853,48.19489,14.399,98.48273-11.8006,147.42713,15.26129-6.62921-5.73645-2.21118-6.29443,2.85107-6.50787-3.29156-1.36646.07453-7.29621-.572-11.30982l20.4903,11.1333c3.73431-11.11987,21.96954-.75128,24.10846-11.38714l-6.489,1.92114c8.63-12.557-12.07507-27.89215-10.81274-43.99384-9.66223,14.26795-25.47815-21.12371-41.33124-.70587-3.49981-3.291,2.98474-5.19018,1.11328-8.9198-4.01922,6.89783-8.87109,8.33319-17.86493,5.244l1.01685-1.711c-25.26556,1.68244-36.098-5.12127-64.482-9.65094l2.10162,7.96009c-6.09888-1.0589-7.38306-3.55817-10.23859-5.55658-6.99957,12.07623,17.1308.68573,10.7536,13.99731-8.09094-16.20081-43.01208-.242-48.47985-18.65466-9.38385-.10254,2.7503,9.21722-6.62922,9.10968l-2.4873-4.98175-2.37116,6.41876c-6.15148-1.05884-9.25463-7.29279-9.48474-11.50641,1.49243.50085,4.24274-1.17822,5.84247-1.543-7.97693-5.86749-22.49328,1.99841-25.23263.09076l9.01571,3.06909c-25.60739,4.66071-56.87317-1.88415-81.61273,8.2525l1.87808,3.74976c-18.8927,6.9516-15.13214-4.12793-35.87445-.911l.75388-.89081a20.61449,20.61449,0,0,1-15.371,5.20362c5.23761-4.40357-9.85508-8.54328-2.98481-13.42255-20.4859,7.46429-10.13339,5.8642-23.66354,19.82794L361.0108,903.686c-4.61087,5.6507-4.99658,8.62568-15.35568,10.23413,8.49637-5.34649-6.61166-9.49121,2.90592-16.56555-21.73725-13.636-32.27826,13.75867-42.25165-6.17169-9.98218,17.25128,18.81161,9.57355,13.22116,13.27124,4.681,5.63391-8.24,12.89642-15.062,11.16528-6.9448-.395-11.80768-22.08514-29.27591-21.749,1.73782.08234,1.85617-1.23028,3.58963-1.14459-6.53717-4.39856-12.80918,5.95825-20.82779-1.19336-3.81236,10.44257-5.17671-.59161-8.10353,12.70825q2.75092-.77069,5.31146-1.54126l1.26836-.38531c.11331-.03211.18991-.06427.33264-.09638l.50076-.09631,1.0015-.19263,4.006-.77063a17.96793,17.96793,0,0,0-3.39356,1.80426c-.56576.37219-1.13272.77442-1.7026,1.19806l-.428.3216c-.11829.10846-.19583.21814-.29712.32885l-.58647.67609a40.73207,40.73207,0,0,1-5.63111,5.55988,16.84281,16.84281,0,0,1-7.27079,3.49,8.76292,8.76292,0,0,1-7.46277-1.88068,32.78107,32.78107,0,0,1,4.42024-4.35462c1.711-1.46374,3.42415-2.83819,4.70612-3.8189-.868-1.964-2.33294-1.31562-3.9746-.68006-1.60257.6355-3.38562,1.25824-3.87942-.757,3.70134-6.65747,6.48361-7.38061,9.64869-7.70837a18.05692,18.05692,0,0,0,4.9553-.88739,7.96333,7.96333,0,0,0,4.42659-4.44855c-.46724-1.40558-1.14029-1.50586-1.96961-1.091a25.55362,25.55362,0,0,0-2.72052,2.00024c-.89081.65534-1.65376,1.03577-1.78741.35144-.15015-.68432.4015-2.43347,1.73146-6.03741-1.74306,4.58172-3.32532,6.72723-4.62567,7.58716a2.70544,2.70544,0,0,1-3.24379-.126c-.93625-.56049-1.7638-1.25574-3.19455-.93506-1.45437.32062-3.50345,1.6571-7.50708,5.16022q2.95584-3.98585,5.81576-7.9718c-.81119.62353-2.30307,1.87695-3.85948,2.94952-1.54619,1.07251-3.1642,1.96417-3.93861,1.86414q5.77125-5.17082,10.54791-10.34168c-3.12006,2.85864-4.60283,3.05219-4.92725,2.17188-.35762-.88031.43627-2.83454.99817-4.27149,1.55919-2.548,2.50943-4.13171.81818-3.60437.07661,1.6723-.85826,3.3432-2.35675,5.14295a63.50371,63.50371,0,0,1-6.15207,6.26031c-2.4695,2.368-4.989,4.82935-5.43878,6.82068-.98587.46307-1.88427.84668-2.6473,1.15716-1.71127-1.06683-1.2006-3.56329.47071-6.25195a54.00507,54.00507,0,0,1,7.43457-8.72326c2.9313-2.95179,5.962-5.79834,8.03068-8.04523,2.06871-2.28485,3.17548-3.82135,2.259-5.07215.56389.22779-.63239,1.60694-2.43227,3.26606-1.79988,1.61566-4.20337,3.53326-6.05388,3.44519a23.55285,23.55285,0,0,1,3.49492-4.69055,20.08893,20.08893,0,0,1,5.40973-3.9961c-.83532-1.99237-2.88922-1.63556-5.34775-.4162-1.22926.59711-2.55967,1.40625-3.88952,1.99341a4.71765,4.71765,0,0,1-3.88608.36768c2.43037-1.27436,3.39839-1.95826,3.43477-2.46308.03636-.49859-.8589-.80664-2.15508-1.16845a42.83355,42.83355,0,0,1-4.56054-1.39551,12.34906,12.34906,0,0,1-2.18723-1.10486,7.092,7.092,0,0,1-.89619-.6886,5.32085,5.32085,0,0,1-.377-.37982,4.19307,4.19307,0,0,1-.32127-.67487l8.10965-.05474c5.20193-20.052-16.90169-5.31653-10.60725-23.36994L228.514,845.2959l-2.906-9.41236,9.224,1.94166c-6.839-10.23859-5.07924-13.42719-2.48584-23.45978-5.69943,2.33172-14.70662-1.31049-14.96545-10.19257,4.81369-6.05725,7.70626,3.3924,6.54991-9.19763,5.06749,2.84235,11.43587,5.95648,3.98,11.43512,2.64215.561,5.0759,2.80292,7.69788,3.38147,5.53137-6.52405,1.25552-16.39441,1.17317-20.9527-.29918,1.75537-.73785,3.8526-1.87909,4.92865l-11.24763-18.25061c3.04553-2.87305,5.491-.59393,7.89956,1.66333-.8908-3.697-4.6204-6.25452-5.3095-11.68933,6.5852,1.40692,13.3889,1.0694,16.49494,8.76367l-7.31634-17.38934c2.864-1.1615,7.88275-8.92371,10.29968-6.66644,3.87415-9.64032-12.79056-23.64826-7.6777-36.429-1.2757-.664-2.49928-1.9964-3.43883-4.71381,1.48579-12.01153,9.57359-22.65332.54625-36.89135l11.809-8.07776c-2.6825-11.15021-14.88648,10.93548-19.3388-7.63074-3.775-13.14447,10.07445-4.90668,13.36034-9.51758-5.94989-6.53717-18.07486-17.90216-8.45253-29.97717C234.75467,620.95892,233.00667,624.09271,233.88068,627.827Zm-5.23221-137.51731c1.69589,2.66483,6.95161,7.977,2.16313,9.9252C221.52206,497.19971,225.966,494.85266,228.64847,490.30972Zm53.42975-101.55911c-1.98108,2.66736-5.04477,1.34628-8.5029-1.72278A10.13236,10.13236,0,0,1,282.07822,388.75061ZM786.14905,488.94443a1.98991,1.98991,0,0,0-.39838-.28488C788.91052,482.71625,787.655,484.82446,786.14905,488.94443Zm-3.5246,12.3424a2.60524,2.60524,0,0,0,3.39349.63114c-2.04718-.86127-2.19506-3.63349-1.61688-6.78919C782.27991,496.00537,780.81091,497.60077,782.62445,501.28683ZM277.349,959.05347l-2.40186-2.1211C280.37106,954.59271,278.85239,956.71051,277.349,959.05347Z" transform="translate(3.1642 -52.2583)"/><path class="cls-1" d="M258.37521,399.8335a11.654,11.654,0,0,1-1.13955-4.40189,2.85352,2.85352,0,0,0-.55487,1.05484,3.63191,3.63191,0,0,0-.04508,1.10638C256.67255,398.34058,257.29367,399.10153,258.37521,399.8335Z" transform="translate(3.1642 -52.2583)"/><path class="cls-1" d="M238.14474,713.35156a3.78041,3.78041,0,0,0-.09916.41852,5.01781,5.01781,0,0,0,1.469.42078Z" transform="translate(3.1642 -52.2583)"/><path class="cls-1" d="M683.80109,404.55643a9.16355,9.16355,0,0,1-1.48145-1.95386,5.31843,5.31843,0,0,0-.8454-1.09134,10.14779,10.14779,0,0,1-.806-1.13989,3.1891,3.1891,0,0,0,.94208,2.63775,3.69125,3.69125,0,0,0,.30774.2663l.17218.12637a1.56521,1.56521,0,0,1,.1.12165,2.97833,2.97833,0,0,0,.4331.43606A3.1945,3.1945,0,0,0,683.80109,404.55643Z" transform="translate(3.1642 -52.2583)"/><path class="cls-1" d="M796.40839,566.6936l-2.10938-7.90686c.40167,3.82416-1.37152,5.18946-2.664,7.12012C793.53088,565.73157,796.27222,564.22162,796.40839,566.6936Z" transform="translate(3.1642 -52.2583)"/><path class="cls-1" d="M746.22766,635.31744c.99671,1.15491.111,2.45008,1.116,3.58966l3.7666-.31555C750.86829,633.66949,747.82776,630.22888,746.22766,635.31744Z" transform="translate(3.1642 -52.2583)"/><path class="cls-1" d="M769.46582,574.01312c-6.82556.62677-4.5061,5.58606-3.24219,11.124a2.99494,2.99494,0,0,1,0-.97961C775.75183,585.7901,772.60883,579.88849,769.46582,574.01312Z" transform="translate(3.1642 -52.2583)"/><path class="cls-1" d="M766.45728,586.42126a13.98977,13.98977,0,0,1,.16809,5.11927C770.44574,592.18921,767.42542,589.46521,766.45728,586.42126Z" transform="translate(3.1642 -52.2583)"/><path class="cls-1" d="M787.15076,516.94275c-1.75135,2.62537,8.71978,1.64795,5.94989,3.13379C801.775,523.00873,782.59589,502.56665,787.15076,516.94275Z" transform="translate(3.1642 -52.2583)"/><polygon class="cls-1" points="750.158 526.239 758.579 524.253 751.789 521.15 750.158 526.239"/><path class="cls-1" d="M753.18268,534.76819l-2.343,8.84918c1.41187-.13367,2.23206.99054,2.864,2.37116C753.99951,540.53613,755.66516,534.56,753.18268,534.76819Z" transform="translate(3.1642 -52.2583)"/><path class="cls-1" d="M753.70367,545.98853c-.15631,2.84014.02857,5.54223,1.4068,7.12231A22.16435,22.16435,0,0,0,753.70367,545.98853Z" transform="translate(3.1642 -52.2583)"/><polygon class="cls-1" points="747.63 514.142 749.387 511.525 749.999 505.277 747.63 514.142"/><path class="cls-1" d="M754.79114,439.64059c-.8017-3.07125-1.60346-6.82342-2.40515-10.18945a2.78978,2.78978,0,0,0-3.26465,1.25427,5.473,5.473,0,0,0-.24311,4.48886C750.89349,437.57166,752.00946,441.10745,754.79114,439.64059Z" transform="translate(3.1642 -52.2583)"/><path class="cls-1" d="M731.7345,468.8486c1.748-2.61224,3.63043-2.78756,6.40033-4.26022l-10.43415-.29367Z" transform="translate(3.1642 -52.2583)"/><path class="cls-1" d="M729.30078,440.68375a7.29425,7.29425,0,0,1-2.51062-2.4047c-.4386-.584-.90942-1.21078-1.3576-1.80749a8.48967,8.48967,0,0,0-1.29169-1.10446c-.81683-.58258-1.52277-.86191-1.9837-.5466a1.41121,1.41121,0,0,0-.491.96072,16.56818,16.56818,0,0,0-.023,3.12744C724.51233,439.88824,726.92084,449.56143,729.30078,440.68375Z" transform="translate(3.1642 -52.2583)"/><polygon class="cls-1" points="673.8 323.67 676.256 323.534 675.904 306.419 673.8 323.67"/><path class="cls-1" d="M542.37512,416.88815c11.44391,4.09937,2.71747-10.57028,13.059-5.44565,2.68677-4.05062-8.45251-4.18508-5.69781-7.68106C542.8288,408.03729,539.2019,405.63211,542.37512,416.88815Z" transform="translate(3.1642 -52.2583)"/><path class="cls-1" d="M549.73633,403.76144a24.78243,24.78243,0,0,0,3.52606-2.59005A10.92038,10.92038,0,0,0,549.73633,403.76144Z" transform="translate(3.1642 -52.2583)"/><polygon class="cls-1" points="729.836 915.478 737.197 919.048 732.446 913.295 729.836 915.478"/><path class="cls-1" d="M740.80011,955.03644l1.73346,10.90643,4.42023-9.86767C745.29047,956.5592,742.06458,957.49878,740.80011,955.03644Z" transform="translate(3.1642 -52.2583)"/><path class="cls-1" d="M250.61932,469.86545l-2.627-.561c-2.83881,1.13959-3.04553,2.86209-3.496,6.31366Z" transform="translate(3.1642 -52.2583)"/><polygon class="cls-1" points="245.622 517.418 245.847 515.7 235.983 518.91 245.622 517.418"/><path class="cls-1" d="M255.038,653.44537c.4185-3.4187-1.785-7.43786-1.35806-10.87194C255.45654,650.02667,242.74834,654.37018,255.038,653.44537Z" transform="translate(3.1642 -52.2583)"/><path class="cls-2" d="M606.52213,235.47054" transform="translate(3.1642 -52.2583)"/><path class="cls-1" d="M1021.13324,420.46655c1.06873,1.63449,5.113-4.84091,6.15375-5.76547C1023.81927,414.20023,1020.0108,422.088,1021.13324,420.46655Z" transform="translate(3.1642 -52.2583)"/><polygon class="cls-1" points="989.701 363.78 991.995 361.621 983.852 365.015 989.701 363.78"/><path class="cls-1" d="M963.96545,398.88968c-5.64288,11.96347,9.46558,4.50232,10.7367,11.21518l-1.11878,2.87274,8.09333-6.97223C975.77747,403.63766,965.24469,404.38049,963.96545,398.88968Z" transform="translate(3.1642 -52.2583)"/><path class="cls-1" d="M968.71332,367.42688c-2.27594,4.57919-5.21137,1.49112,1.87475,3.37109a11.19991,11.19991,0,0,1,.25641-1.4031A8.13318,8.13318,0,0,1,968.71332,367.42688Z" transform="translate(3.1642 -52.2583)"/><path class="cls-1" d="M970.84448,369.39487c2.60425,1.50421.97864-4.5513,0,0Z" transform="translate(3.1642 -52.2583)"/><path class="cls-1" d="M958.09332,363.41406l5.847-1.2334c1.12976-2.869-1.26294-5.5104,1.08355-6.46789C960.31458,355.26364,959.19928,358.12762,958.09332,363.41406Z" transform="translate(3.1642 -52.2583)"/><path class="cls-1" d="M949.43445,368.726l2.77154-.2951C952.67072,367.21851,952.506,366.5408,949.43445,368.726Z" transform="translate(3.1642 -52.2583)"/><path class="cls-1" d="M958.07391,367.81717l-5.86792.61377c-.79657,2.00714-3.27508,5.40338,2.45575.035C952.07611,371.31625,954.977,368.88,958.07391,367.81717Z" transform="translate(3.1642 -52.2583)"/><path class="cls-1" d="M958.84735,370.85956c.06744,3.58081,1.27936,6.71-4.56628,7.91717C961.36334,381.87515,965.946,373.93622,958.84735,370.85956Z" transform="translate(3.1642 -52.2583)"/><path class="cls-1" d="M954.75787,408.72662l.07007,4.81317,4.65589-1.94735C957.171,412.548,957.04773,405.377,954.75787,408.72662Z" transform="translate(3.1642 -52.2583)"/><path class="cls-1" d="M942.54559,343.33267c-1.85479,2.05817-3.35742,6.66495-5.24713,9.66626l4.22754-.78937C941.467,349.80423,940.25116,346.71292,942.54559,343.33267Z" transform="translate(3.1642 -52.2583)"/><path class="cls-1" d="M937.29846,352.99893l-6.314,1.16605C933.75653,356.93719,935.67358,355.5683,937.29846,352.99893Z" transform="translate(3.1642 -52.2583)"/><polygon class="cls-1" points="943.397 327.539 955.073 323.888 942.212 326.825 943.397 327.539"/><polygon class="cls-1" points="932.652 280.824 938.453 277.209 929.152 282.276 932.652 280.824"/><path class="cls-1" d="M920.01788,327.358c4.63349-3.12881,3.375-8.64718,6.86951-10.08764-2.95715-1.04313-7.72406,1.04782-12.01642,2.93035C918.192,319.84888,919.92413,321.87775,920.01788,327.358Z" transform="translate(3.1642 -52.2583)"/><path class="cls-1" d="M908.21729,322.62546a33.489,33.489,0,0,0,6.65368-2.42475A17.17192,17.17192,0,0,0,908.21729,322.62546Z" transform="translate(3.1642 -52.2583)"/><path class="cls-1" d="M925.88812,348.62567c.73438-1.53635,2.83441-5.40561,1.99469-8.34347l-3.2937,7.22366C924.98517,347.84726,925.43335,348.23364,925.88812,348.62567Z" transform="translate(3.1642 -52.2583)"/><path class="cls-1" d="M924.491,347.73633l.09808-.23047c-1.37567-1.2569-2.30035-2.16785-2.68744-2.57016C922.24005,345.27411,923.01514,346.12256,924.491,347.73633Z" transform="translate(3.1642 -52.2583)"/><path class="cls-1" d="M926.214,348.90927a3.46741,3.46741,0,0,0-.32587-.2836C925.55615,349.34085,925.4895,349.59494,926.214,348.90927Z" transform="translate(3.1642 -52.2583)"/><path class="cls-1" d="M935.3418,367.346c-4.647,1.9314-11.69178,2.44348-11.5517,10.828C928.44574,375.03009,928.34949,370.25171,935.3418,367.346Z" transform="translate(3.1642 -52.2583)"/><path class="cls-1" d="M922.08521,357.93179l2.62377,4.19086c1.15741-1.6904,2.28925-4.58054,4.591-5.53766Z" transform="translate(3.1642 -52.2583)"/><polygon class="cls-1" points="921.96 306.288 925.249 305.673 924.273 304.124 921.96 306.288"/><path class="cls-1" d="M910.174,333.17966c-3.62494,1.50357-5.53638.41586-7.8327-.62979a15.69692,15.69692,0,0,0,4.97009,6.64071C909.065,337.46719,912.60352,334.65689,910.174,333.17966Z" transform="translate(3.1642 -52.2583)"/><path class="cls-1" d="M916.72205,340.798c-.21894.06238-.40821.02-.6203.0875C915.92047,341.58011,915.97516,341.87094,916.72205,340.798Z" transform="translate(3.1642 -52.2583)"/><path class="cls-1" d="M882.98718,317.93094c-.145.4176-.379.92276-.53515,1.35922l.87957-1.01852Z" transform="translate(3.1642 -52.2583)"/><path class="cls-1" d="M906.79431,340.61563c.68475,2.39227,2.77423,1.58661,5.10529.3678a11.09714,11.09714,0,0,1-4.5882-1.79285C906.51367,339.97781,906.053,340.53943,906.79431,340.61563Z" transform="translate(3.1642 -52.2583)"/><path class="cls-1" d="M900.62933,321.45779a25.70638,25.70638,0,0,0,.18573,5.47226C901.47968,324.36511,902.13318,320.06647,900.62933,321.45779Z" transform="translate(3.1642 -52.2583)"/><path class="cls-1" d="M916.85815,338.76642a2.61324,2.61324,0,0,1,.44568-.09845C917.774,336.96017,917.35675,337.64987,916.85815,338.76642Z" transform="translate(3.1642 -52.2583)"/><path class="cls-1" d="M916.85815,338.76642a20.71216,20.71216,0,0,0-4.95855,2.217,10.72516,10.72516,0,0,0,4.20215-.0979A13.25757,13.25757,0,0,1,916.85815,338.76642Z" transform="translate(3.1642 -52.2583)"/><path class="cls-1" d="M847.20172,353.29489c4.6-5.5354,12.76416-7.70975,11.73175,1.15756,6.78058-1.64154,18.66937-22.27508,23.51856-35.16229-1.992,2.42041-3.73346,4.73636-9.93219,5.38971-1.07672,4.08936,2.57306,13.41946-4.41108,16.304-7.04943-.67871-2.426-5.01148-2.49487-9.80786-3.37921,8.64862-13.97131,5.78955-20.83185,17.103l7.01972-.51956C850.649,349.458,847.15063,350.9137,847.20172,353.29489Z" transform="translate(3.1642 -52.2583)"/><path class="cls-1" d="M888.95917,325.098l2.03564.416c-.96-2.28369-.45605-5.503.67389-11.69757-4.61047.935-6.72821,2.67291-8.3371,4.45517l6.78522,6.35516Z" transform="translate(3.1642 -52.2583)"/><path class="cls-1" d="M897.749,330.55417c-5.87024,5.368-11.47516,5.32144-14.35333,13.74292,4.72961,2.87533,7.01154-2.90259,11.68115-3.63648-8.27356-3.78759,4.6579-1.94589,2.18628-9.34582a11.11081,11.11081,0,0,1,5.07825,1.23508,23.34736,23.34736,0,0,1-1.52625-5.61982c-.04425.1937-.07873.3335-.12933.51111l.04095.015-.06793.076c-.28491,1.0162-.5437,1.57077-.55322.86441-.077.05334-.18182.01306-.24408.0162a21.35838,21.35838,0,0,1-2.0863,2.1066c-1.08808-2.83631.88775-1.85462,2.0863-2.1066.26343-.30133.53748-.54932.7973-.88061a.64344.64344,0,0,0,.027-.091l-9.69092-1.92712C891.84552,327.51807,893.86432,328.75912,897.749,330.55417Z" transform="translate(3.1642 -52.2583)"/><path class="cls-1" d="M909.89093,388.75565a4.8287,4.8287,0,0,1,.86066-1.61847C909.71674,387.55542,909.15063,387.94473,909.89093,388.75565Z" transform="translate(3.1642 -52.2583)"/><path class="cls-1" d="M909.79834,382.78363c1.1701-.47766,3.47754-2.64957,4.68054-.74838.05011,2.9707-2.25647,2.98657-3.72729,5.10193,2.26208-.89835,6.91845-1.81476,6.02942-7.25052l-1.14557.47568c-1.2511-4.30057.92987-14.86493,2.0769-15.34864A94.72836,94.72836,0,0,0,909.79834,382.78363Z" transform="translate(3.1642 -52.2583)"/><path class="cls-1" d="M902.36957,358.11029l-8.22925-1.39334-1.04712,7.67572,2.28845-3.36209C897.7934,364.83954,900.07068,360.29538,902.36957,358.11029Z" transform="translate(3.1642 -52.2583)"/><polygon class="cls-1" points="887.811 262.054 893.562 256.042 883.124 262.797 887.811 262.054"/><polygon class="cls-1" points="879.519 257.049 884.111 251.535 879.48 253.462 879.519 257.049"/><path class="cls-1" d="M421.31805,160.09912l-.58746,2.77709A6.52533,6.52533,0,0,0,421.31805,160.09912Z" transform="translate(3.1642 -52.2583)"/><path class="cls-1" d="M433.69415,153.22383l-1.46509-3.23836C432.63263,151.99631,433.1261,153.37283,433.69415,153.22383Z" transform="translate(3.1642 -52.2583)"/><path class="cls-1" d="M686.72345,167.73529c1.494-7.267,4.911-17.71022.36127-11.02234l-3.94922,6.87383C685.75476,163.79239,686.58917,165.51175,686.72345,167.73529Z" transform="translate(3.1642 -52.2583)"/><path class="cls-1" d="M528.94073,107.89838c-.22442.8007-.45819,1.63469-.69,2.46186,2.2414-1.69837,4.34961-3.2958,6.233-4.7229C532.77759,106.3703,530.90924,107.11068,528.94073,107.89838Z" transform="translate(3.1642 -52.2583)"/><path class="cls-1" d="M507.57635,132.58508c-.04006-2.14894-.406-4.54286.16373-6.23329q-.22494.66174-.41748,1.33116a3.37759,3.37759,0,0,0-.2153,1.44785A18.92665,18.92665,0,0,0,507.57635,132.58508Z" transform="translate(3.1642 -52.2583)"/><path class="cls-1" d="M361.34192,214.15924l3.2008,7.7264C367.424,219.488,363.596,217.39711,361.34192,214.15924Z" transform="translate(3.1642 -52.2583)"/><path class="cls-1" d="M795.73175,252.32027c-.33844-4.10695-1.30255-6.45049-2.60413-7.90595C793.04974,250.00842,791.10077,257.02875,795.73175,252.32027Z" transform="translate(3.1642 -52.2583)"/><path class="cls-1" d="M382.74564,85.74824a6.17581,6.17581,0,0,0,.75854,5.13765C384.06479,88.965,384.01917,87.24417,382.74564,85.74824Z" transform="translate(3.1642 -52.2583)"/><path class="cls-1" d="M786.78967,239.68262a21.35957,21.35957,0,0,0,.0445,2.349c2.393.149,4.63995.51278,6.29345,2.38267C793.19519,240.2699,792.219,236.92522,786.78967,239.68262Z" transform="translate(3.1642 -52.2583)"/><path class="cls-1" d="M139.61479,423.048a7.18443,7.18443,0,0,1-1.16788-.11145C139.19937,423.70355,139.44559,423.50806,139.61479,423.048Z" transform="translate(3.1642 -52.2583)"/><path class="cls-1" d="M19.9999,439.23865a10.37493,10.37493,0,0,1,1.98432-3.2804C21.129,436.12326,20.42938,437.02823,19.9999,439.23865Z" transform="translate(3.1642 -52.2583)"/><path class="cls-1" d="M847.43121,283.26315c1.9422.818.77808-.49554,0,0Z" transform="translate(3.1642 -52.2583)"/><path class="cls-1" d="M836.66138,314.12289a8.82352,8.82352,0,0,0-2.95227,2.56784A11.4075,11.4075,0,0,1,836.66138,314.12289Z" transform="translate(3.1642 -52.2583)"/><path class="cls-1" d="M741.07343,266.60989c-.0481-.03613-.06781-.08957-.12275-.13089C740.50946,268.07687,740.60492,267.77634,741.07343,266.60989Z" transform="translate(3.1642 -52.2583)"/><path class="cls-1" d="M847.73755,287.97247a9.64755,9.64755,0,0,0-.68549-3.4371A10.17832,10.17832,0,0,0,847.73755,287.97247Z" transform="translate(3.1642 -52.2583)"/><path class="cls-1" d="M849.64337,284.74951c.35059.70627.67529,1.19562.96961,1.68253C851.60419,285.54285,851.92,284.74289,849.64337,284.74951Z" transform="translate(3.1642 -52.2583)"/><path class="cls-1" d="M844.89746,281.89594a5.56727,5.56727,0,0,1,2.1546,2.63943c.00409-.6734.13031-1.12106.37915-1.27222A28.45185,28.45185,0,0,1,844.89746,281.89594Z" transform="translate(3.1642 -52.2583)"/><path class="cls-1" d="M238.25992,288.67874a6.98609,6.98609,0,0,1-.825-.21887C238.27675,292.21326,238.55016,291.21713,238.25992,288.67874Z" transform="translate(3.1642 -52.2583)"/><path class="cls-1" d="M595.08557,201.104c.12451-.00625.29016-.14277.40784-.1542-.02313-.1286-.05274-.28937-.06586-.415Z" transform="translate(3.1642 -52.2583)"/><path class="cls-1" d="M585.70038,201.37262c8.38428-5.94978,9.08093-3.91856,9.72717-.83783l11.69544-19.594Z" transform="translate(3.1642 -52.2583)"/><path class="cls-1" d="M393.75241,181.5034q4.02538,1.45407,8.01285,2.96961c2.10983,12.79561-3.46762,11.9082,5.89633,17.38856-6.97748-10.17033-3.60825-13.38247-.23477-16.51057,3.37421-3.13394,6.74841-6.162.14218-16.57186l5.48026,2.57225c-.87024.297-.18519,1.57619-1.04426,1.86767,5.77973,3.23867,4.207-1.08121,2.32392-6.39893-1.89664-5.30586-4.11432-11.6947.17419-12.3365,3.34049.098,6.82184,2.1696,6.81494,5.61549.6185-2.76326,1.25672-5.58052,1.92853-8.34177,1.75437-.49406,3.58533,3.39811,1.86438,3.88224q3.38682-3.21077,6.8169-6.31343l.3012.65931a77.1516,77.1516,0,0,1-1.094-13.57959c3.762,1.979.22922,2.85384,2.23914,5.24263.513-2.54011,1.04962-5.12716,1.62252-7.66241a11.10244,11.10244,0,0,1,3.39579,7.9077c-.01261,2.52409-1.0217,4.60149-2.74231,5.01416,7.97577,9.66591,8.02011,7.8479,8.1473,4.591.055-1.62681.1185-3.62014,1.12751-4.69977.99817-1.03945,2.96594-1.208,6.65274.99378-.84726,1.55133-1.69513,3.18211-2.51956,4.75618,4.44491,5.58629,6.776,6.86864,9.00164,7.54915,2.22617.64389,4.37238.658,8.15332,3.70627-1.39807-1.85022-5.69226-5.92986-9.64642-10.3337-3.93066-4.41032-7.43988-9.24882-6.44156-13.15013,2.13,1.03069,4.14453,1.05818,4.61991-4.58676,3.60916,7.99339,5.0762,4.96039,7.82727,3.29124l4.20065,10.83214c1.673-4.26918-.6796-9.72075-.67264-15.28389a4.06679,4.06679,0,0,1,2.88275,1.26692,16.55654,16.55654,0,0,1,2.7107,3.57787,97.54672,97.54672,0,0,1,4.92221,10.22253c2.56228.16538.73929-3.03669-1.23273-6.72984-1.963-3.69949-4.14349-7.84378-1.27914-9.88261a9.18674,9.18674,0,0,0,1.92572.74594,3.79572,3.79572,0,0,0,1.29971.11967c.548-.04461.95859-.54837,1.35934-1.44232.81729-1.70834,1.60138-4.89242,3.32892-8.65292a7.79977,7.79977,0,0,1,.92182,5.43025,15.48957,15.48957,0,0,0-.07322,5.04338,91.49688,91.49688,0,0,1,1.53724-9.56717c.47213.19207.23812,3.09649.14508,4.55782.75219-1.87127.95318-4.8305,1.25061-7.73843.31451-2.90566.749-5.79038,2.5769-7.41367.5408-3.26755,1.2056-3.72646,1.879-2.75a9.31647,9.31647,0,0,1,.979,2.30721c.31211,1.01289.6033,2.2019.87857,3.37045.27732,1.15964.534,2.34358.80768,3.3296a6.57126,6.57126,0,0,0,.9357,2.22093c.75027.86693,1.7898.32013,3.949-3.05344a17.97154,17.97154,0,0,1-1.74276,5.3913,47.60272,47.60272,0,0,0-2.38574,6.08826,31.91029,31.91029,0,0,1,3.8052-3.83339c1.087-.91455,1.87518-1.57775,2.62052-2.20485.83322-.71428,1.71041-1.52418,2.99942-2.692,1.29641-1.16232,2.99105-2.69282,5.64639-4.70751a66.43106,66.43106,0,0,1-1.00806,8.77434,25.595,25.595,0,0,1,7.8245-11.42633,30.62315,30.62315,0,0,1,2.95117-2.19951,25.9666,25.9666,0,0,1,3.378-1.814c2.33978-1.11059,4.74621-2.09439,7.047-3.01358,1.2259-4.34494,2.327-8.12766,2.636-10.09507l10.3075-.04283c-.35218,2.11882-3.41248,4.812-7.40046,7.87686,1.0232-.42929,2.01722-.86683,2.87787-1.323-.23309,5.1959-5.47461,9.63372-11.05359,13.55217.57648-2.43142,1.24939-4.97879,1.94269-7.50628-5.85949,4.4181-12.06964,9.51913-15.81915,15.20825a6.45894,6.45894,0,0,1,4.03925-.89236,11.50049,11.50049,0,0,0-3.37616,3.45227c-.509,1.14055,1.71673-.3936,4.57189-1.9561l-6.28479,11.46492,3.4502-3.8347,3.72369,12.92484c13.968-5.78522,30.8429-17.10093,43.7995-14.03034-8.12158,5.76372-9.83252,11.99364-16.72046,20.88016,4.4925-11.5141-10.5877-1.64346-14.19354-7.36958,1.88385,2.98521-1.92267,6.84031-3.70386,7.812l15.5152-1.86815c-5.73279,7.20122-2.22839,6.94869-2.16028,11.76038,9.14325-15.86488,13.99451-4.62343,21.00867-6.31629-3.43524,5.04236-8.06549,9.37-11.64856,4.81876-3.28918,14.65271,19.20325-12.25728,17.06043.68085-1.178-.70876-1.20734-1.89537-3.50806.26564,5.81567-2.42148,9.46722,5.7113,4.81311,8.84506l-1.16528-.71959c5.95715,7.17862,21.9992,16.7123,32.359,5.18782-1.13349,1.65851-12.13227,14.15537-14.44538,16.31847l44.147-31.76679c-9.10589,9.73638-23.69415,38.24932-34.21972,39.72405.59271,2.80667,1.40368,6.177,7.86145,5.169-.04431-2.39426,8.58075-17.52509,10.92254-17.28748-4.44842,15.11589-1.67865,8.61969-3.78924,22.76709-.06494-3.5903,14.394-18.734,16.782-16.10061-2.30145,2.1537-12.0907,16.56347-14.41314,17.52772l19.2088-11.084c-3.9408,1.63155-10.69928,13.5916-12.61933,19.38054,1.68549-3.74283,5.7876,4.80594,8.85273,4.584l-.0962-6.002c5.98529,8.36887,24.98841-17.10356,32.12458-10.396-3.47071,2.65474-17.91657,18.98414-15.49817,24.0058,8.09088-6.98537,38.23535-34.13242,49.95642-35.38927l-2.2702,5.76851,9.373-1.4697c-12.73981,10.09581-41.8562,29.60277-54.63324,36.102.09186,5.98733-3.42346,6.25436,1.30475,9.11728-1.81512,5.64534-7.49933,4.98526-8.99206,4.27825l8.06134,10.58373c6.87908-10.09631,15.17865-3.89417,20.89575-12.31033l-18.71613,1.75181c6.871-10.07522,27.23248-22.83726,33.19763-15.67537-1.079,5.275-14.43011,16.31861-16.726,19.68645,3.462-2.64532,11.7038-1.238,10.58057,1.64269l-6.99719,2.902c1.28088,6.69983,16.30456-7.96927,14.159,4.9827,1.20276,1.88513-4.4389,16.31036.18512,10.76349,5.63648-13.18054,30.977-47.99205,39.08246-54.98239.01972,1.19528.79382,17.24612-1.42883,24.181-3.8053,10.8004-19.7713,17.67806-23.05762,26.9345a22.41114,22.41114,0,0,1,7.52985-5.31189c.04626,3.59887-6.93378,7.70562-2.20807,9.37484,8.06268-9.3948,7.14484,6.67554,8.08954-6.99777,5.86145-.0148,2.4331,5.03272,7.15655,7.88754,3.403-7.43432,20.27863-18.76535,26.15241-18.78222-2.11054,2.34716-3.73517,6.25833-4.45117,8.05819,6.99023,6.65241,7.72625,14.2342,14.80572,19.69147-1.14087,2.88785.1283,8.37567-4.54,11.52829,2.34564-.98083,5.81067-3.624,8.18988-2.20041-2.15973,11.74945-5.9082-2.37-10.389,10.35611,4.59589-5.534,11.66773-3.65338,17.49891-4.87594,5.70922-9.6026-5.96729-7.159-11.80664-5.93576,9.18328-12.24344,24.29162-20.94645,36.01538-20.99357,8.22076,1.421-3.37256,9.84089-1.03815,8.88111,9.54083,10.51578,25.56244-14.227,28.17572,1.56552-2.18433,10.55048-11.48676,15.62146-14.90552,21.86346-7.05438-.6824-3.69977-10.53-7.21252-12.67874l1.25946,6.72226c-3.49158,1.44266-8.19074.97391-8.25879-2.596-2.18244,9.31012,17.82721,15.49347,21.56256,28.42932,3.48718-1.45727,8.167-2.19036,9.27429-6.26123l-3.53747-.95962c2.22393-8.16428,11.659-4.84494,10.42224-10.36969,6.97473-1.67716,16.28943-5.54706,18.75506,1.87106l-5.71905,9.61566c1.84424-2.68139.61841-7.81424-2.85956-6.19564,5.11011-2.33686-1.17316,17.96234,9.93011,8.08206l1.0304-8.86878c7.02435-1.71246,18.6543-7.74838,21.09674-1.51681,4.53052-10.33911-1.80554.21554,2.68451-12.49222-6.80835,14.89417-11.24475-9.29758-16.83374,7.51688,5.64111-14.41428-1.95294-9.36634,1.35815-22.80625-2.07269,3.03629-2.688,6.77561-5.41912,2.44959a20.67187,20.67187,0,0,1-2.78205,1.95346,1.98986,1.98986,0,0,1-.09338-.413c-.01074.17359-.04981.344-.04968.50522-.49842.31763-.58509.40228-.00873.175a14.42609,14.42609,0,0,1-1.40778,5.92673c-6.96051,5.30639-12.88275.52633-17.56085,2.46841-1.21722-3.10373,3.483-2.65683,4.59583-6.71451L826.314,293.239c4.58868-6.73571,2.11175-15.35418,10.32525-15.15316l-4.59155-3.90662c-.087-5.77933-2.88733-10.16428-7.35016-9.22946-1.21179-3.111-11.15283,2.90323-5.34051-.71268l-10.578-1.63611,1.14948-1.6737c-6.8216-6.42115-23.43268-.7323-23.09442-18.89566-3.7414-.2412-7.84308-.17676-10.64759-5.17316l3.42133-6.25146c-4.68835-.46065-5.41974-12.90389-11.21631-8.073,7.9325-17.77416-13.12372-15.05094-16.76044-21.99213l-5.74578,7.196c-3.58564-3.3386-8.89344-4.05394-15.94233-4.74359l-4.58795,6.72042c-8.17975,2.2012-7.23889-12.68042-14.334-16.969,2.31744-2.14847,3.50189-.24307,3.55108,2.15489,3.17493-20.61834-24.64373-1.82-23.74121-17.89051-3.56378,1.03419-4.24347-.74588-4.2691-3.31a.83716.83716,0,0,0,.70215-.0146,2.46669,2.46669,0,0,0-.66663-.6352c.05481-1.70906.22241-3.61709.126-5.315a16.99521,16.99521,0,0,0-.537,5.04454,14.20434,14.20434,0,0,0-7.431-1.55817l4.38013-7.63488a4.48781,4.48781,0,0,0-.618-.16054c-.067-4.07988-4.09632,2.09575-6.98182,8.15759a19.40454,19.40454,0,0,0-5.86151,2.176c6.84937-12.49557-8.21118-.22652-1.39276-13.91673-5.7821,4.82586-13.575-3.30629-23.94513,8.22175,1.144-1.66644,1.11835-2.8844,2.29981-2.16175-1.22083-3.11322-2.43756-6.22788-7.09546-4.282l5.71142-9.6055-13.94207,8.19975c1.05041-7.68,2.16577-11.76762,10.29828-16.34488-15.14624,5.07863-8.84821-.45579-22.83155,5.32929l4.61518-5.51265c-2.36438-1.43511-11.67121,3.62124-9.42756-2.12415,3.28949-14.61843-23.21337-19.816-28.20849-39.46756-10.26477,18.75146-.18237-11.98047-10.53284.74285,2.26727-4.54715,2.20819-8.133,6.86005-10.06073-9.39044-.93163-4.90882-13.63437-17.66858-5.93043,2.28161-4.57039,5.78058-4.81568,6.91577-7.69191-1.16913.47841-4.66473,1.94073-3.53552-.95817,1.132-2.87188,3.46173-2.63875,5.79175-3.61316-7.09052-4.27829-17.02124,7.5416-26.192,18.741.77624-7.97928-1.46344-8.467-9.58173-2.68723a37.9291,37.9291,0,0,1,2.61408-6.58038,4.04448,4.04448,0,0,1,5.22052-1.77369c-.23554-.28578-.56677-.75195-.9801-1.33117-.20752-.28849-.43549-.60538-.68-.94522l-.188-.25689-.29345-.3376q-.30871-.3469-.634-.71236a55.66271,55.66271,0,0,0-6.21435-6.02824,24.33354,24.33354,0,0,0-3.48523-2.38843,13.1626,13.1626,0,0,0-1.718-.7982,8.55335,8.55335,0,0,0-1.70007-.30634c-2.20819-.15786-4.09156.75723-5.40137,3.35388.24133-3.341-4.1817-3.69954-5.46686-2.9696-.85632-.65768-1.61218-1.25577-2.2937-1.80573l-.49762-.40364a3.113,3.113,0,0,0-.54462-.22971l-1.03216-.39221c-1.31494-.501-2.39929-.94829-3.50781-1.28231a25.35074,25.35074,0,0,0-8.80768-1.11211c.65695.70251,1.2998,1.39306,1.92032,2.13676-3.093,6.61679-4.69062,7.29-6.568,6.36631-.93325-.425-1.9259-1.23658-3.11578-1.85475a5.79038,5.79038,0,0,0-4.19852-.53313l.28574-1.4231c-3.53445-2.455-5.93735-3.25852-7.50577-3.31248a4.24583,4.24583,0,0,0-3.18292,1.18451,3.7149,3.7149,0,0,1-3.09909,1.00335,12.87419,12.87419,0,0,1-3.06479-.83993c-1.31348-.50629-2.96082-1.28024-5.12235-2.29381q1.11942,4.21476,2.16193,8.44356c.71277,9.40418-2.28693,7.182-7.13263,4.08142-1.20822-.78972-2.522-1.58772-3.77283-2.34959a19.53538,19.53538,0,0,0-3.72161-1.84058c-2.39866-.81958-4.604-.689-5.80668,1.62846,1.39371,1.28525,2.74949,2.55753,4.11091,3.87642-.47706,1.82257-1.82264,1.46325-3.7573-.1289A76.995,76.995,0,0,1,443.54907,71.12c-2.66366-3.00159-5.49811-6.21821-7.97409-8.69083-2.47943-2.47881-4.65124-4.24956-5.89706-4.36784-1.52222-1.14385.43554-2.99609,1.30673-4.60983-7.61935-2.92095-6.87735-.06649-5.10468,4.11223,1.79361,4.2134,4.46878,9.83174,1.2598,12.70223-3.91061-4.99351-4.41421-15.16667-10.21893-13.82762-2.34784-1.65377-4.12989,4.66093-6.44025,10.42493-2.33343,5.78973-5.23148,11.0069-11.28393,7.60314,3.70855,3.37264,7.28656,6.80167,5.812,11.67044-2.02524,2.06275-7.45526-.01709-12.09067-.59063-4.61835-.58556-8.38785.33157-6.62256,7.99877a8.17438,8.17438,0,0,1-2.79129-2.659c-1.61475,5.48288-8.12277,12.67924-5.69461,20.79988-9.824-11.53791-13.2648-4.8552-15.8367,1.72537-2.59958,6.59206-4.40887,13.12412-12.47244,1.835q-4.6979,4.29136-9.30039,8.62561l-1.42264-2.46806c-7.55935,3.35381-5.79174,10.39539-3.94711,17.35343-2.59738-.37775-3.12546-3.25094-3.88309-4.49071-12.61071,2.68356-12.90341,4.45019-11.74978,21.24609L312.758,149.1416c.61792,2.85477-4.83487,2.7405-10.73557,3.89081-5.90152,1.13556-12.22635,3.577-13.15167,11.2408a8.73731,8.73731,0,0,1-1.66446-3.88519c-1.44125,8.15211-11.263,8.3797-18.541,10.171-7.27069,1.7722-11.959,5.04134-2.76883,18.78473l-.78915,11.56529c9.66086-5.28494,8.34207,11.61962,15.24423,12.70845-1.79535,4.2-14.63827-.05592-11.96356-4.76753l1.69843.67116c-10.068-13.92931-13.90808,4.482-21.54906-4.25348-14.96773,14.96968-36.41789,22.39494-51.1209,35.82838l10.92588,7.8732-5.44126,4.28907c-3.45256-.926-9.03463-5.68132-5.13011-8.75528-7.14126-3.53363-1.45044,10.30774.48084,12.43516-10.62519,2.98322-8.22828-13.63789-10.541-11.78027l-2.16963,3.53889,1.73979.46129c1.5132,6.15161,5.36646,10.41827.73258,14.14035-4.52837.76615-7.15767-4.42148-8.557-3.7326-.675-.68442-1.33714-.63758-1.87579,1.3294l-6.93219,5.39862,9.89578,4.88617c.976,6.37122-6.11363,5.41642,5.1456,10.90622-8.5755-4.34854-15.42127.28217-20.9025,5.83338-5.48689,5.54992-9.59233,12.02047-12.88841,11.35644,1.79176,9.17044-1.95981,12.88925-7.1426,17.02246,2.71178.31989,11.91906,7.72013,7.00321,10.82178-16.24918-18.20322-14.7697.27408-30.668-8.33359,11.26184,4.929-8.91693,13.7573,7.529,20.27887-4.65839,2.1117-6.86151-5.98953-13.49742-7.252-.73872,14.64438-21.349,14.11029-28.3752,26.606,2.22972,2.3092,7.3991,3.85357,8.92256,9.25305l-16.76651-5.24008c-.689,3.094,11.99719,14.19732.40455,10.53277,2.47318,1.2649,6.18547,3.17844,5.71831,5.23065-14.876,4.94523-21.75089,17.505-29.82843,28.97809-8.0934,11.4935-17.38222,21.8877-37.51459,22.99771,7.15635,1.14954,5.98473,3.452,4.3003,5.78641,2.33324-.465,5.9712,5.1366,9.50922,7.66483l-16.6729,1.08755c7.81561,9.34036-7.41569,10.09259.62528,18.39441l.7674-4.15973c3.6333,6.22449,10.51838,9.721,18.07437,13.166,7.55951,3.44006,15.79486,6.8287,22.22149,12.69043-4.17041-7.00788,2.48062-6.05255,8.756-5.92231,6.28093.1233,12.18376-.5758,6.67032-11.08374,3.96211.83365,3.1806,4.90119,6.91582,6.72855-4.21294-6.53079-3.6298-9.59485,2.155-11.20453l1.03162,1.63269c7.7851-11.80517,17.28437-11.54519,31.3222-20.11175l-7.22085-4.80274c3.09562-1.78439,5.58905-.53485,8.25365-.29284-7.20686-11.5402-6.83668,6.63757-15.28445-5.51023,16.07167,8.17935,16.04913-17.74823,32.91194-6.76169,3.54548-3.79623-8.433-5.49755-4.87922-9.295l4.925,2.56345-4.27961-5.60553c3.13144-1.77915,9.2853,1.4476,12.74984,4.39743-.95418.25143-.6247,2.59305-.9215,3.51446,7.65051.9607,6.71768-10.67428,9.2685-10.41534l-5.80065,1.472c5.77837-13.90952,22.65543-21.86316,23.96358-39.329l-3.674-1.99384c1.66235-12.79157,8.97667-3.10727,14.31527-13.85959l.41321.96335c-1.358-4.43842-.73477-8.09,1.773-10.05624,1.45627,5.37426,10.44885,2.38208,11.65349,8.7684,1.96678-13.76328-.74007-8.41562-6.44448-24.265l6.06761,3.41083c-2.62727-6.06738-4.7983-8.4523-2.04176-13.81323.87311,7.40424,9.92319,4.4743,11.75246,13.57346,9.47262.78158,9.89688-4.98719,10.39636-9.60434.49446-4.61048,1.051-8.06232,10.65918-2.49134-9.4227-16.99753-14.67271.21076-15.35642-4.79049-6.17533-2.37992-6.76165-13.01023-2.75369-14.41874,3.02773-2.46966,21.592,12.03568,28.11356,4.95832-.7401.61639.21792,1.66113-.52068,2.27517,5.90344.80109.43561-9.55624,9.02541-7.21231-6.19768-9.74469,4.51906-3.58932-5.07988-14.29107l-3.94635,8.6166c.88827-6.19726-7.56766-21.49807,4.10432-21.53552,1.5611,2.51676,2.47678,6.9729,2.7571,9.66861,4.70335,1.32318,1.36038-5.277,6.2065-3.92663,9.55159,10.7507-5.49294,9.7789-1.57721,21.34518,6.10113,2.49023-.11953-14.53061,8.90692-1.57-11.13118-16.80954,8.48246-4.83673,2.57664-20.19177l5.69428,6.46649c-.203-1.67959-1.50675-6.08514.00586-7.25155l5.3182,10.39865c-2.85644-10.50388,13.0539-1.02677,13.06516-8.22592-7.39932,7.46145-8.889-5.85615-16.467-7.29188,1.46838-17.37026,20.98709,11.053,28.62573-1.86758-.58429,2.2229-8.89624,1.29892-9.41165-3.71237a20.40683,20.40683,0,0,1,12.4819,1.45218c5.76471-7.85846-7.13644-5.47412-7.77112-12.1337,9.56031,5.44543.54016-6.34854,1.39044-11.69514l5.96357,6.4094c11.86575-3.29072-10.20728-15.41706,1.71484-17.10591l5.08209,11.78525,1.69107-5.78389,5.91227,8.08128c-.8418-9.21009,1.74868-8.98162,7.67279-10.52977-5.04862-3.74079-10.05039-12.31231-6.58161-15.77166,5.93326,1.69406,4.12589,7.45472,8.45636,1.96689,2.44553,5.14032,5.74243,11.39367-1.82806,7.34921,1.66495,2.33682,2.50116,5.11093,4.14978,7.43309,6.60174,2.11191,7.52954-4.86279,9.33365-6.55063a4.14007,4.14007,0,0,1-3.34177.22871c-.19516-5.20517-.37225-10.43856-.50876-15.6627,3.33444,1.46263,4.11923,4.27452,4.89871,7.03816.885-2.03186-.70227-6.00044,1.06058-8.48179,4.05167,5.89535,8.96036,11.34115,8.0333,16.58114l1.94812-12.07939c2.48632,1.9463,9.153,3.40126,9.91452,6.17508,3.30493-.06712,3.48611-4.70792,3.97024-9.39322.48276-4.66737,1.28073-9.36659,5.66818-9.37636a6.1913,6.1913,0,0,1-.38678-4.46811c6.03022-2.81979,15.79651.57914,15.75672-11.72082,3.72848,2.4938,7.43555,4.984,11.13092,7.519,1.42438-2.903-2.13077-5.24641-5.47284-8.05191-3.33679-2.80985-6.46018-6.08113-3.96921-10.997,3.14945-7.4632,8.61359,7.13317,12.67395,8.52095-.55978-3.6048-1.57062-8.89692-1.01074-12.76433.56033-3.83347,2.70227-6.23394,8.287-3.81475C397.212,180.17,394.78589,179.58427,393.75241,181.5034Zm56.19028-41.27127c-.37607,2.21662-.07022,8.37717-3.22809,4.20125C443.50485,134.80334,446.74493,138.56723,449.94269,140.23213Zm77.94586-12.06479c-2.61755,1.63451-3.13208-.53675-2.68921-4.349C526.75458,124.08881,527.83527,125.30093,527.88855,128.16734ZM825.24683,275.49451a2.69152,2.69152,0,0,0-.386.24777C824.25,271.01508,824.37933,272.80811,825.24683,275.49451Zm3.23925,7.19616a4.76939,4.76939,0,0,0,2.4842-2.71545c-1.71381,1.47638-3.05091.67072-4.08869-.89053C825.898,281.20993,825.65912,283.0145,828.48608,282.69067ZM181.18329,262.38251l2.587.64859C183.38708,266.99365,182.37689,264.77335,181.18329,262.38251Z" transform="translate(3.1642 -52.2583)"/><path class="cls-1" d="M510.08588,129.75018a22.42964,22.42964,0,0,1,2.3457-4.18169A4.59915,4.59915,0,0,0,510.08588,129.75018Z" transform="translate(3.1642 -52.2583)"/><path class="cls-1" d="M360.75479,212.72945c-.106-.01181-.14584.05586-.24039.05813a9.98941,9.98941,0,0,0,.82752,1.37166Z" transform="translate(3.1642 -52.2583)"/><path class="cls-1" d="M698.283,277.64182a9.76187,9.76187,0,0,1,.52136-5.26062C697.45905,274.0416,696.88452,275.88205,698.283,277.64182Z" transform="translate(3.1642 -52.2583)"/><path class="cls-1" d="M866.71252,292.81714l-4.9085-.84189c1.97271.94083,1.43359,2.93042,1.45941,4.69559C864.415,294.976,865.51746,292.10242,866.71252,292.81714Z" transform="translate(3.1642 -52.2583)"/><path class="cls-1" d="M864.87994,359.21664c1.1637-.47116,1.16889.72913,2.33118.24555l2.30243-3.35611C867.15283,354.65787,863.63983,356.123,864.87994,359.21664Z" transform="translate(3.1642 -52.2583)"/><path class="cls-1" d="M852.50964,318.52789c-4.14776,6.10022-.42254,5.76853,2.8769,6.54233-.16553-.09036-.34388-.14731-.4386-.32977C861.86066,317.06894,857.17926,317.794,852.50964,318.52789Z" transform="translate(3.1642 -52.2583)"/><path class="cls-1" d="M856.113,325.301a4.17665,4.17665,0,0,1,2.40106,1.5784C861.28308,323.80148,858.10394,325.49045,856.113,325.301Z" transform="translate(3.1642 -52.2583)"/><path class="cls-1" d="M838.43207,284.05594c.03918,2.395,6.39508-6.96881,5.26324-4.07868C850.63593,273.47995,829.04053,283.14618,838.43207,284.05594Z" transform="translate(3.1642 -52.2583)"/><polygon class="cls-1" points="843.102 287.168 847.676 279.234 841.881 284.048 843.102 287.168"/><path class="cls-1" d="M824.37469,319.36536l2.44184,5.00067a3.575,3.575,0,0,1,2.91974-1.67285C827.48706,320.60239,825.89209,317.15332,824.37469,319.36536Z" transform="translate(3.1642 -52.2583)"/><path class="cls-1" d="M829.73627,322.69318c1.17016,1.091,2.49988,1.84118,4.1015,1.184A7.49419,7.49419,0,0,0,829.73627,322.69318Z" transform="translate(3.1642 -52.2583)"/><polygon class="cls-1" points="836.046 285.277 836.014 282.88 833.614 280.249 836.046 285.277"/><path class="cls-1" d="M782.82813,285.95236l-5.8844-1.17611c-2.31177,2.15725-2.28058,4.56893.07214,4.792C779.3584,288.60785,781.68671,288.85117,782.82813,285.95236Z" transform="translate(3.1642 -52.2583)"/><path class="cls-1" d="M780.94617,315.67911c-.03546-2.38761,1.1073-4.07086,2.245-6.95655l-6.901,8.90394Z" transform="translate(3.1642 -52.2583)"/><path class="cls-1" d="M766.75732,308.29718c-2.31066,2.17624-11.66668,2.451-5.76287,6.00946C763.29443,312.161,769.18793,313.33936,766.75732,308.29718Z" transform="translate(3.1642 -52.2583)"/><polygon class="cls-1" points="713.335 195.655 714.523 196.365 725.47 181.479 713.335 195.655"/><path class="cls-1" d="M626.17236,240.07521c2.464,7.38966,8.07453-8.20543,9.37983-.30225,3.83087-2.59045-1.0691-6.45655,2.43237-8.54559C632.1178,232.59122,632.05444,229.295,626.17236,240.07521Z" transform="translate(3.1642 -52.2583)"/><path class="cls-1" d="M637.98456,231.22737a19.54139,19.54139,0,0,0,3.259-1.04767A8.87418,8.87418,0,0,0,637.98456,231.22737Z" transform="translate(3.1642 -52.2583)"/><polygon class="cls-1" points="5.668 392.319 0 393.093 6.517 394.978 5.668 392.319"/><path class="cls-1" d="M7.85308,459.57281l-9.70666-6.73864c2.18849,2.92508,4.38055,5.8472,6.54023,8.81173C4.95528,460.49469,5.33583,458.44415,7.85308,459.57281Z" transform="translate(3.1642 -52.2583)"/><path class="cls-1" d="M467.95444,158.09247l-.90033-2.69673c-1.617-2.6541-2.36988-2.5734-3.908-2.418C464.77716,154.67247,466.39725,156.34131,467.95444,158.09247Z" transform="translate(3.1642 -52.2583)"/><polygon class="cls-1" points="426.713 120.076 427.565 119.823 420.454 111.724 426.713 120.076"/><path class="cls-1" d="M396.6575,207.74377c1.66715-.67924,1.88672-3.82876,3.57153-4.49755C398.33792,207.04221,388.29858,197.43236,396.6575,207.74377Z" transform="translate(3.1642 -52.2583)"/></svg>