<svg xmlns="http://www.w3.org/2000/svg" xmlns:xlink="http://www.w3.org/1999/xlink" viewBox="0 0 1015.62637 1023.49127"><defs><style>.cls-1{fill:none;}.cls-2{fill:#001e6d;stroke:#379bed;stroke-miterlimit:10;stroke-width:10px;}.cls-3,.cls-30,.cls-32{opacity:0.2;}.cls-28,.cls-30,.cls-4{fill:#202020;}.cls-5{fill:#2d6ded;}.cls-6{clip-path:url(#clip-path);}.cls-32,.cls-7{fill:#fff;}.cls-8{fill:#194cb2;}.cls-9{clip-path:url(#clip-path-2);}.cls-10{fill:#2f1da3;}.cls-11{clip-path:url(#clip-path-3);}.cls-12{fill:#379bed;}.cls-13{clip-path:url(#clip-path-4);}.cls-14{fill:#6c27cc;}.cls-15{clip-path:url(#clip-path-5);}.cls-16{fill:#952fcc;}.cls-17{clip-path:url(#clip-path-6);}.cls-18{fill:#4e37e5;}.cls-19{clip-path:url(#clip-path-7);}.cls-20{fill:#5415ad;}.cls-21{clip-path:url(#clip-path-8);}.cls-22{fill:#d6a800;}.cls-23{clip-path:url(#clip-path-9);}.cls-24{fill:#8dc7f2;}.cls-25{fill:#185c90;}.cls-26{fill:#7b56b9;}.cls-27{fill:#5b34a0;}.cls-28{opacity:0.1;}.cls-29{clip-path:url(#clip-path-10);}.cls-31{clip-path:url(#clip-path-11);}.cls-33{fill:#f0bc00;}.cls-34{fill:#b08a00;}.cls-35{fill:#e6bf00;}.cls-36{fill:#846606;}.cls-37{fill:#2076bd;}.cls-38{fill:#98d3f4;}.cls-39{fill:#873db7;}.cls-40{fill:#9f79db;}.cls-41{fill:url(#radial-gradient);}.cls-42{fill:url(#radial-gradient-2);}</style><clipPath id="clip-path" transform="translate(-4.70389 3.67809)"><path class="cls-1" d="M596.59321,576.3573a.52978.52978,0,0,0,.003-.12554c.00893-.058-.029.03748-.0575.10293l-.08768.20033-.35984.80259c-.12191.23714-.24893.6078-.3754.94376l-.38331,1.02134c-.53883,1.30663-.98341,2.88195-1.47556,4.3581-.51657,1.46556-.89684,3.07508-1.33264,4.63757-.42855,1.57051-.88034,3.1362-1.20468,4.77227l-1.09891,4.86747c-.38029,1.62279-.6013,3.29656-.91366,4.94651l-.88143,4.97692-.64443,5.03315a257.41268,257.41268,0,0,0-1.93193,40.83009A383.994,383.994,0,0,0,596.79512,735.447c.33387,1.70107.78751,3.367,1.24026,5.03413l1.33875,5.01043,2.6634,10.04464,1.32161,5.03569,1.45413,5.14765c.96477,3.43418,1.96042,6.85094,2.85905,10.31123,3.72,13.7796,7.07943,27.68891,9.81064,41.79267A296.26275,296.26275,0,0,1,623.01878,860.87a125.74315,125.74315,0,0,1-.78567,22.31149,55.29818,55.29818,0,0,1-2.65973,11.4441,22.4237,22.4237,0,0,1-3.06993,5.6524,12.51277,12.51277,0,0,1-1.11188,1.32606,12.66969,12.66969,0,0,1-1.27258,1.24353,8.64746,8.64746,0,0,1-3.2071,1.85415l-.09784-.17644a9.18481,9.18481,0,0,0,1.42446-2.52164,19.37334,19.37334,0,0,0,.80433-2.56556,58.70791,58.70791,0,0,0,1.588-15.54145,112.57034,112.57034,0,0,0-2.91915-20.54573,278.65831,278.65831,0,0,0-12.64018-39.61456c-5.06662-12.94764-10.73876-25.68539-16.75887-38.28173-1.47133-3.15843-3.04391-6.28606-4.58133-9.421l-2.31344-4.70069-2.28992-4.87112-4.5597-9.76892-2.27284-4.89636c-.76428-1.6305-1.5296-3.26149-2.179-4.94042-11.44088-26.442-20.60713-54.09165-26.22109-83.26511a275.366,275.366,0,0,1-5.07833-45.08554l-.16169-5.82854.10931-5.92915c.0617-1.98782.02933-3.94173.17526-5.965l.41557-6.067c.10957-2.00728.376-4.0908.62852-6.16878.26348-2.08565.45823-4.12579.8637-6.30557.3801-2.16891.67144-4.24493,1.21847-6.57361l.37486-1.70768c.12847-.57356.23709-1.11389.42459-1.782l.51707-1.91708.13159-.4796c.04469-.16118.077-.29271.17143-.57589l.494-1.47959Z"/></clipPath><clipPath id="clip-path-2" transform="translate(-4.70389 3.67809)"><path class="cls-1" d="M651.4016,468.73285l.8098.15649.42684.0931.80969.1824,1.30507.324c.8565.21731,1.55231.42037,2.33316.63556,1.43514.42214,2.83228.85193,4.13431,1.293,2.65273.87711,5.0946,1.80856,7.50122,2.76659,4.77126,1.92549,9.18992,4.02429,13.43051,6.2463a169.8058,169.8058,0,0,1,23.15046,14.80707,181.30085,181.30085,0,0,1,19.43,17.06124,194.6955,194.6955,0,0,1,16.35345,18.66046,215.07834,215.07834,0,0,1,13.58429,19.88337c2.12405,3.364,3.98976,6.83156,5.92112,10.263.98481,1.708,1.81475,3.47746,2.72641,5.21164.87857,1.74741,1.81117,3.47206,2.63947,5.23533,3.33687,7.04442,6.41327,14.16683,9.09167,21.39279l3.83559,10.37714,1.80888,4.925,1.97507,4.86388A288.79966,288.79966,0,0,0,826.193,686.28644c2.23925,2.86108,4.63912,5.61553,6.98781,8.41642,2.42828,2.74117,4.83476,5.50944,7.36675,8.18943q7.52631,8.09315,15.72385,15.75261,8.20635,7.64076,17.12478,14.73761c2.95035,2.38467,6.03115,4.64021,9.07964,6.9324a16.51886,16.51886,0,0,1,3.77916,4.30635,15.62464,15.62464,0,0,1,2.17546,6.28607,23.40194,23.40194,0,0,1-8.38824.54192,21.60422,21.60422,0,0,1-6.503-1.74918c-3.71344-1.8426-7.32051-3.80193-10.87409-5.81316q-10.68069-6.02151-20.73333-12.72685-10.05854-6.69311-19.52812-13.99062c-3.18334-2.4098-6.24869-4.91926-9.34476-7.41524-3.01595-2.555-6.09155-5.07711-9.01382-7.71886a326.87021,326.87021,0,0,1-32.74526-33.65323,287.36675,287.36675,0,0,1-27.10026-37.73428l-2.98229-4.97227-2.81667-5.05733-2.78371-5.02776-2.58075-4.58208c-3.40225-6.12218-7.19372-12.00426-11.03386-17.80659-.95325-1.455-1.99671-2.85217-2.98737-4.27952-1.02009-1.40855-1.96343-2.86486-3.04059-4.23138-2.11965-2.75515-4.16415-5.55222-6.41569-8.19483a189.51364,189.51364,0,0,0-13.95795-15.35194,167.97017,167.97017,0,0,0-32.3714-25.452,130.14812,130.14812,0,0,0-18.15354-9.16492c-3.07445-1.28254-6.18271-2.434-9.2123-3.35752-1.5051-.44812-3.00547-.8794-4.39452-1.20108-.70872-.17554-1.355-.30531-1.97023-.42977-.25534-.03753-.58573-.10654-.77337-.12614l-.2623-.02922.0191.02023c.01272.00478-.01376.00147.03142.01234l.41138.08217Z"/></clipPath><clipPath id="clip-path-3" transform="translate(-4.70389 3.67809)"><path class="cls-1" d="M647.78015,485.01628c-1.82265-.238-3.878-.43616-5.28758-.60226-.77542-.084-1.56272-.13114-2.34206-.176a10.942,10.942,0,0,0-1.96146.03813,3.66577,3.66577,0,0,0-.98982.22376q-.24886.12448-.49209.26118a.82408.82408,0,0,0-.46815.48659,4.73012,4.73012,0,0,0-.38354.83064c.33829,1.42308-.47262.92194,1.38634,3.84558,1.05275,6.09826,18.149,3.51288,20.01315.07719a34.17019,34.17019,0,0,0,2.97977-2.7311c.339-.27151.70413-.63535.98112-.88193q.28374-.12.56473-.25578a2.11489,2.11489,0,0,1,.90843-.27865c.13107-.02027.26763-.05724.394-.06931l.35658.02169c.23508.02132.4832-.00028.709.04411a11.58111,11.58111,0,0,1,1.19546.23529c.36851.09767.77133.18555,1.10651.30814.589.20121,1.23663.45349,1.76127.68658a7.45014,7.45014,0,0,1,2.20752,1.46612,1.96579,1.96579,0,0,1,.62183,1.48273c-.07849.48887-.23111.99015-.34145,1.4989l-.70644,3.11158c-.92022,4.22317-1.74753,8.58418-2.49759,12.951-.75978,4.37265-1.3992,8.76892-2.051,13.17232q-.97368,6.606-1.744,13.225c-.5218,4.41069-.94451,8.8184-1.36209,13.22533q-.64417,6.612-1.09082,13.20829c-.30773,4.39769-.50218,8.78252-.71521,13.16705q-.30987,6.5755-.41861,13.121a411.29158,411.29158,0,0,0,2.19181,51.68982c.9316,8.47323,2.14655,16.86861,3.80221,25.12071a232.46929,232.46929,0,0,0,6.06787,24.35653c.6078,1.99162,1.25364,3.96742,1.92367,5.93373l1.032,2.93793,1.096,3.00623,4.56788,12.89985c1.58717,4.27418,2.8388,8.64971,4.1931,12.98754l1.98135,6.51992.98109,3.25976.87457,3.29039,3.48853,13.14564c1.10988,4.39234,2.07025,8.82395,3.1094,13.22779.50088,2.20731,1.04,4.40263,1.50809,6.61692l1.347,6.65573,1.34468,6.64995.66819,3.3237.58737,3.34433,2.33865,13.365,2.032,13.42311c1.2516,8.96764,2.50113,17.92076,3.48109,26.9301,1.02871,8.99654,1.837,18.036,2.54691,27.08644l.45485,6.8062a37.12641,37.12641,0,0,1-.02607,6.90646,35.74284,35.74284,0,0,1-.51889,3.55415c-.12457.60063-.26788,1.20464-.43422,1.81279-.14684.60418-.32778,1.21476-.5269,1.82833a30.22157,30.22157,0,0,1-1.43274,3.723,24.85108,24.85108,0,0,1-2.15822,3.84231l-1.05279.19236a25.05534,25.05534,0,0,1-4.84074-5.85168,33.10262,33.10262,0,0,1-2.94552-6.17845,42.26139,42.26139,0,0,1-1.649-6.43416l-1.28362-6.50948c-1.81459-8.65719-3.72186-17.28325-5.84289-25.84472-4.193-17.13272-9.02406-34.06166-14.67543-50.65481l-1.02157-3.12263-1.1-3.09465-2.20433-6.18291-2.20209-6.1771c-.75529-2.05025-1.5791-4.07429-2.36452-6.11113-1.60721-4.05982-3.13386-8.1468-4.80117-12.173l-5.14065-12.00755-1.28272-2.99793-1.38294-2.95241-2.77708-5.89333c-1.85054-3.92483-3.59829-7.893-5.65646-11.70769l-5.93346-11.53817-1.59419-3.07639-1.59619-3.17035q-1.56547-3.18214-3.03135-6.40318a233.70664,233.70664,0,0,1-9.98157-26.35034,275.34868,275.34868,0,0,1-6.86342-27.22369,325.24974,325.24974,0,0,1-5.8656-55.948q-.14693-7.07349-.06068-14.16938c.056-4.73035.26753-9.47576.505-14.22136q.37461-7.1203.96141-14.25689c.40513-4.759.938-9.5268,1.5115-14.29873,1.15718-9.5472,2.59163-19.10932,4.517-28.76116.95-4.83241,1.98339-9.67246,3.18895-14.6439l.953-3.78205c.17688-.63973.31761-1.28677.54254-1.94567a5.19892,5.19892,0,0,1,1.55471-1.95928,16.13406,16.13406,0,0,1,3.21468-1.971c.70246-.339,1.529-.6587,2.30936-1.02825l1.39842-.54746c.487-.16381.92695-.42844,1.50566-.61818.278-.09782.58578-.26053.87648-.38089l.4414-.19072c.15613-.08258.32458-.18975.48638-.28032a7.42391,7.42391,0,0,0,1.10324-.6988l.67028-.46409c.317-.31473.7259-.74556,1.10656-1.08474a31.52471,31.52471,0,0,1,3.13442-2.92107c1.92754-3.49956,19.12436-6.09969,20.218.06876,1.9,2.97845,1.09628,2.55117,1.46038,4.03761a7.25567,7.25567,0,0,1-.36046,1.03956,1.4345,1.4345,0,0,1-.45751.69766l-.49021.47383a5.75294,5.75294,0,0,1-1.00617.65129,15.28032,15.28032,0,0,1-2.03.89673c-.813.24207-1.62809.48149-2.442.68469-1.48236.408-3.6231.78449-5.53242,1.12116Z"/></clipPath><clipPath id="clip-path-4" transform="translate(-4.70389 3.67809)"><path class="cls-1" d="M578.33934,530.313l1.26466.16742c.25347.03349.29207.04711.43408.07037l.35725.06378,1.42519.26017c.90838.17537,1.631.34542,2.45169.5229l1.18892.27035,1.09257.27989,2.178.56512c2.81012.78305,5.53952,1.576,8.1057,2.46187,5.2146,1.73559,10.0302,3.70929,14.75549,5.75337a179.63973,179.63973,0,0,1,25.80779,14.22337c4.01038,2.57631,7.68391,5.42707,11.40225,8.18991,1.8029,1.43231,3.54481,2.90935,5.304,4.35981l2.62115,2.18333c.84274.75166,1.66436,1.518,2.48453,2.28459l4.87522,4.60491c1.57295,1.5658,3.05675,3.19248,4.57514,4.78148l2.25512,2.39362,1.10041,1.17663.75823.89409,1.5192,1.81213c.5133.604,1.09494,1.15252,1.64057,1.73944,8.7458,9.35891,21.55938,16.75828,36.88676,21.69967,3.81414,1.26829,7.81243,2.31542,11.90534,3.2682,4.09749.94451,8.31577,1.75257,12.63362,2.38576,4.31538.64495,8.72786,1.12062,13.20416,1.46464a34.36768,34.36768,0,0,1,6.725,1.28474,28.77916,28.77916,0,0,1,6.97611,3.10712l.05866.85945a26.79214,26.79214,0,0,1-7.34482,5.03547,34.78851,34.78851,0,0,1-7.5782,2.57323c-5.04492,1.008-10.12275,1.81757-15.23583,2.4717a200.61584,200.61584,0,0,1-30.96841,1.59641c-5.18713-.15872-10.39994-.4763-15.54763-1.1468l-1.94217-.2294-1.92469-.28879-3.86195-.59622c-2.5373-.49737-5.134-.91657-7.64625-1.53905a139.84062,139.84062,0,0,1-14.98467-4.26531,113.40639,113.40639,0,0,1-14.17461-6.09028c-1.12941-.59042-2.29608-1.15192-3.39766-1.78058l-3.28977-1.91857-1.6462-.97131-1.298-.69406-2.54089-1.34848c-1.69818-.8882-3.34955-1.81291-5.05992-2.66342l-5.20852-2.43092-2.57128-1.2196-2.65015-1.1079c-1.76674-.73112-3.50088-1.48909-5.265-2.19441-3.61661-1.29549-7.12367-2.68181-10.80021-3.75618a165.1063,165.1063,0,0,0-21.89625-5.483c-3.64658-.62151-7.28364-1.19578-10.7964-1.49588-1.76079-.2017-3.45732-.30016-5.07843-.389l-1.17091-.03352-.58189-.01946-.5029.01293c-.30923.01128-.70953-.00376-.93706.02088l-.28275.04515-.0698.01c-.00053.00608-.10342-.00083.00627.01911l.40437.07776Z"/></clipPath><clipPath id="clip-path-5" transform="translate(-4.70389 3.67809)"><path class="cls-1" d="M498.44178,593.63576c-.08362.45218-.13047,1.36935-.18639,2.10493l-.137,2.394-.20286,4.89739q-.1371,4.94071-.106,9.92c.02251,6.63624.21492,13.29079.56433,19.9245a372.47122,372.47122,0,0,0,4.29966,39.40024,278.36572,278.36572,0,0,0,8.81293,38.13446l1.45838,4.63978,1.5871,4.57931c1.01979,3.08191,2.25284,6.04183,3.40982,9.06409a189.64456,189.64456,0,0,0,8.19134,17.44606c1.44552,2.8808,3.15687,5.57435,4.75965,8.36712.83676,1.36837,1.74181,2.68611,2.61023,4.03782l1.31648,2.0199,1.483,2.21547,6.02589,9.00548,1.49361,2.24863,1.3469,2.32873,2.73375,4.62311c1.81386,3.082,3.70345,6.11543,5.24015,9.32421l4.91447,9.44353,4.35819,9.66408L563.5,811.83019c.34393.81108.64312,1.64131.96638,2.46058l1.9015,4.92705,1.895,4.91945,1.645,5.00986c1.08785,3.3398,2.24167,6.64884,3.07422,10.07l1.35772,5.08562.676,2.53968.56277,2.57622,1.07061,5.16171.5331,2.57677.433,2.60624c.56359,3.47714,1.20673,6.92165,1.52388,10.45524l.58542,5.259.40443,5.29726c.14658,1.75888.26635,3.52593.26344,5.31945a37.59018,37.59018,0,0,1-.311,5.4333,36.64367,36.64367,0,0,1-1.11471,5.56637,26.61961,26.61961,0,0,1-2.26125,5.70187l-1.05455.15393a41.27812,41.27812,0,0,1-5.10084-9.40634c-.61426-1.59-1.19637-3.1881-1.68-4.80125-.22894-.80985-.467-1.6165-.66306-2.43228l-.69386-2.42461-1.40041-4.83477-1.57331-4.77995c-1.00755-3.192-2.21464-6.32186-3.30854-9.47453l-.84143-2.35695-.93924-2.32411-1.87408-4.64007-.90957-2.32467-1.011-2.28729-2.01885-4.56741c-1.28343-3.065-2.84657-6.01593-4.28583-9.00753l-2.192-4.46973-2.42677-4.36051-2.42023-4.35289c-.40847-.72221-.79252-1.45537-1.22015-2.1678l-1.33309-2.11262-5.31225-8.43276c-3.90108-5.4202-7.60544-10.92682-12.054-15.97456l-3.20494-3.85312-1.62246-1.90936-1.75932-1.82051-7.02059-7.25023-3.76935-3.8638c-1.31257-1.35308-2.67062-2.68994-3.94756-4.06757-2.46933-2.79223-5.07245-5.545-7.3628-8.44163-18.9594-22.97-32.29327-48.73023-43.278-75.176-2.71072-6.63293-5.20355-13.3402-7.56946-20.099-2.35675-6.76027-4.46552-13.59956-6.56055-20.46417q-3.09657-10.3106-5.69059-20.83528c-.87738-3.50877-1.66683-7.05861-2.47078-10.63063l-1.15122-5.4255-.54425-2.78018c-.17737-.99177-.34563-1.802-.52242-3.08209Z"/></clipPath><clipPath id="clip-path-6" transform="translate(-4.70389 3.67809)"><path class="cls-1" d="M458.85853,591.541l.02124-.23272.00551-.116.00154-.058-.01763.03858-.14976.33792-.156.33964-.08035.17055-.08219.24735-.67708,2.0199-.63175,2.30013-.32258,1.15493-.27531,1.22487-.54013,2.46537-.2739,1.23623-.22654,1.27828-.90723,5.14393-.71,5.27625-.35183,2.65026-.25387,2.68495-.516,5.38579c-.17426,1.80046-.21408,3.61979-.318,5.43129a332.364,332.364,0,0,0,.79262,44.02158c1.32639,14.71415,3.13671,29.48788,5.89412,44.10753l2.03337,10.98644c.72833,3.65391,1.5839,7.27962,2.3704,10.92688q1.19,5.46966,2.45323,10.9258l2.69656,11.50535,2.35061,11.5999c.68248,3.89475,1.44376,7.75785,2.05128,11.66375.55584,3.92211,1.22554,7.80265,1.67812,11.74329.4952,3.92794,1.02575,7.84018,1.3595,11.801l.55861,5.92034.39894,5.95226c.31645,3.95308.37415,7.9615.55069,11.93524.15216,7.9918.16039,15.993-.28618,24.048a274.55472,274.55472,0,0,1-6.72089,48.46637,238.63771,238.63771,0,0,1-6.93274,24.1591c-.67711,2.0035-1.42311,4.00539-2.1585,6.0028a43.005,43.005,0,0,1-2.64434,5.95766,39.19544,39.19544,0,0,1-3.89574,5.79738A29.91839,29.91839,0,0,1,449.276,953.473l-.98119-.188a26.54592,26.54592,0,0,1-1.14649-6.19132,37.93633,37.93633,0,0,1,.02031-5.90277,51.165,51.165,0,0,1,.85148-5.78085c.33551-1.92153.6809-3.83881.95948-5.76022,1.15541-7.681,1.94782-15.3441,2.4395-22.97071.51879-7.62863.61072-15.21311.52217-22.753-.04036-1.88415-.03342-3.76966-.11135-5.64715l-.23437-5.62666c-.08865-1.87266-.24589-3.7372-.36465-5.60333l-.18354-2.79775-.24849-2.78827c-.57824-7.44308-1.60674-14.8021-2.73038-22.11623-.66551-3.63958-1.206-7.29621-2.00082-10.89938l-1.11165-5.41529-1.26349-5.37508c-1.66014-7.16658-3.68463-14.23-5.92438-21.20789-1.113-3.491-2.37486-6.93645-3.54936-10.39881-1.25753-3.43973-2.6582-6.8296-3.97409-10.238l-8.89648-20.77965c-1.52033-3.566-3.10777-7.10816-4.57443-10.70466l-4.25706-10.86282c-2.93249-7.21086-5.43234-14.62152-8.09584-21.98855-1.37542-3.66544-2.46538-7.45169-3.68286-11.19254l-1.78517-5.63208c-.60265-1.87536-1.19577-3.757-1.7137-5.67187l-3.23285-11.45636c-1.05059-3.83646-1.91635-7.75618-2.88078-11.64291-.99179-3.87322-1.7754-7.8511-2.59428-11.81839-.39971-1.98847-.83751-3.962-1.20377-5.96975l-1.0094-6.07051c-.31855-2.03407-.70164-4.03923-.98471-6.10162l-.81631-6.207-.404-3.11141-.3-3.17391-.56889-6.3773-.32111-6.55946-.072-1.64822-.01413-1.69928-.02053-3.40577-.00811-1.71111.0506-1.78729.11464-3.58439.29232-3.87167.04059-.48911.06937-.56609.14332-1.13358.14957-1.13531.02-.1456.04527-.24193.09308-.48408.19633-.96878Z"/></clipPath><clipPath id="clip-path-7" transform="translate(-4.70389 3.67809)"><path class="cls-1" d="M544.99529,581.901l.1458.39189.07082.19418.03735.119.14827.47608.14484.47256.11554.4162.43311,1.62858c.27093,1.05664.5,2.06982.71955,3.07359.43682,2.00807.80433,3.96768,1.13571,5.91685.65381,3.88993,1.21256,7.72345,1.60594,11.55386a218.21978,218.21978,0,0,1,1.22489,22.88414,253.64575,253.64575,0,0,1-4.0985,45.605c-1.40712,7.57321-3.05394,15.11919-5.14343,22.62347-.93421,3.7517-2.15381,7.49127-3.24766,11.22-.58455,1.86357-1.23644,3.72234-1.85254,5.57941-.63214,1.85637-1.22151,3.71237-1.93933,5.5581a318.58547,318.58547,0,0,1-19.68994,43.43747c-1.95691,3.512-4.02946,7.03785-6.006,10.48369l-2.67424,4.65988-1.33612,2.3371c-.45684.77862-.89129,1.56008-1.27785,2.34691a155.38073,155.38073,0,0,0-8.54385,19.06024,120.27849,120.27849,0,0,0-7.69514,38.53778l-.04876,4.75405.21564,4.71069c.22871,3.12284.512,6.244,1.00756,9.31527a102.47473,102.47473,0,0,0,4.44873,18.08258,93.11218,93.11218,0,0,0,7.83334,17.05434,55.34813,55.34813,0,0,1,4.22019,8.68833,49.73365,49.73365,0,0,1,1.59814,4.91863,39.99773,39.99773,0,0,1,1.12554,5.63909l-.74649.713a29.33842,29.33842,0,0,1-12.95776-3.44017,31.5672,31.5672,0,0,1-9.13781-6.99424,94.11507,94.11507,0,0,1-6.98561-8.5276c-1.01325-1.50928-2.11993-2.98251-3.04425-4.54391-.965-1.54309-1.942-3.0876-2.76389-4.70217a95.22563,95.22563,0,0,1-11.33873-41.89513c-.64972-14.78984,1.432-29.92891,5.42254-44.81753.52063-1.85917.93965-3.73778,1.50771-5.59121l1.74-5.56094.85269-2.78878.98457-2.76095,1.97323-5.53373c1.3375-3.6856,2.91179-7.316,4.33831-10.99987,1.27812-3.3261,2.56826-6.55024,3.786-9.8263,9.51849-26.15469,14.09787-52.5663,13.2845-77.83373a167.2828,167.2828,0,0,0-1.54682-18.69553,157.23706,157.23706,0,0,0-3.48412-18.06964,141.20241,141.20241,0,0,0-5.47138-17.13447c-1.07875-2.74858-2.24193-5.42276-3.48284-7.98334-.6307-1.27146-1.277-2.51551-1.93349-3.68324-.32905-.58349-.65628-1.15467-.98058-1.6682-.16456-.28115-.3172-.49481-.47-.7225l-.11426-.17006-.09454-.10993-.09182-.10608-.02268-.02658.0086.0495.02123.10256Z"/></clipPath><clipPath id="clip-path-8" transform="translate(-4.70389 3.67809)"><path class="cls-1" d="M633.37011,534.0549l.04932.3887a2.59559,2.59559,0,0,0,.08087.45389l.26452,1.10276c.17037.73148.3596,1.46642.59184,2.25035.45432,1.545.84211,3.0757,1.3615,4.649l1.51044,4.69333,1.67214,4.69754c2.22151,6.28578,4.83125,12.49014,7.55387,18.67329,1.30022,3.12151,2.8152,6.151,4.28777,9.20632l2.22808,4.58164,2.38088,4.51176,2.38544,4.52331,1.19456,2.266L660.2,598.27739l5.19139,8.86237c.84418,1.49569,1.80521,2.91677,2.726,4.36669l2.7867,4.34071c1.864,2.89423,3.68176,5.83059,5.71949,8.62147,1.97283,2.83644,4.01793,5.63322,6.03451,8.45819.9858,1.42979,2.07719,2.78223,3.15527,4.14709l3.2336,4.10237a322.70465,322.70465,0,0,0,28.1491,31.49786c.63111.62854,1.23929,1.27892,1.89,1.8906l1.989,1.80306,3.98384,3.6133,7.99366,7.25409,8.51581,7.5598,4.27732,3.73783c.70711.62709,1.43419,1.23459,2.12381,1.877l2.02,1.97208,8.10836,7.82755c1.35134,1.30025,2.743,2.56352,3.97138,3.96512l3.83892,4.06945,3.83,4.06451,1.9117,2.0304c.63745.67611,1.19342,1.41556,1.79355,2.11987l7.14783,8.478c9.08677,11.58213,17.20712,23.81293,23.07569,37.08136.71216,1.66729,1.50546,3.29287,2.14576,4.98911l1.84812,5.11439.89785,2.56081.72591,2.62979c.46809,1.7574.99643,3.48763,1.40868,5.25884l1.06088,5.36733c.20214.88286.26865,1.814.40567,2.71786q.19,1.36241.33118,2.73344a22.71363,22.71363,0,0,1-1.90229,11.49411l-1.05369.10279a27.35476,27.35476,0,0,1-1.23844-2.46122,23.876,23.876,0,0,1-1.06129-2.447c-.32828-.81315-.66259-1.62769-.94906-2.444-.29322-.817-.49652-1.64595-.80124-2.45978-.55944-1.63561-.939-3.30867-1.51711-4.93093l-1.76417-4.848c-.63581-1.59808-1.35546-3.16983-2.02576-4.75129l-1.02034-2.36551-1.179-2.30768-2.31708-4.61818c-.79327-1.5284-1.74145-2.99422-2.6018-4.49146l-2.64866-4.45717-2.91526-4.32839-2.89792-4.325-3.22063-4.15429-3.21158-4.14821-.80214-1.03579-.88169-.99133L774.72,751.43983l-3.51733-3.95935c-1.19809-1.30241-2.27989-2.67377-3.60378-3.89615l-7.63165-7.50472c-.6533-.61181-1.25846-1.25528-1.95009-1.84046l-2.07142-1.75644-4.1361-3.50918c-5.31551-4.8185-11.48063-8.979-17.383-13.29174l-2.23458-1.5992c-.768-.51386-1.57628-.99509-2.36172-1.49389l-4.73889-2.96476-9.51642-5.84541-10.05409-6.13712-5.03991-3.08236-2.523-1.54469c-.82867-.52569-1.61277-1.08876-2.42185-1.63187l-9.69245-6.5612-4.85914-3.29359-4.64833-3.46875-9.3663-6.928c-1.59357-1.13665-3.06928-2.35908-4.5649-3.56982l-4.49178-3.63606-4.498-3.646c-1.50172-1.21607-3.01938-2.42394-4.42783-3.70647-2.8788-2.52406-5.72908-5.0763-8.6516-7.58884-2.96184-2.48868-5.70212-5.12623-8.498-7.73806l-4.1896-3.92738c-1.38989-1.31544-2.823-2.607-4.13752-3.97254l-8.07057-8.109-2.031-2.02779-1.95857-2.07391-3.92084-4.15649-3.92534-4.16807-3.784-4.2654c-2.48869-2.86828-5.12373-5.66-7.54413-8.59261-4.97788-5.78494-9.76165-11.71395-14.49365-17.77855l-3.52-4.57655-3.44667-4.69288c-1.16884-1.53894-2.289-3.2033-3.43375-4.81144-.57008-.7916-1.13732-1.65249-1.71691-2.51978l-.86776-1.292c-.136-.193-.30547-.47413-.47186-.74928l-.49465-.81815Z"/></clipPath><clipPath id="clip-path-9" transform="translate(-4.70389 3.67809)"><path class="cls-1" d="M703.8082,264.88352C772.90493,389.207,684.96339,566.11774,547.2269,617.9051S251.52526,586.83915,205.02026,452.42217C167.06,342.70266,218.46312,147.73726,354.58494,93.14146,474.98182,44.85256,651.60618,170.9581,703.8082,264.88352Z"/></clipPath><clipPath id="clip-path-10" transform="translate(-4.70389 3.67809)"><path class="cls-1" d="M299.08779,247.016a159.83658,159.83658,0,0,0-20.761,1.1551c-4.79947.5821-10.01385,1.62441-13.08141,5.36124-.84552,1.03-1.75673,2.36583-3.08543,2.26391a3.406,3.406,0,0,1-1.39644-.5441A89.27775,89.27775,0,0,1,231.46963,227.96a7.765,7.765,0,0,1-1.73053-4.343c.03891-1.56579.97019-2.95126,1.44629-4.44342,1.39847-4.383-1.43906-9.23689-5.394-11.58739s-8.73633-2.75871-13.33338-2.94256c-11.58529-.46335-23.18386.13484-34.763.73288A711.3541,711.3541,0,0,0,194.99478,471.41c3.91242,14.96857,8.34011,29.86849,14.79247,43.93022,14.519,31.64153,38.77856,57.8951,65.37917,80.35388a329.7517,329.7517,0,0,0,50.5407,35.673c73.19635,41.24641,166.31583,44.93872,242.54818,9.61734,6.26845-2.90441,12.684-6.27314,16.6251-11.94735,6.397-9.21,4.31239-22.40873-2.3863-31.40171s-17.06-14.49861-27.49062-18.61535c-57.22343-22.58478-125.14168-11.8394-178.64818-42.198-28.92421-16.41109-50.61941-43.53885-65.70992-73.17348s-24.123-61.92232-32.63512-94.07009c-3.75954-14.19872-7.45753-28.55955-7.96423-43.23883a101.85652,101.85652,0,0,1,22.6122-67.18045C296.07048,254.97263,298.74325,252.406,299.08779,247.016Z"/></clipPath><clipPath id="clip-path-11" transform="translate(-4.70389 3.67809)"><path class="cls-1" d="M664.31323,430.76719l19.77459-3.10332c15.42518,14.97571,39.90951,19.76087,59.838,11.69458,22.83038-9.24087,36.86473-32.15916,47.03311-54.59181,22.28121-49.155,33.46243-106.8499,13.29759-156.91029-9.91252-24.6084-26.73943-45.78113-44.58865-65.40859-20.69614-22.758-43.43728-44.23154-70.50169-58.85257-42.63058-23.03036-92.67642-27.44811-138.18065-44.09528-33.66291-12.31517-65.34591-31.47672-100.85005-36.40733-49.69908-6.90192-98.5316,15.038-142.87644,38.515-9.945,5.2651-20.90291,12.04288-22.92455,23.11257-1.1334,6.20614.88125,12.52909,3.20051,18.39611,18.12843,45.85921,57.62115,82.74834,104.60836,97.71194,23.66263,7.53563,48.93178,9.77463,71.89377,19.23256,42.43011,17.47675,71.30144,56.94879,95.24561,96.095,14.95422,24.44858,28.99988,49.60809,46.60822,72.30167,8.037,10.358,17.92781,24.39274,29.28954,31.31193C644.6175,425.51643,655.91318,420.78114,664.31323,430.76719Z"/></clipPath><radialGradient id="radial-gradient" cx="288.56623" cy="384.23415" fx="317.92456004340465" r="48.12583" gradientTransform="translate(-184.03803 479.65239) rotate(-64.25976)" gradientUnits="userSpaceOnUse"><stop offset="0.01729" stop-color="#fff"/><stop offset="0.05384" stop-color="#dedede"/><stop offset="0.11191" stop-color="#b0b0b0"/><stop offset="0.17535" stop-color="#868686"/><stop offset="0.24279" stop-color="#626262"/><stop offset="0.31535" stop-color="#434343"/><stop offset="0.39462" stop-color="#2a2a2a"/><stop offset="0.48327" stop-color="#171717"/><stop offset="0.58653" stop-color="#0a0a0a"/><stop offset="0.71786" stop-color="#020202"/><stop offset="0.97202"/></radialGradient><radialGradient id="radial-gradient-2" cx="571.77018" cy="397.96233" fx="578.5371020582862" fy="368.8380050842199" r="48.98254" gradientTransform="translate(71.80852 -238.02361) rotate(9.43594)" gradientUnits="userSpaceOnUse"><stop offset="0" stop-color="#fff"/><stop offset="0.01414" stop-color="#f5f5f5"/><stop offset="0.09535" stop-color="#bebdbe"/><stop offset="0.17441" stop-color="#918f90"/><stop offset="0.24947" stop-color="#6e6c6c"/><stop offset="0.31957" stop-color="#555253"/><stop offset="0.38277" stop-color="#454243"/><stop offset="0.43313" stop-color="#403d3e"/><stop offset="0.49539" stop-color="#2a2829"/><stop offset="0.5724" stop-color="#171617"/><stop offset="0.6627" stop-color="#0a0a0a"/><stop offset="0.77759" stop-color="#020202"/><stop offset="1"/></radialGradient></defs><g id="Layer_7" data-name="Layer 7"><circle class="cls-2" cx="507.81319" cy="515.67809" r="502.81319"/></g><g id="Tentacles"><g class="cls-3"><path class="cls-4" d="M579.55853,593.465a2.04262,2.04262,0,0,0,.04419-.23645l.00678-.06012a.58185.58185,0,0,0-.03308.06781l-.07434.16021-.30634.64051-.15869.32031-.16852.43707-.34192.88019c-.224.60773-.47717,1.129-.68872,1.81006l-.65655,1.98944c-.21723.66955-.45362,1.31634-.6615,2.0072l-.58722,2.13165c-.3739,1.43915-.84119,2.81177-1.15558,4.31537-.64191,2.993-1.46283,5.916-1.93634,9.04138-.53772,3.089-1.17249,6.16205-1.50275,9.3584l-.611,4.76441c-.09766.79681-.21845,1.58905-.29865,2.39178l-.18322,2.42414c-.23243,3.23675-.52967,6.476-.72779,9.74182l-.2605,9.87719c-.17724,3.29749.05347,6.63056.08844,9.962.50934,26.69141,4.50379,54.002,11.12372,80.95251l.57288,2.54126.69134,2.51209,1.38361,5.03088,2.75586,10.09436,1.36963,5.06494,1.53393,5.253c1.02015,3.502,2.05988,6.98938,3.0102,10.51984,3.91675,14.05786,7.45477,28.25073,10.33069,42.6225q2.18535,10.76431,3.70092,21.70605c1.02582,7.27765,1.74317,14.63367,2.04438,22.0365.10809,1.84113.083,3.71521.12854,5.563.02331,1.85425-.05243,3.72736-.07691,5.58045a100.74359,100.74359,0,0,1-1.04944,11.199,51.89209,51.89209,0,0,1-2.90039,11.064,19.39451,19.39451,0,0,1-3.09173,5.0238,12.14129,12.14129,0,0,1-2.25006,2.01294,6.38931,6.38931,0,0,1-2.77143,1.18695l-.10315-.21344a17.01141,17.01141,0,0,0,1.99292-4.77533c.4455-1.6062.75385-3.23126,1.07654-4.84393a50.238,50.238,0,0,0,.8537-10.02436,92.94161,92.94161,0,0,0-.7467-10.25122c-.26722-1.71576-.47809-3.42-.78687-5.12756-.332-1.70923-.5874-3.40888-.97772-5.11121-1.42523-6.80224-3.23712-13.55029-5.34821-20.233q-3.14081-10.02484-6.91369-19.882c-4.996-13.1455-10.61823-26.088-16.60065-38.88043-1.4635-3.20557-3.02185-6.38513-4.55524-9.56689l-2.30224-4.77033-2.30622-5.01831-4.59588-10.07214-2.2923-5.05237-1.14661-2.52948-1.03393-2.57849a409.88389,409.88389,0,0,1-26.119-86.322c-1.50031-7.52869-2.32324-15.245-3.30316-22.96393-.36414-3.88519-.61774-7.80347-.92157-11.72058l-.21649-2.942c-.052-.98523-.062-1.97949-.09418-2.97l-.154-5.95825c-.17359-3.962-.01227-8.00458.0769-12.04242.01727-4.01813.44165-8.15222.71124-12.25452.13605-2.04657.46778-4.16766.70142-6.25323l.39191-3.14441c.15216-1.06085.352-2.14984.52929-3.22479l.55634-3.23786c.17389-1.06622.46686-2.25122.70074-3.37225l.37622-1.705.19178-.85516.253-.95654.517-1.91309.13154-.47821.07086-.251.12109-.37543.50153-1.49768Z" transform="translate(-4.70389 3.67809)"/></g><path class="cls-5" d="M594.82477,584.03082a2.05477,2.05477,0,0,0,.04425-.23645l.00671-.06012a.58268.58268,0,0,0-.03308.06781l-.07434.16022-.30633.6405-.1587.32025-.16851.43714-.34186.88019c-.22406.60772-.47724,1.129-.68878,1.81006l-.65656,1.98944c-.21716.66955-.45361,1.31628-.6615,2.00714l-.58722,2.13171c-.3739,1.43915-.84118,2.81177-1.15558,4.31537-.6419,2.993-1.46283,5.91595-1.93634,9.04132-.53772,3.08911-1.17248,6.16211-1.50274,9.35846l-.611,4.7644c-.09765.79682-.21844,1.589-.29864,2.39179l-.18323,2.42413c-.23242,3.23676-.52966,6.476-.72778,9.74182l-.2605,9.8772c-.17725,3.29749.05347,6.63055.0885,9.962.50928,26.6914,4.50372,54.002,11.12366,80.95251l.57287,2.54126.69135,2.51209,1.38361,5.03088,2.75585,10.0943,1.36963,5.065,1.53394,5.253c1.02014,3.502,2.05987,6.98938,3.01025,10.51984,3.91669,14.05786,7.45472,28.25073,10.33063,42.6225q2.18537,10.7643,3.70093,21.706c1.02582,7.27771,1.74316,14.63373,2.04437,22.03656.10809,1.84112.083,3.71521.12854,5.563.02332,1.85419-.05243,3.72735-.0769,5.58044a100.74614,100.74614,0,0,1-1.04944,11.19892,51.89327,51.89327,0,0,1-2.90039,11.064,19.39443,19.39443,0,0,1-3.09174,5.02381,12.146,12.146,0,0,1-2.25006,2.01294,6.38858,6.38858,0,0,1-2.77142,1.18689l-.10315-.21338a17.01285,17.01285,0,0,0,1.99292-4.77533c.44549-1.6062.7539-3.23127,1.07654-4.84394a50.2378,50.2378,0,0,0,.85369-10.02435,92.94143,92.94143,0,0,0-.7467-10.25122c-.26721-1.71582-.47809-3.42-.78686-5.12756-.332-1.70923-.58741-3.40888-.97773-5.11121-1.42523-6.80225-3.23712-13.55029-5.3482-20.233q-3.1408-10.02485-6.91364-19.882c-4.99609-13.14551-10.61828-26.088-16.60071-38.88043-1.4635-3.20557-3.02185-6.38513-4.55523-9.5669l-2.30225-4.77032-2.30621-5.01831-4.59589-10.07215-2.2923-5.05236-1.1466-2.52948-1.03394-2.57849a409.88462,409.88462,0,0,1-26.119-86.32209c-1.5003-7.52862-2.32318-15.245-3.30316-22.96386-.36413-3.8852-.61773-7.80347-.92157-11.72059l-.21649-2.942c-.052-.98523-.06195-1.97949-.09418-2.97l-.154-5.95831c-.17358-3.96192-.01227-8.00452.07691-12.04242.01727-4.01813.44165-8.15216.71124-12.25446.136-2.04657.46777-4.16766.70141-6.25323l.39191-3.14441c.15216-1.06086.35205-2.14985.5293-3.2248l.55633-3.23791c.17389-1.06616.46692-2.25116.70075-3.37219l.37622-1.705.19177-.85516.253-.95655.517-1.91308.13153-.47821.07086-.251.1211-.37543.50152-1.49768Z" transform="translate(-4.70389 3.67809)"/><g class="cls-6"><g class="cls-3"><path class="cls-7" d="M619.84379,551.2475a.53293.53293,0,0,0,.003-.12554c.00887-.05794-.029.03748-.05754.103l-.08762.20031-.35986.80255c-.12191.23713-.24893.60779-.37547.94377l-.38324,1.02132c-.53883,1.30665-.9834,2.882-1.47555,4.35812-.51658,1.46555-.89691,3.07508-1.33272,4.63755-.42847,1.57054-.88028,3.1362-1.20462,4.77227l-1.09889,4.8675c-.38031,1.62273-.6013,3.29656-.91367,4.94648l-.8815,4.97694-.64436,5.03315a257.41716,257.41716,0,0,0-1.932,40.8301,383.99845,383.99845,0,0,0,10.9459,81.72224c.33394,1.70108.78758,3.367,1.24033,5.03411l1.33875,5.01043,2.66341,10.04467,1.32161,5.03569,1.45411,5.14762c.96479,3.4342,1.96044,6.851,2.85906,10.31123,3.72,13.7796,7.07937,27.68893,9.81064,41.7927a296.2606,296.2606,0,0,1,5.53581,43.04652,125.7423,125.7423,0,0,1-.78566,22.3115,55.30243,55.30243,0,0,1-2.65972,11.44411,22.42605,22.42605,0,0,1-3.06994,5.65239,12.52,12.52,0,0,1-1.11187,1.32606,12.67176,12.67176,0,0,1-1.27265,1.24355,8.647,8.647,0,0,1-3.2071,1.85415l-.09778-.17647a9.18436,9.18436,0,0,0,1.4244-2.5216,19.36528,19.36528,0,0,0,.8044-2.56559,58.70915,58.70915,0,0,0,1.588-15.54145,112.57211,112.57211,0,0,0-2.91916-20.54572,278.64955,278.64955,0,0,0-12.64024-39.61455c-5.06656-12.94767-10.7387-25.6854-16.75881-38.28173-1.4714-3.15843-3.04391-6.28609-4.58133-9.421l-2.31344-4.70072-2.28991-4.8711-4.55971-9.76894-2.27284-4.89636c-.76428-1.63047-1.52966-3.26147-2.1791-4.94037-11.44082-26.44207-20.60714-54.09168-26.221-83.26516a275.36539,275.36539,0,0,1-5.07832-45.08552l-.16176-5.82853.10937-5.92916c.06164-1.98782.02932-3.94175.17528-5.96493l.41555-6.067c.10957-2.00728.376-4.0908.62852-6.16878.26347-2.08565.45823-4.12579.86364-6.30555.38016-2.16893.6715-4.245,1.21854-6.57358l.37485-1.70773c.12847-.57356.23709-1.11389.42459-1.782l.51707-1.91708.13159-.4796c.04462-.16115.077-.29271.17143-.57589l.494-1.47959Z" transform="translate(-4.70389 3.67809)"/></g></g><g class="cls-3"><path class="cls-4" d="M630.315,475.72827l.668.13068.40875.08911.69208.15869,1.17176.29309c.78338.19605,1.40686.38107,2.09326.57355.693.19147,1.29321.38547,1.93176.58044.63568.19437,1.26117.39173,1.853.59452,1.21393.39978,2.4024.81106,3.54791,1.23745,1.17163.41651,2.29413.85862,3.4162,1.3024,4.48065,1.77954,8.73352,3.73282,12.874,5.81259a183.73394,183.73394,0,0,1,23.1684,14.28754,203.05977,203.05977,0,0,1,37.94269,36.28094,230.88326,230.88326,0,0,1,14.92059,20.8108l3.34412,5.38354c1.11309,1.79224,2.1101,3.64166,3.16528,5.45789,2.13745,3.62091,4.00891,7.35571,5.94836,11.04693.99,1.837,1.822,3.73908,2.72205,5.61084.87115,1.88318,1.79156,3.74439,2.61371,5.64069l2.43023,5.69482,1.209,2.84333,1.11645,2.87158,2.20514,5.7409,1.959,5.19867,1.85821,4.9881,2.02838,4.92676a288.97266,288.97266,0,0,0,44.80707,73.87671,315.5383,315.5383,0,0,0,30.42475,32.17676q8.20036,7.54146,16.97082,14.49145c2.91028,2.32892,5.90424,4.53931,8.88727,6.768a18.36066,18.36066,0,0,1,3.89136,4.36993,20.91049,20.91049,0,0,1,2.78216,6.67346,16.33014,16.33014,0,0,1-7.25952,1.22473,16.88775,16.88775,0,0,1-5.96436-1.40954c-3.5368-1.7096-6.97985-3.57575-10.40417-5.47681q-10.26728-5.71665-20.10992-12.20642a337.55156,337.55156,0,0,1-37.62244-28.73889c-5.97394-5.24-11.65088-10.82642-17.27026-16.51306l-4.12092-4.35865-2.05847-2.18859-2.00238-2.24054-4.00885-4.49305-3.88348-4.61218c-2.63422-3.04791-5.057-6.266-7.58209-9.42163-1.25592-1.58289-2.4209-3.23224-3.63678-4.84961-1.19153-1.63367-2.43641-3.23614-3.58551-4.90375l-3.45508-5.00732-1.716-2.51752-1.636-2.56976-3.27283-5.15259c-1.10089-1.715-2.08618-3.49646-3.13507-5.246-1.0285-1.7605-2.08-3.51245-3.08948-5.28827l-2.9209-5.3902-1.46014-2.70178-1.35919-2.47821-2.571-4.63873-1.28759-2.31055-1.363-2.25781-2.71381-4.50757c-.91021-1.49512-1.90173-2.93073-2.84387-4.39636-.97455-1.44287-1.8562-2.94806-2.873-4.3498-1.99884-2.82824-3.91578-5.7066-6.03553-8.40612-1.04791-1.35852-2.03961-2.76123-3.12347-4.08027l-3.23364-3.95886a180.65341,180.65341,0,0,0-13.757-14.74286,153.573,153.573,0,0,0-30.96747-23.3938A125.51919,125.51919,0,0,0,634.33,540.11169c-2.79425-1.07116-5.58637-2.02984-8.28424-2.79907-.67347-.19073-1.34577-.38525-1.99183-.53747-.66143-.17554-1.29394-.321-1.90875-.45307-.31854-.0766-.61078-.13287-.89483-.18493-.28107-.05146-.59552-.12323-.829-.15223-.23835-.034-.53559-.09277-.683-.09784a1.38058,1.38058,0,0,0-.22235-.01708l-.00745.01519-.00164.00318s-.014-.00055.06036.01544l.317.06518Z" transform="translate(-4.70389 3.67809)"/></g><path class="cls-8" d="M645.58124,466.29413l.668.13064.40875.08915.69208.15869,1.17175.29306c.78339.19607,1.40686.3811,2.09326.57358.693.19146,1.29322.38543,1.93177.58044.63568.19437,1.26116.39169,1.853.59451,1.21393.39978,2.40241.81107,3.54791,1.23746,1.17164.4165,2.29413.85858,3.4162,1.3024,4.48066,1.77954,8.73352,3.73282,12.874,5.81259a183.73266,183.73266,0,0,1,23.16839,14.28754,203.05724,203.05724,0,0,1,37.94269,36.28094,230.88454,230.88454,0,0,1,14.92059,20.81079l3.34418,5.38355c1.113,1.79223,2.11005,3.64166,3.16522,5.45788,2.13745,3.62091,4.00891,7.35572,5.94837,11.04694.99,1.837,1.822,3.739,2.722,5.61084.87116,1.88318,1.79157,3.74438,2.61371,5.64069l2.43024,5.69476,1.209,2.84338,1.11646,2.87158,2.20514,5.74091,1.959,5.19867,1.85822,4.9881,2.02838,4.92676a288.97243,288.97243,0,0,0,44.80707,73.8767,315.53721,315.53721,0,0,0,30.42474,32.17676q8.20038,7.54147,16.97083,14.49146c2.91027,2.32892,5.90423,4.5393,8.88726,6.768a18.36069,18.36069,0,0,1,3.89136,4.36994,20.9098,20.9098,0,0,1,2.78217,6.67346,16.33016,16.33016,0,0,1-7.25952,1.22473,16.8891,16.8891,0,0,1-5.96436-1.40955c-3.53674-1.70965-6.97986-3.57574-10.40418-5.4768q-10.26726-5.71665-20.10992-12.20648a337.5459,337.5459,0,0,1-37.62244-28.73883c-5.97393-5.24-11.65087-10.82642-17.27026-16.51307l-4.12091-4.35864-2.05847-2.1886-2.00238-2.24054-4.00885-4.493-3.88349-4.61218c-2.63421-3.04791-5.057-6.266-7.58209-9.42163-1.25592-1.58289-2.4209-3.23224-3.63678-4.84961-1.19147-1.63373-2.4364-3.23615-3.58551-4.90375l-3.45508-5.00738-1.716-2.51746-1.636-2.56976-3.27282-5.15259c-1.10089-1.715-2.08619-3.49646-3.13507-5.246-1.02845-1.7605-2.08-3.51246-3.08948-5.28827l-2.9209-5.3902-1.46014-2.70184-1.3592-2.47815-2.571-4.63874-1.2876-2.31054-1.363-2.25782-2.7138-4.50756c-.91022-1.49512-1.90173-2.93079-2.84387-4.39637-.97455-1.44287-1.8562-2.94806-2.87293-4.34979-1.9989-2.82831-3.91583-5.7066-6.03558-8.40613-1.04791-1.35858-2.03961-2.76123-3.12348-4.08026l-3.23364-3.95886a180.66071,180.66071,0,0,0-13.757-14.74292,153.57442,153.57442,0,0,0-30.96746-23.39374,125.51872,125.51872,0,0,0-16.71369-7.94635c-2.79425-1.07123-5.5863-2.02984-8.28424-2.79907-.67346-.19074-1.34576-.38525-1.99182-.53748-.66144-.17559-1.29395-.321-1.90875-.45306-.31855-.0766-.61072-.13287-.89484-.18494-.28107-.05145-.59552-.12323-.829-.15222-.23834-.03412-.53558-.09277-.683-.09784a1.39071,1.39071,0,0,0-.22235-.01715l-.00745.01526-.00165.00317s-.014-.00055.06037.01545l.317.06518Z" transform="translate(-4.70389 3.67809)"/><g class="cls-9"><g class="cls-3"><path class="cls-7" d="M674.65217,443.62305l.80981.15649.42683.0931.80969.18241,1.30509.32406c.8565.21731,1.55229.42032,2.33314.63551,1.43516.42219,2.83228.85193,4.13431,1.29306,2.65275.87715,5.09461,1.80855,7.50123,2.76658,4.77126,1.92549,9.18991,4.02429,13.43053,6.24635a169.79855,169.79855,0,0,1,23.15045,14.80707,181.29466,181.29466,0,0,1,19.43,17.0612,194.70077,194.70077,0,0,1,16.35345,18.66045A215.07637,215.07637,0,0,1,777.921,525.7327c2.12405,3.364,3.98976,6.83156,5.92112,10.263.98481,1.70795,1.81475,3.47745,2.72641,5.21164.87859,1.74745,1.81119,3.4721,2.63947,5.23532,3.33689,7.04447,6.41329,14.16688,9.09167,21.39279l3.83559,10.37715,1.80889,4.925,1.97506,4.86387a288.79961,288.79961,0,0,0,43.52436,73.17518c2.23926,2.8611,4.63912,5.61553,6.98782,8.41644,2.42829,2.74118,4.83476,5.50945,7.36674,8.18941q7.52633,8.09314,15.72385,15.75261,8.20637,7.64079,17.12478,14.73761c2.95035,2.38467,6.03116,4.64023,9.07965,6.93243a16.51827,16.51827,0,0,1,3.77915,4.30633,15.62468,15.62468,0,0,1,2.17548,6.28608,23.402,23.402,0,0,1-8.38826.5419,21.60263,21.60263,0,0,1-6.503-1.74918c-3.71343-1.84257-7.32051-3.80193-10.87408-5.81314q-10.68069-6.02154-20.73333-12.72685-10.05854-6.69309-19.52812-13.99061c-3.18334-2.4098-6.24869-4.91927-9.34476-7.41524-3.016-2.555-6.09155-5.07712-9.01383-7.71889a326.87285,326.87285,0,0,1-32.74525-33.6532,287.36628,287.36628,0,0,1-27.10026-37.7343l-2.9823-4.97228-2.81667-5.05732-2.78369-5.02772-2.58077-4.58213c-3.40224-6.12218-7.19372-12.00426-11.03386-17.80659-.95323-1.45491-1.99671-2.85217-2.98737-4.27952-1.02009-1.40855-1.96341-2.86481-3.04059-4.23138-2.11965-2.75515-4.16415-5.55222-6.41569-8.19482a189.5215,189.5215,0,0,0-13.95795-15.352,167.96845,167.96845,0,0,0-32.37138-25.452,130.14872,130.14872,0,0,0-18.15348-9.16494c-3.07451-1.28252-6.18279-2.43405-9.21238-3.35755-1.50509-.44812-3.00541-.87942-4.39446-1.2011-.70883-.17545-1.355-.30531-1.97022-.42977-.25541-.03751-.5858-.10652-.77344-.12612l-.2623-.02922.01916.02021c.01266.0048-.01382.00149.03144.01239l.41132.08219Z" transform="translate(-4.70389 3.67809)"/></g></g><g class="cls-3"><path class="cls-4" d="M632.74542,495.65921c-1.72156-.54926-3.66357-1.09122-4.99829-1.47354-.73193-.212-1.4801-.36621-2.21869-.52228a9.41661,9.41661,0,0,0-1.86108-.20727q-.47352.045-.942.12463a5.03142,5.03142,0,0,0-.92773.62335,5.92693,5.92693,0,0,0-.36829,1.06467c-.15887-.00549-.13855,1.163.39063,2.88522-1.59619-.97107,4.38983,8.65369,11.41125,8.10083,8.23322-.85336,9.35852-3.95828,9.68378-3.73324a11.19615,11.19615,0,0,1,1.68194-1.53107c.27845-.19113.6366-.56729.82331-.65558.3316-.08481.70105-.28076.99475-.33282q.40081.016.80389.00442a6.01738,6.01738,0,0,1,.73511.15039,3.20881,3.20881,0,0,1,.63605.16556l.553.1922c.36114.12491.73218.32391,1.06238.4588.562.29544,1.18353.62408,1.68029.9491A8.91813,8.91813,0,0,1,653.98932,503.7a2.23952,2.23952,0,0,1,.601,1.51c-.06958.44928-.20984.89585-.31177,1.36057l-.65795,2.86828c-.86506,3.92319-1.66028,8.042-2.38392,12.1818-.73431,4.145-1.35943,8.34186-1.99877,12.54437q-.95555,6.30579-1.72669,12.662c-.51849,4.23388-.95258,8.48-1.37512,12.72583q-.65634,6.36686-1.12634,12.74634c-.32294,4.25109-.54145,8.50512-.77326,12.75378q-.34561,6.37335-.49475,12.74a404.76782,404.76782,0,0,0,1.75415,50.513c.84149,8.31738,1.97345,16.569,3.52875,24.69727a228.744,228.744,0,0,0,5.77569,23.99481q1.75635,5.88318,3.87787,11.61468l2.35065,6.44611,2.38611,6.62659,2.37146,6.61792,2.11035,6.68286,2.08227,6.681c.67212,2.231,1.43537,4.43506,2.01093,6.68805l3.66589,13.43786c.29773,1.11988.624,2.23218.89759,3.35718l.8067,3.37708,1.60962,6.74737,1.60479,6.73816,1.42853,6.76849,1.41223,6.76264c.4704,2.25268.95575,4.50055,1.34363,6.76794l2.46295,13.55677,2.15027,13.58471c1.33606,9.06342,2.611,18.11652,3.63391,27.1955q1.59687,13.60629,2.7273,27.23889l.50006,6.82556a38.25207,38.25207,0,0,1,.0293,6.87879c-.09845,1.15759-.25,2.3197-.46668,3.48712-.11426.58575-.2464,1.17279-.40033,1.76129-.1355.58661-.30322,1.17578-.48822,1.76581a27.41462,27.41462,0,0,1-1.33667,3.55395,21.29691,21.29691,0,0,1-2.027,3.58582l-.99731.07361a29.45142,29.45142,0,0,1-4.61609-6.30323,38.19387,38.19387,0,0,1-2.82666-6.4068,46.75926,46.75926,0,0,1-1.60266-6.52356l-1.251-6.56213c-1.78131-8.73462-3.61456-17.44952-5.74292-26.09564-4.20068-17.298-9.00927-34.418-14.61126-51.20142-5.6095-16.77527-11.78894-33.28259-18.777-49.30743-.81226-2.03046-1.799-3.97815-2.69763-5.96424l-2.75055-5.92608-2.72242-5.92426-2.948-5.79144L624.039,724.09283q-3.39028-6.59921-6.30517-13.38946a246.72814,246.72814,0,0,1-9.9159-27.65082q-4.04854-14.04722-6.66961-28.317a342.686,342.686,0,0,1-5.35175-57.16705q-.08661-7.13718.05731-14.25659c.09064-4.7467.3349-9.48291.6023-14.2135q.41949-7.095,1.04168-14.16889c.42481-4.71539.97882-9.41693,1.5633-14.11621,1.18554-9.40051,2.62964-18.76593,4.538-28.15576.94183-4.7056,1.96253-9.40524,3.15344-14.24539l.94294-3.68991c.17614-.62555.3186-1.268.53942-1.90576a4.16054,4.16054,0,0,1,1.49854-1.74381,12.40433,12.40433,0,0,1,3.06836-1.457l2.20355-.65539c.42365-.13041.88373-.19828,1.342-.33738l1.48773-.43142c.29987-.08808.57752-.12458.89319-.24076q.488-.20457.97431-.38159c.35308-.17947.789-.49951,1.18328-.71017.21943-.15051.61811-.58444.9328-.83579a21.09233,21.09233,0,0,0,1.80658-1.70025c.36847.16684,1.54578-2.98328,9.85187-3.85031,7.08283-.55051,13.12836,9.14239,11.54181,8.23809.55426,1.78842.59241,3.0246.436,3.09012a8.5288,8.5288,0,0,1-.34687,1.27448,8.79245,8.79245,0,0,1-.92541,1.04522q-.47837.29028-.96234.54609a11.66047,11.66047,0,0,1-1.93354.63336c-.77185.12326-1.54559.24926-2.31707.31579a49.69869,49.69869,0,0,1-5.23615.19727Z" transform="translate(-4.70389 3.67809)"/></g><path class="cls-10" d="M648.01166,486.22507c-1.72156-.54926-3.66358-1.09122-4.99829-1.47354-.73194-.212-1.48011-.36625-2.21869-.52231a9.41743,9.41743,0,0,0-1.86109-.20725q-.4735.045-.942.12464a5.02965,5.02965,0,0,0-.92774.62335,5.92377,5.92377,0,0,0-.36822,1.06463c-.15888-.00546-.13861,1.163.39056,2.88526-1.59619-.97107,4.38983,8.65369,11.41126,8.10083,8.23321-.85336,9.35852-3.95831,9.68377-3.73325a11.19838,11.19838,0,0,1,1.68195-1.53109c.27844-.19114.6366-.5673.8233-.65558.33161-.08478.70105-.28073.99475-.3328q.40083.016.8039.00443a6.01356,6.01356,0,0,1,.73511.15039,3.20462,3.20462,0,0,1,.636.16556l.553.1922c.36115.12487.73218.32388,1.06238.4588.562.29544,1.18353.62408,1.6803.94906a8.9197,8.9197,0,0,1,2.10351,1.77747,2.23958,2.23958,0,0,1,.601,1.51007c-.06958.44928-.20984.89584-.31177,1.36053l-.658,2.86829c-.865,3.92322-1.66028,8.042-2.38391,12.18182-.73431,4.145-1.35944,8.34186-1.99878,12.54438q-.95553,6.30577-1.72668,12.66192c-.5185,4.234-.95258,8.48011-1.37513,12.72589q-.65634,6.36685-1.12634,12.74634c-.32294,4.2511-.54144,8.50513-.77325,12.75379q-.34562,6.37335-.49475,12.74a404.76412,404.76412,0,0,0,1.75415,50.513c.84149,8.31738,1.97345,16.569,3.52874,24.69726a228.7451,228.7451,0,0,0,5.7757,23.99481q1.75635,5.88318,3.87787,11.61469l2.35064,6.44611,2.38611,6.62652,2.37146,6.618,2.11035,6.68286,2.08228,6.681c.67212,2.2309,1.43536,4.43506,2.01093,6.688l3.66589,13.43793c.29773,1.11987.624,2.23218.89758,3.35712l.8067,3.37713,1.60962,6.74738,1.6048,6.7381,1.42853,6.76849,1.41223,6.7627c.4704,2.25268.95575,4.50054,1.34363,6.76788l2.46295,13.55682,2.15027,13.58472c1.33606,9.06341,2.611,18.11652,3.63391,27.19549q1.59686,13.60631,2.72729,27.2389l.50006,6.82556a38.251,38.251,0,0,1,.0293,6.87878c-.09845,1.15753-.24994,2.3197-.46667,3.48712-.11426.58576-.2464,1.17279-.40033,1.7613-.1355.5866-.30323,1.17578-.48822,1.7658a27.41218,27.41218,0,0,1-1.33667,3.5539,21.29594,21.29594,0,0,1-2.027,3.58587l-.99731.07361a29.45286,29.45286,0,0,1-4.61609-6.30322,38.19306,38.19306,0,0,1-2.82666-6.4068,46.75786,46.75786,0,0,1-1.60266-6.52356l-1.251-6.56213c-1.78131-8.73468-3.61456-17.44953-5.74292-26.09565-4.20069-17.298-9.00928-34.418-14.61127-51.20141-5.6095-16.77527-11.78894-33.28259-18.777-49.3075-.81225-2.03039-1.799-3.97815-2.69763-5.96417l-2.75055-5.92609L648.2146,732.171l-2.948-5.79144-5.96136-11.72089q-3.3903-6.59911-6.30518-13.3894a246.73006,246.73006,0,0,1-9.91589-27.65082q-4.04856-14.04722-6.66962-28.31708a342.686,342.686,0,0,1-5.35174-57.16705q-.08652-7.13709.05731-14.25659c.09063-4.74671.3349-9.48285.60229-14.21344q.4195-7.095,1.04169-14.16889c.4248-4.71539.97882-9.41693,1.56335-14.11621,1.18549-9.40051,2.62958-18.76593,4.53791-28.15576.94183-4.7056,1.96252-9.40524,3.15344-14.24542l.94293-3.68988c.17615-.62555.3186-1.268.53943-1.90577a4.16049,4.16049,0,0,1,1.49853-1.7438,12.40433,12.40433,0,0,1,3.06836-1.457l2.20356-.6554c.42364-.1304.88372-.19827,1.342-.3374l1.48773-.4314c.29986-.0881.57751-.12457.89319-.24075q.488-.20457.9743-.38159c.35309-.17947.789-.49951,1.18329-.71021.21942-.15051.6181-.58441.9328-.83575a21.10117,21.10117,0,0,0,1.80658-1.70026c.36847.16684,1.54578-2.98327,9.85187-3.85031,7.08282-.5505,13.12835,9.1424,11.54181,8.2381.55426,1.78842.5924,3.0246.436,3.09012a8.53,8.53,0,0,1-.34686,1.27447,8.79183,8.79183,0,0,1-.92542,1.04523q-.47836.29026-.96234.546a11.65777,11.65777,0,0,1-1.93353.63339c-.77185.12323-1.54559.24924-2.31708.3158a49.71728,49.71728,0,0,1-5.23614.19727Z" transform="translate(-4.70389 3.67809)"/><g class="cls-11"><g class="cls-3"><path class="cls-7" d="M671.03074,459.90648c-1.8227-.238-3.87794-.43612-5.28758-.60226-.77548-.08395-1.56266-.13116-2.34206-.176a10.94465,10.94465,0,0,0-1.96146.03813,3.66591,3.66591,0,0,0-.98976.22373q-.24892.1246-.49219.26128a.82387.82387,0,0,0-.46809.48657,4.72557,4.72557,0,0,0-.38357.83059c.3383,1.42308-.47268.922,1.38629,3.8456,1.05281,6.09824,18.14905,3.51288,20.01321.07717a34.17812,34.17812,0,0,0,2.97983-2.73113c.33895-.27148.70406-.63532.98106-.8819q.28383-.12006.56473-.25577a2.1154,2.1154,0,0,1,.90836-.27864c.13108-.02026.2677-.05726.394-.06931l.35657.02169c.23509.02133.48321-.00028.709.04409a11.60584,11.60584,0,0,1,1.19547.23529c.36853.09772.77139.18552,1.10644.30816.58911.20117,1.23664.4535,1.76134.68656a7.45285,7.45285,0,0,1,2.20752,1.46612,1.96633,1.96633,0,0,1,.62189,1.4827c-.07861.48893-.23123.9902-.34157,1.499l-.70638,3.11155c-.92016,4.22314-1.74759,8.5842-2.49757,12.95107-.75981,4.37261-1.39922,8.76888-2.051,13.1723q-.9736,6.606-1.744,13.22493c-.52181,4.41069-.9445,8.81845-1.36215,13.22535q-.64409,6.61193-1.09077,13.20827c-.30779,4.39771-.50217,8.78252-.71514,13.167q-.30994,6.5756-.41866,13.12111a411.26649,411.26649,0,0,0,2.19179,51.68979c.9316,8.47321,2.14649,16.86864,3.80222,25.12071a232.47046,232.47046,0,0,0,6.06787,24.35656c.6078,1.99159,1.25364,3.96739,1.92367,5.9337l1.03191,2.938,1.09613,3.00622,4.56788,12.89985c1.58717,4.27418,2.83873,8.64971,4.193,12.98757l1.98141,6.51987.9811,3.25979.87456,3.29036,3.48852,13.14564c1.10989,4.39236,2.07026,8.824,3.10941,13.22779.50089,2.20733,1.04,4.40263,1.5081,6.61694l1.34692,6.65574,1.34474,6.64992.6682,3.32371.58737,3.34432,2.33866,13.36506,2.032,13.4231c1.2516,8.96763,2.50114,17.92078,3.48109,26.9301,1.02871,8.99654,1.8369,18.036,2.54691,27.08645l.45485,6.8062a37.1305,37.1305,0,0,1-.02607,6.90644,35.73954,35.73954,0,0,1-.5189,3.55415c-.12456.60063-.26787,1.20464-.43421,1.8128-.14684.60417-.32778,1.21475-.5269,1.82833a30.22922,30.22922,0,0,1-1.43274,3.723,24.85033,24.85033,0,0,1-2.15822,3.84232l-1.05279.19235a25.055,25.055,0,0,1-4.84074-5.85168,33.10246,33.10246,0,0,1-2.94552-6.17843,42.25505,42.25505,0,0,1-1.649-6.43417l-1.28362-6.50949c-1.81459-8.65718-3.72192-17.28322-5.84289-25.84471-4.193-17.13272-9.02412-34.06163-14.67549-50.65477l-1.02151-3.12267-1.1-3.09465-2.20433-6.1829-2.20208-6.1771c-.7553-2.05027-1.57917-4.07428-2.36453-6.11115-1.60721-4.05982-3.13386-8.1468-4.80117-12.173l-5.1407-12.00751-1.28273-2.99794-1.38289-2.95244-2.77707-5.89333c-1.85054-3.92481-3.59829-7.893-5.65646-11.70769l-5.93346-11.53814-1.59419-3.07642-1.59619-3.17035q-1.56548-3.18215-3.03135-6.40318a233.70565,233.70565,0,0,1-9.98157-26.35034,275.34881,275.34881,0,0,1-6.86342-27.22366,325.24325,325.24325,0,0,1-5.8656-55.948q-.147-7.07341-.06067-14.16936c.056-4.73035.26752-9.47578.505-14.22131q.37465-7.12041.96145-14.257c.40509-4.759.938-9.52675,1.51146-14.29866,1.15724-9.54722,2.59167-19.10939,4.51693-28.76121.95007-4.83243,1.98346-9.67248,3.189-14.64392l.95309-3.78207c.17682-.63971.31749-1.28673.54248-1.94565a5.19937,5.19937,0,0,1,1.55471-1.95928,16.13231,16.13231,0,0,1,3.21462-1.971c.70245-.339,1.52911-.65872,2.30942-1.02827l1.39842-.54746c.487-.16381.927-.42847,1.50572-.6182.278-.09777.58566-.26049.87641-.38087l.44135-.1907c.15613-.08258.32458-.18975.48643-.28034a7.43136,7.43136,0,0,0,1.10333-.69877l.6702-.46412c.31691-.31471.72589-.74556,1.10651-1.08466a31.52032,31.52032,0,0,1,3.13447-2.92115c1.92754-3.49956,19.12435-6.09969,20.218.06878,1.9,2.97846,1.09635,2.55115,1.46046,4.03764a7.26,7.26,0,0,1-.36041,1.03949,1.43472,1.43472,0,0,1-.45751.69765l-.49034.47388a5.75151,5.75151,0,0,1-1.00616.6513,15.27985,15.27985,0,0,1-2.02992.8967c-.813.24207-1.62816.48151-2.442.68469-1.48228.408-3.6231.78449-5.53249,1.12118Z" transform="translate(-4.70389 3.67809)"/></g></g><g class="cls-3"><path class="cls-4" d="M556.5473,536.67346l1.10163.1554c.21319.02972.31073.0495.41589.06976l.32782.06238,1.30939.25372c.46124.08618.81134.17145,1.1922.25745l1.12909.25989c1.54937.34918,2.868.736,4.28356,1.11193,1.42133.36872,2.698.79541,4.04664,1.19538,1.34381.39862,2.64331.82483,3.922,1.27435,5.17566,1.74884,10.08075,3.76056,14.92017,5.86749a198.64373,198.64373,0,0,1,27.33276,14.93488c4.33753,2.75079,8.43592,5.85254,12.53754,8.852,3.96905,3.22,7.99158,6.2832,11.6944,9.745l2.79846,2.54792c.92944.84894,1.86658,1.68274,2.73993,2.59662l5.2915,5.35711a56.32216,56.32216,0,0,1,3.87537,4.24494c.519.64019,1.14453,1.187,1.71429,1.79687.59772.582,1.13684,1.23468,1.78913,1.78015,1.26458,1.13117,2.50726,2.327,3.90319,3.38922.68879.54194,1.33454,1.14869,2.06342,1.66376l2.16662,1.59839a86.45427,86.45427,0,0,0,9.47144,5.8609,126.56962,126.56962,0,0,0,21.92065,9.05847,179.64675,179.64675,0,0,0,24.38245,5.68866c4.19324.68952,8.436,1.22418,12.70813,1.649a29.15932,29.15932,0,0,1,6.54181,1.56732,28.3504,28.3504,0,0,1,7.01837,3.73987l.17621.98431a20.74993,20.74993,0,0,1-6.03168,5.53064,24.537,24.537,0,0,1-6.57318,2.80286c-4.48425,1.10187-9.02026,2.02271-13.60876,2.814-4.5885.77942-9.23114,1.443-13.92829,1.90142-4.69775.44153-9.44952.73584-14.25848.84327a149.49428,149.49428,0,0,1-29.46234-2.27765,117.2242,117.2242,0,0,1-30.11426-9.50074c-1.25641-.54467-2.45654-1.2445-3.691-1.871-1.21851-.6626-2.47449-1.26086-3.66736-1.99786-2.3277-1.37445-5.12134-3.16895-6.52594-3.83985l-5.09485-2.74682c-.82861-.47626-1.71338-.87006-2.58423-1.278l-2.60351-1.22131c-3.38776-1.73328-6.97321-3.08185-10.41754-4.5683-3.572-1.26861-7.04309-2.63739-10.64319-3.65783a149.57037,149.57037,0,0,0-21.35761-5.07624c-3.52887-.55237-7.05011-1.044-10.43579-1.26239-.853-.07751-1.69146-.15069-2.50244-.17621-.80456-.02832-1.66492-.114-2.41089-.10113-.74792.002-1.583-.04395-2.209.00409l-.49915.01361a2.7369,2.7369,0,0,0-.438.02533l-.32446.048-.08057.01093c-.031.003-.06958.00513.007.02185l.28272.07007Z" transform="translate(-4.70389 3.67809)"/></g><path class="cls-12" d="M571.81354,527.23926l1.10162.15539c.2132.02979.31073.04956.41589.06983l.32782.06238,1.30939.25372c.46124.08618.81134.17145,1.1922.25744l1.12909.25989c1.54938.34918,2.868.736,4.28357,1.11194,1.42133.36871,2.698.79541,4.04663,1.19537,1.34381.39863,2.64331.82483,3.922,1.27436,5.17572,1.74884,10.08075,3.7605,14.92016,5.86749A198.64278,198.64278,0,0,1,631.79468,552.682c4.33758,2.75079,8.43591,5.85253,12.53753,8.852,3.96906,3.21991,7.99158,6.28314,11.6944,9.745l2.79846,2.54791c.92945.84894,1.86658,1.68274,2.73993,2.59662l5.29151,5.35712a56.32162,56.32162,0,0,1,3.87536,4.24493c.519.6402,1.14453,1.187,1.7143,1.79688.59771.582,1.13684,1.23462,1.78912,1.78015,1.26459,1.13116,2.50726,2.327,3.9032,3.38922.68878.54193,1.33453,1.14868,2.06341,1.66376l2.16663,1.59839a86.45332,86.45332,0,0,0,9.47144,5.8609,126.5787,126.5787,0,0,0,21.92065,9.05847,179.65654,179.65654,0,0,0,24.38245,5.68866c4.19323.68951,8.436,1.22418,12.70813,1.649a29.15944,29.15944,0,0,1,6.54181,1.56732,28.34916,28.34916,0,0,1,7.01837,3.73981l.17621.98437a20.74883,20.74883,0,0,1-6.03168,5.53058,24.53462,24.53462,0,0,1-6.57318,2.80292c-4.48426,1.10187-9.02027,2.0227-13.60877,2.814-4.5885.77942-9.23114,1.443-13.92828,1.90143-4.69776.44153-9.44953.73584-14.25849.84326a149.49263,149.49263,0,0,1-29.46228-2.27765,117.2235,117.2235,0,0,1-30.11431-9.50073c-1.25641-.54468-2.45649-1.2445-3.691-1.871-1.21851-.6626-2.47449-1.26087-3.66736-1.99793-2.3277-1.37439-5.12134-3.16888-6.52594-3.83978l-5.09485-2.74682c-.82861-.47626-1.71338-.87012-2.58423-1.278l-2.60352-1.22125c-3.38775-1.73328-6.9732-3.08185-10.41754-4.5683-3.572-1.26862-7.04309-2.63739-10.64319-3.65784a149.57051,149.57051,0,0,0-21.3576-5.07623c-3.52887-.55237-7.05011-1.044-10.43579-1.26239-.853-.07752-1.69147-.1507-2.50244-.17621-.80457-.02832-1.66492-.114-2.41089-.10113-.74793.002-1.583-.04395-2.209.00409l-.49914.01361a2.72984,2.72984,0,0,0-.438.02533l-.32446.048-.08057.01093c-.031.003-.06958.00512.007.02185l.28271.07006Z" transform="translate(-4.70389 3.67809)"/><g class="cls-13"><g class="cls-3"><path class="cls-7" d="M601.58994,505.20327l1.26459.1674c.25353.03346.29212.04708.43414.07035l.35725.06377,1.42521.26022c.90836.17532,1.63088.34539,2.4516.52287l1.189.27034,1.09257.27988,2.178.56512c2.81011.78305,5.53952,1.576,8.10572,2.46192,5.21457,1.73554,10.03018,3.70924,14.75547,5.75332a179.65124,179.65124,0,0,1,25.80785,14.22335c4.01032,2.57633,7.68378,5.42712,11.40212,8.18995,1.803,1.43229,3.54483,2.90938,5.304,4.35983l2.62122,2.18332c.84274.75166,1.66436,1.518,2.48452,2.28456l4.87521,4.60491c1.573,1.5658,3.05676,3.19248,4.57516,4.78151l2.255,2.39362,1.10048,1.17663.7583.89406,1.51914,1.81216c.51322.604,1.09494,1.15251,1.6405,1.73944,8.74587,9.35891,21.55944,16.75828,36.88682,21.69964,3.8142,1.26826,7.81236,2.31542,11.90529,3.26825,4.09754.94446,8.31576,1.75257,12.63368,2.38573,4.31544.64493,8.72779,1.12065,13.20421,1.46462a34.36874,34.36874,0,0,1,6.7249,1.28474,28.77719,28.77719,0,0,1,6.97613,3.10717l.05871.8594a26.79341,26.79341,0,0,1-7.34482,5.03547,34.78922,34.78922,0,0,1-7.57826,2.57325c-5.04491,1.00806-10.12275,1.81758-15.23577,2.47168a200.61249,200.61249,0,0,1-30.96841,1.59641c-5.18719-.1587-10.4-.47628-15.54763-1.1468l-1.94224-.22938-1.92467-.28876-3.86189-.59625c-2.53731-.49739-5.134-.91657-7.64632-1.539a139.84664,139.84664,0,0,1-14.98466-4.26529,113.42087,113.42087,0,0,1-14.17456-6.0903c-1.12941-.59043-2.29609-1.152-3.39766-1.78061l-3.28977-1.91857-1.64625-.97126-1.29793-.69411-2.54093-1.34843c-1.69813-.88825-3.34955-1.81291-5.05987-2.66347l-5.20858-2.4309-2.57121-1.2196-2.65015-1.10789c-1.76675-.73112-3.50089-1.4891-5.265-2.19446-3.6166-1.29547-7.12366-2.68177-10.80026-3.75614a165.11587,165.11587,0,0,0-21.8962-5.483c-3.64657-.62149-7.28363-1.19576-10.79639-1.49586-1.76079-.2017-3.45732-.30016-5.07843-.389l-1.17091-.03355-.58188-.01944-.5029.01293c-.3093.01128-.70954-.00377-.93707.02086l-.2828.0452-.06975.01c-.00059.00613-.10343-.00086.0062.01911l.40443.07776Z" transform="translate(-4.70389 3.67809)"/></g></g><g class="cls-3"><path class="cls-4" d="M481.48367,608.70306a14.455,14.455,0,0,0-.18533,1.81195l-.13092,2.2259c-.07849,1.51483-.13446,3.0642-.18829,4.62054q-.12155,4.6919-.08075,9.46875c.0393,6.36127.24762,12.77759.61215,19.19128a346.7817,346.7817,0,0,0,4.33557,38.29871,276.33062,276.33062,0,0,0,8.89468,37.22565l1.4552,4.535,1.58478,4.46692.79379,2.24145.85972,2.19831,1.73846,4.40436,1.88641,4.31433.94635,2.165,1.01538,2.11316,2.04642,4.2356,2.19772,4.12915,1.10477,2.07178c.3743.68615.78549,1.33758,1.17667,2.01019l2.37842,4.02368c.82592,1.31281,1.694,2.58789,2.54052,3.89264l1.27893,1.953c.19062.30152.49683.71839.75043,1.08356l.79376,1.12793c4.33161,5.93427,8.1612,12.19885,11.98291,18.39386,1.82117,3.16089,3.68848,6.27869,5.36951,9.5022,1.76215,3.17309,3.38141,6.41827,5.02258,9.63934,3.15375,6.51428,6.089,13.1023,8.7118,19.79517,2.60925,6.69775,4.92187,13.48987,6.86206,20.37115.50647,1.71283.96276,3.44031,1.40857,5.16864.46215,1.72284.89935,3.45124,1.2915,5.19135q.60608,2.6043,1.12622,5.22552.55061,2.61219,1.01123,5.24085c.65643,3.49279,1.19147,7.00744,1.63336,10.52911.23187,1.75818.41614,3.52521.60877,5.28528.14813,1.77081.33184,3.529.44293,5.30048a52.36639,52.36639,0,0,1,.02209,10.67059,35.70661,35.70661,0,0,1-1.02874,5.39618,23.52852,23.52852,0,0,1-2.1388,5.37494l-.99981.019c-4.24915-6.5669-6.094-12.92108-7.78034-19.42505-1.78528-6.45685-3.88348-12.80951-6.10583-19.07733A268.55161,268.55161,0,0,0,530.59393,838.954q-4.71423-8.63453-10.10656-16.7934c-3.62879-5.41131-7.52662-10.61291-11.62009-15.61987-2.10333-2.46136-4.14136-4.96063-6.38992-7.28235l-3.30133-3.524-3.40867-3.41193-1.73718-1.75086-1.97635-2.03082c-1.3114-1.36059-2.65277-2.71094-3.94268-4.09631l-3.75092-4.24085c-.6196-.7124-1.26474-1.41375-1.86389-2.1391l-1.77616-2.19061-3.54422-4.40851-3.36343-4.51678-1.67435-2.272-1.59082-2.3106L467.37,757.72351l-3.01725-4.72009-1.51141-2.36713-1.43326-2.3963-2.865-4.81036-2.71378-4.87195-1.35513-2.44446-1.28482-2.4657-2.5668-4.947c-1.60144-3.32587-3.2977-6.64917-4.80393-10.01538-3.16577-6.705-5.99472-13.5133-8.73138-20.37189-2.6969-6.86621-5.19034-13.79406-7.56909-20.771-2.36252-6.97925-4.48313-14.02521-6.54862-21.11176q-3.06326-10.6387-5.61444-21.48785c-.86493-3.61847-1.63791-7.28021-2.42657-10.975-.38483-1.85748-.76654-3.72235-1.12842-5.62567l-.53333-2.903c-.1752-1.05664-.3374-1.85839-.5177-3.32189Z" transform="translate(-4.70389 3.67809)"/></g><path class="cls-14" d="M496.74991,599.26892a14.451,14.451,0,0,0-.18533,1.812l-.13093,2.22589c-.07849,1.51477-.13446,3.06421-.18826,4.62055q-.12158,4.69189-.08078,9.46875c.03934,6.36126.24762,12.77759.61215,19.19128a346.78065,346.78065,0,0,0,4.33558,38.29865,276.32728,276.32728,0,0,0,8.89468,37.2257l1.4552,4.535,1.58478,4.46692.79376,2.24145.85974,2.1983,1.73846,4.40436,1.88642,4.31433.94635,2.16492,1.01538,2.11322,2.04639,4.23554,2.19775,4.12915,1.1048,2.07183c.37426.68616.78546,1.33759,1.17663,2.0102l2.37842,4.02368c.82593,1.3128,1.694,2.58783,2.54053,3.89258l1.27893,1.95306c.19061.30151.49683.71838.75043,1.08356l.79376,1.12793c4.3316,5.93426,8.16119,12.19885,11.98291,18.39386,1.82117,3.16089,3.68848,6.27868,5.36951,9.50219,1.76214,3.173,3.3814,6.41828,5.02258,9.63929,3.15375,6.51434,6.089,13.10229,8.71179,19.79522,2.60925,6.69776,4.92188,13.48981,6.86206,20.37116.50647,1.71283.96277,3.44025,1.40857,5.16864.46216,1.72284.89935,3.45123,1.2915,5.19134q.60609,2.60432,1.12623,5.22553.55059,2.61217,1.01123,5.24078c.65643,3.49286,1.19146,7.00745,1.63336,10.52918.23193,1.75818.41614,3.52514.60876,5.28528.14813,1.77081.33185,3.529.44293,5.30041a52.36349,52.36349,0,0,1,.0221,10.67066,35.70652,35.70652,0,0,1-1.02875,5.39617,23.5292,23.5292,0,0,1-2.13879,5.37494l-.99982.019c-4.24915-6.567-6.094-12.92109-7.78033-19.425-1.78528-6.45685-3.88349-12.80951-6.10584-19.07733a268.5503,268.5503,0,0,0-16.13458-36.15906q-4.71423-8.63452-10.10657-16.7934c-3.62878-5.41138-7.52661-10.61291-11.62012-15.61987-2.10333-2.46137-4.14135-4.96063-6.38989-7.28235l-3.30133-3.524-3.40866-3.41192-1.73718-1.75086-1.97635-2.03082c-1.3114-1.36066-2.65277-2.71094-3.94269-4.09632l-3.75088-4.24084c-.61963-.71246-1.26478-1.41376-1.86393-2.1391l-1.77615-2.19061-3.54422-4.40851-3.36343-4.51678-1.67435-2.272-1.59082-2.31061-3.17737-4.64251-3.01724-4.72-1.51142-2.36718-1.43325-2.39624-2.865-4.81037-2.71378-4.87194-1.35513-2.44446-1.28479-2.4657-2.56684-4.947c-1.60144-3.32581-3.2977-6.64911-4.80392-10.01532-3.16577-6.705-5.99472-13.51331-8.73139-20.37189-2.6969-6.86621-5.19033-13.79413-7.56909-20.77106-2.36252-6.97918-4.48312-14.02514-6.54861-21.11175q-3.06327-10.63862-5.61444-21.4878c-.86493-3.61846-1.63791-7.28021-2.42658-10.97509-.38482-1.85749-.76654-3.72229-1.12842-5.62567l-.53332-2.903c-.1752-1.05664-.3374-1.8584-.5177-3.3219Z" transform="translate(-4.70389 3.67809)"/><g class="cls-15"><g class="cls-3"><path class="cls-7" d="M521.69237,568.526c-.08368.45219-.13047,1.36934-.18639,2.10492l-.137,2.394-.20289,4.89734q-.13719,4.94076-.10607,9.92c.02258,6.63622.215,13.29077.56433,19.92451a372.50637,372.50637,0,0,0,4.29968,39.40026,278.36432,278.36432,0,0,0,8.813,38.13443l1.4583,4.63976,1.58716,4.57931c1.01979,3.08191,2.25285,6.04185,3.40984,9.06411a189.64162,189.64162,0,0,0,8.19134,17.44606c1.44545,2.8808,3.15686,5.57433,4.75965,8.36713.83676,1.36836,1.74174,2.6861,2.61022,4.03779l1.31642,2.01992,1.48311,2.21548,6.02589,9.00545,1.49361,2.24865,1.3469,2.32871,2.73375,4.62311c1.8138,3.08206,3.70345,6.11543,5.24015,9.32421l4.91447,9.44353,4.3582,9.6641,1.08454,2.41161c.34394.81111.64312,1.64131.96638,2.46058l1.9015,4.92707,1.895,4.91944,1.645,5.00985c1.08787,3.33981,2.24168,6.64885,3.07423,10.07l1.35773,5.08564.676,2.53969.56276,2.57619,1.07055,5.16174.5331,2.57679.4331,2.60621c.56353,3.47717,1.20673,6.92163,1.52389,10.45523l.5854,5.259.40438,5.29729c.14664,1.75885.26635,3.52593.2635,5.31942a37.59689,37.59689,0,0,1-.311,5.4333,36.64391,36.64391,0,0,1-1.11471,5.56639,26.61894,26.61894,0,0,1-2.26125,5.70185l-1.05461.154a41.28156,41.28156,0,0,1-5.10079-9.40637c-.61424-1.59-1.19635-3.18808-1.68-4.80124-.229-.80985-.467-1.61646-.66306-2.43228l-.69393-2.42459-1.40035-4.8348-1.57331-4.77994c-1.00756-3.192-2.21464-6.32185-3.30854-9.47454l-.8415-2.35692-.93917-2.32413-1.87407-4.64007-.90957-2.32467-1.01109-2.28728-2.01878-4.56742c-1.2835-3.065-2.84657-6.01592-4.28589-9.00749l-2.19194-4.46977-2.42683-4.3605-2.42023-4.35287c-.40841-.72225-.79246-1.45541-1.22009-2.16784l-1.33308-2.1126L557.697,786.282c-3.90111-5.42018-7.60547-10.92681-12.054-15.97455l-3.20493-3.85311-1.6225-1.90937-1.75928-1.8205-7.0206-7.25023-3.76935-3.8638c-1.31256-1.35307-2.67061-2.68993-3.94758-4.06756-2.46934-2.79225-5.07247-5.545-7.36278-8.44164-18.95943-22.97-32.29326-48.73023-43.278-75.176-2.71067-6.63291-5.20351-13.34021-7.56944-20.09893-2.35673-6.76029-4.46549-13.59957-6.56054-20.46422q-3.09661-10.31053-5.69058-20.83526c-.87739-3.50877-1.66683-7.05861-2.47082-10.63062l-1.15118-5.42551-.54423-2.78013c-.17742-.99181-.34568-1.802-.52247-3.08213Z" transform="translate(-4.70389 3.67809)"/></g></g><g class="cls-3"><path class="cls-4" d="M441.53946,609.59412l.05536-.36573.02221-.18353c.00486-.05127.02012-.1593.0033-.10657l-.12048.2096-.12757.21033a.92471.92471,0,0,0-.13739.27777l-.60373,1.63067-.58056,1.96979c-.19287.66644-.41171,1.30951-.56125,2.07141-.3157,1.48645-.70453,2.90216-.98511,4.46637l-.85571,4.71192c-.25229,1.60729-.45163,3.26434-.686,4.90216l-.34329,2.46954c-.09887.83331-.16342,1.6864-.24783,2.53039-.31467,3.38447-.70721,6.77631-.79929,10.27167a309.53394,309.53394,0,0,0,.93937,42.85132c1.41046,14.52637,3.30111,29.23016,6.2127,43.87012l2.12177,11.01019,2.5083,10.97461,1.258,5.50031,1.33609,5.6051c.95029,3.98449,1.99521,7.92505,2.84986,11.92169,1.7128,7.98981,3.34579,15.97259,4.609,24.0191l.93982,6.02875c.29818,2.01087.51449,4.03845.79736,6.04895.25427,2.01672.56158,4.02026.7688,6.04224l.62018,6.05957a323.52466,323.52466,0,0,1,1.07006,48.50738c-.47454,8.06067-1.30545,16.085-2.40292,24.05347-1.14725,7.967-2.73007,15.85925-4.57669,23.66315a226.32393,226.32393,0,0,1-6.83423,23.04181c-.69888,1.88189-1.3598,3.76519-2.10419,5.62951a36.43164,36.43164,0,0,1-2.52575,5.48615,29.96034,29.96034,0,0,1-3.6868,5.055,20.80877,20.80877,0,0,1-5.29514,4.28894l-.91189-.4104a32.07355,32.07355,0,0,1-1.07144-6.5083,40.19318,40.19318,0,0,1,.04406-5.92364,48.96922,48.96922,0,0,1,.8252-5.61445c.36038-1.84027.64108-3.7069.95676-5.55462,1.14761-7.43384,1.96753-14.90265,2.5216-22.37018a308.73892,308.73892,0,0,0-.06555-44.68866,293.21632,293.21632,0,0,0-19.5394-86.00195c-1.32235-3.4209-2.82721-6.7829-4.222-10.16413l-4.571-10.9519-4.64941-11.085-4.29459-11.27637c-2.95608-7.49121-5.5173-15.17853-8.18054-22.85876-1.38357-3.81879-2.50061-7.75177-3.7157-11.65479l-1.79474-5.872c-.60522-1.95624-1.20318-3.91864-1.72143-5.9162l-3.23828-11.96161c-1.03781-4.01293-1.91034-8.10119-2.86927-12.16644-.99292-4.04944-1.74111-8.21844-2.56344-12.36462-.388-2.08338-.84586-4.1402-1.17307-6.255l-.99087-6.35058c-1.35959-8.46448-2.29465-17.19886-2.89267-26.18323l-.27384-6.86945c-.08532-2.29614-.02822-4.72332-.03564-7.08941-.01007-1.16657.04037-2.438.08868-3.689l.15989-3.78052.34115-4.08978c.02121-.31445.08243-.74811.13327-1.146l.161-1.21014.16812-1.21088c.0055-.066.051-.29107.08332-.4599l.106-.53613.22308-1.07074Z" transform="translate(-4.70389 3.67809)"/></g><path class="cls-16" d="M456.80569,600.16l.05536-.36572.02222-.18353c.00485-.05127.02011-.1593.0033-.10657l-.12049.2096-.12753.21032a.9239.9239,0,0,0-.13742.27777l-.60373,1.63068-.58057,1.96979c-.19287.66644-.41171,1.30951-.56125,2.07141-.3157,1.48645-.70452,2.90216-.9851,4.46637l-.85572,4.71191c-.25228,1.6073-.45163,3.26435-.686,4.90216l-.34329,2.46955c-.09888.83331-.16342,1.6864-.24784,2.53039-.31466,3.38446-.70721,6.77625-.79928,10.27161a309.5347,309.5347,0,0,0,.93939,42.85138c1.41043,14.52636,3.30109,29.23016,6.21268,43.87011l2.12176,11.0102,2.5083,10.97461,1.258,5.5003,1.33609,5.6051c.95029,3.98444,1.99521,7.925,2.84985,11.9217,1.7128,7.9898,3.34583,15.97259,4.609,24.019l.93985,6.02881c.29816,2.01086.51447,4.03845.79733,6.04895.25428,2.01672.56159,4.02026.76883,6.04223l.62015,6.05957a323.52483,323.52483,0,0,1,1.07007,48.50739c-.47455,8.06067-1.30545,16.085-2.40292,24.05347-1.14725,7.967-2.73008,15.85925-4.57669,23.66314a226.3299,226.3299,0,0,1-6.8342,23.04181c-.69892,1.8819-1.35984,3.7652-2.10422,5.62952a36.4306,36.4306,0,0,1-2.52576,5.48614,29.957,29.957,0,0,1-3.68679,5.055,20.80933,20.80933,0,0,1-5.29514,4.289l-.9119-.4104a32.07424,32.07424,0,0,1-1.07144-6.5083,40.19192,40.19192,0,0,1,.04407-5.92365,48.965,48.965,0,0,1,.8252-5.61444c.36038-1.84027.64108-3.70691.95675-5.55469,1.14762-7.43383,1.96753-14.90264,2.52161-22.37011a308.73606,308.73606,0,0,0-.06555-44.68866,293.21619,293.21619,0,0,0-19.5394-86.002c-1.32236-3.42089-2.82721-6.78289-4.222-10.16412l-4.571-10.9519-4.64942-11.085-4.29455-11.27643c-2.95612-7.49121-5.51733-15.17847-8.18057-22.85871-1.38358-3.81878-2.50061-7.75177-3.7157-11.65478l-1.79474-5.872c-.60519-1.95624-1.20316-3.91864-1.72144-5.9162l-3.23828-11.96161c-1.03781-4.01294-1.91034-8.10119-2.86926-12.16644-.99292-4.04944-1.74112-8.21845-2.56345-12.36463-.388-2.08337-.84585-4.14019-1.17306-6.25506l-.99088-6.35053c-1.35958-8.46453-2.29464-17.19885-2.89267-26.18322l-.27383-6.86945c-.08533-2.29614-.02823-4.72333-.03564-7.08942-.01008-1.16656.04037-2.438.08868-3.689l.15988-3.78052.34116-4.08978c.02121-.31446.08242-.74811.13327-1.146l.161-1.21014.16812-1.21088c.00549-.066.051-.29108.08331-.4599l.106-.53613.22308-1.07074Z" transform="translate(-4.70389 3.67809)"/><g class="cls-17"><g class="cls-3"><path class="cls-7" d="M482.10906,566.43123l.02126-.23267.00555-.11606.0015-.05788-.01759.03851-.14977.33792-.156.33964-.08035.17055-.0822.24735-.67707,2.0199-.63174,2.30018-.32257,1.15492-.2753,1.22482-.54016,2.46538-.2739,1.23623-.22656,1.27834-.90724,5.14388-.71,5.27625-.35184,2.65026-.25387,2.68495-.516,5.38578c-.17429,1.80047-.21407,3.61984-.31806,5.43129a332.35941,332.35941,0,0,0,.79261,44.02162c1.32641,14.71411,3.1367,29.48788,5.89414,44.1075l2.03334,10.98645c.72836,3.65389,1.58391,7.27964,2.37043,10.92686q1.18992,5.46967,2.45319,10.92582l2.69661,11.50535,2.35059,11.59986c.68249,3.89477,1.44376,7.75787,2.0513,11.6638.55582,3.92206,1.22549,7.80263,1.67809,11.7433.49522,3.92792,1.02578,7.84016,1.35952,11.801l.55858,5.92035.399,5.95225c.31645,3.95308.37414,7.9615.55065,11.93525.15219,7.99179.16044,15.993-.28616,24.048a274.55626,274.55626,0,0,1-6.72084,48.46634,238.65717,238.65717,0,0,1-6.93277,24.15912c-.67711,2.0035-1.42311,4.00539-2.15854,6.0028a42.99931,42.99931,0,0,1-2.6443,5.95766,39.19447,39.19447,0,0,1-3.89577,5.79739,29.9178,29.9178,0,0,1-5.67029,5.43173l-.9812-.188a26.54445,26.54445,0,0,1-1.14652-6.19133,37.93272,37.93272,0,0,1,.02035-5.90278,51.14712,51.14712,0,0,1,.85148-5.78083c.33547-1.92154.68087-3.8388.95944-5.76022,1.15543-7.68105,1.94786-15.34412,2.43953-22.97074.51875-7.62862.61069-15.21308.52215-22.75293-.04034-1.88418-.0334-3.76969-.11133-5.64719l-.2344-5.62665c-.08865-1.87264-.24586-3.7372-.36462-5.60333l-.18355-2.79776-.24848-2.78827c-.57823-7.44306-1.60677-14.80209-2.73034-22.11622-.66555-3.63959-1.206-7.29624-2.0009-10.89938l-1.11161-5.4153-1.26352-5.37507c-1.66014-7.16658-3.6846-14.23-5.92434-21.20787-1.11307-3.491-2.37484-6.9365-3.54936-10.39882-1.25757-3.43971-2.65821-6.82962-3.97411-10.238l-8.89652-20.77964c-1.52032-3.56594-3.10775-7.10813-4.57438-10.70465l-4.25709-10.8628c-2.93248-7.21085-5.43233-14.6215-8.09584-21.98853-1.37542-3.66546-2.4654-7.45174-3.68283-11.19258l-1.78517-5.63208c-.60265-1.87536-1.19579-3.75694-1.71372-5.67183l-3.23283-11.4564c-1.05063-3.83645-1.91635-7.75618-2.8808-11.64288-.99179-3.87321-1.77538-7.85112-2.59423-11.81843-.39978-1.98845-.83757-3.962-1.20378-5.96969l-1.00943-6.07056c-.31855-2.03407-.70163-4.03923-.98474-6.10161l-.8163-6.207-.404-3.11141-.3-3.17392-.56893-6.37729-.32107-6.55947-.07205-1.64821-.0141-1.69929-.02052-3.40572-.00812-1.71116.05057-1.78728.11471-3.58436.29224-3.8717.04063-.48912.06934-.56608.14335-1.13359.14954-1.1353.02-.1456.04526-.24192.09312-.4841.1963-.96877Z" transform="translate(-4.70389 3.67809)"/></g></g><g class="cls-3"><path class="cls-4" d="M527.09839,592.98865l.20953.534.09491.24878.04956.14612.1969.58454c.14221.415.23816.73553.33423,1.05651.20178.66138.39258,1.30884.54535,1.8888.343,1.22259.614,2.34894.89294,3.49054l.74707,3.33386.64258,3.25293c.80463,4.29407,1.432,8.484,1.943,12.65131a226.10543,226.10543,0,0,1,1.50512,24.58892c.03632,8.09681-.27173,16.10059-1.00049,24.01447-.75549,7.91107-1.8742,15.7168-3.2716,23.4162-5.77564,30.80334-16.99768,59.54681-31.51874,85.594l-10.62708,18.16028c-1.47329,2.89221-3.00729,5.78839-4.41714,8.72015l-1.95538,4.44959-.98392,2.22925c-.317.74511-.56992,1.50482-.85712,2.25787l-1.68582,4.5332c-.30365.7533-.52722,1.51868-.75339,2.28522l-.693,2.29791-.69763,2.30024-.34891,1.15118-.2807,1.15765-1.13595,4.63709a23.40936,23.40936,0,0,0-.486,2.327l-.41873,2.33338c-.28384,1.55639-.59122,3.11493-.73917,4.67358-.18161,1.55866-.39868,3.121-.5628,4.68256l-.31467,4.67944a99.2031,99.2031,0,0,0,5.078,36.6803l.7759,2.2135c.26386.73718.57135,1.45514.85434,2.18744.54822,1.47516,1.20554,2.89954,1.86072,4.33465.63635,1.44623,1.37854,2.83735,2.07169,4.27021.77646,1.37542,1.49475,2.80713,2.34591,4.149a67.94435,67.94435,0,0,1,4.47431,8.8042c.666,1.60572,1.31753,3.26313,1.90512,5.07935a57.33647,57.33647,0,0,1,1.64322,5.93457l-.569.82239a23.563,23.563,0,0,1-12.1435-2.995,31.825,31.825,0,0,1-9.15188-7.23572,91.09892,91.09892,0,0,1-13.26093-19.14556,95.38039,95.38039,0,0,1-8.17917-22.04664,111.68061,111.68061,0,0,1-2.90106-23.29571l-.00842-5.84674c.07339-1.93939.20709-3.8714.31409-5.81067.07443-1.94775.3121-3.85846.53384-5.77588.24378-1.90991.388-3.85547.71973-5.74152l.93747-5.68743.23767-1.42353.30392-1.39911.6145-2.799c.42762-1.85858.78913-3.75354,1.279-5.58648l1.46386-5.51539.74509-2.75708.83972-2.7102,1.69193-5.42932c1.17041-3.59516,2.49841-7.1142,3.73242-10.69849l4.12094-10.46692,3.5184-9.328a232.60567,232.60567,0,0,0,10.1593-37.91656c1.18161-6.35956,1.93488-12.75007,2.55094-19.09357.2138-3.18366.4798-6.35126.52911-9.52106.03433-1.58374.1276-3.15961.11792-4.738l-.014-4.72168a170.05226,170.05226,0,0,0-4.417-36.67187,140.57166,140.57166,0,0,0-5.12649-16.98444c-1.04425-2.67846-2.11417-5.30328-3.28479-7.747l-.89209-1.78375-.90125-1.66669c-.29956-.51538-.59759-1.04949-.87808-1.46777a5.22851,5.22851,0,0,0-.39548-.56988c-.06345-.08777-.127-.17609-.15481-.16559l-.05405-.02387-.01312-.006.03015.09747.07943.23175Z" transform="translate(-4.70389 3.67809)"/></g><path class="cls-18" d="M542.36462,583.5545l.20954.534.09491.24878.04956.14606.1969.58459c.14221.415.23816.73548.33423,1.05652.20178.66138.39257,1.30884.54534,1.88879.343,1.2226.614,2.34894.89295,3.49054l.74707,3.33387.64258,3.25293c.80462,4.294,1.432,8.48394,1.943,12.6513a226.088,226.088,0,0,1,1.50513,24.58893c.03631,8.0968-.27173,16.10053-1.00049,24.0144-.75549,7.91114-1.87421,15.71686-3.27161,23.41626-5.77563,30.80335-16.99768,59.54682-31.51873,85.594l-10.62708,18.16028c-1.4733,2.89221-3.00726,5.78839-4.41714,8.72015l-1.95539,4.44959-.98392,2.22924c-.317.74512-.56991,1.50483-.85711,2.25788l-1.68582,4.5332c-.30365.7533-.52723,1.51868-.75339,2.28522l-.693,2.29791-.69764,2.30023-.34887,1.15119-.28073,1.15765-1.136,4.63709a23.40515,23.40515,0,0,0-.486,2.327l-.41873,2.33337c-.28385,1.5564-.59122,3.11493-.73917,4.67359-.18161,1.55865-.39868,3.121-.56281,4.68249l-.31466,4.67951a99.20336,99.20336,0,0,0,5.078,36.68023l.77594,2.21357c.26383.73718.57132,1.45514.85431,2.18744.54822,1.47515,1.20554,2.89953,1.86072,4.33465.63635,1.44623,1.37854,2.83734,2.07168,4.2702.77646,1.37543,1.49475,2.80713,2.34595,4.149a67.94612,67.94612,0,0,1,4.47427,8.8042c.666,1.60571,1.31754,3.26306,1.90513,5.07935a57.33337,57.33337,0,0,1,1.64321,5.93457l-.569.82238a23.56353,23.56353,0,0,1-12.14349-2.995,31.82555,31.82555,0,0,1-9.15189-7.23572,91.0996,91.0996,0,0,1-13.26092-19.14563,95.38088,95.38088,0,0,1-8.17917-22.04657,111.68,111.68,0,0,1-2.90106-23.29571l-.00842-5.84674c.07339-1.9394.20709-3.8714.31408-5.81067.07443-1.94782.31211-3.85852.53385-5.77588.24377-1.91.388-3.85547.71972-5.74152l.93747-5.68744.23767-1.42352.30393-1.39917.6145-2.79895c.42761-1.85858.78912-3.75354,1.279-5.58649l1.46387-5.51538.74512-2.75708.83972-2.7102,1.69189-5.42932c1.17041-3.59516,2.49842-7.1142,3.73242-10.69855l4.12095-10.46692,3.5184-9.32794a232.60659,232.60659,0,0,0,10.1593-37.91663c1.18161-6.3595,1.93488-12.75006,2.55093-19.0935.21381-3.18366.4798-6.35126.52912-9.52106.03433-1.58374.12759-3.15961.11792-4.738l-.014-4.72168a170.05226,170.05226,0,0,0-4.417-36.67187,140.56841,140.56841,0,0,0-5.1265-16.98444c-1.04425-2.67847-2.11417-5.30328-3.28479-7.747l-.89209-1.78375-.90121-1.66669c-.29959-.51538-.59763-1.0495-.87812-1.46777a5.22424,5.22424,0,0,0-.39547-.56989c-.06342-.08777-.127-.17608-.15482-.16559l-.05405-.02386-.01312-.006.03015.09747.07944.23175Z" transform="translate(-4.70389 3.67809)"/><g class="cls-19"><g class="cls-3"><path class="cls-7" d="M568.2459,556.79123l.14571.39186.07089.19416.03734.119.14822.4761.1449.47254.11554.4162.43311,1.62858c.27093,1.05664.5,2.06987.71955,3.07359.43682,2.00807.80433,3.96768,1.1357,5.91685.65383,3.89,1.21256,7.72342,1.606,11.55389a218.23631,218.23631,0,0,1,1.22488,22.88414,253.6499,253.6499,0,0,1-4.0985,45.605c-1.40712,7.57321-3.05395,15.11916-5.14349,22.62352-.93414,3.75168-2.15374,7.49124-3.24761,11.22-.58454,1.86357-1.23649,3.72237-1.8526,5.57941-.63206,1.8564-1.22149,3.71241-1.93932,5.55812a318.5832,318.5832,0,0,1-19.68988,43.43745c-1.95691,3.512-4.02945,7.03787-6.006,10.48366l-2.67423,4.65991L528.04,755.42227c-.45688.77862-.89133,1.5601-1.27782,2.3469a155.38,155.38,0,0,0-8.5439,19.06023,120.27888,120.27888,0,0,0-7.69516,38.53782l-.04873,4.754.2156,4.7107c.22875,3.12284.512,6.244,1.00761,9.31527a102.4779,102.4779,0,0,0,4.44869,18.0826,93.1144,93.1144,0,0,0,7.83334,17.05433,55.352,55.352,0,0,1,4.22022,8.68831,49.74653,49.74653,0,0,1,1.59812,4.91866,39.99364,39.99364,0,0,1,1.12556,5.63907l-.74646.713a29.338,29.338,0,0,1-12.95782-3.44013,31.5679,31.5679,0,0,1-9.13778-6.99426,94.105,94.105,0,0,1-6.98558-8.52761c-1.01328-1.50927-2.12-2.98247-3.04428-4.54391-.965-1.54308-1.942-3.0876-2.76389-4.70215A95.22616,95.22616,0,0,1,483.949,819.14c-.64972-14.78984,1.432-29.92891,5.42258-44.81752.52059-1.85918.93964-3.7378,1.50771-5.5912l1.74-5.56093.85268-2.78878.98457-2.761,1.97323-5.53373c1.33751-3.68557,2.91183-7.316,4.33835-10.99985,1.27808-3.32612,2.56821-6.55026,3.78591-9.82632,9.51852-26.1547,14.09788-52.56627,13.28453-77.83371a167.29974,167.29974,0,0,0-1.54682-18.69556,157.23616,157.23616,0,0,0-3.48412-18.06964,141.20178,141.20178,0,0,0-5.47138-17.13447c-1.07874-2.74856-2.24193-5.42276-3.48288-7.98326-.63064-1.27149-1.27692-2.51559-1.93346-3.68332-.329-.58349-.65633-1.15465-.98056-1.66815-.16457-.2812-.31719-.49482-.47-.7225l-.11428-.17011-.09452-.10988-.09184-.10613-.02274-.02655.00866.04947.02125.10261Z" transform="translate(-4.70389 3.67809)"/></g></g><g class="cls-3"><path class="cls-4" d="M607.213,547.9491l.00312.26288.00012.13317c.004.05274.03711.16217.05426.24054l.25006,1.03095.255,1.033.3252,1.11273c.45093,1.49823.84686,2.97717,1.37933,4.53058.50208,1.54211,1.01221,3.07464,1.54895,4.61914l1.71613,4.65246.8612,2.33594.93549,2.32746,1.90607,4.65386c1.28112,3.10553,2.72912,6.16083,4.09185,9.26478,1.35853,3.10919,2.92481,6.12457,4.42511,9.18286,1.47522,3.07769,3.12262,6.05944,4.748,9.06958,3.15332,6.09185,6.74194,11.92456,10.28,17.84619a350.68711,350.68711,0,0,0,52.05414,64.85815c1.21,1.28107,2.53149,2.41883,3.82275,3.60071l3.89258,3.53357,7.81726,7.101c2.821,2.4596,5.69135,4.87976,8.49225,7.35956,2.77917,2.52576,5.60309,4.9646,8.32037,7.54932,2.735,2.56067,5.468,5.10382,8.11963,7.75213,2.68817,2.59644,5.29907,5.28052,7.90717,7.95942,5.15948,5.41778,10.18365,10.96423,14.90545,16.78216a174.69008,174.69008,0,0,1,24.18714,37.83728,118.84321,118.84321,0,0,1,7.49157,21.27448,91.432,91.432,0,0,1,1.97059,11.14074,27.12231,27.12231,0,0,1-.09076,5.71985,19.951,19.951,0,0,1-.55841,2.87085,13.55793,13.55793,0,0,1-1.06659,2.83069l-.99866-.052a70.09134,70.09134,0,0,1-3.88733-10.14289,104.18428,104.18428,0,0,0-3.27881-9.91186c-1.28247-3.24255-2.66986-6.43658-4.22265-9.55762-.74372-1.572-1.58362-3.10583-2.37116-4.65381-.866-1.517-1.682-3.05163-2.58087-4.54608a175.89694,175.89694,0,0,0-25.55774-33.06421c-2.413-2.5296-4.96765-4.93469-7.50031-7.3479-1.27978-1.1936-2.62817-2.32513-3.93579-3.48913-1.31475-1.1579-2.62182-2.31995-3.99408-3.41962l-4.06-3.34314c-1.37256-1.09119-2.79724-2.12854-4.19013-3.19379-2.75866-2.1607-5.68835-4.126-8.55981-6.14074-1.41968-1.02558-2.9176-1.9585-4.397-2.91022l-4.43408-2.84753c-3.01172-1.82953-6.05133-3.58783-9.08185-5.38544l-9.61737-5.83527-4.82476-2.93457c-1.60529-.9859-3.24561-1.93268-4.77289-3.02264a469.72972,469.72972,0,0,1-70.96112-57.25635c-5.32209-5.52136-10.885-10.91211-16.05744-16.66589-2.62964-2.84339-5.28894-5.67884-7.79388-8.64752l-3.82922-4.41065c-1.29273-1.4624-2.5813-2.93213-3.81092-4.45294-2.47571-3.03015-5.02759-6.00971-7.45227-9.11981l-3.64673-4.67322-1.84088-2.33612-1.79309-2.39813-3.58826-4.81818-3.53479-4.97144c-1.19122-1.62866-2.35949-3.41363-3.537-5.14642l-.88312-1.31708-.90491-1.42041-.90991-1.42236-.23425-.37347-.27863-.4853-.55444-.97418Z" transform="translate(-4.70389 3.67809)"/></g><path class="cls-20" d="M630.71875,535.79425l.00317.26288.00013.13318c.004.05273.03711.16217.0542.24054l.25006,1.03094.255,1.033.3252,1.11267c.45092,1.49829.84686,2.97724,1.37939,4.53064.502,1.54212,1.01221,3.07465,1.54889,4.61914l1.71613,4.65247.86126,2.33594.93549,2.32745,1.906,4.65387c1.28119,3.10553,2.72919,6.16083,4.09186,9.26477,1.35858,3.10913,2.92487,6.12457,4.42511,9.18286,1.47528,3.0777,3.12262,6.05945,4.748,9.06958,3.15332,6.09186,6.74194,11.9245,10.28009,17.84619a350.68594,350.68594,0,0,0,52.05408,64.85816c1.21,1.28106,2.53149,2.41882,3.82281,3.6007l3.89252,3.53357,7.81726,7.101c2.821,2.45959,5.69134,4.87976,8.49225,7.35955,2.77917,2.52576,5.60315,4.9646,8.32043,7.54932,2.735,2.56067,5.468,5.10382,8.11957,7.75208,2.68817,2.59649,5.29913,5.28058,7.90716,7.95947,5.15955,5.41778,10.18366,10.96417,14.90546,16.78216a174.69053,174.69053,0,0,1,24.18714,37.83729,118.843,118.843,0,0,1,7.49157,21.27441,91.42184,91.42184,0,0,1,1.97064,11.14081,27.121,27.121,0,0,1-.09076,5.71985,19.96217,19.96217,0,0,1-.55841,2.87078,13.55826,13.55826,0,0,1-1.06665,2.83069l-.99865-.05194a70.09963,70.09963,0,0,1-3.88727-10.14288,104.20184,104.20184,0,0,0-3.27887-9.91187c-1.28241-3.24255-2.66986-6.43658-4.22266-9.55761-.74371-1.572-1.58355-3.10584-2.37115-4.65381-.866-1.517-1.682-3.0517-2.58081-4.54608a175.89725,175.89725,0,0,0-25.5578-33.06421c-2.413-2.5296-4.96759-4.9347-7.50031-7.3479-1.27972-1.19361-2.62811-2.32514-3.93579-3.48914-1.31476-1.1579-2.62183-2.31995-3.99408-3.41962l-4.06-3.34314c-1.37249-1.09118-2.79724-2.12854-4.19012-3.19378-2.75861-2.16071-5.68836-4.126-8.55975-6.14075-1.41974-1.02557-2.91761-1.9585-4.397-2.91022l-4.434-2.84753c-3.01172-1.82953-6.05133-3.58783-9.08191-5.38544l-9.61731-5.83526-4.82477-2.93457c-1.60534-.9859-3.24566-1.93268-4.77294-3.02271a469.72619,469.72619,0,0,1-70.96113-57.25629c-5.322-5.52136-10.88494-10.91211-16.05737-16.66589-2.6297-2.84338-5.289-5.67883-7.79394-8.64752l-3.82923-4.41065c-1.29272-1.4624-2.5813-2.93212-3.81085-4.45294-2.47571-3.03015-5.02765-6.00976-7.45233-9.11981l-3.64673-4.67328-1.84088-2.33612-1.79309-2.39807-3.5882-4.81818-3.53485-4.97143c-1.19116-1.62866-2.3595-3.41364-3.537-5.14643l-.88311-1.31707-.90491-1.42041-.90985-1.42237-.23425-.37347-.27869-.48535-.55444-.97418Z" transform="translate(-4.70389 3.67809)"/><g class="cls-21"><g class="cls-3"><path class="cls-7" d="M648.3812,511.66576l.04934.38875a2.58845,2.58845,0,0,0,.08081.45391l.26452,1.10277c.17035.73142.35958,1.46637.59184,2.25035.45433,1.545.84211,3.0757,1.3615,4.649l1.51044,4.69333,1.67214,4.69754c2.22152,6.28577,4.83123,12.49009,7.55385,18.67324,1.30024,3.12155,2.8152,6.15105,4.28785,9.20634l2.228,4.58167,2.38088,4.51175,2.38544,4.52331,1.19456,2.266,1.2687,2.22458,5.19132,8.86239c.84423,1.49561,1.80519,2.91672,2.726,4.36664l2.7867,4.34071c1.864,2.89428,3.68178,5.83064,5.71958,8.62149,1.97277,2.83647,4.01784,5.6332,6.0345,8.4582.9858,1.42978,2.07711,2.7822,3.1552,4.14705l3.23368,4.1024a322.68583,322.68583,0,0,0,28.149,31.49789c.6311.62849,1.23928,1.27887,1.89,1.89054l1.989,1.80312,3.984,3.61321,7.99355,7.25418,8.5158,7.55977,4.27732,3.73784c.70723.627,1.43433,1.23456,2.12382,1.877l2.02,1.97208,8.10837,7.82757c1.35133,1.30025,2.743,2.56352,3.97136,3.9651l3.83892,4.06945,3.83,4.06454,1.9117,2.03037c.63744.67611,1.19341,1.41556,1.79354,2.11988l7.14783,8.478c9.08678,11.58215,17.20712,23.81293,23.0757,37.08139.71216,1.66728,1.50545,3.29284,2.14576,4.98908l1.84811,5.1144.89786,2.56082.7259,2.62977c.46809,1.7574.99644,3.48763,1.40868,5.25884l1.06089,5.36733c.20213.88286.26864,1.814.40567,2.71789q.19,1.36241.33117,2.73341a22.71232,22.71232,0,0,1-1.90229,11.49411l-1.05368.10281a27.35506,27.35506,0,0,1-1.23844-2.46124,23.87131,23.87131,0,0,1-1.06128-2.447c-.32829-.81316-.6626-1.62769-.94908-2.444-.29322-.817-.49651-1.64592-.80111-2.45983-.55957-1.63556-.93913-3.30859-1.51724-4.93088l-1.76415-4.848c-.63583-1.5981-1.35546-3.16983-2.02577-4.75132l-1.02035-2.36551-1.179-2.30768-2.31709-4.61818c-.79327-1.5284-1.74145-2.99422-2.60178-4.49144l-2.64868-4.45719-2.91512-4.32841-2.89805-4.325-3.22063-4.15429-3.21159-4.14824-.802-1.03581-.88181-.99128-1.76186-1.98162-3.5172-3.9594c-1.19821-1.30236-2.28-2.67372-3.60378-3.89615l-7.63177-7.50465c-.65317-.61185-1.25846-1.2553-1.95009-1.84047l-2.07143-1.75645-4.1361-3.50918c-5.31551-4.8185-11.48062-8.979-17.383-13.29174l-2.23457-1.5992c-.768-.51386-1.57628-.99509-2.36172-1.49387l-4.73889-2.96475-9.51649-5.84542-10.054-6.13716-5.03992-3.08236-2.523-1.54464c-.82867-.52569-1.61276-1.08876-2.42191-1.63185l-9.6924-6.56127-4.85913-3.29354-4.64833-3.46876-9.3663-6.928c-1.59351-1.13668-3.06927-2.35909-4.56492-3.56987l-4.49169-3.636-4.498-3.64593c-1.50171-1.21607-3.01938-2.42394-4.42785-3.70652-2.87877-2.524-5.72905-5.07626-8.65152-7.58881-2.9619-2.48867-5.70217-5.12621-8.498-7.738l-4.1896-3.92737c-1.38989-1.31544-2.823-2.60709-4.13752-3.97255l-8.07053-8.1091-2.031-2.02772-1.9586-2.07395L622.541,594.5895l-3.9254-4.168-3.784-4.26543c-2.48877-2.8683-5.12381-5.66-7.54419-8.59258-4.97788-5.78495-9.76165-11.714-14.49366-17.77861l-3.52-4.57649-3.44667-4.69288c-1.16884-1.53894-2.28893-3.20333-3.43376-4.81149-.57007-.79156-1.13731-1.65244-1.7169-2.51973l-.86778-1.2921c-.136-.19295-.30545-.47408-.47184-.74923l-.4946-.81822Z" transform="translate(-4.70389 3.67809)"/></g></g></g><g id="New_Body" data-name="New Body"><path class="cls-22" d="M703.8082,264.88352C772.90493,389.207,684.96339,566.11774,547.2269,617.9051S251.52526,586.83915,205.02026,452.42217C167.06,342.70266,218.46312,147.73726,354.58494,93.14146,474.98182,44.85256,651.60618,170.9581,703.8082,264.88352Z" transform="translate(-4.70389 3.67809)"/></g><g id="New_Poles" data-name="New Poles"><g class="cls-23"><path class="cls-24" d="M589.98808,43.9547c-.12749,28.29429-114.69091,66.91475-194.29166,129.1847-121.50241,95.04874-233.287,47.67857-233.29769,3.18381C162.39,139.89494,238.61486,83.69105,356.69039,47.1385S590.15219,7.52673,589.98808,43.9547Z" transform="translate(-4.70389 3.67809)"/><path class="cls-25" d="M577.71661,22.14772C577.58912,50.442,463.0257,89.06247,383.425,151.33242c-121.50241,95.04874-233.287,47.67856-233.29768,3.18381-.00873-36.42827,76.21612-92.63216,194.29165-129.18471S577.88073-14.28025,577.71661,22.14772Z" transform="translate(-4.70389 3.67809)"/><path class="cls-26" d="M323.70548,668.43591c-20.01958,1.87311-28.67048-24.75413-11.34889-34.96464,68.04372-40.10954,146.89-72.66386,179.82679-105.95744,34.58194-34.95657,164.5997-51.821,293.80948-79.162,20.19739-4.27378,31.60732,22.31093,14.56632,33.96444L564.86361,643.497a18.83433,18.83433,0,0,1-8.87709,3.20572Z" transform="translate(-4.70389 3.67809)"/><path class="cls-27" d="M357.16073,692.65555c-19.03045.9179-28.70228-27.61029-12.69-37.46024,62.90055-38.69316,136.52213-68.851,166.2367-102.21178,31.1988-35.02709,154.54453-45.94283,276.56519-67.9459,19.07362-3.4394,31.37954,25.1896,15.71152,36.57562L586.2783,679.09444a15.31866,15.31866,0,0,1-8.31311,2.911Z" transform="translate(-4.70389 3.67809)"/></g></g><g id="New_Shade" data-name="New Shade"><path class="cls-28" d="M265.49418,257.42919c2.81881,1.31092,5.82363,2.55123,7.81,4.94262,2.0281,2.44171,2.68117,5.70747,4.00071,8.59433,7.7234,16.89706,33.62151,15.3872,46.06982,29.17854,4.39868,4.87325,6.72843,11.30127,10.9352,16.3411s11.82659,8.49279,17.29,4.853c7.10782,21.387,32.18433,34.97159,53.98132,29.24311,3.33549,11.66908,12.96945,20.31593,22.462,27.878q9.70622,7.73228,19.84172,14.90417c15.485,10.95682,33.92478,21.33647,52.44153,17.2175,4.1046-.913,8.51752-2.502,12.33807-.74566,2.4952,1.147,4.16961,3.50451,5.85058,5.67617,16.35715,21.132,44.54864,32.42424,70.97108,28.42792,7.55808-1.14314,15.33413-3.425,22.685-1.32824,3.88141,1.10712,7.3277,3.36946,11.0984,4.80922,13.365,5.10312,30.15722-2.24673,35.47568-15.5275l25.458-4.08793,3.102,7.70639c4.89089-1.30191,21.09151,6.38713,25.68519,8.51171-3.88587,35.36433-28.42485,67.34006-54.19864,93.57586-14.878,15.14467-32.54555,32.4781-49.00475,45.88744-36.27437,29.55274-93.11607,49.26506-143.25521,49.81431-44.08194.48284-78.07751-4.47863-118.46673-24.72037-30.383-15.227-37.285-16.389-82.7162-59.62706-14.16993-13.48586-34.34-34.941-41.40922-53.18059-7.952-20.5174-19.258-37.46845-23.44939-59.36972-6.17827-32.28316-11.7593-40.45374-5.56783-120.4083,1.09483-14.13814,4.2813-16.49275,13.5086-48.817,1.59023-5.57075,1.19993-11.30293,11.39548-29.64316a211.14068,211.14068,0,0,0,9.9293-21.30347c1.60506-3.90545-1.29512,8.07536,1.19664,11.72249a87.24725,87.24725,0,0,0,10.06048,12.1844A85.17481,85.17481,0,0,0,265.49418,257.42919Z" transform="translate(-4.70389 3.67809)"/><g class="cls-29"><path class="cls-30" d="M574.77082,605.56259A246.67417,246.67417,0,0,1,547.223,617.90738C409.487,669.69455,251.52435,586.84686,205.02087,452.4233c-37.96265-109.719,13.44157-304.68273,149.56458-359.28224A144.49983,144.49983,0,0,1,384.66367,84.77C268.265,152.30528,225.87939,328.88928,261.304,431.26147,304.6018,556.42048,444.52407,636.86338,574.77082,605.56259Z" transform="translate(-4.70389 3.67809)"/></g><g class="cls-31"><path class="cls-32" d="M545.47147,618.56566a242.54038,242.54038,0,0,1-29.49121,8.99444c121.05081-63.68635,192.54517-224.70927,128.30641-340.29619C596.38079,201.0801,443.72643,87.79712,325.87325,107.02366a202.82671,202.82671,0,0,1,26.95137-13.22082C473.22159,45.51143,649.843,171.62015,702.04871,265.546,771.1441,389.8729,683.20751,566.77846,545.47147,618.56566Z" transform="translate(-4.70389 3.67809)"/></g></g><g id="New_Detail" data-name="New Detail"><path class="cls-33" d="M683.06244,343.85435c11.09868,6.96925-.90474,28.58543-13.86017,30.56252-9.56672,1.45994-24.99613-3.30072-30.56256-13.86007-4.49523-8.52739,3.08612-27.6945,13.86014-30.56259C659.75466,328.063,672.1598,337.00823,683.06244,343.85435Z" transform="translate(-4.70389 3.67809)"/><path class="cls-33" d="M500.47275,427.65907c4.21677,2.64786-.34374,10.86059-5.266,11.61176-3.63472.55468-9.49689-1.25406-11.61177-5.26592-1.70789-3.23985,1.17253-10.5221,5.266-11.61178C491.61732,421.65939,496.33046,425.058,500.47275,427.65907Z" transform="translate(-4.70389 3.67809)"/><path class="cls-34" d="M598.4568,192.54668c2.60616.63939-1.49654,4.6675-4.9841,5.55821-2.57534.65772-6.41549.56663-7.41144-.89763-.80428-1.18249,2.02987-4.61935,4.98411-5.55822C593.03464,191.01685,595.89668,191.91859,598.4568,192.54668Z" transform="translate(-4.70389 3.67809)"/><path class="cls-35" d="M353.25586,516.30394c2.23523,2.53994,1.28123,8.08741-.82034,7.99958-1.55186-.06486-4.41191-2.19383-5.88756-5.47748-1.19168-2.65177-.86594-7.72443.82033-7.9996C348.50376,510.64116,351.06012,513.80887,353.25586,516.30394Z" transform="translate(-4.70389 3.67809)"/><path class="cls-36" d="M477.16682,197.95141c2.74676,1.01335-1.14012,5.61549-4.6642,6.40906-2.6023.586-6.57573.14042-7.73134-1.74848-.93323-1.52542,1.695-5.50991,4.66419-6.40908C471.43479,195.59745,474.46857,196.956,477.16682,197.95141Z" transform="translate(-4.70389 3.67809)"/><path class="cls-33" d="M310.74494,315.47592c8.07689,4.637-13.1403,5.6356-25.13969,2.78694-12.99625-3.08531-24.39973-13.30892-17.58742-18.17842,8.80828-6.29622,25.22093-10.6059,25.13972-2.78693C293.07943,304.81838,301.639,310.24814,310.74494,315.47592Z" transform="translate(-4.70389 3.67809)"/><path class="cls-12" d="M350.89161,197.54648c2.16291.37953-1.43661,3.56377-4.3985,4.36761-2.18716.59358-5.40707.67359-6.18648-.38778-.62942-.85712,1.88242-3.54821,4.3985-4.36761C346.39937,196.607,348.76691,197.17365,350.89161,197.54648Z" transform="translate(-4.70389 3.67809)"/><path class="cls-37" d="M289.04343,154.56765c1.01722.57-.17148,2.47888-1.38959,2.6895a2.914,2.914,0,0,1-2.81732-1.10775,2.36266,2.36266,0,0,1,1.38959-2.6895C286.91074,153.27057,288.04418,154.00775,289.04343,154.56765Z" transform="translate(-4.70389 3.67809)"/><path class="cls-38" d="M361.15189,188.45974c3.3978,3.66827-15.4082,8.49743-21.53518,5.87239-9.40766-4.0306-17.62645-2.38964-10.94952-6.05921,8.63322-4.74473,17.72575-7.86736,21.53517-5.87239C354.01044,184.39476,357.671,184.7018,361.15189,188.45974Z" transform="translate(-4.70389 3.67809)"/><path class="cls-14" d="M571.11043,555.46766c2.00046,1.87823-1.17472,5.55584-3.91847,5.85328-1.97686.21433-5.61988-3.66939-5.73542-3.97913-.89017-2.38614,1.97484-4.52752,3.91851-5.85334C566.892,550.45376,568.13786,552.67668,571.11043,555.46766Z" transform="translate(-4.70389 3.67809)"/><path class="cls-16" d="M561.00251,567.42386c1.51788.54393-.65071,3.07022-2.60531,3.51562-1.44333.3289-3.64257.0992-4.27616-.92827-.51165-.82975.9577-3.01447,2.60531-3.51562C557.83579,566.15813,559.51145,566.88954,561.00251,567.42386Z" transform="translate(-4.70389 3.67809)"/><path class="cls-20" d="M578.74287,571.293c-5.60884-2.78562.49483-16.16748-2.19718-19.62446-2.80291-3.59942,3.36149-11.21143,15.60769-12.32394,8.80513-.79989,11.59775,16.29407,2.19719,19.62447C588.31418,561.10763,586.07033,574.93219,578.74287,571.293Z" transform="translate(-4.70389 3.67809)"/><path class="cls-14" d="M492.20455,552.17258c-1.71845,2.49194-10.02148,6.30182-7.5017,3.7528,2.28235-2.30884,2.21563-4.38967,1.89684-5.41027-.31993-1.02422,6.41077-4.354,7.50172-3.75281C494.836,547.16714,494.02187,549.53726,492.20455,552.17258Z" transform="translate(-4.70389 3.67809)"/><path class="cls-39" d="M486.8941,564.30827c1.24448.11449.4296,2.4917-.83887,3.22557-.93669.54192-2.577.80553-3.32984.1421-.608-.53576-.19373-2.51027.83887-3.22557C484.25957,563.96872,485.6716,564.19582,486.8941,564.30827Z" transform="translate(-4.70389 3.67809)"/><path class="cls-40" d="M467.52889,579.90612c-5.7945,4.12958-12.39546,1.09814-11.70258-2.88407,1.23621-7.10493,1.71233-11.67847,9.3133-17.09711,9.59228-6.83821,19.303-6.39987,11.7026,2.88407C471.96175,568.77051,476.40544,573.58006,467.52889,579.90612Z" transform="translate(-4.70389 3.67809)"/></g><g id="New_Eyes" data-name="New Eyes"><path class="cls-41" d="M313.93205,345.88864c26.31582,12.68772,22.64087,37.208,9.95315,63.52385s-29.58363,44.46187-55.89945,31.77415a52.89795,52.89795,0,1,1,45.9463-95.298Z" transform="translate(-4.70389 3.67809)"/><path class="cls-7" d="M292.06017,362.55188c2.86794,2.3911,5.5612.24268,8.89762-.11412,3.82549-.4091,1.56294-6.66846-1.48806-8.773-2.26332-1.5612-5.76539-.84915-8.89762.11414C287.17642,354.82315,289.19224,360.16079,292.06017,362.55188Z" transform="translate(-4.70389 3.67809)"/><path class="cls-7" d="M290.044,371.46686c1.50638,1.25592,2.53887.58582,4.01837.72581,1.69636.1605.12763-2.671-1.43671-3.82227a5.73342,5.73342,0,0,0-4.01837-.7258C287.16079,367.78884,288.53765,370.21094,290.044,371.46686Z" transform="translate(-4.70389 3.67809)"/><path class="cls-7" d="M303.85484,365.06594c1.32918,1.10818.46581,2.64518.50383,4.2889.04359,1.88466-3.10659,1.50436-4.30957.27583-.89239-.91136-.77008-2.67481-.50381-4.2889C299.83393,363.59192,302.52566,363.95776,303.85484,365.06594Z" transform="translate(-4.70389 3.67809)"/><path class="cls-42" d="M621.44094,265.02688c-4.78961,28.81944-29.35552,32.17609-58.175,27.38649s-50.97907-15.91173-46.18947-44.73117a52.89795,52.89795,0,0,1,104.36443,17.34468Z" transform="translate(-4.70389 3.67809)"/><path class="cls-7" d="M575.20442,224.80552c1.4777,3.42911,4.85117,2.72981,7.98867,3.91939,3.59741,1.364,4.408-5.24224,2.63746-8.49848-1.31342-2.41555-4.75924-3.36309-7.98869-3.91936C574.3408,215.704,573.72671,221.37642,575.20442,224.80552Z" transform="translate(-4.70389 3.67809)"/><path class="cls-7" d="M569.37688,231.84694c.77617,1.80113,2,1.67,3.25656,2.46351,1.4407.90984,1.321-2.325.44583-4.059a5.73347,5.73347,0,0,0-3.25656-2.46351C568.46714,227.26291,568.60072,230.0458,569.37688,231.84694Z" transform="translate(-4.70389 3.67809)"/><path class="cls-7" d="M584.58963,232.37867c.68486,1.58926-.77994,2.57014-1.48889,4.0536-.81287,1.7009-3.45111-.062-3.969-1.70161-.38418-1.21628.5219-2.73409,1.4889-4.0536C581.669,229.24656,583.90476,230.7894,584.58963,232.37867Z" transform="translate(-4.70389 3.67809)"/></g></svg>