<svg id="Sig" xmlns="http://www.w3.org/2000/svg" viewBox="0 0 525.65811 225.03992"><defs><style>.cls-1{fill:#a0a0a0;}</style></defs><path class="cls-1" d="M104.93182,231.26367A505.34982,505.34982,0,0,0,165.24909,15.83115c-.13871,2.81062-5.44191,5.40755-5.58443,8.29543A505.3497,505.3497,0,0,1,99.34739,239.5591c1.57686-2.90939,4.00075-5.37347,5.58443-8.29543Z" transform="translate(-99.34739 -14.51918)"/><path class="cls-1" d="M162.44714,23.04737a396.03557,396.03557,0,0,1,14.32991,85.661,345.64885,345.64885,0,0,1-.00756,42.37438,87.76371,87.76371,0,0,1-2.4963,16.62044c-.24908.93638-2.11075,8.37121-3.04958,8.39875l1.39641-2.25852q-.90381,1.178-1.91348,2.26663a29.05329,29.05329,0,0,1-3.04291,2.84713c-17.21769,13.869-43.36129,5.04978-53.3896-13.06452-5.4087-9.76983-6.95359-21.44654-5.29994-32.41427a54.64691,54.64691,0,0,1,4.73812-15.486c4.16843-8.67706-5.64574,7.1567.26936-.37493a40.24575,40.24575,0,0,1,2.93063-3.34806,36.14876,36.14876,0,0,1,6.88706-5.53267c10.01075-6.126,24.48783-6.28527,33.182,2.35827a20.147,20.147,0,0,1,5.72648,14.51039,30.065,30.065,0,0,1-1.27889,7.12323c-1.10746,4.46687,5.08074-5.36857,1.52836-2.52271a31.56749,31.56749,0,0,1-3.79142,2.8789c-.90194.529-4.87965,8.6952-5.22208,8.52818a19.27756,19.27756,0,0,1,10.28762,13.18085,21.3964,21.3964,0,0,1,.36493,8.07443c-.17329,1.15013-.58458,2.2187-.81,3.3448q-1.66986,4.087,2.50164-3.5a15.98233,15.98233,0,0,1-1.60506,1.74559c-8.731,8.19412-24.09052,5.43286-30.10343-4.56955l-5.22208,8.52818a1034.08574,1034.08574,0,0,0,368.59217,27.66692A1028.43937,1028.43937,0,0,0,600.402,179.986c.71842-.15011,2.25458-3.58621,2.65368-4.238.39776-.64958,1.84319-4.13867,2.5684-4.2902a1034.08572,1034.08572,0,0,1-369.50594,9.53956,1028.436,1028.436,0,0,1-101.53876-21.1082c-.17647-.046-5.43812,8.16881-5.22208,8.52818a19.92686,19.92686,0,0,0,18.20048,9.32557c7.19909-.33117,12.19347-4.1713,15.86912-10.06727,3.43366-5.50782,6.89475-10.59555,6.58491-17.37742a19.88214,19.88214,0,0,0-10.846-17.21333l-5.22208,8.52818c4.44473-2.60706,6.68832-6.78,9.28481-11.05064,2.47578-4.07211,4.49987-7.97763,4.67911-12.87437.47663-13.02113-10.57092-21.694-22.9501-21.87721-13.17878-.195-23.05255,8.40517-29.66933,19.0233-6.5726,10.54723-11.72354,21.023-12.12929,33.73889-.41875,13.12313,3.88808,26.91074,13.76266,35.94954a37.85933,37.85933,0,0,0,34.42967,8.4848c11.70243-3.09658,17.68545-12.37572,23.38417-22.23614,6.86455-11.8776,7.38637-26.0115,7.72417-39.38557A394.48793,394.48793,0,0,0,167.66922,14.51918c.16435.58309-2.29177,3.64695-2.65368,4.238-.42314.691-2.79612,3.48227-2.5684,4.2902Z" transform="translate(-99.34739 -14.51918)"/><path class="cls-1" d="M553.108,176.30867a107.475,107.475,0,0,0,51.60673-16.7586c6.8488-4.40644,16.256-10.32191,19.43443-18.20137,3.065-7.59826-2.71606-12.131-7.58068-16.87834-5.877-5.73534-12.38567-6.69945-20.369-4.921-10.48772,2.33633-20.82524,5.632-31.21545,8.37679q-30.82036,8.14178-61.84863,15.46843a2429.32324,2429.32324,0,0,1-252.73029,45.73126q-71.87726,9.11147-144.20672,13.92291c.57921-.03871,3.04677,3.0732,3.52592,3.54547.56022.55217,2.78476,3.52848,3.59613,3.47425q101.6898-6.79617,202.56858-22.04376Q416.17364,172.82875,514.957,149.29924q27.7207-6.60513,55.281-13.86077c9.34207-2.45958,18.65991-5.00492,27.97994-7.546,7.90666-2.15574,16.28-4.05785,23.2515,1.47259l-4.54153-4.40857,1.003.99433-2.58052-2.61113c10.60594,13.38941-14.62472,27.76545-24.08769,32.96184A107.60029,107.60029,0,0,1,545.986,169.289c.58644-.03578,3.04278,3.06927,3.52593,3.54547.5649.55678,2.77715,3.52421,3.59612,3.47425Z" transform="translate(-99.34739 -14.51918)"/><path class="cls-1" d="M210.53815,132.66227c-5.94846,1.47579-11.71433,4.92976-14.88086,10.34486-2.01688,3.44908-2.84792,8.069-3.68047,11.931-.93537,4.339.96016,10.18139,6.691,7.09991,4.15273-2.23292,4.85736-8.94009,5.92374-13.00809l-1.66282,6.10705c.98735,8.81633,10.27649,12.8721,17.49537,7.77223.72436-.51173,1.095-3.95,1.32513-4.82146.23106-.87487.492-4.32674,1.22844-4.847-7.22388,5.10341-16.50941,1.03165-17.49537-7.77223.18192,1.6244-1.26681,4.59636-1.66282,6.10705l-.355,1.35422,1.66282-6.10706c-1.02936,2.92768-2.97754,6.32947-6.57956,6.2832a4.51676,4.51676,0,0,1-3.45543-1.50387c-1.379-1.635-.45808-5.49185-1.68368-.79372-1.30645,5.00811.60295.37883,1.8559-1.03405a23.703,23.703,0,0,1,3.286-3.05751,25.10637,25.10637,0,0,1,9.434-4.38607c1.61675-.40111,1.06426-9.299,2.55358-9.66847Z" transform="translate(-99.34739 -14.51918)"/><path class="cls-1" d="M227.54259,145.03357l.011,11.72895c.00081.85488,9.61163,2.48379,9.50822,3.09739,1.42556-8.45872-.9762-17.142,1.0078-25.51781,1.67805-7.08411,7.468-13.14135,15.28032-11.131l-9.33428-3.0547a10.15789,10.15789,0,0,1,3.1603,2.01746c2.2827,2.05811,7.27075,1.08005,9.50822,3.09738-2.76683-2.49461-6.827-3.28662-10.30053-4.38885-4.088-1.2972-7.85015-1.76444-11.70531.72126-11.10216,7.15835-5.33054,24.51281-7.12474,35.15892l9.50822,3.09739-.011-11.729c-.001-1.10473-9.50731-2.135-9.50822-3.09739Z" transform="translate(-99.34739 -14.51918)"/><path class="cls-1" d="M262.95449,104.61084a183.91991,183.91991,0,0,1-11.2985,42.99385c-.3574.90046,2.91151,9.56919,2.61254,9.6527,4.3258-1.20831,8.64094-2.54952,13.00056-3.63139,3.7269-.92485,7.56941-1.32131,9.08087,3.05875l-2.553-9.48377c1.5269,10.27739-11.35076,9.13442-17.59516,7.48044,1.54776.41.93945,9.20954,2.61255,9.6527,5.15174,1.36457,12.30441,3.02284,16.26983-1.84363,2.474-3.03612,1.13729-6.498.24008-9.83447-.77505-2.88219-1.18918-7.45929-4.22049-8.9397-2.54362-1.24224-5.80533.0878-8.3044.77575-3.71821,1.02357-7.429,2.07511-11.14333,3.11262l2.61254,9.6527A183.91975,183.91975,0,0,0,265.567,114.26354c.42023-3.068-3.02486-6.64257-2.61255-9.6527Z" transform="translate(-99.34739 -14.51918)"/><path class="cls-1" d="M294.87989,136.27491a25.30617,25.30617,0,0,0-11.32238,22.17051c.11591,3.22861,2.89409,6.348,3.00857,9.53669a25.30616,25.30616,0,0,1,11.32238-22.1705c.83656-.56082-3.72579-9.05588-3.00857-9.5367Z" transform="translate(-99.34739 -14.51918)"/><path class="cls-1" d="M285.40187,121.70515a6.58039,6.58039,0,0,0,.02431,10.06439c2.25838,1.93306,4.824,3.6022,7.24292,5.32262a8.51945,8.51945,0,0,0,5.37231,2.01339,8.67192,8.67192,0,0,1-1.16266-.89114c-.94421-.70507-1.89627-1.40019-2.84856-2.09426s-1.90534-1.38771-2.86581-2.07059c-.24977-.17758-.91777-.84016-1.20431-.834a7.36277,7.36277,0,0,1-1.87675-.15361l-.60524-.17463q-4.29708-1.783,5.35612,4.2338l.53681.42247a6.584,6.584,0,0,1,.1122-9.94845c-.45895.41288-7.5135-6.40082-8.08134-5.89Z" transform="translate(-99.34739 -14.51918)"/><path class="cls-1" d="M300.99382,151.26283c7.11654-2.16767,15.88008-7.33538,20.67928-13.09223,1.52187-1.82554,6.68517-10.28669.74919-10.29024-2.80879-.00167-7.10125,3.85006-9.28954,5.35075-4.39631,3.01493-7.06316,8.54046-9.5933,13.10836-2.36055,4.26172-7.69813,11.93793-5.51589,17.00176,3.93455,9.13,18.49759-2.55237,23.01988-5.83621-1.92462,1.39755-5.76286,3.27792-8.21118,5.05576q-4.00852,2.87072,2.76427-1.76759a9.17868,9.17868,0,0,1-2.91987.6542,7.30906,7.30906,0,0,1-3.96524-.87794c-3.64788-2.18139-2.77372-6.383-1.46587-9.70061A87.28832,87.28832,0,0,1,312.948,139.466c2.15386-3.73942,4.488-8.71451,8.1848-11.15286l-8.356,5.16112c4.44423-1.27134,4.29763,3.57635,2.89843,6.34087a20.9093,20.9093,0,0,1-3.48108,4.71863c-.49242.52228-3.67039,3.48855-1.03188,1.26287,2.14343-1.80806-.58842-.129-1.66765.1997-3.0987.94385-5.43883,4.3338-8.50083,5.26648Z" transform="translate(-99.34739 -14.51918)"/><path class="cls-1" d="M335.90058,142.682c.47778,4.26149-3.25689,8.69014-1.66678,12.78844,1.54756,3.98868,4.86726,2.78487,6.91617.26592,5.49715-6.75826,9.31874-14.21073,13.4535-21.85061l-6.07483,7.94333a22.42116,22.42116,0,0,0,5.3373,13.8321c-.42418-.50772,6.59265-7.32353,6.07484-7.94332a22.42115,22.42115,0,0,1-5.33731-13.83211c.03156.77827-2.56762,3.27518-3.07713,3.94129a32.76989,32.76989,0,0,0-2.9977,4.002c-2.65715,4.90965-5.01556,10.31088-8.19845,14.89913l5.97689-7.79338c-2.75232,2.78036-6.16.32949-6.34733-3.13641-.20808-3.849,2.457-7.123,2.01566-11.05974.076.67755-2.61807,3.34114-3.07713,3.94128-.53562.70025-3.0998,3.09134-2.9977,4.002Z" transform="translate(-99.34739 -14.51918)"/></svg>