<?xml version="1.0" encoding="utf-8"?>
<!-- Generator: Adobe Illustrator 24.2.1, SVG Export Plug-In . SVG Version: 6.00 Build 0)  -->
<svg version="1.1" id="Layer_1" xmlns="http://www.w3.org/2000/svg" xmlns:xlink="http://www.w3.org/1999/xlink" x="0px" y="0px"
	 viewBox="0 0 512 512" style="enable-background:new 0 0 512 512;" xml:space="preserve">
<style type="text/css">
	.st0{fill:#DFDFDF;}
</style>
<path class="st0" d="M346.3,512H79.7C47.3,512,21,485.7,21,453.3v-288c0-32.4,26.3-58.7,58.7-58.7h10.7c8.8,0,16,7.2,16,16
	s-7.2,16-16,16H79.7c-14.7,0-26.7,12-26.7,26.7v288C53,468,65,480,79.7,480h266.7c14.7,0,26.7-12,26.7-26.7v-10.7
	c0-8.8,7.2-16,16-16s16,7.2,16,16v10.7C405,485.7,378.7,512,346.3,512z"/>
<path class="st0" d="M431.7,384h-224c-32.4,0-58.7-26.3-58.7-58.7V58.7C149,26.3,175.3,0,207.7,0h224c32.4,0,58.7,26.3,58.7,58.7
	v266.7C490.3,357.7,464,384,431.7,384z M207.7,32C193,32,181,44,181,58.7v266.7c0,14.7,12,26.7,26.7,26.7h224
	c14.7,0,26.7-12,26.7-26.7V58.7c0-14.7-12-26.7-26.7-26.7H207.7z"/>
</svg>
