<svg xmlns="http://www.w3.org/2000/svg" xmlns:xlink="http://www.w3.org/1999/xlink" viewBox="0 0 1015.63 1023.49"><defs><style>.cls-1{fill:none;}.cls-2{fill:#001e6d;stroke:#379bed;stroke-miterlimit:10;stroke-width:10px;}.cls-3,.cls-30,.cls-32{opacity:0.2;}.cls-28,.cls-30,.cls-4{fill:#202020;}.cls-5{fill:#2d6ded;}.cls-6{clip-path:url(#clip-path);}.cls-32,.cls-7{fill:#fff;}.cls-8{fill:#194cb2;}.cls-9{clip-path:url(#clip-path-2);}.cls-10{fill:#2f1da3;}.cls-11{clip-path:url(#clip-path-3);}.cls-12{fill:#379bed;}.cls-13{clip-path:url(#clip-path-4);}.cls-14{fill:#6c27cc;}.cls-15{clip-path:url(#clip-path-5);}.cls-16{fill:#952fcc;}.cls-17{clip-path:url(#clip-path-6);}.cls-18{fill:#4e37e5;}.cls-19{clip-path:url(#clip-path-7);}.cls-20{fill:#5415ad;}.cls-21{clip-path:url(#clip-path-8);}.cls-22{fill:#d6a800;}.cls-23{clip-path:url(#clip-path-9);}.cls-24{fill:#8dc7f2;}.cls-25{fill:#185c90;}.cls-26{fill:#7b56b9;}.cls-27{fill:#5b34a0;}.cls-28{opacity:0.1;}.cls-29{clip-path:url(#clip-path-10);}.cls-31{clip-path:url(#clip-path-11);}.cls-33{fill:#f0bc00;}.cls-34{fill:#b08a00;}.cls-35{fill:#e6bf00;}.cls-36{fill:#846606;}.cls-37{fill:#2076bd;}.cls-38{fill:#98d3f4;}.cls-39{fill:#873db7;}.cls-40{fill:#9f79db;}.cls-41{fill:url(#radial-gradient);}.cls-42{fill:url(#radial-gradient-2);}</style><clipPath id="clip-path" transform="translate(-4.7 3.68)"><path class="cls-1" d="M596.59,576.36a.57.57,0,0,0,0-.13c0-.06,0,0-.06.1l-.09.21-.36.8a9.25,9.25,0,0,0-.37.94l-.39,1c-.54,1.31-1,2.88-1.47,4.36s-.9,3.08-1.34,4.64-.88,3.13-1.2,4.77l-1.1,4.87c-.38,1.62-.6,3.29-.91,4.94l-.88,5-.65,5a257.3,257.3,0,0,0-1.93,40.83,383.29,383.29,0,0,0,10.95,81.73c.33,1.7.78,3.36,1.24,5l1.33,5,2.67,10,1.32,5,1.45,5.15c1,3.43,2,6.85,2.86,10.31,3.72,13.78,7.08,27.69,9.81,41.79a296.16,296.16,0,0,1,5.54,43,126,126,0,0,1-.79,22.31,54.89,54.89,0,0,1-2.66,11.45,22.06,22.06,0,0,1-3.07,5.65,13.39,13.39,0,0,1-1.11,1.32,11.55,11.55,0,0,1-1.27,1.25,8.56,8.56,0,0,1-3.21,1.85l-.1-.17a9.22,9.22,0,0,0,1.43-2.53,18.89,18.89,0,0,0,.8-2.56,57.83,57.83,0,0,0,1.59-15.54,112.94,112.94,0,0,0-2.92-20.55,277.61,277.61,0,0,0-12.64-39.61c-5.07-13-10.74-25.69-16.76-38.29-1.47-3.15-3-6.28-4.58-9.42l-2.31-4.7-2.29-4.87-4.56-9.77-2.27-4.89c-.77-1.63-1.53-3.26-2.18-4.94-11.44-26.45-20.61-54.1-26.22-83.27a274.7,274.7,0,0,1-5.08-45.08l-.16-5.83.1-5.93c.07-2,0-3.94.18-6l.42-6.06c.11-2,.37-4.09.62-6.17s.46-4.13.87-6.31.67-4.24,1.22-6.57l.37-1.71c.13-.57.24-1.11.43-1.78l.51-1.92.13-.48c0-.16.08-.29.18-.57l.49-1.48Z"/></clipPath><clipPath id="clip-path-2" transform="translate(-4.7 3.68)"><path class="cls-1" d="M651.4,468.73l.81.16.43.09.81.18,1.3.33c.86.22,1.56.42,2.34.63,1.43.43,2.83.86,4.13,1.3,2.65.87,5.1,1.81,7.5,2.76,4.77,1.93,9.19,4,13.43,6.25a169.14,169.14,0,0,1,23.15,14.81,180.93,180.93,0,0,1,19.43,17.06A194.9,194.9,0,0,1,741.09,531a215.73,215.73,0,0,1,13.58,19.88c2.12,3.37,4,6.83,5.92,10.27,1,1.7,1.82,3.47,2.73,5.21s1.81,3.47,2.64,5.23c3.33,7.05,6.41,14.17,9.09,21.4l3.83,10.37,1.81,4.93,2,4.86a288.9,288.9,0,0,0,43.52,73.18c2.24,2.86,4.64,5.61,7,8.41s4.84,5.51,7.37,8.19q7.53,8.1,15.72,15.75t17.13,14.74c3,2.39,6,4.64,9.08,6.93a16.65,16.65,0,0,1,3.77,4.31,15.39,15.39,0,0,1,2.18,6.29,23.47,23.47,0,0,1-8.39.54,21.53,21.53,0,0,1-6.5-1.75c-3.71-1.84-7.32-3.8-10.87-5.81q-10.7-6-20.74-12.73t-19.53-14c-3.18-2.41-6.25-4.92-9.34-7.42s-6.09-5.07-9-7.71a325.89,325.89,0,0,1-32.75-33.66,287.38,287.38,0,0,1-27.1-37.73l-3-5-2.82-5.06-2.78-5L733,611c-3.41-6.12-7.2-12-11-17.81-1-1.45-2-2.85-3-4.28s-2-2.86-3-4.23c-2.12-2.75-4.16-5.55-6.41-8.19a188.23,188.23,0,0,0-14-15.36,167.82,167.82,0,0,0-32.37-25.45,130.8,130.8,0,0,0-18.15-9.16,97.16,97.16,0,0,0-9.22-3.36c-1.5-.45-3-.88-4.39-1.2-.71-.18-1.36-.31-2-.43-.26,0-.59-.11-.77-.13l-.27,0,0,0s0,0,0,0l.41.08Z"/></clipPath><clipPath id="clip-path-3" transform="translate(-4.7 3.68)"><path class="cls-1" d="M647.78,485c-1.82-.24-3.88-.44-5.29-.61-.77-.08-1.56-.13-2.34-.17a10.72,10.72,0,0,0-2,0,3.53,3.53,0,0,0-1,.22c-.17.08-.33.17-.49.26a.83.83,0,0,0-.47.49,4.53,4.53,0,0,0-.38.83c.33,1.42-.48.92,1.38,3.84,1,6.1,18.15,3.52,20,.08a32.81,32.81,0,0,0,3-2.73c.34-.27.71-.64,1-.88l.56-.26a2.17,2.17,0,0,1,.91-.28l.39-.07.36,0c.23,0,.48,0,.71,0a8.92,8.92,0,0,1,1.19.24,11.19,11.19,0,0,1,1.11.3c.59.2,1.24.46,1.76.69a7.26,7.26,0,0,1,2.21,1.47A2,2,0,0,1,671,490c-.08.49-.23,1-.34,1.5l-.71,3.11c-.92,4.22-1.74,8.58-2.49,12.95s-1.4,8.77-2.06,13.17-1.22,8.82-1.74,13.23-.94,8.82-1.36,13.22-.79,8.81-1.09,13.21-.5,8.78-.72,13.17-.35,8.76-.42,13.12a411.69,411.69,0,0,0,2.2,51.69c.93,8.47,2.14,16.87,3.8,25.12a231.79,231.79,0,0,0,6.07,24.36c.6,2,1.25,4,1.92,5.93l1,2.94,1.1,3,4.57,12.9c1.58,4.28,2.83,8.65,4.19,13l2,6.52,1,3.26.88,3.29,3.48,13.15c1.11,4.39,2.07,8.82,3.11,13.23.5,2.2,1,4.4,1.51,6.61l1.35,6.66,1.34,6.65.67,3.32.59,3.35L703.22,805l2,13.42c1.25,9,2.5,17.92,3.48,26.93s1.84,18,2.55,27.09l.45,6.81a37,37,0,0,1,0,6.9c-.12,1.18-.28,2.36-.52,3.56-.13.6-.27,1.2-.44,1.81s-.32,1.21-.52,1.83a29.26,29.26,0,0,1-1.44,3.72,24.52,24.52,0,0,1-2.15,3.84l-1.06.2a25,25,0,0,1-4.84-5.86,33.07,33.07,0,0,1-2.94-6.17,41.4,41.4,0,0,1-1.65-6.44l-1.29-6.51c-1.81-8.65-3.72-17.28-5.84-25.84-4.19-17.14-9-34.06-14.67-50.66l-1-3.12-1.1-3.09-2.2-6.19-2.2-6.17c-.76-2.05-1.58-4.08-2.37-6.12-1.6-4.06-3.13-8.14-4.8-12.17l-5.14-12-1.28-3-1.38-3L650.07,739c-1.85-3.92-3.6-7.89-5.66-11.71l-5.93-11.54-1.6-3.07-1.59-3.17q-1.57-3.18-3-6.41a232.93,232.93,0,0,1-10-26.35,277.87,277.87,0,0,1-6.86-27.22,324.85,324.85,0,0,1-5.86-56q-.15-7.06-.06-14.17c0-4.73.26-9.47.5-14.22s.57-9.5,1-14.26.94-9.52,1.51-14.29c1.16-9.55,2.59-19.11,4.52-28.77.95-4.83,2-9.67,3.19-14.64l1-3.78c.18-.64.32-1.29.54-2a5.27,5.27,0,0,1,1.56-2,16.23,16.23,0,0,1,3.21-2c.71-.34,1.53-.66,2.31-1l1.4-.54c.49-.17.93-.43,1.51-.62.28-.1.58-.26.87-.38l.45-.19.48-.28a7.49,7.49,0,0,0,1.11-.7l.67-.47c.31-.31.72-.74,1.1-1.08a31.56,31.56,0,0,1,3.14-2.92c1.92-3.5,19.12-6.1,20.21.07,1.9,3,1.1,2.55,1.46,4a5.76,5.76,0,0,1-.36,1,1.43,1.43,0,0,1-.45.7l-.49.48a5.94,5.94,0,0,1-1,.65,14.39,14.39,0,0,1-2,.89c-.81.25-1.63.49-2.44.69-1.48.41-3.62.78-5.53,1.12Z"/></clipPath><clipPath id="clip-path-4" transform="translate(-4.7 3.68)"><path class="cls-1" d="M578.34,530.31l1.26.17c.26,0,.3,0,.44.07l.36.06,1.42.26c.91.18,1.63.35,2.45.53l1.19.27,1.09.28,2.18.56c2.81.79,5.54,1.58,8.11,2.46,5.21,1.74,10,3.71,14.75,5.76A179.08,179.08,0,0,1,637.4,555c4,2.58,7.68,5.43,11.4,8.19,1.81,1.43,3.55,2.91,5.31,4.36l2.62,2.18c.84.76,1.66,1.52,2.48,2.29l4.88,4.6c1.57,1.57,3,3.2,4.57,4.79l2.26,2.39,1.1,1.18.76.89,1.52,1.81c.51.61,1.09,1.15,1.64,1.74,8.74,9.36,21.56,16.76,36.88,21.7,3.82,1.27,7.82,2.32,11.91,3.27s8.31,1.75,12.63,2.39,8.73,1.12,13.21,1.46a34.28,34.28,0,0,1,6.72,1.28,28.91,28.91,0,0,1,7,3.11l.06.86a27,27,0,0,1-7.35,5,35,35,0,0,1-7.58,2.57c-5,1-10.12,1.82-15.23,2.47a199.89,199.89,0,0,1-31,1.6c-5.19-.16-10.4-.48-15.55-1.15l-1.94-.23-1.93-.29-3.86-.59c-2.53-.5-5.13-.92-7.64-1.54a140.14,140.14,0,0,1-15-4.27A112.15,112.15,0,0,1,643.12,621c-1.13-.59-2.3-1.15-3.4-1.78l-3.29-1.92-1.65-1-1.29-.69-2.55-1.35c-1.69-.89-3.35-1.81-5.06-2.66l-5.2-2.44-2.58-1.21-2.65-1.11c-1.76-.73-3.5-1.49-5.26-2.2-3.62-1.29-7.12-2.68-10.8-3.75a165.83,165.83,0,0,0-21.9-5.49c-3.64-.62-7.28-1.19-10.79-1.49-1.76-.2-3.46-.3-5.08-.39l-1.17,0-.58,0h-.51c-.31,0-.71,0-.93,0l-.29,0h-.07s-.1,0,0,0l.4.08Z"/></clipPath><clipPath id="clip-path-5" transform="translate(-4.7 3.68)"><path class="cls-1" d="M498.44,593.64c-.08.45-.13,1.37-.18,2.1l-.14,2.39-.2,4.9c-.1,3.3-.13,6.6-.11,9.92q0,10,.56,19.93a373.68,373.68,0,0,0,4.3,39.4,277.79,277.79,0,0,0,8.82,38.13l1.45,4.64,1.59,4.58c1,3.08,2.25,6,3.41,9.06a192.61,192.61,0,0,0,8.19,17.45c1.45,2.88,3.16,5.57,4.76,8.37.84,1.37,1.74,2.68,2.61,4l1.32,2,1.48,2.21,6,9,1.49,2.24,1.35,2.33L547.9,781c1.82,3.08,3.71,6.11,5.24,9.32l4.92,9.44,4.36,9.67,1.08,2.41c.34.81.64,1.64,1,2.46l1.9,4.93,1.89,4.92,1.65,5c1.09,3.34,2.24,6.65,3.07,10.07l1.36,5.08.68,2.54.56,2.58,1.07,5.16.53,2.58.44,2.6c.56,3.48,1.2,6.93,1.52,10.46l.58,5.26.41,5.29c.15,1.76.27,3.53.26,5.32a39.71,39.71,0,0,1-1.42,11,26.56,26.56,0,0,1-2.26,5.71l-1.06.15a41.16,41.16,0,0,1-5.1-9.41c-.61-1.59-1.2-3.18-1.68-4.8-.23-.81-.47-1.61-.66-2.43l-.7-2.42-1.4-4.84-1.57-4.78c-1-3.19-2.22-6.32-3.31-9.47l-.84-2.36-.94-2.32-1.87-4.65-.91-2.32-1-2.29-2-4.56c-1.29-3.07-2.85-6-4.29-9l-2.19-4.47-2.43-4.36-2.42-4.36c-.41-.72-.79-1.45-1.22-2.16l-1.33-2.12-5.31-8.43c-3.9-5.42-7.61-10.93-12.06-16l-3.2-3.86-1.62-1.91-1.76-1.82-7-7.25L505,776.72c-1.32-1.35-2.67-2.69-3.95-4.07-2.47-2.79-5.07-5.54-7.36-8.44-19-23-32.3-48.73-43.28-75.17-2.71-6.64-5.21-13.35-7.57-20.1s-4.47-13.6-6.56-20.47-4-13.81-5.69-20.83c-.88-3.51-1.67-7.06-2.47-10.63L427,611.58l-.54-2.78c-.18-1-.35-1.8-.52-3.08Z"/></clipPath><clipPath id="clip-path-6" transform="translate(-4.7 3.68)"><path class="cls-1" d="M458.86,591.54l0-.23v-.18l0,0-.15.34-.16.34-.08.17-.08.25-.68,2-.63,2.3-.32,1.15-.28,1.23-.54,2.46-.27,1.24-.23,1.28-.9,5.14-.71,5.28-.36,2.65-.25,2.68-.52,5.39c-.17,1.8-.21,3.62-.31,5.43a332.4,332.4,0,0,0,.79,44c1.33,14.72,3.14,29.49,5.89,44.11l2,11c.73,3.65,1.58,7.28,2.37,10.92s1.61,7.29,2.45,10.93l2.7,11.5,2.35,11.6c.68,3.9,1.44,7.76,2.05,11.67s1.22,7.8,1.68,11.74,1,7.84,1.36,11.8l.56,5.92.39,5.95c.32,4,.38,8,.55,11.94.16,8,.17,16-.28,24a275.41,275.41,0,0,1-6.72,48.46,238.33,238.33,0,0,1-6.94,24.16c-.67,2-1.42,4-2.15,6a43.32,43.32,0,0,1-2.65,6A38.93,38.93,0,0,1,455,948a30.12,30.12,0,0,1-5.67,5.43l-1-.18a26.45,26.45,0,0,1-1.14-6.2,37.46,37.46,0,0,1,0-5.9,49.41,49.41,0,0,1,.85-5.78c.34-1.92.68-3.84,1-5.76q1.72-11.52,2.44-23c.52-7.63.61-15.21.52-22.75,0-1.89,0-3.77-.11-5.65l-.23-5.63c-.09-1.87-.25-3.73-.37-5.6l-.18-2.8-.25-2.79c-.58-7.44-1.61-14.8-2.73-22.11-.67-3.64-1.21-7.3-2-10.9L445,823l-1.27-5.37c-1.66-7.17-3.68-14.23-5.92-21.21-1.11-3.49-2.38-6.94-3.55-10.4s-2.66-6.83-4-10.24L421.35,755c-1.52-3.56-3.11-7.11-4.58-10.7l-4.25-10.86c-2.94-7.22-5.44-14.63-8.1-22-1.37-3.67-2.46-7.45-3.68-11.2L399,694.65c-.6-1.87-1.19-3.75-1.71-5.67L394,677.52c-1.05-3.83-1.92-7.75-2.88-11.64s-1.78-7.85-2.6-11.82c-.4-2-.84-4-1.2-6l-1-6.07c-.32-2-.7-4-1-6.1l-.81-6.21-.41-3.11-.3-3.17-.57-6.38-.32-6.56-.07-1.65v-1.7l0-3.4V602l.05-1.79.11-3.58.3-3.88,0-.49.07-.56.14-1.13.15-1.14,0-.15,0-.24.1-.48.19-1Z"/></clipPath><clipPath id="clip-path-7" transform="translate(-4.7 3.68)"><path class="cls-1" d="M545,581.9l.14.39.07.2,0,.12.15.47.14.47.12.42.43,1.63c.27,1.06.5,2.07.72,3.07.44,2,.8,4,1.14,5.92.65,3.89,1.21,7.72,1.6,11.55A219.85,219.85,0,0,1,550.78,629a254,254,0,0,1-4.1,45.6c-1.41,7.58-3.06,15.12-5.14,22.63-.94,3.75-2.16,7.49-3.25,11.22-.59,1.86-1.24,3.72-1.86,5.58s-1.22,3.71-1.93,5.55a320.17,320.17,0,0,1-19.69,43.44c-2,3.51-4,7-6,10.49l-2.67,4.65-1.34,2.34c-.46.78-.89,1.56-1.28,2.35A156,156,0,0,0,495,801.94a120.2,120.2,0,0,0-7.7,38.54l0,4.75.22,4.71c.23,3.12.51,6.25,1,9.32a102.24,102.24,0,0,0,4.45,18.08,92.33,92.33,0,0,0,7.83,17,55.93,55.93,0,0,1,4.22,8.69,50.65,50.65,0,0,1,1.6,4.92,40.19,40.19,0,0,1,1.12,5.64l-.74.71a29.17,29.17,0,0,1-13-3.44,31.55,31.55,0,0,1-9.14-7,92.46,92.46,0,0,1-7-8.53c-1-1.51-2.12-3-3.05-4.54s-1.94-3.09-2.76-4.71a95.21,95.21,0,0,1-11.34-41.89c-.65-14.79,1.43-29.93,5.42-44.82.52-1.86.94-3.74,1.51-5.59l1.74-5.56.85-2.79,1-2.76,2-5.53c1.34-3.69,2.91-7.32,4.34-11,1.28-3.33,2.57-6.55,3.78-9.83,9.52-26.15,14.1-52.57,13.29-77.83a167.19,167.19,0,0,0-1.55-18.7,158,158,0,0,0-3.48-18.07,144.36,144.36,0,0,0-5.47-17.13c-1.08-2.75-2.25-5.43-3.49-8-.63-1.27-1.27-2.51-1.93-3.68-.33-.58-.66-1.15-1-1.67-.17-.28-.32-.49-.47-.72l-.12-.17-.09-.11-.09-.11,0,0v.05l0,.1Z"/></clipPath><clipPath id="clip-path-8" transform="translate(-4.7 3.68)"><path class="cls-1" d="M633.37,534.05l0,.39a2,2,0,0,0,.08.46l.26,1.1c.18.73.36,1.47.6,2.25.45,1.55.84,3.08,1.36,4.65l1.51,4.69,1.67,4.7c2.22,6.29,4.83,12.49,7.55,18.67,1.3,3.13,2.82,6.15,4.29,9.21l2.23,4.58,2.38,4.51,2.39,4.53,1.19,2.26,1.27,2.23,5.19,8.86c.85,1.5,1.81,2.92,2.73,4.37l2.78,4.34c1.87,2.89,3.69,5.83,5.72,8.62s4,5.63,6,8.46c1,1.43,2.08,2.78,3.15,4.14l3.24,4.11a320.18,320.18,0,0,0,28.15,31.49c.63.63,1.24,1.28,1.89,1.89l2,1.81,4,3.61,8,7.26,8.52,7.55,4.28,3.74c.7.63,1.43,1.24,2.12,1.88l2,2,8.11,7.83c1.35,1.3,2.74,2.56,4,4l3.84,4.07,3.83,4.07,1.91,2c.64.68,1.19,1.41,1.79,2.12l7.15,8.48c9.09,11.58,17.21,23.81,23.08,37.08.71,1.67,1.5,3.29,2.14,5l1.85,5.11.9,2.56.72,2.63c.47,1.76,1,3.49,1.41,5.26l1.06,5.37c.21.88.27,1.81.41,2.72s.24,1.82.33,2.73a22.61,22.61,0,0,1-1.9,11.49l-1.05.11a24.66,24.66,0,0,1-1.24-2.46,22.39,22.39,0,0,1-1.06-2.45c-.33-.81-.67-1.63-1-2.45s-.5-1.64-.81-2.46c-.55-1.63-.93-3.3-1.51-4.93l-1.77-4.84c-.63-1.6-1.35-3.17-2-4.76l-1-2.36L798,786l-2.32-4.62c-.79-1.53-1.74-3-2.6-4.49l-2.65-4.46-2.91-4.32-2.9-4.33-3.22-4.15-3.21-4.15-.81-1-.88-1-1.76-2-3.52-4c-1.2-1.3-2.28-2.67-3.6-3.9l-7.63-7.5c-.66-.61-1.26-1.26-2-1.84L756,732.48,751.81,729c-5.32-4.81-11.48-9-17.38-13.29l-2.24-1.6c-.77-.51-1.57-1-2.36-1.49l-4.74-3-9.52-5.84-10.05-6.14-5-3.08L698,693c-.83-.52-1.61-1.08-2.42-1.63l-9.7-6.56L681,681.53l-4.64-3.47L667,671.13c-1.59-1.14-3.07-2.36-4.56-3.57l-4.5-3.63-4.49-3.65c-1.51-1.22-3-2.42-4.43-3.71-2.88-2.52-5.73-5.07-8.65-7.59s-5.71-5.12-8.5-7.73l-4.19-3.93c-1.39-1.32-2.82-2.61-4.14-4l-8.07-8.11-2-2-2-2.07L607.53,617l-3.93-4.17-3.78-4.26c-2.49-2.87-5.12-5.66-7.54-8.6-5-5.78-9.77-11.71-14.5-17.78l-3.52-4.57-3.44-4.7c-1.17-1.53-2.29-3.2-3.44-4.81-.57-.79-1.14-1.65-1.71-2.52l-.87-1.29a8.43,8.43,0,0,1-.47-.75l-.5-.82Z"/></clipPath><clipPath id="clip-path-9" transform="translate(-4.7 3.68)"><path class="cls-1" d="M703.81,264.88c69.09,124.33-18.85,301.24-156.58,353S251.53,586.84,205,452.42c-38-109.72,13.44-304.68,149.56-359.28C475,44.85,651.61,171,703.81,264.88Z"/></clipPath><clipPath id="clip-path-10" transform="translate(-4.7 3.68)"><path class="cls-1" d="M299.09,247a159.94,159.94,0,0,0-20.76,1.15c-4.8.58-10,1.63-13.08,5.36-.85,1-1.76,2.37-3.09,2.27a3.51,3.51,0,0,1-1.4-.55A89.24,89.24,0,0,1,231.47,228a7.73,7.73,0,0,1-1.73-4.34c0-1.57,1-3,1.45-4.45,1.39-4.38-1.44-9.23-5.4-11.58s-8.73-2.76-13.33-3c-11.59-.46-23.19.14-34.77.74a711.52,711.52,0,0,0,17.3,266c3.92,15,8.34,29.87,14.8,43.93,14.52,31.64,38.78,57.9,65.38,80.35a329.49,329.49,0,0,0,50.54,35.68C398.9,672.61,492,676.31,568.26,641c6.26-2.9,12.68-6.27,16.62-11.94,6.4-9.21,4.31-22.41-2.39-31.4S565.43,583.14,555,579c-57.22-22.58-125.14-11.84-178.64-42.2-28.93-16.41-50.62-43.54-65.71-73.17S286.52,401.73,278,369.58c-3.76-14.2-7.46-28.56-8-43.24a101.77,101.77,0,0,1,22.61-67.18C296.07,255,298.74,252.41,299.09,247Z"/></clipPath><clipPath id="clip-path-11" transform="translate(-4.7 3.68)"><path class="cls-1" d="M664.31,430.77l19.78-3.11c15.42,15,39.91,19.76,59.84,11.7,22.83-9.24,36.86-32.16,47-54.59,22.28-49.16,33.46-106.85,13.3-156.91-9.92-24.61-26.74-45.78-44.59-65.41-20.7-22.76-43.44-44.23-70.5-58.85-42.63-23-92.68-27.45-138.18-44.1C517.32,47.18,485.64,28,450.14,23.09c-49.7-6.9-98.54,15-142.88,38.52-9.95,5.26-20.9,12-22.93,23.11-1.13,6.21.89,12.53,3.2,18.4,18.13,45.86,57.63,82.74,104.61,97.71,23.67,7.53,48.94,9.77,71.9,19.23,42.43,17.48,71.3,56.95,95.24,96.1,15,24.44,29,49.6,46.61,72.3,8,10.36,17.93,24.39,29.29,31.31C644.62,425.52,655.91,420.78,664.31,430.77Z"/></clipPath><radialGradient id="radial-gradient" cx="288.57" cy="384.23" fx="295.2247481823584" fy="352.15490696459915" r="48.13" gradientTransform="translate(-184.04 479.65) rotate(-64.26)" gradientUnits="userSpaceOnUse"><stop offset="0" stop-color="#fff"/><stop offset="0.04" stop-color="#dedede"/><stop offset="0.1" stop-color="#b0b0b0"/><stop offset="0.16" stop-color="#868686"/><stop offset="0.23" stop-color="#626262"/><stop offset="0.3" stop-color="#434343"/><stop offset="0.38" stop-color="#2a2a2a"/><stop offset="0.47" stop-color="#171717"/><stop offset="0.58" stop-color="#0a0a0a"/><stop offset="0.71" stop-color="#020202"/><stop offset="0.97"/></radialGradient><radialGradient id="radial-gradient-2" cx="571.77" cy="397.96" fx="578.5371020582862" fy="368.8380050842199" r="48.98" gradientTransform="translate(71.81 -238.02) rotate(9.44)" gradientUnits="userSpaceOnUse"><stop offset="0" stop-color="#fff"/><stop offset="0.01" stop-color="#f5f5f5"/><stop offset="0.1" stop-color="#bebdbe"/><stop offset="0.17" stop-color="#918f90"/><stop offset="0.25" stop-color="#6e6c6c"/><stop offset="0.32" stop-color="#555253"/><stop offset="0.38" stop-color="#454243"/><stop offset="0.43" stop-color="#403d3e"/><stop offset="0.5" stop-color="#2a2829"/><stop offset="0.57" stop-color="#171617"/><stop offset="0.66" stop-color="#0a0a0a"/><stop offset="0.78" stop-color="#020202"/><stop offset="1"/></radialGradient></defs><g id="Layer_7" data-name="Layer 7"><circle class="cls-2" cx="507.81" cy="515.68" r="502.81"/></g><g id="Tentacles"><g class="cls-3"><path class="cls-4" d="M579.56,593.46a1.57,1.57,0,0,0,0-.23v-.06s0,0,0,.07l-.08.16-.3.64-.16.32-.17.43-.34.88c-.23.61-.48,1.13-.69,1.81l-.66,2c-.22.67-.45,1.32-.66,2l-.59,2.13c-.37,1.44-.84,2.81-1.15,4.32-.64,3-1.47,5.91-1.94,9s-1.17,6.16-1.5,9.36l-.61,4.76c-.1.8-.22,1.59-.3,2.39l-.18,2.43c-.24,3.24-.53,6.47-.73,9.74l-.26,9.88c-.18,3.29,0,6.63.09,10,.5,26.69,4.5,54,11.12,81L581,749l.69,2.52,1.39,5,2.75,10.09,1.37,5.07,1.54,5.25c1,3.5,2.06,7,3,10.52,3.91,14.06,7.45,28.25,10.33,42.62q2.18,10.77,3.7,21.71c1,7.27,1.74,14.63,2,22,.11,1.84.09,3.72.13,5.57s0,3.72-.08,5.58a98.82,98.82,0,0,1-1,11.2,51.27,51.27,0,0,1-2.9,11.06,19.21,19.21,0,0,1-3.09,5,12,12,0,0,1-2.25,2,6.46,6.46,0,0,1-2.77,1.18l-.1-.21a17.17,17.17,0,0,0,2-4.78c.45-1.6.75-3.23,1.08-4.84a50.41,50.41,0,0,0,.85-10,90.76,90.76,0,0,0-.75-10.25c-.26-1.72-.47-3.42-.78-5.13s-.59-3.41-1-5.11c-1.43-6.81-3.24-13.55-5.35-20.24s-4.39-13.31-6.91-19.88c-5-13.14-10.62-26.09-16.6-38.88-1.47-3.2-3-6.38-4.56-9.57l-2.3-4.77-2.31-5-4.59-10.08-2.29-5-1.15-2.53-1-2.58A410.13,410.13,0,0,1,524,670.2c-1.5-7.53-2.33-15.24-3.31-23-.36-3.89-.62-7.81-.92-11.72l-.22-2.95c0-1-.06-2-.09-3l-.15-6c-.18-4,0-8,.07-12s.44-8.15.71-12.25c.14-2.05.47-4.17.71-6.25l.39-3.15c.15-1.06.35-2.15.53-3.22l.55-3.24c.18-1.07.47-2.25.7-3.37l.38-1.71.19-.85.26-1,.51-1.91.13-.48.07-.25.13-.38.5-1.5Z" transform="translate(-4.7 3.68)"/></g><path class="cls-5" d="M594.82,584a2,2,0,0,0,0-.24v-.06l0,.07-.07.16-.31.64-.16.32-.17.44-.34.88c-.22.61-.47,1.13-.69,1.81l-.65,2c-.22.67-.46,1.32-.66,2l-.59,2.13c-.38,1.44-.84,2.81-1.16,4.31-.64,3-1.46,5.92-1.93,9s-1.18,6.16-1.51,9.35l-.61,4.77c-.09.8-.22,1.59-.3,2.39l-.18,2.42c-.23,3.24-.53,6.48-.73,9.75l-.26,9.87c-.17,3.3.06,6.63.09,10,.51,26.69,4.51,54,11.13,81l.57,2.54.69,2.51,1.38,5,2.76,10.1,1.37,5.06L604,767.5c1,3.51,2.06,7,3,10.52,3.92,14.06,7.46,28.25,10.33,42.63,1.46,7.17,2.69,14.42,3.7,21.7s1.75,14.64,2,22c.11,1.84.08,3.71.13,5.56s-.06,3.73-.08,5.58a98.39,98.39,0,0,1-1,11.2,51.94,51.94,0,0,1-2.9,11.07,19.37,19.37,0,0,1-3.09,5,12,12,0,0,1-2.25,2,6.41,6.41,0,0,1-2.77,1.19l-.11-.21a16.91,16.91,0,0,0,2-4.78c.44-1.61.75-3.23,1.07-4.84a50.51,50.51,0,0,0,.86-10,93.15,93.15,0,0,0-.75-10.25c-.27-1.71-.48-3.42-.79-5.13s-.58-3.41-1-5.11c-1.43-6.8-3.24-13.55-5.35-20.23s-4.4-13.31-6.92-19.88c-5-13.15-10.61-26.09-16.6-38.88-1.46-3.21-3-6.39-4.55-9.57l-2.3-4.77-2.31-5-4.6-10.07-2.29-5-1.15-2.53-1-2.58a410.15,410.15,0,0,1-26.12-86.32c-1.5-7.53-2.32-15.25-3.3-23-.37-3.88-.62-7.8-.92-11.72l-.22-2.94c0-1-.06-2-.09-3l-.16-6c-.17-4,0-8,.08-12s.44-8.15.71-12.25c.14-2,.47-4.17.7-6.26l.39-3.14c.16-1.06.36-2.15.53-3.23l.56-3.24c.17-1.06.47-2.25.7-3.37l.38-1.7.19-.86.25-1,.52-1.92.13-.48.07-.25.12-.37.5-1.5Z" transform="translate(-4.7 3.68)"/><g class="cls-6"><g class="cls-3"><path class="cls-7" d="M619.84,551.25a.57.57,0,0,0,0-.13c0-.06,0,0-.06.1l-.09.21-.36.8a9.25,9.25,0,0,0-.37.94l-.39,1c-.54,1.31-1,2.88-1.47,4.36s-.9,3.08-1.34,4.64-.88,3.13-1.2,4.77l-1.1,4.87c-.38,1.62-.6,3.29-.91,4.94l-.88,5-.65,5a258.55,258.55,0,0,0-1.93,40.84,383.92,383.92,0,0,0,10.95,81.72c.33,1.7.78,3.36,1.24,5l1.33,5,2.67,10,1.32,5,1.45,5.15c1,3.43,2,6.85,2.86,10.31,3.72,13.78,7.08,27.69,9.81,41.79a296.16,296.16,0,0,1,5.54,43,126,126,0,0,1-.79,22.31,54.89,54.89,0,0,1-2.66,11.45,22.06,22.06,0,0,1-3.07,5.65,13.39,13.39,0,0,1-1.11,1.32,11.55,11.55,0,0,1-1.27,1.25,8.56,8.56,0,0,1-3.21,1.85l-.1-.17a9.22,9.22,0,0,0,1.43-2.53,18.89,18.89,0,0,0,.8-2.56,57.83,57.83,0,0,0,1.59-15.54A112.94,112.94,0,0,0,635,838.24a277.61,277.61,0,0,0-12.64-39.61c-5.06-13-10.74-25.69-16.76-38.29-1.47-3.15-3-6.28-4.58-9.42l-2.31-4.7-2.29-4.87-4.56-9.77-2.27-4.89c-.77-1.63-1.53-3.26-2.18-4.94-11.44-26.45-20.61-54.1-26.22-83.27a274.7,274.7,0,0,1-5.08-45.08l-.16-5.83.11-5.93c.06-2,0-3.94.17-6l.42-6.06c.11-2,.37-4.09.62-6.17s.46-4.13.87-6.31.67-4.24,1.22-6.57l.37-1.71c.13-.57.24-1.11.43-1.78l.51-1.92.13-.48c0-.16.08-.29.18-.57l.49-1.48Z" transform="translate(-4.7 3.68)"/></g></g><g class="cls-3"><path class="cls-4" d="M630.32,475.73l.66.13.41.09.69.16,1.18.29c.78.2,1.4.38,2.09.57s1.29.39,1.93.58l1.85.6c1.22.4,2.41.81,3.55,1.24s2.3.85,3.42,1.3c4.48,1.78,8.73,3.73,12.87,5.81a183.24,183.24,0,0,1,23.17,14.29,202.84,202.84,0,0,1,37.94,36.28A230.36,230.36,0,0,1,735,557.88l3.35,5.38c1.11,1.8,2.11,3.65,3.16,5.46,2.14,3.62,4,7.36,6,11,1,1.84,1.82,3.74,2.72,5.61s1.79,3.74,2.62,5.64l2.43,5.69,1.21,2.85,1.11,2.87,2.21,5.74,2,5.2,1.86,5,2,4.92a289.22,289.22,0,0,0,44.81,73.88,314,314,0,0,0,30.43,32.18q8.19,7.54,17,14.49c2.91,2.33,5.9,4.54,8.88,6.77a18.18,18.18,0,0,1,3.89,4.37,20.82,20.82,0,0,1,2.79,6.67,16.36,16.36,0,0,1-7.26,1.23,17.14,17.14,0,0,1-6-1.41c-3.53-1.71-7-3.58-10.4-5.48q-10.28-5.72-20.11-12.21A336.86,336.86,0,0,1,792,715c-6-5.24-11.65-10.82-17.27-16.51l-4.12-4.36L768.56,692l-2-2.24-4-4.49-3.89-4.61c-2.63-3-5-6.27-7.58-9.42-1.26-1.59-2.42-3.24-3.64-4.85s-2.43-3.24-3.58-4.91l-3.46-5-1.71-2.52-1.64-2.57-3.27-5.15c-1.1-1.72-2.09-3.5-3.14-5.25s-2.08-3.51-3.09-5.29l-2.92-5.39-1.46-2.7-1.36-2.48-2.57-4.64L718,618.15l-1.36-2.26-2.71-4.5c-.91-1.5-1.9-2.93-2.85-4.4s-1.85-3-2.87-4.35c-2-2.83-3.92-5.71-6-8.41-1-1.35-2-2.76-3.13-4.08l-3.23-4A183.81,183.81,0,0,0,682,571.45a153.39,153.39,0,0,0-31-23.39,124.49,124.49,0,0,0-16.71-7.95c-2.79-1.07-5.59-2-8.28-2.8-.68-.19-1.35-.38-2-.53s-1.29-.33-1.9-.46l-.9-.18c-.28,0-.6-.13-.83-.16s-.53-.09-.68-.09l-.22,0v0h.06l.31.07Z" transform="translate(-4.7 3.68)"/></g><path class="cls-8" d="M645.58,466.29l.67.13.41.09.69.16,1.17.3c.79.19,1.41.38,2.1.57s1.29.38,1.93.58,1.26.39,1.85.59c1.21.4,2.4.82,3.55,1.24s2.29.86,3.41,1.3c4.48,1.78,8.74,3.74,12.88,5.82a184.34,184.34,0,0,1,23.17,14.28,203.52,203.52,0,0,1,37.94,36.29,230.92,230.92,0,0,1,14.92,20.81l3.34,5.38c1.12,1.79,2.11,3.64,3.17,5.46,2.14,3.62,4,7.35,6,11,1,1.84,1.82,3.74,2.72,5.62s1.79,3.74,2.61,5.64l2.43,5.69,1.21,2.84,1.12,2.88,2.2,5.74,2,5.2,1.86,5,2,4.93a288.94,288.94,0,0,0,44.81,73.88A314.91,314.91,0,0,0,856.1,719.9q8.21,7.54,17,14.49c2.91,2.33,5.91,4.54,8.89,6.77a18.37,18.37,0,0,1,3.89,4.37,20.89,20.89,0,0,1,2.78,6.68,16.34,16.34,0,0,1-7.26,1.22,16.87,16.87,0,0,1-6-1.41c-3.54-1.71-7-3.57-10.4-5.48q-10.28-5.71-20.11-12.2a337,337,0,0,1-37.63-28.74c-6-5.24-11.65-10.83-17.27-16.51l-4.12-4.36-2.06-2.19-2-2.24-4-4.49-3.88-4.62c-2.64-3-5.06-6.26-7.58-9.42-1.26-1.58-2.42-3.23-3.64-4.85s-2.44-3.23-3.59-4.9l-3.45-5L754,644.49l-1.63-2.57L749,636.77c-1.1-1.71-2.08-3.5-3.13-5.24s-2.08-3.52-3.09-5.29l-2.92-5.39-1.46-2.71-1.36-2.47L734.51,611l-1.29-2.31-1.36-2.26L729.14,602c-.91-1.49-1.9-2.93-2.84-4.39s-1.86-2.95-2.87-4.35c-2-2.83-3.92-5.71-6-8.41-1-1.36-2-2.76-3.12-4.08l-3.24-4A180.25,180.25,0,0,0,697.28,562a153.73,153.73,0,0,0-31-23.4,125.59,125.59,0,0,0-16.71-7.94c-2.8-1.07-5.59-2-8.29-2.8-.67-.19-1.34-.39-2-.54s-1.29-.32-1.91-.45c-.32-.08-.61-.13-.89-.19s-.6-.12-.83-.15-.54-.09-.69-.1-.22,0-.22,0h0l.06,0,.32.06Z" transform="translate(-4.7 3.68)"/><g class="cls-9"><g class="cls-3"><path class="cls-7" d="M674.65,443.62l.81.16.43.09.81.19,1.3.32c.86.22,1.56.42,2.34.63,1.43.43,2.83.86,4.13,1.3,2.65.87,5.1,1.81,7.5,2.76,4.77,1.93,9.19,4,13.43,6.25a169.14,169.14,0,0,1,23.15,14.81A180.93,180.93,0,0,1,748,487.19a194.9,194.9,0,0,1,16.36,18.66,215.73,215.73,0,0,1,13.58,19.88c2.13,3.37,4,6.83,5.92,10.27,1,1.7,1.82,3.47,2.73,5.21s1.81,3.47,2.64,5.23c3.33,7,6.41,14.17,9.09,21.4l3.84,10.37,1.8,4.93,2,4.86a289.19,289.19,0,0,0,43.52,73.18c2.24,2.86,4.64,5.61,7,8.41s4.84,5.51,7.37,8.19q7.53,8.1,15.72,15.76t17.13,14.73c3,2.39,6,4.64,9.08,6.94a16.66,16.66,0,0,1,3.78,4.3,15.6,15.6,0,0,1,2.17,6.29,23.47,23.47,0,0,1-8.39.54,21.53,21.53,0,0,1-6.5-1.75c-3.71-1.84-7.32-3.8-10.87-5.81q-10.68-6-20.74-12.73t-19.53-14c-3.18-2.41-6.24-4.92-9.34-7.42s-6.09-5.07-9-7.71a325.89,325.89,0,0,1-32.75-33.66,287.38,287.38,0,0,1-27.1-37.73l-3-5-2.82-5.06-2.78-5-2.58-4.58c-3.41-6.12-7.2-12-11-17.81-1-1.45-2-2.85-3-4.28s-2-2.86-3-4.23c-2.11-2.75-4.16-5.55-6.41-8.19a188.23,188.23,0,0,0-14-15.36,167.82,167.82,0,0,0-32.37-25.45,130.8,130.8,0,0,0-18.15-9.16,97.16,97.16,0,0,0-9.22-3.36c-1.5-.45-3-.88-4.39-1.2-.71-.18-1.36-.31-2-.43-.26,0-.59-.11-.77-.13l-.27,0,0,0s0,0,0,0l.42.08Z" transform="translate(-4.7 3.68)"/></g></g><g class="cls-3"><path class="cls-4" d="M632.75,495.66c-1.73-.55-3.67-1.09-5-1.47-.73-.22-1.48-.37-2.22-.53a9,9,0,0,0-1.86-.2c-.32,0-.63.07-.94.12a1.76,1.76,0,0,0-1.3,1.69c-.16,0-.14,1.16.39,2.88-1.6-1,4.39,8.66,11.41,8.1,8.23-.85,9.36-3.95,9.69-3.73A11.28,11.28,0,0,1,644.6,501c.28-.19.63-.57.82-.66s.7-.28,1-.33h.8a4.29,4.29,0,0,1,.73.15,2.7,2.7,0,0,1,.64.16l.55.19c.36.13.74.33,1.07.46.56.3,1.18.63,1.68.95a8.86,8.86,0,0,1,2.1,1.78,2.28,2.28,0,0,1,.6,1.51c-.07.45-.21.9-.31,1.36l-.66,2.87c-.86,3.92-1.66,8-2.38,12.18s-1.36,8.34-2,12.55-1.21,8.42-1.73,12.66-1,8.48-1.37,12.72-.82,8.5-1.13,12.75-.54,8.5-.77,12.75-.4,8.5-.5,12.74a404,404,0,0,0,1.76,50.52c.84,8.31,2,16.57,3.52,24.69a231.74,231.74,0,0,0,5.78,24c1.17,3.92,2.46,7.8,3.88,11.61l2.35,6.45,2.38,6.63,2.38,6.61L667.9,735l2.08,6.68c.67,2.23,1.43,4.43,2,6.69l3.67,13.43c.29,1.12.62,2.24.89,3.36l.81,3.38,1.61,6.74,1.6,6.74,1.43,6.77,1.42,6.76c.47,2.26,1,4.5,1.34,6.77l2.46,13.56,2.15,13.58c1.34,9.07,2.61,18.12,3.64,27.2s2,18.15,2.72,27.24l.5,6.82a37.63,37.63,0,0,1,0,6.88c-.1,1.16-.25,2.32-.46,3.49-.12.59-.25,1.17-.4,1.76s-.31,1.18-.49,1.77a28.14,28.14,0,0,1-1.34,3.55,21.83,21.83,0,0,1-2,3.59l-1,.07a29.43,29.43,0,0,1-4.62-6.3,38.32,38.32,0,0,1-2.83-6.41,48.43,48.43,0,0,1-1.6-6.52L680.25,886c-1.78-8.73-3.61-17.45-5.74-26.09-4.2-17.3-9-34.42-14.61-51.2s-11.79-33.29-18.78-49.31c-.81-2-1.8-4-2.7-6l-2.75-5.93L633,741.61l-3-5.8-6-11.72c-2.26-4.4-4.35-8.87-6.31-13.39a245.65,245.65,0,0,1-9.91-27.65,289.7,289.7,0,0,1-6.67-28.31,342.14,342.14,0,0,1-5.35-57.17q-.09-7.14.05-14.26c.09-4.74.34-9.48.61-14.21s.62-9.45,1-14.17,1-9.42,1.56-14.12c1.19-9.4,2.63-18.76,4.54-28.15.94-4.71,2-9.41,3.15-14.25l1-3.69c.17-.62.31-1.27.53-1.9a4.24,4.24,0,0,1,1.5-1.75,12.61,12.61,0,0,1,3.07-1.45L615,489c.42-.13.88-.2,1.34-.34l1.49-.43c.29-.09.57-.12.89-.24s.65-.26,1-.38.79-.5,1.19-.71c.22-.15.61-.59.93-.84a19.6,19.6,0,0,0,1.81-1.7c.36.17,1.54-3,9.85-3.85,7.08-.55,13.13,9.14,11.54,8.24.55,1.79.59,3,.43,3.09a8.49,8.49,0,0,1-.34,1.28,9.52,9.52,0,0,1-.93,1c-.32.19-.64.38-1,.55a12.06,12.06,0,0,1-1.93.63c-.78.12-1.55.25-2.32.32a49.58,49.58,0,0,1-5.24.19Z" transform="translate(-4.7 3.68)"/></g><path class="cls-10" d="M648,486.23c-1.72-.55-3.66-1.1-5-1.48-.73-.21-1.48-.36-2.22-.52a9.64,9.64,0,0,0-1.86-.21c-.31,0-.63.07-.94.13a4.86,4.86,0,0,0-.93.62,6.25,6.25,0,0,0-.36,1.06c-.16,0-.14,1.17.39,2.89-1.6-1,4.39,8.65,11.41,8.1,8.23-.85,9.36-4,9.68-3.73a11.16,11.16,0,0,1,1.68-1.53c.28-.19.64-.57.83-.66s.7-.28,1-.33h.81c.26,0,.48.11.73.15a3.42,3.42,0,0,1,.64.17l.55.19c.36.13.73.32,1.06.46a17.93,17.93,0,0,1,1.68.95,8.94,8.94,0,0,1,2.11,1.78,2.26,2.26,0,0,1,.6,1.51c-.07.45-.21.89-.32,1.36l-.65,2.86c-.87,3.93-1.66,8.05-2.39,12.19s-1.36,8.34-2,12.54-1.21,8.43-1.72,12.66-1,8.48-1.38,12.73-.81,8.49-1.12,12.75-.55,8.5-.78,12.75-.4,8.5-.49,12.74a405.74,405.74,0,0,0,1.75,50.51c.84,8.32,2,16.57,3.53,24.7a226.54,226.54,0,0,0,5.78,24c1.17,3.93,2.45,7.8,3.87,11.62l2.36,6.44,2.38,6.63,2.37,6.62,2.11,6.68,2.09,6.68c.67,2.23,1.43,4.44,2,6.69l3.66,13.44c.3,1.12.63,2.23.9,3.36l.81,3.37,1.61,6.75,1.6,6.74,1.43,6.77,1.41,6.76c.47,2.25,1,4.5,1.35,6.77l2.46,13.55L704.64,820c1.33,9.06,2.61,18.12,3.63,27.19s2,18.16,2.73,27.24l.5,6.83a38.54,38.54,0,0,1,0,6.88,35.17,35.17,0,0,1-.47,3.49c-.11.58-.24,1.17-.4,1.76s-.3,1.17-.49,1.76a28.18,28.18,0,0,1-1.33,3.56,21.36,21.36,0,0,1-2,3.58l-1,.08a29.32,29.32,0,0,1-4.61-6.31,38.59,38.59,0,0,1-2.83-6.4,46,46,0,0,1-1.6-6.53l-1.25-6.56c-1.78-8.73-3.62-17.45-5.75-26.1-4.2-17.29-9-34.41-14.61-51.2S663.37,766,656.39,750c-.82-2-1.8-4-2.7-6l-2.75-5.92-2.73-5.93-2.94-5.79-6-11.72q-3.39-6.6-6.31-13.39a247.14,247.14,0,0,1-9.92-27.65q-4-14.05-6.67-28.32a343.1,343.1,0,0,1-5.35-57.17c0-4.75,0-9.51.06-14.25s.34-9.49.6-14.22.63-9.45,1-14.16,1-9.42,1.57-14.12c1.18-9.4,2.63-18.77,4.54-28.16.94-4.7,2-9.4,3.15-14.24l.94-3.69c.18-.63.32-1.27.54-1.91a4.16,4.16,0,0,1,1.5-1.74,12.42,12.42,0,0,1,3.07-1.46l2.2-.65c.43-.13.89-.2,1.34-.34l1.49-.43c.3-.09.58-.13.89-.24s.65-.27,1-.39.79-.49,1.18-.71c.22-.15.62-.58.93-.83a19.79,19.79,0,0,0,1.81-1.7c.37.17,1.55-3,9.85-3.85,7.09-.55,13.13,9.14,11.55,8.24.55,1.78.59,3,.43,3.09a8,8,0,0,1-.35,1.27,8.64,8.64,0,0,1-.92,1.05l-1,.54a11.29,11.29,0,0,1-1.94.64c-.77.12-1.54.25-2.31.31a49.5,49.5,0,0,1-5.24.2Z" transform="translate(-4.7 3.68)"/><g class="cls-11"><g class="cls-3"><path class="cls-7" d="M671,459.91c-1.82-.24-3.88-.44-5.29-.61-.77-.08-1.56-.13-2.34-.17a10.72,10.72,0,0,0-2,0,3.53,3.53,0,0,0-1,.22c-.17.08-.33.17-.49.26a.83.83,0,0,0-.47.49,4.53,4.53,0,0,0-.38.83c.33,1.42-.48.92,1.38,3.84,1.06,6.1,18.15,3.52,20,.08a36.18,36.18,0,0,0,3-2.73c.33-.27.7-.64,1-.88L685,461a2.17,2.17,0,0,1,.91-.28l.39-.07.36,0c.24,0,.48,0,.71,0a10.85,10.85,0,0,1,1.19.24,11.19,11.19,0,0,1,1.11.3c.59.2,1.24.46,1.76.69a7.26,7.26,0,0,1,2.21,1.47,2,2,0,0,1,.62,1.48c-.08.49-.23,1-.34,1.5l-.71,3.11c-.92,4.22-1.74,8.58-2.49,13s-1.4,8.77-2,13.17-1.23,8.82-1.75,13.23-.94,8.82-1.36,13.22-.79,8.81-1.09,13.21-.5,8.78-.72,13.17-.35,8.76-.42,13.12a411.69,411.69,0,0,0,2.2,51.69c.93,8.47,2.14,16.87,3.8,25.12a231.79,231.79,0,0,0,6.07,24.36c.6,2,1.25,4,1.92,5.93l1,2.94,1.1,3,4.57,12.9c1.58,4.28,2.83,8.65,4.19,13l2,6.52,1,3.26.88,3.29,3.48,13.15c1.11,4.39,2.07,8.82,3.11,13.23.5,2.2,1,4.4,1.51,6.61l1.35,6.66,1.34,6.65.67,3.32.59,3.35,2.34,13.36,2,13.42c1.25,9,2.5,17.93,3.48,26.93s1.84,18,2.55,27.09l.45,6.81a37,37,0,0,1,0,6.9c-.12,1.18-.28,2.36-.52,3.56-.13.6-.27,1.2-.44,1.81s-.32,1.22-.52,1.83A29.26,29.26,0,0,1,732,872a24.52,24.52,0,0,1-2.15,3.84l-1.06.2a25,25,0,0,1-4.84-5.86,33.07,33.07,0,0,1-2.94-6.17,41.4,41.4,0,0,1-1.65-6.44l-1.29-6.51c-1.81-8.65-3.72-17.28-5.84-25.84-4.19-17.13-9-34.06-14.67-50.66l-1-3.12-1.1-3.09-2.2-6.19-2.2-6.17c-.76-2-1.58-4.08-2.37-6.12-1.6-4.06-3.13-8.14-4.8-12.17l-5.14-12-1.28-3-1.38-3-2.78-5.89c-1.85-3.92-3.6-7.89-5.66-11.71l-5.93-11.54-1.6-3.07-1.59-3.17q-1.57-3.18-3-6.41a232.87,232.87,0,0,1-10-26.35,275.11,275.11,0,0,1-6.87-27.22,325.84,325.84,0,0,1-5.86-56q-.15-7.06-.06-14.17c0-4.73.26-9.47.5-14.22s.57-9.5,1-14.25.94-9.53,1.51-14.3c1.16-9.55,2.6-19.11,4.52-28.76.95-4.84,2-9.68,3.19-14.65l1-3.78c.18-.64.32-1.29.55-1.95a5.13,5.13,0,0,1,1.55-2,16.23,16.23,0,0,1,3.21-2c.71-.34,1.53-.66,2.31-1l1.4-.54c.49-.17.93-.43,1.51-.62.28-.1.58-.26.87-.38l.45-.19.48-.28a7.49,7.49,0,0,0,1.11-.7l.67-.47c.31-.31.72-.74,1.1-1.08a31.56,31.56,0,0,1,3.14-2.92c1.92-3.5,19.12-6.1,20.21.07,1.9,3,1.1,2.55,1.47,4a6.9,6.9,0,0,1-.37,1,1.43,1.43,0,0,1-.45.7l-.49.48a5.94,5.94,0,0,1-1,.65,14.39,14.39,0,0,1-2,.89c-.81.25-1.63.49-2.44.69-1.48.41-3.62.78-5.53,1.12Z" transform="translate(-4.7 3.68)"/></g></g><g class="cls-3"><path class="cls-4" d="M556.55,536.67l1.1.16.41.07.33.06,1.31.25c.46.09.81.18,1.19.26l1.13.26c1.55.35,2.87.74,4.29,1.11s2.69.8,4,1.2,2.65.82,3.93,1.27c5.17,1.75,10.08,3.76,14.92,5.87a198.8,198.8,0,0,1,27.33,14.94c4.34,2.75,8.43,5.85,12.54,8.85,4,3.22,8,6.28,11.69,9.74l2.8,2.55c.93.85,1.87,1.68,2.74,2.6l5.29,5.35c2,2,2.73,2.93,3.88,4.25.51.64,1.14,1.19,1.71,1.8s1.14,1.23,1.79,1.78c1.26,1.13,2.51,2.32,3.9,3.39.69.54,1.34,1.14,2.07,1.66l2.16,1.6a87.87,87.87,0,0,0,9.47,5.86,127.34,127.34,0,0,0,21.92,9.06,181.33,181.33,0,0,0,24.39,5.69c4.19.69,8.43,1.22,12.7,1.65a28.8,28.8,0,0,1,13.57,5.3l.17,1a20.8,20.8,0,0,1-6,5.53,24.54,24.54,0,0,1-6.57,2.8c-4.49,1.1-9,2-13.61,2.81s-9.23,1.45-13.93,1.91-9.45.73-14.26.84a149.28,149.28,0,0,1-29.46-2.28,117,117,0,0,1-30.12-9.5c-1.25-.54-2.45-1.24-3.69-1.87s-2.47-1.26-3.66-2c-2.33-1.37-5.13-3.17-6.53-3.84l-5.09-2.75c-.83-.47-1.72-.87-2.59-1.27l-2.6-1.22c-3.39-1.74-7-3.09-10.42-4.57-3.57-1.27-7-2.64-10.64-3.66a149.31,149.31,0,0,0-21.36-5.08c-3.53-.55-7-1-10.44-1.26-.85-.08-1.69-.15-2.5-.18s-1.66-.11-2.41-.1-1.58,0-2.21,0h-.5a2.59,2.59,0,0,0-.44,0l-.32,0-.08,0s-.07,0,0,0l.28.07Z" transform="translate(-4.7 3.68)"/></g><path class="cls-12" d="M571.81,527.24l1.11.15.41.07.33.07,1.31.25c.46.09.81.17,1.19.26l1.13.26c1.55.35,2.87.73,4.28,1.11s2.7.8,4,1.2,2.64.82,3.92,1.27c5.18,1.75,10.08,3.76,14.92,5.87a198.16,198.16,0,0,1,27.33,14.93c4.34,2.75,8.44,5.85,12.54,8.85,4,3.22,8,6.29,11.7,9.75l2.8,2.55c.92.85,1.86,1.68,2.74,2.59l5.29,5.36a57.28,57.28,0,0,1,3.87,4.25c.52.64,1.15,1.18,1.72,1.79s1.13,1.24,1.79,1.78c1.26,1.13,2.5,2.33,3.9,3.39.69.54,1.33,1.15,2.06,1.67l2.17,1.59a83.91,83.91,0,0,0,9.47,5.86,125.45,125.45,0,0,0,21.92,9.06,178.53,178.53,0,0,0,24.38,5.69c4.2.69,8.44,1.23,12.71,1.65a28.88,28.88,0,0,1,6.54,1.57,28.42,28.42,0,0,1,7,3.74l.18,1a20.78,20.78,0,0,1-6,5.53,24.32,24.32,0,0,1-6.58,2.81c-4.48,1.1-9,2-13.61,2.81s-9.23,1.44-13.92,1.9-9.45.74-14.26.84a149.36,149.36,0,0,1-29.47-2.27,117.72,117.72,0,0,1-30.11-9.5c-1.26-.55-2.46-1.25-3.69-1.87s-2.47-1.27-3.67-2c-2.33-1.38-5.12-3.17-6.52-3.84l-5.1-2.75c-.83-.48-1.71-.87-2.58-1.28L626.44,614c-3.38-1.73-7-3.08-10.41-4.57-3.58-1.27-7-2.63-10.65-3.65A149.18,149.18,0,0,0,584,600.66c-3.53-.55-7-1-10.44-1.26-.85-.08-1.69-.15-2.5-.18s-1.67-.11-2.41-.1-1.59,0-2.21,0l-.5,0a2.69,2.69,0,0,0-.44,0l-.32.05h-.08s-.07,0,0,0l.28.07Z" transform="translate(-4.7 3.68)"/><g class="cls-13"><g class="cls-3"><path class="cls-7" d="M601.59,505.2l1.26.17c.26,0,.3.05.44.07l.36.06,1.42.27c.91.17,1.63.34,2.45.52l1.19.27,1.09.28,2.18.56c2.81.79,5.54,1.58,8.11,2.47,5.21,1.73,10,3.7,14.75,5.75a179.08,179.08,0,0,1,25.81,14.22c4,2.58,7.69,5.43,11.4,8.19,1.81,1.43,3.55,2.91,5.31,4.36l2.62,2.18c.84.76,1.66,1.52,2.48,2.29l4.88,4.6c1.57,1.57,3.06,3.2,4.57,4.79l2.26,2.39,1.1,1.18.76.89,1.52,1.81c.51.61,1.09,1.15,1.64,1.74,8.74,9.36,21.56,16.76,36.88,21.7,3.82,1.27,7.82,2.32,11.91,3.27s8.31,1.75,12.63,2.39,8.73,1.12,13.21,1.46a34.28,34.28,0,0,1,6.72,1.28,28.91,28.91,0,0,1,7,3.11l.06.86a27,27,0,0,1-7.35,5,35,35,0,0,1-7.58,2.57c-5,1-10.12,1.82-15.23,2.47a199.89,199.89,0,0,1-31,1.6c-5.19-.16-10.4-.48-15.55-1.15l-1.94-.23-1.93-.29-3.86-.59c-2.53-.5-5.13-.92-7.64-1.54a140.14,140.14,0,0,1-15-4.27,112.15,112.15,0,0,1-14.17-6.09c-1.13-.59-2.3-1.15-3.4-1.78l-3.29-1.92-1.65-1-1.29-.69-2.55-1.35c-1.69-.89-3.34-1.81-5.05-2.66L643.93,584l-2.57-1.21-2.65-1.11c-1.77-.73-3.51-1.49-5.27-2.2-3.62-1.29-7.12-2.68-10.8-3.75a165.83,165.83,0,0,0-21.9-5.49c-3.64-.62-7.28-1.19-10.79-1.49-1.76-.2-3.46-.3-5.08-.39l-1.17,0-.58,0h-.51c-.31,0-.71,0-.93,0l-.29,0h-.07s-.1,0,0,0l.4.08Z" transform="translate(-4.7 3.68)"/></g></g><g class="cls-3"><path class="cls-4" d="M481.48,608.7a15.46,15.46,0,0,0-.18,1.82l-.13,2.22c-.08,1.52-.14,3.07-.19,4.62q-.12,4.7-.08,9.47c0,6.36.25,12.78.61,19.19a346.29,346.29,0,0,0,4.34,38.3,276,276,0,0,0,8.89,37.23l1.46,4.53,1.58,4.47.79,2.24.86,2.2,1.74,4.4,1.89,4.32.95,2.16,1,2.11,2.05,4.24,2.2,4.13,1.1,2.07c.37.69.79,1.34,1.18,2l2.37,4c.83,1.32,1.7,2.59,2.55,3.9l1.27,1.95c.19.3.5.72.75,1.08l.8,1.13c4.33,5.94,8.16,12.2,12,18.4,1.82,3.16,3.69,6.27,5.37,9.5s3.38,6.42,5,9.64c3.16,6.51,6.09,13.1,8.72,19.79s4.92,13.49,6.86,20.37c.5,1.72,1,3.44,1.41,5.17s.9,3.45,1.29,5.19.78,3.48,1.12,5.23.71,3.49,1,5.24c.66,3.49,1.2,7,1.64,10.53.23,1.76.41,3.52.61,5.28s.33,3.53.44,5.3a52.21,52.21,0,0,1,0,10.68,34.33,34.33,0,0,1-1,5.39,22.86,22.86,0,0,1-2.14,5.38l-1,0c-4.24-6.57-6.09-12.93-7.78-19.43s-3.88-12.81-6.1-19.08A268.71,268.71,0,0,0,530.59,839q-4.71-8.62-10.1-16.79c-3.63-5.41-7.53-10.61-11.62-15.62-2.11-2.46-4.14-5-6.39-7.28l-3.3-3.53-3.41-3.41L494,790.57l-2-2c-1.31-1.36-2.65-2.71-3.94-4.1l-3.75-4.24c-.62-.71-1.26-1.41-1.86-2.14l-1.78-2.19-3.54-4.4L473.81,767l-1.67-2.27-1.59-2.31-3.18-4.65-3-4.72-1.51-2.36-1.43-2.4-2.87-4.81-2.71-4.87-1.36-2.45-1.28-2.46-2.57-4.95c-1.6-3.33-3.3-6.65-4.8-10-3.17-6.71-6-13.52-8.73-20.38s-5.19-13.79-7.57-20.77-4.49-14-6.55-21.11-3.92-14.24-5.61-21.49c-.87-3.62-1.64-7.28-2.43-11-.39-1.86-.77-3.72-1.13-5.63l-.53-2.9c-.18-1.06-.34-1.86-.52-3.32Z" transform="translate(-4.7 3.68)"/></g><path class="cls-14" d="M496.75,599.27a15,15,0,0,0-.19,1.81l-.13,2.23c-.07,1.51-.13,3.06-.18,4.62-.09,3.13-.11,6.28-.09,9.47,0,6.36.25,12.77.62,19.19a346.27,346.27,0,0,0,4.33,38.3,275.89,275.89,0,0,0,8.9,37.22l1.45,4.54,1.59,4.46.79,2.25.86,2.19,1.74,4.41,1.89,4.31.94,2.17,1,2.11,2,4.24,2.2,4.12,1.11,2.08c.37.68.78,1.33,1.17,2l2.38,4c.83,1.31,1.7,2.59,2.54,3.89l1.28,2c.19.3.5.71.75,1.08l.79,1.13c4.34,5.93,8.17,12.2,12,18.39,1.82,3.16,3.69,6.28,5.37,9.5s3.38,6.42,5,9.64c3.15,6.52,6.09,13.11,8.71,19.8s4.92,13.49,6.86,20.37c.51,1.71,1,3.44,1.41,5.17s.9,3.45,1.29,5.19.79,3.48,1.13,5.22.7,3.49,1,5.25c.66,3.49,1.19,7,1.63,10.52.24,1.76.42,3.53.61,5.29s.34,3.53.45,5.3a52.83,52.83,0,0,1,0,10.67,36.68,36.68,0,0,1-1,5.4,23.68,23.68,0,0,1-2.14,5.37l-1,0c-4.25-6.57-6.09-12.92-7.78-19.42S564.22,872,562,865.68a268.11,268.11,0,0,0-16.13-36.16q-4.71-8.64-10.11-16.79c-3.63-5.41-7.52-10.62-11.62-15.62-2.1-2.46-4.14-5-6.39-7.29l-3.3-3.52L511,782.89l-1.73-1.75-2-2c-1.31-1.36-2.65-2.71-3.94-4.1l-3.75-4.24c-.62-.71-1.27-1.41-1.87-2.14L496,766.44,492.44,762l-3.36-4.52-1.68-2.27-1.59-2.31-3.17-4.64-3-4.72-1.51-2.37-1.44-2.39L473.81,734l-2.71-4.88-1.36-2.44-1.28-2.47-2.57-4.94c-1.6-3.33-3.3-6.65-4.81-10-3.16-6.7-6-13.51-8.73-20.37s-5.19-13.79-7.57-20.77-4.48-14-6.54-21.11-3.92-14.24-5.62-21.49c-.86-3.62-1.64-7.28-2.43-11-.38-1.85-.76-3.72-1.12-5.62l-.54-2.91c-.17-1-.33-1.85-.51-3.32Z" transform="translate(-4.7 3.68)"/><g class="cls-15"><g class="cls-3"><path class="cls-7" d="M521.69,568.53c-.08.45-.13,1.37-.18,2.1l-.14,2.39-.2,4.9c-.1,3.3-.13,6.6-.11,9.92,0,6.64.22,13.29.56,19.93a373.68,373.68,0,0,0,4.3,39.4,277.79,277.79,0,0,0,8.82,38.13l1.46,4.64,1.58,4.58c1,3.08,2.26,6,3.41,9.06A192.61,192.61,0,0,0,549.38,721c1.45,2.88,3.16,5.58,4.76,8.37.84,1.37,1.75,2.68,2.61,4l1.32,2,1.48,2.21,6,9,1.49,2.25,1.35,2.32,2.73,4.63c1.82,3.08,3.71,6.11,5.24,9.32l4.92,9.44,4.36,9.67,1.08,2.41c.34.81.64,1.64,1,2.46l1.9,4.93,1.89,4.92,1.65,5c1.09,3.34,2.24,6.65,3.07,10.07l1.36,5.08.68,2.54.56,2.58,1.07,5.16.53,2.58.44,2.6c.56,3.48,1.2,6.93,1.52,10.46l.59,5.26.4,5.3c.15,1.75.27,3.52.26,5.31a37.15,37.15,0,0,1-.31,5.44,36.23,36.23,0,0,1-1.11,5.56,26.56,26.56,0,0,1-2.26,5.71l-1.06.15a41.16,41.16,0,0,1-5.1-9.41c-.61-1.59-1.2-3.18-1.68-4.8-.23-.81-.47-1.61-.66-2.43l-.7-2.42-1.4-4.84-1.57-4.78c-1-3.19-2.21-6.32-3.31-9.47l-.84-2.36L582.7,835l-1.87-4.64-.91-2.33-1-2.29-2-4.56c-1.29-3.07-2.85-6-4.29-9l-2.19-4.47L568,803.35,565.56,799c-.41-.73-.79-1.46-1.22-2.17L563,794.71l-5.31-8.43c-3.9-5.42-7.61-10.92-12.06-16l-3.2-3.86-1.62-1.91-1.76-1.82-7-7.25-3.77-3.86c-1.32-1.35-2.67-2.69-3.95-4.07-2.47-2.79-5.07-5.54-7.36-8.44-19-23-32.3-48.73-43.28-75.17-2.71-6.64-5.21-13.34-7.57-20.1s-4.47-13.6-6.56-20.47-4-13.81-5.69-20.83c-.88-3.51-1.67-7.06-2.47-10.63l-1.15-5.43-.55-2.78c-.18-1-.34-1.8-.52-3.08Z" transform="translate(-4.7 3.68)"/></g></g><g class="cls-3"><path class="cls-4" d="M441.54,609.59l0-.36,0-.19s0-.15,0-.1l-.12.21-.13.21a.87.87,0,0,0-.14.28l-.6,1.63-.58,2c-.19.66-.41,1.31-.56,2.07-.32,1.48-.71,2.9-1,4.46l-.85,4.72c-.25,1.6-.45,3.26-.69,4.9l-.34,2.47c-.1.83-.16,1.68-.25,2.53-.31,3.38-.71,6.77-.8,10.27a310.33,310.33,0,0,0,.94,42.85c1.41,14.53,3.3,29.23,6.21,43.87l2.13,11,2.5,11,1.26,5.5,1.34,5.6c.95,4,2,7.93,2.85,11.92,1.71,8,3.34,16,4.61,24l.94,6c.3,2,.51,4,.79,6s.57,4,.77,6l.62,6.06a322.29,322.29,0,0,1,1.07,48.51c-.47,8.06-1.3,16.08-2.4,24s-2.73,15.86-4.58,23.67a224.72,224.72,0,0,1-6.83,23c-.7,1.88-1.36,3.76-2.1,5.63a37.61,37.61,0,0,1-2.53,5.48,29.43,29.43,0,0,1-3.69,5.06,21,21,0,0,1-5.29,4.29l-.91-.41a32,32,0,0,1-1.08-6.51,40.32,40.32,0,0,1,.05-5.93,49.21,49.21,0,0,1,.82-5.61c.36-1.84.64-3.71,1-5.55,1.15-7.44,2-14.91,2.52-22.37a310,310,0,0,0-.06-44.69,293.11,293.11,0,0,0-19.54-86c-1.33-3.43-2.83-6.79-4.22-10.17l-4.58-11L403.49,755l-4.29-11.27c-3-7.49-5.52-15.18-8.18-22.86-1.38-3.82-2.5-7.75-3.72-11.66l-1.79-5.87c-.61-2-1.2-3.92-1.72-5.91l-3.24-12c-1-4-1.91-8.1-2.87-12.16s-1.74-8.22-2.56-12.37c-.39-2.08-.85-4.14-1.18-6.25l-1-6.35c-1.36-8.47-2.29-17.2-2.89-26.19l-.27-6.86c-.09-2.3,0-4.73,0-7.09,0-1.17,0-2.44.09-3.69l.16-3.78.34-4.09c0-.32.08-.75.13-1.15l.16-1.21.17-1.21c0-.07.05-.29.09-.46l.1-.54.23-1.07Z" transform="translate(-4.7 3.68)"/></g><path class="cls-16" d="M456.81,600.16l.05-.37,0-.18c0-.05,0-.16,0-.11l-.12.21-.13.21a.89.89,0,0,0-.14.28l-.6,1.63-.58,2a21.36,21.36,0,0,0-.56,2.07c-.32,1.49-.71,2.91-1,4.47l-.86,4.71c-.25,1.61-.45,3.27-.68,4.9l-.34,2.47c-.1.84-.17,1.69-.25,2.53-.32,3.39-.71,6.78-.8,10.28a308.77,308.77,0,0,0,.94,42.85c1.41,14.52,3.3,29.23,6.21,43.87l2.12,11,2.51,11,1.26,5.5,1.33,5.61c1,4,2,7.92,2.85,11.92,1.72,8,3.35,16,4.61,24l.94,6c.3,2,.52,4,.8,6s.56,4,.77,6l.62,6.06a323.58,323.58,0,0,1,1.07,48.51c-.47,8.06-1.31,16.08-2.4,24.05s-2.73,15.86-4.58,23.66a229.07,229.07,0,0,1-6.83,23c-.7,1.89-1.36,3.77-2.11,5.63a36.19,36.19,0,0,1-2.52,5.49,30.46,30.46,0,0,1-3.69,5.05,20.61,20.61,0,0,1-5.3,4.29l-.91-.41a32.53,32.53,0,0,1-1.07-6.51,41.65,41.65,0,0,1,0-5.92,48.89,48.89,0,0,1,.83-5.61c.36-1.84.64-3.71,1-5.56,1.14-7.43,2-14.9,2.52-22.37a308.58,308.58,0,0,0-.07-44.69,293.25,293.25,0,0,0-19.54-86c-1.32-3.42-2.82-6.78-4.22-10.16l-4.57-11-4.65-11.08-4.29-11.28c-3-7.49-5.52-15.17-8.18-22.86-1.39-3.81-2.5-7.75-3.72-11.65L400.78,694c-.61-2-1.21-3.92-1.73-5.92l-3.23-12c-1-4-1.91-8.1-2.87-12.17s-1.74-8.21-2.57-12.36c-.39-2.08-.84-4.14-1.17-6.26l-1-6.35c-1.36-8.46-2.3-17.2-2.89-26.18l-.28-6.87c-.08-2.3,0-4.72,0-7.09,0-1.17,0-2.44.09-3.69l.16-3.78.34-4.09c0-.31.08-.75.13-1.14l.16-1.21.17-1.21c0-.07.05-.3.08-.46l.11-.54.22-1.07Z" transform="translate(-4.7 3.68)"/><g class="cls-17"><g class="cls-3"><path class="cls-7" d="M482.11,566.43l0-.23V566l0,0-.15.34-.16.34-.08.17-.08.25-.68,2-.63,2.3-.32,1.15-.28,1.23-.54,2.46-.27,1.24-.23,1.28-.9,5.14-.71,5.28-.35,2.65-.26,2.68L476,600c-.18,1.8-.22,3.62-.32,5.43a332.4,332.4,0,0,0,.79,44c1.33,14.72,3.14,29.49,5.89,44.11l2,11c.73,3.65,1.58,7.28,2.37,10.92s1.61,7.29,2.45,10.93l2.7,11.5,2.35,11.6c.68,3.9,1.44,7.76,2.05,11.67s1.22,7.8,1.68,11.74,1,7.84,1.36,11.8l.56,5.92.39,5.95c.32,4,.38,8,.56,11.94.15,8,.16,16-.29,24A275.28,275.28,0,0,1,493.83,881a240.87,240.87,0,0,1-6.93,24.16c-.68,2-1.43,4-2.16,6a43.32,43.32,0,0,1-2.65,6,38.93,38.93,0,0,1-3.89,5.8,30.12,30.12,0,0,1-5.67,5.43l-1-.18a26.48,26.48,0,0,1-1.15-6.2,37.46,37.46,0,0,1,0-5.9,49.41,49.41,0,0,1,.85-5.78c.34-1.92.68-3.84,1-5.76,1.16-7.68,1.95-15.34,2.44-23s.61-15.21.52-22.75c0-1.89,0-3.77-.11-5.65l-.23-5.63c-.09-1.87-.25-3.73-.37-5.6l-.18-2.8-.25-2.79c-.58-7.44-1.61-14.8-2.73-22.11-.67-3.64-1.21-7.3-2-10.9l-1.11-5.42-1.27-5.37c-1.66-7.17-3.68-14.23-5.92-21.21-1.11-3.49-2.38-6.94-3.55-10.4s-2.66-6.83-4-10.24l-8.9-20.78c-1.52-3.56-3.11-7.11-4.58-10.7l-4.25-10.86c-2.94-7.22-5.44-14.63-8.1-22-1.37-3.67-2.46-7.45-3.68-11.2l-1.79-5.63c-.6-1.87-1.19-3.75-1.71-5.67l-3.23-11.46c-1.05-3.83-1.92-7.75-2.88-11.64s-1.78-7.85-2.6-11.82c-.4-2-.84-4-1.2-6l-1-6.07c-.32-2-.7-4-1-6.1l-.81-6.21-.41-3.11-.3-3.17-.57-6.38-.32-6.56-.07-1.65V582l0-3.4v-1.71l.05-1.79.11-3.58.3-3.88,0-.49.07-.56.14-1.13.15-1.14,0-.15,0-.24.1-.48.19-1Z" transform="translate(-4.7 3.68)"/></g></g><g class="cls-3"><path class="cls-4" d="M527.1,593l.21.53.09.25.05.15.2.58c.14.42.24.74.33,1.06.21.66.4,1.31.55,1.89.34,1.22.61,2.35.89,3.49l.75,3.33.64,3.25c.81,4.3,1.43,8.49,1.94,12.66a223.43,223.43,0,0,1,1.51,24.58c0,8.1-.27,16.11-1,24S531.38,684.5,530,692.2c-5.78,30.8-17,59.54-31.52,85.59L487.84,796c-1.47,2.89-3,5.79-4.42,8.72l-1.95,4.45-1,2.23c-.32.74-.57,1.5-.86,2.26l-1.69,4.53c-.3.75-.52,1.52-.75,2.29l-.69,2.29-.7,2.3-.35,1.15-.28,1.16L474,832a23.49,23.49,0,0,0-.48,2.33l-.42,2.33c-.29,1.56-.59,3.11-.74,4.67s-.4,3.12-.56,4.69l-.32,4.68a99.29,99.29,0,0,0,5.08,36.68l.78,2.21c.26.74.57,1.45.85,2.19.55,1.47,1.21,2.9,1.86,4.33s1.38,2.84,2.07,4.27,1.5,2.81,2.35,4.15a68.31,68.31,0,0,1,4.47,8.8c.67,1.61,1.32,3.27,1.91,5.08a58.76,58.76,0,0,1,1.64,5.94l-.57.82a23.61,23.61,0,0,1-12.14-3,31.87,31.87,0,0,1-9.15-7.24,90.47,90.47,0,0,1-13.26-19.15,94.68,94.68,0,0,1-8.18-22,111.37,111.37,0,0,1-2.9-23.3v-5.84c.07-1.94.2-3.88.31-5.82s.31-3.85.53-5.77.39-3.86.72-5.74l.94-5.69.24-1.42.3-1.4.62-2.8c.43-1.86.79-3.76,1.28-5.59l1.46-5.51.75-2.76.84-2.71,1.69-5.43c1.17-3.6,2.5-7.11,3.73-10.7l4.12-10.47,3.52-9.32a232.68,232.68,0,0,0,10.16-37.92c1.18-6.36,1.93-12.75,2.55-19.09.21-3.19.48-6.36.53-9.52,0-1.59.13-3.16.12-4.74l0-4.72a170.37,170.37,0,0,0-4.41-36.68,142.6,142.6,0,0,0-5.13-17c-1.05-2.68-2.12-5.3-3.29-7.75l-.89-1.78-.9-1.67c-.3-.51-.6-1.05-.88-1.47a5.51,5.51,0,0,0-.39-.57c-.07-.08-.13-.17-.16-.16l0,0h0l0,.1.07.23Z" transform="translate(-4.7 3.68)"/></g><path class="cls-18" d="M542.36,583.55l.21.54.1.25.05.14.2.59c.14.41.23.73.33,1,.2.67.39,1.31.55,1.89.34,1.23.61,2.35.89,3.49l.75,3.34.64,3.25c.8,4.29,1.43,8.48,1.94,12.65a228.8,228.8,0,0,1,1.51,24.59c0,8.1-.28,16.1-1,24s-1.88,15.71-3.28,23.41c-5.77,30.8-17,59.55-31.52,85.6l-10.62,18.16c-1.48,2.89-3,5.78-4.42,8.72l-1.95,4.45-1,2.22c-.32.75-.57,1.51-.86,2.26l-1.68,4.54a21,21,0,0,0-.75,2.28l-.7,2.3-.7,2.3-.34,1.15-.29,1.16-1.13,4.64a23.34,23.34,0,0,0-.49,2.32l-.42,2.34c-.28,1.55-.59,3.11-.73,4.67s-.4,3.12-.57,4.68l-.31,4.68a99,99,0,0,0,5.08,36.68l.77,2.21c.27.74.57,1.46.86,2.19.54,1.48,1.2,2.9,1.86,4.34s1.38,2.83,2.07,4.27,1.49,2.8,2.34,4.15a67.09,67.09,0,0,1,4.48,8.8c.66,1.61,1.32,3.26,1.9,5.08a58.43,58.43,0,0,1,1.65,5.93l-.57.83a23.58,23.58,0,0,1-12.15-3,31.94,31.94,0,0,1-9.15-7.23,91.73,91.73,0,0,1-13.26-19.15,95.67,95.67,0,0,1-8.18-22.05,111.86,111.86,0,0,1-2.9-23.29v-5.85c.08-1.94.21-3.87.32-5.81s.31-3.86.53-5.78.39-3.85.72-5.74l.94-5.68.24-1.43.3-1.4.61-2.8c.43-1.85.79-3.75,1.28-5.58L468,795.4l.74-2.75.84-2.72,1.69-5.42c1.17-3.6,2.5-7.12,3.74-10.7l4.12-10.47,3.52-9.33a232.53,232.53,0,0,0,10.15-37.91c1.19-6.36,1.94-12.75,2.56-19.1.21-3.18.48-6.35.52-9.52,0-1.58.13-3.16.12-4.74V678a170.28,170.28,0,0,0-4.42-36.67,140.91,140.91,0,0,0-5.12-17c-1.05-2.67-2.12-5.3-3.29-7.74l-.89-1.79-.9-1.66c-.3-.52-.6-1-.88-1.47a4.87,4.87,0,0,0-.4-.57c-.06-.09-.12-.18-.15-.17l-.06,0h0l0,.1.08.23Z" transform="translate(-4.7 3.68)"/><g class="cls-19"><g class="cls-3"><path class="cls-7" d="M568.25,556.79l.14.39.07.2,0,.12.15.47.14.47.12.42.43,1.63c.27,1.06.5,2.07.72,3.07.44,2,.81,4,1.14,5.92.65,3.89,1.21,7.72,1.6,11.55A219.85,219.85,0,0,1,574,603.92a254,254,0,0,1-4.1,45.6c-1.41,7.58-3,15.12-5.14,22.63-.94,3.75-2.16,7.49-3.25,11.22-.59,1.86-1.24,3.72-1.85,5.58s-1.23,3.71-1.94,5.55a319.62,319.62,0,0,1-19.69,43.44c-2,3.51-4,7-6,10.49l-2.67,4.66L528,755.42c-.46.78-.89,1.56-1.28,2.35a156,156,0,0,0-8.54,19.06,120.2,120.2,0,0,0-7.7,38.54l0,4.75.22,4.71c.23,3.12.51,6.25,1,9.32a102.24,102.24,0,0,0,4.45,18.08,92.33,92.33,0,0,0,7.83,17A55.93,55.93,0,0,1,528.2,878a50.65,50.65,0,0,1,1.6,4.92,38.81,38.81,0,0,1,1.12,5.64l-.74.71a29.17,29.17,0,0,1-13-3.44,31.55,31.55,0,0,1-9.14-7,92.46,92.46,0,0,1-7-8.53c-1-1.51-2.12-3-3.05-4.54s-1.94-3.09-2.76-4.7A95.28,95.28,0,0,1,484,819.14c-.65-14.79,1.43-29.93,5.42-44.82.52-1.86.94-3.74,1.51-5.59l1.74-5.56.85-2.79,1-2.76,2-5.53c1.34-3.69,2.91-7.32,4.34-11,1.28-3.33,2.57-6.55,3.78-9.83,9.52-26.15,14.1-52.57,13.29-77.83a167.19,167.19,0,0,0-1.55-18.7,158,158,0,0,0-3.48-18.07,142.54,142.54,0,0,0-5.47-17.13c-1.08-2.75-2.25-5.43-3.49-8-.63-1.27-1.27-2.51-1.93-3.68-.33-.58-.66-1.15-1-1.67-.17-.28-.32-.49-.47-.72l-.12-.17-.09-.11-.09-.11,0,0v.05l0,.1Z" transform="translate(-4.7 3.68)"/></g></g><g class="cls-3"><path class="cls-4" d="M607.21,548v.4a1.48,1.48,0,0,0,0,.24l.25,1,.26,1,.32,1.11c.45,1.5.85,3,1.38,4.53s1,3.08,1.55,4.62l1.72,4.65.86,2.34.93,2.33,1.91,4.65c1.28,3.11,2.73,6.16,4.09,9.27s2.92,6.12,4.42,9.18,3.13,6.06,4.75,9.07c3.16,6.09,6.74,11.92,10.28,17.85a350.56,350.56,0,0,0,52.06,64.85c1.21,1.28,2.53,2.42,3.82,3.6l3.89,3.54,7.82,7.1c2.82,2.46,5.69,4.88,8.49,7.36s5.6,5,8.32,7.55,5.47,5.1,8.12,7.75,5.3,5.28,7.91,8c5.16,5.42,10.18,11,14.9,16.78a174.52,174.52,0,0,1,24.19,37.84A118.3,118.3,0,0,1,787,805.85,91.46,91.46,0,0,1,789,817a26.71,26.71,0,0,1-.09,5.72,19.14,19.14,0,0,1-.56,2.87,13.25,13.25,0,0,1-1.06,2.84l-1-.06a70,70,0,0,1-3.89-10.14c-.94-3.35-2-6.67-3.28-9.91s-2.67-6.44-4.22-9.56c-.74-1.57-1.58-3.11-2.37-4.65s-1.68-3.05-2.58-4.55a175.45,175.45,0,0,0-25.56-33.06c-2.41-2.53-5-4.94-7.5-7.35-1.28-1.19-2.63-2.33-3.94-3.49s-2.62-2.32-4-3.42l-4.06-3.34c-1.37-1.09-2.8-2.13-4.19-3.2-2.76-2.16-5.69-4.12-8.56-6.14-1.42-1-2.92-2-4.4-2.91l-4.43-2.85c-3-1.82-6-3.58-9.08-5.38l-9.62-5.84-4.82-2.93c-1.61-1-3.25-1.93-4.78-3a469.64,469.64,0,0,1-71-57.26c-5.32-5.52-10.88-10.91-16.06-16.67-2.63-2.84-5.28-5.67-7.79-8.64l-3.83-4.41c-1.29-1.47-2.58-2.94-3.81-4.46-2.48-3-5-6-7.45-9.12l-3.65-4.67-1.84-2.34-1.79-2.39-3.59-4.82-3.54-5c-1.19-1.63-2.36-3.42-3.53-5.15l-.89-1.32-.9-1.42-.91-1.42-.23-.37-.28-.49-.56-1Z" transform="translate(-4.7 3.68)"/></g><path class="cls-20" d="M630.72,535.79v.4l.06.24.25,1,.25,1,.33,1.12c.45,1.5.84,3,1.38,4.53s1,3.07,1.54,4.62l1.72,4.65.86,2.34.94,2.32,1.9,4.66c1.28,3.1,2.73,6.16,4.1,9.26s2.92,6.13,4.42,9.18,3.12,6.06,4.75,9.07c3.15,6.1,6.74,11.93,10.28,17.85a351,351,0,0,0,52,64.86c1.21,1.28,2.53,2.42,3.83,3.6l3.89,3.53,7.82,7.1c2.82,2.46,5.69,4.88,8.49,7.36s5.6,5,8.32,7.55,5.47,5.11,8.12,7.75,5.3,5.29,7.9,8c5.16,5.42,10.19,11,14.91,16.79A174.83,174.83,0,0,1,803,772.42a119.45,119.45,0,0,1,7.49,21.28,91.12,91.12,0,0,1,2,11.14,27.39,27.39,0,0,1-.09,5.72,19.14,19.14,0,0,1-.56,2.87,13.22,13.22,0,0,1-1.07,2.83l-1,0a69.68,69.68,0,0,1-3.89-10.14c-.94-3.36-2-6.67-3.28-9.92s-2.67-6.43-4.22-9.55c-.75-1.58-1.59-3.11-2.37-4.66s-1.69-3.05-2.59-4.54a176.2,176.2,0,0,0-25.55-33.07c-2.42-2.53-5-4.93-7.5-7.35-1.28-1.19-2.63-2.32-3.94-3.49s-2.62-2.32-4-3.41l-4.06-3.35c-1.38-1.09-2.8-2.13-4.19-3.19-2.76-2.16-5.69-4.13-8.56-6.14-1.42-1-2.92-2-4.4-2.91l-4.43-2.85c-3-1.83-6.06-3.59-9.09-5.39l-9.61-5.83-4.83-2.94c-1.6-1-3.24-1.93-4.77-3a470.19,470.19,0,0,1-71-57.25c-5.32-5.53-10.89-10.92-16.06-16.67-2.63-2.84-5.29-5.68-7.79-8.65l-3.83-4.41c-1.3-1.46-2.58-2.93-3.81-4.45-2.48-3-5-6-7.46-9.12L585,589.24l-1.84-2.34-1.8-2.4-3.59-4.82-3.53-5c-1.19-1.63-2.36-3.41-3.54-5.14l-.88-1.32-.91-1.42-.9-1.42-.24-.38-.28-.48-.55-1Z" transform="translate(-4.7 3.68)"/><g class="cls-21"><g class="cls-3"><path class="cls-7" d="M648.38,511.67l0,.38a4.5,4.5,0,0,0,.08.46l.27,1.1c.17.73.36,1.47.59,2.25.45,1.55.84,3.08,1.36,4.65l1.51,4.69,1.67,4.7c2.22,6.29,4.83,12.49,7.56,18.67,1.3,3.13,2.81,6.16,4.28,9.21l2.23,4.58,2.38,4.51,2.39,4.53,1.19,2.26,1.27,2.23,5.19,8.86c.85,1.5,1.81,2.92,2.73,4.37l2.79,4.34c1.86,2.89,3.68,5.83,5.71,8.62s4,5.63,6,8.46c1,1.43,2.08,2.78,3.15,4.14l3.24,4.11a322.73,322.73,0,0,0,28.15,31.5c.63.62,1.24,1.27,1.89,1.89l2,1.8,4,3.61,8,7.26,8.52,7.56,4.28,3.73c.7.63,1.43,1.24,2.12,1.88l2,2,8.11,7.83c1.35,1.3,2.74,2.56,4,4l3.84,4.06,3.83,4.07,1.91,2c.64.68,1.19,1.42,1.79,2.12l7.15,8.48c9.09,11.58,17.21,23.81,23.08,37.08.71,1.67,1.5,3.29,2.14,5l1.85,5.11.9,2.56.73,2.63c.46,1.76,1,3.49,1.4,5.26l1.07,5.37c.2.88.26,1.81.4,2.72s.24,1.82.33,2.73a22.61,22.61,0,0,1-1.9,11.49l-1.05.11a27,27,0,0,1-1.24-2.46,23.54,23.54,0,0,1-1.06-2.45c-.33-.81-.67-1.63-1-2.44s-.5-1.65-.8-2.46c-.56-1.64-.94-3.31-1.52-4.94L817.21,773c-.63-1.6-1.35-3.17-2-4.75l-1-2.37L813,763.58,810.67,759c-.79-1.52-1.74-3-2.6-4.49L805.42,750l-2.91-4.33-2.9-4.33-3.22-4.15-3.21-4.15-.81-1-.88-1-1.76-2-3.52-4c-1.19-1.3-2.28-2.67-3.6-3.89L775,713.69c-.65-.61-1.26-1.25-2-1.84L771,710.09l-4.14-3.51c-5.31-4.81-11.48-9-17.38-13.29l-2.24-1.6c-.76-.51-1.57-1-2.36-1.49l-4.74-3-9.51-5.84-10.06-6.14-5-3.08L713,670.63c-.83-.53-1.61-1.09-2.42-1.64l-9.7-6.56L696,659.14l-4.65-3.47L682,648.74c-1.59-1.13-3.07-2.36-4.56-3.57l-4.5-3.63-4.49-3.65c-1.51-1.22-3-2.42-4.43-3.71-2.88-2.52-5.73-5.07-8.65-7.59s-5.71-5.12-8.5-7.73l-4.19-3.93c-1.39-1.32-2.82-2.61-4.14-4l-8.07-8.11-2-2-2-2.07-3.92-4.16-3.92-4.17-3.79-4.26c-2.49-2.87-5.12-5.66-7.54-8.6-5-5.78-9.76-11.71-14.5-17.78l-3.52-4.57-3.44-4.69c-1.17-1.54-2.29-3.21-3.44-4.82-.57-.79-1.13-1.65-1.71-2.52l-.87-1.29a8.43,8.43,0,0,1-.47-.75l-.5-.82Z" transform="translate(-4.7 3.68)"/></g></g></g><g id="New_Body" data-name="New Body"><path class="cls-22" d="M703.81,264.88c69.09,124.33-18.85,301.24-156.58,353S251.53,586.84,205,452.42c-38-109.72,13.44-304.68,149.56-359.28C475,44.85,651.61,171,703.81,264.88Z" transform="translate(-4.7 3.68)"/></g><g id="New_Poles" data-name="New Poles"><g class="cls-23"><path class="cls-24" d="M590,44c-.13,28.3-114.69,66.92-194.29,129.19-121.51,95.05-233.29,47.68-233.3,3.18,0-36.43,76.21-92.63,194.29-129.18S590.15,7.53,590,44Z" transform="translate(-4.7 3.68)"/><path class="cls-25" d="M577.72,22.15C577.59,50.44,463,89.06,383.42,151.33c-121.5,95-233.28,47.68-233.29,3.19,0-36.43,76.21-92.64,194.29-129.19S577.88-14.28,577.72,22.15Z" transform="translate(-4.7 3.68)"/><path class="cls-26" d="M323.71,668.44c-20,1.87-28.68-24.76-11.35-35,68-40.11,146.89-72.66,179.82-106,34.59-34.95,164.6-51.82,293.81-79.16,20.2-4.27,31.61,22.31,14.57,34L564.86,643.5a18.89,18.89,0,0,1-8.87,3.2Z" transform="translate(-4.7 3.68)"/><path class="cls-27" d="M357.16,692.66c-19,.91-28.7-27.61-12.69-37.46C407.37,616.5,481,586.34,510.71,553,541.91,518,665.25,507,787.27,485c19.08-3.44,31.38,25.19,15.71,36.57L586.28,679.09A15.32,15.32,0,0,1,578,682Z" transform="translate(-4.7 3.68)"/></g></g><g id="New_Shade" data-name="New Shade"><path class="cls-28" d="M265.49,257.43c2.82,1.31,5.83,2.55,7.81,4.94s2.69,5.71,4,8.6c7.73,16.89,33.63,15.38,46.07,29.17,4.4,4.88,6.73,11.31,10.94,16.35s11.83,8.49,17.29,4.85c7.11,21.39,32.18,35,54,29.24,3.34,11.67,13,20.32,22.46,27.88q9.7,7.73,19.84,14.9c15.49,11,33.93,21.34,52.45,17.22,4.1-.91,8.51-2.5,12.33-.74,2.5,1.14,4.17,3.5,5.86,5.67,16.35,21.13,44.54,32.43,71,28.43,7.55-1.14,15.33-3.43,22.68-1.33,3.88,1.11,7.33,3.37,11.1,4.81,13.36,5.1,30.16-2.25,35.48-15.53l25.45-4.08,3.11,7.7c4.89-1.3,21.09,6.39,25.68,8.51-3.89,35.37-28.42,67.34-54.2,93.58-14.88,15.14-32.54,32.48-49,45.89C573.51,613,516.67,632.75,466.53,633.3c-44.08.48-78.08-4.48-118.46-24.72-30.39-15.23-37.29-16.39-82.72-59.63C251.18,535.47,231,514,223.94,495.77c-7.95-20.51-19.26-37.47-23.45-59.37-6.18-32.28-11.76-40.45-5.57-120.4,1.1-14.14,4.28-16.5,13.51-48.82,1.59-5.57,1.2-11.3,11.4-29.65a211.44,211.44,0,0,0,9.93-21.3c1.6-3.9-1.3,8.08,1.19,11.72A87.71,87.71,0,0,0,241,240.14,85.3,85.3,0,0,0,265.49,257.43Z" transform="translate(-4.7 3.68)"/><g class="cls-29"><path class="cls-30" d="M574.77,605.56a247.13,247.13,0,0,1-27.55,12.35C409.49,669.69,251.52,586.85,205,452.42c-38-109.72,13.44-304.68,149.57-359.28a144.6,144.6,0,0,1,30.07-8.37C268.27,152.31,225.88,328.89,261.3,431.26,304.6,556.42,444.52,636.86,574.77,605.56Z" transform="translate(-4.7 3.68)"/></g><g class="cls-31"><path class="cls-32" d="M545.47,618.57a242.22,242.22,0,0,1-29.49,9c121-63.69,192.55-224.71,128.31-340.3C596.38,201.08,443.73,87.8,325.87,107A204.57,204.57,0,0,1,352.82,93.8c120.4-48.29,297,77.82,349.23,171.75C771.14,389.87,683.21,566.78,545.47,618.57Z" transform="translate(-4.7 3.68)"/></g></g><g id="New_Detail" data-name="New Detail"><path class="cls-33" d="M683.06,343.85c11.1,7-.9,28.59-13.86,30.57-9.56,1.46-25-3.3-30.56-13.86-4.5-8.53,3.09-27.7,13.86-30.57C659.75,328.06,672.16,337,683.06,343.85Z" transform="translate(-4.7 3.68)"/><path class="cls-33" d="M500.47,427.66c4.22,2.65-.34,10.86-5.26,11.61-3.64.56-9.5-1.25-11.61-5.27-1.71-3.23,1.17-10.52,5.26-11.61C491.62,421.66,496.33,425.06,500.47,427.66Z" transform="translate(-4.7 3.68)"/><path class="cls-34" d="M598.46,192.55c2.6.64-1.5,4.66-5,5.55-2.57.66-6.41.57-7.41-.89-.8-1.19,2-4.62,5-5.56C593,191,595.9,191.92,598.46,192.55Z" transform="translate(-4.7 3.68)"/><path class="cls-35" d="M353.26,516.3c2.23,2.54,1.28,8.09-.82,8-1.56-.06-4.42-2.19-5.89-5.47-1.19-2.66-.87-7.73.82-8C348.5,510.64,351.06,513.81,353.26,516.3Z" transform="translate(-4.7 3.68)"/><path class="cls-36" d="M477.17,198c2.74,1-1.14,5.62-4.67,6.41-2.6.59-6.57.14-7.73-1.75-.93-1.52,1.7-5.51,4.67-6.41C471.43,195.6,474.47,197,477.17,198Z" transform="translate(-4.7 3.68)"/><path class="cls-33" d="M310.74,315.48c8.08,4.63-13.14,5.63-25.13,2.78-13-3.08-24.4-13.31-17.59-18.18,8.81-6.29,25.22-10.6,25.14-2.78C293.08,304.82,301.64,310.25,310.74,315.48Z" transform="translate(-4.7 3.68)"/><path class="cls-12" d="M350.89,197.55c2.16.38-1.43,3.56-4.4,4.36-2.18.6-5.4.68-6.18-.38-.63-.86,1.88-3.55,4.4-4.37C346.4,196.61,348.77,197.17,350.89,197.55Z" transform="translate(-4.7 3.68)"/><path class="cls-37" d="M289,154.57c1,.57-.17,2.48-1.39,2.69a2.91,2.91,0,0,1-2.81-1.11,2.35,2.35,0,0,1,1.39-2.69C286.91,153.27,288,154,289,154.57Z" transform="translate(-4.7 3.68)"/><path class="cls-38" d="M361.15,188.46c3.4,3.67-15.41,8.5-21.53,5.87-9.41-4-17.63-2.39-10.95-6.06,8.63-4.74,17.72-7.86,21.53-5.87S357.67,184.7,361.15,188.46Z" transform="translate(-4.7 3.68)"/><path class="cls-14" d="M571.11,555.47c2,1.88-1.17,5.55-3.92,5.85-2,.22-5.62-3.67-5.73-4-.89-2.38,2-4.53,3.92-5.85C566.89,550.45,568.14,552.68,571.11,555.47Z" transform="translate(-4.7 3.68)"/><path class="cls-16" d="M561,567.42c1.52.55-.65,3.07-2.6,3.52-1.45.33-3.65.1-4.28-.93-.51-.83,1-3,2.61-3.51C557.84,566.16,559.51,566.89,561,567.42Z" transform="translate(-4.7 3.68)"/><path class="cls-20" d="M578.74,571.29c-5.61-2.78.5-16.16-2.19-19.62s3.36-11.21,15.6-12.33c8.81-.8,11.6,16.3,2.2,19.63C588.31,561.11,586.07,574.93,578.74,571.29Z" transform="translate(-4.7 3.68)"/><path class="cls-14" d="M492.2,552.17c-1.71,2.49-10,6.3-7.5,3.76,2.29-2.31,2.22-4.39,1.9-5.41s6.41-4.36,7.5-3.76C494.84,547.17,494,549.54,492.2,552.17Z" transform="translate(-4.7 3.68)"/><path class="cls-39" d="M486.89,564.31c1.25.11.43,2.49-.83,3.22-.94.55-2.58.81-3.33.15s-.2-2.51.83-3.23C484.26,564,485.67,564.2,486.89,564.31Z" transform="translate(-4.7 3.68)"/><path class="cls-40" d="M467.53,579.91c-5.8,4.13-12.4,1.09-11.7-2.89,1.23-7.1,1.71-11.68,9.31-17.1,9.59-6.83,19.3-6.39,11.7,2.89C472,568.77,476.41,573.58,467.53,579.91Z" transform="translate(-4.7 3.68)"/></g><g id="New_Eyes" data-name="New Eyes"><path class="cls-41" d="M313.93,345.89c26.32,12.69,22.64,37.21,10,63.52S294.3,453.87,268,441.19a52.9,52.9,0,1,1,45.94-95.3Z" transform="translate(-4.7 3.68)"/><path class="cls-7" d="M292.06,362.55c2.87,2.39,5.56.24,8.9-.11,3.82-.41,1.56-6.67-1.49-8.78-2.26-1.56-5.77-.84-8.9.12C287.18,354.82,289.19,360.16,292.06,362.55Z" transform="translate(-4.7 3.68)"/><path class="cls-7" d="M290,371.47c1.51,1.25,2.54.58,4,.72,1.7.16.13-2.67-1.43-3.82a5.78,5.78,0,0,0-4-.73C287.16,367.79,288.54,370.21,290,371.47Z" transform="translate(-4.7 3.68)"/><path class="cls-7" d="M303.85,365.07c1.33,1.1.47,2.64.51,4.28,0,1.89-3.11,1.51-4.31.28-.89-.91-.77-2.67-.5-4.29S302.53,364,303.85,365.07Z" transform="translate(-4.7 3.68)"/><path class="cls-42" d="M621.44,265c-4.79,28.82-29.35,32.17-58.17,27.38s-51-15.91-46.19-44.73A52.9,52.9,0,1,1,621.44,265Z" transform="translate(-4.7 3.68)"/><path class="cls-7" d="M575.2,224.81c1.48,3.42,4.86,2.73,8,3.91,3.6,1.37,4.41-5.24,2.64-8.49-1.31-2.42-4.76-3.37-8-3.92C574.34,215.7,573.73,221.38,575.2,224.81Z" transform="translate(-4.7 3.68)"/><path class="cls-7" d="M569.38,231.85c.77,1.8,2,1.67,3.25,2.46,1.44.91,1.32-2.32.45-4.06a5.75,5.75,0,0,0-3.26-2.46C568.47,227.26,568.6,230.05,569.38,231.85Z" transform="translate(-4.7 3.68)"/><path class="cls-7" d="M584.59,232.38c.68,1.59-.78,2.57-1.49,4.05-.81,1.7-3.45-.06-4-1.7-.38-1.22.52-2.73,1.49-4S583.9,230.79,584.59,232.38Z" transform="translate(-4.7 3.68)"/></g></svg>