<svg id="Layer_1" data-name="Layer 1" xmlns="http://www.w3.org/2000/svg" viewBox="0 0 493.15067 512"><defs><style>.cls-1{fill:none;stroke:#00b128;stroke-miterlimit:10;stroke-width:60px;}</style></defs><path d="M346.332,512H79.668A58.71688,58.71688,0,0,1,21,453.332v-288A58.71354,58.71354,0,0,1,79.668,106.668H90.332a16,16,0,0,1,0,32H79.668A26.702,26.702,0,0,0,53,165.332v288A26.70531,26.70531,0,0,0,79.668,480H346.332A26.70531,26.70531,0,0,0,373,453.332V442.668a16,16,0,1,1,32,0V453.332A58.71688,58.71688,0,0,1,346.332,512Z" transform="translate(-15.87338)"/><path d="M431.668,384h-224A58.71688,58.71688,0,0,1,149,325.332V58.668A58.71688,58.71688,0,0,1,207.668,0h224A58.71354,58.71354,0,0,1,490.332,58.668V325.332A58.71354,58.71354,0,0,1,431.668,384Zm-224-352A26.70531,26.70531,0,0,0,181,58.668V325.332A26.70531,26.70531,0,0,0,207.668,352h224A26.702,26.702,0,0,0,458.332,325.332V58.668A26.702,26.702,0,0,0,431.668,32Z" transform="translate(-15.87338)"/><polyline class="cls-1" points="470.413 66.379 157.811 429.587 20.587 300.126"/></svg>