<svg xmlns="http://www.w3.org/2000/svg" xmlns:xlink="http://www.w3.org/1999/xlink" viewBox="0 0 1015.63 1066.81"><defs><style>.cls-1{fill:none;}.cls-2,.cls-42,.cls-9{fill:#fff;}.cls-2{opacity:0;}.cls-3{fill:#001e6d;stroke:#379bed;stroke-width:10px;}.cls-3,.cls-4{stroke-miterlimit:10;}.cls-4,.cls-40,.cls-43,.cls-6{fill:#202020;}.cls-4{stroke:#202020;opacity:0.3;}.cls-40,.cls-42,.cls-5{opacity:0.2;}.cls-7{fill:#2d6ded;}.cls-8{clip-path:url(#clip-path);}.cls-10{fill:#194cb2;}.cls-11{clip-path:url(#clip-path-2);}.cls-12{fill:#2f1da3;}.cls-13{clip-path:url(#clip-path-3);}.cls-14{fill:#379bed;}.cls-15{clip-path:url(#clip-path-4);}.cls-16{fill:#6c27cc;}.cls-17{clip-path:url(#clip-path-5);}.cls-18{fill:#952fcc;}.cls-19{clip-path:url(#clip-path-6);}.cls-20{fill:#4e37e5;}.cls-21{clip-path:url(#clip-path-7);}.cls-22{fill:#5415ad;}.cls-23{clip-path:url(#clip-path-8);}.cls-24{fill:#d6a800;}.cls-25{clip-path:url(#clip-path-9);}.cls-26{fill:#8dc7f2;}.cls-27{fill:#185c90;}.cls-28{fill:#7b56b9;}.cls-29{fill:#5b34a0;}.cls-30{fill:#f0bc00;}.cls-31{fill:#b08a00;}.cls-32{fill:#e6bf00;}.cls-33{fill:#846606;}.cls-34{fill:#d89d19;}.cls-35{fill:#2076bd;}.cls-36{fill:#98d3f4;}.cls-37{fill:#873db7;}.cls-38{fill:#9f79db;}.cls-39{clip-path:url(#clip-path-10);}.cls-41{clip-path:url(#clip-path-11);}.cls-43{opacity:0.1;}</style><clipPath id="clip-path" transform="translate(-4.19 46.99)"><path class="cls-1" d="M569.05,550.34a.83.83,0,0,0,0-.15c0-.07,0,0-.09.1l-.15.2-.62.79a11.75,11.75,0,0,0-.68,1l-.72,1c-1,1.31-1.94,3-2.92,4.54s-1.92,3.26-2.88,4.93-1.92,3.35-2.8,5.16l-2.74,5.31c-.93,1.77-1.73,3.67-2.6,5.5l-2.58,5.54L547.94,590a380.53,380.53,0,0,0-16.18,47.86c-9.15,33-15.08,67.48-18.51,102.45-.29,2.18-.45,4.37-.62,6.56l-.51,6.58-1,13.18-.53,6.61L510.1,780c-.31,4.53-.58,9.06-1,13.59-1.36,18.12-3.11,36.22-5.52,54.28a467,467,0,0,1-10,53.86A186.25,186.25,0,0,1,485.06,928a74.34,74.34,0,0,1-6.51,12.46,25.24,25.24,0,0,1-4.87,5.37,13.61,13.61,0,0,1-1.5,1.08,12.35,12.35,0,0,1-1.63.91,7,7,0,0,1-3.66.78l0-.26a9.76,9.76,0,0,0,2.22-2.37,22.74,22.74,0,0,0,1.66-2.7c1-1.86,1.91-3.73,2.74-5.69a74.71,74.71,0,0,0,4.22-12.14,179.25,179.25,0,0,0,4.49-25.83,451,451,0,0,0,2.11-52.95c-.18-17.73-1-35.48-2.21-53.21-.27-4.43-.64-8.87-1-13.3l-.51-6.65-.43-6.84-.83-13.7-.41-6.87c-.14-2.29-.28-4.58-.3-6.87-1.4-36.69-.25-73.81,4.76-111.14A431.44,431.44,0,0,1,494.52,572l1.9-7,2.19-7c.75-2.35,1.41-4.7,2.26-7l2.52-7.06c.81-2.35,1.79-4.71,2.76-7.08s1.88-4.72,3-7.14,2.12-4.76,3.45-7.3l1-1.87c.32-.62.61-1.22,1-1.93l1.16-2.06.29-.51c.1-.17.18-.32.36-.61l1-1.55Z"/></clipPath><clipPath id="clip-path-2" transform="translate(-4.19 46.99)"><path class="cls-1" d="M658.22,446.49l.71.55.36.3.7.58,1.11,1c.72.65,1.3,1.2,2,1.81,1.19,1.15,2.35,2.29,3.41,3.4,2.17,2.23,4.13,4.44,6,6.66,3.79,4.44,7.18,8.93,10.37,13.49a219.9,219.9,0,0,1,16.46,28.06,256.26,256.26,0,0,1,12.18,29.08,294.37,294.37,0,0,1,8.74,29.6c2.34,9.93,4.3,19.88,5.72,29.83.8,5,1.33,9.94,1.93,14.91.32,2.48.47,5,.72,7.44s.47,5,.63,7.43c.64,9.91,1,19.79,1,29.61l-.06,14.11,0,6.69.13,6.69a460.81,460.81,0,0,0,15,106.86c1.09,4.42,2.36,8.78,3.58,13.18s2.58,8.75,4,13.08q4.2,13,9.18,25.86T772.88,862c1.92,4.17,4,8.24,6.06,12.35a25.37,25.37,0,0,1,1.84,15.31,19.88,19.88,0,0,1-8-3.12,22.49,22.49,0,0,1-5.47-5c-2.83-3.87-5.52-7.82-8.13-11.82q-7.89-12-14.93-24.49t-13.36-25.46c-2.13-4.31-4.11-8.68-6.13-13s-3.92-8.8-5.72-13.26a480.56,480.56,0,0,1-18.81-54.86,449.66,449.66,0,0,1-12.09-57.19l-1-7.28-.86-7.3-.83-7.25-.81-6.62c-1-8.84-2.5-17.56-4.06-26.2-.38-2.17-.86-4.3-1.29-6.45s-.83-4.3-1.35-6.42c-1-4.24-2-8.49-3.12-12.66-2.18-8.38-4.8-16.57-7.67-24.58a231.14,231.14,0,0,0-21.34-44.9A157.82,157.82,0,0,0,632,512.62a109.59,109.59,0,0,0-7.44-8.14c-1.25-1.21-2.5-2.4-3.69-3.4-.6-.53-1.16-1-1.69-1.4-.23-.16-.51-.39-.68-.5l-.24-.15v0l0,0,.36.28Z"/></clipPath><clipPath id="clip-path-3" transform="translate(-4.19 46.99)"><path class="cls-1" d="M649.1,464.29c-1.62-1.1-3.47-2.26-4.73-3.09-.7-.44-1.42-.85-2.13-1.26a9.88,9.88,0,0,0-1.85-.83,3.11,3.11,0,0,0-1-.18l-.55.09a.75.75,0,0,0-.61.37,5.1,5.1,0,0,0-.65.82c-.19,1.85-.77.89-.06,5.21-1.16,7.75,15.75,12.34,18.71,9.08,1.63-.47,3.83-2.14,3.75-1.93.41-.17.88-.44,1.23-.61l.62,0a1.68,1.68,0,0,1,.94.07l.4.1.32.18c.22.14.46.22.65.37a12.2,12.2,0,0,1,1,.82c.31.28.65.57.93.87.48.5,1,1.09,1.4,1.61a9.55,9.55,0,0,1,1.55,2.74,3.09,3.09,0,0,1,.06,2.05c-.24.54-.56,1.07-.84,1.63l-1.76,3.4c-2.35,4.62-4.66,9.46-6.9,14.33s-4.39,9.84-6.55,14.8-4.25,10-6.29,15-4,10.1-5.93,15.18-3.84,10.16-5.67,15.27-3.56,10.26-5.3,15.39-3.41,10.3-5,15.48a631.21,631.21,0,0,0-16.14,62.67c-2.11,10.53-3.93,21.09-5.28,31.69s-2.37,21.19-2.89,31.79c-.14,2.65-.23,5.29-.29,7.94l-.07,4,0,4.08-.27,17.45c0,5.81-.38,11.59-.64,17.38l-.44,8.67-.23,4.33-.34,4.32-1.36,17.25c-.51,5.74-1.17,11.46-1.75,17.18-.3,2.86-.57,5.73-.91,8.58l-1.09,8.55-1.08,8.54-.54,4.26-.63,4.26-2.51,17L585.54,888c-2,11.26-4,22.51-6.21,33.7s-4.63,22.35-7.15,33.47l-2,8.33a56.63,56.63,0,0,1-2.46,8.23c-.52,1.35-1.09,2.69-1.73,4-.33.66-.68,1.31-1,2s-.73,1.3-1.14,1.94a35.65,35.65,0,0,1-2.65,3.8,27.58,27.58,0,0,1-3.37,3.62l-1-.24a38,38,0,0,1-2.47-9.16,53.77,53.77,0,0,1-.59-8.7,71.18,71.18,0,0,1,.72-8.41l1.09-8.35c1.35-11.14,2.6-22.3,3.63-33.47,2.11-22.32,3.54-44.7,4.09-67l.14-4.19.06-4.19.12-8.37.11-8.36c0-2.78,0-5.57-.06-8.35-.08-5.57-.07-11.13-.21-16.68L562.8,785l-.15-4.15-.25-4.15-.53-8.28c-.35-5.51-.59-11-1.17-16.51l-1.49-16.43-.41-4.39-.38-4.5q-.34-4.5-.59-9c-.63-12-.56-24-.06-35.93s1.62-23.79,3.15-35.57a509.36,509.36,0,0,1,14.2-69.4q2.36-8.5,4.93-16.94c1.72-5.62,3.59-11.19,5.48-16.74s3.88-11.09,5.92-16.59,4.23-10.95,6.44-16.38c4.45-10.88,9.15-21.65,14.35-32.3,2.59-5.34,5.26-10.66,8.14-16l2.23-4.08c.39-.69.75-1.4,1.19-2.08a5.09,5.09,0,0,1,2.14-1.64,13,13,0,0,1,3.71-.91c.77-.09,1.66-.1,2.52-.19l1.5,0c.51,0,1-.1,1.63-.06.29,0,.64-.05,1-.06l.48,0,.56-.12a6.26,6.26,0,0,0,1.27-.34l.8-.25c.4-.24.94-.57,1.41-.8a29,29,0,0,1,4-2.08c3-3.31,20,1.3,18.9,9.15.73,4.41.12,3.54-.06,5.48a9.62,9.62,0,0,1-.7,1.08,1.52,1.52,0,0,1-.68.63l-.62.34a5.05,5.05,0,0,1-1.17.33,13,13,0,0,1-2.22.16c-.84-.08-1.69-.16-2.52-.28a54.09,54.09,0,0,1-5.58-1.15Z"/></clipPath><clipPath id="clip-path-4" transform="translate(-4.19 46.99)"><path class="cls-1" d="M568.16,487.19l1.13.77.38.28.31.24,1.25.95c.78.61,1.4,1.14,2.11,1.72l1,.86.93.82,1.84,1.65c2.35,2.2,4.63,4.37,6.72,6.58,4.27,4.41,8.08,8.93,11.78,13.49a224.58,224.58,0,0,1,19.16,28.55c2.84,4.88,5.28,9.93,7.79,14.89,1.18,2.52,2.29,5.07,3.43,7.59l1.68,3.78c.53,1.27,1,2.56,1.52,3.84l2.95,7.68c.92,2.58,1.73,5.18,2.6,7.76l1.26,3.87.62,1.9.4,1.41.78,2.84c.27,1,.62,1.87.92,2.81,4.9,15.1,14.29,29.68,26.89,42.45,3.13,3.23,6.5,6.27,10,9.25s7.16,5.82,11,8.51,7.78,5.26,11.85,7.68a34.22,34.22,0,0,1,11.28,11.38l-.25,1.06a22.29,22.29,0,0,1-8.65,2.71,27.61,27.61,0,0,1-8-.33c-5.08-1.06-10.11-2.37-15.13-3.89a170.8,170.8,0,0,1-29.55-12A143.17,143.17,0,0,1,634,660l-1.74-1.15-1.7-1.21-3.4-2.44c-2.2-1.73-4.48-3.4-6.62-5.27A149.26,149.26,0,0,1,608,638.08a131.53,131.53,0,0,1-11.12-13.63c-.85-1.21-1.75-2.41-2.56-3.65l-2.4-3.77-1.2-1.9-1-1.41L587.86,611c-1.27-1.82-2.49-3.66-3.79-5.44l-4-5.24-2-2.61L576,595.17c-1.4-1.67-2.76-3.35-4.16-5-2.93-3.16-5.72-6.39-8.79-9.32a169.72,169.72,0,0,0-18.56-16.37c-3.2-2.38-6.4-4.7-9.58-6.63-1.58-1-3.13-1.91-4.62-2.75l-1.08-.56-.54-.29-.48-.21c-.29-.12-.66-.32-.88-.39l-.28-.08h-.07s-.1-.05,0,0l.35.28Z"/></clipPath><clipPath id="clip-path-5" transform="translate(-4.19 46.99)"><path class="cls-1" d="M471.09,526.92c-.23.5-.6,1.57-.91,2.42l-1,2.8-1.92,5.75q-1.86,5.83-3.59,11.8-3.46,11.89-6.48,24c-4,16.15-7.23,32.52-9.84,48.95a446.77,446.77,0,0,0-5.17,49.47l-.27,6.19-.13,6.18c-.13,4.13,0,8.22,0,12.34.27,8.19.62,16.41,1.53,24.5.34,4.09,1,8.07,1.51,12.12.3,2,.69,4,1,6l.52,3,.61,3.31,2.47,13.45.61,3.36.44,3.38.93,6.75c.62,4.49,1.32,9,1.63,13.48l1.27,13.47.68,13.49.17,3.37c0,1.12,0,2.24,0,3.37l0,6.73.05,6.72-.23,6.72c-.15,4.47-.24,8.94-.66,13.4l-.52,6.67-.26,3.34-.38,3.33-.82,6.64-.41,3.31-.51,3.31c-.69,4.4-1.3,8.8-2.25,13.16l-1.3,6.54-1.49,6.5c-.48,2.16-1,4.33-1.63,6.47a55.35,55.35,0,0,1-2.2,6.34,50.42,50.42,0,0,1-3,6.14,32.47,32.47,0,0,1-4.12,5.79l-1.05-.28A66.72,66.72,0,0,1,433,917.2c0-2.17,0-4.34.12-6.48.07-1.07.13-2.14.23-3.2l.21-3.21.39-6.4.21-6.41c.18-4.26.15-8.54.23-12.79l.05-3.19-.07-3.2-.12-6.37,0-3.19-.14-3.18-.28-6.36c-.13-4.23-.55-8.45-.84-12.67l-.48-6.32-.74-6.29-.73-6.28c-.13-1-.23-2.1-.38-3.14l-.51-3.12-2-12.45c-1.75-8.21-3.28-16.45-5.66-24.47l-1.65-6-.84-3-1-3-4-11.81-2.17-6.3c-.75-2.2-1.55-4.41-2.26-6.63-1.33-4.44-2.8-8.89-3.92-13.38-9.66-35.92-13.08-72.64-14.05-109.13-.21-9.14-.18-18.26,0-27.39s.61-18.23,1.07-27.37,1.14-18.25,2-27.42c.42-4.58.93-9.17,1.43-13.79l.83-7,.47-3.56c.18-1.27.31-2.31.6-3.92Z"/></clipPath><clipPath id="clip-path-6" transform="translate(-4.19 46.99)"><path class="cls-1" d="M434.78,506.65l.1-.26.05-.14,0-.07,0,0-.26.34-.27.33-.13.17-.17.26-1.34,2.1-1.4,2.46-.71,1.24-.69,1.34-1.37,2.7-.69,1.35-.66,1.42-2.66,5.74-2.53,6-1.26,3-1.18,3.09-2.38,6.2c-.8,2.07-1.47,4.22-2.21,6.33a505.73,505.73,0,0,0-14.75,52.9c-3.94,18.15-7.44,36.6-10,55.28l-2,14c-.6,4.69-1.08,9.4-1.62,14.1s-1.06,9.42-1.55,14.14l-1.53,14.94-1.88,14.9c-.73,5-1.38,9.91-2.19,14.84s-1.59,9.87-2.56,14.77-1.8,9.82-2.88,14.7l-1.56,7.31-1.72,7.28c-1.1,4.86-2.45,9.67-3.69,14.5-2.67,9.6-5.47,19.15-8.73,28.57A388.2,388.2,0,0,1,335,887.35q-6.89,13.21-15,25.73c-1.33,2.08-2.74,4.14-4.13,6.19a51.75,51.75,0,0,1-4.57,5.93,41.46,41.46,0,0,1-5.69,5.17,27,27,0,0,1-7.22,3.93l-.85-.66a42,42,0,0,1,1.11-7.9,58.22,58.22,0,0,1,2.09-7c.83-2.25,1.81-4.4,2.83-6.52s2-4.27,2.93-6.44q5.67-13,10.37-26.32c3.17-8.87,5.92-17.88,8.49-26.92.63-2.27,1.3-4.51,1.89-6.79l1.76-6.82c.57-2.28,1.08-4.57,1.63-6.85l.81-3.42.75-3.44c2.08-9.14,3.71-18.39,5.23-27.62.66-4.64,1.44-9.25,2-13.91l.87-7,.71-7c1-9.3,1.55-18.64,1.91-28,.19-4.67.22-9.34.34-14s-.08-9.35-.12-14l-1-28.79c-.17-4.94-.41-9.88-.51-14.83l-.17-14.87c-.2-9.92.06-19.89.16-29.88,0-5,.32-10,.5-15l.31-7.52c.09-2.51.2-5,.39-7.54l1-15.12c.36-5,.93-10.12,1.4-15.19s1.1-10.17,1.73-15.27c.32-2.55.61-5.1,1-7.66l1.19-7.7c.42-2.57.77-5.14,1.23-7.72l1.42-7.78.72-3.89.83-3.93,1.71-7.86,2-8,.51-2,.59-2,1.18-4.07.59-2,.68-2.11,1.37-4.22,1.63-4.49.22-.57.26-.64.53-1.29.54-1.29.07-.16.13-.27.26-.54.52-1.07Z"/></clipPath><clipPath id="clip-path-7" transform="translate(-4.19 46.99)"><path class="cls-1" d="M518.8,533.8v1l0,.63,0,.63,0,.55-.17,2.14c-.12,1.38-.26,2.69-.41,4-.29,2.59-.64,5.09-1,7.57-.75,4.93-1.58,9.76-2.56,14.51-1.94,9.5-4.23,18.76-6.91,27.86a367.85,367.85,0,0,1-19.88,52.59c-4,8.4-8.18,16.67-12.78,24.69-2.19,4.06-4.65,8-7,11.93-1.2,2-2.46,3.89-3.69,5.83s-2.45,3.88-3.78,5.76a375.3,375.3,0,0,1-33.71,43c-3.07,3.31-6.25,6.59-9.31,9.82l-4.15,4.36-2.07,2.19c-.7.72-1.38,1.46-2,2.22A185.49,185.49,0,0,0,394.53,774a164.35,164.35,0,0,0-20.76,42.54l-1.72,5.65-1.46,5.72c-.88,3.83-1.72,7.68-2.33,11.57a164.08,164.08,0,0,0-2.2,23.58,149.25,149.25,0,0,0,1.33,23.86,90.36,90.36,0,0,1,.89,12.27c0,2.13,0,4.3-.24,6.58a62,62,0,0,1-.93,7.24l-.95.52a30.94,30.94,0,0,1-10.92-9.92,43.62,43.62,0,0,1-6.09-12.45c-1.4-4.37-2.55-8.82-3.53-13.31-.42-2.26-.94-4.51-1.25-6.79s-.74-4.56-.94-6.86a153.41,153.41,0,0,1,4.13-55.08A212.56,212.56,0,0,1,368.41,758c1.14-2,2.2-4,3.38-6l3.59-5.86,1.78-2.95,1.89-2.85,3.79-5.72c2.55-3.8,5.31-7.42,7.94-11.18,2.36-3.4,4.71-6.66,7-10a290.71,290.71,0,0,0,39.83-86.93c2.08-7.61,3.75-15.3,5.13-23s2.45-15.43,3.1-23.13,1-15.38.9-22.91c0-3.76-.19-7.48-.45-11.09-.14-1.8-.31-3.57-.51-5.26-.1-.85-.21-1.67-.33-2.43-.06-.41-.12-.74-.19-1.08l0-.25-.05-.17-.05-.17v0l0,.13Z"/></clipPath><clipPath id="clip-path-8" transform="translate(-4.19 46.99)"><path class="cls-1" d="M618.36,516.35l-.09.49a4.22,4.22,0,0,0-.09.58l-.14,1.43c-.1.95-.18,1.91-.24,2.95-.11,2.05-.29,4.05-.36,6.16l-.24,6.28-.08,6.36c-.14,8.5.12,17.07.5,25.67.11,4.31.47,8.61.77,12.92l.47,6.46.64,6.46.64,6.47.32,3.24.41,3.22L622.61,618c.26,2.16.66,4.29,1,6.43l1.08,6.43c.73,4.29,1.4,8.61,2.32,12.86s1.78,8.52,2.68,12.8c.42,2.15,1,4.25,1.49,6.37l1.58,6.34A484.63,484.63,0,0,0,648,719.41c.37,1,.71,2.08,1.1,3.1l1.23,3,2.45,6.1,4.93,12.25,5.31,12.84,2.69,6.38c.44,1.07.91,2.12,1.33,3.2l1.2,3.26,4.83,13c.81,2.15,1.67,4.29,2.32,6.51l2.16,6.58,2.16,6.57,1.07,3.28c.36,1.09.62,2.23.94,3.34l3.7,13.32c4.43,17.9,7.73,36.14,8.55,54.61.08,2.31.25,4.61.25,6.92l-.07,6.93-.06,3.46-.24,3.46c-.18,2.31-.3,4.61-.53,6.91l-.9,6.88c-.12,1.15-.39,2.29-.58,3.43s-.42,2.28-.65,3.41c-1.12,4.5-2.65,9-5.82,12.86l-1-.35c-.14-1.18-.24-2.36-.29-3.49s-.14-2.28-.13-3.39-.05-2.24,0-3.35.11-2.18.11-3.29c.06-2.21.29-4.37.32-6.57l.06-6.58c0-2.19-.16-4.39-.23-6.58l-.12-3.28-.29-3.28-.55-6.55c-.2-2.18-.57-4.36-.85-6.53l-.91-6.51-1.21-6.47-1.19-6.46-1.55-6.41L676,845.55l-.38-1.59-.48-1.58-1-3.16-1.9-6.3c-.66-2.09-1.19-4.22-2-6.27l-4.5-12.38c-.4-1-.74-2.06-1.18-3.07l-1.32-3-2.64-6C657.34,794,653,786.26,649,778.47l-1.53-2.92c-.54-.95-1.13-1.89-1.69-2.84l-3.39-5.66-6.85-11.25L628.32,744,624.69,738l-1.82-3c-.59-1-1.13-2-1.69-3l-6.77-12.18L611,713.72l-3.14-6.22L601.57,695c-1.1-2.08-2.05-4.2-3-6.31l-2.93-6.36L592.7,676c-1-2.12-2-4.25-2.84-6.41-1.81-4.3-3.58-8.63-5.43-12.94s-3.53-8.67-5.23-13L576.66,637c-.84-2.2-1.73-4.38-2.47-6.6l-4.71-13.3-1.18-3.33-1.11-3.35-2.2-6.72L562.78,597l-2-6.79c-1.32-4.54-2.81-9.05-4-13.64-2.62-9.14-5-18.36-7.31-27.72l-1.68-7-1.58-7.15c-.55-2.36-1-4.85-1.52-7.28-.25-1.2-.48-2.49-.72-3.78l-.36-1.93c-.06-.29-.11-.71-.17-1.11l-.18-1.2Z"/></clipPath><clipPath id="clip-path-9" transform="translate(-4.19 46.99)"><path class="cls-2" d="M770.08,315.36C795.85,545.64,669.89,538.62,503.85,558.3c-142.39,16.88-264.38-52.68-242-228.13C277.55,207.58,368.24,39.2,505.23,57,636.5,74,753.29,165.36,770.08,315.36Z"/></clipPath><clipPath id="clip-path-10" transform="translate(-4.19 46.99)"><path class="cls-1" d="M346.53,231.69c14,21.78,21.1,47.23,25.8,72.67,2.75,14.86,4.83,30.16,11.76,43.59,20,38.75,70.75,47.75,114.32,49.17,83.33,2.72,168.76-5.1,248.4,19.53,29.8,9.22,59.15,23.61,78.89,47.76,19.36,23.67,27.71,54.52,31.43,84.87,2.34,19.07,3,38.66-1.72,57.27-13.83,54.14-68.29,86.2-118.58,110.56-71.3,34.54-146.82,66.27-226.05,66.41-65,.11-127.82-21-189.76-40.66-53.34-16.9-107.46-33-156.35-60.23s-92.88-67-113.94-118.84c-8.34-20.52-12.93-43-10.06-64.93,3.06-23.31,14.21-44.63,22.38-66.68,11-29.74,16.84-61.56,31.79-89.54,28.12-52.62,84.32-84,140.48-104.17,24.49-8.8,30.6-41.51,53.55-46.95C311.41,186.17,336.06,215.35,346.53,231.69Z"/></clipPath><clipPath id="clip-path-11" transform="translate(-4.19 46.99)"><path class="cls-1" d="M770.27,286.39c23.05,8.7,51.81,13.67,70.07-2.88,16-14.51,16.49-40.65,6.7-59.9S819.5,190.54,801.91,178C699.09,104.78,578.31,52,452.16,47.43c-6.12-.23-12.57-.27-18,2.63s-9.17,9.77-6.57,15.32A59.7,59.7,0,0,0,471.43,75,325,325,0,0,0,579,204.48c13.8,9.73,30.34,18.74,47.4,20.6,21.21,2.3,28.61-9.72,46.14,2.28C705,249.54,732.77,272.24,770.27,286.39Z"/></clipPath></defs><g id="Layer_7" data-name="Layer 7"><circle class="cls-3" cx="507.81" cy="558.99" r="502.81"/></g><g id="Shadow"><path class="cls-4" d="M735.48,315.36C761.25,545.64,635.29,538.62,469.25,558.3c-142.39,16.88-264.39-52.68-242-228.13C243,207.58,333.64,39.2,470.63,57,601.9,74,718.69,165.36,735.48,315.36Z" transform="translate(-4.19 46.99)"/></g><g id="Tentacles"><g class="cls-5"><path class="cls-6" d="M549.24,555a.19.19,0,0,0,0-.08c0-.05,0,0-.1.11l-.16.22-.64.84c-.21.25-.46.64-.7,1l-.72,1.08c-1,1.36-1.95,3.07-2.94,4.64s-1.92,3.33-2.88,5-1.93,3.4-2.81,5.23l-2.73,5.38c-.93,1.79-1.72,3.7-2.59,5.55l-2.56,5.6-2.35,5.77a381.88,381.88,0,0,0-16,48.17c-9,33.13-14.75,67.74-18,102.77-.28,2.18-.43,4.38-.58,6.57l-.48,6.59-1,13.21-.5,6.61-.41,6.79c-.28,4.53-.53,9-.88,13.58-1.28,18.1-2.93,36.19-5.24,54.24a467.77,467.77,0,0,1-9.67,53.82l-.85,3.33-.92,3.31-.93,3.31-1,3.3c-1.36,4.38-2.92,8.73-4.71,13a74.18,74.18,0,0,1-6.43,12.45,25.63,25.63,0,0,1-4.78,5.38,12.34,12.34,0,0,1-1.48,1.1,12.13,12.13,0,0,1-1.6.93,7.1,7.1,0,0,1-3.61.83l0-.24a9.75,9.75,0,0,0,2.27-2.31,24.17,24.17,0,0,0,1.71-2.67c1-1.85,2-3.72,2.82-5.68a74.24,74.24,0,0,0,4.3-12.16c1.14-4.19,2.06-8.47,2.79-12.79l.56-3.24.47-3.27.46-3.26.37-3.28a451.77,451.77,0,0,0,2.41-53c-.09-17.74-.82-35.5-1.93-53.25-.24-4.43-.59-8.87-.9-13.31l-.47-6.65-.4-6.83-.76-13.69-.37-6.85c-.13-2.29-.26-4.57-.26-6.86-1.22-36.63.11-73.64,5.27-110.82a431.16,431.16,0,0,1,11.31-55.78l1.91-7,2.21-7c.76-2.32,1.42-4.65,2.27-7l2.53-7c.82-2.33,1.8-4.67,2.77-7s1.88-4.67,3-7,2.11-4.71,3.43-7.2l.94-1.84c.32-.61.61-1.2,1-1.9l1.13-2,.29-.5c.1-.17.17-.31.35-.59l.95-1.48Z" transform="translate(-4.19 46.99)"/></g><path class="cls-7" d="M566.85,550.61a.19.19,0,0,0,0-.08s-.05.05-.1.12l-.16.21-.64.84c-.21.25-.46.64-.7,1l-.72,1.08c-1,1.37-1.95,3.07-2.94,4.64s-1.93,3.33-2.88,5-1.93,3.4-2.81,5.23L553.18,574c-.93,1.79-1.72,3.7-2.59,5.55l-2.56,5.6L545.67,591a383.47,383.47,0,0,0-16,48.17c-9,33.13-14.75,67.74-18,102.77-.28,2.18-.43,4.38-.58,6.57l-.48,6.59-1,13.21-.5,6.61-.41,6.79c-.29,4.53-.53,9.05-.88,13.58-1.28,18.1-2.93,36.19-5.24,54.24A467.77,467.77,0,0,1,493,903.31l-.85,3.33-.92,3.32-.93,3.3-1,3.3c-1.36,4.38-2.92,8.73-4.71,13A74.18,74.18,0,0,1,478.09,942a25.63,25.63,0,0,1-4.78,5.38,12.34,12.34,0,0,1-1.48,1.1,11.62,11.62,0,0,1-1.61.93,7,7,0,0,1-3.6.83l0-.24a9.94,9.94,0,0,0,2.27-2.31,24.17,24.17,0,0,0,1.71-2.67c1-1.85,2-3.72,2.82-5.68a73.91,73.91,0,0,0,4.3-12.16c1.14-4.19,2.06-8.47,2.79-12.79l.56-3.24.47-3.27.46-3.26.37-3.28a451.68,451.68,0,0,0,2.41-53c-.09-17.74-.82-35.5-1.93-53.25-.24-4.43-.59-8.87-.9-13.31l-.47-6.65-.4-6.83-.76-13.69-.37-6.85c-.13-2.28-.26-4.57-.26-6.86-1.22-36.63.11-73.64,5.27-110.82a431.16,431.16,0,0,1,11.31-55.78l1.91-7,2.21-7c.76-2.32,1.42-4.65,2.27-7l2.53-7c.82-2.33,1.8-4.67,2.77-7s1.88-4.67,3-7,2.11-4.71,3.43-7.2l.94-1.84c.32-.61.61-1.2,1-1.9l1.13-2,.29-.5c.1-.17.17-.31.35-.59l1-1.48Z" transform="translate(-4.19 46.99)"/><g class="cls-8"><g class="cls-5"><path class="cls-9" d="M599.65,530.8a.54.54,0,0,0,0-.15c0-.06,0,0-.09.1l-.15.2-.62.8a10.23,10.23,0,0,0-.68,1l-.72,1c-1,1.32-1.94,3-2.92,4.54s-1.92,3.27-2.88,4.94-1.92,3.35-2.8,5.15l-2.74,5.32c-.93,1.77-1.73,3.66-2.6,5.49l-2.58,5.55-2.37,5.72a380,380,0,0,0-16.18,47.86c-9.15,33-15.08,67.48-18.51,102.44-.29,2.18-.45,4.37-.62,6.57l-.51,6.58-1,13.18-.53,6.6-.45,6.8c-.31,4.53-.58,9-1,13.59-1.36,18.11-3.11,36.22-5.52,54.28a467.36,467.36,0,0,1-10,53.86,186.12,186.12,0,0,1-8.59,26.27A74.44,74.44,0,0,1,509.15,921a25.19,25.19,0,0,1-4.87,5.36,11.74,11.74,0,0,1-1.5,1.09,12.35,12.35,0,0,1-1.63.91,6.94,6.94,0,0,1-3.66.77l0-.25a10.14,10.14,0,0,0,2.22-2.37,23.58,23.58,0,0,0,1.66-2.7c1-1.86,1.91-3.73,2.74-5.69a74.49,74.49,0,0,0,4.22-12.15,179,179,0,0,0,4.49-25.83,451,451,0,0,0,2.11-53c-.18-17.72-1-35.47-2.21-53.21-.27-4.43-.64-8.86-1-13.29l-.51-6.65-.43-6.84L510,733.45l-.41-6.86c-.14-2.29-.28-4.58-.3-6.88-1.4-36.69-.25-73.8,4.76-111.14a431.29,431.29,0,0,1,11.12-56.08l1.9-7,2.19-7c.75-2.34,1.41-4.69,2.26-7l2.52-7c.81-2.35,1.79-4.72,2.76-7.08s1.88-4.72,3-7.14,2.12-4.77,3.45-7.3l1-1.87c.32-.63.61-1.22,1-1.94l1.16-2.05.29-.51.36-.62,1-1.54Z" transform="translate(-4.19 46.99)"/></g></g><g class="cls-5"><path class="cls-6" d="M638.87,454.51l.66.52.35.29.67.56,1.08.94c.7.63,1.27,1.17,1.91,1.76,1.17,1.12,2.3,2.23,3.35,3.32s2.05,2.18,3.08,3.28l2.88,3.27c3.74,4.36,7.1,8.79,10.26,13.28a218.25,218.25,0,0,1,16.36,27.72,255.73,255.73,0,0,1,12.16,28.8,291.79,291.79,0,0,1,8.78,29.38c2.36,9.86,4.34,19.74,5.79,29.63.82,4.94,1.36,9.88,2,14.82.33,2.47.49,4.94.74,7.4s.49,4.94.66,7.4c.67,9.86,1.09,19.7,1.09,29.48v20.81l.17,6.72a461,461,0,0,0,15.58,107.05c1.12,4.42,2.42,8.79,3.66,13.19s2.64,8.74,4.09,13.07q4.27,13,9.33,25.84t11,25.25c2,4.16,4.06,8.23,6.13,12.33a26.08,26.08,0,0,1,2.15,6.76,25.41,25.41,0,0,1,.14,8.28,19.88,19.88,0,0,1-7.74-3.32,23.71,23.71,0,0,1-5.34-5.07c-2.8-3.87-5.47-7.84-8.06-11.84q-7.8-12-14.77-24.52t-13.2-25.47c-2.11-4.31-4.07-8.68-6.06-13.05s-3.86-8.79-5.64-13.25a482,482,0,0,1-18.5-54.8,449.36,449.36,0,0,1-11.8-57.06l-1-7.25-.82-7.28-1.58-13.88c-1-8.87-2.42-17.64-3.94-26.33-.37-2.18-.85-4.33-1.27-6.49s-.81-4.32-1.33-6.45c-1-4.27-1.91-8.55-3.08-12.74-2.14-8.45-4.74-16.7-7.59-24.78a233.27,233.27,0,0,0-21.32-45.42A161.56,161.56,0,0,0,616,517.24c-2.46-3-5-5.81-7.55-8.34l-1.91-1.84c-.63-.56-1.27-1.19-1.87-1.69s-1.2-1-1.76-1.47l-.72-.55-.27-.18h0s0,0,0,0l.32.25Z" transform="translate(-4.19 46.99)"/></g><path class="cls-10" d="M656.48,450.1l.66.52.35.29.67.56,1.07.94c.71.63,1.28,1.17,1.92,1.76,1.17,1.12,2.3,2.23,3.35,3.32s2,2.18,3.08,3.28l2.88,3.27c3.74,4.36,7.1,8.79,10.26,13.28a217.67,217.67,0,0,1,16.36,27.73,254.19,254.19,0,0,1,12.16,28.8A291.61,291.61,0,0,1,718,563.22c2.36,9.86,4.34,19.74,5.79,29.63.82,4.94,1.36,9.89,2,14.82.33,2.47.49,4.94.74,7.41s.49,4.93.66,7.39c.67,9.86,1.09,19.7,1.09,29.49v20.8l.17,6.72a460.92,460.92,0,0,0,15.58,107c1.12,4.42,2.42,8.79,3.66,13.19s2.64,8.74,4.09,13.07q4.28,13,9.33,25.85t11,25.24c1.94,4.16,4.06,8.23,6.13,12.33a26.08,26.08,0,0,1,2.15,6.76,25.16,25.16,0,0,1,.13,8.28,19.9,19.9,0,0,1-7.73-3.32,23.71,23.71,0,0,1-5.34-5.07C764.64,879,762,875,759.38,871q-7.8-12-14.77-24.52T731.41,821c-2.11-4.31-4.07-8.68-6.06-13s-3.86-8.79-5.64-13.25a481.38,481.38,0,0,1-18.5-54.8,449.36,449.36,0,0,1-11.8-57.06l-1-7.25-.82-7.28L686,654.46c-1-8.87-2.42-17.64-3.94-26.33-.37-2.18-.85-4.33-1.27-6.49s-.81-4.32-1.33-6.45c-1-4.27-1.91-8.55-3.08-12.74-2.14-8.45-4.74-16.7-7.59-24.78a233.86,233.86,0,0,0-21.32-45.42,161.56,161.56,0,0,0-13.87-19.42c-2.46-3-5-5.8-7.55-8.34l-1.91-1.84c-.63-.56-1.27-1.19-1.87-1.69s-1.2-1-1.76-1.47c-.24-.18-.54-.42-.73-.55l-.26-.18h0s0,0,0,0l.32.25Z" transform="translate(-4.19 46.99)"/><g class="cls-11"><g class="cls-5"><path class="cls-9" d="M688.82,427l.71.55.36.3.7.59,1.11,1c.72.64,1.3,1.2,2,1.8,1.19,1.15,2.35,2.29,3.41,3.4,2.17,2.24,4.13,4.45,6,6.67,3.79,4.44,7.18,8.93,10.37,13.48A220.59,220.59,0,0,1,730,482.77a257,257,0,0,1,12.18,29.08,294.54,294.54,0,0,1,8.74,29.61c2.34,9.93,4.3,19.88,5.72,29.83.8,5,1.33,9.94,1.93,14.9.32,2.48.47,5,.72,7.44s.47,5,.63,7.44c.64,9.9,1,19.78,1,29.61l-.06,14.1,0,6.69.13,6.69a460.82,460.82,0,0,0,15,106.87c1.09,4.42,2.37,8.78,3.58,13.18s2.58,8.74,4,13.08q4.2,13,9.18,25.85t10.84,25.28c1.92,4.17,4,8.24,6.06,12.34a25.42,25.42,0,0,1,1.84,15.32,20,20,0,0,1-8-3.12,22.53,22.53,0,0,1-5.47-5c-2.83-3.86-5.52-7.82-8.13-11.81q-7.89-12-14.93-24.5t-13.36-25.46c-2.13-4.3-4.11-8.67-6.13-13s-3.92-8.79-5.72-13.26A482.35,482.35,0,0,1,730.79,719a449.81,449.81,0,0,1-12.09-57.2l-1-7.27-.86-7.3L716,640l-.81-6.63c-1-8.83-2.5-17.55-4.06-26.2-.38-2.16-.86-4.3-1.29-6.45s-.83-4.3-1.35-6.41c-1-4.24-2-8.5-3.12-12.66-2.18-8.39-4.8-16.58-7.67-24.59a231.42,231.42,0,0,0-21.34-44.9,158.48,158.48,0,0,0-13.77-19.08,109.59,109.59,0,0,0-7.44-8.14c-1.25-1.21-2.5-2.4-3.69-3.41-.6-.53-1.16-1-1.69-1.39-.23-.16-.51-.39-.68-.5l-.24-.15v0l0,0,.36.28Z" transform="translate(-4.19 46.99)"/></g></g><g class="cls-5"><path class="cls-6" d="M631.26,470.36c-1.49-1-3.19-2.14-4.35-2.93-.64-.43-1.29-.83-1.95-1.21a9.17,9.17,0,0,0-1.7-.82,2.85,2.85,0,0,0-.92-.19,1.27,1.27,0,0,0-.5.06,1.11,1.11,0,0,0-.55.28,2.27,2.27,0,0,0-.62.82c-.17.71-.62.9-.22,4.19-3.44,4.81,17.12,14.16,17.58,9a37.39,37.39,0,0,0,3.41-1.78,5.79,5.79,0,0,1,1.06-.49,3.85,3.85,0,0,1,.61-.1,2.88,2.88,0,0,1,.85.11,4.32,4.32,0,0,1,1.22.65,11.46,11.46,0,0,1,.94.79c.28.26.58.56.83.83.43.5.9,1.06,1.26,1.56a9.26,9.26,0,0,1,1.36,2.68,3.24,3.24,0,0,1,0,2c-.25.55-.57,1.09-.86,1.65l-1.77,3.42c-2.37,4.66-4.69,9.51-6.94,14.4s-4.42,9.87-6.59,14.85-4.27,10-6.31,15.05-4,10.13-6,15.22-3.85,10.19-5.68,15.32-3.57,10.29-5.31,15.44-3.41,10.34-5,15.53a623.34,623.34,0,0,0-16.06,62.93c-2.09,10.57-3.88,21.19-5.21,31.83s-2.3,21.29-2.78,31.94q-.18,4-.25,8l-.06,4v4.09l-.2,17.41c0,5.8-.34,11.57-.58,17.34l-.4,8.66-.21,4.32-.32,4.32-1.29,17.23c-.48,5.73-1.12,11.45-1.67,17.16-.3,2.86-.55,5.72-.88,8.57L574.15,843l-1,8.53-.53,4.27-.61,4.25-2.44,17L566.78,894c-1.94,11.27-3.88,22.51-6.09,33.7s-4.54,22.35-7,33.47l-1.94,8.33a60.86,60.86,0,0,1-2.39,8.24c-.5,1.35-1.05,2.69-1.67,4-.31.66-.64,1.32-1,2s-.7,1.31-1.08,2a38.68,38.68,0,0,1-2.52,3.82,26.88,26.88,0,0,1-3.19,3.66l-1-.22a39.36,39.36,0,0,1-2.15-9.1,57.66,57.66,0,0,1-.42-8.66,73.21,73.21,0,0,1,.79-8.41l1.12-8.35c1.39-11.14,2.69-22.29,3.76-33.47,2.19-22.33,3.72-44.7,4.37-67.06l.16-4.19.08-4.19.14-8.37.15-8.37c0-2.79,0-5.57,0-8.36,0-5.57,0-11.14-.14-16.7L546.25,791l-.13-4.16-.24-4.15-.49-8.3c-.32-5.52-.54-11-1.1-16.54l-1.43-16.47-.39-4.38-.37-4.48q-.33-4.47-.55-9c-.59-12-.49-23.89,0-35.77s1.69-23.7,3.24-35.43a512.72,512.72,0,0,1,14.27-69.15q2.35-8.47,4.94-16.88c1.71-5.61,3.58-11.16,5.47-16.7s3.87-11,5.91-16.53,4.21-10.92,6.42-16.35c4.43-10.84,9.13-21.58,14.3-32.2,2.58-5.32,5.23-10.62,8.09-16l2.21-4.06c.38-.68.74-1.38,1.17-2.06a5.32,5.32,0,0,1,2.07-1.66,12.33,12.33,0,0,1,3.5-1c.73-.1,1.57-.14,2.38-.24l1.41-.06c.5,0,.94-.08,1.53-.09a11.58,11.58,0,0,0,1.84-.2c.35-.07.7-.17,1.18-.31.21-.05.53-.21.79-.29.39-.23.6-.27,1.24-.68a29.53,29.53,0,0,1,3.62-1.94c.54-5.24,21.21,4.15,17.77,9.06.43,3.38,0,3.66-.21,4.46a4.06,4.06,0,0,1-.67,1.08,2.43,2.43,0,0,1-.62.54,2.48,2.48,0,0,1-.57.31,4.93,4.93,0,0,1-1.09.32,12.23,12.23,0,0,1-2.06.16c-.79,0-1.58-.12-2.35-.22a50.82,50.82,0,0,1-5.19-1Z" transform="translate(-4.19 46.99)"/></g><path class="cls-12" d="M648.87,466c-1.49-1-3.19-2.14-4.35-2.93-.64-.43-1.29-.83-1.95-1.21a9.85,9.85,0,0,0-1.7-.82,2.85,2.85,0,0,0-.92-.19,1.27,1.27,0,0,0-.5.06,1.11,1.11,0,0,0-.55.28,2.36,2.36,0,0,0-.62.82c-.17.71-.62.9-.22,4.2-3.44,4.8,17.12,14.15,17.58,9a37.39,37.39,0,0,0,3.41-1.78,5.79,5.79,0,0,1,1.06-.49,3.85,3.85,0,0,1,.61-.1,2.88,2.88,0,0,1,.85.11,4.11,4.11,0,0,1,1.22.66,9.73,9.73,0,0,1,.94.78c.28.27.58.56.83.83.43.5.9,1.06,1.26,1.56a9.26,9.26,0,0,1,1.36,2.68,3.24,3.24,0,0,1,0,2c-.25.55-.57,1.09-.86,1.65l-1.77,3.42c-2.37,4.66-4.69,9.51-6.94,14.4s-4.42,9.87-6.59,14.85-4.27,10-6.31,15-4,10.13-5.95,15.22-3.85,10.19-5.68,15.32-3.57,10.29-5.31,15.44-3.41,10.34-5,15.53a623.34,623.34,0,0,0-16.06,62.93c-2.09,10.57-3.88,21.19-5.21,31.83s-2.3,21.3-2.78,31.94q-.18,4-.25,8l-.06,4v4.09l-.2,17.41c0,5.8-.34,11.57-.58,17.35l-.4,8.65L597,782.8l-.32,4.31-1.29,17.23c-.48,5.73-1.12,11.45-1.67,17.16-.3,2.86-.55,5.72-.88,8.57l-1,8.54-1,8.53-.53,4.27-.61,4.25-2.44,17-2.75,16.93c-1.94,11.26-3.88,22.5-6.09,33.69s-4.54,22.35-7,33.47l-1.94,8.33a60.86,60.86,0,0,1-2.39,8.24c-.5,1.35-1.05,2.69-1.67,4-.31.66-.64,1.32-1,2s-.7,1.31-1.08,2a38.8,38.8,0,0,1-2.52,3.83,27.42,27.42,0,0,1-3.19,3.65l-1-.22a39.41,39.41,0,0,1-2.15-9.09,57.86,57.86,0,0,1-.42-8.67,73.42,73.42,0,0,1,.79-8.41l1.12-8.35c1.39-11.14,2.69-22.29,3.76-33.46,2.19-22.34,3.72-44.71,4.37-67.07l.16-4.18.08-4.19.14-8.38.15-8.37c0-2.78,0-5.57,0-8.36,0-5.57,0-11.14-.14-16.7l-.51-16.66-.13-4.16-.24-4.15L563,770c-.32-5.52-.54-11-1.1-16.54L560.47,737l-.39-4.38-.37-4.48q-.33-4.47-.55-9c-.59-12-.49-23.89,0-35.77s1.69-23.7,3.24-35.43a512.72,512.72,0,0,1,14.27-69.15q2.35-8.48,4.94-16.88c1.71-5.61,3.58-11.16,5.47-16.7s3.87-11,5.91-16.53,4.21-10.92,6.42-16.34c4.43-10.85,9.13-21.59,14.3-32.21,2.57-5.32,5.23-10.62,8.09-16l2.21-4.06c.38-.68.74-1.38,1.17-2.06a5.32,5.32,0,0,1,2.07-1.66,12.67,12.67,0,0,1,3.5-1c.73-.1,1.57-.14,2.38-.24l1.41-.05c.5,0,.94-.09,1.53-.1a10.52,10.52,0,0,0,1.84-.2c.35-.07.7-.17,1.18-.31.21-.05.53-.21.79-.29.39-.23.6-.27,1.24-.68a29.53,29.53,0,0,1,3.62-1.94c.54-5.24,21.21,4.16,17.77,9.06.43,3.38,0,3.66-.21,4.46a4.06,4.06,0,0,1-.67,1.08,2.43,2.43,0,0,1-.62.54,2.48,2.48,0,0,1-.57.31,4.93,4.93,0,0,1-1.09.32,12.26,12.26,0,0,1-2.06.17c-.79-.05-1.58-.13-2.35-.22a51.05,51.05,0,0,1-5.19-1Z" transform="translate(-4.19 46.99)"/><g class="cls-13"><g class="cls-5"><path class="cls-9" d="M679.7,444.76c-1.62-1.1-3.47-2.26-4.73-3.09-.7-.45-1.42-.86-2.13-1.26a9.32,9.32,0,0,0-1.85-.84,2.86,2.86,0,0,0-1-.17,5.25,5.25,0,0,0-.55.09.75.75,0,0,0-.61.37,5.1,5.1,0,0,0-.65.82c-.19,1.85-.77.89-.06,5.21-1.16,7.75,15.75,12.34,18.71,9.07,1.63-.47,3.83-2.14,3.75-1.92.41-.17.88-.44,1.23-.61l.62-.06a1.76,1.76,0,0,1,.94.08c.13,0,.28.05.4.09l.32.19a5.79,5.79,0,0,1,.65.37,12.2,12.2,0,0,1,1,.82c.31.28.65.57.93.86.48.51,1,1.1,1.4,1.61a9.68,9.68,0,0,1,1.55,2.74,3.09,3.09,0,0,1,.06,2.05c-.24.55-.56,1.08-.84,1.64l-1.76,3.39c-2.35,4.63-4.66,9.46-6.9,14.34s-4.39,9.84-6.55,14.8-4.25,10-6.29,15-4,10.1-5.93,15.17-3.84,10.16-5.67,15.28-3.56,10.25-5.3,15.39-3.41,10.3-5,15.47a631.92,631.92,0,0,0-16.14,62.67c-2.11,10.54-3.93,21.1-5.28,31.69s-2.37,21.2-2.89,31.79c-.14,2.65-.23,5.3-.29,8l-.07,4,0,4.08-.27,17.44c0,5.82-.38,11.6-.64,17.38l-.44,8.67-.23,4.33-.34,4.32-1.36,17.26c-.51,5.74-1.17,11.46-1.75,17.18-.3,2.86-.57,5.72-.91,8.57l-1.09,8.55-1.08,8.54-.54,4.27-.63,4.25-2.51,17-2.83,16.93c-2,11.27-4,22.51-6.21,33.71s-4.63,22.35-7.15,33.47l-2,8.32a56.26,56.26,0,0,1-2.46,8.23c-.52,1.35-1.09,2.69-1.73,4-.33.66-.68,1.32-1,2s-.73,1.3-1.14,1.95a36.69,36.69,0,0,1-2.65,3.8,26.9,26.9,0,0,1-3.37,3.61l-1-.24a38,38,0,0,1-2.47-9.15,53.84,53.84,0,0,1-.59-8.7,71.17,71.17,0,0,1,.72-8.42l1.09-8.34c1.35-11.15,2.6-22.3,3.63-33.47,2.11-22.33,3.54-44.7,4.09-67L594,828l.06-4.19.12-8.37.11-8.36c0-2.79,0-5.57-.06-8.35-.08-5.57-.07-11.13-.21-16.69l-.59-16.63-.15-4.16-.25-4.14-.53-8.28c-.35-5.52-.59-11-1.17-16.51l-1.49-16.43-.41-4.39L589,707c-.23-3-.43-6-.58-9-.64-12-.57-24-.07-35.93s1.62-23.8,3.15-35.57a509.36,509.36,0,0,1,14.2-69.4q2.35-8.52,4.93-16.94c1.72-5.62,3.59-11.19,5.48-16.75s3.88-11.08,5.92-16.58,4.23-10.95,6.44-16.39c4.45-10.87,9.16-21.64,14.35-32.3,2.59-5.34,5.26-10.65,8.14-16l2.23-4.09c.39-.68.75-1.39,1.19-2.08a5.17,5.17,0,0,1,2.14-1.64,13.31,13.31,0,0,1,3.71-.91c.77-.09,1.66-.1,2.52-.19l1.5,0c.51,0,1-.1,1.63-.07.29,0,.64-.05,1-.06l.48,0,.56-.11a6.49,6.49,0,0,0,1.28-.34l.79-.26c.4-.23.94-.56,1.41-.79a29,29,0,0,1,4-2.08c3-3.32,20,1.3,18.9,9.15.73,4.41.12,3.54-.06,5.47a9.62,9.62,0,0,1-.7,1.08,1.46,1.46,0,0,1-.68.63l-.62.35a4.56,4.56,0,0,1-1.17.32,11.28,11.28,0,0,1-2.22.16c-.84-.07-1.69-.15-2.52-.28a56.63,56.63,0,0,1-5.58-1.14Z" transform="translate(-4.19 46.99)"/></g></g><g class="cls-5"><path class="cls-6" d="M548.76,495.74l1.07.72.37.27.3.23,1.21.92c.76.59,1.37,1.11,2.06,1.67l1,.83.91.81,1.81,1.61c2.32,2.14,4.57,4.27,6.64,6.43,4.23,4.32,8,8.75,11.71,13.23A223.72,223.72,0,0,1,595,550.56c2.85,4.8,5.3,9.79,7.82,14.69,1.19,2.48,2.31,5,3.46,7.48l1.7,3.74c.53,1.26,1,2.52,1.54,3.79l3,7.59c.94,2.55,1.77,5.13,2.65,7.68l1.29,3.82.63,1.88.42,1.43.85,2.88c.29,1,.66,1.89,1,2.84,5.23,15.26,15,29.83,27.8,42.5,3.19,3.2,6.62,6.21,10.17,9.15s7.27,5.75,11.13,8.4,7.86,5.16,12,7.53a36.65,36.65,0,0,1,5.92,4.39,34,34,0,0,1,5.56,6.48l-.23,1a22.14,22.14,0,0,1-8.53,2.35,28.46,28.46,0,0,1-7.92-.48c-5-1.11-10-2.47-15-4a170.71,170.71,0,0,1-29.23-12.21A143.71,143.71,0,0,1,617,665l-1.71-1.15-1.68-1.21-3.35-2.45c-2.16-1.74-4.41-3.4-6.5-5.27a147.86,147.86,0,0,1-12.28-11.78,130.46,130.46,0,0,1-10.88-13.54c-.83-1.2-1.7-2.39-2.49-3.62l-2.35-3.73-1.16-1.88-1-1.43-1.88-2.79c-1.26-1.85-2.47-3.72-3.76-5.54l-4-5.33-2-2.65L560,600.11c-1.39-1.7-2.74-3.41-4.13-5.08-2.91-3.23-5.69-6.53-8.75-9.54a174.44,174.44,0,0,0-18.59-16.82c-3.21-2.46-6.44-4.86-9.66-6.89-1.6-1.07-3.18-2-4.69-2.88l-1.12-.61-.55-.3-.49-.24c-.31-.14-.69-.35-.94-.44l-.31-.11-.08,0s-.1,0,0,0l.29.23Z" transform="translate(-4.19 46.99)"/></g><path class="cls-14" d="M566.37,491.33l1.07.73.37.26.3.23,1.21.92c.76.6,1.37,1.11,2.06,1.67l1,.84.91.8,1.81,1.61c2.32,2.14,4.57,4.27,6.64,6.43,4.23,4.32,8,8.76,11.71,13.23a223.72,223.72,0,0,1,19.13,28.1c2.85,4.81,5.3,9.79,7.82,14.69,1.19,2.48,2.31,5,3.46,7.48l1.7,3.74c.53,1.26,1,2.53,1.54,3.79l3,7.6c.94,2.54,1.77,5.12,2.65,7.67L634,595l.63,1.87.42,1.43.85,2.88c.29,1,.66,1.89,1,2.84,5.23,15.26,15,29.83,27.8,42.51,3.19,3.19,6.62,6.21,10.17,9.14s7.27,5.75,11.13,8.4,7.86,5.16,12,7.53a36.65,36.65,0,0,1,5.92,4.39,34.35,34.35,0,0,1,5.56,6.49l-.23,1a22.35,22.35,0,0,1-8.53,2.36,28.84,28.84,0,0,1-7.92-.49c-5-1.11-10-2.47-15-4A170.71,170.71,0,0,1,648.54,669a143.71,143.71,0,0,1-13.95-8.4l-1.71-1.15-1.68-1.21-3.35-2.45c-2.16-1.74-4.41-3.4-6.5-5.27a147.86,147.86,0,0,1-12.28-11.78,130.46,130.46,0,0,1-10.88-13.54c-.83-1.2-1.7-2.38-2.49-3.62l-2.35-3.73L592.19,616l-1-1.43-1.88-2.79c-1.26-1.85-2.47-3.72-3.76-5.53l-4-5.33-2-2.66-2.07-2.56c-1.39-1.7-2.74-3.41-4.13-5.08-2.91-3.23-5.7-6.53-8.75-9.53a173.49,173.49,0,0,0-18.59-16.83c-3.21-2.46-6.44-4.86-9.66-6.88-1.6-1.08-3.18-2-4.69-2.89l-1.12-.61-.55-.3-.5-.24c-.3-.14-.68-.35-.93-.44l-.31-.11-.08,0s-.1,0,0,0l.29.24Z" transform="translate(-4.19 46.99)"/><g class="cls-15"><g class="cls-5"><path class="cls-9" d="M598.76,467.66l1.13.77a3.78,3.78,0,0,1,.38.28l.31.23,1.25.95c.78.62,1.4,1.15,2.11,1.73l1,.85.93.83,1.84,1.65c2.35,2.19,4.63,4.37,6.72,6.57,4.27,4.42,8.08,8.93,11.79,13.49a225,225,0,0,1,19.15,28.56c2.84,4.87,5.28,9.92,7.79,14.89,1.18,2.52,2.29,5.06,3.43,7.58l1.68,3.78c.53,1.28,1,2.56,1.52,3.85l3,7.68c.92,2.57,1.73,5.18,2.6,7.76l1.26,3.87.62,1.9.4,1.4.78,2.85c.27,1,.62,1.86.92,2.81,4.9,15.09,14.29,29.67,26.89,42.45,3.13,3.22,6.5,6.27,10,9.24s7.16,5.82,11,8.52,7.78,5.25,11.85,7.67a34.13,34.13,0,0,1,11.28,11.39l-.25,1a22.31,22.31,0,0,1-8.65,2.72,27.61,27.61,0,0,1-8-.33c-5.08-1.06-10.11-2.38-15.13-3.89a171.6,171.6,0,0,1-29.55-12,145.26,145.26,0,0,1-14.15-8.35l-1.74-1.14-1.7-1.21-3.4-2.44c-2.2-1.74-4.48-3.4-6.62-5.27a147.77,147.77,0,0,1-12.52-11.82,131.53,131.53,0,0,1-11.12-13.63c-.85-1.21-1.75-2.4-2.56-3.65l-2.4-3.76-1.2-1.9-1-1.41-1.91-2.75c-1.27-1.82-2.49-3.67-3.79-5.45l-4-5.24-2-2.61-2.09-2.51c-1.4-1.66-2.76-3.35-4.16-5-2.93-3.17-5.72-6.4-8.79-9.33A170.78,170.78,0,0,0,575.07,545c-3.2-2.38-6.4-4.69-9.58-6.63-1.58-1-3.13-1.91-4.62-2.74l-1.08-.57-.54-.28-.47-.21c-.3-.13-.67-.32-.89-.4l-.28-.07-.07,0s-.1,0,0,0l.35.27Z" transform="translate(-4.19 46.99)"/></g></g><g class="cls-5"><path class="cls-6" d="M450.52,532.29c-.24.54-.6,1.61-.9,2.48l-1,2.83-1.87,5.8c-1.22,3.91-2.38,7.87-3.51,11.86q-3.39,12-6.31,24.16c-3.9,16.24-7,32.67-9.52,49.17a452,452,0,0,0-4.84,49.67l-.22,6.21-.08,6.2c-.11,4.15,0,8.26.08,12.4.32,8.22.73,16.47,1.7,24.59.37,4.1,1.05,8.1,1.6,12.17.32,2,.72,4,1.07,6l.55,3,.62,3.3,2.53,13.39.62,3.33.46,3.37.95,6.72c.64,4.48,1.35,8.93,1.68,13.43l1.33,13.43.73,13.45.17,3.36c.05,1.12,0,2.24.06,3.36l.07,6.72.07,6.7-.2,6.71c-.14,4.46-.21,8.92-.61,13.37l-.49,6.66-.25,3.33-.36,3.32-.78,6.63-.39,3.31-.49,3.31c-.68,4.39-1.26,8.79-2.18,13.14l-1.26,6.54-1.45,6.5c-.47,2.16-1,4.32-1.58,6.46a56.35,56.35,0,0,1-2.13,6.35,52,52,0,0,1-2.87,6.16,33.51,33.51,0,0,1-3.93,5.83l-1-.26a71.8,71.8,0,0,1-1.15-13.46c0-2.17.06-4.34.2-6.48.08-1.07.15-2.14.26-3.2l.22-3.21.43-6.4.25-6.41c.21-4.27.21-8.55.32-12.81l.06-3.19-.05-3.2-.08-6.39,0-3.19-.13-3.19-.25-6.37c-.1-4.24-.51-8.47-.79-12.7l-.45-6.33-.71-6.31-.71-6.3c-.12-1-.22-2.1-.36-3.14l-.5-3.13-1.95-12.49c-1.71-8.24-3.21-16.51-5.56-24.56l-1.62-6.07-.83-3-1-3-4-11.86-2.13-6.3c-.74-2.2-1.52-4.4-2.22-6.61-1.29-4.42-2.73-8.86-3.83-13.33-2.44-8.93-4.25-17.93-6-27-.72-4.52-1.6-9-2.2-13.58l-1-6.81-.82-6.81c-.29-2.27-.52-4.54-.73-6.81l-.65-6.82c-.33-4.54-.74-9.1-1-13.65-.62-9.1-.89-18.19-1.07-27.3s-.07-18.18.15-27.27.71-18.17,1.22-27.26,1.27-18.18,2.18-27.29c.44-4.56,1-9.13,1.51-13.72l.87-7,.49-3.53c.19-1.25.32-2.29.6-3.86Z" transform="translate(-4.19 46.99)"/></g><path class="cls-16" d="M468.13,527.88c-.24.54-.6,1.62-.9,2.48l-1,2.83L464.4,539c-1.22,3.92-2.38,7.87-3.51,11.86q-3.39,12-6.31,24.16c-3.9,16.24-7,32.67-9.52,49.17a452,452,0,0,0-4.84,49.67l-.22,6.21-.09,6.2c-.1,4.16,0,8.26.09,12.4.32,8.22.73,16.47,1.7,24.59.37,4.1,1.05,8.1,1.6,12.17.32,2,.72,4,1.07,6l.55,3,.62,3.3,2.53,13.39.62,3.34.46,3.36,1,6.72c.64,4.48,1.35,8.93,1.68,13.43l1.33,13.44.73,13.45.17,3.35c.05,1.12,0,2.24.06,3.36l.07,6.72.07,6.7-.2,6.71c-.14,4.46-.21,8.92-.61,13.37l-.49,6.66-.25,3.33-.36,3.32-.78,6.64-.39,3.31-.5,3.3c-.67,4.39-1.25,8.79-2.17,13.14l-1.27,6.54-1.44,6.5c-.47,2.16-1,4.32-1.58,6.46a56.35,56.35,0,0,1-2.13,6.35,52,52,0,0,1-2.87,6.16,34,34,0,0,1-3.93,5.84l-1-.27a71.73,71.73,0,0,1-1.15-13.46c0-2.17.06-4.34.2-6.48.08-1.07.15-2.14.26-3.2l.22-3.21.43-6.4.25-6.41c.21-4.27.21-8.55.32-12.81l.06-3.19-.05-3.2-.08-6.39,0-3.19-.13-3.19-.25-6.37c-.1-4.24-.51-8.47-.79-12.7l-.45-6.33-.71-6.31-.71-6.3c-.12-1.05-.22-2.1-.36-3.14l-.5-3.13-1.95-12.49c-1.71-8.24-3.21-16.51-5.56-24.56l-1.62-6.07-.83-3-1-3-4-11.87-2.13-6.3c-.74-2.2-1.52-4.4-2.22-6.6-1.3-4.43-2.73-8.87-3.83-13.34-2.44-8.93-4.25-17.93-6-27-.72-4.52-1.6-9-2.2-13.58l-1-6.81-.82-6.8c-.29-2.28-.52-4.55-.73-6.82l-.65-6.82c-.33-4.54-.74-9.1-1-13.65-.62-9.1-.89-18.19-1.07-27.29s-.07-18.19.15-27.28.71-18.17,1.22-27.26,1.27-18.18,2.18-27.29c.44-4.56,1-9.13,1.51-13.72l.87-7,.49-3.53c.18-1.25.32-2.29.6-3.86Z" transform="translate(-4.19 46.99)"/><g class="cls-17"><g class="cls-5"><path class="cls-9" d="M501.69,507.38c-.23.5-.6,1.58-.91,2.43l-1,2.8-1.92,5.75q-1.86,5.83-3.59,11.79c-2.31,7.93-4.47,16-6.48,24-4,16.16-7.23,32.52-9.84,49a446.35,446.35,0,0,0-5.17,49.46l-.27,6.19-.13,6.18c-.13,4.14,0,8.22,0,12.35.27,8.19.62,16.41,1.53,24.5.34,4.08,1,8.06,1.51,12.12.3,2,.69,4,1,6l.52,3,.61,3.31,2.47,13.45.61,3.35.44,3.39.93,6.74c.62,4.49,1.32,9,1.63,13.48L485,780.13l.68,13.49.17,3.36c0,1.12,0,2.25,0,3.37l0,6.73.05,6.73-.23,6.71c-.15,4.48-.24,8.94-.66,13.4l-.52,6.68-.26,3.33-.38,3.33-.82,6.64-.41,3.32-.51,3.3c-.69,4.4-1.3,8.8-2.25,13.16l-1.3,6.54-1.49,6.51c-.48,2.16-1,4.32-1.63,6.46a54.84,54.84,0,0,1-2.2,6.35,51.15,51.15,0,0,1-3,6.14,32.83,32.83,0,0,1-4.12,5.79l-1-.29a66.62,66.62,0,0,1-1.46-13.51c0-2.18,0-4.35.12-6.49.07-1.07.13-2.14.23-3.2l.21-3.2.39-6.4.21-6.41c.18-4.26.15-8.54.23-12.79l.05-3.2-.07-3.19-.12-6.38,0-3.18-.14-3.19-.28-6.35c-.13-4.24-.55-8.46-.84-12.68l-.48-6.31-.74-6.3-.73-6.28c-.13-1-.23-2.09-.38-3.13l-.51-3.12-2-12.45C457,775.2,455.48,767,453.1,759l-1.65-6-.84-3-1-3-4-11.8-2.17-6.3c-.75-2.21-1.55-4.41-2.26-6.63-1.33-4.44-2.8-8.89-3.92-13.38-9.66-35.92-13.08-72.65-14.05-109.14-.21-9.13-.18-18.25,0-27.38s.61-18.24,1.07-27.37,1.14-18.26,2-27.42c.42-4.58.93-9.17,1.43-13.8l.83-7,.47-3.56c.18-1.26.31-2.31.6-3.91Z" transform="translate(-4.19 46.99)"/></g></g><g class="cls-5"><path class="cls-6" d="M414.34,511.27l.07-.21,0-.12,0-.05,0,0-.27.37-.27.37-.14.19-.17.27-1.35,2.2-1.4,2.52-.71,1.27-.68,1.36-1.37,2.76-.69,1.37-.65,1.45-2.64,5.81-2.49,6-1.25,3-1.16,3.12-2.34,6.26c-.79,2.09-1.45,4.26-2.18,6.39a512,512,0,0,0-14.43,53.19c-3.83,18.23-7.23,36.73-9.69,55.46l-1.88,14.06c-.58,4.7-1,9.42-1.55,14.13s-1,9.44-1.47,14.17l-1.45,14.9-1.8,14.87c-.71,4.94-1.34,9.88-2.12,14.81l-1.21,7.37-.61,3.69-.67,3.68c-.9,4.9-1.76,9.79-2.82,14.66L353.44,788l-1.69,7.27c-1.07,4.85-2.41,9.65-3.62,14.47-2.63,9.59-5.39,19.13-8.6,28.53a391.16,391.16,0,0,1-23,54.81c-4.52,8.81-9.53,17.37-14.84,25.73-1.31,2.1-2.7,4.16-4.07,6.22a51.32,51.32,0,0,1-4.51,5.94,41.29,41.29,0,0,1-5.55,5.24,27.07,27.07,0,0,1-7,4.09l-.78-.62a42.85,42.85,0,0,1,1.33-7.75,57.76,57.76,0,0,1,2.24-7c.84-2.24,1.85-4.38,2.89-6.5s2-4.26,3-6.43c3.89-8.61,7.32-17.43,10.53-26.3s6-17.88,8.65-26.93c.64-2.26,1.32-4.51,1.92-6.79l1.8-6.82c.59-2.28,1.11-4.58,1.66-6.86l.83-3.42.77-3.45c2.12-9.15,3.79-18.41,5.36-27.65.68-4.65,1.48-9.27,2-13.93l.89-7,.74-7c1-9.31,1.65-18.67,2.05-28,.21-4.68.27-9.37.41-14s0-9.36,0-14l-.86-28.81c-.14-4.93-.36-9.86-.44-14.8l-.08-14.84c-.16-9.9.17-19.84.32-29.8,0-5,.37-10,.58-15l.35-7.5c.11-2.5.23-5,.43-7.51l1.09-15.07c.39-5,1-10.07,1.48-15.12s1.15-10.11,1.81-15.18c.34-2.54.63-5.08,1-7.63L333.7,541c.43-2.56.79-5.11,1.26-7.68l1.46-7.71.73-3.87.85-3.88,1.75-7.8,2-7.89.52-2,.58-2,1.19-4,.6-2,.68-2.08,1.37-4.16,1.62-4.4.21-.55.26-.63.52-1.25.53-1.25.07-.16.12-.26.25-.51.5-1Z" transform="translate(-4.19 46.99)"/></g><path class="cls-18" d="M432,506.87l.07-.22,0-.11v-.06l0,0-.27.37-.27.38-.14.18-.17.27-1.35,2.2-1.4,2.52-.71,1.27-.69,1.37-1.36,2.75L425,519.2l-.65,1.45-2.64,5.82-2.49,6-1.25,3-1.16,3.12-2.35,6.26c-.78,2.09-1.44,4.26-2.17,6.39a512,512,0,0,0-14.43,53.19c-3.83,18.23-7.23,36.74-9.69,55.46L386.28,674c-.58,4.7-1,9.42-1.55,14.13s-1,9.44-1.47,14.17l-1.45,14.9L380,732.1c-.71,4.94-1.34,9.88-2.12,14.81l-1.21,7.38-.61,3.68-.67,3.68c-.9,4.9-1.76,9.8-2.82,14.66l-1.53,7.31-1.69,7.27c-1.07,4.85-2.41,9.65-3.62,14.47-2.63,9.59-5.39,19.13-8.6,28.53a391.16,391.16,0,0,1-23.05,54.81c-4.52,8.81-9.53,17.38-14.84,25.73-1.31,2.1-2.7,4.16-4.07,6.22a51.32,51.32,0,0,1-4.51,5.94,41.29,41.29,0,0,1-5.55,5.24,26.79,26.79,0,0,1-7,4.09l-.78-.61a43,43,0,0,1,1.33-7.76,57.76,57.76,0,0,1,2.24-7c.84-2.24,1.85-4.38,2.89-6.5s2-4.26,3-6.43c3.89-8.61,7.32-17.43,10.53-26.3s6-17.88,8.65-26.92c.64-2.27,1.32-4.52,1.92-6.8l1.8-6.82c.59-2.28,1.11-4.58,1.66-6.86l.83-3.42.77-3.45c2.12-9.15,3.79-18.4,5.36-27.65.68-4.65,1.48-9.27,2-13.93l.89-7,.74-7c1-9.31,1.65-18.67,2-28,.21-4.68.27-9.37.41-14s0-9.36,0-14l-.86-28.81c-.14-4.92-.36-9.86-.44-14.8L343,657c-.16-9.9.17-19.84.32-29.8,0-5,.37-10,.58-15l.35-7.5c.11-2.5.23-5,.43-7.51l1.09-15.07c.39-5,1-10.07,1.48-15.11s1.15-10.12,1.81-15.19c.34-2.54.63-5.08,1-7.63l1.23-7.64c.43-2.56.79-5.11,1.26-7.68L354,521.2l.73-3.87.85-3.88,1.75-7.8,2-7.89.52-2,.58-2,1.19-4,.6-2,.68-2.07,1.37-4.17,1.62-4.4.21-.55.26-.63.52-1.25.53-1.25.07-.16.12-.26.25-.51.5-1Z" transform="translate(-4.19 46.99)"/><g class="cls-19"><g class="cls-5"><path class="cls-9" d="M465.38,487.12l.1-.27,0-.13,0-.07,0,0-.26.34-.27.34-.13.16-.17.26-1.34,2.11-1.4,2.46-.71,1.23-.69,1.34-1.37,2.7-.69,1.35-.66,1.43-2.66,5.73-2.53,6-1.26,3-1.18,3.09-2.38,6.2c-.8,2.07-1.47,4.22-2.21,6.34a505.54,505.54,0,0,0-14.75,52.89c-3.94,18.16-7.44,36.6-10,55.29l-2,14c-.6,4.69-1.08,9.4-1.62,14.11s-1.06,9.42-1.55,14.14l-1.53,14.94L412.31,711c-.73,5-1.38,9.9-2.19,14.84s-1.59,9.86-2.56,14.77-1.8,9.81-2.88,14.69l-1.56,7.32-1.72,7.28c-1.1,4.86-2.45,9.67-3.69,14.49C395,794,392.24,803.58,389,813a388.32,388.32,0,0,1-23.34,54.83c-4.59,8.8-9.59,17.4-15,25.72-1.33,2.09-2.74,4.14-4.13,6.2a51.64,51.64,0,0,1-4.57,5.92,40.21,40.21,0,0,1-5.69,5.17,26.87,26.87,0,0,1-7.22,3.94l-.85-.66a42.13,42.13,0,0,1,1.11-7.91,58.06,58.06,0,0,1,2.09-7c.83-2.25,1.81-4.4,2.83-6.52s2-4.28,2.93-6.44q5.67-13,10.37-26.32C350.68,851,353.43,842,356,833c.63-2.27,1.3-4.52,1.89-6.79l1.76-6.82c.57-2.28,1.08-4.58,1.63-6.86l.81-3.42.75-3.44c2.08-9.14,3.71-18.38,5.23-27.62.66-4.64,1.44-9.25,2-13.9l.87-7,.71-7c1-9.29,1.55-18.63,1.91-28,.19-4.66.22-9.34.34-14s-.08-9.34-.12-14l-1-28.79c-.17-4.94-.41-9.88-.51-14.83l-.17-14.87c-.2-9.93.07-19.89.16-29.88,0-5,.32-10,.5-15l.31-7.52c.09-2.51.2-5,.39-7.54l1-15.12c.36-5,.93-10.12,1.4-15.19s1.1-10.17,1.73-15.27c.32-2.55.61-5.11,1-7.67l1.19-7.69c.42-2.57.77-5.14,1.23-7.73l1.42-7.77.72-3.9.83-3.92,1.71-7.87,2-8,.51-2,.59-2,1.18-4.08.59-2,.68-2.11,1.37-4.23,1.64-4.49.21-.56.26-.65.53-1.29.54-1.28.07-.17.13-.27.26-.53.52-1.07Z" transform="translate(-4.19 46.99)"/></g></g><g class="cls-5"><path class="cls-6" d="M498.17,540v.91l0,.62,0,.61,0,.54-.16,2.1c-.11,1.35-.24,2.65-.38,3.93-.28,2.56-.6,5-1,7.48-.72,4.89-1.51,9.67-2.45,14.39-1.86,9.43-4.08,18.62-6.68,27.67A365,365,0,0,1,468,650.58c-3.91,8.37-8,16.62-12.57,24.61-2.16,4-4.58,8-6.88,11.91-1.19,2-2.44,3.88-3.65,5.81s-2.42,3.88-3.72,5.76a373.4,373.4,0,0,1-33.34,43c-3,3.31-6.19,6.59-9.23,9.82l-4.14,4.41-2.07,2.21c-.7.73-1.38,1.48-2,2.25a188.33,188.33,0,0,0-14.69,19.08,166.52,166.52,0,0,0-20.77,42.86L353.2,828l-1.45,5.76c-.88,3.86-1.71,7.74-2.32,11.66a164.76,164.76,0,0,0-2.1,23.73,149.7,149.7,0,0,0,1.5,24,101.21,101.21,0,0,1,1.08,12.27c0,2.13.07,4.29-.05,6.55a67.77,67.77,0,0,1-.66,7.13l-.88.48a31.43,31.43,0,0,1-10.47-10.07A44.86,44.86,0,0,1,332,897c-1.37-4.35-2.5-8.78-3.45-13.26-.4-2.25-.91-4.49-1.21-6.76s-.71-4.53-.9-6.82a153.34,153.34,0,0,1,4.27-54.77,210.34,210.34,0,0,1,20.84-50.73c1.14-2,2.2-4,3.38-6l3.59-5.81,1.78-2.93,1.9-2.83,3.79-5.68c2.56-3.76,5.31-7.36,7.95-11.09,2.39-3.39,4.76-6.66,7.09-10a293.23,293.23,0,0,0,40.61-87.09c2.16-7.64,3.9-15.37,5.35-23.11s2.6-15.51,3.32-23.26,1.19-15.49,1.13-23.09c0-3.81-.12-7.56-.34-11.22-.12-1.83-.27-3.63-.45-5.35-.1-.86-.19-1.71-.31-2.49-.05-.42-.11-.76-.17-1.11l0-.27,0-.19L430,543v.12Z" transform="translate(-4.19 46.99)"/></g><path class="cls-20" d="M515.78,535.57v.91l0,.62,0,.61,0,.54-.16,2.1c-.11,1.36-.24,2.65-.38,3.93-.28,2.56-.6,5-1,7.48-.72,4.89-1.51,9.68-2.45,14.39-1.86,9.43-4.08,18.62-6.68,27.67a365,365,0,0,1-19.45,52.35c-3.91,8.38-8,16.62-12.57,24.62-2.16,4-4.58,8-6.88,11.9-1.19,2-2.44,3.88-3.65,5.82s-2.42,3.87-3.72,5.75a373.4,373.4,0,0,1-33.34,43c-3,3.32-6.19,6.59-9.23,9.83l-4.14,4.4L410,753.67c-.7.74-1.38,1.48-2,2.25A188.33,188.33,0,0,0,393.29,775a166.52,166.52,0,0,0-20.77,42.86l-1.71,5.7-1.45,5.76c-.88,3.85-1.71,7.73-2.32,11.65a164.76,164.76,0,0,0-2.1,23.73,149.63,149.63,0,0,0,1.5,24A101.21,101.21,0,0,1,367.52,901c.05,2.13.07,4.29,0,6.55a67.77,67.77,0,0,1-.66,7.13l-.88.48A31.43,31.43,0,0,1,355.46,905a44.86,44.86,0,0,1-5.89-12.44c-1.37-4.35-2.5-8.78-3.45-13.26-.4-2.25-.91-4.49-1.21-6.76s-.71-4.53-.9-6.82A153.26,153.26,0,0,1,348.28,811a210.25,210.25,0,0,1,20.84-50.74c1.14-2,2.2-4,3.38-6l3.59-5.81,1.78-2.93,1.9-2.83,3.79-5.67c2.56-3.77,5.31-7.37,7.95-11.1,2.39-3.39,4.76-6.66,7.09-10a293.48,293.48,0,0,0,40.61-87.09c2.16-7.64,3.9-15.37,5.35-23.11s2.6-15.5,3.32-23.26S449.07,567,449,559.39c0-3.8-.12-7.56-.34-11.22-.12-1.83-.27-3.63-.45-5.35-.1-.86-.19-1.71-.31-2.49-.05-.42-.11-.76-.17-1.11l0-.27-.05-.19,0-.18v.11Z" transform="translate(-4.19 46.99)"/><g class="cls-21"><g class="cls-5"><path class="cls-9" d="M549.4,514.27v1l0,.64,0,.63,0,.54-.17,2.14c-.12,1.38-.26,2.7-.41,4-.29,2.6-.64,5.1-1,7.57-.75,4.94-1.58,9.77-2.56,14.51-1.94,9.51-4.23,18.76-6.91,27.86a367.85,367.85,0,0,1-19.88,52.59c-4,8.41-8.18,16.68-12.78,24.7-2.19,4.05-4.65,8-7,11.93-1.2,2-2.46,3.89-3.69,5.83s-2.45,3.88-3.78,5.76a374.32,374.32,0,0,1-33.71,43c-3.07,3.32-6.25,6.6-9.31,9.82l-4.15,4.36-2.07,2.19c-.7.73-1.38,1.46-2,2.23a185.37,185.37,0,0,0-14.71,18.91A164.51,164.51,0,0,0,404.37,797l-1.72,5.66-1.46,5.71c-.88,3.83-1.72,7.69-2.33,11.57a164.21,164.21,0,0,0-2.2,23.58A149.37,149.37,0,0,0,398,867.35a90.21,90.21,0,0,1,.89,12.26c0,2.14-.05,4.31-.24,6.59a62.22,62.22,0,0,1-.93,7.24l-.95.51A30.73,30.73,0,0,1,385.85,884a43.27,43.27,0,0,1-6.1-12.45c-1.4-4.37-2.55-8.81-3.53-13.31-.42-2.25-.94-4.51-1.25-6.79s-.74-4.55-.94-6.85a153.47,153.47,0,0,1,4.13-55.09,212.65,212.65,0,0,1,20.85-51c1.14-2,2.2-4,3.38-6l3.59-5.85,1.78-2.95,1.89-2.85,3.79-5.72c2.55-3.8,5.31-7.43,7.94-11.18,2.36-3.4,4.71-6.67,7-10A290.82,290.82,0,0,0,468.21,607c2.08-7.61,3.75-15.31,5.13-23s2.45-15.42,3.1-23.13,1-15.37.9-22.9c0-3.77-.19-7.48-.45-11.09-.14-1.8-.31-3.58-.51-5.27-.1-.84-.21-1.67-.33-2.43-.06-.41-.12-.73-.19-1.07l0-.25-.05-.18,0-.17v0l0,.13Z" transform="translate(-4.19 46.99)"/></g></g><g class="cls-5"><path class="cls-6" d="M589,522.07l-.08.51a3.82,3.82,0,0,0-.07.6l-.13,1.45c-.08,1-.15,1.94-.2,3-.09,2.06-.24,4.08-.29,6.2l-.17,6.32,0,6.38c0,8.53.3,17.13.75,25.75.16,4.32.56,8.62.9,12.94l.53,6.48.7,6.46.7,6.48.35,3.25.43,3.23L594.25,624c.29,2.16.7,4.29,1.07,6.44l1.14,6.43c.76,4.3,1.47,8.62,2.43,12.87s1.84,8.53,2.77,12.81c.44,2.15,1,4.25,1.55,6.36l1.63,6.35a489.72,489.72,0,0,0,15.65,50.2c.38,1,.72,2.08,1.12,3.11l1.25,3,2.51,6.09,5,12.23c3.71,8.47,7.34,16.95,10.68,25.54l2.51,6.44,2.38,6.49c.79,2.16,1.6,4.31,2.32,6.51l2.25,6.52c.75,2.18,1.41,4.39,2.12,6.58s1.39,4.38,2,6.6l2,6.62,1.77,6.67c4.56,17.83,7.88,36.05,8.74,54.48.18,4.61.3,9.22.19,13.83s-.4,9.22-.82,13.81-1.12,9.16-2.05,13.69a40.84,40.84,0,0,1-2.08,6.67,28.31,28.31,0,0,1-1.53,3.2,18.58,18.58,0,0,1-2,3l-1-.32a103.4,103.4,0,0,1-.09-13.5c.29-4.38.49-8.77.43-13.17s-.18-8.78-.54-13.17-.78-8.75-1.32-13.11c-1.21-8.7-2.72-17.37-4.78-25.92s-4.48-17-7.26-25.35a306.33,306.33,0,0,0-21.06-48.36c-1-2-2.09-3.87-3.2-5.78l-3.28-5.72c-2.25-3.79-4.61-7.51-6.91-11.26l-7.17-11.85-3.59-5.94-1.79-3c-.59-1-1.11-2-1.67-3L589,725l-3.35-6.11-3.08-6.23-6.23-12.48c-1.08-2.07-2-4.19-3-6.31l-2.87-6.35-2.88-6.37c-1-2.13-1.94-4.25-2.79-6.41-1.77-4.31-3.51-8.63-5.32-12.94s-3.46-8.67-5.13-13l-2.48-6.56c-.82-2.19-1.69-4.38-2.42-6.59l-4.59-13.29L543.7,619l-1.07-3.35-2.15-6.71-2.15-6.72-2-6.78c-1.29-4.53-2.73-9-3.92-13.61-2.54-9.12-4.85-18.32-7-27.65l-1.62-7L522.25,540c-.53-2.35-1-4.82-1.45-7.24-.24-1.2-.46-2.47-.68-3.75l-.34-1.91c-.06-.29-.12-.69-.17-1.09l-.17-1.17Z" transform="translate(-4.19 46.99)"/></g><path class="cls-22" d="M615.28,518.11l-.08.51a3.82,3.82,0,0,0-.07.6l-.13,1.45c-.08,1-.15,1.94-.2,3-.09,2.07-.25,4.09-.29,6.21l-.17,6.31,0,6.38c0,8.53.3,17.13.75,25.75.16,4.32.56,8.63.9,12.94l.53,6.48.7,6.47.7,6.47.35,3.25.43,3.23,1.85,12.92c.29,2.16.7,4.29,1.07,6.44l1.14,6.44c.76,4.29,1.47,8.61,2.43,12.86s1.84,8.53,2.77,12.81c.44,2.15,1,4.25,1.55,6.36l1.63,6.35a490.67,490.67,0,0,0,15.65,50.21c.37,1,.72,2.08,1.12,3.1l1.25,3,2.5,6.09,5,12.23c3.71,8.47,7.34,17,10.67,25.55l2.51,6.43,2.39,6.49c.79,2.17,1.6,4.31,2.31,6.51l2.26,6.52c.75,2.18,1.41,4.39,2.12,6.58s1.39,4.38,2,6.6l2,6.62,1.77,6.68c4.56,17.82,7.88,36,8.74,54.47.18,4.61.3,9.22.19,13.83s-.4,9.22-.82,13.81-1.12,9.17-2,13.69a40.84,40.84,0,0,1-2.08,6.67,29.24,29.24,0,0,1-1.53,3.2,18.58,18.58,0,0,1-2,3l-1-.32a103.4,103.4,0,0,1-.09-13.5c.29-4.38.49-8.77.43-13.17s-.18-8.78-.54-13.17-.78-8.75-1.32-13.11c-1.21-8.7-2.72-17.36-4.78-25.92s-4.48-17-7.26-25.35a306.73,306.73,0,0,0-21.06-48.36q-1.53-2.93-3.2-5.77l-3.28-5.73c-2.25-3.79-4.61-7.51-6.91-11.26L629,745.15l-3.59-5.94-1.79-3c-.59-1-1.11-2-1.67-3L615.25,721l-3.35-6.11-3.08-6.23-6.23-12.48c-1.08-2.07-2-4.19-3-6.31l-2.87-6.35-2.88-6.37c-1-2.13-1.94-4.25-2.79-6.41-1.77-4.3-3.51-8.63-5.32-12.94s-3.47-8.67-5.13-13l-2.48-6.56c-.82-2.19-1.69-4.37-2.42-6.59l-4.59-13.29L570,615l-1.07-3.35-2.15-6.71-2.15-6.73-2-6.78c-1.29-4.53-2.73-9-3.92-13.61-2.54-9.12-4.85-18.32-7.06-27.65l-1.61-7L548.53,536c-.53-2.35-1-4.82-1.45-7.24-.24-1.19-.46-2.46-.68-3.75l-.34-1.91c-.06-.29-.12-.69-.17-1.09l-.17-1.17Z" transform="translate(-4.19 46.99)"/><g class="cls-23"><g class="cls-5"><path class="cls-9" d="M640.29,496.37l-.09.49a3.8,3.8,0,0,0-.09.57l-.14,1.44c-.1.95-.18,1.91-.24,2.95-.11,2.05-.29,4.05-.36,6.16l-.24,6.28-.08,6.35c-.14,8.5.12,17.08.5,25.68.11,4.31.47,8.6.77,12.91l.47,6.47.64,6.45.64,6.47.32,3.24.41,3.23,1.74,12.9c.26,2.17.66,4.29,1,6.44l1.08,6.43c.73,4.29,1.4,8.61,2.32,12.85s1.78,8.53,2.68,12.81c.42,2.14,1,4.25,1.49,6.36l1.58,6.35A483.71,483.71,0,0,0,670,699.42c.37,1,.71,2.08,1.1,3.11l1.23,3,2.45,6.1,4.93,12.24L685,736.76l2.69,6.38c.44,1.06.91,2.12,1.33,3.19l1.2,3.26,4.83,13c.81,2.16,1.67,4.29,2.32,6.52l2.16,6.58,2.16,6.56,1.07,3.29c.36,1.09.62,2.22.94,3.33l3.7,13.33c4.43,17.9,7.73,36.14,8.55,54.61.08,2.31.25,4.6.25,6.91l-.07,6.94-.06,3.46-.24,3.46c-.18,2.31-.3,4.61-.53,6.91l-.9,6.88c-.12,1.14-.39,2.29-.58,3.43s-.42,2.27-.65,3.41c-1.12,4.5-2.65,9-5.82,12.86l-1-.35c-.14-1.18-.24-2.37-.29-3.49s-.13-2.29-.13-3.4,0-2.24,0-3.34.11-2.19.12-3.3c0-2.2.28-4.37.31-6.56l.06-6.58c0-2.19-.16-4.39-.23-6.58l-.12-3.28-.29-3.28-.55-6.56c-.2-2.18-.57-4.35-.85-6.52l-.91-6.51-1.21-6.48L701,838.36l-1.55-6.4-1.55-6.39-.38-1.6-.48-1.58-.95-3.15-1.9-6.31c-.66-2.09-1.19-4.21-2-6.26l-4.5-12.38c-.4-1-.74-2.07-1.18-3.08l-1.32-3-2.64-6.05C679.27,774,675,766.28,671,758.48l-1.53-2.91c-.54-1-1.13-1.9-1.69-2.84l-3.39-5.67-6.85-11.24L650.25,724,646.62,718l-1.82-3c-.59-1-1.13-2-1.69-3l-6.77-12.18L633,693.74l-3.13-6.23L623.5,675c-1.1-2.07-2-4.19-3-6.31l-2.93-6.35L614.63,656c-1-2.13-2-4.25-2.84-6.41-1.81-4.31-3.58-8.63-5.43-12.94s-3.53-8.68-5.23-13L598.59,617c-.84-2.19-1.72-4.38-2.47-6.59l-4.71-13.3-1.18-3.34-1.11-3.35-2.2-6.72L584.71,577l-2-6.78c-1.32-4.54-2.81-9.06-4-13.64-2.62-9.14-5-18.36-7.31-27.73l-1.68-7-1.58-7.14c-.55-2.37-1-4.85-1.52-7.29-.25-1.2-.48-2.48-.72-3.78l-.36-1.93c-.05-.29-.11-.7-.17-1.1l-.18-1.2Z" transform="translate(-4.19 46.99)"/></g></g></g><g id="Body"><path class="cls-24" d="M770.08,315.36C795.85,545.64,669.89,538.62,503.85,558.3c-142.39,16.88-264.38-52.68-242-228.13C277.55,207.58,368.24,39.2,505.23,57,636.5,74,753.29,165.36,770.08,315.36Z" transform="translate(-4.19 46.99)"/></g><g id="Details"><path class="cls-2" d="M770.08,315.36C795.85,545.64,669.89,538.62,503.85,558.3c-142.39,16.88-264.38-52.68-242-228.13C277.55,207.58,368.24,39.2,505.23,57,636.5,74,753.29,165.36,770.08,315.36Z" transform="translate(-4.19 46.99)"/><g class="cls-25"><path class="cls-26" d="M727.69,43.42c-8.49,27-129.35,30-223.81,66-144.17,54.86-236.95-23.44-223.8-65.95,10.76-34.8,100.2-65.95,223.8-65.95S738.62,8.67,727.69,43.42Z" transform="translate(-4.19 46.99)"/><path class="cls-27" d="M722.41,19c-8.49,27-129.35,30-223.8,65.95C354.43,139.77,261.66,61.47,274.8,19,285.57-15.84,375-47,498.61-47S733.34-15.79,722.41,19Z" transform="translate(-4.19 46.99)"/><path class="cls-28" d="M293.58,544.17c-19.11-6.25-16.44-34.12,3.51-36.59,78.39-9.7,163.68-8.17,207.15-25.6,45.64-18.3,171.62,18,301,44.36,20.23,4.13,20.11,33-.16,37l-280.38,54a18.82,18.82,0,0,1-9.42-.59Z" transform="translate(-4.19 46.99)"/><path class="cls-29" d="M314.63,579.71C296.8,573,299.29,543,317.9,540.29c73.11-10.45,152.65-8.8,193.19-27.57,42.56-19.71,160.06,19.39,280.75,47.79,18.87,4.44,18.76,35.6-.15,39.8L530.2,658.49a15.36,15.36,0,0,1-8.79-.64Z" transform="translate(-4.19 46.99)"/></g><path class="cls-30" d="M746.53,425.24c7.93,10.43-10.91,26.44-23.73,23.73-9.47-2-22.24-11.89-23.73-23.73-1.21-9.57,12.63-24.84,23.73-23.73C730.27,402.25,738.73,415,746.53,425.24Z" transform="translate(-4.19 46.99)"/><path class="cls-30" d="M546.12,439.42c3,4-4.14,10.05-9,9-3.6-.76-8.45-4.52-9-9-.46-3.63,4.8-9.44,9-9C540,430.69,543.16,435.53,546.12,439.42Z" transform="translate(-4.19 46.99)"/><path class="cls-31" d="M720.58,253.83c2.22,1.52-3,3.85-6.62,3.45-2.64-.29-6.2-1.73-6.62-3.45-.34-1.39,3.53-3.61,6.62-3.44C716.05,250.49,718.41,252.34,720.58,253.83Z" transform="translate(-4.19 46.99)"/><path class="cls-32" d="M377.13,470.58c1.2,3.17-1.65,8-3.58,7.2-1.43-.6-3.36-3.6-3.59-7.2-.18-2.9,1.91-7.53,3.59-7.2C374.67,463.61,376,467.48,377.13,470.58Z" transform="translate(-4.19 46.99)"/><path class="cls-33" d="M531.72,152.77c2.21,1.91-3.05,4.85-6.62,4.36-2.65-.37-6.21-2.19-6.63-4.36-.33-1.76,3.53-4.56,6.63-4.36C527.18,148.55,529.54,150.89,531.72,152.77Z" transform="translate(-4.19 46.99)"/><path class="cls-34" d="M395.36,234.75c8.13,10.24-21,2.08-35.44-7.39-15.65-10.26-25-30-12.94-33.81,15.55-5,40.15-3.69,35.44,7.39C377.88,211.61,386.19,223.2,395.36,234.75Z" transform="translate(-4.19 46.99)"/><path class="cls-14" d="M430.22,122.54c1.89,1.12-2.6,2.83-5.65,2.54-2.26-.21-5.3-1.27-5.66-2.54-.29-1,3-2.65,5.66-2.54C426.35,120.08,428.36,121.45,430.22,122.54Z" transform="translate(-4.19 46.99)"/><path class="cls-35" d="M444.33,109.39c.75.89-1,2.26-2.25,2a2.92,2.92,0,0,1-2.24-2c-.12-.82,1.19-2.12,2.24-2C442.79,107.43,443.59,108.52,444.33,109.39Z" transform="translate(-4.19 46.99)"/><path class="cls-36" d="M443,117.65c1.89,4.63-17.41,2.53-22.22-2.08-7.39-7.09-15.66-8.44-8.12-9.53,9.75-1.4,19.36-1.12,22.23,2.08S441.09,112.91,443,117.65Z" transform="translate(-4.19 46.99)"/><path class="cls-16" d="M556.48,526.15c1.21,2.47-3.06,4.79-5.73,4.1-1.93-.49-4-5.41-4-5.74,0-2.55,3.44-3.54,5.73-4.1C554.29,520,554.68,522.5,556.48,526.15Z" transform="translate(-4.19 46.99)"/><path class="cls-18" d="M542.81,533.79c1.23,1-1.69,2.64-3.68,2.37-1.47-.2-3.44-1.19-3.67-2.37-.19-1,1.95-2.49,3.67-2.38C540.29,531.49,541.6,532.76,542.81,533.79Z" transform="translate(-4.19 46.99)"/><path class="cls-22" d="M558.05,543.65c-4.27-4.58,6.15-15,4.85-19.14-1.36-4.35,7.09-9.31,19-6,8.52,2.35,5.12,19.33-4.85,19.14C570.59,537.49,563.63,549.64,558.05,543.65Z" transform="translate(-4.19 46.99)"/><path class="cls-16" d="M449.72,516.22c-1.92,1.08-7.77-1.76-5.42-2.26,2.13-.46,3-2.54,3.22-3.79s5.11.8,5.42,2.25C453.15,513.4,451.74,515.07,449.72,516.22Z" transform="translate(-4.19 46.99)"/><path class="cls-37" d="M442,523.89c.59,1.09-.82,2.78-1.78,2.49a3.07,3.07,0,0,1-1.77-2.49c-.09-1,1-2.61,1.77-2.49C440.73,521.48,441.36,522.81,442,523.89Z" transform="translate(-4.19 46.99)"/><path class="cls-38" d="M425.51,523.84c-4.69-.54-6.83-8.72-4.82-12.06,3.59-6,5.73-10.07,11.89-9.37,7.77.89,12.58,9,4.82,12.07C432.42,516.46,432.7,524.67,425.51,523.84Z" transform="translate(-4.19 46.99)"/></g><g id="Shade"><g class="cls-39"><path class="cls-40" d="M489,559.86c-135.23,9.82-247.19-61-225.64-229.69C279,207.57,369.68,39.2,506.68,57c1.46.18,2.91.39,4.36.59C398.5,75.7,325.13,221.06,311.19,330.17,292.23,478.46,376.46,551.12,489,559.86Z" transform="translate(-4.19 46.99)"/></g><g class="cls-41"><path class="cls-42" d="M501.48,558.3a324.61,324.61,0,0,1-70.75,1c3-.27,6.1-.6,9.17-1,166-19.69,292-12.66,266.23-242.94-16.28-145.48-126.62-235.85-253-256.67A149.53,149.53,0,0,1,502.86,57C634.12,74,750.92,165.36,767.7,315.36,793.48,545.64,667.51,538.61,501.48,558.3Z" transform="translate(-4.19 46.99)"/></g><path class="cls-43" d="M393.26,160.89c2.17,2.22,4.55,4.44,5.57,7.38s.5,6.28.72,9.45c1.28,18.53,26.05,26.23,32.85,43.52,2.4,6.11,2.32,12.95,4.48,19.15S445,252.5,451.36,251c-.87,22.52,17.82,44.06,40.24,46.37-1,12.09,5,23.58,11.21,34q6.36,10.65,13.33,20.93c10.64,15.71,24.24,31.91,43,34.57,4.17.59,8.86.66,11.82,3.65,1.93,1.95,2.67,4.74,3.47,7.37,7.88,25.53,30.29,46,56.43,51.58,7.48,1.59,15.56,2.2,21.7,6.75,3.25,2.4,5.67,5.73,8.7,8.4,10.71,9.48,29,8.51,38.67-2.05l25.27,5.14.19,8.3c5,.5,13.86,6.21,17.42,9.82-22,28.31-58,45.26-93,53.15a462.63,462.63,0,0,1-62.55,9.94c-45.42,3.87-90.53,12.78-136.1,11.82-44.07-.94-87.93-14-124.73-40.19-32.25-23-42.91-39.29-61.64-97.61-6-18.62-5.38-33.45-5.58-53-.22-22,3.39-44.72,7.18-66.69,5.58-32.4,6.26-39.72,40.2-112.39,6-12.84,10-21,30.05-48.05A179.21,179.21,0,0,1,354,121.59c2.18-2.3,8.55-9.14,14.85-15.92,2.88-3.09,1.41,11.19,2.46,15.48a86.7,86.7,0,0,0,5.13,14.94A85,85,0,0,0,393.26,160.89Z" transform="translate(-4.19 46.99)"/></g><g id="Eyes"><path class="cls-9" d="M450.2,307.32c-.24,40-37.19,55.84-77.85,52.87a60.41,60.41,0,0,1-52.67-39.85c-17.95-50.62,17.63-54.68,63-54.25C419.81,266.44,450.42,270.22,450.2,307.32Z" transform="translate(-4.19 46.99)"/><path d="M441.29,304.26c-.16,26-25.23,35.72-51.88,32.78a35.21,35.21,0,0,1-28.89-22.3c-13.16-33.87,9.48-36.54,38.56-36.27C422.28,278.69,441.43,281.06,441.29,304.26Z" transform="translate(-4.19 46.99)"/><path class="cls-9" d="M419.42,289.8c-.57,2.27,1.37,3.2,2.48,5,1.28,2,4.19-.93,4.55-3.23.27-1.7-1.09-3.48-2.49-5S420,287.53,419.42,289.8Z" transform="translate(-4.19 46.99)"/><path class="cls-9" d="M413.84,291.09c-.3,1.19.36,1.59.68,2.46s1.54-.65,1.77-1.85a3.59,3.59,0,0,0-.69-2.46C415.13,288.46,414.13,289.9,413.84,291.09Z" transform="translate(-4.19 46.99)"/><path class="cls-9" d="M421.21,297.14c-.27,1.05-1.37,1-2.29,1.45s-1.69-1.34-1.32-2.35c.27-.76,1.3-1.17,2.28-1.46S421.47,296.09,421.21,297.14Z" transform="translate(-4.19 46.99)"/><path class="cls-9" d="M582.62,299.48c.67,40,37.79,55.43,78.42,52a60.43,60.43,0,0,0,52.24-40.42c17.4-50.81-18.23-54.49-63.62-53.57C612.57,258.27,582,262.39,582.62,299.48Z" transform="translate(-4.19 46.99)"/><path d="M620.3,301.43c.44,26,25.61,35.45,52.23,32.21A35.21,35.21,0,0,0,701.18,311c12.78-34-9.88-36.43-38.95-35.84C639,275.66,619.91,278.23,620.3,301.43Z" transform="translate(-4.19 46.99)"/><path class="cls-9" d="M678.22,283.86c-.57,2.26,1.37,3.2,2.48,5,1.28,2,4.19-.94,4.55-3.23.27-1.7-1.09-3.49-2.48-5S678.79,281.59,678.22,283.86Z" transform="translate(-4.19 46.99)"/><path class="cls-9" d="M672.64,285.14c-.3,1.2.36,1.6.68,2.47s1.54-.66,1.77-1.85a3.63,3.63,0,0,0-.69-2.47C673.93,282.51,672.94,284,672.64,285.14Z" transform="translate(-4.19 46.99)"/><path class="cls-9" d="M680,291.2c-.26,1.05-1.37,1-2.28,1.45-1.06.54-1.7-1.34-1.33-2.36.27-.75,1.3-1.16,2.28-1.45S680.27,290.15,680,291.2Z" transform="translate(-4.19 46.99)"/></g></svg>