<svg id="Layer_1" data-name="Layer 1" xmlns="http://www.w3.org/2000/svg" xmlns:xlink="http://www.w3.org/1999/xlink" viewBox="0 0 519.23 962.42"><defs><style>.cls-1{fill:none;}.cls-2,.cls-33,.cls-7{fill:#fff;}.cls-2{opacity:0;}.cls-3,.cls-30,.cls-33{opacity:0.2;}.cls-30,.cls-4{fill:#202020;}.cls-5{fill:#2d6ded;}.cls-6{clip-path:url(#clip-path);}.cls-8{fill:#194cb2;}.cls-9{clip-path:url(#clip-path-2);}.cls-10{fill:#2f1da3;}.cls-11{clip-path:url(#clip-path-3);}.cls-12{fill:#379bed;}.cls-13{clip-path:url(#clip-path-4);}.cls-14{fill:#6c27cc;}.cls-15{clip-path:url(#clip-path-5);}.cls-16{fill:#952fcc;}.cls-17{clip-path:url(#clip-path-6);}.cls-18{fill:#4e37e5;}.cls-19{clip-path:url(#clip-path-7);}.cls-20{fill:#5415ad;}.cls-21{clip-path:url(#clip-path-8);}.cls-22{fill:#d6a800;}.cls-23{clip-path:url(#clip-path-9);}.cls-24{fill:#8dc7f2;}.cls-25{fill:#185c90;}.cls-26{fill:#7b56b9;}.cls-27{fill:#5b34a0;}.cls-28{fill:#b08a00;}.cls-29{fill:#705800;}.cls-31{clip-path:url(#clip-path-10);}.cls-32{clip-path:url(#clip-path-11);}</style><clipPath id="clip-path" transform="translate(-267.37 0.79)"><path class="cls-1" d="M554,551.89a.5.5,0,0,0,.05-.13c0-.06,0,0-.09.09l-.14.18-.57.74c-.18.21-.41.57-.63.89l-.67,1c-.89,1.22-1.79,2.78-2.7,4.2s-1.77,3-2.66,4.57-1.78,3.1-2.6,4.77l-2.53,4.92c-.86,1.63-1.6,3.39-2.41,5.08l-2.38,5.13-2.2,5.29a355,355,0,0,0-15,44.29c-8.46,30.5-13.95,62.43-17.13,94.79-.26,2-.41,4-.56,6.07l-.47,6.09-1,12.2-.49,6.11-.42,6.28c-.28,4.2-.53,8.38-.88,12.58-1.27,16.76-2.89,33.51-5.11,50.22A432.17,432.17,0,0,1,484.28,877a173.49,173.49,0,0,1-7.94,24.32,69.25,69.25,0,0,1-6,11.53,23.76,23.76,0,0,1-4.5,5,11.8,11.8,0,0,1-1.4,1,10.47,10.47,0,0,1-1.5.84,6.54,6.54,0,0,1-3.39.72l0-.24a9.43,9.43,0,0,0,2.05-2.19,21.45,21.45,0,0,0,1.53-2.5c.92-1.72,1.77-3.45,2.54-5.26a69.39,69.39,0,0,0,3.9-11.24,165.37,165.37,0,0,0,4.16-23.9,416.3,416.3,0,0,0,1.95-49c-.17-16.41-.93-32.83-2-49.24-.25-4.09-.59-8.2-.9-12.3l-.48-6.15-.39-6.33-.77-12.68-.38-6.35c-.13-2.12-.26-4.24-.27-6.36a598.79,598.79,0,0,1,4.4-102.84A400.26,400.26,0,0,1,485.08,572l1.76-6.51,2-6.5c.7-2.17,1.31-4.34,2.09-6.51l2.34-6.53c.74-2.17,1.65-4.36,2.55-6.55s1.74-4.37,2.8-6.6,2-4.41,3.2-6.76l.88-1.73c.3-.58.57-1.13.95-1.79l1.07-1.9.27-.48c.09-.16.16-.29.33-.56l.91-1.43Z"/></clipPath><clipPath id="clip-path-2" transform="translate(-267.37 0.79)"><path class="cls-1" d="M636.56,455.8l.65.51.34.28.64.54,1,.9c.67.6,1.21,1.11,1.82,1.67,1.1,1.06,2.17,2.12,3.16,3.15,2,2.07,3.82,4.11,5.59,6.17,3.51,4.1,6.65,8.25,9.6,12.47a205.13,205.13,0,0,1,15.23,26,240.43,240.43,0,0,1,11.27,26.91,271.54,271.54,0,0,1,8.09,27.4c2.16,9.18,4,18.39,5.29,27.59.74,4.6,1.23,9.2,1.78,13.79.3,2.3.44,4.6.67,6.89s.44,4.59.58,6.88c.59,9.16.94,18.3.91,27.4l-.06,13.05,0,6.19.13,6.19a425.68,425.68,0,0,0,13.87,98.87c1,4.09,2.19,8.13,3.31,12.2s2.39,8.09,3.71,12.1Q728,805,732.61,816.83t10,23.39c1.78,3.86,3.71,7.63,5.61,11.42A23.57,23.57,0,0,1,750,865.81a18.45,18.45,0,0,1-7.45-2.88,21.06,21.06,0,0,1-5.06-4.63c-2.61-3.58-5.1-7.24-7.52-10.94q-7.29-11.08-13.82-22.66t-12.35-23.56c-2-4-3.81-8-5.68-12.06s-3.62-8.14-5.29-12.27a448.49,448.49,0,0,1-17.41-50.76,415.19,415.19,0,0,1-11.18-52.92l-1-6.73-.79-6.75-.78-6.71-.74-6.13c-.95-8.17-2.32-16.24-3.76-24.25-.35-2-.8-4-1.19-6s-.77-4-1.26-5.94c-.94-3.92-1.8-7.86-2.89-11.71-2-7.76-4.43-15.34-7.09-22.75A213.8,213.8,0,0,0,625,534.66,147,147,0,0,0,612.26,517a101.4,101.4,0,0,0-6.89-7.53c-1.15-1.12-2.31-2.22-3.41-3.15-.56-.49-1.08-.9-1.57-1.3-.21-.14-.47-.36-.63-.46l-.21-.14v0s0,0,0,0l.33.26Z"/></clipPath><clipPath id="clip-path-3" transform="translate(-267.37 0.79)"><path class="cls-1" d="M628.12,472.28c-1.5-1-3.22-2.09-4.39-2.86-.64-.41-1.31-.79-2-1.16a8.5,8.5,0,0,0-1.71-.78,2.6,2.6,0,0,0-.93-.16l-.51.08a.69.69,0,0,0-.56.35,5.35,5.35,0,0,0-.61.75c-.17,1.72-.71.83-.05,4.83-1.07,7.17,14.58,11.41,17.31,8.39,1.51-.43,3.55-2,3.47-1.78.38-.16.82-.41,1.14-.56l.57-.05a1.59,1.59,0,0,1,.88.07c.12,0,.25,0,.36.08l.3.18a5.82,5.82,0,0,1,.6.34,10.06,10.06,0,0,1,1,.76c.29.26.61.52.86.79.44.47.92,1,1.3,1.49a9.41,9.41,0,0,1,1.44,2.54,3,3,0,0,1,0,1.9c-.23.5-.52,1-.78,1.51l-1.63,3.14c-2.17,4.28-4.31,8.76-6.38,13.27s-4.07,9.1-6.06,13.69S627.84,528.31,626,533s-3.69,9.35-5.49,14-3.55,9.4-5.24,14.13-3.3,9.49-4.91,14.24-3.16,9.53-4.63,14.32a582.59,582.59,0,0,0-14.94,58c-2,9.74-3.63,19.52-4.89,29.32s-2.19,19.61-2.67,29.41q-.18,3.68-.27,7.35l-.06,3.68,0,3.77-.25,16.14c0,5.38-.35,10.73-.59,16.09l-.41,8-.21,4-.32,4-1.25,16c-.47,5.31-1.09,10.6-1.62,15.89-.28,2.65-.53,5.3-.85,7.94l-1,7.91-1,7.9-.5,3.95-.58,3.93-2.33,15.73-2.61,15.67c-1.84,10.42-3.67,20.83-5.76,31.18s-4.28,20.68-6.61,31l-1.82,7.7a52,52,0,0,1-2.27,7.62c-.48,1.25-1,2.49-1.61,3.71-.3.61-.63,1.22-1,1.82s-.68,1.21-1,1.8a36,36,0,0,1-2.45,3.52,25.47,25.47,0,0,1-3.12,3.34l-1-.22a35.34,35.34,0,0,1-2.28-8.47,48,48,0,0,1-.54-8.05,63.12,63.12,0,0,1,.66-7.79l1-7.72c1.25-10.31,2.41-20.63,3.36-31,2-20.66,3.27-41.36,3.78-62l.13-3.88.06-3.87.1-7.74.11-7.74c0-2.58,0-5.15-.06-7.73-.07-5.15-.06-10.3-.19-15.43l-.55-15.4-.13-3.84-.24-3.84-.48-7.66c-.33-5.1-.55-10.21-1.09-15.27l-1.38-15.21-.38-4.06-.35-4.16c-.21-2.78-.4-5.55-.54-8.33-.59-11.11-.52-22.2-.06-33.24s1.5-22,2.92-32.91a471.58,471.58,0,0,1,13.13-64.22q2.19-7.87,4.57-15.67c1.58-5.2,3.31-10.36,5.06-15.5s3.59-10.25,5.48-15.34,3.91-10.13,6-15.16c4.12-10.07,8.47-20,13.28-29.89,2.4-4.94,4.87-9.86,7.53-14.84l2.06-3.79c.36-.63.69-1.28,1.1-1.92a4.79,4.79,0,0,1,2-1.52,12,12,0,0,1,3.42-.84c.72-.08,1.54-.09,2.34-.17l1.39,0c.47,0,.94-.09,1.5-.06.28,0,.6,0,.89,0l.44,0,.51-.11a5.83,5.83,0,0,0,1.19-.31l.73-.24c.38-.21.87-.52,1.31-.73a25.38,25.38,0,0,1,3.67-1.93c2.8-3.06,18.54,1.21,17.48,8.47.68,4.08.12,3.27,0,5.07a8.64,8.64,0,0,1-.65,1,1.39,1.39,0,0,1-.62.58l-.58.32a4.75,4.75,0,0,1-1.08.3,11.16,11.16,0,0,1-2.05.14c-.79-.07-1.57-.14-2.34-.25-1.42-.17-3.39-.64-5.16-1.06Z"/></clipPath><clipPath id="clip-path-4" transform="translate(-267.37 0.79)"><path class="cls-1" d="M553.23,493.47l1,.71a3.14,3.14,0,0,1,.35.26l.29.22,1.15.88c.73.57,1.3,1,2,1.59l.94.79.86.77,1.7,1.52c2.18,2,4.29,4.05,6.22,6.09,3.95,4.08,7.48,8.26,10.91,12.48a207.63,207.63,0,0,1,17.72,26.42c2.63,4.51,4.88,9.18,7.2,13.78,1.1,2.33,2.13,4.68,3.18,7l1.56,3.5c.48,1.18.94,2.37,1.4,3.56l2.73,7.11c.85,2.38,1.61,4.79,2.4,7.18l1.18,3.58.57,1.75.36,1.3.73,2.64c.25.88.57,1.72.85,2.6,4.53,14,13.22,27.46,24.88,39.28,2.89,3,6,5.8,9.25,8.55s6.63,5.39,10.16,7.88,7.2,4.86,11,7.1a31.52,31.52,0,0,1,5.41,4.21,31,31,0,0,1,5,6.33l-.23,1a20.56,20.56,0,0,1-8,2.51,25.59,25.59,0,0,1-7.4-.3c-4.7-1-9.36-2.2-14-3.6A158.19,158.19,0,0,1,627.24,661a132.07,132.07,0,0,1-13.1-7.72l-1.6-1.06L611,651.14l-3.15-2.26c-2-1.6-4.14-3.14-6.12-4.87a138.25,138.25,0,0,1-11.59-10.93,123.67,123.67,0,0,1-10.29-12.61c-.79-1.12-1.61-2.23-2.36-3.38l-2.23-3.48-1.11-1.76-.89-1.31L571.45,608c-1.18-1.69-2.31-3.39-3.51-5l-3.72-4.85-1.83-2.41-1.93-2.33c-1.3-1.54-2.55-3.1-3.85-4.61-2.71-2.93-5.3-5.92-8.13-8.63A156.65,156.65,0,0,0,531.3,565c-2.95-2.2-5.92-4.35-8.86-6.14-1.46-1-2.9-1.77-4.27-2.54l-1-.52-.49-.26-.44-.2c-.28-.11-.62-.3-.82-.36l-.26-.07-.07,0s-.08,0,0,0l.33.26Z"/></clipPath><clipPath id="clip-path-5" transform="translate(-267.37 0.79)"><path class="cls-1" d="M463.41,530.22c-.22.47-.56,1.46-.85,2.25l-.89,2.59-1.78,5.32q-1.72,5.4-3.32,10.91c-2.14,7.34-4.14,14.77-6,22.24-3.71,15-6.69,30.09-9.1,45.29a413.89,413.89,0,0,0-4.79,45.77l-.25,5.73-.11,5.72c-.12,3.82,0,7.6,0,11.42.24,7.57.57,15.18,1.41,22.67.32,3.78.92,7.46,1.4,11.21.28,1.86.63,3.69.95,5.54l.48,2.78.56,3.06,2.29,12.45.56,3.1.41,3.13.86,6.24c.57,4.16,1.22,8.29,1.5,12.48l1.18,12.46.63,12.49.15,3.11c0,1,0,2.08,0,3.12l0,6.23,0,6.22-.21,6.21c-.14,4.14-.22,8.28-.61,12.4l-.48,6.18-.24,3.08-.36,3.08-.75,6.15-.38,3.06-.47,3.06c-.64,4.07-1.21,8.15-2.08,12.18L442,875.2l-1.37,6c-.45,2-.92,4-1.51,6a50.36,50.36,0,0,1-2,5.87,45.94,45.94,0,0,1-2.78,5.69,29.8,29.8,0,0,1-3.81,5.35l-1-.27a61.4,61.4,0,0,1-1.36-12.5c0-2,0-4,.11-6,.07-1,.12-2,.22-3l.19-3,.36-5.92.19-5.93c.17-3.94.14-7.9.22-11.83l0-3-.06-2.95-.11-5.9,0-2.95L429.2,838l-.26-5.89c-.11-3.91-.51-7.82-.78-11.72l-.44-5.85-.68-5.82-.68-5.81c-.12-1-.22-1.94-.35-2.9l-.47-2.89-1.86-11.52c-1.61-7.6-3-15.22-5.23-22.64l-1.52-5.59-.79-2.78-.93-2.74L411.49,741l-2-5.83c-.7-2-1.44-4.08-2.1-6.13-1.23-4.11-2.59-8.23-3.63-12.38-8.94-33.24-12.1-67.22-13-101-.19-8.45-.16-16.89,0-25.33s.56-16.87,1-25.33,1.07-16.89,1.86-25.37c.38-4.23.85-8.48,1.32-12.76l.77-6.47.43-3.3c.17-1.16.29-2.13.56-3.62Z"/></clipPath><clipPath id="clip-path-6" transform="translate(-267.37 0.79)"><path class="cls-1" d="M429.81,511.48l.09-.25.05-.13,0-.06,0,0-.24.31-.25.31-.12.16-.15.24L427.93,514l-1.29,2.28-.66,1.14-.64,1.24-1.27,2.49-.64,1.25-.61,1.32-2.46,5.31L418,534.6l-1.17,2.78-1.09,2.86L413.56,546c-.73,1.92-1.36,3.91-2,5.87a466.64,466.64,0,0,0-13.65,48.94c-3.64,16.8-6.88,33.86-9.26,51.15l-1.81,13c-.56,4.33-1,8.69-1.51,13.05s-1,8.71-1.43,13.08l-1.41,13.83-1.74,13.78c-.68,4.58-1.28,9.17-2,13.73s-1.48,9.13-2.38,13.67-1.66,9.08-2.66,13.59l-1.44,6.77-1.6,6.74c-1,4.5-2.27,9-3.41,13.41-2.47,8.89-5.07,17.73-8.08,26.44a359.21,359.21,0,0,1-21.6,50.72q-6.36,12.22-13.87,23.8c-1.24,1.94-2.54,3.84-3.82,5.74a48.23,48.23,0,0,1-4.23,5.48,38.92,38.92,0,0,1-5.27,4.78,25,25,0,0,1-6.68,3.65l-.78-.62a38.69,38.69,0,0,1,1-7.31,52.39,52.39,0,0,1,1.94-6.51,64.92,64.92,0,0,1,2.62-6c.91-2,1.84-4,2.71-6q5.25-12,9.59-24.36c2.93-8.21,5.48-16.54,7.86-24.91.58-2.09,1.2-4.17,1.74-6.28l1.63-6.31c.53-2.1,1-4.23,1.51-6.34l.75-3.16.69-3.19c1.93-8.45,3.43-17,4.84-25.55.61-4.3,1.33-8.56,1.82-12.87l.8-6.44.65-6.46c.9-8.6,1.45-17.24,1.78-25.88.17-4.32.2-8.64.31-13s-.08-8.65-.11-13l-.93-26.64c-.16-4.57-.38-9.14-.48-13.72L343.46,649c-.19-9.18.06-18.4.15-27.65,0-4.61.29-9.25.45-13.88l.29-7c.09-2.33.19-4.65.36-7l.93-14c.34-4.68.87-9.36,1.3-14.06s1-9.4,1.6-14.12c.3-2.37.57-4.73.9-7.1l1.11-7.12c.38-2.38.7-4.75,1.13-7.14l1.31-7.2.67-3.6.77-3.63,1.59-7.28,1.85-7.38.48-1.85.54-1.88,1.09-3.77.55-1.89.63-2,1.26-3.91,1.52-4.16.19-.52.25-.6.49-1.19.5-1.19.06-.15.12-.25.24-.5.48-1Z"/></clipPath><clipPath id="clip-path-7" transform="translate(-267.37 0.79)"><path class="cls-1" d="M507.55,536.59v.89l0,.58,0,.59,0,.5-.16,2c-.1,1.28-.24,2.5-.37,3.7-.28,2.39-.6,4.71-.95,7-.7,4.57-1.46,9-2.37,13.43-1.79,8.79-3.91,17.35-6.39,25.77a340.22,340.22,0,0,1-18.4,48.66c-3.68,7.78-7.57,15.43-11.82,22.85-2,3.75-4.3,7.38-6.47,11-1.11,1.82-2.28,3.6-3.42,5.39s-2.26,3.6-3.49,5.34a348,348,0,0,1-31.19,39.79c-2.84,3.06-5.79,6.1-8.62,9.08l-3.83,4-1.92,2c-.65.67-1.28,1.35-1.87,2.06a171.7,171.7,0,0,0-13.61,17.5,152.18,152.18,0,0,0-19.21,39.36l-1.59,5.23-1.35,5.3c-.82,3.54-1.59,7.1-2.16,10.7a154.06,154.06,0,0,0-2,21.81,140,140,0,0,0,1.23,22.09,81.9,81.9,0,0,1,.83,11.35c0,2,0,4-.22,6.09a58.89,58.89,0,0,1-.86,6.7l-.88.47a28.49,28.49,0,0,1-10.1-9.18,40.11,40.11,0,0,1-5.64-11.51c-1.29-4.05-2.36-8.16-3.27-12.32-.39-2.09-.86-4.17-1.16-6.28s-.67-4.22-.86-6.34a142,142,0,0,1,3.82-51,196.82,196.82,0,0,1,19.29-47.24c1.06-1.84,2-3.74,3.13-5.55l3.32-5.42,1.64-2.72,1.76-2.64,3.51-5.3c2.36-3.51,4.9-6.87,7.34-10.34,2.19-3.14,4.35-6.17,6.48-9.28a268.86,268.86,0,0,0,36.85-80.43c1.92-7,3.47-14.16,4.74-21.29s2.27-14.27,2.87-21.4a210.46,210.46,0,0,0,.84-21.19c0-3.49-.17-6.92-.42-10.27-.13-1.66-.28-3.3-.47-4.87-.1-.78-.19-1.54-.31-2.24-.05-.38-.11-.68-.17-1l0-.23-.05-.16,0-.16v0l0,.12Z"/></clipPath><clipPath id="clip-path-8" transform="translate(-267.37 0.79)"><path class="cls-1" d="M599.67,520.45l-.08.45a4,4,0,0,0-.08.54l-.13,1.32c-.09.88-.17,1.77-.22,2.73-.11,1.9-.27,3.75-.34,5.7L598.6,537l-.08,5.88c-.12,7.87.12,15.8.46,23.76.11,4,.44,8,.72,12l.44,6,.59,6,.59,6,.3,3,.37,3,1.61,11.94c.25,2,.62,4,.94,5.95l1,6c.67,4,1.29,8,2.15,11.89s1.64,7.89,2.47,11.85c.39,2,.89,3.93,1.38,5.89l1.47,5.87a448.48,448.48,0,0,0,14.12,46.47c.34.95.66,1.92,1,2.87l1.14,2.82,2.27,5.64L636.12,731,641,742.87l2.49,5.91c.41,1,.84,2,1.23,3l1.11,3,4.47,12c.75,2,1.54,4,2.15,6l2,6.08,2,6.08,1,3c.33,1,.57,2.06.86,3.08l3.43,12.33c4.1,16.57,7.15,33.44,7.91,50.53.07,2.14.23,4.26.23,6.4l-.06,6.42-.06,3.2-.23,3.2c-.16,2.14-.27,4.27-.49,6.39l-.83,6.37c-.11,1.06-.35,2.12-.53,3.17s-.39,2.11-.6,3.16c-1,4.16-2.46,8.32-5.39,11.9l-1-.32c-.13-1.1-.23-2.19-.27-3.24s-.13-2.11-.12-3.14,0-2.07,0-3.09.11-2,.11-3.05c0-2,.26-4,.29-6.07l0-6.09c0-2-.14-4.06-.21-6.09l-.11-3-.27-3-.5-6.06c-.19-2-.54-4-.79-6l-.85-6-1.11-6-1.1-6L654.41,831,653,825.05l-.36-1.48-.44-1.46-.88-2.92-1.76-5.83c-.61-1.94-1.1-3.9-1.85-5.8l-4.16-11.46c-.37-.94-.69-1.91-1.09-2.84l-1.23-2.8-2.44-5.59c-3-7.53-7-14.68-10.72-21.9l-1.42-2.69c-.49-.89-1-1.75-1.56-2.63l-3.13-5.24L615.6,742l-6.71-11-3.36-5.5-1.69-2.75c-.54-.92-1-1.87-1.56-2.81L596,708.72l-3.14-5.65L590,697.31l-5.86-11.54c-1-1.92-1.89-3.88-2.79-5.84l-2.7-5.88-2.71-5.89c-.91-2-1.83-3.93-2.63-5.93-1.67-4-3.31-8-5-12s-3.27-8-4.84-12.08l-2.35-6.07c-.78-2-1.6-4.06-2.29-6.11l-4.35-12.3-1.1-3.09-1-3.1-2-6.22-2-6.23-1.88-6.28c-1.23-4.2-2.6-8.38-3.74-12.62-2.43-8.46-4.64-17-6.76-25.65L534.3,544l-1.46-6.61c-.51-2.19-.94-4.49-1.4-6.74-.24-1.11-.45-2.3-.67-3.49l-.33-1.79c-.06-.27-.11-.65-.17-1l-.16-1.1Z"/></clipPath><clipPath id="clip-path-9" transform="translate(-267.37 0.79)"><path class="cls-2" d="M740.05,334.48c23.85,213.07-92.7,206.57-246.33,224.78C362,574.88,249.09,510.52,269.84,348.18,284.33,234.75,368.24,79,495,95.38,616.46,111.11,724.52,195.69,740.05,334.48Z"/></clipPath><clipPath id="clip-path-10" transform="translate(-267.37 0.79)"><path class="cls-1" d="M348.15,257.06c12.92,20.15,19.53,43.7,23.88,67.24,2.54,13.75,4.47,27.9,10.88,40.33,18.49,35.85,65.46,44.18,105.78,45.5,77.09,2.52,156.14-4.72,229.83,18.07,27.57,8.53,54.73,21.84,73,44.19,17.91,21.9,25.63,50.45,29.08,78.53,2.17,17.64,2.8,35.76-1.6,53C806.21,654,755.82,683.66,709.29,706.2c-66,32-135.85,61.32-209.16,61.45-60.11.1-118.27-19.48-175.58-37.62-49.35-15.64-99.43-30.55-144.66-55.73s-85.94-62-105.43-110c-7.71-19-12-39.76-9.3-60.07C68,482.7,78.3,463,85.86,442.57c10.2-27.52,15.59-57,29.42-82.85,26-48.69,78-77.74,130-96.39,22.67-8.14,28.32-38.4,49.55-43.44C315.66,215,338.47,241.94,348.15,257.06Z"/></clipPath><clipPath id="clip-path-11" transform="translate(-267.37 0.79)"><path class="cls-1" d="M740.23,307.68c21.33,8.05,47.94,12.64,64.84-2.67,14.81-13.42,15.25-37.61,6.19-55.43S785.78,219,769.5,207.39C674.37,139.64,562.61,90.83,445.89,86.57c-5.66-.21-11.62-.25-16.62,2.44s-8.48,9-6.07,14.17A55.17,55.17,0,0,0,463.72,112a300.76,300.76,0,0,0,99.55,119.84c12.77,9,28.08,17.35,43.86,19.06,19.63,2.14,26.47-9,42.69,2.11C679.82,273.58,705.53,294.58,740.23,307.68Z"/></clipPath></defs><g class="cls-3"><path class="cls-4" d="M537.5,557.49a.65.65,0,0,0,0-.13c0-.07,0,0-.08.09l-.14.18-.57.74a9.72,9.72,0,0,0-.64.88l-.66,1c-.89,1.22-1.79,2.78-2.7,4.2s-1.77,3-2.66,4.57-1.78,3.1-2.6,4.77L525,578.68c-.85,1.63-1.59,3.39-2.4,5.08l-2.38,5.13-2.2,5.29a352.81,352.81,0,0,0-15,44.29c-8.46,30.5-13.95,62.43-17.13,94.78-.26,2-.41,4-.56,6.08l-.48,6.09-1,12.19-.5,6.11L483,770c-.28,4.19-.53,8.38-.88,12.58-1.27,16.76-2.89,33.51-5.12,50.22a430,430,0,0,1-9.22,49.83A172.93,172.93,0,0,1,459.8,907a69.73,69.73,0,0,1-6,11.54,23.46,23.46,0,0,1-4.5,5,11.87,11.87,0,0,1-1.4,1,11,11,0,0,1-1.51.84A6.48,6.48,0,0,1,443,926l0-.24a9.43,9.43,0,0,0,2.05-2.19,21.45,21.45,0,0,0,1.53-2.5c.92-1.72,1.77-3.45,2.54-5.27a69.91,69.91,0,0,0,3.9-11.23,165.61,165.61,0,0,0,4.16-23.9,416.38,416.38,0,0,0,1.95-49c-.17-16.4-.93-32.82-2-49.23-.24-4.1-.58-8.2-.9-12.3l-.47-6.15-.4-6.33L454.51,745l-.38-6.36c-.13-2.11-.26-4.23-.28-6.36a599.74,599.74,0,0,1,4.41-102.83,399.6,399.6,0,0,1,10.28-51.89l1.76-6.51,2-6.5c.7-2.17,1.3-4.34,2.09-6.51l2.33-6.53c.75-2.17,1.66-4.36,2.56-6.55s1.74-4.37,2.8-6.61,2-4.4,3.2-6.75l.88-1.73c.29-.58.56-1.13.94-1.79l1.08-1.9.27-.48c.09-.16.16-.29.33-.56l.91-1.43Z" transform="translate(-267.37 0.79)"/></g><path class="cls-5" d="M553.8,553.41l0-.13c0-.06,0,0-.08.09l-.15.18-.57.74c-.18.21-.41.57-.63.88l-.67,1c-.89,1.22-1.79,2.78-2.69,4.2s-1.78,3-2.67,4.57-1.78,3.1-2.59,4.77l-2.54,4.92c-.86,1.63-1.6,3.39-2.4,5.08l-2.39,5.13-2.19,5.29a351.2,351.2,0,0,0-15,44.29c-8.47,30.5-13.95,62.43-17.13,94.78-.27,2-.42,4.05-.57,6.08l-.47,6.09-1,12.19-.49,6.11-.42,6.29c-.28,4.2-.53,8.38-.88,12.58-1.27,16.76-2.88,33.51-5.11,50.22A432.17,432.17,0,0,1,484,878.56a172.93,172.93,0,0,1-7.94,24.31,68.6,68.6,0,0,1-6,11.54,23.2,23.2,0,0,1-4.5,5,11.1,11.1,0,0,1-1.4,1,11.54,11.54,0,0,1-1.5.84,6.52,6.52,0,0,1-3.38.72l0-.24a9.43,9.43,0,0,0,2.05-2.19,23,23,0,0,0,1.54-2.5c.92-1.72,1.76-3.45,2.53-5.27a68,68,0,0,0,3.9-11.23,164.25,164.25,0,0,0,4.16-23.9,418.55,418.55,0,0,0,2-49c-.18-16.4-.94-32.82-2.05-49.23-.25-4.1-.59-8.2-.9-12.3l-.47-6.15-.4-6.33-.77-12.68-.37-6.35c-.13-2.12-.27-4.24-.28-6.36a598.79,598.79,0,0,1,4.4-102.84,398.31,398.31,0,0,1,10.29-51.89l1.75-6.51,2-6.5c.7-2.17,1.31-4.34,2.09-6.51l2.34-6.53c.75-2.17,1.66-4.36,2.55-6.55s1.74-4.37,2.8-6.61,2-4.4,3.2-6.75l.88-1.73c.3-.58.57-1.13.95-1.79l1.07-1.9.27-.48c.09-.16.16-.29.34-.56l.91-1.43Z" transform="translate(-267.37 0.79)"/><g class="cls-6"><g class="cls-3"><path class="cls-7" d="M582.36,533.82s0-.09,0-.14,0,0-.08.09l-.15.19-.57.73c-.18.22-.41.57-.63.89l-.67,1c-.89,1.22-1.79,2.77-2.69,4.2s-1.78,3-2.67,4.57-1.78,3.09-2.59,4.77L569.81,555c-.86,1.63-1.59,3.39-2.4,5.08L565,565.22l-2.19,5.29a351.59,351.59,0,0,0-15,44.28c-8.47,30.51-14,62.44-17.13,94.79-.27,2-.42,4-.57,6.08l-.47,6.08-1,12.2-.49,6.11-.42,6.29c-.28,4.19-.53,8.38-.88,12.57-1.26,16.76-2.88,33.52-5.11,50.23A434.28,434.28,0,0,1,512.6,859a174.72,174.72,0,0,1-8,24.31,68.51,68.51,0,0,1-6,11.53,23,23,0,0,1-4.5,5,10.66,10.66,0,0,1-1.39,1,11.22,11.22,0,0,1-1.51.85,6.52,6.52,0,0,1-3.38.72l0-.24a9.43,9.43,0,0,0,2.05-2.19,23,23,0,0,0,1.54-2.5c.92-1.72,1.76-3.46,2.53-5.27a67.8,67.8,0,0,0,3.9-11.24A163.8,163.8,0,0,0,502,857,420.56,420.56,0,0,0,504,808c-.17-16.4-.94-32.82-2.05-49.23-.25-4.1-.59-8.21-.9-12.31l-.47-6.15-.4-6.33-.77-12.68L499,715c-.13-2.12-.27-4.23-.28-6.36a599.64,599.64,0,0,1,4.4-102.83,398.45,398.45,0,0,1,10.29-51.9l1.75-6.5,2-6.5c.7-2.17,1.31-4.34,2.09-6.52l2.34-6.52c.75-2.17,1.66-4.36,2.55-6.55s1.74-4.37,2.8-6.61,2-4.41,3.2-6.75l.88-1.73c.3-.58.57-1.13,1-1.79l1.07-1.91.27-.47c.09-.16.16-.29.34-.56l.91-1.43Z" transform="translate(-267.37 0.79)"/></g></g><g class="cls-3"><path class="cls-4" d="M620,461.4l.65.51.34.28.64.54,1,.9c.67.59,1.21,1.11,1.82,1.67,1.1,1.06,2.17,2.12,3.16,3.14,2,2.07,3.82,4.12,5.59,6.17,3.51,4.11,6.65,8.26,9.6,12.48a205.13,205.13,0,0,1,15.23,26A239.65,239.65,0,0,1,669.34,540a274.76,274.76,0,0,1,8.09,27.39c2.16,9.19,4,18.39,5.29,27.6.74,4.6,1.23,9.2,1.78,13.79.3,2.3.44,4.59.67,6.89s.43,4.58.58,6.88c.59,9.16.94,18.3.91,27.39L686.6,663l0,6.18.13,6.2a425.67,425.67,0,0,0,13.86,98.87c1,4.09,2.19,8.13,3.32,12.2s2.39,8.09,3.71,12.1q3.88,12.06,8.49,23.92t10,23.39c1.78,3.85,3.71,7.62,5.61,11.42a23.47,23.47,0,0,1,1.7,14.17,18.6,18.6,0,0,1-7.44-2.88,21.1,21.1,0,0,1-5.06-4.64c-2.62-3.57-5.1-7.23-7.52-10.93q-7.29-11.09-13.82-22.66t-12.35-23.56c-2-4-3.81-8-5.68-12.07s-3.62-8.13-5.3-12.26a448.44,448.44,0,0,1-17.4-50.76,415.56,415.56,0,0,1-11.18-52.92l-1-6.73-.8-6.75-.77-6.71-.74-6.13c-1-8.18-2.32-16.25-3.76-24.25-.35-2-.8-4-1.19-6s-.77-4-1.26-5.94c-.94-3.92-1.8-7.86-2.89-11.71-2-7.76-4.43-15.34-7.09-22.75a214.47,214.47,0,0,0-19.74-41.55,147.72,147.72,0,0,0-12.74-17.65,101.6,101.6,0,0,0-6.89-7.54c-1.16-1.12-2.31-2.21-3.41-3.15-.56-.49-1.08-.9-1.57-1.29-.21-.15-.47-.36-.63-.46L583,510v0l0,0,.33.26Z" transform="translate(-267.37 0.79)"/></g><path class="cls-8" d="M636.31,457.32l.65.51.34.28.64.54,1,.9c.67.6,1.2,1.11,1.81,1.67,1.1,1.06,2.17,2.12,3.16,3.14,2,2.07,3.82,4.12,5.59,6.17,3.51,4.11,6.65,8.26,9.6,12.48a202.76,202.76,0,0,1,15.23,26,236,236,0,0,1,11.27,26.91,272.12,272.12,0,0,1,8.09,27.39c2.16,9.19,4,18.4,5.29,27.6.74,4.6,1.23,9.2,1.79,13.79.29,2.3.44,4.6.66,6.89s.44,4.59.58,6.88c.6,9.16.94,18.3.91,27.39l-.06,13.06,0,6.19.13,6.19a425.68,425.68,0,0,0,13.87,98.87c1,4.09,2.19,8.13,3.31,12.2s2.39,8.09,3.71,12.1q3.89,12.06,8.49,23.92t10,23.39c1.78,3.86,3.72,7.63,5.61,11.42a23.07,23.07,0,0,1,1.87,6.33,23.48,23.48,0,0,1-.16,7.84,18.4,18.4,0,0,1-7.44-2.88,21.32,21.32,0,0,1-5.07-4.63c-2.61-3.58-5.1-7.24-7.52-10.94q-7.29-11.08-13.81-22.66t-12.36-23.56c-2-4-3.81-8-5.68-12.07s-3.62-8.13-5.29-12.26a446.48,446.48,0,0,1-17.4-50.76A415.59,415.59,0,0,1,664,674.65l-1-6.73-.79-6.75-.78-6.71-.74-6.13c-.95-8.18-2.32-16.25-3.76-24.25-.35-2-.8-4-1.19-6s-.77-4-1.26-5.94c-.93-3.92-1.79-7.86-2.88-11.71-2-7.76-4.44-15.34-7.09-22.75a214.5,214.5,0,0,0-19.75-41.55A146.61,146.61,0,0,0,612,518.52a101.52,101.52,0,0,0-6.88-7.54c-1.16-1.12-2.32-2.21-3.42-3.15-.56-.48-1.07-.9-1.57-1.29-.2-.15-.47-.36-.62-.46l-.22-.14v0s0,0,0,0l.33.26Z" transform="translate(-267.37 0.79)"/><g class="cls-9"><g class="cls-3"><path class="cls-7" d="M664.87,437.73l.65.51.34.28.64.54,1,.9c.67.59,1.2,1.11,1.81,1.67,1.11,1.06,2.18,2.11,3.16,3.14,2,2.07,3.82,4.11,5.6,6.17,3.5,4.11,6.64,8.26,9.59,12.47a203.55,203.55,0,0,1,15.23,26,236.59,236.59,0,0,1,11.27,26.9,270.48,270.48,0,0,1,8.09,27.4c2.17,9.19,4,18.39,5.29,27.6.74,4.59,1.23,9.2,1.79,13.79.29,2.29.44,4.59.66,6.89s.44,4.58.58,6.87c.6,9.17.94,18.31.91,27.4l-.06,13,0,6.19.12,6.19a426.23,426.23,0,0,0,13.87,98.88c1,4.09,2.19,8.13,3.31,12.19s2.39,8.1,3.71,12.11q3.89,12.06,8.49,23.92t10,23.38c1.78,3.86,3.72,7.63,5.61,11.43a23.11,23.11,0,0,1,1.87,6.32,23.53,23.53,0,0,1-.16,7.85,18.4,18.4,0,0,1-7.44-2.89,20.91,20.91,0,0,1-5.07-4.63c-2.61-3.57-5.1-7.24-7.52-10.93q-7.29-11.09-13.81-22.66t-12.36-23.56c-2-4-3.81-8-5.68-12.07s-3.62-8.13-5.29-12.27A446.32,446.32,0,0,1,703.7,708a416,416,0,0,1-11.19-52.92l-1-6.73-.79-6.76-.78-6.7-.74-6.14c-1-8.17-2.32-16.24-3.76-24.24-.35-2-.8-4-1.19-6s-.77-4-1.26-5.93c-.93-3.92-1.79-7.86-2.88-11.71-2-7.77-4.44-15.34-7.09-22.75a214.5,214.5,0,0,0-19.75-41.55,146.74,146.74,0,0,0-12.74-17.66c-2.24-2.69-4.56-5.25-6.88-7.53-1.16-1.12-2.32-2.22-3.42-3.15-.56-.49-1.07-.9-1.56-1.29l-.63-.46-.22-.14v0l0,0,.33.27Z" transform="translate(-267.37 0.79)"/></g></g><g class="cls-3"><path class="cls-4" d="M611.58,477.88c-1.5-1-3.22-2.09-4.39-2.86-.64-.41-1.31-.79-2-1.17a9,9,0,0,0-1.71-.77,2.64,2.64,0,0,0-.93-.16l-.51.08a.7.7,0,0,0-.56.34,5.33,5.33,0,0,0-.61.76c-.17,1.71-.71.82,0,4.82-1.07,7.18,14.58,11.42,17.31,8.4,1.51-.44,3.55-2,3.47-1.78.38-.16.82-.41,1.14-.57l.57,0a1.6,1.6,0,0,1,.88.06c.12,0,.25.05.36.09l.3.17a4.48,4.48,0,0,1,.6.35,11.94,11.94,0,0,1,1,.75c.29.26.61.53.86.8.44.47.92,1,1.3,1.49a9.08,9.08,0,0,1,1.43,2.54,2.88,2.88,0,0,1,.06,1.89c-.23.51-.52,1-.78,1.52l-1.63,3.14c-2.17,4.28-4.31,8.75-6.38,13.26s-4.07,9.11-6.06,13.7-3.94,9.22-5.82,13.88-3.69,9.34-5.49,14-3.55,9.4-5.24,14.13-3.3,9.49-4.91,14.24-3.16,9.53-4.64,14.32a585.29,585.29,0,0,0-14.93,58c-2,9.74-3.63,19.52-4.89,29.32s-2.19,19.61-2.67,29.41c-.13,2.45-.21,4.9-.27,7.35l-.06,3.67,0,3.78L566,743c0,5.38-.35,10.73-.59,16.08l-.41,8-.21,4-.32,4-1.26,16c-.47,5.32-1.08,10.61-1.61,15.9-.29,2.65-.53,5.3-.85,7.94l-1,7.9-1,7.91-.5,3.94-.58,3.94-2.33,15.73L552.77,870c-1.84,10.42-3.67,20.82-5.76,31.18s-4.28,20.68-6.61,31l-1.82,7.7a51.15,51.15,0,0,1-2.28,7.62c-.48,1.25-1,2.48-1.6,3.71-.31.61-.63,1.22-1,1.82s-.68,1.2-1.05,1.8a37.21,37.21,0,0,1-2.45,3.52,26.11,26.11,0,0,1-3.12,3.34l-1-.22a34.88,34.88,0,0,1-2.28-8.47,48.05,48.05,0,0,1-.54-8,62.79,62.79,0,0,1,.66-7.79l1-7.72c1.25-10.31,2.41-20.63,3.36-31,1.94-20.66,3.27-41.36,3.78-62l.13-3.87.06-3.87.1-7.74.11-7.74c0-2.58,0-5.15-.06-7.73-.07-5.15-.06-10.3-.2-15.44l-.54-15.39-.13-3.84-.24-3.84-.48-7.66c-.33-5.1-.55-10.21-1.09-15.27l-1.38-15.21-.38-4.06-.35-4.16c-.21-2.78-.4-5.56-.54-8.33-.59-11.11-.52-22.2-.07-33.24s1.51-22,2.92-32.92a471.47,471.47,0,0,1,13.14-64.21q2.18-7.87,4.56-15.67c1.59-5.2,3.32-10.36,5.07-15.5s3.59-10.25,5.48-15.34,3.91-10.13,6-15.17c4.11-10.06,8.47-20,13.28-29.88,2.4-4.94,4.87-9.86,7.53-14.85l2.06-3.78c.36-.63.69-1.29,1.1-1.92a4.79,4.79,0,0,1,2-1.52,12,12,0,0,1,3.42-.84c.72-.08,1.54-.09,2.34-.18l1.39,0c.47,0,.94-.09,1.5-.06.27,0,.59,0,.89-.06l.44,0,.51-.11a5.83,5.83,0,0,0,1.19-.31l.73-.24c.37-.21.87-.52,1.31-.74a25.91,25.91,0,0,1,3.66-1.92c2.81-3.06,18.55,1.2,17.49,8.47.68,4.08.12,3.27,0,5.06a7.2,7.2,0,0,1-.65,1,1.38,1.38,0,0,1-.62.58l-.58.32a3.91,3.91,0,0,1-1.08.3,10.38,10.38,0,0,1-2,.15c-.79-.07-1.57-.14-2.34-.26a49.32,49.32,0,0,1-5.16-1Z" transform="translate(-267.37 0.79)"/></g><path class="cls-10" d="M627.87,473.8c-1.5-1-3.22-2.09-4.38-2.86-.65-.41-1.31-.79-2-1.17a9.43,9.43,0,0,0-1.72-.77,2.6,2.6,0,0,0-.93-.16l-.51.08a.71.71,0,0,0-.56.34,6.1,6.1,0,0,0-.6.76c-.17,1.71-.71.82-.05,4.82-1.08,7.18,14.57,11.42,17.3,8.4,1.52-.44,3.55-2,3.47-1.78.39-.16.82-.41,1.14-.57l.57,0a1.48,1.48,0,0,1,.88.07c.12,0,.25,0,.36.08l.31.17c.19.13.41.2.6.35a10.18,10.18,0,0,1,1,.75c.29.26.61.53.86.8.45.47.93,1,1.3,1.49a9.14,9.14,0,0,1,1.44,2.54,2.87,2.87,0,0,1,0,1.89c-.22.51-.52,1-.78,1.52L644,493.65c-2.17,4.28-4.3,8.75-6.38,13.26s-4.06,9.11-6.06,13.7-3.94,9.22-5.82,13.88-3.69,9.34-5.48,14-3.56,9.4-5.25,14.13-3.29,9.49-4.91,14.24-3.15,9.53-4.63,14.32a582.59,582.59,0,0,0-14.94,58c-2,9.74-3.63,19.52-4.88,29.32s-2.19,19.61-2.68,29.41q-.18,3.67-.27,7.35l-.06,3.68,0,3.77-.24,16.14c0,5.38-.36,10.73-.6,16.08l-.41,8-.21,4-.31,4-1.26,16c-.47,5.32-1.08,10.61-1.62,15.9-.28,2.65-.53,5.3-.85,7.94l-1,7.9-1,7.91-.5,3.94-.58,3.94-2.33,15.73-2.61,15.67c-1.83,10.42-3.67,20.82-5.75,31.18s-4.29,20.68-6.62,31l-1.82,7.7a52,52,0,0,1-2.27,7.62c-.48,1.25-1,2.48-1.61,3.71-.3.61-.62,1.22-1,1.82s-.68,1.2-1.06,1.8a32.81,32.81,0,0,1-2.45,3.52,25.47,25.47,0,0,1-3.12,3.34l-1-.22a35.38,35.38,0,0,1-2.29-8.47,50.26,50.26,0,0,1-.54-8.05,63.13,63.13,0,0,1,.67-7.79l1-7.72c1.25-10.31,2.41-20.63,3.36-31,2-20.66,3.28-41.36,3.79-62l.13-3.88.05-3.87.11-7.74.1-7.74c0-2.58,0-5.15-.06-7.73-.07-5.15-.06-10.3-.19-15.44L548,770.51l-.14-3.84-.23-3.84-.49-7.66c-.33-5.1-.55-10.21-1.09-15.27l-1.38-15.21-.38-4.06-.35-4.16c-.21-2.78-.4-5.56-.54-8.33-.59-11.11-.52-22.2-.06-33.24s1.5-22,2.92-32.92a470,470,0,0,1,13.14-64.21q2.18-7.87,4.56-15.67c1.59-5.2,3.32-10.36,5.07-15.5s3.58-10.25,5.47-15.34,3.92-10.13,6-15.16c4.11-10.07,8.46-20,13.27-29.89,2.4-4.94,4.87-9.86,7.54-14.85l2.05-3.78c.36-.63.7-1.29,1.11-1.92a4.69,4.69,0,0,1,2-1.52,12.11,12.11,0,0,1,3.43-.84c.71-.08,1.53-.09,2.33-.18l1.39,0c.48,0,.94-.09,1.51-.06.27,0,.59,0,.88-.05l.44,0,.52-.11a5.93,5.93,0,0,0,1.18-.31l.73-.24c.38-.21.87-.52,1.31-.74a26.94,26.94,0,0,1,3.67-1.92c2.81-3.06,18.55,1.2,17.49,8.47.67,4.08.11,3.27-.05,5.07a10.64,10.64,0,0,1-.65,1,1.39,1.39,0,0,1-.63.58l-.58.32a4.33,4.33,0,0,1-1.08.31,11,11,0,0,1-2.05.14c-.78-.07-1.57-.14-2.34-.26a49.84,49.84,0,0,1-5.16-1.05Z" transform="translate(-267.37 0.79)"/><g class="cls-11"><g class="cls-3"><path class="cls-7" d="M656.43,454.21c-1.5-1-3.22-2.09-4.38-2.86-.65-.42-1.31-.8-2-1.17a9,9,0,0,0-1.71-.77,2.94,2.94,0,0,0-.93-.17l-.52.09a.71.71,0,0,0-.56.34,4.91,4.91,0,0,0-.6.76c-.17,1.71-.71.82,0,4.82-1.08,7.17,14.57,11.42,17.3,8.4,1.52-.44,3.55-2,3.47-1.78.39-.16.82-.41,1.14-.57a5.48,5.48,0,0,0,.57-.05,1.56,1.56,0,0,1,.88.07c.12,0,.25.05.36.09l.31.17c.19.12.41.2.6.34a10.18,10.18,0,0,1,.95.76c.29.26.61.53.86.8a19.5,19.5,0,0,1,1.3,1.49,9,9,0,0,1,1.44,2.54,2.87,2.87,0,0,1,.05,1.89c-.22.51-.52,1-.78,1.51l-1.62,3.15c-2.18,4.28-4.31,8.75-6.38,13.26s-4.07,9.1-6.07,13.7-3.93,9.22-5.82,13.88-3.69,9.34-5.48,14-3.56,9.41-5.25,14.14-3.29,9.49-4.91,14.24-3.15,9.53-4.63,14.32a585.87,585.87,0,0,0-14.94,58c-1.95,9.75-3.63,19.52-4.88,29.32s-2.19,19.61-2.68,29.42c-.12,2.45-.2,4.9-.26,7.35l-.07,3.67,0,3.78-.24,16.14c0,5.38-.36,10.73-.6,16.08l-.41,8-.21,4-.31,4-1.26,16c-.47,5.31-1.08,10.61-1.62,15.9-.28,2.65-.53,5.29-.84,7.93l-1,7.91-1,7.9-.5,4-.58,3.94-2.33,15.73-2.61,15.66c-1.83,10.43-3.67,20.83-5.75,31.19s-4.28,20.68-6.62,31l-1.82,7.7a52.32,52.32,0,0,1-2.27,7.62c-.48,1.24-1,2.48-1.61,3.7-.3.62-.62,1.22-1,1.83s-.68,1.2-1.06,1.8a32.71,32.71,0,0,1-2.45,3.51A25.53,25.53,0,0,1,572,938l-1-.22a35.46,35.46,0,0,1-2.29-8.48,50.14,50.14,0,0,1-.54-8,62.79,62.79,0,0,1,.67-7.79l1-7.72c1.24-10.32,2.4-20.63,3.35-31,1.95-20.66,3.28-41.36,3.79-62l.13-3.87,0-3.87.11-7.75.1-7.73c0-2.58,0-5.16-.06-7.73-.07-5.15-.06-10.3-.19-15.44l-.54-15.39-.14-3.85-.23-3.83-.49-7.66c-.32-5.1-.55-10.21-1.09-15.28l-1.38-15.2-.38-4.06-.35-4.16q-.32-4.17-.54-8.33c-.59-11.11-.52-22.21-.06-33.25s1.5-22,2.92-32.91A470,470,0,0,1,588,558.18q2.17-7.87,4.56-15.68c1.59-5.2,3.32-10.35,5.07-15.49s3.58-10.25,5.47-15.35,3.92-10.13,6-15.16c4.11-10.06,8.47-20,13.28-29.88,2.39-4.94,4.86-9.86,7.53-14.85l2-3.78c.36-.63.7-1.29,1.11-1.92a4.69,4.69,0,0,1,2-1.52,12.11,12.11,0,0,1,3.43-.84c.72-.09,1.54-.1,2.33-.18l1.39,0c.48,0,.94-.09,1.51-.06.27,0,.59-.05.88-.06l.44,0,.52-.11a5.3,5.3,0,0,0,1.18-.32l.73-.23c.38-.22.87-.52,1.31-.74a26.94,26.94,0,0,1,3.67-1.92c2.81-3.07,18.55,1.2,17.49,8.47.67,4.08.12,3.27,0,5.06a9.65,9.65,0,0,1-.65,1,1.34,1.34,0,0,1-.63.58l-.58.32a4.18,4.18,0,0,1-1.08.3,10.27,10.27,0,0,1-2,.15c-.78-.07-1.57-.14-2.34-.26a49.93,49.93,0,0,1-5.15-1.06Z" transform="translate(-267.37 0.79)"/></g></g><g class="cls-3"><path class="cls-4" d="M536.69,499.07l1,.71c.21.14.23.17.35.26l.29.22,1.15.87c.73.58,1.3,1.06,2,1.6l.94.79.86.76,1.7,1.53c2.18,2,4.28,4,6.22,6.09,3.95,4.08,7.48,8.26,10.9,12.48a204.85,204.85,0,0,1,17.72,26.42c2.64,4.51,4.89,9.18,7.21,13.78,1.1,2.33,2.13,4.68,3.18,7l1.56,3.5c.48,1.18.94,2.37,1.4,3.56l2.73,7.11c.85,2.38,1.6,4.79,2.4,7.17l1.18,3.58.56,1.76.37,1.3.73,2.63c.24.88.57,1.73.85,2.61,4.53,14,13.22,27.45,24.88,39.27,2.89,3,6,5.8,9.25,8.56s6.63,5.38,10.16,7.88,7.2,4.86,11,7.1a31.52,31.52,0,0,1,5.41,4.21,31.17,31.17,0,0,1,5,6.32l-.23,1a20.56,20.56,0,0,1-8,2.51,25.24,25.24,0,0,1-7.4-.31c-4.7-1-9.36-2.19-14-3.59a159,159,0,0,1-27.34-11.1,132.88,132.88,0,0,1-13.1-7.72l-1.6-1.06-1.58-1.12-3.15-2.26c-2-1.6-4.15-3.14-6.12-4.87a138.38,138.38,0,0,1-11.59-10.94,122.59,122.59,0,0,1-10.29-12.61c-.79-1.12-1.61-2.22-2.36-3.37l-2.23-3.49-1.11-1.75-.9-1.31-1.76-2.54c-1.18-1.69-2.31-3.4-3.51-5l-3.72-4.85-1.83-2.42L543.91,599c-1.29-1.54-2.54-3.1-3.84-4.61-2.71-2.93-5.3-5.92-8.13-8.63a157.82,157.82,0,0,0-17.18-15.15c-3-2.2-5.92-4.34-8.86-6.13-1.46-1-2.9-1.77-4.27-2.54l-1-.52-.5-.27-.43-.19c-.28-.12-.62-.3-.82-.37l-.26-.06-.07,0s-.09,0,0,0l.33.26Z" transform="translate(-267.37 0.79)"/></g><path class="cls-12" d="M553,495l1,.71a3.14,3.14,0,0,1,.35.26l.29.22,1.15.87c.73.58,1.3,1.06,2,1.6l1,.79.85.77,1.7,1.52c2.18,2,4.29,4,6.22,6.09,3.95,4.08,7.48,8.26,10.91,12.48a206.92,206.92,0,0,1,17.72,26.42c2.63,4.51,4.89,9.18,7.21,13.78,1.09,2.33,2.12,4.68,3.17,7l1.56,3.5c.48,1.18,1,2.37,1.41,3.56l2.72,7.11c.85,2.38,1.61,4.79,2.41,7.18l1.17,3.57.57,1.76.36,1.3.73,2.64c.25.88.57,1.72.85,2.6,4.53,14,13.22,27.45,24.88,39.27,2.9,3,6,5.8,9.25,8.56s6.63,5.38,10.17,7.88,7.19,4.86,10.95,7.1A31.54,31.54,0,0,1,684,674.07l-.23,1a20.51,20.51,0,0,1-8,2.51,25.27,25.27,0,0,1-7.4-.31c-4.7-1-9.36-2.19-14-3.59A159,159,0,0,1,627,662.56a133.91,133.91,0,0,1-13.09-7.72l-1.61-1.06-1.57-1.12-3.15-2.26c-2-1.6-4.15-3.14-6.12-4.87a135.22,135.22,0,0,1-11.59-10.93A123.52,123.52,0,0,1,579.56,622c-.78-1.13-1.61-2.23-2.36-3.38L575,615.12l-1.11-1.75-.9-1.31-1.76-2.54c-1.18-1.69-2.31-3.39-3.52-5L564,599.63l-1.83-2.42-1.93-2.32c-1.29-1.54-2.55-3.1-3.85-4.61-2.71-2.93-5.29-5.92-8.13-8.63a157.82,157.82,0,0,0-17.18-15.15c-2.95-2.2-5.91-4.34-8.86-6.13-1.46-1-2.9-1.77-4.27-2.54l-1-.52-.5-.26-.44-.2c-.27-.11-.61-.3-.82-.37l-.26-.06-.06,0s-.09,0,0,0l.32.26Z" transform="translate(-267.37 0.79)"/><g class="cls-13"><g class="cls-3"><path class="cls-7" d="M581.54,475.4l1,.71.35.25.29.22,1.15.88c.73.57,1.3,1.06,2,1.6l.94.79.85.76,1.7,1.53c2.18,2,4.29,4,6.22,6.08,4,4.09,7.48,8.26,10.91,12.48a207.73,207.73,0,0,1,17.72,26.43c2.63,4.51,4.89,9.18,7.21,13.77,1.09,2.33,2.12,4.69,3.17,7l1.56,3.5c.48,1.18.95,2.37,1.41,3.55l2.72,7.11c.85,2.39,1.61,4.8,2.41,7.18l1.17,3.58.57,1.76.36,1.3.73,2.63c.25.88.57,1.73.85,2.6,4.53,14,13.22,27.46,24.89,39.28,2.89,3,6,5.8,9.24,8.55s6.63,5.39,10.17,7.88,7.19,4.86,11,7.1a32,32,0,0,1,5.4,4.21,31.53,31.53,0,0,1,5,6.33l-.23,1a20.53,20.53,0,0,1-8,2.52,25.27,25.27,0,0,1-7.4-.31c-4.7-1-9.36-2.19-14-3.6A158.14,158.14,0,0,1,655.55,643a133.91,133.91,0,0,1-13.09-7.72l-1.61-1.06-1.57-1.12-3.15-2.26c-2-1.6-4.15-3.15-6.12-4.88A135.22,135.22,0,0,1,618.42,615a121.38,121.38,0,0,1-10.3-12.61c-.78-1.12-1.61-2.22-2.36-3.37l-2.22-3.49-1.11-1.76-.9-1.3-1.76-2.54c-1.18-1.69-2.31-3.4-3.52-5L592.53,580l-1.83-2.42-1.93-2.32c-1.29-1.54-2.55-3.1-3.85-4.61-2.71-2.93-5.29-5.92-8.13-8.63a158.68,158.68,0,0,0-17.17-15.15c-3-2.2-5.92-4.34-8.87-6.13-1.46-1-2.89-1.77-4.27-2.54l-1-.52-.5-.27-.44-.19c-.27-.12-.61-.3-.82-.37l-.26-.07h-.06s-.09,0,0,0l.32.25Z" transform="translate(-267.37 0.79)"/></g></g><g class="cls-3"><path class="cls-4" d="M446.87,535.82c-.22.47-.56,1.46-.85,2.25l-.9,2.58L443.35,546q-1.73,5.4-3.32,10.91-3.21,11-6,22.24c-3.71,14.94-6.69,30.08-9.1,45.29a413.64,413.64,0,0,0-4.79,45.77l-.25,5.73-.11,5.71c-.12,3.83,0,7.61,0,11.43.24,7.57.57,15.18,1.41,22.66.31,3.79.92,7.47,1.4,11.22.28,1.86.63,3.69.94,5.54l.49,2.78.56,3.06,2.29,12.45.56,3.1.41,3.13.86,6.24c.57,4.16,1.21,8.29,1.5,12.47l1.18,12.47.63,12.48.15,3.12c0,1,0,2.08,0,3.12l0,6.23,0,6.22-.21,6.21c-.14,4.14-.22,8.27-.61,12.4l-.48,6.18-.24,3.08-.36,3.08-.75,6.14-.38,3.07-.47,3.06c-.65,4.07-1.21,8.14-2.09,12.18l-1.2,6-1.38,6c-.44,2-.91,4-1.5,6a51,51,0,0,1-2,5.87,45.14,45.14,0,0,1-2.78,5.68,29.87,29.87,0,0,1-3.81,5.36l-1-.27a62.08,62.08,0,0,1-1.35-12.5c0-2,0-4,.11-6,.06-1,.12-2,.22-3l.18-3,.37-5.92.19-5.93c.17-3.94.14-7.9.22-11.84l0-3-.06-3-.11-5.91,0-2.94-.13-3-.26-5.88c-.12-3.92-.51-7.82-.78-11.72l-.44-5.85-.69-5.82-.67-5.82c-.12-1-.22-1.93-.36-2.9l-.46-2.88-1.86-11.52c-1.61-7.6-3-15.22-5.23-22.64L400.38,763l-.78-2.78-.93-2.74L395,746.56l-2-5.84c-.69-2-1.43-4.07-2.09-6.13-1.23-4.1-2.59-8.23-3.63-12.38-8.94-33.23-12.1-67.21-13-101-.19-8.45-.16-16.89,0-25.34s.56-16.87,1-25.32,1.06-16.89,1.86-25.37c.38-4.24.85-8.48,1.32-12.76l.77-6.47.43-3.3c.17-1.17.29-2.13.55-3.62Z" transform="translate(-267.37 0.79)"/></g><path class="cls-14" d="M463.16,531.74c-.22.47-.56,1.46-.84,2.25l-.9,2.59-1.77,5.32q-1.72,5.4-3.32,10.91c-2.15,7.34-4.15,14.77-6,22.24-3.71,14.94-6.69,30.09-9.11,45.29a416.06,416.06,0,0,0-4.79,45.77l-.24,5.73-.12,5.71c-.12,3.83,0,7.61,0,11.43.25,7.57.57,15.18,1.41,22.66.32,3.79.92,7.47,1.4,11.22.28,1.86.64,3.69.95,5.54l.48,2.78.56,3.06,2.29,12.45.56,3.1.41,3.13.86,6.24c.57,4.16,1.22,8.29,1.5,12.47l1.18,12.47.63,12.48.16,3.12c0,1,0,2.08,0,3.12l0,6.23,0,6.22-.2,6.21c-.15,4.14-.23,8.27-.62,12.4l-.48,6.18-.24,3.08-.35,3.08-.76,6.15-.37,3.06-.48,3.06c-.64,4.07-1.21,8.14-2.08,12.18l-1.21,6.05-1.37,6c-.45,2-.92,4-1.51,6a49.18,49.18,0,0,1-2,5.87,46.48,46.48,0,0,1-2.77,5.68,29.93,29.93,0,0,1-3.82,5.36l-1-.27a61.4,61.4,0,0,1-1.36-12.5c0-2,0-4,.11-6,.07-1,.12-2,.22-3l.19-3,.36-5.92.19-5.93c.17-3.94.14-7.9.22-11.84l0-3,0-2.95-.12-5.91,0-2.94-.13-3-.26-5.88c-.11-3.92-.51-7.82-.78-11.72l-.44-5.85-.68-5.82-.68-5.81c-.12-1-.21-1.94-.35-2.9l-.47-2.89-1.85-11.52c-1.62-7.6-3-15.22-5.24-22.64l-1.52-5.59-.79-2.78L415,753.4l-3.72-10.92-2-5.83c-.7-2-1.44-4.08-2.1-6.14-1.23-4.1-2.58-8.22-3.62-12.37-8.94-33.24-12.1-67.22-13-101-.18-8.45-.16-16.89,0-25.33s.56-16.88,1-25.33,1.07-16.89,1.86-25.37c.38-4.24.86-8.48,1.32-12.76l.77-6.47.44-3.3c.17-1.17.28-2.13.55-3.62Z" transform="translate(-267.37 0.79)"/><g class="cls-15"><g class="cls-3"><path class="cls-7" d="M491.72,512.15c-.22.46-.56,1.46-.84,2.25L490,517l-1.77,5.33q-1.72,5.4-3.32,10.91c-2.15,7.33-4.15,14.76-6,22.23-3.71,14.95-6.69,30.09-9.11,45.3A413.61,413.61,0,0,0,465,646.52l-.25,5.72-.12,5.72c-.12,3.83,0,7.61,0,11.43.25,7.57.57,15.18,1.42,22.66.31,3.78.91,7.47,1.39,11.22.28,1.86.64,3.69.95,5.54l.48,2.78.56,3.06,2.29,12.45.56,3.1.41,3.13.86,6.24c.57,4.16,1.22,8.29,1.5,12.47l1.19,12.47.62,12.48.16,3.12c0,1,0,2.07,0,3.11l.05,6.23,0,6.22-.2,6.22c-.15,4.14-.23,8.27-.62,12.39l-.48,6.18-.24,3.09-.35,3.08-.76,6.14-.37,3.07-.48,3.06c-.64,4.07-1.21,8.14-2.08,12.17l-1.21,6.06-1.37,6c-.45,2-.92,4-1.51,6a51.62,51.62,0,0,1-2,5.87,48.83,48.83,0,0,1-2.78,5.68,29.93,29.93,0,0,1-3.82,5.36l-1-.27a61.55,61.55,0,0,1-1.36-12.5c0-2,0-4,.11-6,.07-1,.12-2,.22-3l.19-3,.36-5.92.19-5.93c.17-4,.15-7.9.22-11.84l0-2.95,0-3-.12-5.9,0-2.94-.13-2.95-.26-5.88c-.11-3.92-.5-7.83-.78-11.73L456,796.5l-.68-5.83-.68-5.81c-.12-1-.21-1.93-.35-2.9l-.47-2.88L452,767.56c-1.62-7.61-3-15.23-5.24-22.65l-1.52-5.58-.78-2.78-.94-2.75-3.72-10.92-2-5.83c-.7-2-1.44-4.08-2.1-6.13-1.23-4.11-2.58-8.23-3.62-12.38-8.94-33.23-12.1-67.22-13-101-.18-8.45-.16-16.89,0-25.34s.56-16.87,1-25.32,1.06-16.89,1.85-25.37c.38-4.24.86-8.49,1.32-12.76l.77-6.47.44-3.3c.17-1.17.28-2.13.55-3.62Z" transform="translate(-267.37 0.79)"/></g></g><g class="cls-3"><path class="cls-4" d="M413.27,517.07l.09-.24.05-.13,0-.06,0,0-.24.31-.25.31-.12.16-.15.24-1.25,1.95-1.29,2.27-.66,1.14-.64,1.24-1.27,2.5-.64,1.25-.61,1.32-2.46,5.3-2.33,5.54L400.32,543l-1.1,2.86-2.2,5.73c-.73,1.91-1.36,3.91-2,5.86a468,468,0,0,0-13.65,48.94c-3.64,16.8-6.88,33.87-9.26,51.16l-1.81,13c-.56,4.34-1,8.7-1.51,13s-1,8.72-1.43,13.09l-1.41,13.82-1.74,13.79c-.68,4.58-1.28,9.16-2,13.73s-1.48,9.12-2.37,13.66-1.66,9.09-2.66,13.6L355.66,772l-1.59,6.74c-1,4.5-2.27,9-3.41,13.41-2.47,8.88-5.07,17.72-8.08,26.43A358.84,358.84,0,0,1,321,869.32q-6.37,12.23-13.87,23.8c-1.24,1.93-2.54,3.83-3.83,5.73a46.14,46.14,0,0,1-4.23,5.49,38.24,38.24,0,0,1-5.26,4.78,24.72,24.72,0,0,1-6.68,3.64l-.79-.61a39.26,39.26,0,0,1,1-7.31,51.89,51.89,0,0,1,1.94-6.51,64.92,64.92,0,0,1,2.62-6c.91-2,1.84-4,2.7-6,3.51-8,6.69-16.13,9.6-24.35s5.48-16.54,7.86-24.91c.58-2.1,1.2-4.17,1.74-6.28l1.63-6.31c.53-2.11,1-4.23,1.51-6.34l.75-3.17.69-3.18c1.93-8.46,3.43-17,4.84-25.55.61-4.3,1.33-8.56,1.82-12.87l.8-6.44.65-6.46c.9-8.6,1.45-17.24,1.78-25.88.17-4.32.2-8.65.31-13s-.08-8.64-.11-13L327.54,682c-.15-4.57-.37-9.14-.47-13.72l-.15-13.77c-.19-9.18.06-18.4.15-27.64,0-4.62.29-9.25.45-13.89l.29-7c.09-2.32.19-4.64.36-7l.93-14c.34-4.68.87-9.37,1.3-14.06s1-9.4,1.6-14.13c.3-2.36.57-4.72.9-7.09L334,542.7c.38-2.38.7-4.75,1.13-7.15l1.31-7.19.67-3.6.77-3.63,1.58-7.28,1.86-7.38.48-1.85.54-1.88,1.09-3.77.55-1.89.63-2,1.26-3.91,1.52-4.15.19-.52.24-.6.5-1.19.5-1.19.06-.16.12-.24.24-.5.48-1Z" transform="translate(-267.37 0.79)"/></g><path class="cls-16" d="M429.56,513l.1-.24,0-.13,0-.06,0,0-.24.31-.24.31-.13.16-.15.24-1.24,1.95-1.3,2.27-.66,1.15-.63,1.23-1.27,2.5-.64,1.25-.62,1.32-2.46,5.3-2.33,5.54-1.17,2.78-1.09,2.86-2.2,5.73c-.74,1.91-1.37,3.91-2.05,5.86a470,470,0,0,0-13.65,48.95c-3.64,16.79-6.88,33.86-9.25,51.15l-1.82,13c-.56,4.33-1,8.69-1.5,13.05s-1,8.71-1.44,13.08l-1.41,13.82-1.74,13.79c-.68,4.58-1.28,9.17-2,13.73S377,743,376.07,747.57s-1.67,9.08-2.67,13.59L372,767.93l-1.6,6.74c-1,4.5-2.26,9-3.4,13.41-2.48,8.89-5.07,17.72-8.08,26.43a358.89,358.89,0,0,1-21.61,50.73q-6.36,12.22-13.87,23.8c-1.24,1.93-2.53,3.84-3.82,5.74a49.13,49.13,0,0,1-4.23,5.48,38.24,38.24,0,0,1-5.26,4.78,25,25,0,0,1-6.68,3.64l-.79-.61a38.46,38.46,0,0,1,1-7.31,51.89,51.89,0,0,1,1.94-6.51c.77-2.08,1.67-4.07,2.62-6s1.84-4,2.71-6q5.25-12,9.59-24.35c2.93-8.21,5.48-16.54,7.86-24.91.58-2.09,1.2-4.17,1.74-6.28l1.63-6.31c.54-2.1,1-4.23,1.51-6.34l.75-3.16.7-3.19c1.92-8.46,3.43-17,4.83-25.55.61-4.3,1.34-8.56,1.82-12.87l.8-6.44.66-6.46c.89-8.6,1.44-17.24,1.77-25.88.18-4.32.2-8.65.31-13s-.07-8.64-.1-12.95L343.84,678c-.16-4.57-.38-9.14-.48-13.72l-.15-13.76c-.19-9.19.06-18.41.15-27.65,0-4.62.29-9.25.46-13.89l.28-7c.09-2.32.19-4.64.37-7l.93-14c.34-4.68.86-9.36,1.29-14.06s1-9.4,1.61-14.13c.3-2.36.56-4.72.9-7.09l1.1-7.12c.39-2.38.71-4.75,1.13-7.15l1.32-7.19.66-3.6.77-3.63,1.59-7.28,1.86-7.38.47-1.85.54-1.88,1.09-3.77.55-1.89.63-1.95,1.27-3.92,1.51-4.15.19-.52.25-.6.49-1.19.5-1.19.07-.16.11-.24.24-.5.49-1Z" transform="translate(-267.37 0.79)"/><g class="cls-17"><g class="cls-3"><path class="cls-7" d="M458.12,493.4l.1-.25,0-.12,0-.07,0,0-.24.31-.24.31-.13.16-.15.23L456.25,496l-1.3,2.28-.66,1.14-.63,1.24-1.27,2.5-.64,1.25-.62,1.32-2.46,5.3-2.33,5.53-1.17,2.78-1.09,2.86-2.2,5.74c-.74,1.91-1.37,3.9-2.05,5.86a468,468,0,0,0-13.64,48.94c-3.65,16.8-6.89,33.87-9.26,51.16l-1.82,13c-.56,4.34-1,8.7-1.5,13s-1,8.72-1.44,13.09l-1.41,13.82L409,700.58c-.68,4.58-1.28,9.16-2,13.73s-1.48,9.12-2.37,13.66-1.67,9.09-2.67,13.6l-1.44,6.77-1.59,6.74c-1,4.49-2.27,8.94-3.41,13.4-2.47,8.89-5.07,17.73-8.08,26.44a359.38,359.38,0,0,1-21.61,50.73q-6.36,12.23-13.87,23.8c-1.24,1.93-2.53,3.83-3.82,5.73a47.11,47.11,0,0,1-4.23,5.48,37.68,37.68,0,0,1-5.26,4.79,24.87,24.87,0,0,1-6.68,3.64l-.79-.61a39.51,39.51,0,0,1,1-7.32,54.15,54.15,0,0,1,1.94-6.51c.77-2.08,1.67-4.06,2.62-6s1.84-4,2.71-6q5.25-12,9.59-24.35c2.93-8.21,5.48-16.55,7.86-24.91.58-2.1,1.2-4.18,1.74-6.28l1.63-6.31c.54-2.11,1-4.23,1.51-6.34l.76-3.17.69-3.18c1.92-8.46,3.43-17,4.83-25.56.61-4.29,1.34-8.55,1.82-12.86l.8-6.44.66-6.46c.89-8.61,1.44-17.25,1.77-25.88.18-4.32.2-8.65.32-13s-.08-8.64-.11-13l-.94-26.64c-.16-4.57-.38-9.14-.48-13.72l-.15-13.77c-.19-9.18.06-18.4.15-27.64,0-4.62.29-9.25.46-13.89l.28-7c.09-2.32.19-4.64.37-7l.93-14c.34-4.67.86-9.36,1.29-14s1-9.41,1.61-14.13c.3-2.36.56-4.72.9-7.09l1.1-7.12c.39-2.38.71-4.75,1.13-7.15l1.32-7.19.66-3.61.78-3.63,1.58-7.27,1.86-7.38.47-1.85.54-1.88,1.09-3.77.55-1.9.63-1.95,1.27-3.91,1.51-4.15.19-.53.25-.59.49-1.19.5-1.2.07-.15.11-.25.24-.49.49-1Z" transform="translate(-267.37 0.79)"/></g></g><g class="cls-3"><path class="cls-4" d="M491,542.19v.89l0,.58,0,.58,0,.51-.16,2c-.11,1.28-.24,2.49-.37,3.69-.28,2.4-.6,4.72-.95,7-.7,4.57-1.46,9-2.37,13.42-1.79,8.8-3.91,17.36-6.39,25.78a340.22,340.22,0,0,1-18.4,48.66c-3.68,7.78-7.57,15.43-11.82,22.85-2,3.75-4.31,7.38-6.47,11-1.11,1.81-2.28,3.6-3.42,5.39s-2.27,3.59-3.49,5.33a347.34,347.34,0,0,1-31.2,39.8c-2.83,3.06-5.78,6.09-8.61,9.08l-3.83,4-1.92,2c-.65.67-1.28,1.35-1.87,2.06A170.61,170.61,0,0,0,376,764.4a152,152,0,0,0-19.21,39.36L355.23,809l-1.35,5.29c-.82,3.55-1.59,7.11-2.16,10.71a152.61,152.61,0,0,0-2,21.81,140,140,0,0,0,1.23,22.09,81.76,81.76,0,0,1,.83,11.34c0,2-.05,4-.22,6.1a58.45,58.45,0,0,1-.86,6.69l-.88.48a28.4,28.4,0,0,1-10.1-9.18A40.17,40.17,0,0,1,334,872.8c-1.29-4-2.36-8.15-3.27-12.31-.39-2.09-.87-4.18-1.16-6.28s-.67-4.22-.86-6.34a141.84,141.84,0,0,1,3.82-51,196.75,196.75,0,0,1,19.29-47.23c1.06-1.84,2-3.74,3.13-5.55l3.32-5.42L360,736l1.76-2.64,3.51-5.29c2.35-3.51,4.9-6.87,7.34-10.34,2.19-3.15,4.35-6.17,6.47-9.28A268.67,268.67,0,0,0,415.88,628c1.93-7,3.48-14.16,4.75-21.28s2.27-14.27,2.87-21.4a210.54,210.54,0,0,0,.84-21.2c0-3.48-.18-6.91-.42-10.26-.13-1.66-.28-3.31-.47-4.87-.1-.78-.19-1.55-.31-2.25-.05-.38-.11-.68-.17-1l0-.24-.05-.16,0-.15,0,0v.06l0,.12Z" transform="translate(-267.37 0.79)"/></g><path class="cls-18" d="M507.3,538.11V539l0,.58,0,.59,0,.5-.15,2c-.11,1.28-.24,2.49-.38,3.69-.28,2.4-.6,4.72-.94,7-.7,4.57-1.47,9-2.38,13.42-1.79,8.8-3.91,17.36-6.39,25.78a340.22,340.22,0,0,1-18.4,48.66c-3.68,7.78-7.56,15.43-11.82,22.85-2,3.75-4.3,7.38-6.46,11-1.12,1.82-2.29,3.6-3.43,5.39s-2.26,3.59-3.48,5.33a348.46,348.46,0,0,1-31.2,39.8c-2.84,3.06-5.78,6.09-8.62,9.08l-3.83,4-1.92,2c-.65.67-1.28,1.35-1.87,2.06a170.61,170.61,0,0,0-13.61,17.5,152.82,152.82,0,0,0-19.21,39.36l-1.59,5.23-1.35,5.29c-.82,3.55-1.59,7.11-2.16,10.71a152.6,152.6,0,0,0-2,21.81,138.77,138.77,0,0,0,1.23,22.09,83.35,83.35,0,0,1,.82,11.34c0,2,0,4-.21,6.1a60.92,60.92,0,0,1-.87,6.69l-.88.48a28.49,28.49,0,0,1-10.1-9.18,40,40,0,0,1-5.63-11.51c-1.3-4.05-2.37-8.16-3.28-12.32-.38-2.09-.86-4.18-1.15-6.28s-.68-4.22-.87-6.34a141.77,141.77,0,0,1,3.83-51,195.85,195.85,0,0,1,19.29-47.24c1-1.84,2-3.74,3.12-5.55l3.32-5.42,1.65-2.73,1.75-2.64,3.51-5.29c2.36-3.51,4.9-6.87,7.34-10.34,2.19-3.14,4.36-6.17,6.48-9.28a268.91,268.91,0,0,0,36.85-80.44c1.93-7,3.47-14.15,4.75-21.28s2.27-14.27,2.86-21.4a210.54,210.54,0,0,0,.84-21.2c0-3.48-.17-6.91-.41-10.26-.13-1.66-.29-3.31-.48-4.87-.09-.78-.19-1.54-.3-2.25-.05-.38-.12-.67-.18-1l0-.23-.05-.17,0-.15v.14Z" transform="translate(-267.37 0.79)"/><g class="cls-19"><g class="cls-3"><path class="cls-7" d="M535.86,518.52v.88l0,.59,0,.58,0,.51-.15,2c-.11,1.28-.24,2.49-.38,3.69-.28,2.4-.6,4.72-.94,7-.7,4.56-1.47,9-2.37,13.42-1.8,8.8-3.92,17.36-6.4,25.78a339,339,0,0,1-18.4,48.66c-3.68,7.78-7.56,15.43-11.82,22.85-2,3.75-4.3,7.37-6.46,11-1.12,1.81-2.29,3.59-3.42,5.39s-2.27,3.59-3.49,5.33A348.34,348.34,0,0,1,450.73,706c-2.84,3.07-5.78,6.1-8.62,9.09l-3.83,4-1.92,2c-.65.67-1.28,1.35-1.87,2.06a169.53,169.53,0,0,0-13.61,17.5,152.66,152.66,0,0,0-19.21,39.36l-1.59,5.23-1.35,5.29c-.82,3.54-1.59,7.11-2.16,10.71a152.46,152.46,0,0,0-2,21.81,140,140,0,0,0,1.23,22.09,83.23,83.23,0,0,1,.82,11.34c0,2,0,4-.21,6.1a58.59,58.59,0,0,1-.87,6.69l-.87.48a28.44,28.44,0,0,1-10.11-9.18,39.88,39.88,0,0,1-5.63-11.52c-1.3-4-2.37-8.15-3.28-12.31-.38-2.09-.86-4.18-1.15-6.29s-.68-4.21-.87-6.34a141.81,141.81,0,0,1,3.83-51A196.18,196.18,0,0,1,396.72,726c1-1.83,2-3.73,3.12-5.54l3.32-5.42,1.65-2.73,1.75-2.64,3.51-5.29c2.36-3.51,4.9-6.87,7.34-10.35,2.19-3.14,4.36-6.16,6.48-9.27a268.67,268.67,0,0,0,36.85-80.44c1.93-7,3.48-14.16,4.75-21.29s2.27-14.26,2.86-21.4a210.23,210.23,0,0,0,.84-21.19c0-3.48-.17-6.92-.41-10.26-.13-1.67-.29-3.31-.48-4.87-.09-.78-.19-1.55-.3-2.25-.05-.38-.12-.68-.17-1l-.05-.24,0-.16-.05-.15v.14Z" transform="translate(-267.37 0.79)"/></g></g><g class="cls-3"><path class="cls-4" d="M575.11,525.63l-.09.45a4,4,0,0,0-.08.54l-.13,1.32c-.09.88-.16,1.77-.22,2.74-.11,1.89-.27,3.74-.33,5.69l-.22,5.81-.08,5.89c-.13,7.86.11,15.79.46,23.75.11,4,.43,8,.72,11.95l.43,6,.6,6,.59,6,.3,3,.37,3L579,619.63c.24,2,.61,4,.94,6l1,5.95c.67,4,1.29,8,2.14,11.89s1.65,7.89,2.48,11.85c.39,2,.89,3.93,1.38,5.89l1.46,5.87a448.54,448.54,0,0,0,14.13,46.47c.34,1,.65,1.93,1,2.87l1.13,2.82,2.28,5.64,4.56,11.33,4.91,11.89L619,754c.41,1,.84,2,1.23,2.95l1.1,3,4.48,12c.74,2,1.54,4,2.15,6l2,6.08,2,6.08,1,3c.34,1,.58,2.06.87,3.08l3.43,12.33c4.09,16.57,7.14,33.44,7.91,50.53.07,2.14.23,4.26.23,6.4l-.06,6.42-.06,3.2-.23,3.2c-.17,2.14-.27,4.27-.49,6.4l-.83,6.36c-.11,1.06-.36,2.12-.53,3.17s-.39,2.11-.61,3.16c-1,4.16-2.45,8.32-5.39,11.9l-.94-.32c-.14-1.09-.23-2.19-.27-3.23s-.13-2.12-.13-3.15,0-2.07,0-3.09.1-2,.1-3c0-2,.27-4,.3-6.07l.05-6.09c0-2-.15-4.06-.21-6.09l-.11-3-.27-3-.51-6.06c-.19-2-.53-4-.79-6l-.84-6-1.12-6-1.1-6-1.43-5.93-1.43-5.91-.36-1.48-.44-1.46-.88-2.92L625,818.54c-.61-1.94-1.1-3.9-1.85-5.8L619,801.28c-.36-.94-.68-1.91-1.09-2.84l-1.22-2.8-2.44-5.59c-3-7.53-7-14.68-10.73-21.9l-1.41-2.69c-.5-.89-1-1.75-1.56-2.63l-3.14-5.24L591,747.18l-6.71-10.95L581,730.74,579.28,728c-.55-.92-1-1.87-1.56-2.81l-6.26-11.26-3.14-5.66-2.89-5.76L559.57,691c-1-1.92-1.89-3.88-2.79-5.84l-2.71-5.88-2.71-5.89c-.9-2-1.82-3.93-2.62-5.93-1.68-4-3.31-8-5-12s-3.26-8-4.84-12.08l-2.35-6.07c-.77-2-1.59-4-2.29-6.11l-4.34-12.3-1.1-3.09-1-3.1-2-6.22-2-6.23L521.79,594c-1.22-4.2-2.59-8.38-3.73-12.62-2.43-8.46-4.64-17-6.77-25.65l-1.55-6.52-1.46-6.61c-.51-2.18-.94-4.49-1.41-6.74-.23-1.11-.45-2.3-.66-3.49l-.34-1.79c-.05-.27-.11-.65-.16-1l-.16-1.11Z" transform="translate(-267.37 0.79)"/></g><path class="cls-20" d="M599.42,522l-.08.45a3.79,3.79,0,0,0-.08.53l-.13,1.33c-.09.88-.17,1.77-.22,2.73-.11,1.9-.27,3.75-.33,5.7l-.23,5.81-.08,5.88c-.12,7.87.12,15.8.47,23.76.1,4,.43,8,.71,12l.44,6,.59,6,.59,6,.3,3,.38,3L603.36,616c.24,2,.61,4,.93,5.95l1,6c.68,4,1.29,8,2.15,11.9s1.65,7.89,2.47,11.84c.39,2,.9,3.94,1.38,5.89l1.47,5.88a449.22,449.22,0,0,0,14.12,46.47c.34.95.66,1.92,1,2.87l1.14,2.82,2.27,5.64,4.56,11.33,4.92,11.88,2.48,5.91c.41,1,.84,2,1.23,3l1.11,3,4.47,12c.75,2,1.54,4,2.15,6l2,6.09,2,6.08,1,3c.33,1,.57,2.06.86,3.08l3.43,12.33c4.1,16.56,7.15,33.44,7.91,50.53.08,2.14.23,4.26.24,6.4l-.07,6.42-.06,3.2-.22,3.2c-.17,2.14-.28,4.27-.5,6.39l-.82,6.37c-.12,1.06-.36,2.12-.54,3.17s-.39,2.11-.6,3.16c-1,4.16-2.46,8.32-5.39,11.9l-1-.32c-.13-1.1-.23-2.19-.27-3.24s-.12-2.11-.12-3.14,0-2.07,0-3.09.11-2,.11-3c0-2,.26-4,.29-6.08l0-6.08c0-2-.14-4.07-.2-6.09l-.12-3-.27-3-.5-6.07c-.19-2-.53-4-.79-6l-.84-6-1.12-6-1.1-6-1.44-5.92-1.43-5.91-.36-1.48-.44-1.46-.88-2.92-1.75-5.83c-.62-1.94-1.11-3.9-1.86-5.8l-4.16-11.46c-.37-1-.68-1.91-1.09-2.84L641,792l-2.44-5.59c-3-7.53-7-14.69-10.73-21.9l-1.41-2.69c-.5-.89-1-1.76-1.56-2.63l-3.14-5.24-6.34-10.41-6.71-10.95-3.36-5.5-1.68-2.75c-.55-.93-1.05-1.87-1.57-2.81l-6.26-11.27-3.13-5.65-2.9-5.76-5.85-11.54c-1-1.92-1.89-3.88-2.8-5.84l-2.7-5.88-2.71-5.89c-.91-2-1.83-3.93-2.63-5.93-1.67-4-3.31-8-5-12s-3.27-8-4.84-12.07l-2.35-6.08c-.78-2-1.6-4-2.29-6.1l-4.35-12.31-1.1-3.08-1-3.1-2-6.22-2-6.23-1.89-6.28c-1.22-4.2-2.6-8.38-3.74-12.62-2.42-8.46-4.64-17-6.76-25.65l-1.56-6.52-1.46-6.61c-.51-2.19-.93-4.49-1.4-6.74-.24-1.11-.45-2.3-.67-3.5l-.33-1.78c-.05-.27-.11-.65-.16-1l-.17-1.11Z" transform="translate(-267.37 0.79)"/><g class="cls-21"><g class="cls-3"><path class="cls-7" d="M620,502l-.08.45a4,4,0,0,0-.08.53l-.13,1.33c-.09.88-.17,1.77-.22,2.73-.11,1.9-.27,3.75-.34,5.7l-.22,5.81-.08,5.88c-.12,7.87.12,15.8.46,23.76.11,4,.44,8,.72,12l.44,6,.59,6,.59,6,.3,3,.37,3L623.89,596c.25,2,.62,4,.94,5.95l1,6c.68,4,1.29,8,2.15,11.9s1.64,7.89,2.47,11.84c.39,2,.89,3.94,1.38,5.89l1.47,5.88a449.22,449.22,0,0,0,14.12,46.47c.34.95.66,1.92,1,2.87l1.14,2.82,2.27,5.64,4.56,11.33,4.92,11.88,2.48,5.91c.41,1,.84,2,1.23,3l1.11,3,4.47,12c.75,2,1.54,4,2.15,6l2,6.09,2,6.08,1,3c.33,1,.57,2.06.86,3.08l3.43,12.33c4.1,16.56,7.15,33.44,7.91,50.53.07,2.14.23,4.26.23,6.4l-.06,6.42-.06,3.2-.22,3.2c-.17,2.14-.28,4.27-.5,6.39l-.83,6.37c-.11,1.06-.35,2.12-.53,3.17s-.39,2.11-.6,3.16c-1,4.16-2.46,8.32-5.39,11.9l-1-.32c-.13-1.1-.23-2.19-.27-3.24s-.12-2.11-.12-3.14,0-2.07,0-3.09.11-2,.11-3.05c0-2,.26-4,.29-6.08l.05-6.08c0-2-.14-4.06-.21-6.09l-.11-3-.27-3-.5-6.06c-.19-2-.54-4-.79-6l-.85-6-1.11-6-1.1-6-1.44-5.92-1.43-5.91-.36-1.48-.44-1.46-.88-2.92-1.76-5.83c-.61-1.94-1.1-3.9-1.85-5.8l-4.16-11.46c-.37-1-.68-1.91-1.09-2.84L661.5,772l-2.43-5.59c-3-7.53-7-14.68-10.73-21.9l-1.42-2.69c-.49-.89-1-1.75-1.55-2.63l-3.14-5.24-6.34-10.41-6.71-11-3.36-5.5-1.68-2.75c-.55-.92-1-1.87-1.57-2.81l-6.26-11.27-3.13-5.65-2.9-5.76-5.86-11.54c-1-1.92-1.89-3.88-2.79-5.84l-2.7-5.88-2.71-5.89c-.91-2-1.83-3.93-2.63-5.93-1.67-4-3.31-8-5-12s-3.27-8-4.84-12.07l-2.35-6.08c-.78-2-1.6-4.05-2.29-6.1l-4.35-12.31-1.1-3.08-1-3.1-2-6.22-2-6.23-1.89-6.28c-1.22-4.2-2.6-8.38-3.74-12.62-2.43-8.46-4.64-17-6.76-25.65l-1.56-6.52-1.46-6.61c-.51-2.19-.94-4.49-1.4-6.74-.24-1.11-.45-2.3-.67-3.5l-.33-1.78c-.06-.27-.11-.65-.17-1l-.16-1.1Z" transform="translate(-267.37 0.79)"/></g></g><path class="cls-22" d="M740.05,334.48c23.85,213.07-92.7,206.57-246.33,224.78C362,574.88,249.09,510.52,269.84,348.18,284.33,234.75,368.24,79,495,95.38,616.46,111.11,724.52,195.69,740.05,334.48Z" transform="translate(-267.37 0.79)"/><path class="cls-2" d="M740.05,334.48c23.85,213.07-92.7,206.57-246.33,224.78C362,574.88,249.09,510.52,269.84,348.18,284.33,234.75,368.24,79,495,95.38,616.46,111.11,724.52,195.69,740.05,334.48Z" transform="translate(-267.37 0.79)"/><g class="cls-23"><path class="cls-24" d="M700.83,82.86c-7.86,25-119.69,27.76-207.08,61-133.4,50.77-219.25-21.69-207.08-61,10-32.2,92.71-61,207.08-61S710.94,50.71,700.83,82.86Z" transform="translate(-267.37 0.79)"/><path class="cls-25" d="M696,60.23c-7.86,25-119.68,27.76-207.08,61-133.4,50.76-219.25-21.69-207.08-61,10-32.2,92.71-61,207.08-61S706.06,28.07,696,60.23Z" transform="translate(-267.37 0.79)"/><path class="cls-26" d="M299.16,546.19c-17.68-5.79-15.21-31.57,3.25-33.86,72.53-9,151.45-7.56,191.67-23.68,42.23-16.93,158.79,16.65,278.53,41,18.72,3.82,18.61,30.58-.14,34.2L513,613.86a17.43,17.43,0,0,1-8.72-.55Z" transform="translate(-267.37 0.79)"/><path class="cls-27" d="M318.64,579.07c-16.49-6.23-14.19-34,3-36.47,67.64-9.67,141.24-8.14,178.75-25.51C539.8,498.85,648.51,535,760.19,561.3c17.45,4.11,17.35,32.94-.14,36.84L518.1,652a14.21,14.21,0,0,1-8.13-.6Z" transform="translate(-267.37 0.79)"/></g><path class="cls-28" d="M627.49,161.82c7.34,9.65-10.09,24.46-22,22-8.76-1.85-20.57-11-21.95-22-1.12-8.85,11.69-23,21.95-22C612.45,140.55,620.28,152.34,627.49,161.82Z" transform="translate(-267.37 0.79)"/><path class="cls-29" d="M602.78,197.48c2.79,3.67-3.83,9.29-8.34,8.34-3.33-.7-7.81-4.18-8.34-8.34-.42-3.36,4.44-8.73,8.34-8.34C597.07,189.4,600,193.88,602.78,197.48Z" transform="translate(-267.37 0.79)"/><path class="cls-29" d="M621.65,193.45c1.41,1.84-1.93,4.68-4.2,4.2-1.67-.35-3.93-2.11-4.2-4.2-.21-1.7,2.24-4.4,4.2-4.2C618.78,189.38,620.27,191.63,621.65,193.45Z" transform="translate(-267.37 0.79)"/><path class="cls-30" d="M496,568c-110.34,14.25-208-27.89-225.41-137.73,29.44,86.92,118.53,119.83,217.92,107,153.43-19.82,270-14.54,244-227.35q-1.1-8.93-2.7-17.54A282.16,282.16,0,0,1,740,340.65C766.07,553.45,649.45,548.17,496,568Z" transform="translate(-267.37 0.79)"/><g class="cls-31"><path class="cls-30" d="M479.94,560.71c-125.12,9.08-228.71-56.44-208.77-212.53C285.67,234.75,369.58,79,496.34,95.38c1.35.17,2.69.36,4,.55-104.13,16.8-172,151.3-184.91,252.25C297.92,485.39,375.85,552.62,479.94,560.71Z" transform="translate(-267.37 0.79)"/></g><g class="cls-32"><path class="cls-33" d="M491.52,559.27a300.49,300.49,0,0,1-65.46.89q4.23-.37,8.49-.89c153.63-18.22,270.18-11.72,246.33-224.79C665.82,199.87,563.72,116.26,446.77,97a138.56,138.56,0,0,1,46-1.61c121.45,15.74,229.52,100.31,245.05,239.1C761.7,547.55,645.15,541.05,491.52,559.27Z" transform="translate(-267.37 0.79)"/></g><path class="cls-7" d="M597.46,276.83c-4,26.62,18.9,41.06,46.27,43.34a40.68,40.68,0,0,0,39.23-21c17.25-31.8-6-38.24-36.26-42.71C622,252.81,601.2,252.12,597.46,276.83Z" transform="translate(-267.37 0.79)"/><path d="M612.09,281.06c-2.62,17.35,13,26.42,31.09,27.25a23.72,23.72,0,0,0,21.57-11.81c12.3-21.16-2.49-25.31-21.86-28.18C627.42,266,614.43,265.61,612.09,281.06Z" transform="translate(-267.37 0.79)"/><path class="cls-7" d="M651.78,275c-.09,1.57,1.32,1.94,2.28,3,1.11,1.19,2.66-1.15,2.6-2.72,0-1.16-1.17-2.16-2.28-3S651.87,273.46,651.78,275Z" transform="translate(-267.37 0.79)"/><path class="cls-7" d="M648.25,276.6c0,.83.45,1,.77,1.55s.94-.63.93-1.45a2.42,2.42,0,0,0-.76-1.55C648.77,274.7,648.3,275.78,648.25,276.6Z" transform="translate(-267.37 0.79)"/><path class="cls-7" d="M653.9,279.66c0,.73-.77.83-1.32,1.26s-1.29-.67-1.18-1.39c.08-.53.71-.94,1.32-1.25S653.94,278.94,653.9,279.66Z" transform="translate(-267.37 0.79)"/><path class="cls-7" d="M412.89,288.54c4.95,26.46-17.46,41.69-44.74,44.93a40.72,40.72,0,0,1-39.94-19.62c-18.34-31.19,4.68-38.43,34.76-44C387.55,265.39,408.29,264,412.89,288.54Z" transform="translate(-267.37 0.79)"/><path d="M398.41,293.28c3.23,17.24-12.11,26.86-30.12,28.32a23.71,23.71,0,0,1-22-11.06c-13-20.72,1.6-25.38,20.86-28.92C382.57,278.8,395.54,277.92,398.41,293.28Z" transform="translate(-267.37 0.79)"/><path class="cls-7" d="M382.1,286.51c-.09,1.58,1.32,1.95,2.28,3,1.1,1.2,2.65-1.15,2.59-2.71,0-1.16-1.16-2.17-2.28-3S382.18,284.94,382.1,286.51Z" transform="translate(-267.37 0.79)"/><path class="cls-7" d="M378.57,288.08c-.05.82.44,1,.77,1.54s.93-.63.93-1.45a2.38,2.38,0,0,0-.77-1.54C379.09,286.17,378.61,287.25,378.57,288.08Z" transform="translate(-267.37 0.79)"/><path class="cls-7" d="M384.22,291.14c0,.73-.78.82-1.33,1.25s-1.29-.67-1.18-1.39c.09-.53.72-.93,1.33-1.25S384.26,290.41,384.22,291.14Z" transform="translate(-267.37 0.79)"/></svg>